<?xml version="1.0" encoding="UTF-8" standalone="no"?><svg xmlns="http://www.w3.org/2000/svg" xmlns:xlink="http://www.w3.org/1999/xlink" contentScriptType="application/ecmascript" contentStyleType="text/css" height="1510.9375px" preserveAspectRatio="none" style="width:1704px;height:1510px;background:#11141A;" version="1.1" viewBox="0 0 1704 1510" width="1704.6875px" zoomAndPan="magnify"><defs/><g><text fill="#E6E8EC" font-family="Inter, ui-sans-serif, system-ui, -apple-system, sans-serif" font-size="28.125" lengthAdjust="spacingAndGlyphs" textLength="643.75" x="523.4375" y="41.7313">Projekce: tok z event streamu do read modelu</text><rect fill="#11141A" height="297.9248" rx="4.6875" ry="4.6875" style="stroke: #3D424E; stroke-width: 3.125;" width="615.625" x="615.625" y="681.5918"/><rect fill="#11141A" height="121.7041" style="stroke: none; stroke-width: 1.5625;" width="615.625" x="615.625" y="857.8125"/><line style="stroke: #3D424E; stroke-width: 1.5625; stroke-dasharray: 5.0,5.0;" x1="79.6875" x2="79.6875" y1="183.2031" y2="1372.29"/><line style="stroke: #3D424E; stroke-width: 1.5625; stroke-dasharray: 5.0,5.0;" x1="348.4375" x2="348.4375" y1="183.2031" y2="1372.29"/><line style="stroke: #3D424E; stroke-width: 1.5625; stroke-dasharray: 5.0,5.0;" x1="531.25" x2="531.25" y1="183.2031" y2="1372.29"/><line style="stroke: #3D424E; stroke-width: 1.5625; stroke-dasharray: 5.0,5.0;" x1="746.875" x2="746.875" y1="183.2031" y2="1372.29"/><line style="stroke: #3D424E; stroke-width: 1.5625; stroke-dasharray: 5.0,5.0;" x1="1139.0625" x2="1139.0625" y1="183.2031" y2="1372.29"/><line style="stroke: #3D424E; stroke-width: 1.5625; stroke-dasharray: 5.0,5.0;" x1="1481.25" x2="1481.25" y1="183.2031" y2="1372.29"/><line style="stroke: #3D424E; stroke-width: 1.5625; stroke-dasharray: 5.0,5.0;" x1="1648.4375" x2="1648.4375" y1="183.2031" y2="1372.29"/><rect fill="#161A22" height="47.3389" rx="4.6875" ry="4.6875" style="stroke: #3D424E; stroke-width: 2.34375;" width="134.375" x="12.5" y="134.3018"/><text fill="#E6E8EC" font-family="Inter, ui-sans-serif, system-ui, -apple-system, sans-serif" font-size="21.875" lengthAdjust="spacingAndGlyphs" textLength="112.5" x="23.4375" y="165.5441">Aggregate</text><rect fill="#161A22" height="47.3389" rx="4.6875" ry="4.6875" style="stroke: #3D424E; stroke-width: 2.34375;" width="134.375" x="12.5" y="1370.7275"/><text fill="#E6E8EC" font-family="Inter, ui-sans-serif, system-ui, -apple-system, sans-serif" font-size="21.875" lengthAdjust="spacingAndGlyphs" textLength="112.5" x="23.4375" y="1401.9699">Aggregate</text><text fill="#E6E8EC" font-family="Inter, ui-sans-serif, system-ui, -apple-system, sans-serif" font-size="21.875" lengthAdjust="spacingAndGlyphs" textLength="125" x="281.25" y="178.0441">Event Store</text><path d="M320.3125,101.4893 C320.3125,85.8643 348.4375,85.8643 348.4375,85.8643 C348.4375,85.8643 376.5625,85.8643 376.5625,101.4893 L376.5625,142.1143 C376.5625,157.7393 348.4375,157.7393 348.4375,157.7393 C348.4375,157.7393 320.3125,157.7393 320.3125,142.1143 L320.3125,101.4893 " fill="#1B202A" style="stroke: #3D424E; stroke-width: 2.34375;"/><path d="M320.3125,101.4893 C320.3125,117.1143 348.4375,117.1143 348.4375,117.1143 C348.4375,117.1143 376.5625,117.1143 376.5625,101.4893 " fill="none" style="stroke: #3D424E; stroke-width: 2.34375;"/><text fill="#E6E8EC" font-family="Inter, ui-sans-serif, system-ui, -apple-system, sans-serif" font-size="21.875" lengthAdjust="spacingAndGlyphs" textLength="125" x="281.25" y="1391.0324">Event Store</text><path d="M320.3125,1411.8164 C320.3125,1396.1914 348.4375,1396.1914 348.4375,1396.1914 C348.4375,1396.1914 376.5625,1396.1914 376.5625,1411.8164 L376.5625,1452.4414 C376.5625,1468.0664 348.4375,1468.0664 348.4375,1468.0664 C348.4375,1468.0664 320.3125,1468.0664 320.3125,1452.4414 L320.3125,1411.8164 " fill="#1B202A" style="stroke: #3D424E; stroke-width: 2.34375;"/><path d="M320.3125,1411.8164 C320.3125,1427.4414 348.4375,1427.4414 348.4375,1427.4414 C348.4375,1427.4414 376.5625,1427.4414 376.5625,1411.8164 " fill="none" style="stroke: #3D424E; stroke-width: 2.34375;"/><path d="M454.6875,116.6504 L607.8125,116.6504 C615.625,116.6504 615.625,149.9268 615.625,149.9268 C615.625,149.9268 615.625,183.2031 607.8125,183.2031 L454.6875,183.2031 C446.875,183.2031 446.875,149.9268 446.875,149.9268 C446.875,149.9268 446.875,116.6504 454.6875,116.6504 " fill="#1B202A" style="stroke: #A80036; stroke-width: 3.125;"/><path d="M607.8125,116.6504 C600,116.6504 600,149.9268 600,149.9268 C600,183.2031 607.8125,183.2031 607.8125,183.2031 " fill="none" style="stroke: #A80036; stroke-width: 3.125;"/><text fill="#E6E8EC" font-family="Inter, ui-sans-serif, system-ui, -apple-system, sans-serif" font-size="21.875" lengthAdjust="spacingAndGlyphs" textLength="109.375" x="468.75" y="144.7678">Event Bus</text><text fill="#E6E8EC" font-family="Inter, ui-sans-serif, system-ui, -apple-system, sans-serif" font-size="21.875" lengthAdjust="spacingAndGlyphs" textLength="137.5" x="454.6875" y="170.2316">(Messenger)</text><path d="M454.6875,1370.7275 L607.8125,1370.7275 C615.625,1370.7275 615.625,1404.0039 615.625,1404.0039 C615.625,1404.0039 615.625,1437.2803 607.8125,1437.2803 L454.6875,1437.2803 C446.875,1437.2803 446.875,1404.0039 446.875,1404.0039 C446.875,1404.0039 446.875,1370.7275 454.6875,1370.7275 " fill="#1B202A" style="stroke: #A80036; stroke-width: 3.125;"/><path d="M607.8125,1370.7275 C600,1370.7275 600,1404.0039 600,1404.0039 C600,1437.2803 607.8125,1437.2803 607.8125,1437.2803 " fill="none" style="stroke: #A80036; stroke-width: 3.125;"/><text fill="#E6E8EC" font-family="Inter, ui-sans-serif, system-ui, -apple-system, sans-serif" font-size="21.875" lengthAdjust="spacingAndGlyphs" textLength="109.375" x="468.75" y="1398.8449">Event Bus</text><text fill="#E6E8EC" font-family="Inter, ui-sans-serif, system-ui, -apple-system, sans-serif" font-size="21.875" lengthAdjust="spacingAndGlyphs" textLength="137.5" x="454.6875" y="1424.3088">(Messenger)</text><rect fill="#161A22" height="72.8027" rx="4.6875" ry="4.6875" style="stroke: #3D424E; stroke-width: 2.34375;" width="231.25" x="631.25" y="108.8379"/><text fill="#E6E8EC" font-family="Inter, ui-sans-serif, system-ui, -apple-system, sans-serif" font-size="21.875" lengthAdjust="spacingAndGlyphs" textLength="96.875" x="698.4375" y="140.0803">Projector</text><text fill="#E6E8EC" font-family="Inter, ui-sans-serif, system-ui, -apple-system, sans-serif" font-size="21.875" lengthAdjust="spacingAndGlyphs" textLength="209.375" x="642.1875" y="165.5441">(OrderListProjector)</text><rect fill="#161A22" height="72.8027" rx="4.6875" ry="4.6875" style="stroke: #3D424E; stroke-width: 2.34375;" width="231.25" x="631.25" y="1370.7275"/><text fill="#E6E8EC" font-family="Inter, ui-sans-serif, system-ui, -apple-system, sans-serif" font-size="21.875" lengthAdjust="spacingAndGlyphs" textLength="96.875" x="698.4375" y="1401.9699">Projector</text><text fill="#E6E8EC" font-family="Inter, ui-sans-serif, system-ui, -apple-system, sans-serif" font-size="21.875" lengthAdjust="spacingAndGlyphs" textLength="209.375" x="642.1875" y="1427.4338">(OrderListProjector)</text><text fill="#E6E8EC" font-family="Inter, ui-sans-serif, system-ui, -apple-system, sans-serif" font-size="21.875" lengthAdjust="spacingAndGlyphs" textLength="128.125" x="1070.3125" y="152.5803">Read Model</text><text fill="#E6E8EC" font-family="Inter, ui-sans-serif, system-ui, -apple-system, sans-serif" font-size="21.875" lengthAdjust="spacingAndGlyphs" textLength="143.75" x="1062.5" y="178.0441">(orders_view)</text><path d="M1110.9375,76.0254 C1110.9375,60.4004 1139.0625,60.4004 1139.0625,60.4004 C1139.0625,60.4004 1167.1875,60.4004 1167.1875,76.0254 L1167.1875,116.6504 C1167.1875,132.2754 1139.0625,132.2754 1139.0625,132.2754 C1139.0625,132.2754 1110.9375,132.2754 1110.9375,116.6504 L1110.9375,76.0254 " fill="#1B202A" style="stroke: #3D424E; stroke-width: 2.34375;"/><path d="M1110.9375,76.0254 C1110.9375,91.6504 1139.0625,91.6504 1139.0625,91.6504 C1139.0625,91.6504 1167.1875,91.6504 1167.1875,76.0254 " fill="none" style="stroke: #3D424E; stroke-width: 2.34375;"/><text fill="#E6E8EC" font-family="Inter, ui-sans-serif, system-ui, -apple-system, sans-serif" font-size="21.875" lengthAdjust="spacingAndGlyphs" textLength="128.125" x="1070.3125" y="1391.0324">Read Model</text><text fill="#E6E8EC" font-family="Inter, ui-sans-serif, system-ui, -apple-system, sans-serif" font-size="21.875" lengthAdjust="spacingAndGlyphs" textLength="143.75" x="1062.5" y="1416.4963">(orders_view)</text><path d="M1110.9375,1437.2803 C1110.9375,1421.6553 1139.0625,1421.6553 1139.0625,1421.6553 C1139.0625,1421.6553 1167.1875,1421.6553 1167.1875,1437.2803 L1167.1875,1477.9053 C1167.1875,1493.5303 1139.0625,1493.5303 1139.0625,1493.5303 C1139.0625,1493.5303 1110.9375,1493.5303 1110.9375,1477.9053 L1110.9375,1437.2803 " fill="#1B202A" style="stroke: #3D424E; stroke-width: 2.34375;"/><path d="M1110.9375,1437.2803 C1110.9375,1452.9053 1139.0625,1452.9053 1139.0625,1452.9053 C1139.0625,1452.9053 1167.1875,1452.9053 1167.1875,1437.2803 " fill="none" style="stroke: #3D424E; stroke-width: 2.34375;"/><rect fill="#161A22" height="47.3389" rx="4.6875" ry="4.6875" style="stroke: #3D424E; stroke-width: 2.34375;" width="175" x="1393.75" y="134.3018"/><text fill="#E6E8EC" font-family="Inter, ui-sans-serif, system-ui, -apple-system, sans-serif" font-size="21.875" lengthAdjust="spacingAndGlyphs" textLength="153.125" x="1404.6875" y="165.5441">Query Handler</text><rect fill="#161A22" height="47.3389" rx="4.6875" ry="4.6875" style="stroke: #3D424E; stroke-width: 2.34375;" width="175" x="1393.75" y="1370.7275"/><text fill="#E6E8EC" font-family="Inter, ui-sans-serif, system-ui, -apple-system, sans-serif" font-size="21.875" lengthAdjust="spacingAndGlyphs" textLength="153.125" x="1404.6875" y="1401.9699">Query Handler</text><text fill="#E6E8EC" font-family="Inter, ui-sans-serif, system-ui, -apple-system, sans-serif" font-size="21.875" lengthAdjust="spacingAndGlyphs" textLength="50" x="1618.75" y="178.0441">User</text><ellipse cx="1648.4375" cy="74.9268" fill="#161A22" rx="12.5" ry="12.5" style="stroke: #F0A456; stroke-width: 3.125;"/><path d="M1648.4375,87.4268 L1648.4375,129.6143 M1628.125,99.9268 L1668.75,99.9268 M1648.4375,129.6143 L1628.125,153.0518 M1648.4375,129.6143 L1668.75,153.0518 " fill="none" style="stroke: #F0A456; stroke-width: 3.125;"/><text fill="#E6E8EC" font-family="Inter, ui-sans-serif, system-ui, -apple-system, sans-serif" font-size="21.875" lengthAdjust="spacingAndGlyphs" textLength="50" x="1618.75" y="1391.0324">User</text><ellipse cx="1648.4375" cy="1411.8164" fill="#161A22" rx="12.5" ry="12.5" style="stroke: #F0A456; stroke-width: 3.125;"/><path d="M1648.4375,1424.3164 L1648.4375,1466.5039 M1628.125,1436.8164 L1668.75,1436.8164 M1648.4375,1466.5039 L1628.125,1489.9414 M1648.4375,1466.5039 L1668.75,1489.9414 " fill="none" style="stroke: #F0A456; stroke-width: 3.125;"/><rect fill="#1B202A" height="4.6875" style="stroke: #1B202A; stroke-width: 1.5625;" width="1681.25" x="4.6875" y="231.8726"/><line style="stroke: #3D424E; stroke-width: 1.5625;" x1="4.6875" x2="1685.9375" y1="231.8726" y2="231.8726"/><line style="stroke: #3D424E; stroke-width: 1.5625;" x1="4.6875" x2="1685.9375" y1="236.5601" y2="236.5601"/><rect fill="#1B202A" height="37.9639" style="stroke: #3D424E; stroke-width: 3.125;" width="329.6875" x="680.4688" y="214.4531"/><text fill="#A6ADBB" font-family="Inter, ui-sans-serif, system-ui, -apple-system, sans-serif" font-size="21.875" font-weight="bold" lengthAdjust="spacingAndGlyphs" textLength="300" x="689.8438" y="241.008">Write side: vznik eventu</text><polygon fill="#F0A456" points="329.6875,296.6309,345.3125,302.8809,329.6875,309.1309,335.9375,302.8809" style="stroke: #F0A456; stroke-width: 1.5625;"/><line style="stroke: #F0A456; stroke-width: 2.34375;" x1="79.6875" x2="339.0625" y1="302.8809" y2="302.8809"/><text fill="#E6E8EC" font-family="Inter, ui-sans-serif, system-ui, -apple-system, sans-serif" font-size="21.875" lengthAdjust="spacingAndGlyphs" textLength="231.25" x="90.625" y="294.5969">append(OrderPlaced)</text><polygon fill="#F0A456" points="512.5,369.4336,528.125,375.6836,512.5,381.9336,518.75,375.6836" style="stroke: #F0A456; stroke-width: 1.5625;"/><line style="stroke: #F0A456; stroke-width: 2.34375;" x1="348.4375" x2="521.875" y1="375.6836" y2="375.6836"/><text fill="#E6E8EC" font-family="Inter, ui-sans-serif, system-ui, -apple-system, sans-serif" font-size="21.875" lengthAdjust="spacingAndGlyphs" textLength="145.3125" x="359.375" y="341.9357">publish event</text><text fill="#E6E8EC" font-family="Inter, ui-sans-serif, system-ui, -apple-system, sans-serif" font-size="21.875" lengthAdjust="spacingAndGlyphs" textLength="145.3125" x="359.375" y="367.3996">(přes outbox)</text><rect fill="#1B202A" height="4.6875" style="stroke: #1B202A; stroke-width: 1.5625;" width="1681.25" x="4.6875" y="421.228"/><line style="stroke: #3D424E; stroke-width: 1.5625;" x1="4.6875" x2="1685.9375" y1="421.228" y2="421.228"/><line style="stroke: #3D424E; stroke-width: 1.5625;" x1="4.6875" x2="1685.9375" y1="425.9155" y2="425.9155"/><rect fill="#1B202A" height="37.9639" style="stroke: #3D424E; stroke-width: 3.125;" width="471.875" x="609.375" y="403.8086"/><text fill="#A6ADBB" font-family="Inter, ui-sans-serif, system-ui, -apple-system, sans-serif" font-size="21.875" font-weight="bold" lengthAdjust="spacingAndGlyphs" textLength="442.1875" x="618.75" y="430.3635">Projection: aktualizace read modelu</text><polygon fill="#F0A456" points="728.125,485.9863,743.75,492.2363,728.125,498.4863,734.375,492.2363" style="stroke: #F0A456; stroke-width: 1.5625;"/><line style="stroke: #F0A456; stroke-width: 2.34375;" x1="531.25" x2="737.5" y1="492.2363" y2="492.2363"/><text fill="#E6E8EC" font-family="Inter, ui-sans-serif, system-ui, -apple-system, sans-serif" font-size="21.875" lengthAdjust="spacingAndGlyphs" textLength="132.8125" x="542.1875" y="483.9523">OrderPlaced</text><polygon fill="#F0A456" points="1120.3125,558.7891,1135.9375,565.0391,1120.3125,571.2891,1126.5625,565.0391" style="stroke: #F0A456; stroke-width: 1.5625;"/><line style="stroke: #F0A456; stroke-width: 2.34375;" x1="746.875" x2="1129.6875" y1="565.0391" y2="565.0391"/><text fill="#E6E8EC" font-family="Inter, ui-sans-serif, system-ui, -apple-system, sans-serif" font-size="21.875" lengthAdjust="spacingAndGlyphs" textLength="354.6875" x="757.8125" y="531.2912">SELECT last_processed_event_id</text><text fill="#E6E8EC" font-family="Inter, ui-sans-serif, system-ui, -apple-system, sans-serif" font-size="21.875" lengthAdjust="spacingAndGlyphs" textLength="309.375" x="757.8125" y="556.7551">FROM projection_checkpoint</text><line style="stroke: #F0A456; stroke-width: 2.34375;" x1="746.875" x2="812.5" y1="637.8418" y2="637.8418"/><line style="stroke: #F0A456; stroke-width: 2.34375;" x1="812.5" x2="812.5" y1="637.8418" y2="658.1543"/><line style="stroke: #F0A456; stroke-width: 2.34375;" x1="748.4375" x2="812.5" y1="658.1543" y2="658.1543"/><polygon fill="#F0A456" points="764.0625,651.9043,748.4375,658.1543,764.0625,664.4043,757.8125,658.1543" style="stroke: #F0A456; stroke-width: 1.5625;"/><text fill="#E6E8EC" font-family="Inter, ui-sans-serif, system-ui, -apple-system, sans-serif" font-size="21.875" lengthAdjust="spacingAndGlyphs" textLength="253.125" x="757.8125" y="604.0939">event_id &gt; checkpoint?</text><text fill="#E6E8EC" font-family="Inter, ui-sans-serif, system-ui, -apple-system, sans-serif" font-size="21.875" lengthAdjust="spacingAndGlyphs" textLength="228.125" x="757.8125" y="629.5578">(idempotence guard)</text><path d="M620.3125,681.5918 L715.625,681.5918 L715.625,694.0918 L700,709.7168 L615.625,709.7168 L615.625,686.2793 " fill="#1B202A" style="stroke: #3D424E; stroke-width: 1.5625;"/><rect fill="none" height="297.9248" rx="4.6875" ry="4.6875" style="stroke: #3D424E; stroke-width: 3.125;" width="615.625" x="615.625" y="681.5918"/><text fill="#F0A456" font-family="Inter, ui-sans-serif, system-ui, -apple-system, sans-serif" font-size="21.875" font-weight="bold" lengthAdjust="spacingAndGlyphs" textLength="29.6875" x="639.0625" y="703.4592">alt</text><text fill="#A6ADBB" font-family="Inter, ui-sans-serif, system-ui, -apple-system, sans-serif" font-size="21.875" font-weight="bold" lengthAdjust="spacingAndGlyphs" textLength="156.25" x="739.0625" y="705.0217">[nový event]</text><polygon fill="#F0A456" points="1120.3125,766.2598,1135.9375,772.5098,1120.3125,778.7598,1126.5625,772.5098" style="stroke: #F0A456; stroke-width: 1.5625;"/><line style="stroke: #F0A456; stroke-width: 2.34375;" x1="746.875" x2="1129.6875" y1="772.5098" y2="772.5098"/><text fill="#E6E8EC" font-family="Inter, ui-sans-serif, system-ui, -apple-system, sans-serif" font-size="21.875" lengthAdjust="spacingAndGlyphs" textLength="270.3125" x="757.8125" y="738.7619">INSERT INTO orders_view</text><text fill="#E6E8EC" font-family="Inter, ui-sans-serif, system-ui, -apple-system, sans-serif" font-size="21.875" lengthAdjust="spacingAndGlyphs" textLength="329.6875" x="757.8125" y="764.2258">(order_id, customer, status, ...)</text><polygon fill="#F0A456" points="1120.3125,839.0625,1135.9375,845.3125,1120.3125,851.5625,1126.5625,845.3125" style="stroke: #F0A456; stroke-width: 1.5625;"/><line style="stroke: #F0A456; stroke-width: 2.34375;" x1="746.875" x2="1129.6875" y1="845.3125" y2="845.3125"/><text fill="#E6E8EC" font-family="Inter, ui-sans-serif, system-ui, -apple-system, sans-serif" font-size="21.875" lengthAdjust="spacingAndGlyphs" textLength="334.375" x="757.8125" y="811.5646">UPDATE projection_checkpoint</text><text fill="#E6E8EC" font-family="Inter, ui-sans-serif, system-ui, -apple-system, sans-serif" font-size="21.875" lengthAdjust="spacingAndGlyphs" textLength="229.6875" x="757.8125" y="837.0285">SET last_event_id = ?</text><line style="stroke: #3D424E; stroke-width: 1.5625; stroke-dasharray: 2.0,2.0;" x1="615.625" x2="1231.25" y1="859.375" y2="859.375"/><text fill="#A6ADBB" font-family="Inter, ui-sans-serif, system-ui, -apple-system, sans-serif" font-size="21.875" font-weight="bold" lengthAdjust="spacingAndGlyphs" textLength="121.875" x="623.4375" y="879.6799">[duplicita]</text><line style="stroke: #F0A456; stroke-width: 2.34375;" x1="746.875" x2="812.5" y1="946.7041" y2="946.7041"/><line style="stroke: #F0A456; stroke-width: 2.34375;" x1="812.5" x2="812.5" y1="946.7041" y2="967.0166"/><line style="stroke: #F0A456; stroke-width: 2.34375;" x1="748.4375" x2="812.5" y1="967.0166" y2="967.0166"/><polygon fill="#F0A456" points="764.0625,960.7666,748.4375,967.0166,764.0625,973.2666,757.8125,967.0166" style="stroke: #F0A456; stroke-width: 1.5625;"/><text fill="#E6E8EC" font-family="Inter, ui-sans-serif, system-ui, -apple-system, sans-serif" font-size="21.875" lengthAdjust="spacingAndGlyphs" textLength="43.75" x="757.8125" y="912.9562">skip</text><text fill="#E6E8EC" font-family="Inter, ui-sans-serif, system-ui, -apple-system, sans-serif" font-size="21.875" lengthAdjust="spacingAndGlyphs" textLength="159.375" x="757.8125" y="938.4201">(už zpracován)</text><rect fill="#1B202A" height="4.6875" style="stroke: #1B202A; stroke-width: 1.5625;" width="1681.25" x="4.6875" y="1023.4985"/><line style="stroke: #3D424E; stroke-width: 1.5625;" x1="4.6875" x2="1685.9375" y1="1023.4985" y2="1023.4985"/><line style="stroke: #3D424E; stroke-width: 1.5625;" x1="4.6875" x2="1685.9375" y1="1028.186" y2="1028.186"/><rect fill="#1B202A" height="37.9639" style="stroke: #3D424E; stroke-width: 3.125;" width="354.6875" x="667.9688" y="1006.0791"/><text fill="#A6ADBB" font-family="Inter, ui-sans-serif, system-ui, -apple-system, sans-serif" font-size="21.875" font-weight="bold" lengthAdjust="spacingAndGlyphs" textLength="325" x="677.3438" y="1032.634">Read side: dotaz uživatele</text><polygon fill="#F0A456" points="1498.4375,1088.2568,1482.8125,1094.5068,1498.4375,1100.7568,1492.1875,1094.5068" style="stroke: #F0A456; stroke-width: 1.5625;"/><line style="stroke: #F0A456; stroke-width: 2.34375;" x1="1489.0625" x2="1646.875" y1="1094.5068" y2="1094.5068"/><text fill="#E6E8EC" font-family="Inter, ui-sans-serif, system-ui, -apple-system, sans-serif" font-size="21.875" lengthAdjust="spacingAndGlyphs" textLength="129.6875" x="1507.8125" y="1086.2228">GET /orders</text><polygon fill="#F0A456" points="1156.25,1161.0596,1140.625,1167.3096,1156.25,1173.5596,1150,1167.3096" style="stroke: #F0A456; stroke-width: 1.5625;"/><line style="stroke: #F0A456; stroke-width: 2.34375;" x1="1146.875" x2="1479.6875" y1="1167.3096" y2="1167.3096"/><text fill="#E6E8EC" font-family="Inter, ui-sans-serif, system-ui, -apple-system, sans-serif" font-size="21.875" lengthAdjust="spacingAndGlyphs" textLength="304.6875" x="1165.625" y="1133.5617">SELECT * FROM orders_view</text><text fill="#E6E8EC" font-family="Inter, ui-sans-serif, system-ui, -apple-system, sans-serif" font-size="21.875" lengthAdjust="spacingAndGlyphs" textLength="260.9375" x="1165.625" y="1159.0256">WHERE customer_id = ?</text><polygon fill="#F0A456" points="1462.5,1208.3984,1478.125,1214.6484,1462.5,1220.8984,1468.75,1214.6484" style="stroke: #F0A456; stroke-width: 1.5625;"/><line style="stroke: #F0A456; stroke-width: 2.34375; stroke-dasharray: 2.0,2.0;" x1="1139.0625" x2="1471.875" y1="1214.6484" y2="1214.6484"/><text fill="#E6E8EC" font-family="Inter, ui-sans-serif, system-ui, -apple-system, sans-serif" font-size="21.875" lengthAdjust="spacingAndGlyphs" textLength="235.9375" x="1150" y="1206.3644">denormalizovaná data</text><polygon fill="#F0A456" points="1629.6875,1255.7373,1645.3125,1261.9873,1629.6875,1268.2373,1635.9375,1261.9873" style="stroke: #F0A456; stroke-width: 1.5625;"/><line style="stroke: #F0A456; stroke-width: 2.34375; stroke-dasharray: 2.0,2.0;" x1="1481.25" x2="1639.0625" y1="1261.9873" y2="1261.9873"/><text fill="#E6E8EC" font-family="Inter, ui-sans-serif, system-ui, -apple-system, sans-serif" font-size="21.875" lengthAdjust="spacingAndGlyphs" textLength="120.3125" x="1492.1875" y="1253.7033">view model</text><path d="M876.5625,1286.9873 L876.5625,1343.2373 A4.6875,4.6875 0 0 0 881.25,1347.9248 L1396.875,1347.9248 A4.6875,4.6875 0 0 0 1401.5625,1343.2373 L1401.5625,1297.9248 L1385.9375,1282.2998 L881.25,1282.2998 A4.6875,4.6875 0 0 0 876.5625,1286.9873 " fill="#1B202A" style="stroke: #3D424E; stroke-width: 1.5625;"/><path d="M1385.9375,1282.2998 L1385.9375,1295.5811 A2.3438,2.3438 0 0 0 1388.2813,1297.9248 L1401.5625,1297.9248 L1385.9375,1282.2998 " fill="#1B202A" style="stroke: #3D424E; stroke-width: 1.5625;"/><text fill="#A6ADBB" font-family="Inter, ui-sans-serif, system-ui, -apple-system, sans-serif" font-size="21.875" lengthAdjust="spacingAndGlyphs" textLength="421.875" x="928.125" y="1310.4172">Read model je předpočítaný projection.</text><text fill="#A6ADBB" font-family="Inter, ui-sans-serif, system-ui, -apple-system, sans-serif" font-size="21.875" lengthAdjust="spacingAndGlyphs" textLength="478.125" x="900" y="1335.881">Dotazy jsou jednoduché SELECTy bez JOINů.</text><!--MD5=[3a640ebf3a55e5cb8245457aa9ad13d8]
@startuml projection_lifecycle
skinparam dpi 150
skinparam backgroundColor #11141A
skinparam shadowing false
skinparam roundCorner 6

skinparam defaultFontName "DejaVu Sans"
skinparam defaultFontSize 14
skinparam defaultFontColor #E6E8EC
skinparam defaultTextAlignment center


skinparam ArrowColor #F0A456
skinparam ArrowFontColor #E6E8EC
skinparam ArrowThickness 1.5

skinparam node {
  BackgroundColor #161A22
  BorderColor #3D424E
  FontColor #E6E8EC
}

skinparam component {
  BackgroundColor #161A22
  BorderColor #3D424E
  FontColor #E6E8EC
}

skinparam rectangle {
  BackgroundColor #161A22
  BorderColor #3D424E
  FontColor #E6E8EC
}

skinparam package {
  BackgroundColor #11141A
  BorderColor #F0A456
  FontColor #F0A456
}

skinparam folder {
  BackgroundColor #161A22
  BorderColor #3D424E
  FontColor #E6E8EC
}

skinparam frame {
  BackgroundColor #161A22
  BorderColor #3D424E
  FontColor #E6E8EC
}

skinparam database {
  BackgroundColor #1B202A
  BorderColor #3D424E
  FontColor #E6E8EC
}

skinparam queue {
  BackgroundColor #1B202A
  BorderColor #3D424E
  FontColor #E6E8EC
}

skinparam cloud {
  BackgroundColor #1B202A
  BorderColor #3D424E
  FontColor #E6E8EC
}

skinparam actor {
  BackgroundColor #161A22
  BorderColor #F0A456
  FontColor #E6E8EC
}

skinparam usecase {
  BackgroundColor #161A22
  BorderColor #3D424E
  FontColor #E6E8EC
}

skinparam class {
  BackgroundColor #161A22
  BorderColor #3D424E
  HeaderBackgroundColor #1B202A
  ArrowColor #F0A456
  FontColor #E6E8EC
  AttributeFontColor #A6ADBB
  StereotypeFontColor #F0A456
}

skinparam object {
  BackgroundColor #161A22
  BorderColor #3D424E
  FontColor #E6E8EC
}

skinparam sequence {
  ParticipantBackgroundColor #161A22
  ParticipantBorderColor #3D424E
  ParticipantFontColor #E6E8EC
  ActorBackgroundColor #161A22
  ActorBorderColor #F0A456
  ActorFontColor #E6E8EC
  LifeLineBorderColor #3D424E
  LifeLineBackgroundColor #1B202A
  ArrowColor #F0A456
  ArrowFontColor #E6E8EC
  GroupBackgroundColor #1B202A
  GroupBorderColor #3D424E
  GroupFontColor #A6ADBB
  GroupHeaderFontColor #F0A456
  BoxBackgroundColor #11141A
  BoxBorderColor #F0A456
  BoxFontColor #F0A456
  DividerBackgroundColor #1B202A
  DividerBorderColor #3D424E
  DividerFontColor #A6ADBB
  ReferenceBackgroundColor #161A22
  ReferenceBorderColor #3D424E
  ReferenceFontColor #E6E8EC
  ReferenceHeaderBackgroundColor #1B202A
  StereotypeFontColor #F0A456
}

skinparam state {
  BackgroundColor #161A22
  BorderColor #3D424E
  FontColor #E6E8EC
  StartColor #F0A456
  EndColor #F0A456
  ArrowColor #F0A456
  AttributeFontColor #A6ADBB
}

skinparam activity {
  BackgroundColor #161A22
  BorderColor #3D424E
  FontColor #E6E8EC
  ArrowColor #F0A456
  StartColor #F0A456
  EndColor #F0A456
  BarColor #F0A456
  DiamondBackgroundColor #1B202A
  DiamondBorderColor #3D424E
  DiamondFontColor #E6E8EC
}

skinparam note {
  BackgroundColor #1B202A
  BorderColor #3D424E
  FontColor #A6ADBB
}

skinparam title {
  FontColor #E6E8EC
  FontSize 18
}

skinparam legend {
  BackgroundColor #161A22
  BorderColor #3D424E
  FontColor #A6ADBB
}

skinparam caption {
  FontColor #A6ADBB
}

skinparam stereotype {
  CBackgroundColor #1B202A
  CBorderColor #F0A456
  ABackgroundColor #1B202A
  ABorderColor #F0A456
  IBackgroundColor #1B202A
  IBorderColor #F0A456
  EBackgroundColor #1B202A
  EBorderColor #F0A456
}

title Projekce: tok z event streamu do read modelu

participant "Aggregate" as agg
database "Event Store" as es
queue "Event Bus\n(Messenger)" as bus
participant "Projector\n(OrderListProjector)" as proj
database "Read Model\n(orders_view)" as rm
participant "Query Handler" as qh
actor "User" as user

== Write side: vznik eventu ==
agg -> es : append(OrderPlaced)
es -> bus : publish event\n(přes outbox)

== Projection: aktualizace read modelu ==
bus -> proj : OrderPlaced
proj -> rm : SELECT last_processed_event_id\nFROM projection_checkpoint
proj -> proj : event_id > checkpoint?\n(idempotence guard)
alt nový event
  proj -> rm : INSERT INTO orders_view\n(order_id, customer, status, ...)
  proj -> rm : UPDATE projection_checkpoint\nSET last_event_id = ?
else duplicita
  proj -> proj : skip\n(už zpracován)
end

== Read side: dotaz uživatele ==
user -> qh : GET /orders
qh -> rm : SELECT * FROM orders_view\nWHERE customer_id = ?
rm - -> qh : denormalizovaná data
qh - -> user : view model

note over rm
  Read model je předpočítaný projection.
  Dotazy jsou jednoduché SELECTy bez JOINů.
end note

@enduml

PlantUML version 1.2020.02(Sun Mar 01 11:22:07 CET 2020)
(GPL source distribution)
Java Runtime: OpenJDK Runtime Environment
JVM: OpenJDK 64-Bit Server VM
Java Version: 21.0.10+7-Debian-1deb13u1
Operating System: Linux
Default Encoding: UTF-8
Language: cs
Country: CZ
--></g></svg>