<?plantuml 1.2026.2?><svg xmlns="http://www.w3.org/2000/svg" xmlns:xlink="http://www.w3.org/1999/xlink" contentStyleType="text/css" data-diagram-type="CLASS" height="804.6875px" preserveAspectRatio="none" style="width:2776px;height:804px;background:#11141A;" version="1.1" viewBox="0 0 2776 804" width="2776.5625px" zoomAndPan="magnify"><title>Specification Pattern: kompozice booleovsk&#233; logiky</title><defs/><g><rect fill="#11141A" height="804.6875" style="stroke:none;stroke-width:1.5625;" width="2776.5625" x="0" y="0"/><g class="title" data-source-line="3"><text fill="#E6E8EC" font-family="'DejaVu Sans'" font-size="28.125" font-weight="bold" lengthAdjust="spacing" textLength="819.5801" x="968.2256" y="41.7313">Specification Pattern: kompozice booleovsk&#233; logiky</text></g><!--class spec--><g class="entity" data-qualified-name="spec" data-source-line="5" id="ent0002"><rect fill="#161A22" height="173.7305" rx="4.6875" ry="4.6875" style="stroke:#3D424E;stroke-width:0.7813;" width="492.5415" x="1160.4219" y="620.3643"/><rect fill="#1B202A" height="46.875" rx="4.6875" ry="4.6875" style="stroke:#1B202A;stroke-width:0.7813;" width="492.5415" x="1160.4219" y="620.3643"/><rect fill="#1B202A" height="4.6875" style="stroke:#1B202A;stroke-width:0.7813;" width="492.5415" x="1160.4219" y="662.5518"/><rect fill="none" height="173.7305" rx="4.6875" ry="4.6875" style="stroke:#3D424E;stroke-width:0.7813;" width="492.5415" x="1160.4219" y="620.3643"/><ellipse cx="1320.4133" cy="643.8018" fill="#1B202A" rx="15.625" ry="15.625" style="stroke:#F0A456;stroke-width:1.5625;"/><path d="M1315.9944,638.4551 L1315.9944,635.6719 L1325.4915,635.6719 L1325.4915,638.4551 L1322.3176,638.4551 L1322.3176,648.8311 L1325.4915,648.8311 L1325.4915,651.6143 L1315.9944,651.6143 L1315.9944,648.8311 L1319.1682,648.8311 L1319.1682,638.4551 L1315.9944,638.4551 Z " fill="#E6E8EC"/><text fill="#A6ADBB" font-family="'DejaVu Sans'" font-size="21.875" font-style="italic" lengthAdjust="spacing" textLength="140.4465" x="1350.1008" y="651.3747">Specification</text><rect fill="#161A22" height="28.5889" style="stroke:#3D424E;stroke-width:1.5625;stroke-dasharray:3.125,3.125;" width="16.4871" x="1641.1638" y="615.6768"/><text fill="#F0A456" font-family="Inter, ui-sans-serif, system-ui, -apple-system, sans-serif" font-size="21.875" font-style="italic" lengthAdjust="spacing" textLength="13.3621" x="1642.7263" y="637.5441">T</text><line style="stroke:#3D424E;stroke-width:0.7813;" x1="1161.9844" x2="1651.4009" y1="667.2393" y2="667.2393"/><line style="stroke:#3D424E;stroke-width:0.7813;" x1="1161.9844" x2="1651.4009" y1="679.7393" y2="679.7393"/><g data-visibility-modifier="PUBLIC_METHOD"><ellipse cx="1177.6094" cy="701.0649" fill="#84BE84" rx="4.6875" ry="4.6875" style="stroke:#038048;stroke-width:1.5625;"/></g><text fill="#A6ADBB" font-family="'DejaVu Sans'" font-size="21.875" lengthAdjust="spacing" textLength="231.3751" x="1190.1094" y="706.2941">isSatisfiedBy(T): bool</text><g data-visibility-modifier="PUBLIC_METHOD"><ellipse cx="1177.6094" cy="726.5288" fill="#84BE84" rx="4.6875" ry="4.6875" style="stroke:#038048;stroke-width:1.5625;"/></g><text fill="#A6ADBB" font-family="'DejaVu Sans'" font-size="21.875" lengthAdjust="spacing" textLength="453.479" x="1190.1094" y="731.758">and(Specification&lt;T&gt;): Specification&lt;T&gt;</text><g data-visibility-modifier="PUBLIC_METHOD"><ellipse cx="1177.6094" cy="751.9927" fill="#84BE84" rx="4.6875" ry="4.6875" style="stroke:#038048;stroke-width:1.5625;"/></g><text fill="#A6ADBB" font-family="'DejaVu Sans'" font-size="21.875" lengthAdjust="spacing" textLength="434.7015" x="1190.1094" y="757.2219">or(Specification&lt;T&gt;): Specification&lt;T&gt;</text><g data-visibility-modifier="PUBLIC_METHOD"><ellipse cx="1177.6094" cy="777.4565" fill="#84BE84" rx="4.6875" ry="4.6875" style="stroke:#038048;stroke-width:1.5625;"/></g><text fill="#A6ADBB" font-family="'DejaVu Sans'" font-size="21.875" lengthAdjust="spacing" textLength="257.6828" x="1190.1094" y="782.6857">not(): Specification&lt;T&gt;</text></g><!--class composite--><g class="entity" data-qualified-name="composite" data-source-line="12" id="ent0003"><rect fill="#161A22" height="173.7305" rx="4.6875" ry="4.6875" style="stroke:#3D424E;stroke-width:0.7813;" width="492.5415" x="1330.7344" y="81.1768"/><rect fill="#1B202A" height="46.875" rx="4.6875" ry="4.6875" style="stroke:#1B202A;stroke-width:0.7813;" width="492.5415" x="1330.7344" y="81.1768"/><rect fill="#1B202A" height="4.6875" style="stroke:#1B202A;stroke-width:0.7813;" width="492.5415" x="1330.7344" y="123.3643"/><rect fill="none" height="173.7305" rx="4.6875" ry="4.6875" style="stroke:#3D424E;stroke-width:0.7813;" width="492.5415" x="1330.7344" y="81.1768"/><ellipse cx="1432.3533" cy="104.6143" fill="#1B202A" rx="15.625" ry="15.625" style="stroke:#F0A456;stroke-width:1.5625;"/><path d="M1431.9139,98.584 L1430.4246,105.1025 L1433.4031,105.1025 L1431.9139,98.584 Z M1429.9852,95.7031 L1433.8426,95.7031 L1438.1395,111.6455 L1434.9901,111.6455 L1434.0135,107.7148 L1429.7899,107.7148 L1428.8377,111.6455 L1425.6639,111.6455 L1429.9852,95.7031 Z " fill="#E6E8EC"/><text fill="#A6ADBB" font-family="'DejaVu Sans'" font-size="21.875" font-style="italic" lengthAdjust="spacing" textLength="257.1915" x="1462.0408" y="112.1872">CompositeSpecification</text><rect fill="#161A22" height="28.5889" style="stroke:#3D424E;stroke-width:1.5625;stroke-dasharray:3.125,3.125;" width="16.4871" x="1811.4763" y="76.4893"/><text fill="#F0A456" font-family="Inter, ui-sans-serif, system-ui, -apple-system, sans-serif" font-size="21.875" font-style="italic" lengthAdjust="spacing" textLength="13.3621" x="1813.0388" y="98.3566">T</text><line style="stroke:#3D424E;stroke-width:0.7813;" x1="1332.2969" x2="1821.7134" y1="128.0518" y2="128.0518"/><line style="stroke:#3D424E;stroke-width:0.7813;" x1="1332.2969" x2="1821.7134" y1="140.5518" y2="140.5518"/><g data-visibility-modifier="PUBLIC_METHOD"><ellipse cx="1347.9219" cy="161.8774" fill="#84BE84" rx="4.6875" ry="4.6875" style="stroke:#038048;stroke-width:1.5625;"/></g><text fill="#A6ADBB" font-family="'DejaVu Sans'" font-size="21.875" lengthAdjust="spacing" textLength="453.479" x="1360.4219" y="167.1066">and(Specification&lt;T&gt;): Specification&lt;T&gt;</text><g data-visibility-modifier="PUBLIC_METHOD"><ellipse cx="1347.9219" cy="187.3413" fill="#84BE84" rx="4.6875" ry="4.6875" style="stroke:#038048;stroke-width:1.5625;"/></g><text fill="#A6ADBB" font-family="'DejaVu Sans'" font-size="21.875" lengthAdjust="spacing" textLength="434.7015" x="1360.4219" y="192.5705">or(Specification&lt;T&gt;): Specification&lt;T&gt;</text><g data-visibility-modifier="PUBLIC_METHOD"><ellipse cx="1347.9219" cy="212.8052" fill="#84BE84" rx="4.6875" ry="4.6875" style="stroke:#038048;stroke-width:1.5625;"/></g><text fill="#A6ADBB" font-family="'DejaVu Sans'" font-size="21.875" lengthAdjust="spacing" textLength="257.6828" x="1360.4219" y="218.0344">not(): Specification&lt;T&gt;</text><g data-visibility-modifier="PUBLIC_METHOD"><ellipse cx="1347.9219" cy="238.269" fill="#84BE84" rx="4.6875" ry="4.6875" style="stroke:#038048;stroke-width:1.5625;"/></g><text fill="#A6ADBB" font-family="'DejaVu Sans'" font-size="21.875" font-style="italic" lengthAdjust="spacing" textLength="231.3751" x="1360.4219" y="243.4982">isSatisfiedBy(T): bool</text></g><!--class andSpec--><g class="entity" data-qualified-name="andSpec" data-source-line="19" id="ent0004"><rect fill="#161A22" height="148.2666" rx="4.6875" ry="4.6875" style="stroke:#3D424E;stroke-width:0.7813;" width="295.2499" x="726.25" y="350.2236"/><rect fill="#1B202A" height="46.875" rx="4.6875" ry="4.6875" style="stroke:#1B202A;stroke-width:0.7813;" width="295.2499" x="726.25" y="350.2236"/><rect fill="#1B202A" height="4.6875" style="stroke:#1B202A;stroke-width:0.7813;" width="295.2499" x="726.25" y="392.4111"/><rect fill="none" height="148.2666" rx="4.6875" ry="4.6875" style="stroke:#3D424E;stroke-width:0.7813;" width="295.2499" x="726.25" y="350.2236"/><ellipse cx="768.6461" cy="373.6611" fill="#1B202A" rx="15.625" ry="15.625" style="stroke:#F0A456;stroke-width:1.5625;"/><path d="M772.3814,381.0098 Q771.6246,381.4004 770.7945,381.5957 Q769.9889,381.791 769.0855,381.791 Q765.8629,381.791 764.1539,379.667 Q762.4693,377.543 762.4693,373.5146 Q762.4693,369.4863 764.1539,367.3623 Q765.8629,365.2383 769.0855,365.2383 Q769.9889,365.2383 770.8189,365.4336 Q771.649,365.6289 772.3814,365.9951 L772.3814,369.5107 Q771.5758,368.7539 770.7945,368.4121 Q770.0377,368.0703 769.232,368.0703 Q767.4986,368.0703 766.6197,369.4375 Q765.7408,370.8047 765.7408,373.5146 Q765.7408,376.2002 766.6197,377.5918 Q767.4986,378.959 769.232,378.959 Q770.0377,378.959 770.7945,378.6172 Q771.5758,378.251 772.3814,377.5186 L772.3814,381.0098 Z " fill="#E6E8EC"/><text fill="#A6ADBB" font-family="'DejaVu Sans'" font-size="21.875" lengthAdjust="spacing" textLength="183.1604" x="793.5188" y="381.2341">AndSpecification</text><rect fill="#161A22" height="28.5889" style="stroke:#3D424E;stroke-width:1.5625;stroke-dasharray:3.125,3.125;" width="16.4871" x="1009.7003" y="345.5361"/><text fill="#F0A456" font-family="Inter, ui-sans-serif, system-ui, -apple-system, sans-serif" font-size="21.875" font-style="italic" lengthAdjust="spacing" textLength="13.3621" x="1011.2628" y="367.4035">T</text><line style="stroke:#3D424E;stroke-width:0.7813;" x1="727.8125" x2="1019.9374" y1="397.0986" y2="397.0986"/><g data-visibility-modifier="PRIVATE_FIELD"><rect fill="none" height="9.375" style="stroke:#C82930;stroke-width:1.5625;" width="9.375" x="738.75" y="413.7368"/></g><text fill="#A6ADBB" font-family="'DejaVu Sans'" font-size="21.875" lengthAdjust="spacing" textLength="240.6036" x="755.9375" y="423.6535">left: Specification&lt;T&gt;</text><g data-visibility-modifier="PRIVATE_FIELD"><rect fill="none" height="9.375" style="stroke:#C82930;stroke-width:1.5625;" width="9.375" x="738.75" y="439.2007"/></g><text fill="#A6ADBB" font-family="'DejaVu Sans'" font-size="21.875" lengthAdjust="spacing" textLength="256.1874" x="755.9375" y="449.1174">right: Specification&lt;T&gt;</text><line style="stroke:#3D424E;stroke-width:0.7813;" x1="727.8125" x2="1019.9374" y1="460.5264" y2="460.5264"/><g data-visibility-modifier="PUBLIC_METHOD"><ellipse cx="743.4375" cy="481.8521" fill="#84BE84" rx="4.6875" ry="4.6875" style="stroke:#038048;stroke-width:1.5625;"/></g><text fill="#A6ADBB" font-family="'DejaVu Sans'" font-size="21.875" lengthAdjust="spacing" textLength="231.3751" x="755.9375" y="487.0812">isSatisfiedBy(T): bool</text></g><!--class orSpec--><g class="entity" data-qualified-name="orSpec" data-source-line="25" id="ent0005"><rect fill="#161A22" height="148.2666" rx="4.6875" ry="4.6875" style="stroke:#3D424E;stroke-width:0.7813;" width="295.2499" x="1076.25" y="350.2236"/><rect fill="#1B202A" height="46.875" rx="4.6875" ry="4.6875" style="stroke:#1B202A;stroke-width:0.7813;" width="295.2499" x="1076.25" y="350.2236"/><rect fill="#1B202A" height="4.6875" style="stroke:#1B202A;stroke-width:0.7813;" width="295.2499" x="1076.25" y="392.4111"/><rect fill="none" height="148.2666" rx="4.6875" ry="4.6875" style="stroke:#3D424E;stroke-width:0.7813;" width="295.2499" x="1076.25" y="350.2236"/><ellipse cx="1126.0722" cy="373.6611" fill="#1B202A" rx="15.625" ry="15.625" style="stroke:#F0A456;stroke-width:1.5625;"/><path d="M1129.8075,381.0098 Q1129.0507,381.4004 1128.2206,381.5957 Q1127.4149,381.791 1126.5116,381.791 Q1123.289,381.791 1121.58,379.667 Q1119.8954,377.543 1119.8954,373.5146 Q1119.8954,369.4863 1121.58,367.3623 Q1123.289,365.2383 1126.5116,365.2383 Q1127.4149,365.2383 1128.245,365.4336 Q1129.0751,365.6289 1129.8075,365.9951 L1129.8075,369.5107 Q1129.0018,368.7539 1128.2206,368.4121 Q1127.4638,368.0703 1126.6581,368.0703 Q1124.9247,368.0703 1124.0458,369.4375 Q1123.1669,370.8047 1123.1669,373.5146 Q1123.1669,376.2002 1124.0458,377.5918 Q1124.9247,378.959 1126.6581,378.959 Q1127.4638,378.959 1128.2206,378.6172 Q1129.0018,378.251 1129.8075,377.5186 L1129.8075,381.0098 Z " fill="#E6E8EC"/><text fill="#A6ADBB" font-family="'DejaVu Sans'" font-size="21.875" lengthAdjust="spacing" textLength="166.658" x="1152.5951" y="381.2341">OrSpecification</text><rect fill="#161A22" height="28.5889" style="stroke:#3D424E;stroke-width:1.5625;stroke-dasharray:3.125,3.125;" width="16.4871" x="1359.7003" y="345.5361"/><text fill="#F0A456" font-family="Inter, ui-sans-serif, system-ui, -apple-system, sans-serif" font-size="21.875" font-style="italic" lengthAdjust="spacing" textLength="13.3621" x="1361.2628" y="367.4035">T</text><line style="stroke:#3D424E;stroke-width:0.7813;" x1="1077.8125" x2="1369.9374" y1="397.0986" y2="397.0986"/><g data-visibility-modifier="PRIVATE_FIELD"><rect fill="none" height="9.375" style="stroke:#C82930;stroke-width:1.5625;" width="9.375" x="1088.75" y="413.7368"/></g><text fill="#A6ADBB" font-family="'DejaVu Sans'" font-size="21.875" lengthAdjust="spacing" textLength="240.6036" x="1105.9375" y="423.6535">left: Specification&lt;T&gt;</text><g data-visibility-modifier="PRIVATE_FIELD"><rect fill="none" height="9.375" style="stroke:#C82930;stroke-width:1.5625;" width="9.375" x="1088.75" y="439.2007"/></g><text fill="#A6ADBB" font-family="'DejaVu Sans'" font-size="21.875" lengthAdjust="spacing" textLength="256.1874" x="1105.9375" y="449.1174">right: Specification&lt;T&gt;</text><line style="stroke:#3D424E;stroke-width:0.7813;" x1="1077.8125" x2="1369.9374" y1="460.5264" y2="460.5264"/><g data-visibility-modifier="PUBLIC_METHOD"><ellipse cx="1093.4375" cy="481.8521" fill="#84BE84" rx="4.6875" ry="4.6875" style="stroke:#038048;stroke-width:1.5625;"/></g><text fill="#A6ADBB" font-family="'DejaVu Sans'" font-size="21.875" lengthAdjust="spacing" textLength="231.3751" x="1105.9375" y="487.0812">isSatisfiedBy(T): bool</text></g><!--class notSpec--><g class="entity" data-qualified-name="notSpec" data-source-line="31" id="ent0006"><rect fill="#161A22" height="122.8027" rx="4.6875" ry="4.6875" style="stroke:#3D424E;stroke-width:0.7813;" width="300.1099" x="1426.9375" y="362.958"/><rect fill="#1B202A" height="46.875" rx="4.6875" ry="4.6875" style="stroke:#1B202A;stroke-width:0.7813;" width="300.1099" x="1426.9375" y="362.958"/><rect fill="#1B202A" height="4.6875" style="stroke:#1B202A;stroke-width:0.7813;" width="300.1099" x="1426.9375" y="405.1455"/><rect fill="none" height="122.8027" rx="4.6875" ry="4.6875" style="stroke:#3D424E;stroke-width:0.7813;" width="300.1099" x="1426.9375" y="362.958"/><ellipse cx="1473.496" cy="386.3955" fill="#1B202A" rx="15.625" ry="15.625" style="stroke:#F0A456;stroke-width:1.5625;"/><path d="M1477.2314,393.7441 Q1476.4745,394.1348 1475.6445,394.3301 Q1474.8388,394.5254 1473.9355,394.5254 Q1470.7128,394.5254 1469.0038,392.4014 Q1467.3193,390.2773 1467.3193,386.249 Q1467.3193,382.2207 1469.0038,380.0967 Q1470.7128,377.9727 1473.9355,377.9727 Q1474.8388,377.9727 1475.6689,378.168 Q1476.499,378.3633 1477.2314,378.7295 L1477.2314,382.2451 Q1476.4257,381.4883 1475.6445,381.1465 Q1474.8876,380.8047 1474.082,380.8047 Q1472.3486,380.8047 1471.4697,382.1719 Q1470.5908,383.5391 1470.5908,386.249 Q1470.5908,388.9346 1471.4697,390.3262 Q1472.3486,391.6934 1474.082,391.6934 Q1474.8876,391.6934 1475.6445,391.3516 Q1476.4257,390.9854 1477.2314,390.2529 L1477.2314,393.7441 Z " fill="#E6E8EC"/><text fill="#A6ADBB" font-family="'DejaVu Sans'" font-size="21.875" lengthAdjust="spacing" textLength="178.7704" x="1499.2938" y="393.9684">NotSpecification</text><rect fill="#161A22" height="28.5889" style="stroke:#3D424E;stroke-width:1.5625;stroke-dasharray:3.125,3.125;" width="16.4871" x="1715.2477" y="358.2705"/><text fill="#F0A456" font-family="Inter, ui-sans-serif, system-ui, -apple-system, sans-serif" font-size="21.875" font-style="italic" lengthAdjust="spacing" textLength="13.3621" x="1716.8102" y="380.1379">T</text><line style="stroke:#3D424E;stroke-width:0.7813;" x1="1428.5" x2="1725.4849" y1="409.833" y2="409.833"/><g data-visibility-modifier="PRIVATE_FIELD"><rect fill="none" height="9.375" style="stroke:#C82930;stroke-width:1.5625;" width="9.375" x="1439.4375" y="426.4712"/></g><text fill="#A6ADBB" font-family="'DejaVu Sans'" font-size="21.875" lengthAdjust="spacing" textLength="261.0474" x="1456.625" y="436.3879">inner: Specification&lt;T&gt;</text><line style="stroke:#3D424E;stroke-width:0.7813;" x1="1428.5" x2="1725.4849" y1="447.7969" y2="447.7969"/><g data-visibility-modifier="PUBLIC_METHOD"><ellipse cx="1444.125" cy="469.1226" fill="#84BE84" rx="4.6875" ry="4.6875" style="stroke:#038048;stroke-width:1.5625;"/></g><text fill="#A6ADBB" font-family="'DejaVu Sans'" font-size="21.875" lengthAdjust="spacing" textLength="231.3751" x="1456.625" y="474.3517">isSatisfiedBy(T): bool</text></g><!--class ps--><g class="entity" data-qualified-name="ps" data-source-line="36" id="ent0007"><rect fill="#161A22" height="122.8027" rx="4.6875" ry="4.6875" style="stroke:#3D424E;stroke-width:0.7813;" width="319.6243" x="10.9375" y="362.958"/><rect fill="#1B202A" height="46.875" rx="4.6875" ry="4.6875" style="stroke:#1B202A;stroke-width:0.7813;" width="319.6243" x="10.9375" y="362.958"/><rect fill="#1B202A" height="4.6875" style="stroke:#1B202A;stroke-width:0.7813;" width="319.6243" x="10.9375" y="405.1455"/><rect fill="none" height="122.8027" rx="4.6875" ry="4.6875" style="stroke:#3D424E;stroke-width:0.7813;" width="319.6243" x="10.9375" y="362.958"/><ellipse cx="39.3425" cy="386.3955" fill="#1B202A" rx="15.625" ry="15.625" style="stroke:#F0A456;stroke-width:1.5625;"/><path d="M43.0779,393.7441 Q42.321,394.1348 41.4909,394.3301 Q40.6853,394.5254 39.782,394.5254 Q36.5593,394.5254 34.8503,392.4014 Q33.1657,390.2773 33.1657,386.249 Q33.1657,382.2207 34.8503,380.0967 Q36.5593,377.9727 39.782,377.9727 Q40.6853,377.9727 41.5154,378.168 Q42.3454,378.3633 43.0779,378.7295 L43.0779,382.2451 Q42.2722,381.4883 41.4909,381.1465 Q40.7341,380.8047 39.9284,380.8047 Q38.195,380.8047 37.3161,382.1719 Q36.4372,383.5391 36.4372,386.249 Q36.4372,388.9346 37.3161,390.3262 Q38.195,391.6934 39.9284,391.6934 Q40.7341,391.6934 41.4909,391.3516 Q42.2722,390.9854 43.0779,390.2529 L43.0779,393.7441 Z " fill="#E6E8EC"/><text fill="#A6ADBB" font-family="'DejaVu Sans'" font-size="21.875" lengthAdjust="spacing" textLength="258.2382" x="61.1061" y="393.9684">EligibleForFreeShipping</text><line style="stroke:#3D424E;stroke-width:0.7813;" x1="12.5" x2="328.9993" y1="409.833" y2="409.833"/><g data-visibility-modifier="PRIVATE_FIELD"><rect fill="none" height="9.375" style="stroke:#C82930;stroke-width:1.5625;" width="9.375" x="23.4375" y="426.4712"/></g><text fill="#A6ADBB" font-family="'DejaVu Sans'" font-size="21.875" lengthAdjust="spacing" textLength="190.3488" x="40.625" y="436.3879">threshold: Money</text><line style="stroke:#3D424E;stroke-width:0.7813;" x1="12.5" x2="328.9993" y1="447.7969" y2="447.7969"/><g data-visibility-modifier="PUBLIC_METHOD"><ellipse cx="28.125" cy="469.1226" fill="#84BE84" rx="4.6875" ry="4.6875" style="stroke:#038048;stroke-width:1.5625;"/></g><text fill="#A6ADBB" font-family="'DejaVu Sans'" font-size="21.875" lengthAdjust="spacing" textLength="280.5618" x="40.625" y="474.3517">isSatisfiedBy(Order): bool</text></g><!--class ineu--><g class="entity" data-qualified-name="ineu" data-source-line="41" id="ent0008"><rect fill="#161A22" height="122.8027" rx="4.6875" ry="4.6875" style="stroke:#3D424E;stroke-width:0.7813;" width="353.3234" x="1781.5938" y="362.958"/><rect fill="#1B202A" height="46.875" rx="4.6875" ry="4.6875" style="stroke:#1B202A;stroke-width:0.7813;" width="353.3234" x="1781.5938" y="362.958"/><rect fill="#1B202A" height="4.6875" style="stroke:#1B202A;stroke-width:0.7813;" width="353.3234" x="1781.5938" y="405.1455"/><rect fill="none" height="122.8027" rx="4.6875" ry="4.6875" style="stroke:#3D424E;stroke-width:0.7813;" width="353.3234" x="1781.5938" y="362.958"/><ellipse cx="1883.4805" cy="386.3955" fill="#1B202A" rx="15.625" ry="15.625" style="stroke:#F0A456;stroke-width:1.5625;"/><path d="M1887.2159,393.7441 Q1886.459,394.1348 1885.6289,394.3301 Q1884.8233,394.5254 1883.92,394.5254 Q1880.6973,394.5254 1878.9883,392.4014 Q1877.3037,390.2773 1877.3037,386.249 Q1877.3037,382.2207 1878.9883,380.0967 Q1880.6973,377.9727 1883.92,377.9727 Q1884.8233,377.9727 1885.6534,378.168 Q1886.4834,378.3633 1887.2159,378.7295 L1887.2159,382.2451 Q1886.4102,381.4883 1885.6289,381.1465 Q1884.8721,380.8047 1884.0664,380.8047 Q1882.333,380.8047 1881.4541,382.1719 Q1880.5752,383.5391 1880.5752,386.249 Q1880.5752,388.9346 1881.4541,390.3262 Q1882.333,391.6934 1884.0664,391.6934 Q1884.8721,391.6934 1885.6289,391.3516 Q1886.4102,390.9854 1887.2159,390.2529 L1887.2159,393.7441 Z " fill="#E6E8EC"/><text fill="#A6ADBB" font-family="'DejaVu Sans'" font-size="21.875" lengthAdjust="spacing" textLength="137.0499" x="1913.168" y="393.9684">InEUCountry</text><line style="stroke:#3D424E;stroke-width:0.7813;" x1="1783.1563" x2="2133.3546" y1="409.833" y2="409.833"/><g data-visibility-modifier="PRIVATE_FIELD"><rect fill="none" height="9.375" style="stroke:#C82930;stroke-width:1.5625;" width="9.375" x="1794.0938" y="426.4712"/></g><text fill="#A6ADBB" font-family="'DejaVu Sans'" font-size="21.875" lengthAdjust="spacing" text-decoration="underline" textLength="314.2609" x="1811.2813" y="436.3879">EU_COUNTRIES: list&lt;string&gt;</text><line style="stroke:#3D424E;stroke-width:0.7813;" x1="1783.1563" x2="2133.3546" y1="447.7969" y2="447.7969"/><g data-visibility-modifier="PUBLIC_METHOD"><ellipse cx="1798.7813" cy="469.1226" fill="#84BE84" rx="4.6875" ry="4.6875" style="stroke:#038048;stroke-width:1.5625;"/></g><text fill="#A6ADBB" font-family="'DejaVu Sans'" font-size="21.875" lengthAdjust="spacing" textLength="280.5618" x="1811.2813" y="474.3517">isSatisfiedBy(Order): bool</text></g><!--class nib--><g class="entity" data-qualified-name="nib" data-source-line="46" id="ent0009"><rect fill="#161A22" height="122.8027" rx="4.6875" ry="4.6875" style="stroke:#3D424E;stroke-width:0.7813;" width="338.9572" x="2190.3281" y="362.958"/><rect fill="#1B202A" height="46.875" rx="4.6875" ry="4.6875" style="stroke:#1B202A;stroke-width:0.7813;" width="338.9572" x="2190.3281" y="362.958"/><rect fill="#1B202A" height="4.6875" style="stroke:#1B202A;stroke-width:0.7813;" width="338.9572" x="2190.3281" y="405.1455"/><rect fill="none" height="122.8027" rx="4.6875" ry="4.6875" style="stroke:#3D424E;stroke-width:0.7813;" width="338.9572" x="2190.3281" y="362.958"/><ellipse cx="2278.5804" cy="386.3955" fill="#1B202A" rx="15.625" ry="15.625" style="stroke:#F0A456;stroke-width:1.5625;"/><path d="M2282.3157,393.7441 Q2281.5589,394.1348 2280.7288,394.3301 Q2279.9232,394.5254 2279.0198,394.5254 Q2275.7972,394.5254 2274.0882,392.4014 Q2272.4036,390.2773 2272.4036,386.249 Q2272.4036,382.2207 2274.0882,380.0967 Q2275.7972,377.9727 2279.0198,377.9727 Q2279.9232,377.9727 2280.7532,378.168 Q2281.5833,378.3633 2282.3157,378.7295 L2282.3157,382.2451 Q2281.5101,381.4883 2280.7288,381.1465 Q2279.972,380.8047 2279.1663,380.8047 Q2277.4329,380.8047 2276.554,382.1719 Q2275.6751,383.5391 2275.6751,386.249 Q2275.6751,388.9346 2276.554,390.3262 Q2277.4329,391.6934 2279.1663,391.6934 Q2279.972,391.6934 2280.7288,391.3516 Q2281.5101,390.9854 2282.3157,390.2529 L2282.3157,393.7441 Z " fill="#E6E8EC"/><text fill="#A6ADBB" font-family="'DejaVu Sans'" font-size="21.875" lengthAdjust="spacing" textLength="149.9527" x="2308.2679" y="393.9684">NotInBlacklist</text><line style="stroke:#3D424E;stroke-width:0.7813;" x1="2191.8906" x2="2527.7228" y1="409.833" y2="409.833"/><g data-visibility-modifier="PRIVATE_FIELD"><rect fill="none" height="9.375" style="stroke:#C82930;stroke-width:1.5625;" width="9.375" x="2202.8281" y="426.4712"/></g><text fill="#A6ADBB" font-family="'DejaVu Sans'" font-size="21.875" lengthAdjust="spacing" textLength="299.8947" x="2220.0156" y="436.3879">blacklist: list&lt;CustomerId&gt;</text><line style="stroke:#3D424E;stroke-width:0.7813;" x1="2191.8906" x2="2527.7228" y1="447.7969" y2="447.7969"/><g data-visibility-modifier="PUBLIC_METHOD"><ellipse cx="2207.5156" cy="469.1226" fill="#84BE84" rx="4.6875" ry="4.6875" style="stroke:#038048;stroke-width:1.5625;"/></g><text fill="#A6ADBB" font-family="'DejaVu Sans'" font-size="21.875" lengthAdjust="spacing" textLength="280.5618" x="2220.0156" y="474.3517">isSatisfiedBy(Order): bool</text></g><g class="entity" data-qualified-name="GMN20" data-source-line="64" id="ent0021"><path d="M385.125,370.3018 L385.125,418.1143 L330.7813,424.3643 L385.125,430.6143 L385.125,478.4072 A4.6875,4.6875 0 0 0 389.8125,483.0947 L667.3226,483.0947 A4.6875,4.6875 0 0 0 672.0101,478.4072 L672.0101,381.2393 L656.3851,365.6143 L389.8125,365.6143 A4.6875,4.6875 0 0 0 385.125,370.3018" fill="#1B202A" style="stroke:#3D424E;stroke-width:0.7813;"/><path d="M656.3851,365.6143 L656.3851,378.8955 A2.3438,2.3438 0 0 0 658.7288,381.2393 L672.0101,381.2393 L656.3851,365.6143" fill="#1B202A" style="stroke:#3D424E;stroke-width:0.7813;"/><text fill="#A6ADBB" font-family="'DejaVu Sans'" font-size="21.875" lengthAdjust="spacing" textLength="227.8717" x="407.6004" y="393.7316">Konkr&#233;tn&#237; dom&#233;nov&#233;</text><text fill="#A6ADBB" font-family="'DejaVu Sans'" font-size="21.875" lengthAdjust="spacing" textLength="223.407" x="409.8328" y="419.1955">specifikace vyjad&#345;uj&#237;</text><text fill="#A6ADBB" font-family="'DejaVu Sans'" font-size="21.875" lengthAdjust="spacing" textLength="190.9683" x="426.0521" y="444.6594">business pravidla</text><text fill="#A6ADBB" font-family="'DejaVu Sans'" font-size="21.875" lengthAdjust="spacing" textLength="254.0726" x="394.5" y="470.1232">jako prvot&#345;&#237;dn&#237; objekty.</text></g><g class="entity" data-qualified-name="GMN23" data-source-line="71" id="ent0024"><path d="M716,640.4424 L716,774.0117 A4.6875,4.6875 0 0 0 720.6875,778.6992 L1027.0687,778.6992 A4.6875,4.6875 0 0 0 1031.7562,774.0117 L1031.7562,651.3799 L1016.1312,635.7549 L880.125,635.7549 L873.875,498.6924 L867.625,635.7549 L720.6875,635.7549 A4.6875,4.6875 0 0 0 716,640.4424" fill="#1B202A" style="stroke:#3D424E;stroke-width:0.7813;"/><path d="M1016.1312,635.7549 L1016.1312,649.0361 A2.3438,2.3438 0 0 0 1018.475,651.3799 L1031.7562,651.3799 L1016.1312,635.7549" fill="#1B202A" style="stroke:#3D424E;stroke-width:0.7813;"/><text fill="#A6ADBB" font-family="'DejaVu Sans'" font-size="21.875" lengthAdjust="spacing" textLength="240.4007" x="746.6465" y="663.8723">Kompozice and/or/not</text><text fill="#A6ADBB" font-family="'DejaVu Sans'" font-size="21.875" lengthAdjust="spacing" textLength="255.4291" x="739.1323" y="689.3361">&#8594; libovoln&#233; booleovsk&#233;</text><text fill="#A6ADBB" font-family="'DejaVu Sans'" font-size="21.875" lengthAdjust="spacing" textLength="282.9437" x="725.375" y="714.8">v&#253;razy bez if-else strom&#367;.</text><text fill="#A6ADBB" font-family="'DejaVu Sans'" font-size="21.875" lengthAdjust="spacing" textLength="252.7481" x="740.4728" y="740.2639">Otev&#345;eno pro roz&#353;&#237;&#345;en&#237;,</text><text fill="#A6ADBB" font-family="'DejaVu Sans'" font-size="21.875" lengthAdjust="spacing" textLength="257.2662" x="738.2137" y="765.7277">zav&#345;eno pro modifikaci.</text></g><g class="entity" data-qualified-name="GMN26" data-source-line="79" id="ent0027"><path d="M964.7656,113.9893 L964.7656,222.0947 A4.6875,4.6875 0 0 0 969.4531,226.7822 L1272.0532,226.7822 A4.6875,4.6875 0 0 0 1276.7407,222.0947 L1276.7407,174.3018 L1330.4375,168.0518 L1276.7407,161.8018 L1276.7407,124.9268 L1261.1157,109.3018 L969.4531,109.3018 A4.6875,4.6875 0 0 0 964.7656,113.9893" fill="#1B202A" style="stroke:#3D424E;stroke-width:0.7813;"/><path d="M1261.1157,109.3018 L1261.1157,122.583 A2.3438,2.3438 0 0 0 1263.4595,124.9268 L1276.7407,124.9268 L1261.1157,109.3018" fill="#1B202A" style="stroke:#3D424E;stroke-width:0.7813;"/><text fill="#A6ADBB" font-family="'DejaVu Sans'" font-size="21.875" lengthAdjust="spacing" textLength="170.3003" x="1028.5718" y="137.4191">Abstraktn&#237; t&#345;&#237;da</text><text fill="#A6ADBB" font-family="'DejaVu Sans'" font-size="21.875" lengthAdjust="spacing" textLength="191.4276" x="1018.0081" y="162.883">poskytuje sd&#237;len&#233;</text><text fill="#A6ADBB" font-family="'DejaVu Sans'" font-size="21.875" lengthAdjust="spacing" textLength="279.1626" x="974.1406" y="188.3469">kombin&#225;tory pro v&#353;echny</text><text fill="#A6ADBB" font-family="'DejaVu Sans'" font-size="21.875" lengthAdjust="spacing" textLength="254.2969" x="986.5735" y="213.8107">potomky (DRY princip).</text></g><!--reverse link spec to composite--><g class="link" data-entity-1="ent0002" data-entity-2="ent0003" data-link-type="extension" data-source-line="51" id="lnk10"><path codeLine="51" d="M1681.5838,695.4995 C1984.5057,679.0932 2443.8906,633.4268 2556.6875,498.4893 C2766.9688,246.9268 2177.7656,186.9268 1823.375,173.1924" fill="none" id="spec-backto-composite" style="stroke:#F0A456;stroke-width:2.3438;stroke-dasharray:10.9375,10.9375;"/><polygon fill="none" points="1653.5,697.0205,1682.0908,704.8608,1681.0768,686.1382,1653.5,697.0205" style="stroke:#F0A456;stroke-width:2.3438;"/></g><!--reverse link composite to andSpec--><g class="link" data-entity-1="ent0003" data-entity-2="ent0004" data-link-type="extension" data-source-line="52" id="lnk11"><path codeLine="52" d="M1303.3398,259.4783 C1214.2929,289.572 1139.9688,315.8018 1048.875,350.2236 C1040.1094,353.5361 1031.125,357.0205 1022.0781,360.583" fill="none" id="composite-backto-andSpec" style="stroke:#F0A456;stroke-width:2.3438;"/><polygon fill="none" points="1329.9844,250.4736,1300.3383,250.5967,1306.3414,268.3598,1329.9844,250.4736" style="stroke:#F0A456;stroke-width:2.3438;"/></g><!--reverse link composite to orSpec--><g class="link" data-entity-1="ent0003" data-entity-2="ent0005" data-link-type="extension" data-source-line="53" id="lnk12"><path codeLine="53" d="M1434.0981,272.0677 C1391.5043,302.6145 1366.875,320.2705 1325.9219,349.6299" fill="none" id="composite-backto-orSpec" style="stroke:#F0A456;stroke-width:2.3438;"/><polygon fill="none" points="1456.9531,255.6768,1428.6344,264.4493,1439.5617,279.686,1456.9531,255.6768" style="stroke:#F0A456;stroke-width:2.3438;"/></g><!--reverse link composite to notSpec--><g class="link" data-entity-1="ent0003" data-entity-2="ent0006" data-link-type="extension" data-source-line="54" id="lnk13"><path codeLine="54" d="M1577,283.458 C1577,318.5986 1577,330.333 1577,362.3486" fill="none" id="composite-backto-notSpec" style="stroke:#F0A456;stroke-width:2.3438;"/><polygon fill="none" points="1577,255.333,1567.625,283.458,1586.375,283.458,1577,255.333" style="stroke:#F0A456;stroke-width:2.3438;"/></g><!--reverse link composite to ps--><g class="link" data-entity-1="ent0003" data-entity-2="ent0007" data-link-type="extension" data-source-line="55" id="lnk14"><path codeLine="55" d="M1302.7858,255.4718 C889.0514,339.9562 768.9219,251.958 358.25,350.2236 C344.3281,353.5518 330.0625,357.6768 315.9063,362.2549" fill="none" id="composite-backto-ps" style="stroke:#F0A456;stroke-width:2.3438;"/><polygon fill="none" points="1330.1719,249.0674,1300.651,246.3431,1304.9206,264.6005,1330.1719,249.0674" style="stroke:#F0A456;stroke-width:2.3438;"/></g><!--reverse link composite to ineu--><g class="link" data-entity-1="ent0003" data-entity-2="ent0008" data-link-type="extension" data-source-line="56" id="lnk15"><path codeLine="56" d="M1730.0384,271.2361 C1782.9291,306.3611 1819.3906,330.583 1867.4688,362.5049" fill="none" id="composite-backto-ineu" style="stroke:#F0A456;stroke-width:2.3438;"/><polygon fill="none" points="1706.6094,255.6768,1724.852,279.0458,1735.2249,263.4265,1706.6094,255.6768" style="stroke:#F0A456;stroke-width:2.3438;"/></g><!--reverse link composite to nib--><g class="link" data-entity-1="ent0003" data-entity-2="ent0009" data-link-type="extension" data-source-line="57" id="lnk16"><path codeLine="57" d="M1850.7595,250.6165 C1955.7126,282.429 2052.2656,312.8018 2162.9375,350.2236 C2174.3281,354.083 2186.0469,358.1455 2197.8281,362.3018" fill="none" id="composite-backto-nib" style="stroke:#F0A456;stroke-width:2.3438;"/><polygon fill="none" points="1823.8438,242.458,1848.04,259.5884,1853.4789,241.6446,1823.8438,242.458" style="stroke:#F0A456;stroke-width:2.3438;"/></g><!--reverse link andSpec to spec--><g class="link" data-entity-1="ent0004" data-entity-2="ent0002" data-link-type="aggregation" data-source-line="59" id="lnk17"><path codeLine="59" d="M1029.7719,507.7696 C1100.225,544.7696 1169.5781,581.1768 1243.1563,619.8018" fill="none" id="andSpec-backto-spec" style="stroke:#F0A456;stroke-width:2.3438;"/><polygon fill="none" points="1013.1719,499.0518,1018.5659,508.944,1029.7719,507.7696,1024.3779,497.8773,1013.1719,499.0518" style="stroke:#F0A456;stroke-width:2.3438;"/><text fill="#E6E8EC" font-family="'DejaVu Sans'" font-size="21.875" lengthAdjust="spacing" textLength="94.5816" x="1141.8438" y="567.2316">left/right</text></g><!--reverse link orSpec to spec--><g class="link" data-entity-1="ent0005" data-entity-2="ent0002" data-link-type="aggregation" data-source-line="60" id="lnk18"><path codeLine="60" d="M1281.6801,514.3873 C1305.9145,551.4654 1325.2656,581.083 1350.6094,619.8486" fill="none" id="orSpec-backto-spec" style="stroke:#F0A456;stroke-width:2.3438;"/><polygon fill="none" points="1271.4219,498.6924,1271.3194,509.9593,1281.6801,514.3873,1281.7826,503.1204,1271.4219,498.6924" style="stroke:#F0A456;stroke-width:2.3438;"/><text fill="#E6E8EC" font-family="'DejaVu Sans'" font-size="21.875" lengthAdjust="spacing" textLength="94.5816" x="1316.8438" y="567.2316">left/right</text></g><!--reverse link notSpec to spec--><g class="link" data-entity-1="ent0006" data-entity-2="ent0002" data-link-type="aggregation" data-source-line="61" id="lnk19"><path codeLine="61" d="M1530.7165,501.9566 C1506.9665,540.9566 1485.375,576.4268 1459,619.7549" fill="none" id="notSpec-backto-spec" style="stroke:#F0A456;stroke-width:2.3438;"/><polygon fill="none" points="1540.4688,485.9424,1530.2545,490.6987,1530.7165,501.9566,1540.9307,497.2003,1540.4688,485.9424" style="stroke:#F0A456;stroke-width:2.3438;"/><text fill="#E6E8EC" font-family="'DejaVu Sans'" font-size="21.875" lengthAdjust="spacing" textLength="56.2576" x="1503.6094" y="567.2316">inner</text></g><?plantuml-src lLMnRjim4Dtr5TTC3bhRks44Q5m7C8h6HPmCdGfAEjkqQ9v0KWBa96i_e5l6Z1cCVa4dmJ_IB-bHiX7NLj6WG3lgFVBUk-CZzKhgI6KnGgVJTNDSOaTcInK4JZg5C4anabCP2IT9mqVX71hTWuIMAQraX10IAQJS9kKJA9h9f0W2gNdLL31xyil-_lNP2GWBba6u3G1UIpjXnaubnkT5w_gqLzNpZD1nwt0pquUGNqhcfIirkLOJTHy48hJEYCX1f8IrS3Bm7LhfiB63QCVMRVnNim2tExFtlvqWTxHjvAsE6riGDLurq5OuTOrIRIDdysRgpz9ZqwXCvbyBNv9hLDOrNajBhT7yfS1GoPaC5LwGkJ28axbCKwbdbKXgw_fkRj3EISKz-40QY-F2OnEZEIu-qiER0MNQcQ8gA3LcTSbRwtXxT0_3cy-3yStbzTLeEEc1ajRrEH7iuEp5AZoZaJvN8ahyzdeyCgnrmXsyhJt8hACbcb7yWlhLxUxVTJhFjoHulY_zktPxbxr3k0x68Rezj4CujOU8dzFHPXdotTv6dHYet75RdBjk5R5W6yTcSfUOFRRAJU0PX6eHqDIx0NXFEZ7bazFb6c9Qba-QylA92LjdBF5FObuiHBnvo1RbcfamisoRpoCr8fUn4emjH4BydPFRF9Jhs5UZS869Ape1wjWF1BVw8Ja-66zWDrBlOlSsCzObq-ML3F_uyfKFCwISbEQtUk_TPZ8llnknAY345SXf6vL5u43HSlEjm_JOORvvGErj4HXQRHxBjGVAzHkcLsAFNL9SjogFtFgvUg_FkG1uMprbIJMpkby_0gQJmcKBTX6NQyL2tYN_TKAfoqT7fgYqyiqZHdDTL3ju44a1hNTNdvZZdvfCJ_SS_0G0?></g></svg>