<?plantuml 1.2026.2?><svg xmlns="http://www.w3.org/2000/svg" xmlns:xlink="http://www.w3.org/1999/xlink" contentStyleType="text/css" data-diagram-type="DESCRIPTION" height="1135.9375px" preserveAspectRatio="none" style="width:2107px;height:1135px;background:#11141A;" version="1.1" viewBox="0 0 2107 1135" width="2107.8125px" zoomAndPan="magnify"><title>S&#225;ga: choreografie vs. orchestrace</title><defs/><g><rect fill="#11141A" height="1135.9375" style="stroke:none;stroke-width:1.5625;" width="2107.8125" x="0" y="0"/><g class="title" data-source-line="3"><text fill="#E6E8EC" font-family="'DejaVu Sans'" font-size="28.125" font-weight="bold" lengthAdjust="spacing" textLength="554.686" x="765.6258" y="41.7313">S&#225;ga: choreografie vs. orchestrace</text></g><!--cluster choreo--><g class="cluster" data-qualified-name="choreo" data-source-line="11" id="ent0002"><path d="M14.0625,74.9268 L566.8442,74.9268 A7.0313,7.0313 0 0 1 571.5317,79.6143 L582.4692,109.7656 L581.25,109.7656 A4.6875,4.6875 0 0 1 585.9375,114.4531 L585.9375,1120.9424 A4.6875,4.6875 0 0 1 581.25,1125.6299 L14.0625,1125.6299 A4.6875,4.6875 0 0 1 9.375,1120.9424 L9.375,79.6143 A4.6875,4.6875 0 0 1 14.0625,74.9268" fill="#11141A" style="stroke:#F0A456;stroke-width:2.3438;"/><line style="stroke:#F0A456;stroke-width:2.3438;" x1="9.375" x2="582.4692" y1="109.7656" y2="109.7656"/><text fill="#F0A456" font-family="'DejaVu Sans'" font-size="21.875" font-weight="bold" lengthAdjust="spacing" textLength="552.7817" x="15.625" y="98.3566">CHOREOGRAFIE: &#382;&#225;dn&#253; centr&#225;ln&#237; koordin&#225;tor</text></g><!--cluster orch--><g class="cluster" data-qualified-name="orch" data-source-line="29" id="ent0013"><path d="M628.125,74.9268 L1157.3441,74.9268 A7.0313,7.0313 0 0 1 1162.0316,79.6143 L1172.9691,109.7656 L2092.1875,109.7656 A4.6875,4.6875 0 0 1 2096.875,114.4531 L2096.875,496.9111 A4.6875,4.6875 0 0 1 2092.1875,501.5986 L628.125,501.5986 A4.6875,4.6875 0 0 1 623.4375,496.9111 L623.4375,79.6143 A4.6875,4.6875 0 0 1 628.125,74.9268" fill="#11141A" style="stroke:#F0A456;stroke-width:2.3438;"/><line style="stroke:#F0A456;stroke-width:2.3438;" x1="623.4375" x2="1172.9691" y1="109.7656" y2="109.7656"/><text fill="#F0A456" font-family="'DejaVu Sans'" font-size="21.875" font-weight="bold" lengthAdjust="spacing" textLength="529.2191" x="629.6875" y="98.3566">ORCHESTRACE: explicitn&#237; Process Manager</text></g><!--entity c_order--><g class="entity" data-qualified-name="choreo.c_order" data-source-line="12" id="ent0003"><rect fill="#161A22" height="82.1777" rx="4.6875" ry="4.6875" style="stroke:#3D424E;stroke-width:0.7813;" width="239.2868" x="177.2344" y="129.6143"/><text fill="#E6E8EC" font-family="'DejaVu Sans'" font-size="21.875" lengthAdjust="spacing" textLength="133.6105" x="230.0725" y="165.5441">Ordering BC</text><text fill="#E6E8EC" font-family="'DejaVu Sans'" font-size="21.875" lengthAdjust="spacing" textLength="208.0368" x="192.8594" y="191.008">(emit OrderPlaced)</text></g><!--entity c_pay--><g class="entity" data-qualified-name="choreo.c_pay" data-source-line="13" id="ent0004"><rect fill="#161A22" height="82.1777" rx="4.6875" ry="4.6875" style="stroke:#3D424E;stroke-width:0.7813;" width="410.9329" x="91.4063" y="364.0518"/><text fill="#E6E8EC" font-family="'DejaVu Sans'" font-size="21.875" lengthAdjust="spacing" textLength="133.9844" x="229.8805" y="399.9816">Payment BC</text><text fill="#E6E8EC" font-family="'DejaVu Sans'" font-size="21.875" lengthAdjust="spacing" textLength="379.6829" x="107.0313" y="425.4455">(charge, emit PaymentSucceeded)</text></g><!--entity c_inv--><g class="entity" data-qualified-name="choreo.c_inv" data-source-line="14" id="ent0005"><rect fill="#161A22" height="82.1777" rx="4.6875" ry="4.6875" style="stroke:#3D424E;stroke-width:0.7813;" width="364.6408" x="114.5469" y="601.5986"/><text fill="#E6E8EC" font-family="'DejaVu Sans'" font-size="21.875" lengthAdjust="spacing" textLength="160.6873" x="216.5237" y="637.5285">Warehouse BC</text><text fill="#E6E8EC" font-family="'DejaVu Sans'" font-size="21.875" lengthAdjust="spacing" textLength="333.3908" x="130.1719" y="662.9924">(reserve, emit StockReserved)</text></g><!--entity c_ship--><g class="entity" data-qualified-name="choreo.c_ship" data-source-line="15" id="ent0006"><rect fill="#161A22" height="82.1777" rx="4.6875" ry="4.6875" style="stroke:#3D424E;stroke-width:0.7813;" width="489.8773" x="51.9375" y="805.6611"/><text fill="#E6E8EC" font-family="'DejaVu Sans'" font-size="21.875" lengthAdjust="spacing" textLength="132.6599" x="230.5462" y="841.591">Shipping BC</text><text fill="#E6E8EC" font-family="'DejaVu Sans'" font-size="21.875" lengthAdjust="spacing" textLength="458.6273" x="67.5625" y="867.0549">(create shipment, emit ShipmentCreated)</text></g><g class="entity" data-qualified-name="choreo.GMN10" data-source-line="22" id="ent0011"><path d="M101.6875,987.833 L101.6875,1095.9385 A4.6875,4.6875 0 0 0 106.375,1100.626 L487.3854,1100.626 A4.6875,4.6875 0 0 0 492.0729,1095.9385 L492.0729,998.7705 L476.4479,983.1455 L303.125,983.1455 L296.875,888.5674 L290.625,983.1455 L106.375,983.1455 A4.6875,4.6875 0 0 0 101.6875,987.833" fill="#161A22" style="stroke:#3D424E;stroke-width:0.7813;"/><path d="M476.4479,983.1455 L476.4479,996.4268 A2.3438,2.3438 0 0 0 478.7917,998.7705 L492.0729,998.7705 L476.4479,983.1455" fill="#161A22" style="stroke:#3D424E;stroke-width:0.7813;"/><text fill="#A6ADBB" font-family="'DejaVu Sans'" font-size="21.875" lengthAdjust="spacing" textLength="357.5729" x="111.0625" y="1011.2629">+ Loose coupling, autonomie BC</text><text fill="#A6ADBB" font-family="'DejaVu Sans'" font-size="21.875" lengthAdjust="spacing" textLength="295.9534" x="141.8723" y="1036.7267">- Nikdo nev&#237;, kde s&#225;ga stoj&#237;</text><text fill="#A6ADBB" font-family="'DejaVu Sans'" font-size="21.875" lengthAdjust="spacing" textLength="281.9504" x="148.8738" y="1062.1906">- Cycle dependency riziko</text><text fill="#A6ADBB" font-family="'DejaVu Sans'" font-size="21.875" lengthAdjust="spacing" textLength="230.4031" x="174.6474" y="1087.6545">- Kompenzace skryt&#225;</text></g><!--entity o_pm--><g class="entity" data-qualified-name="orch.o_pm" data-source-line="30" id="ent0014"><rect fill="#161A22" height="82.1777" rx="4.6875" ry="4.6875" style="stroke:#3D424E;stroke-width:0.7813;" width="278.2303" x="1073.3906" y="129.6143"/><text fill="#E6E8EC" font-family="'DejaVu Sans'" font-size="21.875" lengthAdjust="spacing" textLength="242.2806" x="1091.3655" y="165.5441">OrderProcessManager</text><text fill="#E6E8EC" font-family="'DejaVu Sans'" font-size="21.875" lengthAdjust="spacing" textLength="246.9803" x="1089.0156" y="191.008">(centr&#225;ln&#237; koordin&#225;tor)</text></g><!--entity o_order--><g class="entity" data-qualified-name="orch.o_order" data-source-line="32" id="ent0015"><rect fill="#161A22" height="56.7139" rx="4.6875" ry="4.6875" style="stroke:#3D424E;stroke-width:0.7813;" width="164.8605" x="648.8125" y="376.7705"/><text fill="#E6E8EC" font-family="'DejaVu Sans'" font-size="21.875" lengthAdjust="spacing" textLength="133.6105" x="664.4375" y="412.7004">Ordering BC</text></g><!--entity o_pay--><g class="entity" data-qualified-name="orch.o_pay" data-source-line="33" id="ent0016"><rect fill="#161A22" height="56.7139" rx="4.6875" ry="4.6875" style="stroke:#3D424E;stroke-width:0.7813;" width="165.2344" x="868.9375" y="376.7705"/><text fill="#E6E8EC" font-family="'DejaVu Sans'" font-size="21.875" lengthAdjust="spacing" textLength="133.9844" x="884.5625" y="412.7004">Payment BC</text></g><!--entity o_inv--><g class="entity" data-qualified-name="orch.o_inv" data-source-line="34" id="ent0017"><rect fill="#161A22" height="56.7139" rx="4.6875" ry="4.6875" style="stroke:#3D424E;stroke-width:0.7813;" width="191.9373" x="1088.4063" y="376.7705"/><text fill="#E6E8EC" font-family="'DejaVu Sans'" font-size="21.875" lengthAdjust="spacing" textLength="160.6873" x="1104.0313" y="412.7004">Warehouse BC</text></g><!--entity o_ship--><g class="entity" data-qualified-name="orch.o_ship" data-source-line="35" id="ent0018"><rect fill="#161A22" height="56.7139" rx="4.6875" ry="4.6875" style="stroke:#3D424E;stroke-width:0.7813;" width="163.9099" x="1335.2344" y="376.7705"/><text fill="#E6E8EC" font-family="'DejaVu Sans'" font-size="21.875" lengthAdjust="spacing" textLength="132.6599" x="1350.8594" y="412.7004">Shipping BC</text></g><g class="entity" data-qualified-name="orch.GMN23" data-source-line="43" id="ent0024"><path d="M1553.7969,338.3486 L1553.7969,471.918 A4.6875,4.6875 0 0 0 1558.4844,476.6055 L2066.5151,476.6055 A4.6875,4.6875 0 0 0 2071.2026,471.918 L2071.2026,349.2861 L2055.5776,333.6611 L1558.4844,333.6611 A4.6875,4.6875 0 0 0 1553.7969,338.3486" fill="#161A22" style="stroke:#3D424E;stroke-width:0.7813;"/><path d="M2055.5776,333.6611 L2055.5776,346.9424 A2.3438,2.3438 0 0 0 2057.9213,349.2861 L2071.2026,349.2861 L2055.5776,333.6611" fill="#161A22" style="stroke:#3D424E;stroke-width:1.5625;"/><text fill="#A6ADBB" font-family="'DejaVu Sans'" font-size="21.875" lengthAdjust="spacing" textLength="341.7969" x="1634.57" y="361.7785">+ Stav s&#225;gy explicitn&#237; (DB row)</text><text fill="#A6ADBB" font-family="'DejaVu Sans'" font-size="21.875" lengthAdjust="spacing" textLength="311.441" x="1649.748" y="387.2424">+ Kompenzace v jedn&#233; t&#345;&#237;d&#283;</text><text fill="#A6ADBB" font-family="'DejaVu Sans'" font-size="21.875" lengthAdjust="spacing" textLength="484.5932" x="1563.1719" y="412.7062">+ Monitoring a recovery nad jedn&#237;m m&#237;stem</text><text fill="#A6ADBB" font-family="'DejaVu Sans'" font-size="21.875" lengthAdjust="spacing" textLength="334.9716" x="1637.9827" y="438.1701">- Koordin&#225;tor pot&#345;ebuje vlastn&#237;</text><text fill="#A6ADBB" font-family="'DejaVu Sans'" font-size="21.875" lengthAdjust="spacing" textLength="417.5903" x="1603.6267" y="463.634">perzistentn&#237; stav (tabulka order_saga)</text></g><!--link c_order to c_pay--><g class="link" data-entity-1="ent0003" data-entity-2="ent0004" data-link-type="dependency" data-source-line="17" id="lnk7"><path d="M296.875,212.5518 C296.875,254.8799 296.875,311.6768 296.875,353.9736" fill="none" id="c_order-to-c_pay" style="stroke:#F0A456;stroke-width:2.3438;"/><polygon fill="#F0A456" points="296.875,363.3486,303.125,349.2861,296.875,355.5361,290.625,349.2861,296.875,363.3486" style="stroke:#F0A456;stroke-width:2.3438;"/><text fill="#E6E8EC" font-family="'DejaVu Sans'" font-size="21.875" lengthAdjust="spacing" textLength="134.5932" x="298.4375" y="280.5285">OrderPlaced</text></g><!--link c_pay to c_inv--><g class="link" data-entity-1="ent0004" data-entity-2="ent0005" data-link-type="dependency" data-source-line="18" id="lnk8"><path d="M296.875,447.0049 C296.875,490.1924 296.875,548.9893 296.875,591.9893" fill="none" id="c_pay-to-c_inv" style="stroke:#F0A456;stroke-width:2.3438;"/><polygon fill="#F0A456" points="296.875,601.3643,303.125,587.3018,296.875,593.5518,290.625,587.3018,296.875,601.3643" style="stroke:#F0A456;stroke-width:2.3438;"/><text fill="#E6E8EC" font-family="'DejaVu Sans'" font-size="21.875" lengthAdjust="spacing" textLength="216.6992" x="298.4375" y="548.466">PaymentSucceeded</text></g><!--link c_inv to c_ship--><g class="link" data-entity-1="ent0005" data-entity-2="ent0006" data-link-type="dependency" data-source-line="19" id="lnk9"><path d="M296.875,684.4424 C296.875,719.4736 296.875,760.6768 296.875,795.708" fill="none" id="c_inv-to-c_ship" style="stroke:#F0A456;stroke-width:2.3438;"/><polygon fill="#F0A456" points="296.875,805.083,303.125,791.0205,296.875,797.2705,290.625,791.0205,296.875,805.083" style="stroke:#F0A456;stroke-width:2.3438;"/><text fill="#E6E8EC" font-family="'DejaVu Sans'" font-size="21.875" lengthAdjust="spacing" textLength="163.3362" x="298.4375" y="752.5285">StockReserved</text></g><!--link o_pm to o_pay--><g class="link" data-entity-1="ent0014" data-entity-2="ent0016" data-link-type="dependency" data-source-line="37" id="lnk19"><path d="M1073.2344,194.6143 C1035.125,207.3486 997.3594,227.3174 971.875,258.6611 C944.7969,291.9736 943.7251,335.1248 946.7407,366.9529" fill="none" id="o_pm-to-o_pay" style="stroke:#F0A456;stroke-width:2.3438;"/><polygon fill="#F0A456" points="947.625,376.2861,952.5207,361.6968,946.8881,368.5085,940.0764,362.8759,947.625,376.2861" style="stroke:#F0A456;stroke-width:2.3438;"/><text fill="#E6E8EC" font-family="'DejaVu Sans'" font-size="21.875" lengthAdjust="spacing" textLength="212.9608" x="973.4375" y="280.5285">1. ChargeCustomer</text></g><!--link o_pm to o_inv--><g class="link" data-entity-1="ent0014" data-entity-2="ent0017" data-link-type="dependency" data-source-line="38" id="lnk20"><path d="M1207.5938,212.5518 C1201.9063,259.4111 1193.7891,326.183 1188.8516,366.7455" fill="none" id="o_pm-to-o_inv" style="stroke:#F0A456;stroke-width:2.3438;"/><polygon fill="#F0A456" points="1187.7188,376.0518,1195.6222,362.8475,1188.6628,368.2965,1183.2138,361.3371,1187.7188,376.0518" style="stroke:#F0A456;stroke-width:2.3438;"/><text fill="#E6E8EC" font-family="'DejaVu Sans'" font-size="21.875" lengthAdjust="spacing" textLength="177.2751" x="1203.3438" y="280.5285">2. ReserveStock</text></g><!--link o_pm to o_ship--><g class="link" data-entity-1="ent0014" data-entity-2="ent0018" data-link-type="dependency" data-source-line="39" id="lnk21"><path d="M1338.25,212.4111 C1359.5156,224.2705 1379.3281,239.4111 1393.75,258.6611 C1419.4219,292.9268 1421.9786,335.2671 1420.3692,366.7515" fill="none" id="o_pm-to-o_ship" style="stroke:#F0A456;stroke-width:2.3438;"/><polygon fill="#F0A456" points="1419.8906,376.1143,1426.8504,362.3892,1420.2895,368.3119,1414.3667,361.751,1419.8906,376.1143" style="stroke:#F0A456;stroke-width:2.3438;"/><text fill="#E6E8EC" font-family="'DejaVu Sans'" font-size="21.875" lengthAdjust="spacing" textLength="205.9113" x="1410.1719" y="280.5285">3. CreateShipment</text></g><!--link o_pm to o_order--><g class="link" data-entity-1="ent0014" data-entity-2="ent0015" data-link-type="dependency" data-source-line="40" id="lnk22"><path d="M1072.875,188.5674 C971.4219,202.8174 844.8906,226.3018 803.125,258.6611 C764.9375,288.2393 747.9784,334.4144 739.4002,367.4926" fill="none" id="o_pm-to-o_order" style="stroke:#F0A456;stroke-width:2.3438;"/><polygon fill="#F0A456" points="737.0469,376.5674,746.6268,364.5241,739.008,369.005,734.527,361.3862,737.0469,376.5674" style="stroke:#F0A456;stroke-width:2.3438;"/><text fill="#E6E8EC" font-family="'DejaVu Sans'" font-size="21.875" lengthAdjust="spacing" textLength="138.0859" x="804.6875" y="280.5285">4. ShipOrder</text></g><!--link o_pm to GMN23--><g class="link" data-entity-1="ent0014" data-entity-2="ent0024" data-link-type="association" data-source-line="43" id="lnk25"><path d="M1351.9375,184.7236 C1435.5469,196.1299 1542.25,217.7861 1629.6875,258.6611 C1669.5,277.2705 1708.4063,306.1299 1740.0156,333.2236" fill="none" id="o_pm-GMN23" style="stroke:#F0A456;stroke-width:2.3438;stroke-dasharray:10.9375,10.9375;"/></g><?plantuml-src VPJ1RjD048RlVegXvT2ADj1IUiW1AJ5jGT2cIYfn05HjrrDdQtl7sbq7KiI384uvSiWZmCNqlTXTRzAwQdgBP_xz_S_ivpmHakTLWj3fF3TZBB0ZgYAF8YDCZZ2gPodh0X-JGaeLknG84zq1KdoCsYZ6COfq9cJ952kWP3nZASBt2A1lVwUAAfd4b9E2f_qZLoMLe0gLNXmVd9pPwY59qwxzYAA5sLhyTZ0y61mDUuVl3hfmyxUU9RB-0nobKVKib_KSChA-GjOpGseDc0w9VH25t32PscdM1kxbGgRGZp_B3Io40LywpUqWoMPpyjn7R1yyPTF2lguvnyTCfRW5_dpeZ2hE4PDRav9DsnOVcS8nLHeR4uKQrMJXCZB4is5JMbe8EMbRZCQYB9VnkK9c4BGjkWGBf_0O--xIowaYwnQcW-rFwuSlUdklzhzilsxIGlVkBhpKLUy9RIOhl3-qLxlMFRLxgvMtfdCf9DdW5sGC5K2N2-7wplvERtVNzW6UmGSYkojELPdRaRU0LOOa5SBjpqksuKHa2O74IJtVWimoh1ske0rTrVEWYQVShYx14cM2aaz1YMkHKUY-fy8shkt4e3CrDVNCDgpI9sn1E1Z6Rmz6PyDUR1d4RpOK5yQXTwg8ezPmpAGLDlIvp-D1ze8uQDqbhe2ukJSwBuje9S91yYYk2vl7Q0oQnt0BaWL5BbVxhYaWjDE1s7yUSMMleV317b8t7Ers863X4LcX3HIzjDOUwWNYA-GDu5tOw_YFmI_i0UZyqJPo8yCcdg5fwuOttlH1qTVDeBh3p0IkqFuN_GPpyxEU9_z-1SanIM4lqUsEkOtI1DKK94iQ_Ro0efvhWyKImzkRXvAi6rvKLzO_Pzf5y3A04jMriCUaZwLTsWt3BgeyO-2dFjSiPPjjXFy3?></g></svg>