<?xml version="1.0" encoding="UTF-8" standalone="no"?><svg xmlns="http://www.w3.org/2000/svg" xmlns:xlink="http://www.w3.org/1999/xlink" contentScriptType="application/ecmascript" contentStyleType="text/css" height="1367.1875px" preserveAspectRatio="none" style="width:1278px;height:1367px;background:#11141A;" version="1.1" viewBox="0 0 1278 1367" width="1278.125px" zoomAndPan="magnify"><defs/><g><text fill="#E6E8EC" font-family="DejaVu Sans" font-size="28.125" lengthAdjust="spacingAndGlyphs" textLength="795.3125" x="234.7656" y="41.7313">Kompenzační flow: rollback ságy v opačném pořadí kroků</text><line style="stroke: #3D424E; stroke-width: 1.5625; stroke-dasharray: 5.0,5.0;" x1="289.0625" x2="289.0625" y1="108.2031" y2="1304.6387"/><line style="stroke: #3D424E; stroke-width: 1.5625; stroke-dasharray: 5.0,5.0;" x1="674.2188" x2="674.2188" y1="108.2031" y2="1304.6387"/><line style="stroke: #3D424E; stroke-width: 1.5625; stroke-dasharray: 5.0,5.0;" x1="828.9063" x2="828.9063" y1="108.2031" y2="1304.6387"/><line style="stroke: #3D424E; stroke-width: 1.5625; stroke-dasharray: 5.0,5.0;" x1="1000.7813" x2="1000.7813" y1="108.2031" y2="1304.6387"/><line style="stroke: #3D424E; stroke-width: 1.5625; stroke-dasharray: 5.0,5.0;" x1="1169.5313" x2="1169.5313" y1="108.2031" y2="1304.6387"/><rect fill="#161A22" height="47.3389" rx="4.6875" ry="4.6875" style="stroke: #3D424E; stroke-width: 2.34375;" width="115.625" x="231.25" y="59.3018"/><text fill="#E6E8EC" font-family="DejaVu Sans" font-size="21.875" lengthAdjust="spacingAndGlyphs" textLength="93.75" x="242.1875" y="90.5441">OrderPM</text><rect fill="#161A22" height="47.3389" rx="4.6875" ry="4.6875" style="stroke: #3D424E; stroke-width: 2.34375;" width="115.625" x="231.25" y="1303.0762"/><text fill="#E6E8EC" font-family="DejaVu Sans" font-size="21.875" lengthAdjust="spacingAndGlyphs" textLength="93.75" x="242.1875" y="1334.3185">OrderPM</text><rect fill="#161A22" height="47.3389" rx="4.6875" ry="4.6875" style="stroke: #3D424E; stroke-width: 2.34375;" width="120.3125" x="614.8438" y="59.3018"/><text fill="#E6E8EC" font-family="DejaVu Sans" font-size="21.875" lengthAdjust="spacingAndGlyphs" textLength="98.4375" x="625.7813" y="90.5441">Order BC</text><rect fill="#161A22" height="47.3389" rx="4.6875" ry="4.6875" style="stroke: #3D424E; stroke-width: 2.34375;" width="120.3125" x="614.8438" y="1303.0762"/><text fill="#E6E8EC" font-family="DejaVu Sans" font-size="21.875" lengthAdjust="spacingAndGlyphs" textLength="98.4375" x="625.7813" y="1334.3185">Order BC</text><rect fill="#161A22" height="47.3389" rx="4.6875" ry="4.6875" style="stroke: #3D424E; stroke-width: 2.34375;" width="157.8125" x="750.7813" y="59.3018"/><text fill="#E6E8EC" font-family="DejaVu Sans" font-size="21.875" lengthAdjust="spacingAndGlyphs" textLength="135.9375" x="761.7188" y="90.5441">Inventory BC</text><rect fill="#161A22" height="47.3389" rx="4.6875" ry="4.6875" style="stroke: #3D424E; stroke-width: 2.34375;" width="157.8125" x="750.7813" y="1303.0762"/><text fill="#E6E8EC" font-family="DejaVu Sans" font-size="21.875" lengthAdjust="spacingAndGlyphs" textLength="135.9375" x="761.7188" y="1334.3185">Inventory BC</text><rect fill="#161A22" height="47.3389" rx="4.6875" ry="4.6875" style="stroke: #3D424E; stroke-width: 2.34375;" width="153.125" x="924.2188" y="59.3018"/><text fill="#E6E8EC" font-family="DejaVu Sans" font-size="21.875" lengthAdjust="spacingAndGlyphs" textLength="131.25" x="935.1563" y="90.5441">Payment BC</text><rect fill="#161A22" height="47.3389" rx="4.6875" ry="4.6875" style="stroke: #3D424E; stroke-width: 2.34375;" width="153.125" x="924.2188" y="1303.0762"/><text fill="#E6E8EC" font-family="DejaVu Sans" font-size="21.875" lengthAdjust="spacingAndGlyphs" textLength="131.25" x="935.1563" y="1334.3185">Payment BC</text><rect fill="#161A22" height="47.3389" rx="4.6875" ry="4.6875" style="stroke: #3D424E; stroke-width: 2.34375;" width="153.125" x="1092.9688" y="59.3018"/><text fill="#E6E8EC" font-family="DejaVu Sans" font-size="21.875" lengthAdjust="spacingAndGlyphs" textLength="131.25" x="1103.9063" y="90.5441">Shipping BC</text><rect fill="#161A22" height="47.3389" rx="4.6875" ry="4.6875" style="stroke: #3D424E; stroke-width: 2.34375;" width="153.125" x="1092.9688" y="1303.0762"/><text fill="#E6E8EC" font-family="DejaVu Sans" font-size="21.875" lengthAdjust="spacingAndGlyphs" textLength="131.25" x="1103.9063" y="1334.3185">Shipping BC</text><rect fill="#1B202A" height="4.6875" style="stroke: #1B202A; stroke-width: 1.5625;" width="1255.4688" x="4.6875" y="156.8726"/><line style="stroke: #3D424E; stroke-width: 1.5625;" x1="4.6875" x2="1260.1563" y1="156.8726" y2="156.8726"/><line style="stroke: #3D424E; stroke-width: 1.5625;" x1="4.6875" x2="1260.1563" y1="161.5601" y2="161.5601"/><rect fill="#1B202A" height="37.9639" style="stroke: #3D424E; stroke-width: 3.125;" width="307.8125" x="478.5156" y="139.4531"/><text fill="#A6ADBB" font-family="DejaVu Sans" font-size="21.875" font-weight="bold" lengthAdjust="spacingAndGlyphs" textLength="278.125" x="487.8906" y="166.008">Šťastná cesta (1-4 OK)</text><polygon fill="#F0A456" points="656.25,221.6309,671.875,227.8809,656.25,234.1309,662.5,227.8809" style="stroke: #F0A456; stroke-width: 1.5625;"/><line style="stroke: #F0A456; stroke-width: 2.34375;" x1="289.0625" x2="665.625" y1="227.8809" y2="227.8809"/><text fill="#E6E8EC" font-family="DejaVu Sans" font-size="21.875" lengthAdjust="spacingAndGlyphs" textLength="157.8125" x="300" y="219.5969">place(items) ✓</text><polygon fill="#F0A456" points="810.9375,268.9697,826.5625,275.2197,810.9375,281.4697,817.1875,275.2197" style="stroke: #F0A456; stroke-width: 1.5625;"/><line style="stroke: #F0A456; stroke-width: 2.34375;" x1="289.0625" x2="820.3125" y1="275.2197" y2="275.2197"/><text fill="#E6E8EC" font-family="DejaVu Sans" font-size="21.875" lengthAdjust="spacingAndGlyphs" textLength="181.25" x="300" y="266.9357">reserve(items) ✓</text><polygon fill="#F0A456" points="982.0313,316.3086,997.6563,322.5586,982.0313,328.8086,988.2813,322.5586" style="stroke: #F0A456; stroke-width: 1.5625;"/><line style="stroke: #F0A456; stroke-width: 2.34375;" x1="289.0625" x2="991.4063" y1="322.5586" y2="322.5586"/><text fill="#E6E8EC" font-family="DejaVu Sans" font-size="21.875" lengthAdjust="spacingAndGlyphs" textLength="198.4375" x="300" y="314.2746">charge(amount) ✓</text><polygon fill="#F0A456" points="1150.7813,363.6475,1166.4063,369.8975,1150.7813,376.1475,1157.0313,369.8975" style="stroke: #F0A456; stroke-width: 1.5625;"/><line style="stroke: #F0A456; stroke-width: 2.34375;" x1="289.0625" x2="1160.1563" y1="369.8975" y2="369.8975"/><text fill="#E6E8EC" font-family="DejaVu Sans" font-size="21.875" lengthAdjust="spacingAndGlyphs" textLength="359.375" x="300" y="361.6135">ship() ✗  shipment provider down</text><polygon fill="#F0A456" points="306.25,410.9863,290.625,417.2363,306.25,423.4863,300,417.2363" style="stroke: #F0A456; stroke-width: 1.5625;"/><line style="stroke: #F0A456; stroke-width: 2.34375; stroke-dasharray: 2.0,2.0;" x1="296.875" x2="1167.9688" y1="417.2363" y2="417.2363"/><text fill="#E6E8EC" font-family="DejaVu Sans" font-size="21.875" lengthAdjust="spacingAndGlyphs" textLength="165.625" x="315.625" y="408.9523">ShipmentFailed</text><path d="M25,442.2363 L25,498.4863 A4.6875,4.6875 0 0 0 29.6875,503.1738 L548.4375,503.1738 A4.6875,4.6875 0 0 0 553.125,498.4863 L553.125,453.1738 L537.5,437.5488 L29.6875,437.5488 A4.6875,4.6875 0 0 0 25,442.2363 " fill="#1B202A" style="stroke: #3D424E; stroke-width: 1.5625;"/><path d="M537.5,437.5488 L537.5,450.8301 A2.3438,2.3438 0 0 0 539.8438,453.1738 L553.125,453.1738 L537.5,437.5488 " fill="#1B202A" style="stroke: #3D424E; stroke-width: 1.5625;"/><text fill="#A6ADBB" font-family="DejaVu Sans" font-size="21.875" lengthAdjust="spacingAndGlyphs" textLength="253.125" x="162.5" y="465.6662">Krok 4 selhal po 3 retry.</text><text fill="#A6ADBB" font-family="DejaVu Sans" font-size="21.875" lengthAdjust="spacingAndGlyphs" textLength="481.25" x="48.4375" y="491.1301">Sága spouští kompenzaci v opačném pořadí.</text><rect fill="#1B202A" height="4.6875" style="stroke: #1B202A; stroke-width: 1.5625;" width="1255.4688" x="4.6875" y="544.9585"/><line style="stroke: #3D424E; stroke-width: 1.5625;" x1="4.6875" x2="1260.1563" y1="544.9585" y2="544.9585"/><line style="stroke: #3D424E; stroke-width: 1.5625;" x1="4.6875" x2="1260.1563" y1="549.646" y2="549.646"/><rect fill="#1B202A" height="37.9639" style="stroke: #3D424E; stroke-width: 3.125;" width="417.1875" x="423.8281" y="527.5391"/><text fill="#A6ADBB" font-family="DejaVu Sans" font-size="21.875" font-weight="bold" lengthAdjust="spacingAndGlyphs" textLength="387.5" x="433.2031" y="554.0939">Kompenzace v opačném pořadí</text><polygon fill="#F0A456" points="982.0313,609.7168,997.6563,615.9668,982.0313,622.2168,988.2813,615.9668" style="stroke: #F0A456; stroke-width: 1.5625;"/><line style="stroke: #F0A456; stroke-width: 2.34375;" x1="289.0625" x2="991.4063" y1="615.9668" y2="615.9668"/><text fill="#E6E8EC" font-family="DejaVu Sans" font-size="21.875" lengthAdjust="spacingAndGlyphs" textLength="168.75" x="300" y="607.6828">refund(amount)</text><polygon fill="#F0A456" points="306.25,674.4751,290.625,680.7251,306.25,686.9751,300,680.7251" style="stroke: #F0A456; stroke-width: 1.5625;"/><line style="stroke: #F0A456; stroke-width: 2.34375; stroke-dasharray: 2.0,2.0;" x1="296.875" x2="999.2188" y1="680.7251" y2="680.7251"/><text fill="#E6E8EC" font-family="DejaVu Sans" font-size="21.875" lengthAdjust="spacingAndGlyphs" textLength="200" x="315.625" y="672.4411">PaymentRefunded</text><path d="M1007.8125,640.9668 L1007.8125,697.2168 A4.6875,4.6875 0 0 0 1012.5,701.9043 L1239.0625,701.9043 A4.6875,4.6875 0 0 0 1243.75,697.2168 L1243.75,651.9043 L1228.125,636.2793 L1012.5,636.2793 A4.6875,4.6875 0 0 0 1007.8125,640.9668 " fill="#1B202A" style="stroke: #3D424E; stroke-width: 1.5625;"/><path d="M1228.125,636.2793 L1228.125,649.5605 A2.3438,2.3438 0 0 0 1230.4688,651.9043 L1243.75,651.9043 L1228.125,636.2793 " fill="#1B202A" style="stroke: #3D424E; stroke-width: 1.5625;"/><text fill="#A6ADBB" font-family="DejaVu Sans" font-size="21.875" lengthAdjust="spacingAndGlyphs" textLength="189.0625" x="1031.25" y="664.3967">Kompenzace #3:</text><text fill="#A6ADBB" font-family="DejaVu Sans" font-size="21.875" lengthAdjust="spacingAndGlyphs" textLength="165.625" x="1042.9688" y="689.8605">finanční vrácení</text><polygon fill="#F0A456" points="810.9375,739.2334,826.5625,745.4834,810.9375,751.7334,817.1875,745.4834" style="stroke: #F0A456; stroke-width: 1.5625;"/><line style="stroke: #F0A456; stroke-width: 2.34375;" x1="289.0625" x2="820.3125" y1="745.4834" y2="745.4834"/><text fill="#E6E8EC" font-family="DejaVu Sans" font-size="21.875" lengthAdjust="spacingAndGlyphs" textLength="282.8125" x="300" y="737.1994">releaseReservation(items)</text><polygon fill="#F0A456" points="306.25,816.7236,290.625,822.9736,306.25,829.2236,300,822.9736" style="stroke: #F0A456; stroke-width: 1.5625;"/><line style="stroke: #F0A456; stroke-width: 2.34375; stroke-dasharray: 2.0,2.0;" x1="296.875" x2="828.125" y1="822.9736" y2="822.9736"/><text fill="#E6E8EC" font-family="DejaVu Sans" font-size="21.875" lengthAdjust="spacingAndGlyphs" textLength="200" x="315.625" y="814.6896">InventoryReleased</text><path d="M837.5,770.4834 L837.5,851.7334 A4.6875,4.6875 0 0 0 842.1875,856.4209 L1081.25,856.4209 A4.6875,4.6875 0 0 0 1085.9375,851.7334 L1085.9375,781.4209 L1070.3125,765.7959 L842.1875,765.7959 A4.6875,4.6875 0 0 0 837.5,770.4834 " fill="#1B202A" style="stroke: #3D424E; stroke-width: 1.5625;"/><path d="M1070.3125,765.7959 L1070.3125,779.0771 A2.3438,2.3438 0 0 0 1072.6563,781.4209 L1085.9375,781.4209 L1070.3125,765.7959 " fill="#1B202A" style="stroke: #3D424E; stroke-width: 1.5625;"/><text fill="#A6ADBB" font-family="DejaVu Sans" font-size="21.875" lengthAdjust="spacingAndGlyphs" textLength="189.0625" x="867.1875" y="793.9133">Kompenzace #2:</text><text fill="#A6ADBB" font-family="DejaVu Sans" font-size="21.875" lengthAdjust="spacingAndGlyphs" textLength="201.5625" x="860.9375" y="819.3771">volné položky zpět</text><text fill="#A6ADBB" font-family="DejaVu Sans" font-size="21.875" lengthAdjust="spacingAndGlyphs" textLength="89.0625" x="917.1875" y="844.841">na sklad</text><polygon fill="#F0A456" points="656.25,894.2139,671.875,900.4639,656.25,906.7139,662.5,900.4639" style="stroke: #F0A456; stroke-width: 1.5625;"/><line style="stroke: #F0A456; stroke-width: 2.34375;" x1="289.0625" x2="665.625" y1="900.4639" y2="900.4639"/><text fill="#E6E8EC" font-family="DejaVu Sans" font-size="21.875" lengthAdjust="spacingAndGlyphs" textLength="348.4375" x="300" y="892.1799">cancel(reason='shipping_failed')</text><polygon fill="#F0A456" points="306.25,958.9722,290.625,965.2222,306.25,971.4722,300,965.2222" style="stroke: #F0A456; stroke-width: 1.5625;"/><line style="stroke: #F0A456; stroke-width: 2.34375; stroke-dasharray: 2.0,2.0;" x1="296.875" x2="673.4375" y1="965.2222" y2="965.2222"/><text fill="#E6E8EC" font-family="DejaVu Sans" font-size="21.875" lengthAdjust="spacingAndGlyphs" textLength="167.1875" x="315.625" y="956.9382">OrderCancelled</text><path d="M682.8125,925.4639 L682.8125,981.7139 A4.6875,4.6875 0 0 0 687.5,986.4014 L957.8125,986.4014 A4.6875,4.6875 0 0 0 962.5,981.7139 L962.5,936.4014 L946.875,920.7764 L687.5,920.7764 A4.6875,4.6875 0 0 0 682.8125,925.4639 " fill="#1B202A" style="stroke: #3D424E; stroke-width: 1.5625;"/><path d="M946.875,920.7764 L946.875,934.0576 A2.3438,2.3438 0 0 0 949.2188,936.4014 L962.5,936.4014 L946.875,920.7764 " fill="#1B202A" style="stroke: #3D424E; stroke-width: 1.5625;"/><text fill="#A6ADBB" font-family="DejaVu Sans" font-size="21.875" lengthAdjust="spacingAndGlyphs" textLength="189.0625" x="728.125" y="948.8937">Kompenzace #1:</text><text fill="#A6ADBB" font-family="DejaVu Sans" font-size="21.875" lengthAdjust="spacingAndGlyphs" textLength="232.8125" x="706.25" y="974.3576">stornovat objednávku</text><line style="stroke: #F0A456; stroke-width: 2.34375;" x1="289.0625" x2="354.6875" y1="1029.9805" y2="1029.9805"/><line style="stroke: #F0A456; stroke-width: 2.34375;" x1="354.6875" x2="354.6875" y1="1029.9805" y2="1050.293"/><line style="stroke: #F0A456; stroke-width: 2.34375;" x1="290.625" x2="354.6875" y1="1050.293" y2="1050.293"/><polygon fill="#F0A456" points="306.25,1044.043,290.625,1050.293,306.25,1056.543,300,1050.293" style="stroke: #F0A456; stroke-width: 1.5625;"/><text fill="#E6E8EC" font-family="DejaVu Sans" font-size="21.875" lengthAdjust="spacingAndGlyphs" textLength="204.6875" x="300" y="1021.6965">status = Cancelled</text><line style="stroke: #F0A456; stroke-width: 2.34375;" x1="289.0625" x2="354.6875" y1="1097.6318" y2="1097.6318"/><line style="stroke: #F0A456; stroke-width: 2.34375;" x1="354.6875" x2="354.6875" y1="1097.6318" y2="1117.9443"/><line style="stroke: #F0A456; stroke-width: 2.34375;" x1="290.625" x2="354.6875" y1="1117.9443" y2="1117.9443"/><polygon fill="#F0A456" points="306.25,1111.6943,290.625,1117.9443,306.25,1124.1943,300,1117.9443" style="stroke: #F0A456; stroke-width: 1.5625;"/><text fill="#E6E8EC" font-family="DejaVu Sans" font-size="21.875" lengthAdjust="spacingAndGlyphs" textLength="350" x="300" y="1089.3478">record SagaCompensated event</text><path d="M12.5,1142.9443 L12.5,1275.7568 A4.6875,4.6875 0 0 0 17.1875,1280.4443 L560.9375,1280.4443 A4.6875,4.6875 0 0 0 565.625,1275.7568 L565.625,1153.8818 L550,1138.2568 L17.1875,1138.2568 A4.6875,4.6875 0 0 0 12.5,1142.9443 " fill="#1B202A" style="stroke: #3D424E; stroke-width: 1.5625;"/><path d="M550,1138.2568 L550,1151.5381 A2.3438,2.3438 0 0 0 552.3438,1153.8818 L565.625,1153.8818 L550,1138.2568 " fill="#1B202A" style="stroke: #3D424E; stroke-width: 1.5625;"/><text fill="#A6ADBB" font-family="DejaVu Sans" font-size="21.875" lengthAdjust="spacingAndGlyphs" textLength="315.625" x="131.25" y="1166.3742">Klíčová pravidla kompenzace:</text><text fill="#A6ADBB" font-family="DejaVu Sans" font-size="21.875" lengthAdjust="spacingAndGlyphs" textLength="251.5625" x="163.2813" y="1191.8381">1. Opačné pořadí (LIFO)</text><text fill="#A6ADBB" font-family="DejaVu Sans" font-size="21.875" lengthAdjust="spacingAndGlyphs" textLength="506.25" x="35.9375" y="1217.3019">2. Každá kompenzace musí být IDEMPOTENTNÍ</text><text fill="#A6ADBB" font-family="DejaVu Sans" font-size="21.875" lengthAdjust="spacingAndGlyphs" textLength="493.75" x="42.1875" y="1242.7658">3. Kompenzace, která sama selže, jde na DLQ</text><text fill="#A6ADBB" font-family="DejaVu Sans" font-size="21.875" lengthAdjust="spacingAndGlyphs" textLength="248.4375" x="174.2188" y="1268.2297">- manuální zásah nutný</text><!--MD5=[70b889a276dd8bbaf4644612fee6a91b]
@startuml compensation_flow
skinparam dpi 150
skinparam backgroundColor #11141A
skinparam shadowing false
skinparam roundCorner 6

skinparam defaultFontName "DejaVu Sans"
skinparam defaultFontSize 14
skinparam defaultFontColor #E6E8EC
skinparam defaultTextAlignment center


skinparam ArrowColor #F0A456
skinparam ArrowFontColor #E6E8EC
skinparam ArrowThickness 1.5

skinparam node {
  BackgroundColor #161A22
  BorderColor #3D424E
  FontColor #E6E8EC
}

skinparam component {
  BackgroundColor #161A22
  BorderColor #3D424E
  FontColor #E6E8EC
}

skinparam rectangle {
  BackgroundColor #161A22
  BorderColor #3D424E
  FontColor #E6E8EC
}

skinparam package {
  BackgroundColor #11141A
  BorderColor #F0A456
  FontColor #F0A456
}

skinparam folder {
  BackgroundColor #161A22
  BorderColor #3D424E
  FontColor #E6E8EC
}

skinparam frame {
  BackgroundColor #161A22
  BorderColor #3D424E
  FontColor #E6E8EC
}

skinparam database {
  BackgroundColor #1B202A
  BorderColor #3D424E
  FontColor #E6E8EC
}

skinparam queue {
  BackgroundColor #1B202A
  BorderColor #3D424E
  FontColor #E6E8EC
}

skinparam cloud {
  BackgroundColor #1B202A
  BorderColor #3D424E
  FontColor #E6E8EC
}

skinparam actor {
  BackgroundColor #161A22
  BorderColor #F0A456
  FontColor #E6E8EC
}

skinparam usecase {
  BackgroundColor #161A22
  BorderColor #3D424E
  FontColor #E6E8EC
}

skinparam class {
  BackgroundColor #161A22
  BorderColor #3D424E
  HeaderBackgroundColor #1B202A
  ArrowColor #F0A456
  FontColor #E6E8EC
  AttributeFontColor #A6ADBB
  StereotypeFontColor #F0A456
}

skinparam object {
  BackgroundColor #161A22
  BorderColor #3D424E
  FontColor #E6E8EC
}

skinparam sequence {
  ParticipantBackgroundColor #161A22
  ParticipantBorderColor #3D424E
  ParticipantFontColor #E6E8EC
  ActorBackgroundColor #161A22
  ActorBorderColor #F0A456
  ActorFontColor #E6E8EC
  LifeLineBorderColor #3D424E
  LifeLineBackgroundColor #1B202A
  ArrowColor #F0A456
  ArrowFontColor #E6E8EC
  GroupBackgroundColor #1B202A
  GroupBorderColor #3D424E
  GroupFontColor #A6ADBB
  GroupHeaderFontColor #F0A456
  BoxBackgroundColor #11141A
  BoxBorderColor #F0A456
  BoxFontColor #F0A456
  DividerBackgroundColor #1B202A
  DividerBorderColor #3D424E
  DividerFontColor #A6ADBB
  ReferenceBackgroundColor #161A22
  ReferenceBorderColor #3D424E
  ReferenceFontColor #E6E8EC
  ReferenceHeaderBackgroundColor #1B202A
  StereotypeFontColor #F0A456
}

skinparam state {
  BackgroundColor #161A22
  BorderColor #3D424E
  FontColor #E6E8EC
  StartColor #F0A456
  EndColor #F0A456
  ArrowColor #F0A456
  AttributeFontColor #A6ADBB
}

skinparam activity {
  BackgroundColor #161A22
  BorderColor #3D424E
  FontColor #E6E8EC
  ArrowColor #F0A456
  StartColor #F0A456
  EndColor #F0A456
  BarColor #F0A456
  DiamondBackgroundColor #1B202A
  DiamondBorderColor #3D424E
  DiamondFontColor #E6E8EC
}

skinparam note {
  BackgroundColor #1B202A
  BorderColor #3D424E
  FontColor #A6ADBB
}

skinparam title {
  FontColor #E6E8EC
  FontSize 18
}

skinparam legend {
  BackgroundColor #161A22
  BorderColor #3D424E
  FontColor #A6ADBB
}

skinparam caption {
  FontColor #A6ADBB
}

skinparam stereotype {
  CBackgroundColor #1B202A
  CBorderColor #F0A456
  ABackgroundColor #1B202A
  ABorderColor #F0A456
  IBackgroundColor #1B202A
  IBorderColor #F0A456
  EBackgroundColor #1B202A
  EBorderColor #F0A456
}

title Kompenzační flow: rollback ságy v opačném pořadí kroků

participant "OrderPM" as pm
participant "Order BC" as ord
participant "Inventory BC" as inv
participant "Payment BC" as pay
participant "Shipping BC" as ship

== Šťastná cesta (1-4 OK) ==

pm -> ord : place(items) ✓
pm -> inv : reserve(items) ✓
pm -> pay : charge(amount) ✓
pm -> ship : ship() ✗  shipment provider down
ship - -> pm : ShipmentFailed

note over pm
  Krok 4 selhal po 3 retry.
  Sága spouští kompenzaci v opačném pořadí.
end note

== Kompenzace v opačném pořadí ==

pm -> pay : refund(amount)
pay - -> pm : PaymentRefunded
note right : Kompenzace #3:\nfinanční vrácení

pm -> inv : releaseReservation(items)
inv - -> pm : InventoryReleased
note right : Kompenzace #2:\nvolné položky zpět\nna sklad

pm -> ord : cancel(reason='shipping_failed')
ord - -> pm : OrderCancelled
note right : Kompenzace #1:\nstornovat objednávku

pm -> pm : status = Cancelled
pm -> pm : record SagaCompensated event

note over pm
  Klíčová pravidla kompenzace:
  1. Opačné pořadí (LIFO)
  2. Každá kompenzace musí být IDEMPOTENTNÍ
  3. Kompenzace, která sama selže, jde na DLQ
     - manuální zásah nutný
end note

@enduml

PlantUML version 1.2020.02(Sun Mar 01 11:22:07 CET 2020)
(GPL source distribution)
Java Runtime: OpenJDK Runtime Environment
JVM: OpenJDK 64-Bit Server VM
Java Version: 21.0.10+7-Debian-1deb13u1
Operating System: Linux
Default Encoding: UTF-8
Language: cs
Country: CZ
--></g></svg>