<?xml version="1.0" encoding="UTF-8" standalone="no"?><svg xmlns="http://www.w3.org/2000/svg" xmlns:xlink="http://www.w3.org/1999/xlink" contentScriptType="application/ecmascript" contentStyleType="text/css" height="651.5625px" preserveAspectRatio="none" style="width:1953px;height:651px;background:#11141A;" version="1.1" viewBox="0 0 1953 651" width="1953.125px" zoomAndPan="magnify"><defs/><g><text fill="#E6E8EC" font-family="Inter, ui-sans-serif, system-ui, -apple-system, sans-serif" font-size="28.125" lengthAdjust="spacingAndGlyphs" textLength="667.1875" x="660.1563" y="26.1063">3 mapování BC ↔ Service: kdy které dává smysl</text><!--MD5=[fedee1b5a49a422abb3fa93dface23fd]
cluster p1--><path d="M39.0625,70.2393 L370.3125,70.2393 A7.0313,7.0313 0 0 1 375,74.9268 L385.9375,130.542 L385.9375,130.542 A4.6875,4.6875 0 0 1 390.625,135.2295 L390.625,617.1143 A4.6875,4.6875 0 0 1 385.9375,621.8018 L39.0625,621.8018 A4.6875,4.6875 0 0 1 34.375,617.1143 L34.375,74.9268 A4.6875,4.6875 0 0 1 39.0625,70.2393 " fill="#11141A" style="stroke: #F0A456; stroke-width: 2.34375;"/><line style="stroke: #F0A456; stroke-width: 2.34375;" x1="34.375" x2="385.9375" y1="130.542" y2="130.542"/><text fill="#F0A456" font-family="Inter, ui-sans-serif, system-ui, -apple-system, sans-serif" font-size="21.875" font-weight="bold" lengthAdjust="spacingAndGlyphs" textLength="331.25" x="40.625" y="93.6691">Scénář 1: 1 BC = 1 service</text><text fill="#F0A456" font-family="Inter, ui-sans-serif, system-ui, -apple-system, sans-serif" font-size="21.875" font-weight="bold" lengthAdjust="spacingAndGlyphs" textLength="243.75" x="84.375" y="119.133">(čistá microservice)</text><!--MD5=[c43102eb9af13b6e0584468567583f91]
cluster p2--><path d="M432.8125,70.2393 L779.6875,70.2393 A7.0313,7.0313 0 0 1 784.375,74.9268 L795.3125,130.542 L1271.875,130.542 A4.6875,4.6875 0 0 1 1276.5625,135.2295 L1276.5625,629.6143 A4.6875,4.6875 0 0 1 1271.875,634.3018 L432.8125,634.3018 A4.6875,4.6875 0 0 1 428.125,629.6143 L428.125,74.9268 A4.6875,4.6875 0 0 1 432.8125,70.2393 " fill="#11141A" style="stroke: #F0A456; stroke-width: 2.34375;"/><line style="stroke: #F0A456; stroke-width: 2.34375;" x1="428.125" x2="795.3125" y1="130.542" y2="130.542"/><text fill="#F0A456" font-family="Inter, ui-sans-serif, system-ui, -apple-system, sans-serif" font-size="21.875" font-weight="bold" lengthAdjust="spacingAndGlyphs" textLength="346.875" x="434.375" y="93.6691">Scénář 2: 1 BC = N services</text><text fill="#F0A456" font-family="Inter, ui-sans-serif, system-ui, -apple-system, sans-serif" font-size="21.875" font-weight="bold" lengthAdjust="spacingAndGlyphs" textLength="220.3125" x="497.6563" y="119.133">(přehnané dělení)</text><!--MD5=[7f2e6138616fc2c683da5289fe2d6fe4]
cluster p3--><path d="M1318.75,70.2393 L1651.5625,70.2393 A7.0313,7.0313 0 0 1 1656.25,74.9268 L1667.1875,130.542 L1929.6875,130.542 A4.6875,4.6875 0 0 1 1934.375,135.2295 L1934.375,629.6143 A4.6875,4.6875 0 0 1 1929.6875,634.3018 L1318.75,634.3018 A4.6875,4.6875 0 0 1 1314.0625,629.6143 L1314.0625,74.9268 A4.6875,4.6875 0 0 1 1318.75,70.2393 " fill="#11141A" style="stroke: #F0A456; stroke-width: 2.34375;"/><line style="stroke: #F0A456; stroke-width: 2.34375;" x1="1314.0625" x2="1667.1875" y1="130.542" y2="130.542"/><text fill="#F0A456" font-family="Inter, ui-sans-serif, system-ui, -apple-system, sans-serif" font-size="21.875" font-weight="bold" lengthAdjust="spacingAndGlyphs" textLength="332.8125" x="1320.3125" y="93.6691">Scénář 3: N BC = 1 service</text><text fill="#F0A456" font-family="Inter, ui-sans-serif, system-ui, -apple-system, sans-serif" font-size="21.875" font-weight="bold" lengthAdjust="spacingAndGlyphs" textLength="232.8125" x="1370.3125" y="119.133">(modular monolith)</text><!--MD5=[f9db92897465332d87e4de3e2c08e721]
entity bc1--><rect fill="#F0A456" height="56.7139" rx="4.6875" ry="4.6875" style="stroke: #3D424E; stroke-width: 2.34375;" width="162.5" x="131.25" y="149.9268"/><text fill="#E6E8EC" font-family="Inter, ui-sans-serif, system-ui, -apple-system, sans-serif" font-size="21.875" lengthAdjust="spacingAndGlyphs" textLength="131.25" x="146.875" y="185.8566">Ordering BC</text><!--MD5=[b4aae4e919d43d0442ffedfae0ddc342]
entity svc1--><path d="M115.878,315.7678 C120.4514,306.5945 128.5831,306.4349 134.4556,314.356 C140.0318,303.0129 147.8536,303.6604 155.8538,311.6767 C161.614,302.1175 171.3443,304.3661 175.6913,313.2008 C179.598,303.0933 188.5653,303.8514 193.8765,311.7852 C200.4931,303.7166 209.1969,303.478 214.4908,313.3086 C219.0991,304.7793 226.3673,304.3222 232.5502,311.4978 C241.1574,299.9438 247.7951,303.4246 254.8467,313.1292 C260.2904,306.5616 267.7317,305.5353 271.987,314.4453 C278.2719,303.6237 284.9756,304.847 292.3333,313.3136 C298.9012,305.5722 307.1835,305.5951 312.6458,314.6507 C323.0626,316.8595 323.6103,323.2978 318.4669,331.035 C330.7832,332.4128 331.7383,341.9762 325.4985,350.1722 C333.5438,358.4186 330.519,367.6033 318.9599,369.0646 C325.9513,377.1603 322.212,385.7498 312.599,388.3763 C306.7316,396.8968 298.8833,396.7217 292.9725,388.427 C288.9153,400.1478 280.3377,401.187 273.1157,391.3407 C268.105,401.042 262.1762,403.3457 254.415,394.0481 C249.5943,403.4479 242.8952,405.1283 235.4485,396.8684 C229.369,405.8123 219.7072,409.0012 213.4468,397.0589 C207.7844,405.7472 200.7957,405.1421 195.6983,396.4809 C188.4389,406.394 179.5508,402.8274 175.8852,392.8933 C168.5004,401.6217 157.82,400.9793 153.622,389.3996 C148.9489,398.9481 140.9514,399.1997 135.4521,390.2094 C127.7211,398.433 119.8201,396.5446 114.897,386.9671 C105.8963,384.6889 103.1193,376.7377 109.7369,369.7726 C97.6419,367.7766 95.2377,360.1518 102.2057,350.6486 C96.3341,342.1356 97.4949,332.8703 109.8243,331.6598 C104.346,323.7569 105.9673,317.8085 115.878,315.7678 " fill="#1B202A" style="stroke: #3D424E; stroke-width: 2.34375;"/><text fill="#E6E8EC" font-family="Inter, ui-sans-serif, system-ui, -apple-system, sans-serif" font-size="21.875" lengthAdjust="spacingAndGlyphs" textLength="175" x="125" y="343.6691">ordering-service</text><text fill="#E6E8EC" font-family="Inter, ui-sans-serif, system-ui, -apple-system, sans-serif" font-size="21.875" lengthAdjust="spacingAndGlyphs" textLength="134.375" x="145.3125" y="369.133">(deploy unit)</text><path d="M60.9375,509.3018 L60.9375,591.9434 A4.6875,4.6875 0 0 0 65.625,596.6309 L359.375,596.6309 A4.6875,4.6875 0 0 0 364.0625,591.9434 L364.0625,520.2393 L348.4375,504.6143 L218.75,504.6143 L212.5,398.7393 L206.25,504.6143 L65.625,504.6143 A4.6875,4.6875 0 0 0 60.9375,509.3018 " fill="#1B202A" style="stroke: #3D424E; stroke-width: 1.5625;"/><path d="M348.4375,504.6143 L348.4375,517.8955 A2.3438,2.3438 0 0 0 350.7813,520.2393 L364.0625,520.2393 L348.4375,504.6143 " fill="#1B202A" style="stroke: #3D424E; stroke-width: 1.5625;"/><text fill="#A6ADBB" font-family="Inter, ui-sans-serif, system-ui, -apple-system, sans-serif" font-size="21.875" lengthAdjust="spacingAndGlyphs" textLength="214.0625" x="70.3125" y="532.7316">Stream-aligned tým,</text><text fill="#A6ADBB" font-family="Inter, ui-sans-serif, system-ui, -apple-system, sans-serif" font-size="21.875" lengthAdjust="spacingAndGlyphs" textLength="270.3125" x="70.3125" y="558.1955">vlastní DB, vlastní deploy,</text><text fill="#A6ADBB" font-family="Inter, ui-sans-serif, system-ui, -apple-system, sans-serif" font-size="21.875" lengthAdjust="spacingAndGlyphs" textLength="184.375" x="70.3125" y="583.6594">nezávislý scaling.</text><!--MD5=[a17ded76e58ff5c9d7a4ad488c5c56a6]
entity bc2--><rect fill="#F0A456" height="56.7139" rx="4.6875" ry="4.6875" style="stroke: #3D424E; stroke-width: 2.34375;" width="162.5" x="768.75" y="149.9268"/><text fill="#E6E8EC" font-family="Inter, ui-sans-serif, system-ui, -apple-system, sans-serif" font-size="21.875" lengthAdjust="spacingAndGlyphs" textLength="131.25" x="784.375" y="185.8566">Ordering BC</text><!--MD5=[e0a0c5ceb1524386759e528fbc1f0194]
entity svc2a--><path d="M467.0176,325.8857 C473.7065,316.4111 480.8151,317.2115 486.7562,326.6655 C492.9705,317.3695 501.3017,315.4375 508.7258,325.2764 C513.0963,316.4686 522.8189,315.4098 528.8063,323.3362 C535.8315,314.2811 543.0063,314.2867 548.598,324.787 C552.6372,314.2777 559.6531,315.5632 566.2871,322.0932 C573.8681,310.5131 582.5675,310.9555 589.0179,323.1731 C593.7095,314.4825 602.7045,313.8378 607.1179,323.4482 C613.6868,315.102 622.4972,315.5492 627.8499,324.8749 C635.2238,316.5266 642.0878,317.3787 646.2995,327.9573 C651.9831,319.7813 659.9602,318.3921 666.1264,327.4005 C679.7787,330.9461 684.466,341.7451 673.5003,352.5179 C681.2894,362.9876 678.3563,369.876 667.1019,374.9022 C660.6514,384.3483 654.1744,385.2602 646.9692,375.7018 C642.5623,383.9121 632.956,384.703 627.419,377.0989 C622.4313,386.9888 614.5459,388.8115 606.6261,380.4368 C602.8126,389.1364 596.501,392.5025 589.0131,384.2558 C582.9441,393.2787 573.422,392.9781 567.5591,384.0101 C561.8206,395.8802 551.9058,393.0951 545.9409,384.2464 C539.0609,391.5212 533.5848,391.9442 528.8804,382.0807 C520.0708,391.4762 512.8587,392.9618 506.3553,379.7797 C498.2957,389.9572 490.3842,388.607 485.9395,376.4721 C478.642,385.2047 473.4607,381.9679 468.4886,374.0368 C454.2259,372.8048 450.3534,362.2505 459.1491,351.474 C449.7518,341.2016 453.3726,329.0725 467.0176,325.8857 " fill="#1B202A" style="stroke: #3D424E; stroke-width: 2.34375;"/><text fill="#E6E8EC" font-family="Inter, ui-sans-serif, system-ui, -apple-system, sans-serif" font-size="21.875" lengthAdjust="spacingAndGlyphs" textLength="178.125" x="476.5625" y="356.9504">order-create-svc</text><!--MD5=[a430814b661e7d529baf805ed702dd3b]
entity svc2b--><path d="M746.9629,328.8127 C750.8602,319.5696 757.8472,318.2377 764.2381,326.3274 C768.9652,317.8511 775.9017,317.2289 781.6454,325.255 C787.3396,315.2503 794.5216,315.2973 800.4551,325.027 C806.0924,315.6031 811.7791,316.3967 818.266,324.1459 C822.4194,317.0242 827.5361,314.6042 833.6644,322.0598 C838.321,312.92 846.3205,314.5266 851.3862,321.6129 C855.9042,313.5406 864.2687,313.1213 868.9146,321.4765 C874.2593,315.0607 881.6855,313.8875 885.6847,322.9356 C891.4164,316.7515 897.9132,316.2131 901.9995,324.7581 C909.3672,316.4902 915.7083,316.2428 922.4467,325.4928 C926.4583,318.5364 933.9199,317.3857 938.1089,325.3061 C944.3691,317.8378 951.3434,320.2371 955.2493,327.9621 C966.4238,330.2918 970.1679,339.9755 963.9682,349.3784 C975.0554,361.2056 969.8408,369.7615 956.7719,374.7323 C952.4375,385.5756 945.1901,386.2051 937.896,377.6058 C932.5617,385.5873 926.2409,385.6919 921.5574,376.9694 C916.5022,385.5638 908.635,387.8251 902.117,378.5619 C897.7944,384.7781 892.071,384.6132 887.6712,378.6535 C882.6637,388.0476 876.2643,387.0333 870.013,379.9897 C866.4502,389.2592 857.8967,391.5503 851.7502,382.5763 C846.1235,391.2271 838.4731,390.3923 833.0086,382.3937 C827.6114,389.5203 820.668,388.4803 816.5455,380.9608 C810.5461,387.0322 804.5734,386.428 800.6533,378.5858 C794.3123,387.4247 786.1614,388.8228 780.7676,377.6449 C776.2139,384.129 770.6022,384.3624 766.032,377.6633 C758.0131,384.4336 751.1004,382.6919 746.9394,373.1483 C735.2813,369.9615 731.6473,360.8304 740.9567,351.7746 C730.3004,341.8781 733.8896,332.5023 746.9629,328.8127 " fill="#1B202A" style="stroke: #3D424E; stroke-width: 2.34375;"/><text fill="#E6E8EC" font-family="Inter, ui-sans-serif, system-ui, -apple-system, sans-serif" font-size="21.875" lengthAdjust="spacingAndGlyphs" textLength="185.9375" x="757.0313" y="356.9504">order-update-svc</text><!--MD5=[44d6a601cf9f021db21a6f2e13033f7d]
entity svc2c--><path d="M1035.6285,325.8584 C1041.5089,315.2318 1050.3987,316.2823 1056.8298,325.2629 C1063.0713,314.6214 1070.5952,314.9096 1076.6361,325.4504 C1082.4558,316.0833 1090.8491,315.7109 1097.099,324.9779 C1103.7183,313.6463 1111.0104,313.4104 1118.3415,324.2974 C1124.223,312.6701 1130.2681,311.9454 1138.4227,322.2125 C1145.5905,311.9434 1151.4545,313.4961 1157.6772,323.127 C1163.3689,313.3944 1171.3924,314.9195 1177.1385,323.0677 C1184.2992,313.7084 1192.3656,314.2892 1198.6103,324.094 C1206.3663,315.8316 1215.8368,316.5597 1220.3576,327.7169 C1224.9469,315.7783 1234.9086,314.9522 1241.5722,325.7845 C1255.5375,328.1097 1258.6627,338.6088 1250.937,349.4996 C1262.0875,361.9209 1258.081,372.945 1241.5337,375.2532 C1234.6424,386.9947 1226.9342,388.4816 1218.6512,376.6013 C1211.7393,384.3282 1206.0127,383.8561 1199.9505,375.6067 C1193.5092,385.6293 1186.6163,385.8058 1178.305,377.8593 C1173.2193,386.1835 1164.5728,388.2798 1158.9397,378.443 C1154.2886,389.5917 1146.0003,389.5024 1138.8308,381.0231 C1130.2586,389.7334 1123.4538,388.7901 1117.5299,378.1134 C1111.2888,387.8854 1104.1018,388.6338 1096.7837,379.2818 C1089.7741,389.1203 1079.7995,388.3638 1075.3144,376.7547 C1068.518,384.6525 1061.5994,383.0321 1056.456,374.8198 C1051.2564,383.7922 1040.6091,385.8913 1034.7079,375.6124 C1021.1178,369.0686 1018.9044,360.6154 1031.4448,350.6551 C1021.1298,340.1234 1022.8076,332.4868 1035.6285,325.8584 " fill="#1B202A" style="stroke: #3D424E; stroke-width: 2.34375;"/><text fill="#E6E8EC" font-family="Inter, ui-sans-serif, system-ui, -apple-system, sans-serif" font-size="21.875" lengthAdjust="spacingAndGlyphs" textLength="182.8125" x="1044.5313" y="356.9504">order-search-svc</text><path d="M785.9375,496.8018 L785.9375,604.9072 A4.6875,4.6875 0 0 0 790.625,609.5947 L1246.875,609.5947 A4.6875,4.6875 0 0 0 1251.5625,604.9072 L1251.5625,507.7393 L1235.9375,492.1143 L1058.9375,492.1143 L1115.5313,385.2705 L1046.4375,492.1143 L790.625,492.1143 A4.6875,4.6875 0 0 0 785.9375,496.8018 " fill="#1B202A" style="stroke: #3D424E; stroke-width: 1.5625;"/><path d="M1235.9375,492.1143 L1235.9375,505.3955 A2.3438,2.3438 0 0 0 1238.2813,507.7393 L1251.5625,507.7393 L1235.9375,492.1143 " fill="#1B202A" style="stroke: #3D424E; stroke-width: 1.5625;"/><text fill="#A6ADBB" font-family="Inter, ui-sans-serif, system-ui, -apple-system, sans-serif" font-size="21.875" font-weight="bold" lengthAdjust="spacingAndGlyphs" textLength="148.4375" x="795.3125" y="520.2316">Anti-pattern</text><text fill="#A6ADBB" font-family="Inter, ui-sans-serif, system-ui, -apple-system, sans-serif" font-size="21.875" lengthAdjust="spacingAndGlyphs" textLength="351.5625" x="795.3125" y="545.6955">Každý CRUD endpoint = service.</text><text fill="#A6ADBB" font-family="Inter, ui-sans-serif, system-ui, -apple-system, sans-serif" font-size="21.875" lengthAdjust="spacingAndGlyphs" textLength="325" x="795.3125" y="571.1594">Vede k distributed monolithu -</text><text fill="#A6ADBB" font-family="Inter, ui-sans-serif, system-ui, -apple-system, sans-serif" font-size="21.875" lengthAdjust="spacingAndGlyphs" textLength="432.8125" x="795.3125" y="596.6232">sdílená DB, sync calls, společný release.</text><!--MD5=[43e776b24c1826b4177b0cf0ab70cede]
entity bc3a--><rect fill="#161A22" height="56.7139" rx="4.6875" ry="4.6875" style="stroke: #3D424E; stroke-width: 2.34375;" width="162.5" x="1746.875" y="149.9268"/><text fill="#E6E8EC" font-family="Inter, ui-sans-serif, system-ui, -apple-system, sans-serif" font-size="21.875" lengthAdjust="spacingAndGlyphs" textLength="131.25" x="1762.5" y="185.8566">Ordering BC</text><!--MD5=[625c49069747643af3d7296bf3e58fbc]
entity bc3b--><rect fill="#161A22" height="56.7139" rx="4.6875" ry="4.6875" style="stroke: #3D424E; stroke-width: 2.34375;" width="131.25" x="1560.9375" y="149.9268"/><text fill="#E6E8EC" font-family="Inter, ui-sans-serif, system-ui, -apple-system, sans-serif" font-size="21.875" lengthAdjust="spacingAndGlyphs" textLength="100" x="1576.5625" y="185.8566">Billing BC</text><!--MD5=[1e23d2b64e3475edc097a983d2f87a6a]
entity bc3c--><rect fill="#161A22" height="56.7139" rx="4.6875" ry="4.6875" style="stroke: #3D424E; stroke-width: 2.34375;" width="167.1875" x="1338.2813" y="149.9268"/><text fill="#E6E8EC" font-family="Inter, ui-sans-serif, system-ui, -apple-system, sans-serif" font-size="21.875" lengthAdjust="spacingAndGlyphs" textLength="135.9375" x="1353.9063" y="185.8566">Inventory BC</text><!--MD5=[0c7420461c8d48db243e92e36cadfcc0]
entity svc3--><path d="M1477.6816,315.5276 C1481.1943,304.2012 1490.3969,302.8785 1497.2121,312.4398 C1504.6412,300.7034 1512.0949,302.9381 1519.1155,312.8531 C1527.5557,303.5495 1534.0083,304.9064 1540.7841,314.738 C1545.467,303.8397 1555.2189,304.1186 1561.9883,312.4355 C1568.599,302.1987 1577.6146,299.8699 1585.2212,311.3712 C1590.4041,301.5348 1600.5478,302.6764 1605.9581,311.113 C1611.7788,300.2111 1621.4596,301.5779 1627.9049,310.4186 C1636.0248,301.4161 1644.4043,302.3808 1648.9632,314.0468 C1654.9741,301.879 1664.7989,301.4162 1673.9121,310.385 C1682.1946,301.6619 1691.1359,301.2557 1695.5483,314.242 C1699.7909,305.8851 1707.5364,304.3644 1713.7034,312.0665 C1719.6857,302.5046 1729.5831,303.0313 1735.3533,312.3102 C1742.8842,302.0371 1750.0221,303.5781 1756.8411,313.0837 C1764.0144,303.8724 1774.0383,304.9248 1779.8512,314.73 C1798.5884,320.4623 1806.6331,331.8672 1792.277,349.4449 C1810.1028,367.9962 1805.8684,382.6561 1780.9981,389.0474 C1773.6865,399.3895 1763.8293,400.9865 1756.8904,388.6512 C1752.5652,397.449 1744.045,399.5545 1737.2762,391.4942 C1730.4137,404.7004 1722.7306,404.0807 1713.9997,393.308 C1708.3701,403.6627 1700.7834,404.8494 1692.6818,396.0609 C1688.3226,408.2789 1678.8328,408.4884 1670.9896,399.65 C1666.5991,410.7393 1657.806,410.3018 1650.4256,402.9916 C1643.8305,412.3691 1634.6092,412.6807 1629.0798,401.8651 C1622.2848,411.7889 1610.1637,412.6959 1605.0554,400.0683 C1598.1474,407.9546 1591.2748,405.7668 1586.7779,397.363 C1580.8911,408.397 1570.5792,410.5431 1563.668,398.3838 C1555.3826,406.5182 1545.4993,405.6189 1541.188,393.8869 C1534.8008,401.986 1526.8155,403.0001 1522.0864,392.2103 C1514.7447,402.1949 1505.707,401.6344 1499.639,390.8346 C1491.2191,402.4592 1480.6917,399.938 1475.8292,387.3382 C1458.7851,377.4362 1458.7267,362.9209 1473.8509,351.2552 C1460.5955,337.3559 1459.0964,326.013 1477.6816,315.5276 " fill="#1B202A" style="stroke: #3D424E; stroke-width: 2.34375;"/><text fill="#E6E8EC" font-family="Inter, ui-sans-serif, system-ui, -apple-system, sans-serif" font-size="21.875" lengthAdjust="spacingAndGlyphs" textLength="93.75" x="1579.6875" y="343.6691">monolith</text><text fill="#E6E8EC" font-family="Inter, ui-sans-serif, system-ui, -apple-system, sans-serif" font-size="21.875" lengthAdjust="spacingAndGlyphs" textLength="281.25" x="1485.9375" y="369.133">(1 deploy unit, 3 modules)</text><path d="M1451.5625,496.8018 L1451.5625,604.9072 A4.6875,4.6875 0 0 0 1456.25,609.5947 L1796.875,609.5947 A4.6875,4.6875 0 0 0 1801.5625,604.9072 L1801.5625,507.7393 L1785.9375,492.1143 L1632.8125,492.1143 L1626.5625,398.7393 L1620.3125,492.1143 L1456.25,492.1143 A4.6875,4.6875 0 0 0 1451.5625,496.8018 " fill="#1B202A" style="stroke: #3D424E; stroke-width: 1.5625;"/><path d="M1785.9375,492.1143 L1785.9375,505.3955 A2.3438,2.3438 0 0 0 1788.2813,507.7393 L1801.5625,507.7393 L1785.9375,492.1143 " fill="#1B202A" style="stroke: #3D424E; stroke-width: 1.5625;"/><text fill="#A6ADBB" font-family="Inter, ui-sans-serif, system-ui, -apple-system, sans-serif" font-size="21.875" lengthAdjust="spacingAndGlyphs" textLength="317.1875" x="1460.9375" y="520.2316">Architektonicky oddělené BC,</text><text fill="#A6ADBB" font-family="Inter, ui-sans-serif, system-ui, -apple-system, sans-serif" font-size="21.875" lengthAdjust="spacingAndGlyphs" textLength="293.75" x="1460.9375" y="545.6955">nasazované jako 1 artefakt.</text><text fill="#A6ADBB" font-family="Inter, ui-sans-serif, system-ui, -apple-system, sans-serif" font-size="21.875" lengthAdjust="spacingAndGlyphs" textLength="259.375" x="1460.9375" y="571.1594">Vhodné pro malé týmy a</text><text fill="#A6ADBB" font-family="Inter, ui-sans-serif, system-ui, -apple-system, sans-serif" font-size="21.875" lengthAdjust="spacingAndGlyphs" textLength="259.375" x="1460.9375" y="596.6232">počáteční fázi produktu.</text><!--MD5=[a05d1106cd6f18061ef416715eff4aeb]
link bc1 to svc1--><path d="M212.5,206.5986 C212.5,229.4893 212.5,263.0674 212.5,291.708 " fill="none" id="bc1-&gt;svc1" style="stroke: #F0A456; stroke-width: 2.34375;"/><polygon fill="#F0A456" points="212.5,299.6455,218.75,285.583,212.5,291.833,206.25,285.583,212.5,299.6455" style="stroke: #F0A456; stroke-width: 2.34375;"/><!--MD5=[a01ff6f231aef55d3dda871e8aaa2670]
link bc2 to svc2a--><path d="M804.9375,206.2236 C758.1719,233.8486 684.5625,277.333 631.3281,308.7861 " fill="none" id="bc2-&gt;svc2a" style="stroke: #F0A456; stroke-width: 2.34375;"/><polygon fill="#F0A456" points="624.2813,312.9424,639.567,311.164,631.0059,308.9657,633.2043,300.4046,624.2813,312.9424" style="stroke: #F0A456; stroke-width: 2.34375;"/><!--MD5=[9c98c4a3a62d83f0194ead9a10459097]
link bc2 to svc2b--><path d="M850,206.5986 C850,233.1611 850,274.1143 850,305.0674 " fill="none" id="bc2-&gt;svc2b" style="stroke: #F0A456; stroke-width: 2.34375;"/><polygon fill="#F0A456" points="850,313.0986,856.25,299.0361,850,305.2861,843.75,299.0361,850,313.0986" style="stroke: #F0A456; stroke-width: 2.34375;"/><!--MD5=[33f3b41a1f9837130f76e2176172523d]
link bc2 to svc2c--><path d="M895.3125,206.2236 C942.3281,233.8486 1016.3438,277.333 1069.875,308.7861 " fill="none" id="bc2-&gt;svc2c" style="stroke: #F0A456; stroke-width: 2.34375;"/><polygon fill="#F0A456" points="1076.9688,312.9424,1068.0149,300.4266,1070.2343,308.9823,1061.6787,311.2017,1076.9688,312.9424" style="stroke: #F0A456; stroke-width: 2.34375;"/><!--MD5=[228e94177374dbeaeb17f1bcf7b03db8]
link bc3a to svc3--><path d="M1796.1875,206.2236 C1767.75,229.9268 1725.2969,265.3018 1689.9844,294.7236 " fill="none" id="bc3a-&gt;svc3" style="stroke: #F0A456; stroke-width: 2.34375;"/><polygon fill="#F0A456" points="1683.9375,299.7705,1698.7433,295.5747,1689.9411,294.7713,1690.7445,285.969,1683.9375,299.7705" style="stroke: #F0A456; stroke-width: 2.34375;"/><!--MD5=[97d3f16e8ce8e398905c4236630160a8]
link bc3b to svc3--><path d="M1626.5625,206.5986 C1626.5625,229.4893 1626.5625,263.0674 1626.5625,291.708 " fill="none" id="bc3b-&gt;svc3" style="stroke: #F0A456; stroke-width: 2.34375;"/><polygon fill="#F0A456" points="1626.5625,299.6455,1632.8125,285.583,1626.5625,291.833,1620.3125,285.583,1626.5625,299.6455" style="stroke: #F0A456; stroke-width: 2.34375;"/><!--MD5=[4ab3668487008fc5692fc1931ad798b7]
link bc3c to svc3--><path d="M1454.3125,206.2236 C1483.1875,229.9268 1526.2969,265.3018 1562.1563,294.7236 " fill="none" id="bc3c-&gt;svc3" style="stroke: #F0A456; stroke-width: 2.34375;"/><polygon fill="#F0A456" points="1568.2969,299.7705,1561.4041,286.0117,1562.2623,294.8087,1553.4652,295.667,1568.2969,299.7705" style="stroke: #F0A456; stroke-width: 2.34375;"/><!--MD5=[278b5943b707b3a95c0a69ebc3836410]
@startuml bc_to_service
skinparam dpi 150
skinparam backgroundColor #11141A
skinparam shadowing false
skinparam roundCorner 6

skinparam defaultFontName "DejaVu Sans"
skinparam defaultFontSize 14
skinparam defaultFontColor #E6E8EC
skinparam defaultTextAlignment center


skinparam ArrowColor #F0A456
skinparam ArrowFontColor #E6E8EC
skinparam ArrowThickness 1.5

skinparam node {
  BackgroundColor #161A22
  BorderColor #3D424E
  FontColor #E6E8EC
}

skinparam component {
  BackgroundColor #161A22
  BorderColor #3D424E
  FontColor #E6E8EC
}

skinparam rectangle {
  BackgroundColor #161A22
  BorderColor #3D424E
  FontColor #E6E8EC
}

skinparam package {
  BackgroundColor #11141A
  BorderColor #F0A456
  FontColor #F0A456
}

skinparam folder {
  BackgroundColor #161A22
  BorderColor #3D424E
  FontColor #E6E8EC
}

skinparam frame {
  BackgroundColor #161A22
  BorderColor #3D424E
  FontColor #E6E8EC
}

skinparam database {
  BackgroundColor #1B202A
  BorderColor #3D424E
  FontColor #E6E8EC
}

skinparam queue {
  BackgroundColor #1B202A
  BorderColor #3D424E
  FontColor #E6E8EC
}

skinparam cloud {
  BackgroundColor #1B202A
  BorderColor #3D424E
  FontColor #E6E8EC
}

skinparam actor {
  BackgroundColor #161A22
  BorderColor #F0A456
  FontColor #E6E8EC
}

skinparam usecase {
  BackgroundColor #161A22
  BorderColor #3D424E
  FontColor #E6E8EC
}

skinparam class {
  BackgroundColor #161A22
  BorderColor #3D424E
  HeaderBackgroundColor #1B202A
  ArrowColor #F0A456
  FontColor #E6E8EC
  AttributeFontColor #A6ADBB
  StereotypeFontColor #F0A456
}

skinparam object {
  BackgroundColor #161A22
  BorderColor #3D424E
  FontColor #E6E8EC
}

skinparam sequence {
  ParticipantBackgroundColor #161A22
  ParticipantBorderColor #3D424E
  ParticipantFontColor #E6E8EC
  ActorBackgroundColor #161A22
  ActorBorderColor #F0A456
  ActorFontColor #E6E8EC
  LifeLineBorderColor #3D424E
  LifeLineBackgroundColor #1B202A
  ArrowColor #F0A456
  ArrowFontColor #E6E8EC
  GroupBackgroundColor #1B202A
  GroupBorderColor #3D424E
  GroupFontColor #A6ADBB
  GroupHeaderFontColor #F0A456
  BoxBackgroundColor #11141A
  BoxBorderColor #F0A456
  BoxFontColor #F0A456
  DividerBackgroundColor #1B202A
  DividerBorderColor #3D424E
  DividerFontColor #A6ADBB
  ReferenceBackgroundColor #161A22
  ReferenceBorderColor #3D424E
  ReferenceFontColor #E6E8EC
  ReferenceHeaderBackgroundColor #1B202A
  StereotypeFontColor #F0A456
}

skinparam state {
  BackgroundColor #161A22
  BorderColor #3D424E
  FontColor #E6E8EC
  StartColor #F0A456
  EndColor #F0A456
  ArrowColor #F0A456
  AttributeFontColor #A6ADBB
}

skinparam activity {
  BackgroundColor #161A22
  BorderColor #3D424E
  FontColor #E6E8EC
  ArrowColor #F0A456
  StartColor #F0A456
  EndColor #F0A456
  BarColor #F0A456
  DiamondBackgroundColor #1B202A
  DiamondBorderColor #3D424E
  DiamondFontColor #E6E8EC
}

skinparam note {
  BackgroundColor #1B202A
  BorderColor #3D424E
  FontColor #A6ADBB
}

skinparam title {
  FontColor #E6E8EC
  FontSize 18
}

skinparam legend {
  BackgroundColor #161A22
  BorderColor #3D424E
  FontColor #A6ADBB
}

skinparam caption {
  FontColor #A6ADBB
}

skinparam stereotype {
  CBackgroundColor #1B202A
  CBorderColor #F0A456
  ABackgroundColor #1B202A
  ABorderColor #F0A456
  IBackgroundColor #1B202A
  IBorderColor #F0A456
  EBackgroundColor #1B202A
  EBorderColor #F0A456
}

title 3 mapování BC ↔ Service: kdy které dává smysl

package "Scénář 1: 1 BC = 1 service\n(čistá microservice)" as p1 {
    rectangle "Ordering BC" as bc1 #F0A456
    cloud "ordering-service\n(deploy unit)" as svc1
    bc1 -down-> svc1
    note bottom of svc1
      Stream-aligned tým,
      vlastní DB, vlastní deploy,
      nezávislý scaling.
    end note
}

package "Scénář 2: 1 BC = N services\n(přehnané dělení)" as p2 {
    rectangle "Ordering BC" as bc2 #F0A456
    cloud "order-create-svc" as svc2a
    cloud "order-update-svc" as svc2b
    cloud "order-search-svc" as svc2c
    bc2 -down-> svc2a
    bc2 -down-> svc2b
    bc2 -down-> svc2c
    note bottom of svc2c
      <b>Anti-pattern</b>
      Každý CRUD endpoint = service.
      Vede k distributed monolithu -
      sdílená DB, sync calls, společný release.
    end note
}

package "Scénář 3: N BC = 1 service\n(modular monolith)" as p3 {
    rectangle "Ordering BC" as bc3a
    rectangle "Billing BC" as bc3b
    rectangle "Inventory BC" as bc3c
    cloud "monolith\n(1 deploy unit, 3 modules)" as svc3
    bc3a -down-> svc3
    bc3b -down-> svc3
    bc3c -down-> svc3
    note bottom of svc3
      Architektonicky oddělené BC,
      nasazované jako 1 artefakt.
      Vhodné pro malé týmy a
      počáteční fázi produktu.
    end note
}

@enduml

PlantUML version 1.2020.02(Sun Mar 01 11:22:07 CET 2020)
(GPL source distribution)
Java Runtime: OpenJDK Runtime Environment
JVM: OpenJDK 64-Bit Server VM
Java Version: 21.0.10+7-Debian-1deb13u1
Operating System: Linux
Default Encoding: UTF-8
Language: cs
Country: CZ
--></g></svg>