<svg xmlns="http://www.w3.org/2000/svg" xmlns:xlink="http://www.w3.org/1999/xlink" contentStyleType="text/css" data-diagram-type="CLASS" height="1178.125px" preserveAspectRatio="none" style="width:812px;height:1178px;background:#FAFAFA;" version="1.1" viewBox="0 0 812 1178" width="812.5px" zoomAndPan="magnify"><defs/><g><rect fill="#FAFAFA" height="1178.125" style="stroke:none;stroke-width:1.5625;" width="812.5" x="0" y="0"/><!--cluster Prezenta?n? vrstva--><g class="cluster" data-entity="Prezenta&#269;n&#237; vrstva" data-source-line="61" data-uid="ent0002" id="cluster_Prezenta&#269;n&#237; vrstva"><path d="M369.5313,9.9365 L601.6113,9.9365 A5.8594,5.8594 0 0 1 605.5176,13.8428 L616.4551,49.5605 L671.0938,49.5605 A3.9063,3.9063 0 0 1 675,53.4668 L675,151.3428 A3.9063,3.9063 0 0 1 671.0938,155.249 L369.5313,155.249 A3.9063,3.9063 0 0 1 365.625,151.3428 L365.625,13.8428 A3.9063,3.9063 0 0 1 369.5313,9.9365" fill="#FAFAFA" style="stroke:#005A9C;stroke-width:2.3438;"/><line style="stroke:#005A9C;stroke-width:2.3438;" x1="365.625" x2="616.4551" y1="49.5605" y2="49.5605"/><text fill="#000000" font-family="Nunito" font-size="25" font-weight="bold" lengthAdjust="spacing" textLength="230.5176" x="371.875" y="37.2803">Prezenta&#269;n&#237; vrstva</text></g><!--cluster Aplika?n? vrstva--><g class="cluster" data-entity="Aplika&#269;n&#237; vrstva" data-source-line="67" data-uid="ent0004" id="cluster_Aplika&#269;n&#237; vrstva"><path d="M369.5313,192.749 L568.8843,192.749 A5.8594,5.8594 0 0 1 572.7905,196.6553 L583.728,232.373 L671.0938,232.373 A3.9063,3.9063 0 0 1 675,236.2793 L675,488.8428 A3.9063,3.9063 0 0 1 671.0938,492.749 L369.5313,492.749 A3.9063,3.9063 0 0 1 365.625,488.8428 L365.625,196.6553 A3.9063,3.9063 0 0 1 369.5313,192.749" fill="#FAFAFA" style="stroke:#005A9C;stroke-width:2.3438;"/><line style="stroke:#005A9C;stroke-width:2.3438;" x1="365.625" x2="583.728" y1="232.373" y2="232.373"/><text fill="#000000" font-family="Nunito" font-size="25" font-weight="bold" lengthAdjust="spacing" textLength="197.7905" x="371.875" y="220.0928">Aplika&#269;n&#237; vrstva</text></g><!--cluster Dom?nov? vrstva--><g class="cluster" data-entity="Dom&#233;nov&#225; vrstva" data-source-line="76" data-uid="ent0007" id="cluster_Dom&#233;nov&#225; vrstva"><path d="M94.5313,530.249 L311.3403,530.249 A5.8594,5.8594 0 0 1 315.2466,534.1553 L326.1841,569.873 L797.6563,569.873 A3.9063,3.9063 0 0 1 801.5625,573.7793 L801.5625,826.3428 A3.9063,3.9063 0 0 1 797.6563,830.249 L94.5313,830.249 A3.9063,3.9063 0 0 1 90.625,826.3428 L90.625,534.1553 A3.9063,3.9063 0 0 1 94.5313,530.249" fill="#FAFAFA" style="stroke:#005A9C;stroke-width:2.3438;"/><line style="stroke:#005A9C;stroke-width:2.3438;" x1="90.625" x2="326.1841" y1="569.873" y2="569.873"/><text fill="#000000" font-family="Nunito" font-size="25" font-weight="bold" lengthAdjust="spacing" textLength="215.2466" x="96.875" y="557.5928">Dom&#233;nov&#225; vrstva</text></g><!--cluster Infrastrukturn? vrstva--><g class="cluster" data-entity="Infrastrukturn&#237; vrstva" data-source-line="94" data-uid="ent0013" id="cluster_Infrastrukturn&#237; vrstva"><path d="M13.2813,867.749 L276.4648,867.749 A5.8594,5.8594 0 0 1 280.3711,871.6553 L291.3086,907.373 L489.8438,907.373 A3.9063,3.9063 0 0 1 493.75,911.2793 L493.75,1163.8428 A3.9063,3.9063 0 0 1 489.8438,1167.749 L13.2813,1167.749 A3.9063,3.9063 0 0 1 9.375,1163.8428 L9.375,871.6553 A3.9063,3.9063 0 0 1 13.2813,867.749" fill="#FAFAFA" style="stroke:#005A9C;stroke-width:2.3438;"/><line style="stroke:#005A9C;stroke-width:2.3438;" x1="9.375" x2="291.3086" y1="907.373" y2="907.373"/><text fill="#000000" font-family="Nunito" font-size="25" font-weight="bold" lengthAdjust="spacing" textLength="261.6211" x="15.625" y="895.0928">Infrastrukturn&#237; vrstva</text></g><!--entity UI--><g class="entity" data-entity="UI" data-source-line="63" data-uid="ent0003" id="entity_UI"><rect fill="#FFFFFF" height="61.499" rx="3.9063" ry="3.9063" style="stroke:#005A9C;stroke-width:3.125;" width="259.3384" x="390.625" y="69.3115"/><text fill="#000000" font-family="Nunito" font-size="25" lengthAdjust="spacing" textLength="228.0884" x="406.25" y="109.1553">UI / API / Controller</text></g><!--entity Application--><g class="entity" data-entity="Application" data-source-line="69" data-uid="ent0005" id="entity_Application"><rect fill="#FFFFFF" height="61.499" rx="3.9063" ry="3.9063" style="stroke:#005A9C;stroke-width:3.125;" width="259.5581" x="390.625" y="252.124"/><text fill="#000000" font-family="Nunito" font-size="25" lengthAdjust="spacing" textLength="228.3081" x="406.25" y="291.9678">Application Service</text></g><!--entity UseCase--><g class="entity" data-entity="UseCase" data-source-line="72" data-uid="ent0006" id="entity_UseCase"><rect fill="#FFFFFF" height="61.499" rx="3.9063" ry="3.9063" style="stroke:#005A9C;stroke-width:3.125;" width="157.9224" x="441.4063" y="406.8115"/><text fill="#000000" font-family="Nunito" font-size="25" lengthAdjust="spacing" textLength="126.6724" x="457.0313" y="446.6553">Use Cases</text></g><!--entity DomainService--><g class="entity" data-entity="DomainService" data-source-line="78" data-uid="ent0008" id="entity_DomainService"><rect fill="#FFFFFF" height="61.499" rx="3.9063" ry="3.9063" style="stroke:#005A9C;stroke-width:3.125;" width="217.0654" x="558.5938" y="589.624"/><text fill="#000000" font-family="Nunito" font-size="25" lengthAdjust="spacing" textLength="185.8154" x="574.2188" y="629.4678">Domain Service</text></g><!--entity Entity--><g class="entity" data-entity="Entity" data-source-line="81" data-uid="ent0009" id="entity_Entity"><rect fill="#FFFFFF" height="61.499" rx="3.9063" ry="3.9063" style="stroke:#005A9C;stroke-width:3.125;" width="97.5098" x="679.6875" y="744.3115"/><text fill="#000000" font-family="Nunito" font-size="25" lengthAdjust="spacing" textLength="66.2598" x="695.3125" y="784.1553">Entity</text></g><!--entity VO--><g class="entity" data-entity="VO" data-source-line="84" data-uid="ent0010" id="entity_VO"><rect fill="#FFFFFF" height="61.499" rx="3.9063" ry="3.9063" style="stroke:#005A9C;stroke-width:3.125;" width="182.4951" x="441.4063" y="744.3115"/><text fill="#000000" font-family="Nunito" font-size="25" lengthAdjust="spacing" textLength="151.2451" x="457.0313" y="784.1553">Value Object</text></g><!--entity AR--><g class="entity" data-entity="AR" data-source-line="87" data-uid="ent0011" id="entity_AR"><rect fill="#FFFFFF" height="61.499" rx="3.9063" ry="3.9063" style="stroke:#005A9C;stroke-width:3.125;" width="216.5527" x="286.7188" y="589.624"/><text fill="#000000" font-family="Nunito" font-size="25" lengthAdjust="spacing" textLength="185.3027" x="302.3438" y="629.4678">Aggregate Root</text></g><!--entity Repository--><g class="entity" data-entity="Repository" data-source-line="90" data-uid="ent0012" id="entity_Repository"><rect fill="#FFFFFF" height="61.499" rx="3.9063" ry="3.9063" style="stroke:#005A9C;stroke-width:3.125;" width="270.9229" x="116.4063" y="744.3115"/><text fill="#000000" font-family="Nunito" font-size="25" lengthAdjust="spacing" textLength="239.6729" x="132.0313" y="784.1553">Repository Nunitoface</text></g><!--entity RepoImpl--><g class="entity" data-entity="RepoImpl" data-source-line="96" data-uid="ent0014" id="entity_RepoImpl"><rect fill="#FFFFFF" height="61.499" rx="3.9063" ry="3.9063" style="stroke:#005A9C;stroke-width:3.125;" width="347.1313" x="78.125" y="927.124"/><text fill="#000000" font-family="Nunito" font-size="25" lengthAdjust="spacing" textLength="315.8813" x="93.75" y="966.9678">Repository Implementation</text></g><!--entity DB--><g class="entity" data-entity="DB" data-source-line="99" data-uid="ent0015" id="entity_DB"><rect fill="#FFFFFF" height="61.499" rx="3.9063" ry="3.9063" style="stroke:#005A9C;stroke-width:3.125;" width="142.6636" x="35.1563" y="1081.8115"/><text fill="#000000" font-family="Nunito" font-size="25" lengthAdjust="spacing" textLength="111.4136" x="50.7813" y="1121.6553">Database</text></g><!--entity External--><g class="entity" data-entity="External" data-source-line="102" data-uid="ent0016" id="entity_External"><rect fill="#FFFFFF" height="61.499" rx="3.9063" ry="3.9063" style="stroke:#005A9C;stroke-width:3.125;" width="236.1694" x="232.0313" y="1081.8115"/><text fill="#000000" font-family="Nunito" font-size="25" lengthAdjust="spacing" textLength="204.9194" x="247.6563" y="1121.6553">External Services</text></g><!--link UI to Application--><g class="link" data-entity-1="UI" data-entity-2="Application" data-source-line="106" data-uid="lnk17" id="link_UI_Application"><path codeLine="106" d="M520.3125,130.6084 C520.3125,164.0303 520.3125,208.9834 520.3125,242.4053" fill="none" id="UI-to-Application" style="stroke:#005A9C;stroke-width:3.125;"/><polygon fill="#005A9C" points="520.3125,251.7803,526.5625,237.7178,520.3125,243.9678,514.0625,237.7178,520.3125,251.7803" style="stroke:#005A9C;stroke-width:3.125;"/></g><!--link Application to UseCase--><g class="link" data-entity-1="Application" data-entity-2="UseCase" data-source-line="107" data-uid="lnk18" id="link_Application_UseCase"><path codeLine="107" d="M520.3125,313.374 C520.3125,340.2178 520.3125,370.4053 520.3125,397.2021" fill="none" id="Application-to-UseCase" style="stroke:#005A9C;stroke-width:3.125;"/><polygon fill="#005A9C" points="520.3125,406.5771,526.5625,392.5146,520.3125,398.7646,514.0625,392.5146,520.3125,406.5771" style="stroke:#005A9C;stroke-width:3.125;"/></g><!--link UseCase to DomainService--><g class="link" data-entity-1="UseCase" data-entity-2="DomainService" data-source-line="108" data-uid="lnk19" id="link_UseCase_DomainService"><path codeLine="108" d="M544.2344,468.1084 C571.5469,501.5303 610.0384,548.5974 637.3353,582.0193" fill="none" id="UseCase-to-DomainService" style="stroke:#005A9C;stroke-width:3.125;"/><polygon fill="#005A9C" points="643.2656,589.2803,639.2108,574.4352,638.3237,583.2294,629.5295,582.3423,643.2656,589.2803" style="stroke:#005A9C;stroke-width:3.125;"/></g><!--link UseCase to AR--><g class="link" data-entity-1="UseCase" data-entity-2="AR" data-source-line="109" data-uid="lnk20" id="link_UseCase_AR"><path codeLine="109" d="M499.9531,468.1084 C476.7031,501.5303 444.2576,548.1607 421.0232,581.5826" fill="none" id="UseCase-to-AR" style="stroke:#005A9C;stroke-width:3.125;"/><polygon fill="#005A9C" points="415.6719,589.2803,428.8306,581.3013,420.1313,582.8655,418.567,574.1662,415.6719,589.2803" style="stroke:#005A9C;stroke-width:3.125;"/></g><!--link DomainService to Entity--><g class="link" data-entity-1="DomainService" data-entity-2="Entity" data-source-line="110" data-uid="lnk21" id="link_DomainService_Entity"><path codeLine="110" d="M678.9375,650.874 C689.7344,677.7178 702.1257,708.5828 712.907,735.3797" fill="none" id="DomainService-to-Entity" style="stroke:#005A9C;stroke-width:3.125;"/><polygon fill="#005A9C" points="716.4063,744.0771,716.9557,728.6981,713.4902,736.8293,705.359,733.3638,716.4063,744.0771" style="stroke:#005A9C;stroke-width:3.125;"/></g><!--link DomainService to VO--><g class="link" data-entity-1="DomainService" data-entity-2="VO" data-source-line="111" data-uid="lnk22" id="link_DomainService_VO"><path codeLine="111" d="M641.2813,650.874 C617.4844,677.7178 588.6268,710.2663 564.8612,737.0632" fill="none" id="DomainService-to-VO" style="stroke:#005A9C;stroke-width:3.125;"/><polygon fill="#005A9C" points="558.6406,744.0771,572.6474,737.7032,563.8244,738.2322,563.2955,729.4092,558.6406,744.0771" style="stroke:#005A9C;stroke-width:3.125;"/></g><!--link AR to Entity--><g class="link" data-entity-1="AR" data-entity-2="Entity" data-source-line="112" data-uid="lnk23" id="link_AR_Entity"><path codeLine="112" d="M459.0938,650.7021 C523.4531,680.0146 612.8902,720.7381 671.1402,747.2693" fill="none" id="AR-to-Entity" style="stroke:#005A9C;stroke-width:3.125;"/><polygon fill="#005A9C" points="679.6719,751.1553,669.465,739.6385,672.5621,747.917,664.2837,751.0141,679.6719,751.1553" style="stroke:#005A9C;stroke-width:3.125;"/></g><!--link AR to VO--><g class="link" data-entity-1="AR" data-entity-2="VO" data-source-line="113" data-uid="lnk24" id="link_AR_VO"><path codeLine="113" d="M421.8281,650.874 C446.1719,677.7178 475.763,710.3371 500.0755,737.134" fill="none" id="AR-to-VO" style="stroke:#005A9C;stroke-width:3.125;"/><polygon fill="#005A9C" points="506.375,744.0771,501.5546,729.4628,501.1255,738.2912,492.297,737.862,506.375,744.0771" style="stroke:#005A9C;stroke-width:3.125;"/></g><!--link AR to Repository--><g class="link" data-entity-1="AR" data-entity-2="Repository" data-source-line="114" data-uid="lnk25" id="link_AR_Repository"><path codeLine="114" d="M367.5938,650.874 C342.1406,677.7178 311.0794,710.4809 285.6419,737.2778" fill="none" id="AR-to-Repository" style="stroke:#005A9C;stroke-width:3.125;"/><polygon fill="#005A9C" points="279.1875,744.0771,293.402,738.1811,284.5662,738.411,284.3362,729.5752,279.1875,744.0771" style="stroke:#005A9C;stroke-width:3.125;"/></g><!--link Repository to RepoImpl--><g class="link" data-entity-1="Repository" data-entity-2="RepoImpl" data-source-line="115" data-uid="lnk26" id="link_Repository_RepoImpl"><path codeLine="115" d="M251.5625,805.6084 C251.5625,839.0303 251.5625,883.9834 251.5625,917.4053" fill="none" id="Repository-to-RepoImpl" style="stroke:#005A9C;stroke-width:3.125;"/><polygon fill="#005A9C" points="251.5625,926.7803,257.8125,912.7178,251.5625,918.9678,245.3125,912.7178,251.5625,926.7803" style="stroke:#005A9C;stroke-width:3.125;"/></g><!--link RepoImpl to DB--><g class="link" data-entity-1="RepoImpl" data-entity-2="DB" data-source-line="116" data-uid="lnk27" id="link_RepoImpl_DB"><path codeLine="116" d="M223.5469,988.374 C197.8125,1015.2178 166.3802,1048.0145 140.6771,1074.8114" fill="none" id="RepoImpl-to-DB" style="stroke:#005A9C;stroke-width:3.125;"/><polygon fill="#005A9C" points="134.1875,1081.5771,148.4324,1075.7549,139.5955,1075.939,139.4114,1067.1021,134.1875,1081.5771" style="stroke:#005A9C;stroke-width:3.125;"/></g><!--link RepoImpl to External--><g class="link" data-entity-1="RepoImpl" data-entity-2="External" data-source-line="117" data-uid="lnk28" id="link_RepoImpl_External"><path codeLine="117" d="M270.5469,988.374 C287.9688,1015.2178 308.565,1046.9183 325.9713,1073.7152" fill="none" id="RepoImpl-to-External" style="stroke:#005A9C;stroke-width:3.125;"/><polygon fill="#005A9C" points="331.0781,1081.5771,328.6592,1066.3796,326.8224,1075.0255,318.1765,1073.1887,331.0781,1081.5771" style="stroke:#005A9C;stroke-width:3.125;"/></g><!--SRC=[jLHBRjim4Dth58Ixw2geKo01kYaWEtPXm8WDnyscw68iZHLMqb0bAUTJz0WzH9TTz1JkmKhg5ygocY90BC3GVFJcpRmXLSmf0maf2pFEJi-6dcey6mZYI8gSmh58X6Ilfhvzd0nr0w6uvHInBIGAFISKuXRoH4y5wKj8aGrcf54EZcTSyGTaf-VTu1hlj9_mY58apGAq66uL4Y6oRnvZemxNucSZGeOeA-zmUEQ_6pVUzGqFOaAbs5llkuiRY3GJP6k-0BZ4G0D5oOim1od5RVkRWw3xgHiBDDznVVyCKYq22h_cI47Pt1AavW7FWFJnRkPyYtDE-4JqaCxaV3eqczWkqCEvnIupIH3rJRxSx_zeaeJkmMYOFOcXkNxM2XYGrsmfXPbql4FwyuFslrd88JAWzqU4y0z5xqbfL_7gIGsM4X_CIO2oq4uglOD1mNir6Q_zom_p2ViuOv-CWzcNDynVsl-nETXI98aviOnzjhGRI3zBUFnFG3ypAG5eBgX2TZrNA7Sym0AtHKFX61JMNCoRDLMd_eL8zxz8xFO_UygR1E1KbQdWIbzlxGbfUthAtDBev5mlglWr93conUQBkGewMVwgRZcA94PWLcqbH3TlXPbGN0jPLtKSnMsxXOgds_kCjXAKbdciSzalWCMQfLbo1DfuqTx7XHOTLXUZUbwWOMF6tvtKdU56K4CtPZNPHYwpIoSdxrtXFNS9RAmItAk5jxwMTgs8l_BQmbfd9LKtSBtmZ19EIcKz-X-7uZdpgIDsJbupneBPg6tNdVy5]--></g></svg>