<?xml version="1.0" encoding="UTF-8" standalone="no"?><svg xmlns="http://www.w3.org/2000/svg" xmlns:xlink="http://www.w3.org/1999/xlink" contentScriptType="application/ecmascript" contentStyleType="text/css" height="1017.1875px" preserveAspectRatio="none" style="width:3140px;height:1017px;background:#11141A;" version="1.1" viewBox="0 0 3140 1017" width="3140.625px" zoomAndPan="magnify"><defs/><g><text fill="#E6E8EC" font-family="DejaVu Sans" font-size="28.125" lengthAdjust="spacingAndGlyphs" textLength="518.75" x="1316.4063" y="26.1063">Kde končí DDD a kde začíná Symfony</text><!--MD5=[0a4f868f894bfdcba817db7f9f85aa6b]
cluster DDD--><path d="M733.5938,82.7393 L1332.0313,82.7393 A7.0313,7.0313 0 0 1 1336.7188,87.4268 L1347.6563,117.5781 L1988.2813,117.5781 A4.6875,4.6875 0 0 1 1992.9688,122.2656 L1992.9688,474.9268 A4.6875,4.6875 0 0 1 1988.2813,479.6143 L733.5938,479.6143 A4.6875,4.6875 0 0 1 728.9063,474.9268 L728.9063,87.4268 A4.6875,4.6875 0 0 1 733.5938,82.7393 " fill="#11141A" style="stroke: #F0A456; stroke-width: 2.34375;"/><line style="stroke: #F0A456; stroke-width: 2.34375;" x1="728.9063" x2="1347.6563" y1="117.5781" y2="117.5781"/><text fill="#F0A456" font-family="DejaVu Sans" font-size="21.875" font-weight="bold" lengthAdjust="spacingAndGlyphs" textLength="598.4375" x="735.1563" y="106.1691">DDD - čistý PHP, žádné závislosti na frameworku</text><!--MD5=[037bde4dfa688ba7978581e2779ab6c0]
cluster SYM--><path d="M199.2188,582.7393 L686.7188,582.7393 A7.0313,7.0313 0 0 1 691.4063,587.4268 L702.3438,617.5781 L2910.1563,617.5781 A4.6875,4.6875 0 0 1 2914.8438,622.2656 L2914.8438,790.5518 A4.6875,4.6875 0 0 1 2910.1563,795.2393 L199.2188,795.2393 A4.6875,4.6875 0 0 1 194.5313,790.5518 L194.5313,587.4268 A4.6875,4.6875 0 0 1 199.2188,582.7393 " fill="#11141A" style="stroke: #F0A456; stroke-width: 2.34375;"/><line style="stroke: #F0A456; stroke-width: 2.34375;" x1="194.5313" x2="702.3438" y1="617.5781" y2="617.5781"/><text fill="#F0A456" font-family="DejaVu Sans" font-size="21.875" font-weight="bold" lengthAdjust="spacingAndGlyphs" textLength="487.5" x="200.7813" y="606.1691">Symfony - frameworková infrastruktura</text><!--MD5=[fbcd1a1664252f7f7ddf883fed3c1e0a]
entity entity--><rect fill="#161A22" height="82.1777" rx="4.6875" ry="4.6875" style="stroke: #3D424E; stroke-width: 2.34375;" width="154.6875" x="767.1875" y="359.3018"/><text fill="#E6E8EC" font-family="DejaVu Sans" font-size="21.875" font-weight="bold" lengthAdjust="spacingAndGlyphs" textLength="68.75" x="810.1563" y="395.2316">Entity</text><text fill="#E6E8EC" font-family="DejaVu Sans" font-size="21.875" lengthAdjust="spacingAndGlyphs" textLength="123.4375" x="782.8125" y="420.6955">User, Order</text><!--MD5=[bcff48f07936c9f2a6ea225d76d1dfcd]
entity vo--><rect fill="#161A22" height="82.1777" rx="4.6875" ry="4.6875" style="stroke: #3D424E; stroke-width: 2.34375;" width="264.0625" x="1590.625" y="359.3018"/><text fill="#E6E8EC" font-family="DejaVu Sans" font-size="21.875" font-weight="bold" lengthAdjust="spacingAndGlyphs" textLength="156.25" x="1644.5313" y="395.2316">Value Object</text><text fill="#E6E8EC" font-family="DejaVu Sans" font-size="21.875" lengthAdjust="spacingAndGlyphs" textLength="232.8125" x="1606.25" y="420.6955">Email, Money, OrderId</text><!--MD5=[b0fd78db2cca6e3dc4cfcb6fdc4395ed]
entity agg--><rect fill="#161A22" height="82.1777" rx="4.6875" ry="4.6875" style="stroke: #3D424E; stroke-width: 2.34375;" width="345.3125" x="765.625" y="149.9268"/><text fill="#E6E8EC" font-family="DejaVu Sans" font-size="21.875" font-weight="bold" lengthAdjust="spacingAndGlyphs" textLength="193.75" x="841.4063" y="185.8566">Aggregate Root</text><text fill="#E6E8EC" font-family="DejaVu Sans" font-size="21.875" lengthAdjust="spacingAndGlyphs" textLength="314.0625" x="781.25" y="211.3205">invarianty, doménová pravidla</text><!--MD5=[3158f9966ed01317d9e0f28e57cb2143]
entity event--><rect fill="#161A22" height="82.1777" rx="4.6875" ry="4.6875" style="stroke: #3D424E; stroke-width: 2.34375;" width="345.3125" x="1234.375" y="149.9268"/><text fill="#E6E8EC" font-family="DejaVu Sans" font-size="21.875" font-weight="bold" lengthAdjust="spacingAndGlyphs" textLength="167.1875" x="1323.4375" y="185.8566">Domain Event</text><text fill="#E6E8EC" font-family="DejaVu Sans" font-size="21.875" lengthAdjust="spacingAndGlyphs" textLength="314.0625" x="1250" y="211.3205">UserRegistered, OrderPlaced</text><!--MD5=[adbf66eb055218095d1101372019d7b7]
entity repo_if--><rect fill="#161A22" height="82.1777" rx="4.6875" ry="4.6875" style="stroke: #3D424E; stroke-width: 2.34375;" width="290.625" x="1635.1563" y="149.9268"/><text fill="#E6E8EC" font-family="DejaVu Sans" font-size="21.875" font-weight="bold" lengthAdjust="spacingAndGlyphs" textLength="251.5625" x="1654.6875" y="185.8566">Repository interface</text><text fill="#E6E8EC" font-family="DejaVu Sans" font-size="21.875" lengthAdjust="spacingAndGlyphs" textLength="259.375" x="1650.7813" y="211.3205">UserRepositoryInterface</text><!--MD5=[778a683abf5da27e01d22b4242d6f006]
entity dsvc--><rect fill="#161A22" height="82.1777" rx="4.6875" ry="4.6875" style="stroke: #3D424E; stroke-width: 2.34375;" width="221.875" x="1313.2813" y="359.3018"/><text fill="#E6E8EC" font-family="DejaVu Sans" font-size="21.875" font-weight="bold" lengthAdjust="spacingAndGlyphs" textLength="190.625" x="1328.9063" y="395.2316">Domain Service</text><text fill="#E6E8EC" font-family="DejaVu Sans" font-size="21.875" lengthAdjust="spacingAndGlyphs" textLength="171.875" x="1338.2813" y="420.6955">PaymentService</text><!--MD5=[e1cc7f8be10205d51d3ab67704036bde]
entity spec--><rect fill="#161A22" height="82.1777" rx="4.6875" ry="4.6875" style="stroke: #3D424E; stroke-width: 2.34375;" width="281.25" x="977.3438" y="359.3018"/><text fill="#E6E8EC" font-family="DejaVu Sans" font-size="21.875" font-weight="bold" lengthAdjust="spacingAndGlyphs" textLength="157.8125" x="1039.0625" y="395.2316">Specification</text><text fill="#E6E8EC" font-family="DejaVu Sans" font-size="21.875" lengthAdjust="spacingAndGlyphs" textLength="250" x="992.9688" y="420.6955">ActiveUserSpecification</text><!--MD5=[e67e044f507d7dfb900bd8a59b666cd8]
entity repo_impl--><rect fill="#161A22" height="107.6416" rx="4.6875" ry="4.6875" style="stroke: #3D424E; stroke-width: 2.34375;" width="443.75" x="2044.5313" y="649.9268"/><text fill="#E6E8EC" font-family="DejaVu Sans" font-size="21.875" font-weight="bold" lengthAdjust="spacingAndGlyphs" textLength="245.3125" x="2143.75" y="685.8566">Doctrine Repository</text><text fill="#E6E8EC" font-family="DejaVu Sans" font-size="21.875" lengthAdjust="spacingAndGlyphs" textLength="257.8125" x="2137.5" y="711.3205">DoctrineUserRepository</text><text fill="#E6E8EC" font-family="DejaVu Sans" font-size="21.875" lengthAdjust="spacingAndGlyphs" textLength="412.5" x="2060.1563" y="736.7844">implementuje UserRepositoryInterface</text><!--MD5=[afe45a2ff804174a830a79062b61aa55]
entity mapping--><rect fill="#161A22" height="82.1777" rx="4.6875" ry="4.6875" style="stroke: #3D424E; stroke-width: 2.34375;" width="309.375" x="261.7188" y="662.4268"/><text fill="#E6E8EC" font-family="DejaVu Sans" font-size="21.875" font-weight="bold" lengthAdjust="spacingAndGlyphs" textLength="278.125" x="277.3438" y="698.3566">Doctrine ORM Mapping</text><text fill="#E6E8EC" font-family="DejaVu Sans" font-size="21.875" lengthAdjust="spacingAndGlyphs" textLength="143.75" x="344.5313" y="723.8205">XML / atributy</text><!--MD5=[d5fce3942b2018efe1c1317a47a5b2cf]
entity messenger--><rect fill="#161A22" height="107.6416" rx="4.6875" ry="4.6875" style="stroke: #3D424E; stroke-width: 2.34375;" width="303.125" x="1272.6563" y="649.9268"/><text fill="#E6E8EC" font-family="DejaVu Sans" font-size="21.875" font-weight="bold" lengthAdjust="spacingAndGlyphs" textLength="137.5" x="1355.4688" y="685.8566">Messenger</text><text fill="#E6E8EC" font-family="DejaVu Sans" font-size="21.875" lengthAdjust="spacingAndGlyphs" textLength="271.875" x="1288.2813" y="711.3205">CommandBus, QueryBus</text><text fill="#E6E8EC" font-family="DejaVu Sans" font-size="21.875" lengthAdjust="spacingAndGlyphs" textLength="87.5" x="1380.4688" y="736.7844">Handleři</text><!--MD5=[9b5d37bdb7be2cac1b39a82444f5f5a6]
entity ctrl--><rect fill="#161A22" height="107.6416" rx="4.6875" ry="4.6875" style="stroke: #3D424E; stroke-width: 2.34375;" width="314.0625" x="626.5625" y="649.9268"/><text fill="#E6E8EC" font-family="DejaVu Sans" font-size="21.875" font-weight="bold" lengthAdjust="spacingAndGlyphs" textLength="123.4375" x="721.875" y="685.8566">Controller</text><text fill="#E6E8EC" font-family="DejaVu Sans" font-size="21.875" lengthAdjust="spacingAndGlyphs" textLength="190.625" x="688.2813" y="711.3205">HTTP vstupní bod</text><text fill="#E6E8EC" font-family="DejaVu Sans" font-size="21.875" lengthAdjust="spacingAndGlyphs" textLength="282.8125" x="642.1875" y="736.7844">Form, Request, Response</text><!--MD5=[5dc53c203bb65d2c693f42cdbaa68732]
entity evdisp--><rect fill="#161A22" height="82.1777" rx="4.6875" ry="4.6875" style="stroke: #3D424E; stroke-width: 2.34375;" width="359.375" x="1630.4688" y="662.4268"/><text fill="#E6E8EC" font-family="DejaVu Sans" font-size="21.875" font-weight="bold" lengthAdjust="spacingAndGlyphs" textLength="201.5625" x="1709.375" y="698.3566">EventDispatcher</text><text fill="#E6E8EC" font-family="DejaVu Sans" font-size="21.875" lengthAdjust="spacingAndGlyphs" textLength="328.125" x="1646.0938" y="723.8205">dispatch doménových událostí</text><!--MD5=[5b1a34fb7ccf0e6c98f9e955f705d4f2]
entity di--><rect fill="#161A22" height="82.1777" rx="4.6875" ry="4.6875" style="stroke: #3D424E; stroke-width: 2.34375;" width="334.375" x="2542.9688" y="662.4268"/><text fill="#E6E8EC" font-family="DejaVu Sans" font-size="21.875" font-weight="bold" lengthAdjust="spacingAndGlyphs" textLength="168.75" x="2625.7813" y="698.3566">services.yaml</text><text fill="#E6E8EC" font-family="DejaVu Sans" font-size="21.875" lengthAdjust="spacingAndGlyphs" textLength="303.125" x="2558.5938" y="723.8205">autowiring, interface binding</text><path d="M2682.0313,359.3018 L2682.0313,441.9434 A4.6875,4.6875 0 0 0 2686.7188,446.6309 L3117.9688,446.6309 A4.6875,4.6875 0 0 0 3122.6563,441.9434 L3122.6563,370.2393 L3107.0313,354.6143 L2686.7188,354.6143 A4.6875,4.6875 0 0 0 2682.0313,359.3018 " fill="#1B202A" style="stroke: #3D424E; stroke-width: 1.5625;"/><path d="M3107.0313,354.6143 L3107.0313,367.8955 A2.3438,2.3438 0 0 0 3109.375,370.2393 L3122.6563,370.2393 L3107.0313,354.6143 " fill="#1B202A" style="stroke: #3D424E; stroke-width: 1.5625;"/><text fill="#A6ADBB" font-family="DejaVu Sans" font-size="21.875" font-weight="bold" lengthAdjust="spacingAndGlyphs" textLength="371.875" x="2691.4063" y="382.7316">Testovatelné bez frameworku</text><text fill="#A6ADBB" font-family="DejaVu Sans" font-size="21.875" lengthAdjust="spacingAndGlyphs" textLength="407.8125" x="2691.4063" y="408.1955">Unit testy nepotřebují Symfony kernel,</text><text fill="#A6ADBB" font-family="DejaVu Sans" font-size="21.875" lengthAdjust="spacingAndGlyphs" textLength="232.8125" x="2691.4063" y="433.6594">Doctrine ani databázi.</text><path d="M9.375,885.8643 L9.375,993.9697 A4.6875,4.6875 0 0 0 14.0625,998.6572 L400,998.6572 A4.6875,4.6875 0 0 0 404.6875,993.9697 L404.6875,896.8018 L389.0625,881.1768 L14.0625,881.1768 A4.6875,4.6875 0 0 0 9.375,885.8643 " fill="#1B202A" style="stroke: #3D424E; stroke-width: 1.5625;"/><path d="M389.0625,881.1768 L389.0625,894.458 A2.3438,2.3438 0 0 0 391.4063,896.8018 L404.6875,896.8018 L389.0625,881.1768 " fill="#1B202A" style="stroke: #3D424E; stroke-width: 1.5625;"/><text fill="#A6ADBB" font-family="DejaVu Sans" font-size="21.875" font-weight="bold" lengthAdjust="spacingAndGlyphs" textLength="153.125" x="18.75" y="909.2941">Vyměnitelné</text><text fill="#A6ADBB" font-family="DejaVu Sans" font-size="21.875" lengthAdjust="spacingAndGlyphs" textLength="348.4375" x="18.75" y="934.758">Doctrine lze nahradit jiným ORM,</text><text fill="#A6ADBB" font-family="DejaVu Sans" font-size="21.875" lengthAdjust="spacingAndGlyphs" textLength="362.5" x="18.75" y="960.2219">Messenger jiným bus systémem -</text><text fill="#A6ADBB" font-family="DejaVu Sans" font-size="21.875" lengthAdjust="spacingAndGlyphs" textLength="321.875" x="18.75" y="985.6857">doménová vrstva se nezmění.</text><!--MD5=[4fc3defc2e74fa92d0c9f126eacb12ed]
link agg to entity--><path d="M917.4219,232.7549 C909.9688,247.3799 901.6562,264.1455 894.5313,279.6143 C883.7031,303.1143 872.5156,329.6143 863.4688,351.6924 " fill="none" id="agg-&gt;entity" style="stroke: #F0A456; stroke-width: 2.34375;"/><polygon fill="#F0A456" points="860.5,358.9893,871.5938,348.3242,863.4476,351.7542,860.0177,343.608,860.5,358.9893" style="stroke: #F0A456; stroke-width: 2.34375;"/><text fill="#E6E8EC" font-family="DejaVu Sans" font-size="21.875" lengthAdjust="spacingAndGlyphs" textLength="100" x="896.0938" y="301.4816">obsahuje</text><!--MD5=[0434f9efcb883984720b47cfa6b367f1]
link agg to vo--><path d="M1111.25,226.458 C1182.8281,241.3018 1266.4688,259.8486 1341.4063,279.6143 C1427.6563,302.3643 1523.4375,332.4111 1597.4375,356.6924 " fill="none" id="agg-&gt;vo" style="stroke: #F0A456; stroke-width: 2.34375;"/><polygon fill="#F0A456" points="1604.9687,359.1768,1593.5483,348.8622,1597.5439,356.7464,1589.6597,360.742,1604.9687,359.1768" style="stroke: #F0A456; stroke-width: 2.34375;"/><text fill="#E6E8EC" font-family="DejaVu Sans" font-size="21.875" lengthAdjust="spacingAndGlyphs" textLength="82.8125" x="1438.2813" y="301.4816">používá</text><!--MD5=[9b02a06ddd0b58731cbe7ec665c54804]
link agg to event--><path d="M1111.5,191.333 C1148.875,191.333 1188.4688,191.333 1226.1406,191.333 " fill="none" id="agg-&gt;event" style="stroke: #F0A456; stroke-width: 2.34375;"/><polygon fill="#F0A456" points="1234.1406,191.333,1220.0781,185.083,1226.3281,191.333,1220.0781,197.583,1234.1406,191.333" style="stroke: #F0A456; stroke-width: 2.34375;"/><text fill="#E6E8EC" font-family="DejaVu Sans" font-size="21.875" lengthAdjust="spacingAndGlyphs" textLength="65.625" x="1139.8438" y="180.3879">vytváří</text><!--MD5=[e9ac24067ea1bf0875f21056e25db1c9]
reverse link repo_if to dsvc--><path d="M1703.8594,237.2549 C1641.25,273.4893 1553.5469,324.2705 1493.1406,359.2393 " fill="none" id="repo_if&lt;-dsvc" style="stroke: #F0A456; stroke-width: 2.34375;"/><polygon fill="#F0A456" points="1711.3594,232.9111,1696.0602,234.5699,1704.6038,236.8351,1702.3386,245.3788,1711.3594,232.9111" style="stroke: #F0A456; stroke-width: 2.34375;"/><text fill="#E6E8EC" font-family="DejaVu Sans" font-size="21.875" lengthAdjust="spacingAndGlyphs" textLength="206.25" x="1624.2188" y="301.4816">závisí na (interface)</text><!--MD5=[6412417afb1d4eaec78195a3ba7f1fa5]
reverse link agg to dsvc--><path d="M1040.2031,236.1455 C1125.7344,272.458 1246.9688,323.9111 1330.2188,359.2393 " fill="none" id="agg&lt;-dsvc" style="stroke: #F0A456; stroke-width: 2.34375;"/><polygon fill="#F0A456" points="1032.5469,232.9111,1043.04,244.1678,1039.7358,235.9698,1047.9338,232.6655,1032.5469,232.9111" style="stroke: #F0A456; stroke-width: 2.34375;"/><text fill="#E6E8EC" font-family="DejaVu Sans" font-size="21.875" lengthAdjust="spacingAndGlyphs" textLength="129.6875" x="1197.6563" y="301.4816">operuje nad</text><!--MD5=[1c32b83664e14306d444c3af4543b17c]
reverse link agg to spec--><path d="M978.6719,239.2549 C1010.0312,275.2549 1053.0781,324.6611 1082.9844,358.9893 " fill="none" id="agg&lt;-spec" style="stroke: #F0A456; stroke-width: 2.34375;"/><polygon fill="#F0A456" points="973.3594,233.1455,977.8844,247.854,978.4913,239.0361,987.3093,239.643,973.3594,233.1455" style="stroke: #F0A456; stroke-width: 2.34375;"/><text fill="#E6E8EC" font-family="DejaVu Sans" font-size="21.875" lengthAdjust="spacingAndGlyphs" textLength="64.0625" x="1035.1563" y="301.4816">filtruje</text><!--MD5=[ea0a8b8ada92585e7a1bed44caf08451]
reverse link repo_if to repo_impl--><path d="M1884.5312,248.6768 C1931.2813,276.7236 1985.2813,313.4893 2027.3438,354.6143 C2120.3125,445.5205 2199.2813,577.4893 2238.9844,649.8955 " fill="none" id="repo_if&lt;-repo_impl" style="stroke: #F0A456; stroke-width: 2.34375;"/><polygon fill="none" points="1878.75,257.9736,1857.25,232.7861,1889.75,239.0674,1878.75,257.9736" style="stroke: #F0A456; stroke-width: 2.34375;"/><text fill="#E6E8EC" font-family="DejaVu Sans" font-size="21.875" lengthAdjust="spacingAndGlyphs" textLength="146.875" x="2149.2188" y="408.5129">implementuje</text><!--MD5=[1f803ebae2ae315a6d42e23c2d34af28]
reverse link entity to mapping--><path d="M770.0313,446.6924 C720.7188,476.7861 655.0781,518.1143 599.2188,557.7393 C552.0313,591.208 500.5156,632.3799 464.2344,662.208 " fill="none" id="entity&lt;-mapping" style="stroke: #F0A456; stroke-width: 2.34375;"/><polygon fill="#F0A456" points="777.1875,442.333,761.9257,444.306,770.5141,446.3951,768.425,454.9835,777.1875,442.333" style="stroke: #F0A456; stroke-width: 2.34375;"/><text fill="#E6E8EC" font-family="DejaVu Sans" font-size="21.875" lengthAdjust="spacingAndGlyphs" textLength="151.5625" x="660.1563" y="538.9816">mapuje na DB</text><!--MD5=[a149906d2741e228c401b0798d921e96]
reverse link dsvc to messenger--><path d="M1424.2188,451.1924 C1424.2188,505.8174 1424.2188,593.8799 1424.2188,649.8799 " fill="none" id="dsvc&lt;-messenger" style="stroke: #F0A456; stroke-width: 2.34375;"/><polygon fill="#F0A456" points="1424.2188,442.7236,1417.9688,456.7861,1424.2188,450.5361,1430.4688,456.7861,1424.2188,442.7236" style="stroke: #F0A456; stroke-width: 2.34375;"/><text fill="#E6E8EC" font-family="DejaVu Sans" font-size="21.875" lengthAdjust="spacingAndGlyphs" textLength="184.375" x="1425.7813" y="538.9816">volá přes handler</text><!--MD5=[8e9cceff571a2b79ecf00cd7eda3d31b]
link ctrl to messenger--><path d="M940.7187,703.833 C1039.0781,703.833 1165.4688,703.833 1264.3438,703.833 " fill="none" id="ctrl-&gt;messenger" style="stroke: #F0A456; stroke-width: 2.34375;"/><polygon fill="#F0A456" points="1272.625,703.833,1258.5625,697.583,1264.8125,703.833,1258.5625,710.083,1272.625,703.833" style="stroke: #F0A456; stroke-width: 2.34375;"/><text fill="#E6E8EC" font-family="DejaVu Sans" font-size="21.875" lengthAdjust="spacingAndGlyphs" textLength="275" x="969.1406" y="692.8879">dispatch command/query</text><!--MD5=[cd597dcadb8418a73a9231f14d92e2e0]
reverse link event to evdisp--><path d="M1587.75,228.6611 C1708.125,252.4893 1844.3594,279.4893 1844.5313,279.6143 C1961.0313,368.4424 1875.6406,574.5674 1831.8438,661.958 " fill="none" id="event&lt;-evdisp" style="stroke: #F0A456; stroke-width: 2.34375;"/><polygon fill="#F0A456" points="1579.8438,227.0986,1592.4273,235.957,1587.5079,228.6136,1594.8513,223.6943,1579.8438,227.0986" style="stroke: #F0A456; stroke-width: 2.34375;"/><text fill="#E6E8EC" font-family="DejaVu Sans" font-size="21.875" lengthAdjust="spacingAndGlyphs" textLength="109.375" x="1903.9063" y="408.5129">propaguje</text><!--MD5=[ef090418d9027dce98615f5fac78ce2e]
reverse link repo_if to di--><path d="M1930.2969,234.9736 C2074.7969,276.1455 2276.4688,335.3955 2310.1563,354.6143 C2395.9688,403.583 2399.875,439.5361 2474.2188,504.6143 C2537.9531,560.3955 2613.2031,622.8799 2661.2813,662.3643 " fill="none" id="repo_if&lt;-di" style="stroke: #F0A456; stroke-width: 2.34375;"/><polygon fill="#F0A456" points="1922.5938,232.7861,1934.4059,242.6497,1930.1073,234.9265,1937.8305,230.6279,1922.5938,232.7861" style="stroke: #F0A456; stroke-width: 2.34375;"/><text fill="#E6E8EC" font-family="DejaVu Sans" font-size="21.875" lengthAdjust="spacingAndGlyphs" textLength="159.375" x="2485.1563" y="396.0129">binds interface</text><text fill="#E6E8EC" font-family="DejaVu Sans" font-size="21.875" lengthAdjust="spacingAndGlyphs" textLength="178.125" x="2475.7813" y="421.4767">→ implementace</text><!--MD5=[906cc42703913303b6ed9129481b38f0]
link DDD to GMN38--><path d="M1993.5136,194.5942 C1993.7696,194.628 1994.0291,194.6622 1994.2921,194.6969 C1994.8182,194.7663 1995.3584,194.8377 1995.9125,194.911 C2004.7787,196.0842 2017.2166,197.7563 2032.5835,199.8887 C2063.3174,204.1533 2105.7676,210.2588 2154.793,217.8955 C2252.8438,233.1689 2377.1953,254.5674 2486.7188,279.6143 C2579.3125,300.7861 2681.875,330.2236 2761.9531,354.583 " fill="none" id="DDD-GMN38" style="stroke: #F0A456; stroke-width: 2.34375; stroke-dasharray: 7.0,7.0;"/><!--MD5=[c401dc4b336e0c2742edaf1c11f21f7f]
link SYM to GMN41--><path d="M207.0313,795.4053 C207.0313,795.9928 207.0313,796.5813 207.0313,797.1706 C207.0313,806.6002 207.0313,816.2557 207.0313,825.8743 C207.0313,845.1113 207.0313,864.2002 207.0313,881.0361 " fill="none" id="SYM-GMN41" style="stroke: #F0A456; stroke-width: 2.34375; stroke-dasharray: 7.0,7.0;"/><!--MD5=[83fc401cfed8b3decc915697d1832257]
@startuml boundary
skinparam dpi 150
skinparam backgroundColor #11141A
skinparam shadowing false
skinparam roundCorner 6

skinparam defaultFontName "DejaVu Sans"
skinparam defaultFontSize 14
skinparam defaultFontColor #E6E8EC
skinparam defaultTextAlignment center


skinparam ArrowColor #F0A456
skinparam ArrowFontColor #E6E8EC
skinparam ArrowThickness 1.5

skinparam node {
  BackgroundColor #161A22
  BorderColor #3D424E
  FontColor #E6E8EC
}

skinparam component {
  BackgroundColor #161A22
  BorderColor #3D424E
  FontColor #E6E8EC
}

skinparam rectangle {
  BackgroundColor #161A22
  BorderColor #3D424E
  FontColor #E6E8EC
}

skinparam package {
  BackgroundColor #11141A
  BorderColor #F0A456
  FontColor #F0A456
}

skinparam folder {
  BackgroundColor #161A22
  BorderColor #3D424E
  FontColor #E6E8EC
}

skinparam frame {
  BackgroundColor #161A22
  BorderColor #3D424E
  FontColor #E6E8EC
}

skinparam database {
  BackgroundColor #1B202A
  BorderColor #3D424E
  FontColor #E6E8EC
}

skinparam queue {
  BackgroundColor #1B202A
  BorderColor #3D424E
  FontColor #E6E8EC
}

skinparam cloud {
  BackgroundColor #1B202A
  BorderColor #3D424E
  FontColor #E6E8EC
}

skinparam actor {
  BackgroundColor #161A22
  BorderColor #F0A456
  FontColor #E6E8EC
}

skinparam usecase {
  BackgroundColor #161A22
  BorderColor #3D424E
  FontColor #E6E8EC
}

skinparam class {
  BackgroundColor #161A22
  BorderColor #3D424E
  HeaderBackgroundColor #1B202A
  ArrowColor #F0A456
  FontColor #E6E8EC
  AttributeFontColor #A6ADBB
  StereotypeFontColor #F0A456
}

skinparam object {
  BackgroundColor #161A22
  BorderColor #3D424E
  FontColor #E6E8EC
}

skinparam sequence {
  ParticipantBackgroundColor #161A22
  ParticipantBorderColor #3D424E
  ParticipantFontColor #E6E8EC
  ActorBackgroundColor #161A22
  ActorBorderColor #F0A456
  ActorFontColor #E6E8EC
  LifeLineBorderColor #3D424E
  LifeLineBackgroundColor #1B202A
  ArrowColor #F0A456
  ArrowFontColor #E6E8EC
  GroupBackgroundColor #1B202A
  GroupBorderColor #3D424E
  GroupFontColor #A6ADBB
  GroupHeaderFontColor #F0A456
  BoxBackgroundColor #11141A
  BoxBorderColor #F0A456
  BoxFontColor #F0A456
  DividerBackgroundColor #1B202A
  DividerBorderColor #3D424E
  DividerFontColor #A6ADBB
  ReferenceBackgroundColor #161A22
  ReferenceBorderColor #3D424E
  ReferenceFontColor #E6E8EC
  ReferenceHeaderBackgroundColor #1B202A
  StereotypeFontColor #F0A456
}

skinparam state {
  BackgroundColor #161A22
  BorderColor #3D424E
  FontColor #E6E8EC
  StartColor #F0A456
  EndColor #F0A456
  ArrowColor #F0A456
  AttributeFontColor #A6ADBB
}

skinparam activity {
  BackgroundColor #161A22
  BorderColor #3D424E
  FontColor #E6E8EC
  ArrowColor #F0A456
  StartColor #F0A456
  EndColor #F0A456
  BarColor #F0A456
  DiamondBackgroundColor #1B202A
  DiamondBorderColor #3D424E
  DiamondFontColor #E6E8EC
}

skinparam note {
  BackgroundColor #1B202A
  BorderColor #3D424E
  FontColor #A6ADBB
}

skinparam title {
  FontColor #E6E8EC
  FontSize 18
}

skinparam legend {
  BackgroundColor #161A22
  BorderColor #3D424E
  FontColor #A6ADBB
}

skinparam caption {
  FontColor #A6ADBB
}

skinparam stereotype {
  CBackgroundColor #1B202A
  CBorderColor #F0A456
  ABackgroundColor #1B202A
  ABorderColor #F0A456
  IBackgroundColor #1B202A
  IBorderColor #F0A456
  EBackgroundColor #1B202A
  EBorderColor #F0A456
}

title Kde končí DDD a kde začíná Symfony

package "DDD - čistý PHP, žádné závislosti na frameworku" as DDD {
  rectangle "**Entity**\nUser, Order" as entity
  rectangle "**Value Object**\nEmail, Money, OrderId" as vo
  rectangle "**Aggregate Root**\ninvarianty, doménová pravidla" as agg
  rectangle "**Domain Event**\nUserRegistered, OrderPlaced" as event
  rectangle "**Repository interface**\nUserRepositoryInterface" as repo_if
  rectangle "**Domain Service**\nPaymentService" as dsvc
  rectangle "**Specification**\nActiveUserSpecification" as spec
}

package "Symfony - frameworková infrastruktura" as SYM {
  rectangle "**Doctrine Repository**\nDoctrineUserRepository\nimplementuje UserRepositoryInterface" as repo_impl
  rectangle "**Doctrine ORM Mapping**\nXML / atributy" as mapping
  rectangle "**Messenger**\nCommandBus, QueryBus\nHandleři" as messenger
  rectangle "**Controller**\nHTTP vstupní bod\nForm, Request, Response" as ctrl
  rectangle "**EventDispatcher**\ndispatch doménových událostí" as evdisp
  rectangle "**services.yaml**\nautowiring, interface binding" as di
}

agg -down-> entity : obsahuje
agg -down-> vo : používá
agg -right-> event : vytváří
dsvc -up-> repo_if : závisí na (interface)
dsvc -up-> agg : operuje nad
spec -up-> agg : filtruje

repo_impl -up-|> repo_if : implementuje
mapping -up-> entity : mapuje na DB
messenger -up-> dsvc : volá přes handler
ctrl -right-> messenger : dispatch command/query
evdisp -up-> event : propaguje
di -up-> repo_if : binds interface\n→ implementace

note bottom of DDD
  **Testovatelné bez frameworku**
  Unit testy nepotřebují Symfony kernel,
  Doctrine ani databázi.
end note

note bottom of SYM
  **Vyměnitelné**
  Doctrine lze nahradit jiným ORM,
  Messenger jiným bus systémem -
  doménová vrstva se nezmění.
end note

@enduml

PlantUML version 1.2020.02(Sun Mar 01 11:22:07 CET 2020)
(GPL source distribution)
Java Runtime: OpenJDK Runtime Environment
JVM: OpenJDK 64-Bit Server VM
Java Version: 21.0.10+7-Debian-1deb13u1
Operating System: Linux
Default Encoding: UTF-8
Language: cs
Country: CZ
--></g></svg>