<svg xmlns="http://www.w3.org/2000/svg" xmlns:xlink="http://www.w3.org/1999/xlink" contentStyleType="text/css" data-diagram-type="ACTIVITY" height="1232px" preserveAspectRatio="none" style="width:505px;height:1232px;" version="1.1" viewBox="0 0 505 1232" width="505px" zoomAndPan="magnify"><title>Rozhodovaci strom: Mam pouzit DDD?</title><defs/><g><text fill="#000000" font-family="Nunito" font-size="22" font-weight="bold" lengthAdjust="spacing" textLength="472.7959" x="15" y="35.4209">Rozhodovaci strom: Mam pouzit DDD?</text><ellipse cx="252.8979" cy="61.6094" fill="#FFFFFF" rx="10" ry="10" style="stroke:#000000;stroke-width:1;"/><rect fill="#1E1B4B" height="36.2969" rx="12.5" ry="12.5" style="stroke:#6366F1;stroke-width:1;" width="310.7939" x="97.501" y="91.6094"/><text fill="#E0E7FF" font-family="Nunito" font-size="14" lengthAdjust="spacing" textLength="290.7939" x="107.501" y="114.6045">Novy projekt / architektonicke rozhodnuti</text><rect fill="#7C3AED" height="52.5938" rx="12.5" ry="12.5" style="stroke:#6366F1;stroke-width:1;" width="194.6104" x="155.5928" y="206.6484"/><text fill="#E0E7FF" font-family="Nunito" font-size="14" lengthAdjust="spacing" textLength="129.1445" x="165.5928" y="229.6436">DDD nepotrebujes</text><text fill="#E0E7FF" font-family="Nunito" font-size="14" lengthAdjust="spacing" textLength="174.6104" x="165.5928" y="245.9404">-&gt; EasyAdmin / Flat MVC</text><ellipse cx="252.8979" cy="290.2422" fill="none" rx="11" ry="11" style="stroke:#000000;stroke-width:1;"/><ellipse cx="252.8979" cy="290.2422" fill="#FFFFFF" rx="6" ry="6" style="stroke:#000000;stroke-width:1;"/><polygon fill="#312E81" points="149.8599,147.9063,355.936,147.9063,367.936,164.2031,355.936,180.5,149.8599,180.5,137.8599,164.2031,149.8599,147.9063" style="stroke:#818CF8;stroke-width:1;"/><text fill="#000000" font-family="Nunito" font-size="14" lengthAdjust="spacing" textLength="17.4863" x="256.8979" y="193.4951">ne</text><text fill="#E0E7FF" font-family="Nunito" font-size="14" lengthAdjust="spacing" textLength="206.0762" x="149.8599" y="160.9014">Komplexni domenova logika?</text><text fill="#E0E7FF" font-family="Nunito" font-size="14" lengthAdjust="spacing" textLength="99.2168" x="149.8599" y="177.1982">(ne jen CRUD)</text><text fill="#000000" font-family="Nunito" font-size="14" lengthAdjust="spacing" textLength="26.0176" x="367.936" y="160.9014">ano</text><rect fill="#7C3AED" height="52.5938" rx="12.5" ry="12.5" style="stroke:#6366F1;stroke-width:1;" width="256.6123" x="124.5918" y="393.3906"/><text fill="#E0E7FF" font-family="Nunito" font-size="14" lengthAdjust="spacing" textLength="121.9395" x="134.5918" y="416.3857">DDD se nevyplati</text><text fill="#E0E7FF" font-family="Nunito" font-size="14" lengthAdjust="spacing" textLength="236.6123" x="134.5918" y="432.6826">-&gt; Symfony Controller + Doctrine</text><ellipse cx="252.8979" cy="476.9844" fill="none" rx="11" ry="11" style="stroke:#000000;stroke-width:1;"/><ellipse cx="252.8979" cy="476.9844" fill="#FFFFFF" rx="6" ry="6" style="stroke:#000000;stroke-width:1;"/><polygon fill="#312E81" points="166.0986,343.2422,339.6973,343.2422,351.6973,355.2422,339.6973,367.2422,166.0986,367.2422,154.0986,355.2422,166.0986,343.2422" style="stroke:#818CF8;stroke-width:1;"/><text fill="#000000" font-family="Nunito" font-size="14" lengthAdjust="spacing" textLength="17.4863" x="256.8979" y="380.2373">ne</text><text fill="#E0E7FF" font-family="Nunito" font-size="14" lengthAdjust="spacing" textLength="173.5986" x="166.0986" y="360.0889">Projekt bude zit &gt; 1 rok?</text><text fill="#000000" font-family="Nunito" font-size="14" lengthAdjust="spacing" textLength="26.0176" x="351.6973" y="351.9404">ano</text><rect fill="#7C3AED" height="52.5938" rx="12.5" ry="12.5" style="stroke:#6366F1;stroke-width:1;" width="208.918" x="148.439" y="588.7266"/><text fill="#E0E7FF" font-family="Nunito" font-size="14" lengthAdjust="spacing" textLength="188.918" x="158.439" y="611.7217">DDD bez expertu = hadani</text><text fill="#E0E7FF" font-family="Nunito" font-size="14" lengthAdjust="spacing" textLength="173.8516" x="158.439" y="628.0186">-&gt; Vrstvena architektura</text><ellipse cx="252.8979" cy="672.3203" fill="none" rx="11" ry="11" style="stroke:#000000;stroke-width:1;"/><ellipse cx="252.8979" cy="672.3203" fill="#FFFFFF" rx="6" ry="6" style="stroke:#000000;stroke-width:1;"/><polygon fill="#312E81" points="176.4038,529.9844,329.3921,529.9844,341.3921,546.2813,329.3921,562.5781,176.4038,562.5781,164.4038,546.2813,176.4038,529.9844" style="stroke:#818CF8;stroke-width:1;"/><text fill="#000000" font-family="Nunito" font-size="14" lengthAdjust="spacing" textLength="17.4863" x="256.8979" y="575.5732">ne</text><text fill="#E0E7FF" font-family="Nunito" font-size="14" lengthAdjust="spacing" textLength="152.9883" x="176.4038" y="542.9795">Pristup k domenovym</text><text fill="#E0E7FF" font-family="Nunito" font-size="14" lengthAdjust="spacing" textLength="75.585" x="176.4038" y="559.2764">expertum?</text><text fill="#000000" font-family="Nunito" font-size="14" lengthAdjust="spacing" textLength="26.0176" x="341.3921" y="542.9795">ano</text><rect fill="#7C3AED" height="68.8906" rx="12.5" ry="12.5" style="stroke:#6366F1;stroke-width:1;" width="243.3506" x="131.2227" y="784.0625"/><text fill="#E0E7FF" font-family="Nunito" font-size="14" lengthAdjust="spacing" textLength="143.8486" x="141.2227" y="807.0576">Pseudo-DDD je horsi</text><text fill="#E0E7FF" font-family="Nunito" font-size="14" lengthAdjust="spacing" textLength="108.377" x="141.2227" y="823.3545">nez zadne DDD</text><text fill="#E0E7FF" font-family="Nunito" font-size="14" lengthAdjust="spacing" textLength="223.3506" x="141.2227" y="839.6514">-&gt; Architektura, kterou tym zna</text><ellipse cx="252.8979" cy="883.9531" fill="none" rx="11" ry="11" style="stroke:#000000;stroke-width:1;"/><ellipse cx="252.8979" cy="883.9531" fill="#FFFFFF" rx="6" ry="6" style="stroke:#000000;stroke-width:1;"/><polygon fill="#312E81" points="178.9912,725.3203,326.8047,725.3203,338.8047,741.6172,326.8047,757.9141,178.9912,757.9141,166.9912,741.6172,178.9912,725.3203" style="stroke:#818CF8;stroke-width:1;"/><text fill="#000000" font-family="Nunito" font-size="14" lengthAdjust="spacing" textLength="17.4863" x="256.8979" y="770.9092">ne</text><text fill="#E0E7FF" font-family="Nunito" font-size="14" lengthAdjust="spacing" textLength="96.5166" x="178.9912" y="738.3154">Tym zna DDD</text><text fill="#E0E7FF" font-family="Nunito" font-size="14" lengthAdjust="spacing" textLength="147.8135" x="178.9912" y="754.6123">nebo ma cas se ucit?</text><text fill="#000000" font-family="Nunito" font-size="14" lengthAdjust="spacing" textLength="26.0176" x="338.8047" y="738.3154">ano</text><rect fill="#7C3AED" height="52.5938" rx="12.5" ry="12.5" style="stroke:#6366F1;stroke-width:1;" width="198.8965" x="153.4497" y="995.6953"/><text fill="#E0E7FF" font-family="Nunito" font-size="14" lengthAdjust="spacing" textLength="141.1006" x="163.4497" y="1018.6904">Pockej na stabilizaci</text><text fill="#E0E7FF" font-family="Nunito" font-size="14" lengthAdjust="spacing" textLength="178.8965" x="163.4497" y="1034.9873">-&gt; Flat MVC, DDD pozdeji</text><ellipse cx="252.8979" cy="1079.2891" fill="none" rx="11" ry="11" style="stroke:#000000;stroke-width:1;"/><ellipse cx="252.8979" cy="1079.2891" fill="#FFFFFF" rx="6" ry="6" style="stroke:#000000;stroke-width:1;"/><polygon fill="#312E81" points="173.7617,936.9531,332.0342,936.9531,344.0342,953.25,332.0342,969.5469,173.7617,969.5469,161.7617,953.25,173.7617,936.9531" style="stroke:#818CF8;stroke-width:1;"/><text fill="#000000" font-family="Nunito" font-size="14" lengthAdjust="spacing" textLength="17.4863" x="256.8979" y="982.542">ne</text><text fill="#E0E7FF" font-family="Nunito" font-size="14" lengthAdjust="spacing" textLength="138.6738" x="173.7617" y="949.9482">Domena je stabilni?</text><text fill="#E0E7FF" font-family="Nunito" font-size="14" lengthAdjust="spacing" textLength="158.2725" x="173.7617" y="966.2451">(ne pivot kazdy sprint)</text><text fill="#000000" font-family="Nunito" font-size="14" lengthAdjust="spacing" textLength="26.0176" x="344.0342" y="949.9482">ano</text><rect fill="#059669" height="52.5938" rx="12.5" ry="12.5" style="stroke:#6366F1;stroke-width:1;" width="240.2402" x="132.7778" y="1132.2891"/><text fill="#E0E7FF" font-family="Nunito" font-size="14" lengthAdjust="spacing" textLength="115.9717" x="142.7778" y="1155.2842">DDD dava smysl</text><text fill="#E0E7FF" font-family="Nunito" font-size="14" lengthAdjust="spacing" textLength="220.2402" x="142.7778" y="1171.5811">-&gt; Strategicky i takticky design</text><ellipse cx="252.8979" cy="1215.8828" fill="none" rx="11" ry="11" style="stroke:#000000;stroke-width:1;"/><ellipse cx="252.8979" cy="1215.8828" fill="#FFFFFF" rx="6" ry="6" style="stroke:#000000;stroke-width:1;"/><line style="stroke:#6366F1;stroke-width:1;" x1="252.8979" x2="252.8979" y1="71.6094" y2="91.6094"/><polygon fill="#6366F1" points="248.8979,81.6094,252.8979,91.6094,256.8979,81.6094,252.8979,85.6094" style="stroke:#6366F1;stroke-width:1;"/><line style="stroke:#6366F1;stroke-width:1;" x1="252.8979" x2="252.8979" y1="259.2422" y2="279.2422"/><polygon fill="#6366F1" points="248.8979,269.2422,252.8979,279.2422,256.8979,269.2422,252.8979,273.2422" style="stroke:#6366F1;stroke-width:1;"/><line style="stroke:#6366F1;stroke-width:1;" x1="252.8979" x2="252.8979" y1="180.5" y2="206.6484"/><polygon fill="#6366F1" points="248.8979,196.6484,252.8979,206.6484,256.8979,196.6484,252.8979,200.6484" style="stroke:#6366F1;stroke-width:1;"/><line style="stroke:#6366F1;stroke-width:1;" x1="367.936" x2="379.936" y1="164.2031" y2="164.2031"/><polygon fill="#6366F1" points="375.936,246.2969,379.936,256.2969,383.936,246.2969,379.936,250.2969" style="stroke:#6366F1;stroke-width:1;"/><line style="stroke:#6366F1;stroke-width:1;" x1="379.936" x2="379.936" y1="164.2031" y2="323.2422"/><line style="stroke:#6366F1;stroke-width:1;" x1="379.936" x2="252.8979" y1="323.2422" y2="323.2422"/><line style="stroke:#6366F1;stroke-width:1;" x1="252.8979" x2="252.8979" y1="323.2422" y2="343.2422"/><polygon fill="#6366F1" points="248.8979,333.2422,252.8979,343.2422,256.8979,333.2422,252.8979,337.2422" style="stroke:#6366F1;stroke-width:1;"/><line style="stroke:#6366F1;stroke-width:1;" x1="252.8979" x2="252.8979" y1="127.9063" y2="147.9063"/><polygon fill="#6366F1" points="248.8979,137.9063,252.8979,147.9063,256.8979,137.9063,252.8979,141.9063" style="stroke:#6366F1;stroke-width:1;"/><line style="stroke:#6366F1;stroke-width:1;" x1="252.8979" x2="252.8979" y1="445.9844" y2="465.9844"/><polygon fill="#6366F1" points="248.8979,455.9844,252.8979,465.9844,256.8979,455.9844,252.8979,459.9844" style="stroke:#6366F1;stroke-width:1;"/><line style="stroke:#6366F1;stroke-width:1;" x1="252.8979" x2="252.8979" y1="367.2422" y2="393.3906"/><polygon fill="#6366F1" points="248.8979,383.3906,252.8979,393.3906,256.8979,383.3906,252.8979,387.3906" style="stroke:#6366F1;stroke-width:1;"/><line style="stroke:#6366F1;stroke-width:1;" x1="351.6973" x2="391.2041" y1="355.2422" y2="355.2422"/><polygon fill="#6366F1" points="387.2041,435.1875,391.2041,445.1875,395.2041,435.1875,391.2041,439.1875" style="stroke:#6366F1;stroke-width:1;"/><line style="stroke:#6366F1;stroke-width:1;" x1="391.2041" x2="391.2041" y1="355.2422" y2="509.9844"/><line style="stroke:#6366F1;stroke-width:1;" x1="391.2041" x2="252.8979" y1="509.9844" y2="509.9844"/><line style="stroke:#6366F1;stroke-width:1;" x1="252.8979" x2="252.8979" y1="509.9844" y2="529.9844"/><polygon fill="#6366F1" points="248.8979,519.9844,252.8979,529.9844,256.8979,519.9844,252.8979,523.9844" style="stroke:#6366F1;stroke-width:1;"/><line style="stroke:#6366F1;stroke-width:1;" x1="252.8979" x2="252.8979" y1="641.3203" y2="661.3203"/><polygon fill="#6366F1" points="248.8979,651.3203,252.8979,661.3203,256.8979,651.3203,252.8979,655.3203" style="stroke:#6366F1;stroke-width:1;"/><line style="stroke:#6366F1;stroke-width:1;" x1="252.8979" x2="252.8979" y1="562.5781" y2="588.7266"/><polygon fill="#6366F1" points="248.8979,578.7266,252.8979,588.7266,256.8979,578.7266,252.8979,582.7266" style="stroke:#6366F1;stroke-width:1;"/><line style="stroke:#6366F1;stroke-width:1;" x1="341.3921" x2="367.3569" y1="546.2813" y2="546.2813"/><polygon fill="#6366F1" points="363.3569,628.375,367.3569,638.375,371.3569,628.375,367.3569,632.375" style="stroke:#6366F1;stroke-width:1;"/><line style="stroke:#6366F1;stroke-width:1;" x1="367.3569" x2="367.3569" y1="546.2813" y2="705.3203"/><line style="stroke:#6366F1;stroke-width:1;" x1="367.3569" x2="252.8979" y1="705.3203" y2="705.3203"/><line style="stroke:#6366F1;stroke-width:1;" x1="252.8979" x2="252.8979" y1="705.3203" y2="725.3203"/><polygon fill="#6366F1" points="248.8979,715.3203,252.8979,725.3203,256.8979,715.3203,252.8979,719.3203" style="stroke:#6366F1;stroke-width:1;"/><line style="stroke:#6366F1;stroke-width:1;" x1="252.8979" x2="252.8979" y1="852.9531" y2="872.9531"/><polygon fill="#6366F1" points="248.8979,862.9531,252.8979,872.9531,256.8979,862.9531,252.8979,866.9531" style="stroke:#6366F1;stroke-width:1;"/><line style="stroke:#6366F1;stroke-width:1;" x1="252.8979" x2="252.8979" y1="757.9141" y2="784.0625"/><polygon fill="#6366F1" points="248.8979,774.0625,252.8979,784.0625,256.8979,774.0625,252.8979,778.0625" style="stroke:#6366F1;stroke-width:1;"/><line style="stroke:#6366F1;stroke-width:1;" x1="338.8047" x2="384.5732" y1="741.6172" y2="741.6172"/><polygon fill="#6366F1" points="380.5732,831.8594,384.5732,841.8594,388.5732,831.8594,384.5732,835.8594" style="stroke:#6366F1;stroke-width:1;"/><line style="stroke:#6366F1;stroke-width:1;" x1="384.5732" x2="384.5732" y1="741.6172" y2="916.9531"/><line style="stroke:#6366F1;stroke-width:1;" x1="384.5732" x2="252.8979" y1="916.9531" y2="916.9531"/><line style="stroke:#6366F1;stroke-width:1;" x1="252.8979" x2="252.8979" y1="916.9531" y2="936.9531"/><polygon fill="#6366F1" points="248.8979,926.9531,252.8979,936.9531,256.8979,926.9531,252.8979,930.9531" style="stroke:#6366F1;stroke-width:1;"/><line style="stroke:#6366F1;stroke-width:1;" x1="252.8979" x2="252.8979" y1="1048.2891" y2="1068.2891"/><polygon fill="#6366F1" points="248.8979,1058.2891,252.8979,1068.2891,256.8979,1058.2891,252.8979,1062.2891" style="stroke:#6366F1;stroke-width:1;"/><line style="stroke:#6366F1;stroke-width:1;" x1="252.8979" x2="252.8979" y1="969.5469" y2="995.6953"/><polygon fill="#6366F1" points="248.8979,985.6953,252.8979,995.6953,256.8979,985.6953,252.8979,989.6953" style="stroke:#6366F1;stroke-width:1;"/><line style="stroke:#6366F1;stroke-width:1;" x1="344.0342" x2="362.3462" y1="953.25" y2="953.25"/><polygon fill="#6366F1" points="358.3462,1035.3438,362.3462,1045.3438,366.3462,1035.3438,362.3462,1039.3438" style="stroke:#6366F1;stroke-width:1;"/><line style="stroke:#6366F1;stroke-width:1;" x1="362.3462" x2="362.3462" y1="953.25" y2="1112.2891"/><line style="stroke:#6366F1;stroke-width:1;" x1="362.3462" x2="252.8979" y1="1112.2891" y2="1112.2891"/><line style="stroke:#6366F1;stroke-width:1;" x1="252.8979" x2="252.8979" y1="1112.2891" y2="1132.2891"/><polygon fill="#6366F1" points="248.8979,1122.2891,252.8979,1132.2891,256.8979,1122.2891,252.8979,1126.2891" style="stroke:#6366F1;stroke-width:1;"/><line style="stroke:#6366F1;stroke-width:1;" x1="252.8979" x2="252.8979" y1="1184.8828" y2="1204.8828"/><polygon fill="#6366F1" points="248.8979,1194.8828,252.8979,1204.8828,256.8979,1194.8828,252.8979,1198.8828" style="stroke:#6366F1;stroke-width:1;"/><!--SRC=[ZPH1Kzim48Nl_XLRk90fJ76X8S0KXYPmwS0mq7BAHRRMoSRshaTQ1-nVNpa9RQObf3UDjFlUfzMpF-WKIuIgCCIHpuahuqm9YKdpYPEQxL0ASQ3Ei0z7oBfMPJ4pTQ4tmdfdWihENSsailDsoIEr2F7nsk6LS_AyDDZj7_NxMRn-c2hDIPjlVw7inXWdnybRbU8ikcrw7Sgg1W_n9ClUg1cHAONjFzP7yMSSnEyqh1CCua6Q3JON_m_8zM_hmo-d_Vvf52bfWV0WxLIip4rAuDL9UGQteQsIkYM5qMXq6KLUZTFex4xc3LHEPfWhV0BZqYbfM0jJcYEuXHBNIkTHH1diVPUoAl252QoKoC432fbGRYx7lCS8CsGOFlmSzNeGiiCGzdeHmEv9UcJGdWLlOAn47IRr3FsO3oxWslZcofR40U2cC0gtJyFpqEHLgWWBZx1dM7eHigLiYN6_8avgYz1TwWBY09jVRhODCepp9cHPQM7xs9IPS0F3C6adHO4EFi98KdN4kDMVlDOLvAzZQCenuqk5Jklo7OW4MrYLmLUO6cju2VFalCwHpPyNg9tP0l6ZAQ4DBK5up8o9G6aWDRwxQfsIRk2uzrXREUXmPWXJSPwwzXPQOyCBBjG2qTKQo3xaYY7ge4lBBM2ZRYQcKmyfIwXWMgMZehaevAQr3VWgp5atvEHUGlfc44IM2jI6B2-mNWEotu66IBSMP_GEp-hJM4pVcX1NNpQ-M0OW_BSK9o7e3H2eoNMnjEXfmkVHGl0N]--></g></svg>