<?xml version="1.0" encoding="UTF-8" standalone="no"?><svg xmlns="http://www.w3.org/2000/svg" xmlns:xlink="http://www.w3.org/1999/xlink" contentScriptType="application/ecmascript" contentStyleType="text/css" height="1540.625px" preserveAspectRatio="none" style="width:3476px;height:1540px;background:#FAFAFA;" version="1.1" viewBox="0 0 3476 1540" width="3476.5625px" zoomAndPan="magnify"><defs/><g><rect fill="#FFFFFF" height="44.7266" style="stroke: #005A9C; stroke-width: 2.34375;" width="256.25" x="1614.0625" y="3.125"/><text fill="#000000" font-family="Nunito" font-size="25" lengthAdjust="spacingAndGlyphs" textLength="231.25" x="1626.5625" y="34.1431">CQRS v Symfony 7</text><!--MD5=[fe628af75e47f09186d8d405551aac5b]
cluster Prezentační vrstva--><polygon fill="#FAFAFA" points="1925.7813,90.8203,2196.0938,90.8203,2207.0313,129.2969,2764.8438,129.2969,2764.8438,336.1328,1925.7813,336.1328,1925.7813,90.8203" style="stroke: #005A9C; stroke-width: 2.34375;"/><line style="stroke: #005A9C; stroke-width: 2.34375;" x1="1925.7813" x2="2207.0313" y1="129.2969" y2="129.2969"/><text fill="#000000" font-family="Nunito" font-size="25" font-weight="bold" lengthAdjust="spacingAndGlyphs" textLength="260.9375" x="1932.0313" y="117.1509">Prezentační vrstva</text><!--MD5=[a66d0f29514f183c18e012a9ca083a07]
cluster Aplikační vrstva - Commands--><polygon fill="#FAFAFA" points="230.4688,417.3828,638.2813,417.3828,649.2188,455.8594,825.7813,455.8594,825.7813,941.6016,230.4688,941.6016,230.4688,417.3828" style="stroke: #005A9C; stroke-width: 2.34375;"/><line style="stroke: #005A9C; stroke-width: 2.34375;" x1="230.4688" x2="649.2188" y1="455.8594" y2="455.8594"/><text fill="#000000" font-family="Nunito" font-size="25" font-weight="bold" lengthAdjust="spacingAndGlyphs" textLength="398.4375" x="236.7188" y="443.7134">Aplikační vrstva - Commands</text><!--MD5=[cae5212ef21a8c6d71e14fc769d25d96]
cluster Aplikační vrstva - Queries--><polygon fill="#FAFAFA" points="2085.1563,417.3828,2449.2188,417.3828,2460.1563,455.8594,2630.4688,455.8594,2630.4688,941.6016,2085.1563,941.6016,2085.1563,417.3828" style="stroke: #005A9C; stroke-width: 2.34375;"/><line style="stroke: #005A9C; stroke-width: 2.34375;" x1="2085.1563" x2="2460.1563" y1="455.8594" y2="455.8594"/><text fill="#000000" font-family="Nunito" font-size="25" font-weight="bold" lengthAdjust="spacingAndGlyphs" textLength="354.6875" x="2091.4063" y="443.7134">Aplikační vrstva - Queries</text><!--MD5=[86163ccadf161557d87844c8bc8b359f]
cluster Doménová vrstva--><polygon fill="#FAFAFA" points="369.5313,1034.5703,621.0938,1034.5703,632.0313,1073.0469,825.7813,1073.0469,825.7813,1522.8516,369.5313,1522.8516,369.5313,1034.5703" style="stroke: #005A9C; stroke-width: 2.34375;"/><line style="stroke: #005A9C; stroke-width: 2.34375;" x1="369.5313" x2="632.0313" y1="1073.0469" y2="1073.0469"/><text fill="#000000" font-family="Nunito" font-size="25" font-weight="bold" lengthAdjust="spacingAndGlyphs" textLength="242.1875" x="375.7813" y="1060.9009">Doménová vrstva</text><!--MD5=[9d13e039760e18191afd1241178859f2]
cluster Infrastrukturní vrstva--><polygon fill="#FAFAFA" points="863.2813,711.1328,1175.7813,711.1328,1186.7188,749.6094,1796.0938,749.6094,1796.0938,1265.0391,863.2813,1265.0391,863.2813,711.1328" style="stroke: #005A9C; stroke-width: 2.34375;"/><line style="stroke: #005A9C; stroke-width: 2.34375;" x1="863.2813" x2="1186.7188" y1="749.6094" y2="749.6094"/><text fill="#000000" font-family="Nunito" font-size="25" font-weight="bold" lengthAdjust="spacingAndGlyphs" textLength="303.125" x="869.5313" y="737.4634">Infrastrukturní vrstva</text><!--MD5=[1d7ba1c7002d54515419844fbd155368]
class Controller--><rect fill="#FEFECE" height="162.3047" id="Controller" style="stroke: #A80036; stroke-width: 2.34375;" width="556.25" x="1950.7813" y="148.6328"/><ellipse cx="2162.8906" cy="173.6328" fill="#ADD1B2" rx="17.1875" ry="17.1875" style="stroke: #A80036; stroke-width: 1.5625;"/><path d="M2166.7236,182.4707 Q2165.8691,182.9102 2164.917,183.1299 Q2163.9893,183.374 2162.9395,183.374 Q2159.2529,183.374 2157.2998,180.9326 Q2155.3711,178.4912 2155.3711,173.9014 Q2155.3711,169.3115 2157.2998,166.8945 Q2159.2529,164.4531 2162.9395,164.4531 Q2163.9893,164.4531 2164.9414,164.6729 Q2165.8936,164.8926 2166.7236,165.332 L2166.7236,169.3359 Q2165.7959,168.4814 2164.917,168.0908 Q2164.0381,167.6758 2163.1104,167.6758 Q2161.1328,167.6758 2160.1318,169.2627 Q2159.1309,170.8252 2159.1309,173.9014 Q2159.1309,176.9775 2160.1318,178.5645 Q2161.1328,180.127 2163.1104,180.127 Q2164.0381,180.127 2164.917,179.7363 Q2165.7959,179.3213 2166.7236,178.4668 L2166.7236,182.4707 Z "/><text fill="#000000" font-family="Nunito" font-size="25" lengthAdjust="spacingAndGlyphs" textLength="118.75" x="2194.9219" y="182.2876">Controller</text><line style="stroke: #A80036; stroke-width: 2.34375;" x1="1952.3438" x2="2505.4688" y1="198.6328" y2="198.6328"/><line style="stroke: #A80036; stroke-width: 2.34375;" x1="1952.3438" x2="2505.4688" y1="211.1328" y2="211.1328"/><ellipse cx="1967.9688" cy="228.3203" fill="#84BE84" rx="4.6875" ry="4.6875" style="stroke: #038048; stroke-width: 1.5625;"/><text fill="#000000" font-family="Nunito" font-size="25" lengthAdjust="spacingAndGlyphs" textLength="92.1875" x="1982.0313" y="240.5884">action()</text><ellipse cx="1967.9688" cy="257.4219" fill="#84BE84" rx="4.6875" ry="4.6875" style="stroke: #038048; stroke-width: 1.5625;"/><text fill="#000000" font-family="Nunito" font-size="25" lengthAdjust="spacingAndGlyphs" textLength="515.625" x="1982.0313" y="269.6899">injectCommandBus(MessageBusInterface)</text><ellipse cx="1967.9688" cy="286.5234" fill="#84BE84" rx="4.6875" ry="4.6875" style="stroke: #038048; stroke-width: 1.5625;"/><text fill="#000000" font-family="Nunito" font-size="25" lengthAdjust="spacingAndGlyphs" textLength="465.625" x="1982.0313" y="298.7915">injectQueryBus(MessageBusInterface)</text><!--MD5=[b1d46488418bc0cd55cf54b5fc017696]
class ViewModel--><rect fill="#FEFECE" height="104.1016" id="ViewModel" style="stroke: #A80036; stroke-width: 2.34375;" width="176.5625" x="2562.5" y="177.5391"/><ellipse cx="2585.9375" cy="202.5391" fill="#ADD1B2" rx="17.1875" ry="17.1875" style="stroke: #A80036; stroke-width: 1.5625;"/><path d="M2589.7705,211.377 Q2588.916,211.8164 2587.9639,212.0361 Q2587.0361,212.2803 2585.9863,212.2803 Q2582.2998,212.2803 2580.3467,209.8389 Q2578.418,207.3975 2578.418,202.8076 Q2578.418,198.2178 2580.3467,195.8008 Q2582.2998,193.3594 2585.9863,193.3594 Q2587.0361,193.3594 2587.9883,193.5791 Q2588.9404,193.7988 2589.7705,194.2383 L2589.7705,198.2422 Q2588.8428,197.3877 2587.9639,196.9971 Q2587.085,196.582 2586.1572,196.582 Q2584.1797,196.582 2583.1787,198.1689 Q2582.1777,199.7314 2582.1777,202.8076 Q2582.1777,205.8838 2583.1787,207.4707 Q2584.1797,209.0332 2586.1572,209.0332 Q2587.085,209.0332 2587.9639,208.6426 Q2588.8428,208.2275 2589.7705,207.373 L2589.7705,211.377 Z "/><text fill="#000000" font-family="Nunito" font-size="25" lengthAdjust="spacingAndGlyphs" textLength="126.5625" x="2607.8125" y="211.1938">ViewModel</text><line style="stroke: #A80036; stroke-width: 2.34375;" x1="2564.0625" x2="2737.5" y1="227.5391" y2="227.5391"/><ellipse cx="2579.6875" cy="244.7266" fill="none" rx="4.6875" ry="4.6875" style="stroke: #038048; stroke-width: 1.5625;"/><text fill="#000000" font-family="Nunito" font-size="25" lengthAdjust="spacingAndGlyphs" textLength="53.125" x="2593.75" y="256.9946">data</text><line style="stroke: #A80036; stroke-width: 2.34375;" x1="2564.0625" x2="2737.5" y1="269.1406" y2="269.1406"/><!--MD5=[521817ab83e81da341a3f4b5e91bae41]
class Command--><rect fill="#FEFECE" height="133.2031" id="Command" style="stroke: #A80036; stroke-width: 2.34375;" width="203.125" x="255.4688" y="475.1953"/><ellipse cx="291.5625" cy="500.1953" fill="#ADD1B2" rx="17.1875" ry="17.1875" style="stroke: #A80036; stroke-width: 1.5625;"/><path d="M295.3955,509.0332 Q294.541,509.4727 293.5889,509.6924 Q292.6611,509.9365 291.6113,509.9365 Q287.9248,509.9365 285.9717,507.4951 Q284.043,505.0537 284.043,500.4639 Q284.043,495.874 285.9717,493.457 Q287.9248,491.0156 291.6113,491.0156 Q292.6611,491.0156 293.6133,491.2354 Q294.5654,491.4551 295.3955,491.8945 L295.3955,495.8984 Q294.4678,495.0439 293.5889,494.6533 Q292.71,494.2383 291.7822,494.2383 Q289.8047,494.2383 288.8037,495.8252 Q287.8027,497.3877 287.8027,500.4639 Q287.8027,503.54 288.8037,505.127 Q289.8047,506.6895 291.7822,506.6895 Q292.71,506.6895 293.5889,506.2988 Q294.4678,505.8838 295.3955,505.0293 L295.3955,509.0332 Z "/><text fill="#000000" font-family="Nunito" font-size="25" lengthAdjust="spacingAndGlyphs" textLength="125" x="316.25" y="508.8501">Command</text><line style="stroke: #A80036; stroke-width: 2.34375;" x1="257.0313" x2="457.0313" y1="525.1953" y2="525.1953"/><ellipse cx="272.6563" cy="542.3828" fill="none" rx="4.6875" ry="4.6875" style="stroke: #038048; stroke-width: 1.5625;"/><text fill="#000000" font-family="Nunito" font-size="25" lengthAdjust="spacingAndGlyphs" textLength="125" x="286.7188" y="554.6509">properties</text><line style="stroke: #A80036; stroke-width: 2.34375;" x1="257.0313" x2="457.0313" y1="566.7969" y2="566.7969"/><ellipse cx="272.6563" cy="583.9844" fill="#84BE84" rx="4.6875" ry="4.6875" style="stroke: #038048; stroke-width: 1.5625;"/><text fill="#000000" font-family="Nunito" font-size="25" lengthAdjust="spacingAndGlyphs" textLength="162.5" x="286.7188" y="596.2524">__construct()</text><!--MD5=[a3624a2a5a43b8ade92fe710669ccfb9]
class CommandHandler--><rect fill="#FEFECE" height="133.2031" id="CommandHandler" style="stroke: #A80036; stroke-width: 2.34375;" width="370.3125" x="429.6875" y="783.7891"/><ellipse cx="498.8281" cy="808.7891" fill="#ADD1B2" rx="17.1875" ry="17.1875" style="stroke: #A80036; stroke-width: 1.5625;"/><path d="M502.6611,817.627 Q501.8066,818.0664 500.8545,818.2861 Q499.9268,818.5303 498.877,818.5303 Q495.1904,818.5303 493.2373,816.0889 Q491.3086,813.6475 491.3086,809.0576 Q491.3086,804.4678 493.2373,802.0508 Q495.1904,799.6094 498.877,799.6094 Q499.9268,799.6094 500.8789,799.8291 Q501.8311,800.0488 502.6611,800.4883 L502.6611,804.4922 Q501.7334,803.6377 500.8545,803.2471 Q499.9756,802.832 499.0479,802.832 Q497.0703,802.832 496.0693,804.4189 Q495.0684,805.9814 495.0684,809.0576 Q495.0684,812.1338 496.0693,813.7207 Q497.0703,815.2832 499.0479,815.2832 Q499.9756,815.2832 500.8545,814.8926 Q501.7334,814.4775 502.6611,813.623 L502.6611,817.627 Z "/><text fill="#000000" font-family="Nunito" font-size="25" lengthAdjust="spacingAndGlyphs" textLength="218.75" x="530.8594" y="817.4438">CommandHandler</text><line style="stroke: #A80036; stroke-width: 2.34375;" x1="431.25" x2="798.4375" y1="833.7891" y2="833.7891"/><line style="stroke: #A80036; stroke-width: 2.34375;" x1="431.25" x2="798.4375" y1="846.2891" y2="846.2891"/><ellipse cx="446.875" cy="863.4766" fill="#84BE84" rx="4.6875" ry="4.6875" style="stroke: #038048; stroke-width: 1.5625;"/><text fill="#000000" font-family="Nunito" font-size="25" lengthAdjust="spacingAndGlyphs" textLength="329.6875" x="460.9375" y="875.7446">__construct(dependencies)</text><ellipse cx="446.875" cy="892.5781" fill="#84BE84" rx="4.6875" ry="4.6875" style="stroke: #038048; stroke-width: 1.5625;"/><text fill="#000000" font-family="Nunito" font-size="25" lengthAdjust="spacingAndGlyphs" textLength="312.5" x="460.9375" y="904.8462">__invoke(Command): void</text><!--MD5=[bd9674495545fc574986ddeabb8ed457]
class CommandBus--><rect fill="#FEFECE" height="104.1016" id="CommandBus" style="stroke: #A80036; stroke-width: 2.34375;" width="287.5" x="513.2813" y="489.2578"/><ellipse cx="566.25" cy="514.2578" fill="#ADD1B2" rx="17.1875" ry="17.1875" style="stroke: #A80036; stroke-width: 1.5625;"/><path d="M570.083,523.0957 Q569.2285,523.5352 568.2764,523.7549 Q567.3486,523.999 566.2988,523.999 Q562.6123,523.999 560.6592,521.5576 Q558.7305,519.1162 558.7305,514.5264 Q558.7305,509.9365 560.6592,507.5195 Q562.6123,505.0781 566.2988,505.0781 Q567.3486,505.0781 568.3008,505.2979 Q569.2529,505.5176 570.083,505.957 L570.083,509.9609 Q569.1553,509.1064 568.2764,508.7158 Q567.3975,508.3008 566.4697,508.3008 Q564.4922,508.3008 563.4912,509.8877 Q562.4902,511.4502 562.4902,514.5264 Q562.4902,517.6025 563.4912,519.1895 Q564.4922,520.752 566.4697,520.752 Q567.3975,520.752 568.2764,520.3613 Q569.1553,519.9463 570.083,519.0918 L570.083,523.0957 Z "/><text fill="#000000" font-family="Nunito" font-size="25" lengthAdjust="spacingAndGlyphs" textLength="171.875" x="594.6875" y="522.9126">CommandBus</text><line style="stroke: #A80036; stroke-width: 2.34375;" x1="514.8438" x2="799.2188" y1="539.2578" y2="539.2578"/><line style="stroke: #A80036; stroke-width: 2.34375;" x1="514.8438" x2="799.2188" y1="551.7578" y2="551.7578"/><ellipse cx="530.4688" cy="568.9453" fill="#84BE84" rx="4.6875" ry="4.6875" style="stroke: #038048; stroke-width: 1.5625;"/><text fill="#000000" font-family="Nunito" font-size="25" lengthAdjust="spacingAndGlyphs" textLength="246.875" x="544.5313" y="581.2134">dispatch(Command)</text><!--MD5=[91221848cc6fc2b51471cfb300e81a0a]
class Query--><rect fill="#FEFECE" height="133.2031" id="Query" style="stroke: #A80036; stroke-width: 2.34375;" width="203.125" x="2402.3438" y="475.1953"/><ellipse cx="2460.9375" cy="500.1953" fill="#ADD1B2" rx="17.1875" ry="17.1875" style="stroke: #A80036; stroke-width: 1.5625;"/><path d="M2464.7705,509.0332 Q2463.916,509.4727 2462.9639,509.6924 Q2462.0361,509.9365 2460.9863,509.9365 Q2457.2998,509.9365 2455.3467,507.4951 Q2453.418,505.0537 2453.418,500.4639 Q2453.418,495.874 2455.3467,493.457 Q2457.2998,491.0156 2460.9863,491.0156 Q2462.0361,491.0156 2462.9883,491.2354 Q2463.9404,491.4551 2464.7705,491.8945 L2464.7705,495.8984 Q2463.8428,495.0439 2462.9639,494.6533 Q2462.085,494.2383 2461.1572,494.2383 Q2459.1797,494.2383 2458.1787,495.8252 Q2457.1777,497.3877 2457.1777,500.4639 Q2457.1777,503.54 2458.1787,505.127 Q2459.1797,506.6895 2461.1572,506.6895 Q2462.085,506.6895 2462.9639,506.2988 Q2463.8428,505.8838 2464.7705,505.0293 L2464.7705,509.0332 Z "/><text fill="#000000" font-family="Nunito" font-size="25" lengthAdjust="spacingAndGlyphs" textLength="75" x="2490.625" y="508.8501">Query</text><line style="stroke: #A80036; stroke-width: 2.34375;" x1="2403.9063" x2="2603.9063" y1="525.1953" y2="525.1953"/><ellipse cx="2419.5313" cy="542.3828" fill="none" rx="4.6875" ry="4.6875" style="stroke: #038048; stroke-width: 1.5625;"/><text fill="#000000" font-family="Nunito" font-size="25" lengthAdjust="spacingAndGlyphs" textLength="125" x="2433.5938" y="554.6509">properties</text><line style="stroke: #A80036; stroke-width: 2.34375;" x1="2403.9063" x2="2603.9063" y1="566.7969" y2="566.7969"/><ellipse cx="2419.5313" cy="583.9844" fill="#84BE84" rx="4.6875" ry="4.6875" style="stroke: #038048; stroke-width: 1.5625;"/><text fill="#000000" font-family="Nunito" font-size="25" lengthAdjust="spacingAndGlyphs" textLength="162.5" x="2433.5938" y="596.2524">__construct()</text><!--MD5=[2a3987db585debb330b83900adf16012]
class QueryHandler--><rect fill="#FEFECE" height="133.2031" id="QueryHandler" style="stroke: #A80036; stroke-width: 2.34375;" width="393.75" x="2160.1563" y="783.7891"/><ellipse cx="2266.0156" cy="808.7891" fill="#ADD1B2" rx="17.1875" ry="17.1875" style="stroke: #A80036; stroke-width: 1.5625;"/><path d="M2269.8486,817.627 Q2268.9941,818.0664 2268.042,818.2861 Q2267.1143,818.5303 2266.0645,818.5303 Q2262.3779,818.5303 2260.4248,816.0889 Q2258.4961,813.6475 2258.4961,809.0576 Q2258.4961,804.4678 2260.4248,802.0508 Q2262.3779,799.6094 2266.0645,799.6094 Q2267.1143,799.6094 2268.0664,799.8291 Q2269.0186,800.0488 2269.8486,800.4883 L2269.8486,804.4922 Q2268.9209,803.6377 2268.042,803.2471 Q2267.1631,802.832 2266.2354,802.832 Q2264.2578,802.832 2263.2568,804.4189 Q2262.2559,805.9814 2262.2559,809.0576 Q2262.2559,812.1338 2263.2568,813.7207 Q2264.2578,815.2832 2266.2354,815.2832 Q2267.1631,815.2832 2268.042,814.8926 Q2268.9209,814.4775 2269.8486,813.623 L2269.8486,817.627 Z "/><text fill="#000000" font-family="Nunito" font-size="25" lengthAdjust="spacingAndGlyphs" textLength="168.75" x="2298.0469" y="817.4438">QueryHandler</text><line style="stroke: #A80036; stroke-width: 2.34375;" x1="2161.7188" x2="2552.3438" y1="833.7891" y2="833.7891"/><line style="stroke: #A80036; stroke-width: 2.34375;" x1="2161.7188" x2="2552.3438" y1="846.2891" y2="846.2891"/><ellipse cx="2177.3438" cy="863.4766" fill="#84BE84" rx="4.6875" ry="4.6875" style="stroke: #038048; stroke-width: 1.5625;"/><text fill="#000000" font-family="Nunito" font-size="25" lengthAdjust="spacingAndGlyphs" textLength="329.6875" x="2191.4063" y="875.7446">__construct(dependencies)</text><ellipse cx="2177.3438" cy="892.5781" fill="#84BE84" rx="4.6875" ry="4.6875" style="stroke: #038048; stroke-width: 1.5625;"/><text fill="#000000" font-family="Nunito" font-size="25" lengthAdjust="spacingAndGlyphs" textLength="353.125" x="2191.4063" y="904.8462">__invoke(Query): ?ViewModel</text><!--MD5=[12680f9dc6009799af67943c9d14e13d]
class QueryBus--><rect fill="#FEFECE" height="104.1016" id="QueryBus" style="stroke: #A80036; stroke-width: 2.34375;" width="237.5" x="2110.1563" y="489.2578"/><ellipse cx="2163.125" cy="514.2578" fill="#ADD1B2" rx="17.1875" ry="17.1875" style="stroke: #A80036; stroke-width: 1.5625;"/><path d="M2166.958,523.0957 Q2166.1035,523.5352 2165.1514,523.7549 Q2164.2236,523.999 2163.1738,523.999 Q2159.4873,523.999 2157.5342,521.5576 Q2155.6055,519.1162 2155.6055,514.5264 Q2155.6055,509.9365 2157.5342,507.5195 Q2159.4873,505.0781 2163.1738,505.0781 Q2164.2236,505.0781 2165.1758,505.2979 Q2166.1279,505.5176 2166.958,505.957 L2166.958,509.9609 Q2166.0303,509.1064 2165.1514,508.7158 Q2164.2725,508.3008 2163.3447,508.3008 Q2161.3672,508.3008 2160.3662,509.8877 Q2159.3652,511.4502 2159.3652,514.5264 Q2159.3652,517.6025 2160.3662,519.1895 Q2161.3672,520.752 2163.3447,520.752 Q2164.2725,520.752 2165.1514,520.3613 Q2166.0303,519.9463 2166.958,519.0918 L2166.958,523.0957 Z "/><text fill="#000000" font-family="Nunito" font-size="25" lengthAdjust="spacingAndGlyphs" textLength="121.875" x="2191.5625" y="522.9126">QueryBus</text><line style="stroke: #A80036; stroke-width: 2.34375;" x1="2111.7188" x2="2346.0938" y1="539.2578" y2="539.2578"/><line style="stroke: #A80036; stroke-width: 2.34375;" x1="2111.7188" x2="2346.0938" y1="551.7578" y2="551.7578"/><ellipse cx="2127.3438" cy="568.9453" fill="#84BE84" rx="4.6875" ry="4.6875" style="stroke: #038048; stroke-width: 1.5625;"/><text fill="#000000" font-family="Nunito" font-size="25" lengthAdjust="spacingAndGlyphs" textLength="196.875" x="2141.4063" y="581.2134">dispatch(Query)</text><!--MD5=[be996cdb8e6bf2fc7cb89c555f2cd144]
class Entity--><rect fill="#FEFECE" height="104.1016" id="Entity" style="stroke: #A80036; stroke-width: 2.34375;" width="167.1875" x="393.75" y="1121.2891"/><ellipse cx="438.9844" cy="1146.2891" fill="#ADD1B2" rx="17.1875" ry="17.1875" style="stroke: #A80036; stroke-width: 1.5625;"/><path d="M442.8174,1155.127 Q441.9629,1155.5664 441.0107,1155.7861 Q440.083,1156.0303 439.0332,1156.0303 Q435.3467,1156.0303 433.3936,1153.5889 Q431.4648,1151.1475 431.4648,1146.5576 Q431.4648,1141.9678 433.3936,1139.5508 Q435.3467,1137.1094 439.0332,1137.1094 Q440.083,1137.1094 441.0352,1137.3291 Q441.9873,1137.5488 442.8174,1137.9883 L442.8174,1141.9922 Q441.8896,1141.1377 441.0107,1140.7471 Q440.1318,1140.332 439.2041,1140.332 Q437.2266,1140.332 436.2256,1141.9189 Q435.2246,1143.4814 435.2246,1146.5576 Q435.2246,1149.6338 436.2256,1151.2207 Q437.2266,1152.7832 439.2041,1152.7832 Q440.1318,1152.7832 441.0107,1152.3926 Q441.8896,1151.9775 442.8174,1151.123 L442.8174,1155.127 Z "/><text fill="#000000" font-family="Nunito" font-size="25" lengthAdjust="spacingAndGlyphs" textLength="68.75" x="465.7031" y="1154.9438">Entity</text><line style="stroke: #A80036; stroke-width: 2.34375;" x1="395.3125" x2="559.375" y1="1171.2891" y2="1171.2891"/><line style="stroke: #A80036; stroke-width: 2.34375;" x1="395.3125" x2="559.375" y1="1183.7891" y2="1183.7891"/><ellipse cx="410.9375" cy="1200.9766" fill="#84BE84" rx="4.6875" ry="4.6875" style="stroke: #038048; stroke-width: 1.5625;"/><text fill="#000000" font-family="Nunito" font-size="25" lengthAdjust="spacingAndGlyphs" textLength="126.5625" x="425" y="1213.2446">methods()</text><!--MD5=[c05f8d4c5007184b0fb1ea93cdb8d9fe]
class Repository--><rect fill="#FEFECE" height="162.3047" id="Repository" style="stroke: #A80036; stroke-width: 2.34375;" width="184.375" x="616.4063" y="1092.3828"/><ellipse cx="641.25" cy="1117.3828" fill="#ADD1B2" rx="17.1875" ry="17.1875" style="stroke: #A80036; stroke-width: 1.5625;"/><path d="M645.083,1126.2207 Q644.2285,1126.6602 643.2764,1126.8799 Q642.3486,1127.124 641.2988,1127.124 Q637.6123,1127.124 635.6592,1124.6826 Q633.7305,1122.2412 633.7305,1117.6514 Q633.7305,1113.0615 635.6592,1110.6445 Q637.6123,1108.2031 641.2988,1108.2031 Q642.3486,1108.2031 643.3008,1108.4229 Q644.2529,1108.6426 645.083,1109.082 L645.083,1113.0859 Q644.1553,1112.2314 643.2764,1111.8408 Q642.3975,1111.4258 641.4697,1111.4258 Q639.4922,1111.4258 638.4912,1113.0127 Q637.4902,1114.5752 637.4902,1117.6514 Q637.4902,1120.7275 638.4912,1122.3145 Q639.4922,1123.877 641.4697,1123.877 Q642.3975,1123.877 643.2764,1123.4863 Q644.1553,1123.0713 645.083,1122.2168 L645.083,1126.2207 Z "/><text fill="#000000" font-family="Nunito" font-size="25" lengthAdjust="spacingAndGlyphs" textLength="131.25" x="663.4375" y="1126.0376">Repository</text><line style="stroke: #A80036; stroke-width: 2.34375;" x1="617.9688" x2="799.2188" y1="1142.3828" y2="1142.3828"/><text fill="#000000" font-family="Nunito" font-size="25" lengthAdjust="spacingAndGlyphs" textLength="137.5" x="625.7813" y="1171.8384">«interface»</text><line style="stroke: #A80036; stroke-width: 2.34375;" x1="617.9688" x2="799.2188" y1="1183.9844" y2="1183.9844"/><ellipse cx="633.5938" cy="1201.1719" fill="#84BE84" rx="4.6875" ry="4.6875" style="stroke: #038048; stroke-width: 1.5625;"/><text fill="#000000" font-family="Nunito" font-size="25" lengthAdjust="spacingAndGlyphs" textLength="143.75" x="647.6563" y="1213.4399">save(Entity)</text><ellipse cx="633.5938" cy="1230.2734" fill="#84BE84" rx="4.6875" ry="4.6875" style="stroke: #038048; stroke-width: 1.5625;"/><text fill="#000000" font-family="Nunito" font-size="25" lengthAdjust="spacingAndGlyphs" textLength="139.0625" x="647.6563" y="1242.5415">findById(id)</text><!--MD5=[f05baac85afee086abd0a6acb4246613]
class DomainEvent--><rect fill="#FEFECE" height="104.1016" id="DomainEvent" style="stroke: #A80036; stroke-width: 2.34375;" width="210.9375" x="395.3125" y="1393.1641"/><ellipse cx="418.75" cy="1418.1641" fill="#ADD1B2" rx="17.1875" ry="17.1875" style="stroke: #A80036; stroke-width: 1.5625;"/><path d="M422.583,1427.002 Q421.7285,1427.4414 420.7764,1427.6611 Q419.8486,1427.9053 418.7988,1427.9053 Q415.1123,1427.9053 413.1592,1425.4639 Q411.2305,1423.0225 411.2305,1418.4326 Q411.2305,1413.8428 413.1592,1411.4258 Q415.1123,1408.9844 418.7988,1408.9844 Q419.8486,1408.9844 420.8008,1409.2041 Q421.7529,1409.4238 422.583,1409.8633 L422.583,1413.8672 Q421.6553,1413.0127 420.7764,1412.6221 Q419.8975,1412.207 418.9697,1412.207 Q416.9922,1412.207 415.9912,1413.7939 Q414.9902,1415.3564 414.9902,1418.4326 Q414.9902,1421.5088 415.9912,1423.0957 Q416.9922,1424.6582 418.9697,1424.6582 Q419.8975,1424.6582 420.7764,1424.2676 Q421.6553,1423.8525 422.583,1422.998 L422.583,1427.002 Z "/><text fill="#000000" font-family="Nunito" font-size="25" lengthAdjust="spacingAndGlyphs" textLength="160.9375" x="440.625" y="1426.8188">DomainEvent</text><line style="stroke: #A80036; stroke-width: 2.34375;" x1="396.875" x2="604.6875" y1="1443.1641" y2="1443.1641"/><ellipse cx="412.5" cy="1460.3516" fill="none" rx="4.6875" ry="4.6875" style="stroke: #038048; stroke-width: 1.5625;"/><text fill="#000000" font-family="Nunito" font-size="25" lengthAdjust="spacingAndGlyphs" textLength="125" x="426.5625" y="1472.6196">properties</text><line style="stroke: #A80036; stroke-width: 2.34375;" x1="396.875" x2="604.6875" y1="1484.7656" y2="1484.7656"/><!--MD5=[da3e66946c76d3cfbb5871a69193a36c]
class DoctrineRepository--><rect fill="#FEFECE" height="162.3047" id="DoctrineRepository" style="stroke: #A80036; stroke-width: 2.34375;" width="503.125" x="888.2813" y="768.9453"/><ellipse cx="1016.0156" cy="793.9453" fill="#ADD1B2" rx="17.1875" ry="17.1875" style="stroke: #A80036; stroke-width: 1.5625;"/><path d="M1019.8486,802.7832 Q1018.9941,803.2227 1018.042,803.4424 Q1017.1143,803.6865 1016.0645,803.6865 Q1012.3779,803.6865 1010.4248,801.2451 Q1008.4961,798.8037 1008.4961,794.2139 Q1008.4961,789.624 1010.4248,787.207 Q1012.3779,784.7656 1016.0645,784.7656 Q1017.1143,784.7656 1018.0664,784.9854 Q1019.0186,785.2051 1019.8486,785.6445 L1019.8486,789.6484 Q1018.9209,788.7939 1018.042,788.4033 Q1017.1631,787.9883 1016.2354,787.9883 Q1014.2578,787.9883 1013.2568,789.5752 Q1012.2559,791.1377 1012.2559,794.2139 Q1012.2559,797.29 1013.2568,798.877 Q1014.2578,800.4395 1016.2354,800.4395 Q1017.1631,800.4395 1018.042,800.0488 Q1018.9209,799.6338 1019.8486,798.7793 L1019.8486,802.7832 Z "/><text fill="#000000" font-family="Nunito" font-size="25" lengthAdjust="spacingAndGlyphs" textLength="234.375" x="1048.0469" y="802.6001">DoctrineRepository</text><line style="stroke: #A80036; stroke-width: 2.34375;" x1="889.8438" x2="1389.8438" y1="818.9453" y2="818.9453"/><rect fill="none" height="9.375" style="stroke: #C82930; stroke-width: 1.5625;" width="9.375" x="900.7813" y="831.4453"/><text fill="#000000" font-family="Nunito" font-size="25" lengthAdjust="spacingAndGlyphs" textLength="462.5" x="919.5313" y="848.4009">EntityManagerInterface entityManager</text><line style="stroke: #A80036; stroke-width: 2.34375;" x1="889.8438" x2="1389.8438" y1="860.5469" y2="860.5469"/><ellipse cx="905.4688" cy="877.7344" fill="#84BE84" rx="4.6875" ry="4.6875" style="stroke: #038048; stroke-width: 1.5625;"/><text fill="#000000" font-family="Nunito" font-size="25" lengthAdjust="spacingAndGlyphs" textLength="143.75" x="919.5313" y="890.0024">save(Entity)</text><ellipse cx="905.4688" cy="906.8359" fill="#84BE84" rx="4.6875" ry="4.6875" style="stroke: #038048; stroke-width: 1.5625;"/><text fill="#000000" font-family="Nunito" font-size="25" lengthAdjust="spacingAndGlyphs" textLength="139.0625" x="919.5313" y="919.104">findById(id)</text><!--MD5=[f4a2868378292da9ace492ddea590ca3]
class MessengerComponent--><rect fill="#FEFECE" height="133.2031" id="MessengerComponent" style="stroke: #A80036; stroke-width: 2.34375;" width="325" x="1446.0938" y="783.7891"/><ellipse cx="1469.5313" cy="808.7891" fill="#ADD1B2" rx="17.1875" ry="17.1875" style="stroke: #A80036; stroke-width: 1.5625;"/><path d="M1473.3643,817.627 Q1472.5098,818.0664 1471.5576,818.2861 Q1470.6299,818.5303 1469.5801,818.5303 Q1465.8936,818.5303 1463.9404,816.0889 Q1462.0117,813.6475 1462.0117,809.0576 Q1462.0117,804.4678 1463.9404,802.0508 Q1465.8936,799.6094 1469.5801,799.6094 Q1470.6299,799.6094 1471.582,799.8291 Q1472.5342,800.0488 1473.3643,800.4883 L1473.3643,804.4922 Q1472.4365,803.6377 1471.5576,803.2471 Q1470.6787,802.832 1469.751,802.832 Q1467.7734,802.832 1466.7725,804.4189 Q1465.7715,805.9814 1465.7715,809.0576 Q1465.7715,812.1338 1466.7725,813.7207 Q1467.7734,815.2832 1469.751,815.2832 Q1470.6787,815.2832 1471.5576,814.8926 Q1472.4365,814.4775 1473.3643,813.623 L1473.3643,817.627 Z "/><text fill="#000000" font-family="Nunito" font-size="25" lengthAdjust="spacingAndGlyphs" textLength="275" x="1491.4063" y="817.4438">MessengerComponent</text><line style="stroke: #A80036; stroke-width: 2.34375;" x1="1447.6563" x2="1769.5313" y1="833.7891" y2="833.7891"/><line style="stroke: #A80036; stroke-width: 2.34375;" x1="1447.6563" x2="1769.5313" y1="846.2891" y2="846.2891"/><ellipse cx="1463.2813" cy="863.4766" fill="#84BE84" rx="4.6875" ry="4.6875" style="stroke: #038048; stroke-width: 1.5625;"/><text fill="#000000" font-family="Nunito" font-size="25" lengthAdjust="spacingAndGlyphs" textLength="207.8125" x="1477.3438" y="875.7446">handle(message)</text><ellipse cx="1463.2813" cy="892.5781" fill="#84BE84" rx="4.6875" ry="4.6875" style="stroke: #038048; stroke-width: 1.5625;"/><text fill="#000000" font-family="Nunito" font-size="25" lengthAdjust="spacingAndGlyphs" textLength="193.75" x="1477.3438" y="904.8462">route(message)</text><!--MD5=[ea193e58bf01a8bb640ee5c4ebd1a9a0]
class Transport--><rect fill="#FEFECE" height="133.2031" id="Transport" style="stroke: #A80036; stroke-width: 2.34375;" width="170.3125" x="1523.4375" y="1107.2266"/><ellipse cx="1546.875" cy="1132.2266" fill="#ADD1B2" rx="17.1875" ry="17.1875" style="stroke: #A80036; stroke-width: 1.5625;"/><path d="M1550.708,1141.0645 Q1549.8535,1141.5039 1548.9014,1141.7236 Q1547.9736,1141.9678 1546.9238,1141.9678 Q1543.2373,1141.9678 1541.2842,1139.5264 Q1539.3555,1137.085 1539.3555,1132.4951 Q1539.3555,1127.9053 1541.2842,1125.4883 Q1543.2373,1123.0469 1546.9238,1123.0469 Q1547.9736,1123.0469 1548.9258,1123.2666 Q1549.8779,1123.4863 1550.708,1123.9258 L1550.708,1127.9297 Q1549.7803,1127.0752 1548.9014,1126.6846 Q1548.0225,1126.2695 1547.0947,1126.2695 Q1545.1172,1126.2695 1544.1162,1127.8564 Q1543.1152,1129.4189 1543.1152,1132.4951 Q1543.1152,1135.5713 1544.1162,1137.1582 Q1545.1172,1138.7207 1547.0947,1138.7207 Q1548.0225,1138.7207 1548.9014,1138.3301 Q1549.7803,1137.915 1550.708,1137.0605 L1550.708,1141.0645 Z "/><text fill="#000000" font-family="Nunito" font-size="25" lengthAdjust="spacingAndGlyphs" textLength="120.3125" x="1568.75" y="1140.8813">Transport</text><line style="stroke: #A80036; stroke-width: 2.34375;" x1="1525" x2="1692.1875" y1="1157.2266" y2="1157.2266"/><ellipse cx="1540.625" cy="1174.4141" fill="none" rx="4.6875" ry="4.6875" style="stroke: #038048; stroke-width: 1.5625;"/><text fill="#000000" font-family="Nunito" font-size="25" lengthAdjust="spacingAndGlyphs" textLength="57.8125" x="1554.6875" y="1186.6821">sync</text><ellipse cx="1540.625" cy="1203.5156" fill="none" rx="4.6875" ry="4.6875" style="stroke: #038048; stroke-width: 1.5625;"/><text fill="#000000" font-family="Nunito" font-size="25" lengthAdjust="spacingAndGlyphs" textLength="71.875" x="1554.6875" y="1215.7837">async</text><line style="stroke: #A80036; stroke-width: 2.34375;" x1="1525" x2="1692.1875" y1="1227.9297" y2="1227.9297"/><path d="M9.375,798.6328 L9.375,901.5625 A0,0 0 0 0 9.375,901.5625 L204.6875,901.5625 A0,0 0 0 0 204.6875,901.5625 L204.6875,814.2578 L189.0625,798.6328 L154.4688,798.6328 L303.4063,608.6953 L141.9688,798.6328 L9.375,798.6328 A0,0 0 0 0 9.375,798.6328 " fill="#E6F0FA" style="stroke: #005A9C; stroke-width: 1.5625;"/><path d="M189.0625,798.6328 L189.0625,814.2578 L204.6875,814.2578 L189.0625,798.6328 " fill="#E6F0FA" style="stroke: #005A9C; stroke-width: 1.5625;"/><text fill="#000000" font-family="Nunito" font-size="25" lengthAdjust="spacingAndGlyphs" textLength="157.8125" x="18.75" y="829.6509">RegisterUser</text><text fill="#000000" font-family="Nunito" font-size="25" lengthAdjust="spacingAndGlyphs" textLength="151.5625" x="18.75" y="858.7524">CreateOrder</text><text fill="#000000" font-family="Nunito" font-size="25" lengthAdjust="spacingAndGlyphs" textLength="162.5" x="18.75" y="887.854">UpdateProfile</text><path d="M1825.7813,798.6328 L1825.7813,901.5625 L2060.1563,901.5625 L2060.1563,814.2578 L2044.5313,798.6328 L1825.7813,798.6328 " fill="#E6F0FA" style="stroke: #005A9C; stroke-width: 1.5625;"/><path d="M2044.5313,798.6328 L2044.5313,814.2578 L2060.1563,814.2578 L2044.5313,798.6328 " fill="#E6F0FA" style="stroke: #005A9C; stroke-width: 1.5625;"/><text fill="#000000" font-family="Nunito" font-size="25" lengthAdjust="spacingAndGlyphs" textLength="175" x="1835.1563" y="829.6509">GetUserProfile</text><text fill="#000000" font-family="Nunito" font-size="25" lengthAdjust="spacingAndGlyphs" textLength="201.5625" x="1835.1563" y="858.7524">GetOrderHistory</text><text fill="#000000" font-family="Nunito" font-size="25" lengthAdjust="spacingAndGlyphs" textLength="160.9375" x="1835.1563" y="887.854">FindProducts</text><path d="M2656.25,798.6328 L2656.25,901.5625 L3092.1875,901.5625 L3092.1875,814.2578 L3076.5625,798.6328 L2656.25,798.6328 " fill="#E6F0FA" style="stroke: #005A9C; stroke-width: 1.5625;"/><path d="M3076.5625,798.6328 L3076.5625,814.2578 L3092.1875,814.2578 L3076.5625,798.6328 " fill="#E6F0FA" style="stroke: #005A9C; stroke-width: 1.5625;"/><text fill="#000000" font-family="Nunito" font-size="25" lengthAdjust="spacingAndGlyphs" textLength="403.125" x="2665.625" y="829.6509">Asynchronní zpracování (možné)</text><text fill="#000000" font-family="Nunito" font-size="25" lengthAdjust="spacingAndGlyphs" textLength="226.5625" x="2665.625" y="858.7524">Mění stav systému</text><text fill="#000000" font-family="Nunito" font-size="25" lengthAdjust="spacingAndGlyphs" textLength="151.5625" x="2665.625" y="887.854">Nevrací data</text><path d="M3146.875,798.6328 L3146.875,901.5625 L3457.8125,901.5625 L3457.8125,814.2578 L3442.1875,798.6328 L3146.875,798.6328 " fill="#E6F0FA" style="stroke: #005A9C; stroke-width: 1.5625;"/><path d="M3442.1875,798.6328 L3442.1875,814.2578 L3457.8125,814.2578 L3442.1875,798.6328 " fill="#E6F0FA" style="stroke: #005A9C; stroke-width: 1.5625;"/><text fill="#000000" font-family="Nunito" font-size="25" lengthAdjust="spacingAndGlyphs" textLength="278.125" x="3156.25" y="829.6509">Synchronní zpracování</text><text fill="#000000" font-family="Nunito" font-size="25" lengthAdjust="spacingAndGlyphs" textLength="215.625" x="3156.25" y="858.7524">Nemodifikuje data</text><text fill="#000000" font-family="Nunito" font-size="25" lengthAdjust="spacingAndGlyphs" textLength="195.3125" x="3156.25" y="887.854">Vrací ViewModel</text><path d="M1396.875,1379.8828 L1396.875,1511.9141 A0,0 0 0 0 1396.875,1511.9141 L1820.3125,1511.9141 A0,0 0 0 0 1820.3125,1511.9141 L1820.3125,1395.5078 L1804.6875,1379.8828 L1614.8438,1379.8828 L1608.5938,1240.2578 L1602.3438,1379.8828 L1396.875,1379.8828 A0,0 0 0 0 1396.875,1379.8828 " fill="#E6F0FA" style="stroke: #005A9C; stroke-width: 1.5625;"/><path d="M1804.6875,1379.8828 L1804.6875,1395.5078 L1820.3125,1395.5078 L1804.6875,1379.8828 " fill="#E6F0FA" style="stroke: #005A9C; stroke-width: 1.5625;"/><text fill="#000000" font-family="Nunito" font-size="25" lengthAdjust="spacingAndGlyphs" textLength="390.625" x="1406.25" y="1410.9009">sync://    - Synchronní transport</text><text fill="#000000" font-family="Nunito" font-size="25" lengthAdjust="spacingAndGlyphs" textLength="375" x="1406.25" y="1440.0024">doctrine:// - Doctrine transport</text><text fill="#000000" font-family="Nunito" font-size="25" lengthAdjust="spacingAndGlyphs" textLength="320.3125" x="1406.25" y="1469.104">redis://    - Redis transport</text><text fill="#000000" font-family="Nunito" font-size="25" lengthAdjust="spacingAndGlyphs" textLength="381.25" x="1406.25" y="1498.2056">amqp://    - RabbitMQ transport</text><!--MD5=[01327053bbde372995399762fbb80de1]
link Controller to CommandBus--><path d="M1950.6094,286.0859 C1617.7031,351.4453 1072.4219,458.4922 808.9688,510.2109 " fill="none" id="Controller-&gt;CommandBus" style="stroke: #005A9C; stroke-width: 3.125;"/><polygon fill="#005A9C" points="801.25,511.7266,816.2499,515.1647,808.9176,510.2288,813.8535,502.8965,801.25,511.7266" style="stroke: #005A9C; stroke-width: 3.125;"/><text fill="#000000" font-family="Nunito" font-size="25" lengthAdjust="spacingAndGlyphs" textLength="103.125" x="1538.2813" y="385.9009">dispatch</text><!--MD5=[572c3030a330ea1e5a5dd8568d317113]
link Controller to QueryBus--><path d="M2228.9063,311.3203 C2228.9063,364.3203 2228.9063,432.7422 2228.9063,480.8984 " fill="none" id="Controller-&gt;QueryBus" style="stroke: #005A9C; stroke-width: 3.125;"/><polygon fill="#005A9C" points="2228.9063,489.0391,2235.1563,474.9766,2228.9063,481.2266,2222.6563,474.9766,2228.9063,489.0391" style="stroke: #005A9C; stroke-width: 3.125;"/><text fill="#000000" font-family="Nunito" font-size="25" lengthAdjust="spacingAndGlyphs" textLength="103.125" x="2230.4688" y="385.9009">dispatch</text><!--MD5=[935aac1878b79db34ebcb0cfcccc3eae]
link Controller to Command--><path d="M1950.5,235.9141 C1525.5156,246.6172 737.7656,282.7891 486.7188,404.8828 C456.5313,419.5703 429.5938,444.3984 408.2031,468.7891 " fill="none" id="Controller-&gt;Command" style="stroke: #005A9C; stroke-width: 3.125;"/><polygon fill="#005A9C" points="402.875,474.9766,416.7721,468.367,407.9593,469.0449,407.2814,460.2321,402.875,474.9766" style="stroke: #005A9C; stroke-width: 3.125;"/><text fill="#000000" font-family="Nunito" font-size="25" lengthAdjust="spacingAndGlyphs" textLength="90.625" x="589.8438" y="385.9009">creates</text><!--MD5=[5afea8b59a3af9f80288dbc211d0465a]
link Controller to Query--><path d="M2302.6875,311.4297 C2317.6406,327.8047 2333.2031,344.9766 2347.6563,361.1328 C2379.2344,396.4297 2413.9219,436.0703 2442.5781,469.0547 " fill="none" id="Controller-&gt;Query" style="stroke: #005A9C; stroke-width: 3.125;"/><polygon fill="#005A9C" points="2447.8594,475.1328,2443.3344,460.4243,2442.7275,469.2423,2433.9095,468.6354,2447.8594,475.1328" style="stroke: #005A9C; stroke-width: 3.125;"/><text fill="#000000" font-family="Nunito" font-size="25" lengthAdjust="spacingAndGlyphs" textLength="90.625" x="2374.2188" y="385.9009">creates</text><!--MD5=[04fede343880c7c5d0e3ef13559fc049]
link CommandBus to CommandHandler--><path d="M649.9688,594.2891 C643.125,643.8359 632.6875,719.4609 624.9531,775.3828 " fill="none" id="CommandBus-&gt;CommandHandler" style="stroke: #005A9C; stroke-width: 3.125;"/><polygon fill="#005A9C" points="623.8438,783.4922,631.9617,770.4187,624.9142,775.7534,619.5796,768.7059,623.8438,783.4922" style="stroke: #005A9C; stroke-width: 3.125;"/><text fill="#000000" font-family="Nunito" font-size="25" lengthAdjust="spacingAndGlyphs" textLength="112.5" x="641.4063" y="679.6509">routes to</text><!--MD5=[b0124d608cb117427acfa80876d67f97]
link QueryBus to QueryHandler--><path d="M2250.3438,594.2891 C2271.2188,644.0391 2303.1094,720.0859 2326.5938,776.0703 " fill="none" id="QueryBus-&gt;QueryHandler" style="stroke: #005A9C; stroke-width: 3.125;"/><polygon fill="#005A9C" points="2329.7031,783.4922,2330.0468,768.1072,2326.6904,776.284,2318.5136,772.9276,2329.7031,783.4922" style="stroke: #005A9C; stroke-width: 3.125;"/><text fill="#000000" font-family="Nunito" font-size="25" lengthAdjust="spacingAndGlyphs" textLength="112.5" x="2286.7188" y="679.6509">routes to</text><!--MD5=[25d1282f995f1a1b2955162a1de2deab]
link CommandHandler to Entity--><path d="M569.125,916.8516 C556.9688,936.0547 544.5938,957.5078 535.1563,978.3203 C515.375,1021.9297 500.25,1074.0703 490.4531,1113.2734 " fill="none" id="CommandHandler-&gt;Entity" style="stroke: #005A9C; stroke-width: 3.125;"/><polygon fill="#005A9C" points="488.5625,1120.9297,498.0029,1108.7767,490.4363,1113.3452,485.8678,1105.7786,488.5625,1120.9297" style="stroke: #005A9C; stroke-width: 3.125;"/><text fill="#000000" font-family="Nunito" font-size="25" lengthAdjust="spacingAndGlyphs" textLength="101.5625" x="536.7188" y="1003.0884">modifies</text><!--MD5=[65b54138d48f9e1c41e392b300a52a39]
link CommandHandler to Repository--><path d="M634.0469,917.3516 C648.1406,965.4922 667.4219,1031.4141 682.8594,1084.1328 " fill="none" id="CommandHandler-&gt;Repository" style="stroke: #005A9C; stroke-width: 3.125;"/><polygon fill="#005A9C" points="685.0938,1091.8047,687.1562,1076.5547,682.9062,1084.3047,675.1563,1080.0547,685.0938,1091.8047" style="stroke: #005A9C; stroke-width: 3.125;"/><text fill="#000000" font-family="Nunito" font-size="25" lengthAdjust="spacingAndGlyphs" textLength="57.8125" x="660.1563" y="1003.0884">uses</text><!--MD5=[1e4c72bb6fa6cb664f8046bc234ad0a9]
link QueryHandler to Repository--><path d="M2200.1406,916.8047 C2163.8125,930.3828 2125.0313,943.7109 2088.2813,954.1016 C1961.0937,990.0859 1927.6094,996.3047 1796.0938,1009.5703 C1744.5313,1014.7734 911.1875,1002.2891 863.2813,1022.0703 C829.6875,1035.9453 799.3125,1060.8984 774.5625,1086.5078 " fill="none" id="QueryHandler-&gt;Repository" style="stroke: #005A9C; stroke-width: 3.125;"/><polygon fill="#005A9C" points="769.0313,1092.3359,783.2444,1086.4365,774.4086,1086.6685,774.1765,1077.8327,769.0313,1092.3359" style="stroke: #005A9C; stroke-width: 3.125;"/><text fill="#000000" font-family="Nunito" font-size="25" lengthAdjust="spacingAndGlyphs" textLength="57.8125" x="1994.5313" y="1003.0884">uses</text><!--MD5=[8900c6a669fae127bf5f605685b4fc1b]
link QueryHandler to ViewModel--><path d="M2468.7188,783.3359 C2529,741.5078 2598.1406,681.3516 2633.5938,608.0078 C2683.2813,505.1797 2673.2188,367.5703 2661.7656,290.3672 " fill="none" id="QueryHandler-&gt;ViewModel" style="stroke: #005A9C; stroke-width: 3.125;"/><polygon fill="#005A9C" points="2660.5938,282.6328,2656.5451,297.4795,2661.7767,290.3552,2668.9009,295.5868,2660.5938,282.6328" style="stroke: #005A9C; stroke-width: 3.125;"/><text fill="#000000" font-family="Nunito" font-size="25" lengthAdjust="spacingAndGlyphs" textLength="90.625" x="2672.6563" y="550.7446">returns</text><!--MD5=[1f1786ca841fadb27c70c4b42caf7f32]
link DoctrineRepository to Repository--><path d="M996.6094,931.8203 C952.5,958.6016 904.6719,989.8828 863.2813,1022.0703 C844.3906,1036.7578 825.2812,1053.4766 807.25,1070.2891 " fill="none" id="DoctrineRepository-&gt;Repository" style="stroke: #005A9C; stroke-width: 3.125; stroke-dasharray: 7.0,7.0;"/><polygon fill="none" points="814.4063,1078.5703,784.2656,1092.2734,799.2813,1062.7734,814.4063,1078.5703" style="stroke: #005A9C; stroke-width: 3.125;"/><text fill="#000000" font-family="Nunito" font-size="25" lengthAdjust="spacingAndGlyphs" textLength="139.0625" x="921.0938" y="1003.0884">implements</text><!--MD5=[4c178c4b45bb022c46b82294126f37c6]
link MessengerComponent to Transport--><path d="M1608.5938,917.3516 C1608.5938,970.2109 1608.5938,1044.4766 1608.5938,1099.1953 " fill="none" id="MessengerComponent-&gt;Transport" style="stroke: #005A9C; stroke-width: 3.125;"/><polygon fill="#005A9C" points="1608.5938,1107.1172,1614.8438,1093.0547,1608.5938,1099.3047,1602.3438,1093.0547,1608.5938,1107.1172" style="stroke: #005A9C; stroke-width: 3.125;"/><text fill="#000000" font-family="Nunito" font-size="25" lengthAdjust="spacingAndGlyphs" textLength="57.8125" x="1610.1563" y="1003.0884">uses</text><!--MD5=[85bdff631b50b7be17351e5a34951e4a]
link CommandBus to MessengerComponent--><path d="M800.9844,552.4453 C959.1094,567.1328 1217.4531,604.5078 1419.5313,698.6328 C1454.5156,714.9297 1488.7969,738.9141 1518.3594,762.9609 " fill="none" id="CommandBus-&gt;MessengerComponent" style="stroke: #005A9C; stroke-width: 3.125;"/><polygon fill="none" points="1525.7656,754.8828,1542.5156,783.4453,1511.6094,771.5703,1525.7656,754.8828" style="stroke: #005A9C; stroke-width: 3.125;"/><text fill="#000000" font-family="Nunito" font-size="25" lengthAdjust="spacingAndGlyphs" textLength="98.4375" x="1382.0313" y="679.6509">extends</text><!--MD5=[5d944b6aa4cf932d42471e4b393bd30b]
link QueryBus to MessengerComponent--><path d="M2110.0938,574.9609 C2021.2812,601.3516 1898.5625,643.4609 1799.2188,698.6328 C1766.4688,716.8203 1733.4688,740.4766 1704.3438,763.6016 " fill="none" id="QueryBus-&gt;MessengerComponent" style="stroke: #005A9C; stroke-width: 3.125;"/><polygon fill="none" points="1710.9531,772.3203,1679.8437,783.6484,1697.1094,755.3984,1710.9531,772.3203" style="stroke: #005A9C; stroke-width: 3.125;"/><text fill="#000000" font-family="Nunito" font-size="25" lengthAdjust="spacingAndGlyphs" textLength="98.4375" x="1877.3438" y="679.6509">extends</text><!--MD5=[ccced150a74580976657a1348a421578]
link Entity to DomainEvent--><path d="M481.8125,1226.3828 C485.75,1271.5859 491.5,1337.4922 495.6406,1384.9141 " fill="none" id="Entity-&gt;DomainEvent" style="stroke: #005A9C; stroke-width: 3.125;"/><polygon fill="#005A9C" points="496.3281,1392.9609,501.3057,1378.3993,495.6349,1385.1793,488.855,1379.5085,496.3281,1392.9609" style="stroke: #005A9C; stroke-width: 3.125;"/><text fill="#000000" font-family="Nunito" font-size="25" lengthAdjust="spacingAndGlyphs" textLength="90.625" x="491.4063" y="1326.5259">creates</text><!--MD5=[e5e0b8a526da602aece2bae5b7816741]
link Query to GMN39--><path d="M2401.7969,596.7266 C2393.0781,600.7266 2384.3281,604.5391 2375.7813,608.0078 C2250.4063,658.8672 2199.9844,627.0859 2085.1563,698.6328 C2043.4375,724.6328 2005.6406,765.7578 1979.5313,798.3828 " fill="none" id="Query-GMN39" style="stroke: #005A9C; stroke-width: 3.125; stroke-dasharray: 7.0,7.0;"/><!--MD5=[d7f3211487ab01c79b7b927233e4425b]
link CommandHandler to GMN42--><path d="M682.3281,783.4922 C734.3906,736.9922 810.7969,678.8984 890.625,653.3203 C1071.8281,595.2734 2422.1563,594.5391 2603.125,653.3203 C2690.5313,681.7109 2773.3125,750.0547 2823.875,798.2109 " fill="none" id="CommandHandler-GMN42" style="stroke: #005A9C; stroke-width: 3.125; stroke-dasharray: 7.0,7.0;"/><!--MD5=[7967d35f361e6b852173d5d7f8d272d4]
link QueryHandler to GMN45--><path d="M2431.2656,783.3984 C2488.2656,736.8672 2571.3594,678.7422 2656.25,653.3203 C2749.0469,625.5234 3002.0938,617.7109 3092.1875,653.3203 C3165.6563,682.3516 3228.4844,750.5391 3265.8281,798.4922 " fill="none" id="QueryHandler-GMN45" style="stroke: #005A9C; stroke-width: 3.125; stroke-dasharray: 7.0,7.0;"/><!--MD5=[94136e2154b9af73c0b2e8f438bba9fd]
@startuml
skinparam dpi 150
skinparam backgroundColor #FAFAFA
skinparam shadowing false

skinparam defaultFontName "Nunito"
skinparam defaultFontSize 16
skinparam defaultTextAlignment center

skinparam node {
  BackgroundColor #FFFFFF
  BorderColor #005A9C
  BorderThickness 2
}

skinparam component {
  BackgroundColor #FFFFFF
  BorderColor #005A9C
  BorderThickness 2
}

skinparam rectangle {
  BackgroundColor #FFFFFF
  BorderColor #005A9C
  BorderThickness 2
}

skinparam arrowColor #005A9C
skinparam arrowThickness 2

skinparam activity {
  BackgroundColor #FFFFFF
  BorderColor #005A9C
}

skinparam sequence {
  ParticipantBorderColor #005A9C
  LifeLineBorderColor #005A9C
  LifeLineBackgroundColor #E6F0FA
  ParticipantBackgroundColor #FFFFFF
}

skinparam package {
  BackgroundColor #FAFAFA
  BorderColor #005A9C
}

skinparam note {
  BackgroundColor #E6F0FA
  BorderColor #005A9C
}

skinparam title {
  BackgroundColor #FFFFFF
  BorderColor #005A9C
}

skinparam sequenceArrowThickness 2
skinparam sequenceArrowColor #005A9C


title CQRS v Symfony 7

package "Prezentační vrstva" {
  class Controller {
    +action()
    +injectCommandBus(MessageBusInterface)
    +injectQueryBus(MessageBusInterface)
  }
  
  class ViewModel {
    +data
  }
}

package "Aplikační vrstva - Commands" {
  class Command {
    +properties
    +__construct()
  }
  
  class CommandHandler {
    +__construct(dependencies)
    +__invoke(Command): void
  }
  
  class CommandBus {
    +dispatch(Command)
  }
}

package "Aplikační vrstva - Queries" {
  class Query {
    +properties
    +__construct()
  }
  
  class QueryHandler {
    +__construct(dependencies)
    +__invoke(Query): ?ViewModel
  }
  
  class QueryBus {
    +dispatch(Query)
  }
}

package "Doménová vrstva" {
  class Entity {
    +methods()
  }
  
  class Repository {
    <<interface>>
    +save(Entity)
    +findById(id)
  }
  
  class DomainEvent {
    +properties
  }
}

package "Infrastrukturní vrstva" {
  class DoctrineRepository {
    -EntityManagerInterface entityManager
    +save(Entity)
    +findById(id)
  }
  
  class MessengerComponent {
    +handle(message)
    +route(message)
  }
  
  class Transport {
    +sync
    +async
  }
}

Controller - -> CommandBus : dispatch
Controller - -> QueryBus : dispatch
Controller - -> Command : creates
Controller - -> Query : creates
CommandBus - -> CommandHandler : routes to
QueryBus - -> QueryHandler : routes to
CommandHandler - -> Entity : modifies
CommandHandler - -> Repository : uses
QueryHandler - -> Repository : uses
QueryHandler - -> ViewModel : returns
DoctrineRepository ..|> Repository : implements
MessengerComponent - -> Transport : uses
CommandBus - -|> MessengerComponent : extends
QueryBus - -|> MessengerComponent : extends
Entity - -> DomainEvent : creates

note bottom of Command
  RegisterUser
  CreateOrder
  UpdateProfile
end note

note bottom of Query
  GetUserProfile
  GetOrderHistory
  FindProducts
end note

note right of CommandHandler
  Asynchronní zpracování (možné)
  Mění stav systému
  Nevrací data
end note

note right of QueryHandler
  Synchronní zpracování
  Nemodifikuje data
  Vrací ViewModel
end note

note bottom of Transport
  sync://    - Synchronní transport
  doctrine:// - Doctrine transport
  redis://    - Redis transport
  amqp://    - RabbitMQ transport
end note


@enduml

PlantUML version 1.2020.02(Sun Mar 01 11:22:07 CET 2020)
(GPL source distribution)
Java Runtime: OpenJDK Runtime Environment
JVM: OpenJDK 64-Bit Server VM
Java Version: 21.0.10+7-Debian-1deb13u1
Operating System: Linux
Default Encoding: UTF-8
Language: cs
Country: CZ
--></g></svg>