<svg xmlns="http://www.w3.org/2000/svg" xmlns:xlink="http://www.w3.org/1999/xlink" contentStyleType="text/css"
     data-diagram-type="SEQUENCE" preserveAspectRatio="none"
     style="background:#FAFAFA;aspect-ratio:1.348" version="1.1" viewBox="0 0 2735 2029" 
     zoomAndPan="magnify"><?plantuml 1.2026.3beta5?><defs/><g><rect fill="#FAFAFA" height="2029.6875" style="stroke:none;stroke-width:1.5625;" width="2735.9375" x="0" y="0"/><g class="title" data-source-line="52"><text fill="#000000" font-family="'Nunito'" font-size="21.875" font-weight="700" lengthAdjust="spacing" textLength="529.7211" x="1098.2986" y="43.7424">Eventual Consistency &#8212; datov&#253; tok v CQRS</text></g><g><title>Controller</title><rect fill="#E6F0FA" height="497.2656" style="stroke:#181818;stroke-width:1.5625;" width="15.625" x="516.8945" y="323.1201"/></g><g><title>Controller</title><rect fill="#E6F0FA" height="356.8359" style="stroke:#181818;stroke-width:1.5625;" width="15.625" x="516.8945" y="1357.7637"/></g><g><title>Command Bus</title><rect fill="#E6F0FA" height="395.3125" style="stroke:#181818;stroke-width:1.5625;" width="15.625" x="826.0864" y="374.0967"/></g><g><title>Command</title><rect fill="#E6F0FA" height="293.3594" style="stroke:#181818;stroke-width:1.5625;" width="15.625" x="1136.5967" y="425.0732"/></g><g><title>Write DB</title><rect fill="#E6F0FA" height="50.9766" style="stroke:#181818;stroke-width:1.5625;" width="15.625" x="1422.937" y="476.0498"/></g><g><title>Projektor</title><rect fill="#E6F0FA" height="101.9531" style="stroke:#181818;stroke-width:1.5625;" width="15.625" x="1778.8757" y="1013.4277"/></g><g><title>Read DB</title><rect fill="#E6F0FA" height="50.9766" style="stroke:#181818;stroke-width:1.5625;" width="15.625" x="2142.1082" y="1064.4043"/></g><g><title>Read DB</title><rect fill="#E6F0FA" height="50.9766" style="stroke:#181818;stroke-width:1.5625;" width="15.625" x="2142.1082" y="1510.6934"/></g><g><title>Query Bus</title><rect fill="#E6F0FA" height="254.8828" style="stroke:#181818;stroke-width:1.5625;" width="15.625" x="2351.3306" y="1408.7402"/></g><g><title>Query</title><rect fill="#E6F0FA" height="152.9297" style="stroke:#181818;stroke-width:1.5625;" width="15.625" x="2652.0996" y="1459.7168"/></g><g class="participant-lifeline" data-entity-uid="part1" data-qualified-name="U" data-source-line="54" id="part1-lifeline"><g><title>U.ivatel</title><rect fill="#000000" fill-opacity="0.00000" height="709.5703" width="12.5" x="215.9302" y="196.167"/><line style="stroke:#005A9C;stroke-width:0.7813;stroke-dasharray:7.8125,7.8125;" x1="221.875" x2="221.875" y1="196.167" y2="905.7373"/></g><line style="stroke:#005A9C;stroke-width:0.7813;stroke-dasharray:1.5625,6.25;" x1="221.875" x2="221.875" y1="905.7373" y2="974.9512"/><g><title>U.ivatel</title><rect fill="#000000" fill-opacity="0.00000" height="915.4297" width="12.5" x="215.9302" y="974.9512"/><line style="stroke:#005A9C;stroke-width:0.7813;stroke-dasharray:7.8125,7.8125;" x1="221.875" x2="221.875" y1="974.9512" y2="1890.3809"/></g></g><g class="participant-lifeline" data-entity-uid="part2" data-qualified-name="C" data-source-line="55" id="part2-lifeline"><g><title>Controller</title><rect fill="#000000" fill-opacity="0.00000" height="709.5703" width="12.5" x="518.457" y="196.167"/><line style="stroke:#005A9C;stroke-width:0.7813;stroke-dasharray:7.8125,7.8125;" x1="523.8831" x2="523.8831" y1="196.167" y2="905.7373"/></g><line style="stroke:#005A9C;stroke-width:0.7813;stroke-dasharray:1.5625,6.25;" x1="523.8831" x2="523.8831" y1="905.7373" y2="974.9512"/><g><title>Controller</title><rect fill="#000000" fill-opacity="0.00000" height="915.4297" width="12.5" x="518.457" y="974.9512"/><line style="stroke:#005A9C;stroke-width:0.7813;stroke-dasharray:7.8125,7.8125;" x1="523.8831" x2="523.8831" y1="974.9512" y2="1890.3809"/></g></g><g class="participant-lifeline" data-entity-uid="part3" data-qualified-name="CB" data-source-line="56" id="part3-lifeline"><g><title>Command Bus</title><rect fill="#000000" fill-opacity="0.00000" height="709.5703" width="12.5" x="827.6489" y="196.167"/><line style="stroke:#005A9C;stroke-width:0.7813;stroke-dasharray:7.8125,7.8125;" x1="833.2947" x2="833.2947" y1="196.167" y2="905.7373"/></g><line style="stroke:#005A9C;stroke-width:0.7813;stroke-dasharray:1.5625,6.25;" x1="833.2947" x2="833.2947" y1="905.7373" y2="974.9512"/><g><title>Command Bus</title><rect fill="#000000" fill-opacity="0.00000" height="915.4297" width="12.5" x="827.6489" y="974.9512"/><line style="stroke:#005A9C;stroke-width:0.7813;stroke-dasharray:7.8125,7.8125;" x1="833.2947" x2="833.2947" y1="974.9512" y2="1890.3809"/></g></g><g class="participant-lifeline" data-entity-uid="part4" data-qualified-name="CH" data-source-line="57" id="part4-lifeline"><g><title>Command</title><rect fill="#000000" fill-opacity="0.00000" height="709.5703" width="12.5" x="1138.1592" y="196.167"/><line style="stroke:#005A9C;stroke-width:0.7813;stroke-dasharray:7.8125,7.8125;" x1="1144.2261" x2="1144.2261" y1="196.167" y2="905.7373"/></g><line style="stroke:#005A9C;stroke-width:0.7813;stroke-dasharray:1.5625,6.25;" x1="1144.2261" x2="1144.2261" y1="905.7373" y2="974.9512"/><g><title>Command</title><rect fill="#000000" fill-opacity="0.00000" height="915.4297" width="12.5" x="1138.1592" y="974.9512"/><line style="stroke:#005A9C;stroke-width:0.7813;stroke-dasharray:7.8125,7.8125;" x1="1144.2261" x2="1144.2261" y1="974.9512" y2="1890.3809"/></g></g><g class="participant-lifeline" data-entity-uid="part5" data-qualified-name="WDB" data-source-line="58" id="part5-lifeline"><g><title>Write DB</title><rect fill="#000000" fill-opacity="0.00000" height="709.5703" width="12.5" x="1424.4995" y="196.167"/><line style="stroke:#005A9C;stroke-width:0.7813;stroke-dasharray:7.8125,7.8125;" x1="1429.6997" x2="1429.6997" y1="196.167" y2="905.7373"/></g><line style="stroke:#005A9C;stroke-width:0.7813;stroke-dasharray:1.5625,6.25;" x1="1429.6997" x2="1429.6997" y1="905.7373" y2="974.9512"/><g><title>Write DB</title><rect fill="#000000" fill-opacity="0.00000" height="915.4297" width="12.5" x="1424.4995" y="974.9512"/><line style="stroke:#005A9C;stroke-width:0.7813;stroke-dasharray:7.8125,7.8125;" x1="1429.6997" x2="1429.6997" y1="974.9512" y2="1890.3809"/></g></g><g class="participant-lifeline" data-entity-uid="part6" data-qualified-name="EB" data-source-line="59" id="part6-lifeline"><g><title>Event Bus</title><rect fill="#000000" fill-opacity="0.00000" height="709.5703" width="12.5" x="1589.1174" y="196.167"/><line style="stroke:#005A9C;stroke-width:0.7813;stroke-dasharray:7.8125,7.8125;" x1="1594.2993" x2="1594.2993" y1="196.167" y2="905.7373"/></g><line style="stroke:#005A9C;stroke-width:0.7813;stroke-dasharray:1.5625,6.25;" x1="1594.2993" x2="1594.2993" y1="905.7373" y2="974.9512"/><g><title>Event Bus</title><rect fill="#000000" fill-opacity="0.00000" height="915.4297" width="12.5" x="1589.1174" y="974.9512"/><line style="stroke:#005A9C;stroke-width:0.7813;stroke-dasharray:7.8125,7.8125;" x1="1594.2993" x2="1594.2993" y1="974.9512" y2="1890.3809"/></g></g><g class="participant-lifeline" data-entity-uid="part7" data-qualified-name="P" data-source-line="60" id="part7-lifeline"><g><title>Projektor</title><rect fill="#000000" fill-opacity="0.00000" height="709.5703" width="12.5" x="1780.4382" y="196.167"/><line style="stroke:#005A9C;stroke-width:0.7813;stroke-dasharray:7.8125,7.8125;" x1="1786.5234" x2="1786.5234" y1="196.167" y2="905.7373"/></g><line style="stroke:#005A9C;stroke-width:0.7813;stroke-dasharray:1.5625,6.25;" x1="1786.5234" x2="1786.5234" y1="905.7373" y2="974.9512"/><g><title>Projektor</title><rect fill="#000000" fill-opacity="0.00000" height="915.4297" width="12.5" x="1780.4382" y="974.9512"/><line style="stroke:#005A9C;stroke-width:0.7813;stroke-dasharray:7.8125,7.8125;" x1="1786.5234" x2="1786.5234" y1="974.9512" y2="1890.3809"/></g></g><g class="participant-lifeline" data-entity-uid="part8" data-qualified-name="RDB" data-source-line="61" id="part8-lifeline"><g><title>Read DB</title><rect fill="#000000" fill-opacity="0.00000" height="709.5703" width="12.5" x="2143.6707" y="196.167"/><line style="stroke:#005A9C;stroke-width:0.7813;stroke-dasharray:7.8125,7.8125;" x1="2149.4202" x2="2149.4202" y1="196.167" y2="905.7373"/></g><line style="stroke:#005A9C;stroke-width:0.7813;stroke-dasharray:1.5625,6.25;" x1="2149.4202" x2="2149.4202" y1="905.7373" y2="974.9512"/><g><title>Read DB</title><rect fill="#000000" fill-opacity="0.00000" height="915.4297" width="12.5" x="2143.6707" y="974.9512"/><line style="stroke:#005A9C;stroke-width:0.7813;stroke-dasharray:7.8125,7.8125;" x1="2149.4202" x2="2149.4202" y1="974.9512" y2="1890.3809"/></g></g><g class="participant-lifeline" data-entity-uid="part9" data-qualified-name="QB" data-source-line="62" id="part9-lifeline"><g><title>Query Bus</title><rect fill="#000000" fill-opacity="0.00000" height="709.5703" width="12.5" x="2352.8931" y="196.167"/><line style="stroke:#005A9C;stroke-width:0.7813;stroke-dasharray:7.8125,7.8125;" x1="2358.2336" x2="2358.2336" y1="196.167" y2="905.7373"/></g><line style="stroke:#005A9C;stroke-width:0.7813;stroke-dasharray:1.5625,6.25;" x1="2358.2336" x2="2358.2336" y1="905.7373" y2="974.9512"/><g><title>Query Bus</title><rect fill="#000000" fill-opacity="0.00000" height="915.4297" width="12.5" x="2352.8931" y="974.9512"/><line style="stroke:#005A9C;stroke-width:0.7813;stroke-dasharray:7.8125,7.8125;" x1="2358.2336" x2="2358.2336" y1="974.9512" y2="1890.3809"/></g></g><g class="participant-lifeline" data-entity-uid="part10" data-qualified-name="QH" data-source-line="63" id="part10-lifeline"><g><title>Query</title><rect fill="#000000" fill-opacity="0.00000" height="709.5703" width="12.5" x="2653.6621" y="196.167"/><line style="stroke:#005A9C;stroke-width:0.7813;stroke-dasharray:7.8125,7.8125;" x1="2659.1309" x2="2659.1309" y1="196.167" y2="905.7373"/></g><line style="stroke:#005A9C;stroke-width:0.7813;stroke-dasharray:1.5625,6.25;" x1="2659.1309" x2="2659.1309" y1="905.7373" y2="974.9512"/><g><title>Query</title><rect fill="#000000" fill-opacity="0.00000" height="915.4297" width="12.5" x="2653.6621" y="974.9512"/><line style="stroke:#005A9C;stroke-width:0.7813;stroke-dasharray:7.8125,7.8125;" x1="2659.1309" x2="2659.1309" y1="974.9512" y2="1890.3809"/></g></g><g class="participant participant-head" data-entity-uid="part1" data-qualified-name="U" data-source-line="54" id="part1-head"><text fill="#000000" font-family="'Nunito'" font-size="25" lengthAdjust="spacing" textLength="100.6104" x="167.1875" y="190.271">U&#382;ivatel</text><ellipse cx="222.1802" cy="86.5967" fill="#E2E2F0" rx="12.5" ry="12.5" style="stroke:#181818;stroke-width:0.7813;"/><path d="M222.1802,99.0967 L222.1802,141.2842 M201.8677,111.5967 L242.4927,111.5967 M222.1802,141.2842 L201.8677,164.7217 M222.1802,141.2842 L242.4927,164.7217" fill="none" style="stroke:#181818;stroke-width:0.7813;"/></g><g class="participant participant-tail" data-entity-uid="part1" data-qualified-name="U" data-source-line="54" id="part1-tail"><text fill="#000000" font-family="'Nunito'" font-size="25" lengthAdjust="spacing" textLength="100.6104" x="167.1875" y="1912.0239">U&#382;ivatel</text><ellipse cx="222.1802" cy="1931.2012" fill="#E2E2F0" rx="12.5" ry="12.5" style="stroke:#181818;stroke-width:0.7813;"/><path d="M222.1802,1943.7012 L222.1802,1985.8887 M201.8677,1956.2012 L242.4927,1956.2012 M222.1802,1985.8887 L201.8677,2009.3262 M222.1802,1985.8887 L242.4927,2009.3262" fill="none" style="stroke:#181818;stroke-width:0.7813;"/></g><g class="participant participant-head" data-entity-uid="part2" data-qualified-name="C" data-source-line="55" id="part2-head"><rect fill="#FFFFFF" height="50.9766" rx="3.9063" ry="3.9063" style="stroke:#005A9C;stroke-width:0.7813;" width="145.3979" x="452.0081" y="143.6279"/><text fill="#000000" font-family="'Nunito'" font-size="25" lengthAdjust="spacing" textLength="123.5229" x="462.9456" y="177.771">Controller</text></g><g class="participant participant-tail" data-entity-uid="part2" data-qualified-name="C" data-source-line="55" id="part2-tail"><rect fill="#FFFFFF" height="50.9766" rx="3.9063" ry="3.9063" style="stroke:#005A9C;stroke-width:0.7813;" width="145.3979" x="452.0081" y="1888.8184"/><text fill="#000000" font-family="'Nunito'" font-size="25" lengthAdjust="spacing" textLength="123.5229" x="462.9456" y="1922.9614">Controller</text></g><g class="participant participant-head" data-entity-uid="part3" data-qualified-name="CB" data-source-line="56" id="part3-head"><rect fill="#FFFFFF" height="50.9766" rx="3.9063" ry="3.9063" style="stroke:#005A9C;stroke-width:0.7813;" width="204.3335" x="731.7322" y="143.6279"/><text fill="#000000" font-family="'Nunito'" font-size="25" lengthAdjust="spacing" textLength="182.4585" x="742.6697" y="177.771">Command Bus</text></g><g class="participant participant-tail" data-entity-uid="part3" data-qualified-name="CB" data-source-line="56" id="part3-tail"><rect fill="#FFFFFF" height="50.9766" rx="3.9063" ry="3.9063" style="stroke:#005A9C;stroke-width:0.7813;" width="204.3335" x="731.7322" y="1888.8184"/><text fill="#000000" font-family="'Nunito'" font-size="25" lengthAdjust="spacing" textLength="182.4585" x="742.6697" y="1922.9614">Command Bus</text></g><g class="participant participant-head" data-entity-uid="part4" data-qualified-name="CH" data-source-line="57" id="part4-head"><rect fill="#FFFFFF" height="80.0781" rx="3.9063" ry="3.9063" style="stroke:#005A9C;stroke-width:0.7813;" width="150.3662" x="1069.2261" y="114.5264"/><text fill="#000000" font-family="'Nunito'" font-size="25" lengthAdjust="spacing" textLength="128.4912" x="1080.1636" y="148.6694">Command</text><text fill="#000000" font-family="'Nunito'" font-size="25" lengthAdjust="spacing" textLength="98.4375" x="1095.1904" y="177.771">Handler</text></g><g class="participant participant-tail" data-entity-uid="part4" data-qualified-name="CH" data-source-line="57" id="part4-tail"><rect fill="#FFFFFF" height="80.0781" rx="3.9063" ry="3.9063" style="stroke:#005A9C;stroke-width:0.7813;" width="150.3662" x="1069.2261" y="1888.8184"/><text fill="#000000" font-family="'Nunito'" font-size="25" lengthAdjust="spacing" textLength="128.4912" x="1080.1636" y="1922.9614">Command</text><text fill="#000000" font-family="'Nunito'" font-size="25" lengthAdjust="spacing" textLength="98.4375" x="1095.1904" y="1952.063">Handler</text></g><g class="participant participant-head" data-entity-uid="part5" data-qualified-name="WDB" data-source-line="58" id="part5-head"><text fill="#000000" font-family="'Nunito'" font-size="25" lengthAdjust="spacing" textLength="111.4746" x="1370.3247" y="190.271">Write DB</text><path d="M1402.6245,110.8154 C1402.6245,95.1904 1430.7495,95.1904 1430.7495,95.1904 C1430.7495,95.1904 1458.8745,95.1904 1458.8745,110.8154 L1458.8745,151.4404 C1458.8745,167.0654 1430.7495,167.0654 1430.7495,167.0654 C1430.7495,167.0654 1402.6245,167.0654 1402.6245,151.4404 L1402.6245,110.8154" fill="#E2E2F0" style="stroke:#181818;stroke-width:0.7813;"/><path d="M1402.6245,110.8154 C1402.6245,126.4404 1430.7495,126.4404 1430.7495,126.4404 C1430.7495,126.4404 1458.8745,126.4404 1458.8745,110.8154" fill="none" style="stroke:#181818;stroke-width:0.7813;"/></g><g class="participant participant-tail" data-entity-uid="part5" data-qualified-name="WDB" data-source-line="58" id="part5-tail"><text fill="#000000" font-family="'Nunito'" font-size="25" lengthAdjust="spacing" textLength="111.4746" x="1370.3247" y="1912.0239">Write DB</text><path d="M1402.6245,1933.5449 C1402.6245,1917.9199 1430.7495,1917.9199 1430.7495,1917.9199 C1430.7495,1917.9199 1458.8745,1917.9199 1458.8745,1933.5449 L1458.8745,1974.1699 C1458.8745,1989.7949 1430.7495,1989.7949 1430.7495,1989.7949 C1430.7495,1989.7949 1402.6245,1989.7949 1402.6245,1974.1699 L1402.6245,1933.5449" fill="#E2E2F0" style="stroke:#181818;stroke-width:0.7813;"/><path d="M1402.6245,1933.5449 C1402.6245,1949.1699 1430.7495,1949.1699 1430.7495,1949.1699 C1430.7495,1949.1699 1458.8745,1949.1699 1458.8745,1933.5449" fill="none" style="stroke:#181818;stroke-width:0.7813;"/></g><g class="participant participant-head" data-entity-uid="part6" data-qualified-name="EB" data-source-line="59" id="part6-head"><rect fill="#FFFFFF" height="80.0781" rx="3.9063" ry="3.9063" style="stroke:#005A9C;stroke-width:0.7813;" width="177.1362" x="1506.7993" y="114.5264"/><text fill="#000000" font-family="'Nunito'" font-size="25" lengthAdjust="spacing" textLength="125.5859" x="1532.5745" y="148.6694">Event Bus</text><text fill="#000000" font-family="'Nunito'" font-size="25" lengthAdjust="spacing" textLength="155.2612" x="1517.7368" y="177.771">(Messenger)</text></g><g class="participant participant-tail" data-entity-uid="part6" data-qualified-name="EB" data-source-line="59" id="part6-tail"><rect fill="#FFFFFF" height="80.0781" rx="3.9063" ry="3.9063" style="stroke:#005A9C;stroke-width:0.7813;" width="177.1362" x="1506.7993" y="1888.8184"/><text fill="#000000" font-family="'Nunito'" font-size="25" lengthAdjust="spacing" textLength="125.5859" x="1532.5745" y="1922.9614">Event Bus</text><text fill="#000000" font-family="'Nunito'" font-size="25" lengthAdjust="spacing" textLength="155.2612" x="1517.7368" y="1952.063">(Messenger)</text></g><g class="participant participant-head" data-entity-uid="part7" data-qualified-name="P" data-source-line="60" id="part7-head"><rect fill="#FFFFFF" height="50.9766" rx="3.9063" ry="3.9063" style="stroke:#005A9C;stroke-width:0.7813;" width="134.7046" x="1719.3359" y="143.6279"/><text fill="#000000" font-family="'Nunito'" font-size="25" lengthAdjust="spacing" textLength="112.8296" x="1730.2734" y="177.771">Projektor</text></g><g class="participant participant-tail" data-entity-uid="part7" data-qualified-name="P" data-source-line="60" id="part7-tail"><rect fill="#FFFFFF" height="50.9766" rx="3.9063" ry="3.9063" style="stroke:#005A9C;stroke-width:0.7813;" width="134.7046" x="1719.3359" y="1888.8184"/><text fill="#000000" font-family="'Nunito'" font-size="25" lengthAdjust="spacing" textLength="112.8296" x="1730.2734" y="1922.9614">Projektor</text></g><g class="participant participant-head" data-entity-uid="part8" data-qualified-name="RDB" data-source-line="61" id="part8-head"><text fill="#000000" font-family="'Nunito'" font-size="25" lengthAdjust="spacing" textLength="108.2886" x="2091.0889" y="161.1694">Read DB</text><text fill="#000000" font-family="'Nunito'" font-size="25" lengthAdjust="spacing" textLength="226.001" x="2032.2327" y="190.271">(denorm. tabulka)</text><path d="M2121.7957,81.7139 C2121.7957,66.0889 2149.9207,66.0889 2149.9207,66.0889 C2149.9207,66.0889 2178.0457,66.0889 2178.0457,81.7139 L2178.0457,122.3389 C2178.0457,137.9639 2149.9207,137.9639 2149.9207,137.9639 C2149.9207,137.9639 2121.7957,137.9639 2121.7957,122.3389 L2121.7957,81.7139" fill="#E2E2F0" style="stroke:#181818;stroke-width:0.7813;"/><path d="M2121.7957,81.7139 C2121.7957,97.3389 2149.9207,97.3389 2149.9207,97.3389 C2149.9207,97.3389 2178.0457,97.3389 2178.0457,81.7139" fill="none" style="stroke:#181818;stroke-width:0.7813;"/></g><g class="participant participant-tail" data-entity-uid="part8" data-qualified-name="RDB" data-source-line="61" id="part8-tail"><text fill="#000000" font-family="'Nunito'" font-size="25" lengthAdjust="spacing" textLength="108.2886" x="2091.0889" y="1912.0239">Read DB</text><text fill="#000000" font-family="'Nunito'" font-size="25" lengthAdjust="spacing" textLength="226.001" x="2032.2327" y="1941.1255">(denorm. tabulka)</text><path d="M2121.7957,1962.6465 C2121.7957,1947.0215 2149.9207,1947.0215 2149.9207,1947.0215 C2149.9207,1947.0215 2178.0457,1947.0215 2178.0457,1962.6465 L2178.0457,2003.2715 C2178.0457,2018.8965 2149.9207,2018.8965 2149.9207,2018.8965 C2149.9207,2018.8965 2121.7957,2018.8965 2121.7957,2003.2715 L2121.7957,1962.6465" fill="#E2E2F0" style="stroke:#181818;stroke-width:0.7813;"/><path d="M2121.7957,1962.6465 C2121.7957,1978.2715 2149.9207,1978.2715 2149.9207,1978.2715 C2149.9207,1978.2715 2178.0457,1978.2715 2178.0457,1962.6465" fill="none" style="stroke:#181818;stroke-width:0.7813;"/></g><g class="participant participant-head" data-entity-uid="part9" data-qualified-name="QB" data-source-line="62" id="part9-head"><rect fill="#FFFFFF" height="50.9766" rx="3.9063" ry="3.9063" style="stroke:#005A9C;stroke-width:0.7813;" width="151.8188" x="2283.2336" y="143.6279"/><text fill="#000000" font-family="'Nunito'" font-size="25" lengthAdjust="spacing" textLength="129.9438" x="2294.1711" y="177.771">Query Bus</text></g><g class="participant participant-tail" data-entity-uid="part9" data-qualified-name="QB" data-source-line="62" id="part9-tail"><rect fill="#FFFFFF" height="50.9766" rx="3.9063" ry="3.9063" style="stroke:#005A9C;stroke-width:0.7813;" width="151.8188" x="2283.2336" y="1888.8184"/><text fill="#000000" font-family="'Nunito'" font-size="25" lengthAdjust="spacing" textLength="129.9438" x="2294.1711" y="1922.9614">Query Bus</text></g><g class="participant participant-head" data-entity-uid="part10" data-qualified-name="QH" data-source-line="63" id="part10-head"><rect fill="#FFFFFF" height="80.0781" rx="3.9063" ry="3.9063" style="stroke:#005A9C;stroke-width:0.7813;" width="120.3125" x="2599.7559" y="114.5264"/><text fill="#000000" font-family="'Nunito'" font-size="25" lengthAdjust="spacing" textLength="75.9766" x="2621.9238" y="148.6694">Query</text><text fill="#000000" font-family="'Nunito'" font-size="25" lengthAdjust="spacing" textLength="98.4375" x="2610.6934" y="177.771">Handler</text></g><g class="participant participant-tail" data-entity-uid="part10" data-qualified-name="QH" data-source-line="63" id="part10-tail"><rect fill="#FFFFFF" height="80.0781" rx="3.9063" ry="3.9063" style="stroke:#005A9C;stroke-width:0.7813;" width="120.3125" x="2599.7559" y="1888.8184"/><text fill="#000000" font-family="'Nunito'" font-size="25" lengthAdjust="spacing" textLength="75.9766" x="2621.9238" y="1922.9614">Query</text><text fill="#000000" font-family="'Nunito'" font-size="25" lengthAdjust="spacing" textLength="98.4375" x="2610.6934" y="1952.063">Handler</text></g><g><title>Controller</title><rect fill="#E6F0FA" height="497.2656" style="stroke:#181818;stroke-width:1.5625;" width="15.625" x="516.8945" y="323.1201"/></g><g><title>Controller</title><rect fill="#E6F0FA" height="356.8359" style="stroke:#181818;stroke-width:1.5625;" width="15.625" x="516.8945" y="1357.7637"/></g><g><title>Command Bus</title><rect fill="#E6F0FA" height="395.3125" style="stroke:#181818;stroke-width:1.5625;" width="15.625" x="826.0864" y="374.0967"/></g><g><title>Command</title><rect fill="#E6F0FA" height="293.3594" style="stroke:#181818;stroke-width:1.5625;" width="15.625" x="1136.5967" y="425.0732"/></g><g><title>Write DB</title><rect fill="#E6F0FA" height="50.9766" style="stroke:#181818;stroke-width:1.5625;" width="15.625" x="1422.937" y="476.0498"/></g><g><title>Projektor</title><rect fill="#E6F0FA" height="101.9531" style="stroke:#181818;stroke-width:1.5625;" width="15.625" x="1778.8757" y="1013.4277"/></g><g><title>Read DB</title><rect fill="#E6F0FA" height="50.9766" style="stroke:#181818;stroke-width:1.5625;" width="15.625" x="2142.1082" y="1064.4043"/></g><g><title>Read DB</title><rect fill="#E6F0FA" height="50.9766" style="stroke:#181818;stroke-width:1.5625;" width="15.625" x="2142.1082" y="1510.6934"/></g><g><title>Query Bus</title><rect fill="#E6F0FA" height="254.8828" style="stroke:#181818;stroke-width:1.5625;" width="15.625" x="2351.3306" y="1408.7402"/></g><g><title>Query</title><rect fill="#E6F0FA" height="152.9297" style="stroke:#181818;stroke-width:1.5625;" width="15.625" x="2652.0996" y="1459.7168"/></g><rect fill="#E6F0FA" height="4.6875" style="stroke:#E6F0FA;stroke-width:1.5625;" width="2727.8809" x="0" y="246.6553"/><line style="stroke:#005A9C;stroke-width:1.5625;" x1="0" x2="2727.8809" y1="246.6553" y2="246.6553"/><line style="stroke:#005A9C;stroke-width:1.5625;" x1="0" x2="2727.8809" y1="251.3428" y2="251.3428"/><rect fill="#E6F0FA" height="41.6016" style="stroke:#005A9C;stroke-width:3.125;" width="314.2578" x="1206.8115" y="227.417"/><text fill="#000000" font-family="'Nunito'" font-size="25" font-weight="700" lengthAdjust="spacing" textLength="283.6792" x="1216.1865" y="256.8726">1. Z&#225;pis (Command)</text><g class="message" data-entity-1="part1" data-entity-2="part2" data-source-line="67" id="msg1"><polygon fill="#005A9C" points="498.1445,316.8701,513.7695,323.1201,498.1445,329.3701,504.3945,323.1201" style="stroke:#005A9C;stroke-width:1.5625;"/><line style="stroke:#005A9C;stroke-width:3.125;" x1="222.1802" x2="507.5195" y1="323.1201" y2="323.1201"/><text fill="#000000" font-family="'Nunito'" font-size="25" lengthAdjust="spacing" textLength="162.3901" x="288.3423" y="314.0991">POST /orders</text></g><g class="message" data-entity-1="part2" data-entity-2="part3" data-source-line="69" id="msg2"><polygon fill="#005A9C" points="807.3364,367.8467,822.9614,374.0967,807.3364,380.3467,813.5864,374.0967" style="stroke:#005A9C;stroke-width:1.5625;"/><line style="stroke:#005A9C;stroke-width:3.125;" x1="532.5195" x2="816.7114" y1="374.0967" y2="374.0967"/><text fill="#000000" font-family="'Nunito'" font-size="25" lengthAdjust="spacing" textLength="263.8794" x="547.3633" y="365.0757">dispatch(PlaceOrder)</text></g><g class="message" data-entity-1="part3" data-entity-2="part4" data-source-line="71" id="msg3"><polygon fill="#005A9C" points="1117.8467,418.8232,1133.4717,425.0732,1117.8467,431.3232,1124.0967,425.0732" style="stroke:#005A9C;stroke-width:1.5625;"/><line style="stroke:#005A9C;stroke-width:3.125;" x1="841.7114" x2="1127.2217" y1="425.0732" y2="425.0732"/><text fill="#000000" font-family="'Nunito'" font-size="25" lengthAdjust="spacing" textLength="265.1978" x="856.5552" y="416.0522">__invoke(PlaceOrder)</text></g><g class="message" data-entity-1="part4" data-entity-2="part5" data-source-line="73" id="msg4"><polygon fill="#005A9C" points="1404.187,469.7998,1419.812,476.0498,1404.187,482.2998,1410.437,476.0498" style="stroke:#005A9C;stroke-width:1.5625;"/><line style="stroke:#005A9C;stroke-width:3.125;" x1="1152.2217" x2="1413.562" y1="476.0498" y2="476.0498"/><text fill="#000000" font-family="'Nunito'" font-size="25" lengthAdjust="spacing" textLength="241.0278" x="1167.0654" y="467.0288">INSERT (transakce)</text></g><g class="message" data-entity-1="part5" data-entity-2="part4" data-source-line="75" id="msg5"><polygon fill="#005A9C" points="1169.4092,520.7764,1153.7842,527.0264,1169.4092,533.2764,1163.1592,527.0264" style="stroke:#005A9C;stroke-width:1.5625;"/><line style="stroke:#005A9C;stroke-width:3.125;stroke-dasharray:3.125,3.125;" x1="1160.0342" x2="1429.187" y1="527.0264" y2="527.0264"/><text fill="#000000" font-family="'Nunito'" font-size="25" lengthAdjust="spacing" textLength="36.0718" x="1273.4497" y="518.0054">OK</text></g><g class="message" data-entity-1="part4" data-entity-2="part6" data-source-line="77" id="msg6"><polygon fill="#005A9C" points="1576.6174,571.7529,1592.2424,578.0029,1576.6174,584.2529,1582.8674,578.0029" style="stroke:#005A9C;stroke-width:1.5625;"/><line style="stroke:#005A9C;stroke-width:3.125;" x1="1152.2217" x2="1585.9924" y1="578.0029" y2="578.0029"/><text fill="#000000" font-family="'Nunito'" font-size="25" lengthAdjust="spacing" textLength="279.7485" x="1233.9203" y="568.9819">dispatch(OrderPlaced)</text></g><path d="M1603.125,598.3154 L1603.125,671.7529 L1865.625,671.7529 L1865.625,613.9404 L1850,598.3154 L1603.125,598.3154" fill="#E6F0FA" style="stroke:#005A9C;stroke-width:0.7813;"/><path d="M1850,598.3154 L1850,613.9404 L1865.625,613.9404 L1850,598.3154" fill="#E6F0FA" style="stroke:#005A9C;stroke-width:0.7813;"/><text fill="#000000" font-family="'Nunito'" font-size="25" lengthAdjust="spacing" textLength="216.2109" x="1626.5625" y="629.3335">Ud&#225;lost za&#345;azena</text><text fill="#000000" font-family="'Nunito'" font-size="25" lengthAdjust="spacing" textLength="194.6045" x="1637.3657" y="658.4351">do async fronty</text><g class="message" data-entity-1="part4" data-entity-2="part3" data-source-line="82" id="msg7"><polygon fill="#005A9C" points="858.8989,712.1826,843.2739,718.4326,858.8989,724.6826,852.6489,718.4326" style="stroke:#005A9C;stroke-width:1.5625;"/><line style="stroke:#005A9C;stroke-width:3.125;stroke-dasharray:3.125,3.125;" x1="849.5239" x2="1142.8467" y1="718.4326" y2="718.4326"/><text fill="#000000" font-family="'Nunito'" font-size="25" lengthAdjust="spacing" textLength="52.9053" x="966.6077" y="709.4116">void</text></g><g class="message" data-entity-1="part3" data-entity-2="part2" data-source-line="84" id="msg8"><polygon fill="#005A9C" points="549.707,763.1592,534.082,769.4092,549.707,775.6592,543.457,769.4092" style="stroke:#005A9C;stroke-width:1.5625;"/><line style="stroke:#005A9C;stroke-width:3.125;stroke-dasharray:3.125,3.125;" x1="540.332" x2="832.3364" y1="769.4092" y2="769.4092"/><text fill="#000000" font-family="'Nunito'" font-size="25" lengthAdjust="spacing" textLength="115.3076" x="625.5554" y="760.3882">Envelope</text></g><g class="message" data-entity-1="part2" data-entity-2="part1" data-source-line="86" id="msg9"><polygon fill="#005A9C" points="239.3677,814.1357,223.7427,820.3857,239.3677,826.6357,233.1177,820.3857" style="stroke:#005A9C;stroke-width:1.5625;"/><line style="stroke:#005A9C;stroke-width:3.125;stroke-dasharray:3.125,3.125;" x1="229.9927" x2="523.1445" y1="820.3857" y2="820.3857"/><text fill="#000000" font-family="'Nunito'" font-size="25" lengthAdjust="spacing" textLength="257.2144" x="244.8364" y="811.3647">302 Redirect + flash</text></g><rect fill="#E6F0FA" height="4.6875" style="stroke:#E6F0FA;stroke-width:1.5625;" width="2727.8809" x="0" y="867.749"/><line style="stroke:#005A9C;stroke-width:1.5625;" x1="0" x2="2727.8809" y1="867.749" y2="867.749"/><line style="stroke:#005A9C;stroke-width:1.5625;" x1="0" x2="2727.8809" y1="872.4365" y2="872.4365"/><rect fill="#E6F0FA" height="41.6016" style="stroke:#005A9C;stroke-width:3.125;" width="398.1934" x="1164.8438" y="848.5107"/><text fill="#000000" font-family="'Nunito'" font-size="25" font-weight="700" lengthAdjust="spacing" textLength="367.6147" x="1174.2188" y="877.9663">2. Asynchronn&#237; propagace</text><text fill="#000000" font-family="'Nunito'" font-size="21.875" lengthAdjust="spacing" textLength="6.9534" x="1298.9334" y="947.9172">&#160;</text><text fill="#000000" font-family="'Nunito'" font-size="21.875" font-weight="700" lengthAdjust="spacing" textLength="180.394" x="1305.8868" y="947.9172">&#268;asov&#253; odstup</text><text fill="#000000" font-family="'Nunito'" font-size="21.875" lengthAdjust="spacing" textLength="82.9712" x="1493.2343" y="947.9172">(ms - s)</text><g class="message" data-entity-1="part6" data-entity-2="part7" data-source-line="93" id="msg10"><polygon fill="#005A9C" points="1760.1257,1007.1777,1775.7507,1013.4277,1760.1257,1019.6777,1766.3757,1013.4277" style="stroke:#005A9C;stroke-width:1.5625;"/><line style="stroke:#005A9C;stroke-width:3.125;" x1="1595.3674" x2="1769.5007" y1="1013.4277" y2="1013.4277"/><text fill="#000000" font-family="'Nunito'" font-size="25" lengthAdjust="spacing" textLength="153.8208" x="1610.2112" y="1004.4067">OrderPlaced</text></g><g class="message" data-entity-1="part7" data-entity-2="part8" data-source-line="95" id="msg11"><polygon fill="#005A9C" points="2123.3582,1058.1543,2138.9832,1064.4043,2123.3582,1070.6543,2129.6082,1064.4043" style="stroke:#005A9C;stroke-width:1.5625;"/><line style="stroke:#005A9C;stroke-width:3.125;" x1="1794.5007" x2="2132.7332" y1="1064.4043" y2="1064.4043"/><text fill="#000000" font-family="'Nunito'" font-size="25" lengthAdjust="spacing" textLength="317.9199" x="1809.3445" y="1055.3833">UPSERT order_dashboard</text></g><g class="message" data-entity-1="part8" data-entity-2="part7" data-source-line="97" id="msg12"><polygon fill="#005A9C" points="1803.8757,1109.1309,1788.2507,1115.3809,1803.8757,1121.6309,1797.6257,1115.3809" style="stroke:#005A9C;stroke-width:1.5625;"/><line style="stroke:#005A9C;stroke-width:3.125;stroke-dasharray:3.125,3.125;" x1="1794.5007" x2="2148.3582" y1="1115.3809" y2="1115.3809"/><text fill="#000000" font-family="'Nunito'" font-size="25" lengthAdjust="spacing" textLength="36.0718" x="1950.2686" y="1106.3599">OK</text></g><path d="M1495.3125,1135.6934 L1495.3125,1237.2559 L2246.875,1237.2559 L2246.875,1151.3184 L2231.25,1135.6934 L1495.3125,1135.6934" fill="#E6F0FA" style="stroke:#005A9C;stroke-width:0.7813;"/><path d="M2231.25,1135.6934 L2231.25,1151.3184 L2246.875,1151.3184 L2231.25,1135.6934" fill="#E6F0FA" style="stroke:#005A9C;stroke-width:0.7813;"/><text fill="#000000" font-family="'Nunito'" font-size="25" lengthAdjust="spacing" textLength="342.4072" x="1700.6073" y="1166.7114">Eventual consistency okno:</text><text fill="#000000" font-family="'Nunito'" font-size="25" lengthAdjust="spacing" textLength="330.2979" x="1706.662" y="1195.813">mezi z&#225;pisem do Write DB</text><text fill="#000000" font-family="'Nunito'" font-size="25" lengthAdjust="spacing" textLength="273.291" x="1735.1654" y="1224.9146">a aktualizac&#237; Read DB</text><rect fill="#E6F0FA" height="4.6875" style="stroke:#E6F0FA;stroke-width:1.5625;" width="2727.8809" x="0" y="1281.2988"/><line style="stroke:#005A9C;stroke-width:1.5625;" x1="0" x2="2727.8809" y1="1281.2988" y2="1281.2988"/><line style="stroke:#005A9C;stroke-width:1.5625;" x1="0" x2="2727.8809" y1="1285.9863" y2="1285.9863"/><rect fill="#E6F0FA" height="41.6016" style="stroke:#005A9C;stroke-width:3.125;" width="255.9814" x="1235.9497" y="1262.0605"/><text fill="#000000" font-family="'Nunito'" font-size="25" font-weight="700" lengthAdjust="spacing" textLength="225.4028" x="1245.3247" y="1291.5161">3. &#268;ten&#237; (Query)</text><g class="message" data-entity-1="part1" data-entity-2="part2" data-source-line="108" id="msg13"><polygon fill="#005A9C" points="498.1445,1351.5137,513.7695,1357.7637,498.1445,1364.0137,504.3945,1357.7637" style="stroke:#005A9C;stroke-width:1.5625;"/><line style="stroke:#005A9C;stroke-width:3.125;" x1="222.1802" x2="507.5195" y1="1357.7637" y2="1357.7637"/><text fill="#000000" font-family="'Nunito'" font-size="25" lengthAdjust="spacing" textLength="146.936" x="296.0693" y="1348.7427">GET /orders</text></g><g class="message" data-entity-1="part2" data-entity-2="part9" data-source-line="110" id="msg14"><polygon fill="#005A9C" points="2332.5806,1402.4902,2348.2056,1408.7402,2332.5806,1414.9902,2338.8306,1408.7402" style="stroke:#005A9C;stroke-width:1.5625;"/><line style="stroke:#005A9C;stroke-width:3.125;" x1="532.5195" x2="2341.9556" y1="1408.7402" y2="1408.7402"/><text fill="#000000" font-family="'Nunito'" font-size="25" lengthAdjust="spacing" textLength="254.1382" x="1314.856" y="1399.7192">dispatch(ListOrders)</text></g><g class="message" data-entity-1="part9" data-entity-2="part10" data-source-line="112" id="msg15"><polygon fill="#005A9C" points="2633.3496,1453.4668,2648.9746,1459.7168,2633.3496,1465.9668,2639.5996,1459.7168" style="stroke:#005A9C;stroke-width:1.5625;"/><line style="stroke:#005A9C;stroke-width:3.125;" x1="2366.9556" x2="2642.7246" y1="1459.7168" y2="1459.7168"/><text fill="#000000" font-family="'Nunito'" font-size="25" lengthAdjust="spacing" textLength="255.4565" x="2381.7993" y="1450.6958">__invoke(ListOrders)</text></g><g class="message" data-entity-1="part10" data-entity-2="part8" data-source-line="114" id="msg16"><polygon fill="#005A9C" points="2174.9207,1504.4434,2159.2957,1510.6934,2174.9207,1516.9434,2168.6707,1510.6934" style="stroke:#005A9C;stroke-width:1.5625;"/><line style="stroke:#005A9C;stroke-width:3.125;" x1="2165.5457" x2="2650.5371" y1="1510.6934" y2="1510.6934"/><text fill="#000000" font-family="'Nunito'" font-size="25" lengthAdjust="spacing" textLength="329.1016" x="2240.3656" y="1501.6724">SELECT z denorm. tabulky</text></g><g class="message" data-entity-1="part8" data-entity-2="part10" data-source-line="116" id="msg17"><polygon fill="#005A9C" points="2633.3496,1555.4199,2648.9746,1561.6699,2633.3496,1567.9199,2639.5996,1561.6699" style="stroke:#005A9C;stroke-width:1.5625;"/><line style="stroke:#005A9C;stroke-width:3.125;stroke-dasharray:3.125,3.125;" x1="2149.9207" x2="2642.7246" y1="1561.6699" y2="1561.6699"/><text fill="#000000" font-family="'Nunito'" font-size="25" lengthAdjust="spacing" textLength="110.083" x="2345.9686" y="1552.6489">v&#253;sledky</text></g><g class="message" data-entity-1="part10" data-entity-2="part9" data-source-line="118" id="msg18"><polygon fill="#005A9C" points="2384.1431,1606.3965,2368.5181,1612.6465,2384.1431,1618.8965,2377.8931,1612.6465" style="stroke:#005A9C;stroke-width:1.5625;"/><line style="stroke:#005A9C;stroke-width:3.125;stroke-dasharray:3.125,3.125;" x1="2374.7681" x2="2658.3496" y1="1612.6465" y2="1612.6465"/><text fill="#000000" font-family="'Nunito'" font-size="25" lengthAdjust="spacing" textLength="154.4434" x="2436.2122" y="1603.6255">ViewModel[]</text></g><g class="message" data-entity-1="part9" data-entity-2="part2" data-source-line="120" id="msg19"><polygon fill="#005A9C" points="549.707,1657.373,534.082,1663.623,549.707,1669.873,543.457,1663.623" style="stroke:#005A9C;stroke-width:1.5625;"/><line style="stroke:#005A9C;stroke-width:3.125;stroke-dasharray:3.125,3.125;" x1="540.332" x2="2357.5806" y1="1663.623" y2="1663.623"/><text fill="#000000" font-family="'Nunito'" font-size="25" lengthAdjust="spacing" textLength="115.3076" x="1388.1775" y="1654.6021">Envelope</text></g><g class="message" data-entity-1="part2" data-entity-2="part1" data-source-line="122" id="msg20"><polygon fill="#005A9C" points="239.3677,1708.3496,223.7427,1714.5996,239.3677,1720.8496,233.1177,1714.5996" style="stroke:#005A9C;stroke-width:1.5625;"/><line style="stroke:#005A9C;stroke-width:3.125;stroke-dasharray:3.125,3.125;" x1="229.9927" x2="523.1445" y1="1714.5996" y2="1714.5996"/><text fill="#000000" font-family="'Nunito'" font-size="25" lengthAdjust="spacing" textLength="191.6138" x="277.6367" y="1705.5786">HTML response</text></g><path d="M7.8125,1734.9121 L7.8125,1866.1621 L435.9375,1866.1621 L435.9375,1750.5371 L420.3125,1734.9121 L7.8125,1734.9121" fill="#E6F0FA" style="stroke:#005A9C;stroke-width:0.7813;"/><path d="M420.3125,1734.9121 L420.3125,1750.5371 L435.9375,1750.5371 L420.3125,1734.9121" fill="#E6F0FA" style="stroke:#005A9C;stroke-width:0.7813;"/><text fill="#000000" font-family="'Nunito'" font-size="25" lengthAdjust="spacing" textLength="273.938" x="48.9807" y="1765.9302">Pokud &#269;ten&#237; prob&#283;hne</text><text fill="#000000" font-family="'Nunito'" font-size="25" font-weight="700" lengthAdjust="spacing" textLength="65.0757" x="330.8655" y="1765.9302">p&#345;ed</text><text fill="#000000" font-family="'Nunito'" font-size="25" lengthAdjust="spacing" textLength="382.4219" x="31.25" y="1795.0317">dokon&#269;en&#237;m projekce, u&#382;ivatel</text><text fill="#000000" font-family="'Nunito'" font-size="25" lengthAdjust="spacing" textLength="278.0518" x="83.4351" y="1824.1333">vid&#237; star&#353;&#237; stav &#8212; to je</text><text fill="#000000" font-family="'Nunito'" font-size="25" lengthAdjust="spacing" textLength="272.6563" x="86.1328" y="1853.2349">eventual consistency.</text><?plantuml-src jLRBRjj65DtFLrou6rcDLTkf0pI02qYo70NrWvAb1cXJ66FoIfgGd65dXdAb8a0_8Dbr4tJb3-Wdj1lRFz8lwPsHBP4orQvY0OBCS-RUE-US8MbY8JEkUGfH9c3lO9UPvPKh7iPZhN8PjLMYD7nnt7IV0iDCUAIkXHp3Y2S6MG6ASCJpn1uhQSzuYh1rbajXrLOrvKBC4VPUF0K7-8jj9c8iKvGMGlf2NMmZLOJmAmDeFHdM_pb4wGZrmzNTtOFcD-tbrS54XB54Os2VlI_M3LMQAUbwVeRY6aFBvJZvB9DphTLrUSqQM5nQD1D_pb66Yw42hgq8HSQbhPxYH8pmH4Zy7tHzRvqNnxiKeNA3ZG8KICMK03IVRXBWI4m5pRAvvoEXSkHNj2HxEig1-opXofL7cF3PQhwlotv8PJVul9ohgkpxAckQw_Pje9HBCIiiPQqpfJZdF86saaOOI-mP_FFRxn1ngwQtVu5LCKoXtUjVCCP3InMsXlT_Yoctc6m1Dp1asSeGsA8wLgiaGUtHzZgQfbn6qChD0cvLuczbbxwNDRgCfk5NtD0TuuqM9DrHooDlZjRM--suwczbxPJKG3b6lUsvdJLgeDKxZ6b37WqABVh88-f09IAKIgSD82HFOhuer5zlsijHpvPRwbMXvGtrkemT7i9U0twulSc4WTh3lhVXy92n8Uny2sru2S7vnG2-yZamJdolEadQzeGMCI9XCcx3IIr8U8ZdZhbTOBOOiHotIzpBIo6dAiODt2uZ5d59KoA_Fhlez0TGivfBm-CG2rIdkcFjF5O-_uv5M88NfJgb4Nr7tplQPlu0Q36UM50Zvmt0CBgzIPInCEVtd_WS9QUBaIB1PZA4aQPWpHXIUDnQt-5HXQaIKN42jvU7yGZjo2acAiCIe-L49CAG2Cztzw6FaN1tOFWIHWatanBPkxNVWAQRP4A3oDi_8TCgusFQZVUiqMX0lNxtWHj_QbHaR9xLwr1B3Uo0sGOYCDRnRWHEifKOAs435ZYyxnqO1ju1x_vbH2DTAQuBP1V3_eCBmHCJ75huDrW8hgQeIUnd7eRLuGyBXr_5KhqaCCMvWBdF9wREXyUJHnW77hk5Oiv3akBXmApCSNezRy3T1of9UCsVWRLml-fipdQl59mJ6ithPGeXf6FMyshsIjckvdPPhxjIzg9pqcaFO0xbupshrjRN9qzDWX5nrZJkBMBe1_vUuFKflNeaF_vKfBdk_vt6NZ6DtS7f2RqC67hJCBWMmvM9G_SWL74UmTt7XSYKnwkxFoOIAOVP_IUCwdL_Vc8bxpuwHkeeTCiByHdaZxTmej3ZZvORo_NzpUB7r3y1h89tI3XMfAInzFfV?></g></svg>