<?xml version="1.0" encoding="UTF-8" standalone="no"?><svg xmlns="http://www.w3.org/2000/svg" xmlns:xlink="http://www.w3.org/1999/xlink" contentScriptType="application/ecmascript" contentStyleType="text/css" height="2026.5625px" preserveAspectRatio="none" style="width:2690px;height:2026px;background:#FAFAFA;" version="1.1" viewBox="0 0 2690 2026" width="2690.625px" zoomAndPan="magnify"><defs/><g><text fill="#000000" font-family="Nunito" font-size="25" lengthAdjust="spacingAndGlyphs" textLength="529.6875" x="1073.8281" y="38.8306">Eventual Consistency — datový tok v CQRS</text><rect fill="#E6F0FA" height="497.2656" style="stroke: #005A9C; stroke-width: 1.5625;" width="15.625" x="504.6875" y="312.6953"/><rect fill="#E6F0FA" height="356.8359" style="stroke: #005A9C; stroke-width: 1.5625;" width="15.625" x="504.6875" y="1347.3389"/><rect fill="#E6F0FA" height="395.3125" style="stroke: #005A9C; stroke-width: 1.5625;" width="15.625" x="806.25" y="363.6719"/><rect fill="#E6F0FA" height="293.3594" style="stroke: #005A9C; stroke-width: 1.5625;" width="15.625" x="1107.8125" y="414.6484"/><rect fill="#E6F0FA" height="50.9766" style="stroke: #005A9C; stroke-width: 1.5625;" width="15.625" x="1389.0625" y="465.625"/><rect fill="#E6F0FA" height="101.9531" style="stroke: #005A9C; stroke-width: 1.5625;" width="15.625" x="1738.2813" y="1003.0029"/><rect fill="#E6F0FA" height="50.9766" style="stroke: #005A9C; stroke-width: 1.5625;" width="15.625" x="2099.2188" y="1053.9795"/><rect fill="#E6F0FA" height="50.9766" style="stroke: #005A9C; stroke-width: 1.5625;" width="15.625" x="2099.2188" y="1500.2686"/><rect fill="#E6F0FA" height="254.8828" style="stroke: #005A9C; stroke-width: 1.5625;" width="15.625" x="2303.9063" y="1398.3154"/><rect fill="#E6F0FA" height="152.9297" style="stroke: #005A9C; stroke-width: 1.5625;" width="15.625" x="2599.2188" y="1449.292"/><line style="stroke: #005A9C; stroke-width: 1.5625;" x1="218.75" x2="218.75" y1="185.7422" y2="895.3125"/><line style="stroke: #005A9C; stroke-width: 1.5625; stroke-dasharray: 1.0,4.0;" x1="218.75" x2="218.75" y1="895.3125" y2="964.5264"/><line style="stroke: #005A9C; stroke-width: 1.5625;" x1="218.75" x2="218.75" y1="964.5264" y2="1879.9561"/><line style="stroke: #005A9C; stroke-width: 1.5625;" x1="512.5" x2="512.5" y1="185.7422" y2="895.3125"/><line style="stroke: #005A9C; stroke-width: 1.5625; stroke-dasharray: 1.0,4.0;" x1="512.5" x2="512.5" y1="895.3125" y2="964.5264"/><line style="stroke: #005A9C; stroke-width: 1.5625;" x1="512.5" x2="512.5" y1="964.5264" y2="1879.9561"/><line style="stroke: #005A9C; stroke-width: 1.5625;" x1="813.2813" x2="813.2813" y1="185.7422" y2="895.3125"/><line style="stroke: #005A9C; stroke-width: 1.5625; stroke-dasharray: 1.0,4.0;" x1="813.2813" x2="813.2813" y1="895.3125" y2="964.5264"/><line style="stroke: #005A9C; stroke-width: 1.5625;" x1="813.2813" x2="813.2813" y1="964.5264" y2="1879.9561"/><line style="stroke: #005A9C; stroke-width: 1.5625;" x1="1115.625" x2="1115.625" y1="185.7422" y2="895.3125"/><line style="stroke: #005A9C; stroke-width: 1.5625; stroke-dasharray: 1.0,4.0;" x1="1115.625" x2="1115.625" y1="895.3125" y2="964.5264"/><line style="stroke: #005A9C; stroke-width: 1.5625;" x1="1115.625" x2="1115.625" y1="964.5264" y2="1879.9561"/><line style="stroke: #005A9C; stroke-width: 1.5625;" x1="1396.875" x2="1396.875" y1="185.7422" y2="895.3125"/><line style="stroke: #005A9C; stroke-width: 1.5625; stroke-dasharray: 1.0,4.0;" x1="1396.875" x2="1396.875" y1="895.3125" y2="964.5264"/><line style="stroke: #005A9C; stroke-width: 1.5625;" x1="1396.875" x2="1396.875" y1="964.5264" y2="1879.9561"/><line style="stroke: #005A9C; stroke-width: 1.5625;" x1="1557.8125" x2="1557.8125" y1="185.7422" y2="895.3125"/><line style="stroke: #005A9C; stroke-width: 1.5625; stroke-dasharray: 1.0,4.0;" x1="1557.8125" x2="1557.8125" y1="895.3125" y2="964.5264"/><line style="stroke: #005A9C; stroke-width: 1.5625;" x1="1557.8125" x2="1557.8125" y1="964.5264" y2="1879.9561"/><line style="stroke: #005A9C; stroke-width: 1.5625;" x1="1745.3125" x2="1745.3125" y1="185.7422" y2="895.3125"/><line style="stroke: #005A9C; stroke-width: 1.5625; stroke-dasharray: 1.0,4.0;" x1="1745.3125" x2="1745.3125" y1="895.3125" y2="964.5264"/><line style="stroke: #005A9C; stroke-width: 1.5625;" x1="1745.3125" x2="1745.3125" y1="964.5264" y2="1879.9561"/><line style="stroke: #005A9C; stroke-width: 1.5625;" x1="2106.25" x2="2106.25" y1="185.7422" y2="895.3125"/><line style="stroke: #005A9C; stroke-width: 1.5625; stroke-dasharray: 1.0,4.0;" x1="2106.25" x2="2106.25" y1="895.3125" y2="964.5264"/><line style="stroke: #005A9C; stroke-width: 1.5625;" x1="2106.25" x2="2106.25" y1="964.5264" y2="1879.9561"/><line style="stroke: #005A9C; stroke-width: 1.5625;" x1="2310.9375" x2="2310.9375" y1="185.7422" y2="895.3125"/><line style="stroke: #005A9C; stroke-width: 1.5625; stroke-dasharray: 1.0,4.0;" x1="2310.9375" x2="2310.9375" y1="895.3125" y2="964.5264"/><line style="stroke: #005A9C; stroke-width: 1.5625;" x1="2310.9375" x2="2310.9375" y1="964.5264" y2="1879.9561"/><line style="stroke: #005A9C; stroke-width: 1.5625;" x1="2607.0313" x2="2607.0313" y1="185.7422" y2="895.3125"/><line style="stroke: #005A9C; stroke-width: 1.5625; stroke-dasharray: 1.0,4.0;" x1="2607.0313" x2="2607.0313" y1="895.3125" y2="964.5264"/><line style="stroke: #005A9C; stroke-width: 1.5625;" x1="2607.0313" x2="2607.0313" y1="964.5264" y2="1879.9561"/><text fill="#000000" font-family="Nunito" font-size="25" lengthAdjust="spacingAndGlyphs" textLength="93.75" x="167.1875" y="179.8462">Uživatel</text><ellipse cx="218.75" cy="73.8281" fill="#FEFECE" rx="12.5" ry="12.5" style="stroke: #A80036; stroke-width: 3.125;"/><path d="M218.75,86.3281 L218.75,128.5156 M198.4375,98.8281 L239.0625,98.8281 M218.75,128.5156 L198.4375,151.9531 M218.75,128.5156 L239.0625,151.9531 " fill="none" style="stroke: #A80036; stroke-width: 3.125;"/><text fill="#000000" font-family="Nunito" font-size="25" lengthAdjust="spacingAndGlyphs" textLength="93.75" x="167.1875" y="1901.5991">Uživatel</text><ellipse cx="218.75" cy="1923.1201" fill="#FEFECE" rx="12.5" ry="12.5" style="stroke: #A80036; stroke-width: 3.125;"/><path d="M218.75,1935.6201 L218.75,1977.8076 M198.4375,1948.1201 L239.0625,1948.1201 M218.75,1977.8076 L198.4375,2001.2451 M218.75,1977.8076 L239.0625,2001.2451 " fill="none" style="stroke: #A80036; stroke-width: 3.125;"/><rect fill="#FFFFFF" height="50.9766" style="stroke: #005A9C; stroke-width: 2.34375;" width="140.625" x="442.1875" y="133.2031"/><text fill="#000000" font-family="Nunito" font-size="25" lengthAdjust="spacingAndGlyphs" textLength="118.75" x="453.125" y="167.3462">Controller</text><rect fill="#FFFFFF" height="50.9766" style="stroke: #005A9C; stroke-width: 2.34375;" width="140.625" x="442.1875" y="1878.3936"/><text fill="#000000" font-family="Nunito" font-size="25" lengthAdjust="spacingAndGlyphs" textLength="118.75" x="453.125" y="1912.5366">Controller</text><rect fill="#FFFFFF" height="50.9766" style="stroke: #005A9C; stroke-width: 2.34375;" width="201.5625" x="713.2813" y="133.2031"/><text fill="#000000" font-family="Nunito" font-size="25" lengthAdjust="spacingAndGlyphs" textLength="179.6875" x="724.2188" y="167.3462">Command Bus</text><rect fill="#FFFFFF" height="50.9766" style="stroke: #005A9C; stroke-width: 2.34375;" width="201.5625" x="713.2813" y="1878.3936"/><text fill="#000000" font-family="Nunito" font-size="25" lengthAdjust="spacingAndGlyphs" textLength="179.6875" x="724.2188" y="1912.5366">Command Bus</text><rect fill="#FFFFFF" height="80.0781" style="stroke: #005A9C; stroke-width: 2.34375;" width="146.875" x="1042.1875" y="104.1016"/><text fill="#000000" font-family="Nunito" font-size="25" lengthAdjust="spacingAndGlyphs" textLength="125" x="1053.125" y="138.2446">Command</text><text fill="#000000" font-family="Nunito" font-size="25" lengthAdjust="spacingAndGlyphs" textLength="93.75" x="1068.75" y="167.3462">Handler</text><rect fill="#FFFFFF" height="80.0781" style="stroke: #005A9C; stroke-width: 2.34375;" width="146.875" x="1042.1875" y="1878.3936"/><text fill="#000000" font-family="Nunito" font-size="25" lengthAdjust="spacingAndGlyphs" textLength="125" x="1053.125" y="1912.5366">Command</text><text fill="#000000" font-family="Nunito" font-size="25" lengthAdjust="spacingAndGlyphs" textLength="93.75" x="1068.75" y="1941.6382">Handler</text><text fill="#000000" font-family="Nunito" font-size="25" lengthAdjust="spacingAndGlyphs" textLength="109.375" x="1337.5" y="179.8462">Write DB</text><path d="M1368.75,100.3906 C1368.75,84.7656 1396.875,84.7656 1396.875,84.7656 C1396.875,84.7656 1425,84.7656 1425,100.3906 L1425,141.0156 C1425,156.6406 1396.875,156.6406 1396.875,156.6406 C1396.875,156.6406 1368.75,156.6406 1368.75,141.0156 L1368.75,100.3906 " fill="#FEFECE" style="stroke: #000000; stroke-width: 2.34375;"/><path d="M1368.75,100.3906 C1368.75,116.0156 1396.875,116.0156 1396.875,116.0156 C1396.875,116.0156 1425,116.0156 1425,100.3906 " fill="none" style="stroke: #000000; stroke-width: 2.34375;"/><text fill="#000000" font-family="Nunito" font-size="25" lengthAdjust="spacingAndGlyphs" textLength="109.375" x="1337.5" y="1901.5991">Write DB</text><path d="M1368.75,1923.1201 C1368.75,1907.4951 1396.875,1907.4951 1396.875,1907.4951 C1396.875,1907.4951 1425,1907.4951 1425,1923.1201 L1425,1963.7451 C1425,1979.3701 1396.875,1979.3701 1396.875,1979.3701 C1396.875,1979.3701 1368.75,1979.3701 1368.75,1963.7451 L1368.75,1923.1201 " fill="#FEFECE" style="stroke: #000000; stroke-width: 2.34375;"/><path d="M1368.75,1923.1201 C1368.75,1938.7451 1396.875,1938.7451 1396.875,1938.7451 C1396.875,1938.7451 1425,1938.7451 1425,1923.1201 " fill="none" style="stroke: #000000; stroke-width: 2.34375;"/><rect fill="#FFFFFF" height="80.0781" style="stroke: #005A9C; stroke-width: 2.34375;" width="173.4375" x="1471.875" y="104.1016"/><text fill="#000000" font-family="Nunito" font-size="25" lengthAdjust="spacingAndGlyphs" textLength="123.4375" x="1496.875" y="138.2446">Event Bus</text><text fill="#000000" font-family="Nunito" font-size="25" lengthAdjust="spacingAndGlyphs" textLength="151.5625" x="1482.8125" y="167.3462">(Messenger)</text><rect fill="#FFFFFF" height="80.0781" style="stroke: #005A9C; stroke-width: 2.34375;" width="173.4375" x="1471.875" y="1878.3936"/><text fill="#000000" font-family="Nunito" font-size="25" lengthAdjust="spacingAndGlyphs" textLength="123.4375" x="1496.875" y="1912.5366">Event Bus</text><text fill="#000000" font-family="Nunito" font-size="25" lengthAdjust="spacingAndGlyphs" textLength="151.5625" x="1482.8125" y="1941.6382">(Messenger)</text><rect fill="#FFFFFF" height="50.9766" style="stroke: #005A9C; stroke-width: 2.34375;" width="132.8125" x="1679.6875" y="133.2031"/><text fill="#000000" font-family="Nunito" font-size="25" lengthAdjust="spacingAndGlyphs" textLength="110.9375" x="1690.625" y="167.3462">Projektor</text><rect fill="#FFFFFF" height="50.9766" style="stroke: #005A9C; stroke-width: 2.34375;" width="132.8125" x="1679.6875" y="1878.3936"/><text fill="#000000" font-family="Nunito" font-size="25" lengthAdjust="spacingAndGlyphs" textLength="110.9375" x="1690.625" y="1912.5366">Projektor</text><text fill="#000000" font-family="Nunito" font-size="25" lengthAdjust="spacingAndGlyphs" textLength="104.6875" x="2050" y="150.7446">Read DB</text><text fill="#000000" font-family="Nunito" font-size="25" lengthAdjust="spacingAndGlyphs" textLength="217.1875" x="1993.75" y="179.8462">(denorm. tabulka)</text><path d="M2078.9063,71.2891 C2078.9063,55.6641 2107.0313,55.6641 2107.0313,55.6641 C2107.0313,55.6641 2135.1563,55.6641 2135.1563,71.2891 L2135.1563,111.9141 C2135.1563,127.5391 2107.0313,127.5391 2107.0313,127.5391 C2107.0313,127.5391 2078.9063,127.5391 2078.9063,111.9141 L2078.9063,71.2891 " fill="#FEFECE" style="stroke: #000000; stroke-width: 2.34375;"/><path d="M2078.9063,71.2891 C2078.9063,86.9141 2107.0313,86.9141 2107.0313,86.9141 C2107.0313,86.9141 2135.1563,86.9141 2135.1563,71.2891 " fill="none" style="stroke: #000000; stroke-width: 2.34375;"/><text fill="#000000" font-family="Nunito" font-size="25" lengthAdjust="spacingAndGlyphs" textLength="104.6875" x="2050" y="1901.5991">Read DB</text><text fill="#000000" font-family="Nunito" font-size="25" lengthAdjust="spacingAndGlyphs" textLength="217.1875" x="1993.75" y="1930.7007">(denorm. tabulka)</text><path d="M2078.9063,1952.2217 C2078.9063,1936.5967 2107.0313,1936.5967 2107.0313,1936.5967 C2107.0313,1936.5967 2135.1563,1936.5967 2135.1563,1952.2217 L2135.1563,1992.8467 C2135.1563,2008.4717 2107.0313,2008.4717 2107.0313,2008.4717 C2107.0313,2008.4717 2078.9063,2008.4717 2078.9063,1992.8467 L2078.9063,1952.2217 " fill="#FEFECE" style="stroke: #000000; stroke-width: 2.34375;"/><path d="M2078.9063,1952.2217 C2078.9063,1967.8467 2107.0313,1967.8467 2107.0313,1967.8467 C2107.0313,1967.8467 2135.1563,1967.8467 2135.1563,1952.2217 " fill="none" style="stroke: #000000; stroke-width: 2.34375;"/><rect fill="#FFFFFF" height="50.9766" style="stroke: #005A9C; stroke-width: 2.34375;" width="151.5625" x="2235.9375" y="133.2031"/><text fill="#000000" font-family="Nunito" font-size="25" lengthAdjust="spacingAndGlyphs" textLength="129.6875" x="2246.875" y="167.3462">Query Bus</text><rect fill="#FFFFFF" height="50.9766" style="stroke: #005A9C; stroke-width: 2.34375;" width="151.5625" x="2235.9375" y="1878.3936"/><text fill="#000000" font-family="Nunito" font-size="25" lengthAdjust="spacingAndGlyphs" textLength="129.6875" x="2246.875" y="1912.5366">Query Bus</text><rect fill="#FFFFFF" height="80.0781" style="stroke: #005A9C; stroke-width: 2.34375;" width="115.625" x="2549.2188" y="104.1016"/><text fill="#000000" font-family="Nunito" font-size="25" lengthAdjust="spacingAndGlyphs" textLength="75" x="2569.5313" y="138.2446">Query</text><text fill="#000000" font-family="Nunito" font-size="25" lengthAdjust="spacingAndGlyphs" textLength="93.75" x="2560.1563" y="167.3462">Handler</text><rect fill="#FFFFFF" height="80.0781" style="stroke: #005A9C; stroke-width: 2.34375;" width="115.625" x="2549.2188" y="1878.3936"/><text fill="#000000" font-family="Nunito" font-size="25" lengthAdjust="spacingAndGlyphs" textLength="75" x="2569.5313" y="1912.5366">Query</text><text fill="#000000" font-family="Nunito" font-size="25" lengthAdjust="spacingAndGlyphs" textLength="93.75" x="2560.1563" y="1941.6382">Handler</text><rect fill="#E6F0FA" height="497.2656" style="stroke: #005A9C; stroke-width: 1.5625;" width="15.625" x="504.6875" y="312.6953"/><rect fill="#E6F0FA" height="356.8359" style="stroke: #005A9C; stroke-width: 1.5625;" width="15.625" x="504.6875" y="1347.3389"/><rect fill="#E6F0FA" height="395.3125" style="stroke: #005A9C; stroke-width: 1.5625;" width="15.625" x="806.25" y="363.6719"/><rect fill="#E6F0FA" height="293.3594" style="stroke: #005A9C; stroke-width: 1.5625;" width="15.625" x="1107.8125" y="414.6484"/><rect fill="#E6F0FA" height="50.9766" style="stroke: #005A9C; stroke-width: 1.5625;" width="15.625" x="1389.0625" y="465.625"/><rect fill="#E6F0FA" height="101.9531" style="stroke: #005A9C; stroke-width: 1.5625;" width="15.625" x="1738.2813" y="1003.0029"/><rect fill="#E6F0FA" height="50.9766" style="stroke: #005A9C; stroke-width: 1.5625;" width="15.625" x="2099.2188" y="1053.9795"/><rect fill="#E6F0FA" height="50.9766" style="stroke: #005A9C; stroke-width: 1.5625;" width="15.625" x="2099.2188" y="1500.2686"/><rect fill="#E6F0FA" height="254.8828" style="stroke: #005A9C; stroke-width: 1.5625;" width="15.625" x="2303.9063" y="1398.3154"/><rect fill="#E6F0FA" height="152.9297" style="stroke: #005A9C; stroke-width: 1.5625;" width="15.625" x="2599.2188" y="1449.292"/><rect fill="#E6F0FA" height="4.6875" style="stroke: #E6F0FA; stroke-width: 1.5625;" width="2667.9688" x="4.6875" y="236.2305"/><line style="stroke: #005A9C; stroke-width: 1.5625;" x1="4.6875" x2="2672.6563" y1="236.2305" y2="236.2305"/><line style="stroke: #005A9C; stroke-width: 1.5625;" x1="4.6875" x2="2672.6563" y1="240.918" y2="240.918"/><rect fill="#E6F0FA" height="41.6016" style="stroke: #005A9C; stroke-width: 3.125;" width="307.8125" x="1184.7656" y="216.9922"/><text fill="#000000" font-family="Nunito" font-size="25" font-weight="bold" lengthAdjust="spacingAndGlyphs" textLength="276.5625" x="1194.1406" y="246.4478">1. Zápis (Command)</text><polygon fill="#005A9C" points="485.9375,306.4453,501.5625,312.6953,485.9375,318.9453,492.1875,312.6953" style="stroke: #005A9C; stroke-width: 1.5625;"/><line style="stroke: #005A9C; stroke-width: 3.125;" x1="218.75" x2="495.3125" y1="312.6953" y2="312.6953"/><text fill="#000000" font-family="Nunito" font-size="25" lengthAdjust="spacingAndGlyphs" textLength="162.5" x="229.6875" y="303.6743">POST /orders</text><polygon fill="#005A9C" points="787.5,357.4219,803.125,363.6719,787.5,369.9219,793.75,363.6719" style="stroke: #005A9C; stroke-width: 1.5625;"/><line style="stroke: #005A9C; stroke-width: 3.125;" x1="520.3125" x2="796.875" y1="363.6719" y2="363.6719"/><text fill="#000000" font-family="Nunito" font-size="25" lengthAdjust="spacingAndGlyphs" textLength="256.25" x="531.25" y="354.6509">dispatch(PlaceOrder)</text><polygon fill="#005A9C" points="1089.0625,408.3984,1104.6875,414.6484,1089.0625,420.8984,1095.3125,414.6484" style="stroke: #005A9C; stroke-width: 1.5625;"/><line style="stroke: #005A9C; stroke-width: 3.125;" x1="821.875" x2="1098.4375" y1="414.6484" y2="414.6484"/><text fill="#000000" font-family="Nunito" font-size="25" lengthAdjust="spacingAndGlyphs" textLength="256.25" x="832.8125" y="405.6274">__invoke(PlaceOrder)</text><polygon fill="#005A9C" points="1370.3125,459.375,1385.9375,465.625,1370.3125,471.875,1376.5625,465.625" style="stroke: #005A9C; stroke-width: 1.5625;"/><line style="stroke: #005A9C; stroke-width: 3.125;" x1="1123.4375" x2="1379.6875" y1="465.625" y2="465.625"/><text fill="#000000" font-family="Nunito" font-size="25" lengthAdjust="spacingAndGlyphs" textLength="235.9375" x="1134.375" y="456.604">INSERT (transakce)</text><polygon fill="#005A9C" points="1140.625,510.3516,1125,516.6016,1140.625,522.8516,1134.375,516.6016" style="stroke: #005A9C; stroke-width: 1.5625;"/><line style="stroke: #005A9C; stroke-width: 3.125; stroke-dasharray: 2.0,2.0;" x1="1131.25" x2="1395.3125" y1="516.6016" y2="516.6016"/><text fill="#000000" font-family="Nunito" font-size="25" lengthAdjust="spacingAndGlyphs" textLength="35.9375" x="1150" y="507.5806">OK</text><polygon fill="#005A9C" points="1539.8438,561.3281,1555.4688,567.5781,1539.8438,573.8281,1546.0938,567.5781" style="stroke: #005A9C; stroke-width: 1.5625;"/><line style="stroke: #005A9C; stroke-width: 3.125;" x1="1123.4375" x2="1549.2188" y1="567.5781" y2="567.5781"/><text fill="#000000" font-family="Nunito" font-size="25" lengthAdjust="spacingAndGlyphs" textLength="271.875" x="1134.375" y="558.5571">dispatch(OrderPlaced)</text><path d="M1565.625,587.8906 L1565.625,661.3281 L1823.4375,661.3281 L1823.4375,603.5156 L1807.8125,587.8906 L1565.625,587.8906 " fill="#E6F0FA" style="stroke: #005A9C; stroke-width: 1.5625;"/><path d="M1807.8125,587.8906 L1807.8125,603.5156 L1823.4375,603.5156 L1807.8125,587.8906 " fill="#E6F0FA" style="stroke: #005A9C; stroke-width: 1.5625;"/><text fill="#000000" font-family="Nunito" font-size="25" lengthAdjust="spacingAndGlyphs" textLength="210.9375" x="1589.0625" y="618.9087">Událost zařazena</text><text fill="#000000" font-family="Nunito" font-size="25" lengthAdjust="spacingAndGlyphs" textLength="193.75" x="1597.6563" y="648.0103">do async fronty</text><polygon fill="#005A9C" points="839.0625,701.7578,823.4375,708.0078,839.0625,714.2578,832.8125,708.0078" style="stroke: #005A9C; stroke-width: 1.5625;"/><line style="stroke: #005A9C; stroke-width: 3.125; stroke-dasharray: 2.0,2.0;" x1="829.6875" x2="1114.0625" y1="708.0078" y2="708.0078"/><text fill="#000000" font-family="Nunito" font-size="25" lengthAdjust="spacingAndGlyphs" textLength="50" x="848.4375" y="698.9868">void</text><polygon fill="#005A9C" points="537.5,752.7344,521.875,758.9844,537.5,765.2344,531.25,758.9844" style="stroke: #005A9C; stroke-width: 1.5625;"/><line style="stroke: #005A9C; stroke-width: 3.125; stroke-dasharray: 2.0,2.0;" x1="528.125" x2="812.5" y1="758.9844" y2="758.9844"/><text fill="#000000" font-family="Nunito" font-size="25" lengthAdjust="spacingAndGlyphs" textLength="109.375" x="546.875" y="749.9634">Envelope</text><polygon fill="#005A9C" points="235.9375,803.7109,220.3125,809.9609,235.9375,816.2109,229.6875,809.9609" style="stroke: #005A9C; stroke-width: 1.5625;"/><line style="stroke: #005A9C; stroke-width: 3.125; stroke-dasharray: 2.0,2.0;" x1="226.5625" x2="510.9375" y1="809.9609" y2="809.9609"/><text fill="#000000" font-family="Nunito" font-size="25" lengthAdjust="spacingAndGlyphs" textLength="248.4375" x="245.3125" y="800.9399">302 Redirect + flash</text><rect fill="#E6F0FA" height="4.6875" style="stroke: #E6F0FA; stroke-width: 1.5625;" width="2667.9688" x="4.6875" y="857.3242"/><line style="stroke: #005A9C; stroke-width: 1.5625;" x1="4.6875" x2="2672.6563" y1="857.3242" y2="857.3242"/><line style="stroke: #005A9C; stroke-width: 1.5625;" x1="4.6875" x2="2672.6563" y1="862.0117" y2="862.0117"/><rect fill="#E6F0FA" height="41.6016" style="stroke: #005A9C; stroke-width: 3.125;" width="392.1875" x="1142.5781" y="838.0859"/><text fill="#000000" font-family="Nunito" font-size="25" font-weight="bold" lengthAdjust="spacingAndGlyphs" textLength="360.9375" x="1151.9531" y="867.5415">2. Asynchronní propagace</text><text fill="#000000" font-family="Nunito" font-size="21.875" lengthAdjust="spacingAndGlyphs" textLength="0" x="1277.7344" y="937.4924"/><text fill="#000000" font-family="Nunito" font-size="21.875" font-weight="bold" lengthAdjust="spacingAndGlyphs" textLength="182.8125" x="1277.7344" y="937.4924">Časový odstup</text><text fill="#000000" font-family="Nunito" font-size="21.875" lengthAdjust="spacingAndGlyphs" textLength="81.25" x="1466.7969" y="937.4924">(ms - s)</text><polygon fill="#005A9C" points="1719.5313,996.7529,1735.1563,1003.0029,1719.5313,1009.2529,1725.7813,1003.0029" style="stroke: #005A9C; stroke-width: 1.5625;"/><line style="stroke: #005A9C; stroke-width: 3.125;" x1="1558.5938" x2="1728.9063" y1="1003.0029" y2="1003.0029"/><text fill="#000000" font-family="Nunito" font-size="25" lengthAdjust="spacingAndGlyphs" textLength="150" x="1569.5313" y="993.9819">OrderPlaced</text><polygon fill="#005A9C" points="2080.4688,1047.7295,2096.0938,1053.9795,2080.4688,1060.2295,2086.7188,1053.9795" style="stroke: #005A9C; stroke-width: 1.5625;"/><line style="stroke: #005A9C; stroke-width: 3.125;" x1="1753.9063" x2="2089.8438" y1="1053.9795" y2="1053.9795"/><text fill="#000000" font-family="Nunito" font-size="25" lengthAdjust="spacingAndGlyphs" textLength="315.625" x="1764.8438" y="1044.9585">UPSERT order_dashboard</text><polygon fill="#005A9C" points="1763.2813,1098.7061,1747.6563,1104.9561,1763.2813,1111.2061,1757.0313,1104.9561" style="stroke: #005A9C; stroke-width: 1.5625;"/><line style="stroke: #005A9C; stroke-width: 3.125; stroke-dasharray: 2.0,2.0;" x1="1753.9063" x2="2105.4688" y1="1104.9561" y2="1104.9561"/><text fill="#000000" font-family="Nunito" font-size="25" lengthAdjust="spacingAndGlyphs" textLength="35.9375" x="1772.6563" y="1095.9351">OK</text><path d="M1462.5,1125.2686 L1462.5,1226.8311 L2203.125,1226.8311 L2203.125,1140.8936 L2187.5,1125.2686 L1462.5,1125.2686 " fill="#E6F0FA" style="stroke: #005A9C; stroke-width: 1.5625;"/><path d="M2187.5,1125.2686 L2187.5,1140.8936 L2203.125,1140.8936 L2187.5,1125.2686 " fill="#E6F0FA" style="stroke: #005A9C; stroke-width: 1.5625;"/><text fill="#000000" font-family="Nunito" font-size="25" lengthAdjust="spacingAndGlyphs" textLength="332.8125" x="1666.4063" y="1156.2866">Eventual consistency okno:</text><text fill="#000000" font-family="Nunito" font-size="25" lengthAdjust="spacingAndGlyphs" textLength="320.3125" x="1672.6563" y="1185.3882">mezi zápisem do Write DB</text><text fill="#000000" font-family="Nunito" font-size="25" lengthAdjust="spacingAndGlyphs" textLength="257.8125" x="1703.9063" y="1214.4897">a aktualizací Read DB</text><rect fill="#E6F0FA" height="4.6875" style="stroke: #E6F0FA; stroke-width: 1.5625;" width="2667.9688" x="4.6875" y="1270.874"/><line style="stroke: #005A9C; stroke-width: 1.5625;" x1="4.6875" x2="2672.6563" y1="1270.874" y2="1270.874"/><line style="stroke: #005A9C; stroke-width: 1.5625;" x1="4.6875" x2="2672.6563" y1="1275.5615" y2="1275.5615"/><rect fill="#E6F0FA" height="41.6016" style="stroke: #005A9C; stroke-width: 3.125;" width="254.6875" x="1211.3281" y="1251.6357"/><text fill="#000000" font-family="Nunito" font-size="25" font-weight="bold" lengthAdjust="spacingAndGlyphs" textLength="223.4375" x="1220.7031" y="1281.0913">3. Čtení (Query)</text><polygon fill="#005A9C" points="485.9375,1341.0889,501.5625,1347.3389,485.9375,1353.5889,492.1875,1347.3389" style="stroke: #005A9C; stroke-width: 1.5625;"/><line style="stroke: #005A9C; stroke-width: 3.125;" x1="218.75" x2="495.3125" y1="1347.3389" y2="1347.3389"/><text fill="#000000" font-family="Nunito" font-size="25" lengthAdjust="spacingAndGlyphs" textLength="145.3125" x="229.6875" y="1338.3179">GET /orders</text><polygon fill="#005A9C" points="2285.1563,1392.0654,2300.7813,1398.3154,2285.1563,1404.5654,2291.4063,1398.3154" style="stroke: #005A9C; stroke-width: 1.5625;"/><line style="stroke: #005A9C; stroke-width: 3.125;" x1="520.3125" x2="2294.5313" y1="1398.3154" y2="1398.3154"/><text fill="#000000" font-family="Nunito" font-size="25" lengthAdjust="spacingAndGlyphs" textLength="250" x="531.25" y="1389.2944">dispatch(ListOrders)</text><polygon fill="#005A9C" points="2580.4688,1443.042,2596.0938,1449.292,2580.4688,1455.542,2586.7188,1449.292" style="stroke: #005A9C; stroke-width: 1.5625;"/><line style="stroke: #005A9C; stroke-width: 3.125;" x1="2319.5313" x2="2589.8438" y1="1449.292" y2="1449.292"/><text fill="#000000" font-family="Nunito" font-size="25" lengthAdjust="spacingAndGlyphs" textLength="250" x="2330.4688" y="1440.271">__invoke(ListOrders)</text><polygon fill="#005A9C" points="2132.0313,1494.0186,2116.4063,1500.2686,2132.0313,1506.5186,2125.7813,1500.2686" style="stroke: #005A9C; stroke-width: 1.5625;"/><line style="stroke: #005A9C; stroke-width: 3.125;" x1="2122.6563" x2="2597.6563" y1="1500.2686" y2="1500.2686"/><text fill="#000000" font-family="Nunito" font-size="25" lengthAdjust="spacingAndGlyphs" textLength="320.3125" x="2141.4063" y="1491.2476">SELECT z denorm. tabulky</text><polygon fill="#005A9C" points="2580.4688,1544.9951,2596.0938,1551.2451,2580.4688,1557.4951,2586.7188,1551.2451" style="stroke: #005A9C; stroke-width: 1.5625;"/><line style="stroke: #005A9C; stroke-width: 3.125; stroke-dasharray: 2.0,2.0;" x1="2107.0313" x2="2589.8438" y1="1551.2451" y2="1551.2451"/><text fill="#000000" font-family="Nunito" font-size="25" lengthAdjust="spacingAndGlyphs" textLength="104.6875" x="2117.9688" y="1542.2241">výsledky</text><polygon fill="#005A9C" points="2336.7188,1595.9717,2321.0938,1602.2217,2336.7188,1608.4717,2330.4688,1602.2217" style="stroke: #005A9C; stroke-width: 1.5625;"/><line style="stroke: #005A9C; stroke-width: 3.125; stroke-dasharray: 2.0,2.0;" x1="2327.3438" x2="2605.4688" y1="1602.2217" y2="1602.2217"/><text fill="#000000" font-family="Nunito" font-size="25" lengthAdjust="spacingAndGlyphs" textLength="145.3125" x="2346.0938" y="1593.2007">ViewModel[]</text><polygon fill="#005A9C" points="537.5,1646.9482,521.875,1653.1982,537.5,1659.4482,531.25,1653.1982" style="stroke: #005A9C; stroke-width: 1.5625;"/><line style="stroke: #005A9C; stroke-width: 3.125; stroke-dasharray: 2.0,2.0;" x1="528.125" x2="2310.1563" y1="1653.1982" y2="1653.1982"/><text fill="#000000" font-family="Nunito" font-size="25" lengthAdjust="spacingAndGlyphs" textLength="109.375" x="546.875" y="1644.1772">Envelope</text><polygon fill="#005A9C" points="235.9375,1697.9248,220.3125,1704.1748,235.9375,1710.4248,229.6875,1704.1748" style="stroke: #005A9C; stroke-width: 1.5625;"/><line style="stroke: #005A9C; stroke-width: 3.125; stroke-dasharray: 2.0,2.0;" x1="226.5625" x2="510.9375" y1="1704.1748" y2="1704.1748"/><text fill="#000000" font-family="Nunito" font-size="25" lengthAdjust="spacingAndGlyphs" textLength="189.0625" x="245.3125" y="1695.1538">HTML response</text><path d="M12.5,1724.4873 L12.5,1855.7373 L425,1855.7373 L425,1740.1123 L409.375,1724.4873 L12.5,1724.4873 " fill="#E6F0FA" style="stroke: #005A9C; stroke-width: 1.5625;"/><path d="M409.375,1724.4873 L409.375,1740.1123 L425,1740.1123 L409.375,1724.4873 " fill="#E6F0FA" style="stroke: #005A9C; stroke-width: 1.5625;"/><text fill="#000000" font-family="Nunito" font-size="25" lengthAdjust="spacingAndGlyphs" textLength="267.1875" x="49.2188" y="1755.5054">Pokud čtení proběhne</text><text fill="#000000" font-family="Nunito" font-size="25" font-weight="bold" lengthAdjust="spacingAndGlyphs" textLength="64.0625" x="324.2188" y="1755.5054">před</text><text fill="#000000" font-family="Nunito" font-size="25" lengthAdjust="spacingAndGlyphs" textLength="365.625" x="35.9375" y="1784.6069">dokončením projekce, uživatel</text><text fill="#000000" font-family="Nunito" font-size="25" lengthAdjust="spacingAndGlyphs" textLength="265.625" x="85.9375" y="1813.7085">vidí starší stav — to je</text><text fill="#000000" font-family="Nunito" font-size="25" lengthAdjust="spacingAndGlyphs" textLength="262.5" x="87.5" y="1842.8101">eventual consistency.</text><!--MD5=[2b00687f8b700be6d4a48eed1a5dfaba]
@startuml
skinparam dpi 150
skinparam backgroundColor #FAFAFA
skinparam shadowing false

skinparam defaultFontName "Nunito"
skinparam defaultFontSize 16
skinparam defaultTextAlignment center

skinparam node {
  BackgroundColor #FFFFFF
  BorderColor #005A9C
  BorderThickness 2
}

skinparam component {
  BackgroundColor #FFFFFF
  BorderColor #005A9C
  BorderThickness 2
}

skinparam rectangle {
  BackgroundColor #FFFFFF
  BorderColor #005A9C
  BorderThickness 2
}

skinparam arrowColor #005A9C
skinparam arrowThickness 2

skinparam sequence {
  ParticipantBorderColor #005A9C
  LifeLineBorderColor #005A9C
  LifeLineBackgroundColor #E6F0FA
  ParticipantBackgroundColor #FFFFFF
  ParticipantFontSize 16
  ArrowColor #005A9C
  DividerBackgroundColor #E6F0FA
  DividerBorderColor #005A9C
  GroupBackgroundColor #F5F5F5
  GroupBorderColor #005A9C
  DelayFontSize 14
}

skinparam note {
  BackgroundColor #E6F0FA
  BorderColor #005A9C
}

skinparam sequenceArrowThickness 2
skinparam sequenceArrowColor #005A9C

title Eventual Consistency — datový tok v CQRS

actor "Uživatel" as U
participant "Controller" as C
participant "Command Bus" as CB
participant "Command\nHandler" as CH
database "Write DB" as WDB
participant "Event Bus\n(Messenger)" as EB
participant "Projektor" as P
database "Read DB\n(denorm. tabulka)" as RDB
participant "Query Bus" as QB
participant "Query\nHandler" as QH

== 1. Zápis (Command) ==

U -> C : POST /orders
activate C
C -> CB : dispatch(PlaceOrder)
activate CB
CB -> CH : __invoke(PlaceOrder)
activate CH
CH -> WDB : INSERT (transakce)
activate WDB
WDB - -> CH : OK
deactivate WDB
CH -> EB : dispatch(OrderPlaced)
note right of EB
  Událost zařazena
  do async fronty
end note
CH - -> CB : void
deactivate CH
CB - -> C : Envelope
deactivate CB
C - -> U : 302 Redirect + flash
deactivate C

== 2. Asynchronní propagace ==

... **Časový odstup** (ms - s) ...

EB -> P : OrderPlaced
activate P
P -> RDB : UPSERT order_dashboard
activate RDB
RDB - -> P : OK
deactivate RDB
deactivate P
note over EB, RDB
  Eventual consistency okno:
  mezi zápisem do Write DB
  a aktualizací Read DB
end note

== 3. Čtení (Query) ==

U -> C : GET /orders
activate C
C -> QB : dispatch(ListOrders)
activate QB
QB -> QH : __invoke(ListOrders)
activate QH
QH -> RDB : SELECT z denorm. tabulky
activate RDB
RDB - -> QH : výsledky
deactivate RDB
QH - -> QB : ViewModel[]
deactivate QH
QB - -> C : Envelope
deactivate QB
C - -> U : HTML response
deactivate C

note over U
  Pokud čtení proběhne **před**
  dokončením projekce, uživatel
  vidí starší stav — to je
  eventual consistency.
end note

@enduml

PlantUML version 1.2020.02(Sun Mar 01 11:22:07 CET 2020)
(GPL source distribution)
Java Runtime: OpenJDK Runtime Environment
JVM: OpenJDK 64-Bit Server VM
Java Version: 21.0.10+7-Debian-1deb13u1
Operating System: Linux
Default Encoding: UTF-8
Language: cs
Country: CZ
--></g></svg>