<?xml version="1.0" encoding="UTF-8" standalone="no"?><svg xmlns="http://www.w3.org/2000/svg" xmlns:xlink="http://www.w3.org/1999/xlink" contentScriptType="application/ecmascript" contentStyleType="text/css" height="1454.6875px" preserveAspectRatio="none" style="width:1871px;height:1454px;background:#11141A;" version="1.1" viewBox="0 0 1871 1454" width="1871.875px" zoomAndPan="magnify"><defs/><g><text fill="#E6E8EC" font-family="DejaVu Sans" font-size="28.125" lengthAdjust="spacingAndGlyphs" textLength="859.375" x="499.2188" y="41.7313">Transactional Outbox: 4 fáze publikování doménového eventu</text><rect fill="#11141A" height="198.0957" rx="4.6875" ry="4.6875" style="stroke: #3D424E; stroke-width: 3.125;" width="929.6875" x="443.75" y="858.9111"/><line style="stroke: #3D424E; stroke-width: 1.5625; stroke-dasharray: 5.0,5.0;" x1="123.4375" x2="123.4375" y1="182.1045" y2="1315.1123"/><line style="stroke: #3D424E; stroke-width: 1.5625; stroke-dasharray: 5.0,5.0;" x1="559.375" x2="559.375" y1="182.1045" y2="1315.1123"/><line style="stroke: #3D424E; stroke-width: 1.5625; stroke-dasharray: 5.0,5.0;" x1="971.875" x2="971.875" y1="182.1045" y2="1315.1123"/><line style="stroke: #3D424E; stroke-width: 1.5625; stroke-dasharray: 5.0,5.0;" x1="1289.0625" x2="1289.0625" y1="182.1045" y2="1315.1123"/><line style="stroke: #3D424E; stroke-width: 1.5625; stroke-dasharray: 5.0,5.0;" x1="1460.9375" x2="1460.9375" y1="182.1045" y2="1315.1123"/><rect fill="#161A22" height="47.3389" rx="4.6875" ry="4.6875" style="stroke: #3D424E; stroke-width: 2.34375;" width="223.4375" x="12.5" y="133.2031"/><text fill="#E6E8EC" font-family="DejaVu Sans" font-size="21.875" lengthAdjust="spacingAndGlyphs" textLength="201.5625" x="23.4375" y="164.4455">PlaceOrderHandler</text><rect fill="#161A22" height="47.3389" rx="4.6875" ry="4.6875" style="stroke: #3D424E; stroke-width: 2.34375;" width="223.4375" x="12.5" y="1313.5498"/><text fill="#E6E8EC" font-family="DejaVu Sans" font-size="21.875" lengthAdjust="spacingAndGlyphs" textLength="201.5625" x="23.4375" y="1344.7922">PlaceOrderHandler</text><text fill="#E6E8EC" font-family="DejaVu Sans" font-size="21.875" lengthAdjust="spacingAndGlyphs" textLength="32.8125" x="539.0625" y="151.4816">DB</text><text fill="#E6E8EC" font-family="DejaVu Sans" font-size="21.875" lengthAdjust="spacingAndGlyphs" textLength="192.1875" x="459.375" y="176.9455">(orders + outbox)</text><path d="M532.0313,74.9268 C532.0313,59.3018 560.1563,59.3018 560.1563,59.3018 C560.1563,59.3018 588.2813,59.3018 588.2813,74.9268 L588.2813,115.5518 C588.2813,131.1768 560.1563,131.1768 560.1563,131.1768 C560.1563,131.1768 532.0313,131.1768 532.0313,115.5518 L532.0313,74.9268 " fill="#1B202A" style="stroke: #3D424E; stroke-width: 2.34375;"/><path d="M532.0313,74.9268 C532.0313,90.5518 560.1563,90.5518 560.1563,90.5518 C560.1563,90.5518 588.2813,90.5518 588.2813,74.9268 " fill="none" style="stroke: #3D424E; stroke-width: 2.34375;"/><text fill="#E6E8EC" font-family="DejaVu Sans" font-size="21.875" lengthAdjust="spacingAndGlyphs" textLength="32.8125" x="539.0625" y="1333.8547">DB</text><text fill="#E6E8EC" font-family="DejaVu Sans" font-size="21.875" lengthAdjust="spacingAndGlyphs" textLength="192.1875" x="459.375" y="1359.3185">(orders + outbox)</text><path d="M532.0313,1380.1025 C532.0313,1364.4775 560.1563,1364.4775 560.1563,1364.4775 C560.1563,1364.4775 588.2813,1364.4775 588.2813,1380.1025 L588.2813,1420.7275 C588.2813,1436.3525 560.1563,1436.3525 560.1563,1436.3525 C560.1563,1436.3525 532.0313,1436.3525 532.0313,1420.7275 L532.0313,1380.1025 " fill="#1B202A" style="stroke: #3D424E; stroke-width: 2.34375;"/><path d="M532.0313,1380.1025 C532.0313,1395.7275 560.1563,1395.7275 560.1563,1395.7275 C560.1563,1395.7275 588.2813,1395.7275 588.2813,1380.1025 " fill="none" style="stroke: #3D424E; stroke-width: 2.34375;"/><rect fill="#161A22" height="72.8027" rx="4.6875" ry="4.6875" style="stroke: #3D424E; stroke-width: 2.34375;" width="270.3125" x="837.5" y="107.7393"/><text fill="#E6E8EC" font-family="DejaVu Sans" font-size="21.875" lengthAdjust="spacingAndGlyphs" textLength="142.1875" x="901.5625" y="138.9816">Outbox Relay</text><text fill="#E6E8EC" font-family="DejaVu Sans" font-size="21.875" lengthAdjust="spacingAndGlyphs" textLength="248.4375" x="848.4375" y="164.4455">(messenger:consume)</text><rect fill="#161A22" height="72.8027" rx="4.6875" ry="4.6875" style="stroke: #3D424E; stroke-width: 2.34375;" width="270.3125" x="837.5" y="1313.5498"/><text fill="#E6E8EC" font-family="DejaVu Sans" font-size="21.875" lengthAdjust="spacingAndGlyphs" textLength="142.1875" x="901.5625" y="1344.7922">Outbox Relay</text><text fill="#E6E8EC" font-family="DejaVu Sans" font-size="21.875" lengthAdjust="spacingAndGlyphs" textLength="248.4375" x="848.4375" y="1370.256">(messenger:consume)</text><path d="M1229.6875,141.0156 L1350,141.0156 C1357.8125,141.0156 1357.8125,161.5601 1357.8125,161.5601 C1357.8125,161.5601 1357.8125,182.1045 1350,182.1045 L1229.6875,182.1045 C1221.875,182.1045 1221.875,161.5601 1221.875,161.5601 C1221.875,161.5601 1221.875,141.0156 1229.6875,141.0156 " fill="#1B202A" style="stroke: #A80036; stroke-width: 3.125;"/><path d="M1350,141.0156 C1342.1875,141.0156 1342.1875,161.5601 1342.1875,161.5601 C1342.1875,182.1045 1350,182.1045 1350,182.1045 " fill="none" style="stroke: #A80036; stroke-width: 3.125;"/><text fill="#E6E8EC" font-family="DejaVu Sans" font-size="21.875" lengthAdjust="spacingAndGlyphs" textLength="104.6875" x="1229.6875" y="169.133">RabbitMQ</text><path d="M1229.6875,1313.5498 L1350,1313.5498 C1357.8125,1313.5498 1357.8125,1334.0942 1357.8125,1334.0942 C1357.8125,1334.0942 1357.8125,1354.6387 1350,1354.6387 L1229.6875,1354.6387 C1221.875,1354.6387 1221.875,1334.0942 1221.875,1334.0942 C1221.875,1334.0942 1221.875,1313.5498 1229.6875,1313.5498 " fill="#1B202A" style="stroke: #A80036; stroke-width: 3.125;"/><path d="M1350,1313.5498 C1342.1875,1313.5498 1342.1875,1334.0942 1342.1875,1334.0942 C1342.1875,1354.6387 1350,1354.6387 1350,1354.6387 " fill="none" style="stroke: #A80036; stroke-width: 3.125;"/><text fill="#E6E8EC" font-family="DejaVu Sans" font-size="21.875" lengthAdjust="spacingAndGlyphs" textLength="104.6875" x="1229.6875" y="1341.6672">RabbitMQ</text><rect fill="#161A22" height="47.3389" rx="4.6875" ry="4.6875" style="stroke: #3D424E; stroke-width: 2.34375;" width="175" x="1373.4375" y="133.2031"/><text fill="#E6E8EC" font-family="DejaVu Sans" font-size="21.875" lengthAdjust="spacingAndGlyphs" textLength="153.125" x="1384.375" y="164.4455">Subscriber BC</text><rect fill="#161A22" height="47.3389" rx="4.6875" ry="4.6875" style="stroke: #3D424E; stroke-width: 2.34375;" width="175" x="1373.4375" y="1313.5498"/><text fill="#E6E8EC" font-family="DejaVu Sans" font-size="21.875" lengthAdjust="spacingAndGlyphs" textLength="153.125" x="1384.375" y="1344.7922">Subscriber BC</text><rect fill="#1B202A" height="4.6875" style="stroke: #1B202A; stroke-width: 1.5625;" width="1848.4375" x="4.6875" y="230.7739"/><line style="stroke: #3D424E; stroke-width: 1.5625;" x1="4.6875" x2="1853.125" y1="230.7739" y2="230.7739"/><line style="stroke: #3D424E; stroke-width: 1.5625;" x1="4.6875" x2="1853.125" y1="235.4614" y2="235.4614"/><rect fill="#1B202A" height="37.9639" style="stroke: #3D424E; stroke-width: 3.125;" width="368.75" x="744.5313" y="213.3545"/><text fill="#A6ADBB" font-family="DejaVu Sans" font-size="21.875" font-weight="bold" lengthAdjust="spacingAndGlyphs" textLength="339.0625" x="753.9063" y="239.9094">Fáze 1: business transakce</text><polygon fill="#F0A456" points="541.4063,295.5322,557.0313,301.7822,541.4063,308.0322,547.6563,301.7822" style="stroke: #F0A456; stroke-width: 1.5625;"/><line style="stroke: #F0A456; stroke-width: 2.34375;" x1="124.2188" x2="550.7813" y1="301.7822" y2="301.7822"/><text fill="#E6E8EC" font-family="DejaVu Sans" font-size="21.875" lengthAdjust="spacingAndGlyphs" textLength="67.1875" x="135.1563" y="293.4982">BEGIN</text><polygon fill="#F0A456" points="541.4063,342.8711,557.0313,349.1211,541.4063,355.3711,547.6563,349.1211" style="stroke: #F0A456; stroke-width: 1.5625;"/><line style="stroke: #F0A456; stroke-width: 2.34375;" x1="124.2188" x2="550.7813" y1="349.1211" y2="349.1211"/><text fill="#E6E8EC" font-family="DejaVu Sans" font-size="21.875" lengthAdjust="spacingAndGlyphs" textLength="253.125" x="135.1563" y="340.8371">INSERT INTO orders (...)</text><polygon fill="#F0A456" points="541.4063,415.6738,557.0313,421.9238,541.4063,428.1738,547.6563,421.9238" style="stroke: #F0A456; stroke-width: 1.5625;"/><line style="stroke: #F0A456; stroke-width: 2.34375;" x1="124.2188" x2="550.7813" y1="421.9238" y2="421.9238"/><text fill="#E6E8EC" font-family="DejaVu Sans" font-size="21.875" lengthAdjust="spacingAndGlyphs" textLength="217.1875" x="135.1563" y="388.176">INSERT INTO outbox</text><text fill="#E6E8EC" font-family="DejaVu Sans" font-size="21.875" lengthAdjust="spacingAndGlyphs" textLength="398.4375" x="135.1563" y="413.6398">(event_id, payload, status='pending')</text><polygon fill="#F0A456" points="541.4063,463.0127,557.0313,469.2627,541.4063,475.5127,547.6563,469.2627" style="stroke: #F0A456; stroke-width: 1.5625;"/><line style="stroke: #F0A456; stroke-width: 2.34375;" x1="124.2188" x2="550.7813" y1="469.2627" y2="469.2627"/><text fill="#E6E8EC" font-family="DejaVu Sans" font-size="21.875" lengthAdjust="spacingAndGlyphs" textLength="89.0625" x="135.1563" y="460.9787">COMMIT</text><path d="M567.1875,494.2627 L567.1875,550.5127 A4.6875,4.6875 0 0 0 571.875,555.2002 L956.25,555.2002 A4.6875,4.6875 0 0 0 960.9375,550.5127 L960.9375,505.2002 L945.3125,489.5752 L571.875,489.5752 A4.6875,4.6875 0 0 0 567.1875,494.2627 " fill="#1B202A" style="stroke: #3D424E; stroke-width: 1.5625;"/><path d="M945.3125,489.5752 L945.3125,502.8564 A2.3438,2.3438 0 0 0 947.6563,505.2002 L960.9375,505.2002 L945.3125,489.5752 " fill="#1B202A" style="stroke: #3D424E; stroke-width: 1.5625;"/><text fill="#A6ADBB" font-family="DejaVu Sans" font-size="21.875" lengthAdjust="spacingAndGlyphs" textLength="312.5" x="607.8125" y="517.6926">Atomicky: order i outbox row.</text><text fill="#A6ADBB" font-family="DejaVu Sans" font-size="21.875" lengthAdjust="spacingAndGlyphs" textLength="346.875" x="590.625" y="543.1564">Nelze ztratit jeden bez druhého.</text><rect fill="#1B202A" height="4.6875" style="stroke: #1B202A; stroke-width: 1.5625;" width="1848.4375" x="4.6875" y="596.9849"/><line style="stroke: #3D424E; stroke-width: 1.5625;" x1="4.6875" x2="1853.125" y1="596.9849" y2="596.9849"/><line style="stroke: #3D424E; stroke-width: 1.5625;" x1="4.6875" x2="1853.125" y1="601.6724" y2="601.6724"/><rect fill="#1B202A" height="37.9639" style="stroke: #3D424E; stroke-width: 3.125;" width="371.875" x="742.9688" y="579.5654"/><text fill="#A6ADBB" font-family="DejaVu Sans" font-size="21.875" font-weight="bold" lengthAdjust="spacingAndGlyphs" textLength="342.1875" x="752.3438" y="606.1203">Fáze 2: relay polluje outbox</text><polygon fill="#F0A456" points="577.3438,712.6709,561.7188,718.9209,577.3438,725.1709,571.0938,718.9209" style="stroke: #F0A456; stroke-width: 1.5625;"/><line style="stroke: #F0A456; stroke-width: 2.34375;" x1="567.9688" x2="971.0938" y1="718.9209" y2="718.9209"/><text fill="#E6E8EC" font-family="DejaVu Sans" font-size="21.875" lengthAdjust="spacingAndGlyphs" textLength="251.5625" x="586.7188" y="659.7092">SELECT * FROM outbox</text><text fill="#E6E8EC" font-family="DejaVu Sans" font-size="21.875" lengthAdjust="spacingAndGlyphs" textLength="270.3125" x="586.7188" y="685.173">WHERE status='pending'</text><text fill="#E6E8EC" font-family="DejaVu Sans" font-size="21.875" lengthAdjust="spacingAndGlyphs" textLength="357.8125" x="586.7188" y="710.6369">ORDER BY occurred_at LIMIT 100</text><polygon fill="#F0A456" points="953.9063,760.0098,969.5313,766.2598,953.9063,772.5098,960.1563,766.2598" style="stroke: #F0A456; stroke-width: 1.5625;"/><line style="stroke: #F0A456; stroke-width: 2.34375;" x1="560.1563" x2="963.2813" y1="766.2598" y2="766.2598"/><text fill="#E6E8EC" font-family="DejaVu Sans" font-size="21.875" lengthAdjust="spacingAndGlyphs" textLength="100" x="571.0938" y="757.9758">100 rows</text><rect fill="#1B202A" height="4.6875" style="stroke: #1B202A; stroke-width: 1.5625;" width="1848.4375" x="4.6875" y="811.8042"/><line style="stroke: #3D424E; stroke-width: 1.5625;" x1="4.6875" x2="1853.125" y1="811.8042" y2="811.8042"/><line style="stroke: #3D424E; stroke-width: 1.5625;" x1="4.6875" x2="1853.125" y1="816.4917" y2="816.4917"/><rect fill="#1B202A" height="37.9639" style="stroke: #3D424E; stroke-width: 3.125;" width="360.9375" x="748.4375" y="794.3848"/><text fill="#A6ADBB" font-family="DejaVu Sans" font-size="21.875" font-weight="bold" lengthAdjust="spacingAndGlyphs" textLength="331.25" x="757.8125" y="820.9396">Fáze 3: publish do brokera</text><path d="M448.4375,858.9111 L567.1875,858.9111 L567.1875,871.4111 L551.5625,887.0361 L443.75,887.0361 L443.75,863.5986 " fill="#1B202A" style="stroke: #3D424E; stroke-width: 1.5625;"/><rect fill="none" height="198.0957" rx="4.6875" ry="4.6875" style="stroke: #3D424E; stroke-width: 3.125;" width="929.6875" x="443.75" y="858.9111"/><text fill="#F0A456" font-family="DejaVu Sans" font-size="21.875" font-weight="bold" lengthAdjust="spacingAndGlyphs" textLength="53.125" x="467.1875" y="880.7785">loop</text><text fill="#A6ADBB" font-family="DejaVu Sans" font-size="21.875" font-weight="bold" lengthAdjust="spacingAndGlyphs" textLength="196.875" x="590.625" y="882.341">[pro každý row]</text><polygon fill="#F0A456" points="1271.0938,918.1152,1286.7188,924.3652,1271.0938,930.6152,1277.3438,924.3652" style="stroke: #F0A456; stroke-width: 1.5625;"/><line style="stroke: #F0A456; stroke-width: 2.34375;" x1="972.6563" x2="1280.4688" y1="924.3652" y2="924.3652"/><text fill="#E6E8EC" font-family="DejaVu Sans" font-size="21.875" lengthAdjust="spacingAndGlyphs" textLength="279.6875" x="983.5938" y="916.0812">publish(event_id, payload)</text><polygon fill="#F0A456" points="989.8438,965.4541,974.2188,971.7041,989.8438,977.9541,983.5938,971.7041" style="stroke: #F0A456; stroke-width: 1.5625;"/><line style="stroke: #F0A456; stroke-width: 2.34375; stroke-dasharray: 2.0,2.0;" x1="980.4688" x2="1288.2813" y1="971.7041" y2="971.7041"/><text fill="#E6E8EC" font-family="DejaVu Sans" font-size="21.875" lengthAdjust="spacingAndGlyphs" textLength="37.5" x="999.2188" y="963.4201">ack</text><polygon fill="#F0A456" points="577.3438,1038.2568,561.7188,1044.5068,577.3438,1050.7568,571.0938,1044.5068" style="stroke: #F0A456; stroke-width: 1.5625;"/><line style="stroke: #F0A456; stroke-width: 2.34375;" x1="567.9688" x2="971.0938" y1="1044.5068" y2="1044.5068"/><text fill="#E6E8EC" font-family="DejaVu Sans" font-size="21.875" lengthAdjust="spacingAndGlyphs" textLength="375" x="586.7188" y="1010.759">UPDATE outbox SET status='sent',</text><text fill="#E6E8EC" font-family="DejaVu Sans" font-size="21.875" lengthAdjust="spacingAndGlyphs" textLength="315.625" x="586.7188" y="1036.2228">sent_at=NOW() WHERE id=...</text><rect fill="#1B202A" height="4.6875" style="stroke: #1B202A; stroke-width: 1.5625;" width="1848.4375" x="4.6875" y="1100.9888"/><line style="stroke: #3D424E; stroke-width: 1.5625;" x1="4.6875" x2="1853.125" y1="1100.9888" y2="1100.9888"/><line style="stroke: #3D424E; stroke-width: 1.5625;" x1="4.6875" x2="1853.125" y1="1105.6763" y2="1105.6763"/><rect fill="#1B202A" height="37.9639" style="stroke: #3D424E; stroke-width: 3.125;" width="403.125" x="727.3438" y="1083.5693"/><text fill="#A6ADBB" font-family="DejaVu Sans" font-size="21.875" font-weight="bold" lengthAdjust="spacingAndGlyphs" textLength="373.4375" x="736.7188" y="1110.1242">Fáze 4: subscriber konzumuje</text><polygon fill="#F0A456" points="1442.1875,1165.7471,1457.8125,1171.9971,1442.1875,1178.2471,1448.4375,1171.9971" style="stroke: #F0A456; stroke-width: 1.5625;"/><line style="stroke: #F0A456; stroke-width: 2.34375;" x1="1289.8438" x2="1451.5625" y1="1171.9971" y2="1171.9971"/><text fill="#E6E8EC" font-family="DejaVu Sans" font-size="21.875" lengthAdjust="spacingAndGlyphs" textLength="81.25" x="1300.7813" y="1163.7131">delivery</text><line style="stroke: #F0A456; stroke-width: 2.34375;" x1="1460.9375" x2="1526.5625" y1="1219.3359" y2="1219.3359"/><line style="stroke: #F0A456; stroke-width: 2.34375;" x1="1526.5625" x2="1526.5625" y1="1219.3359" y2="1239.6484"/><line style="stroke: #F0A456; stroke-width: 2.34375;" x1="1462.5" x2="1526.5625" y1="1239.6484" y2="1239.6484"/><polygon fill="#F0A456" points="1478.125,1233.3984,1462.5,1239.6484,1478.125,1245.8984,1471.875,1239.6484" style="stroke: #F0A456; stroke-width: 1.5625;"/><text fill="#E6E8EC" font-family="DejaVu Sans" font-size="21.875" lengthAdjust="spacingAndGlyphs" textLength="370.3125" x="1471.875" y="1211.0519">process (idempotent inbox check)</text><polygon fill="#F0A456" points="1307.0313,1280.7373,1291.4063,1286.9873,1307.0313,1293.2373,1300.7813,1286.9873" style="stroke: #F0A456; stroke-width: 1.5625;"/><line style="stroke: #F0A456; stroke-width: 2.34375; stroke-dasharray: 2.0,2.0;" x1="1297.6563" x2="1459.375" y1="1286.9873" y2="1286.9873"/><text fill="#E6E8EC" font-family="DejaVu Sans" font-size="21.875" lengthAdjust="spacingAndGlyphs" textLength="37.5" x="1316.4063" y="1278.7033">ack</text><!--MD5=[e4161850a49a6a8ad90fd0320e1a70b3]
@startuml outbox_flow
skinparam dpi 150
skinparam backgroundColor #11141A
skinparam shadowing false
skinparam roundCorner 6

skinparam defaultFontName "DejaVu Sans"
skinparam defaultFontSize 14
skinparam defaultFontColor #E6E8EC
skinparam defaultTextAlignment center


skinparam ArrowColor #F0A456
skinparam ArrowFontColor #E6E8EC
skinparam ArrowThickness 1.5

skinparam node {
  BackgroundColor #161A22
  BorderColor #3D424E
  FontColor #E6E8EC
}

skinparam component {
  BackgroundColor #161A22
  BorderColor #3D424E
  FontColor #E6E8EC
}

skinparam rectangle {
  BackgroundColor #161A22
  BorderColor #3D424E
  FontColor #E6E8EC
}

skinparam package {
  BackgroundColor #11141A
  BorderColor #F0A456
  FontColor #F0A456
}

skinparam folder {
  BackgroundColor #161A22
  BorderColor #3D424E
  FontColor #E6E8EC
}

skinparam frame {
  BackgroundColor #161A22
  BorderColor #3D424E
  FontColor #E6E8EC
}

skinparam database {
  BackgroundColor #1B202A
  BorderColor #3D424E
  FontColor #E6E8EC
}

skinparam queue {
  BackgroundColor #1B202A
  BorderColor #3D424E
  FontColor #E6E8EC
}

skinparam cloud {
  BackgroundColor #1B202A
  BorderColor #3D424E
  FontColor #E6E8EC
}

skinparam actor {
  BackgroundColor #161A22
  BorderColor #F0A456
  FontColor #E6E8EC
}

skinparam usecase {
  BackgroundColor #161A22
  BorderColor #3D424E
  FontColor #E6E8EC
}

skinparam class {
  BackgroundColor #161A22
  BorderColor #3D424E
  HeaderBackgroundColor #1B202A
  ArrowColor #F0A456
  FontColor #E6E8EC
  AttributeFontColor #A6ADBB
  StereotypeFontColor #F0A456
}

skinparam object {
  BackgroundColor #161A22
  BorderColor #3D424E
  FontColor #E6E8EC
}

skinparam sequence {
  ParticipantBackgroundColor #161A22
  ParticipantBorderColor #3D424E
  ParticipantFontColor #E6E8EC
  ActorBackgroundColor #161A22
  ActorBorderColor #F0A456
  ActorFontColor #E6E8EC
  LifeLineBorderColor #3D424E
  LifeLineBackgroundColor #1B202A
  ArrowColor #F0A456
  ArrowFontColor #E6E8EC
  GroupBackgroundColor #1B202A
  GroupBorderColor #3D424E
  GroupFontColor #A6ADBB
  GroupHeaderFontColor #F0A456
  BoxBackgroundColor #11141A
  BoxBorderColor #F0A456
  BoxFontColor #F0A456
  DividerBackgroundColor #1B202A
  DividerBorderColor #3D424E
  DividerFontColor #A6ADBB
  ReferenceBackgroundColor #161A22
  ReferenceBorderColor #3D424E
  ReferenceFontColor #E6E8EC
  ReferenceHeaderBackgroundColor #1B202A
  StereotypeFontColor #F0A456
}

skinparam state {
  BackgroundColor #161A22
  BorderColor #3D424E
  FontColor #E6E8EC
  StartColor #F0A456
  EndColor #F0A456
  ArrowColor #F0A456
  AttributeFontColor #A6ADBB
}

skinparam activity {
  BackgroundColor #161A22
  BorderColor #3D424E
  FontColor #E6E8EC
  ArrowColor #F0A456
  StartColor #F0A456
  EndColor #F0A456
  BarColor #F0A456
  DiamondBackgroundColor #1B202A
  DiamondBorderColor #3D424E
  DiamondFontColor #E6E8EC
}

skinparam note {
  BackgroundColor #1B202A
  BorderColor #3D424E
  FontColor #A6ADBB
}

skinparam title {
  FontColor #E6E8EC
  FontSize 18
}

skinparam legend {
  BackgroundColor #161A22
  BorderColor #3D424E
  FontColor #A6ADBB
}

skinparam caption {
  FontColor #A6ADBB
}

skinparam stereotype {
  CBackgroundColor #1B202A
  CBorderColor #F0A456
  ABackgroundColor #1B202A
  ABorderColor #F0A456
  IBackgroundColor #1B202A
  IBorderColor #F0A456
  EBackgroundColor #1B202A
  EBorderColor #F0A456
}

title Transactional Outbox: 4 fáze publikování doménového eventu

participant "PlaceOrderHandler" as h
database "DB\n(orders + outbox)" as db
participant "Outbox Relay\n(messenger:consume)" as relay
queue "RabbitMQ" as mq
participant "Subscriber BC" as sub

== Fáze 1: business transakce ==
h -> db : BEGIN
h -> db : INSERT INTO orders (...)
h -> db : INSERT INTO outbox\n(event_id, payload, status='pending')
h -> db : COMMIT
note right of db
  Atomicky: order i outbox row.
  Nelze ztratit jeden bez druhého.
end note

== Fáze 2: relay polluje outbox ==
relay -> db : SELECT * FROM outbox\nWHERE status='pending'\nORDER BY occurred_at LIMIT 100
db -> relay : 100 rows

== Fáze 3: publish do brokera ==
loop pro každý row
  relay -> mq : publish(event_id, payload)
  mq - -> relay : ack
  relay -> db : UPDATE outbox SET status='sent',\nsent_at=NOW() WHERE id=...
end

== Fáze 4: subscriber konzumuje ==
mq -> sub : delivery
sub -> sub : process (idempotent inbox check)
sub - -> mq : ack

@enduml

PlantUML version 1.2020.02(Sun Mar 01 11:22:07 CET 2020)
(GPL source distribution)
Java Runtime: OpenJDK Runtime Environment
JVM: OpenJDK 64-Bit Server VM
Java Version: 21.0.10+7-Debian-1deb13u1
Operating System: Linux
Default Encoding: UTF-8
Language: cs
Country: CZ
--></g></svg>