<svg xmlns="http://www.w3.org/2000/svg" xmlns:xlink="http://www.w3.org/1999/xlink" contentStyleType="text/css" height="1117px" preserveAspectRatio="none" style="width:249px;height:1117px;background:#FFFFFF;" version="1.1" viewBox="0 0 249 1117" width="249px" zoomAndPan="magnify"><defs/><g><!--entity A--><g id="elem_A"><polygon fill="#F1F1F1" points="31,16,41,6,217.2207,6,217.2207,74.8906,207.2207,84.8906,31,84.8906,31,16" style="stroke:#181818;stroke-width:0.5;"/><line style="stroke:#181818;stroke-width:0.5;" x1="207.2207" x2="217.2207" y1="16" y2="6"/><line style="stroke:#181818;stroke-width:0.5;" x1="31" x2="207.2207" y1="16" y2="16"/><line style="stroke:#181818;stroke-width:0.5;" x1="207.2207" x2="207.2207" y1="16" y2="84.8906"/><text fill="#000000" font-family="sans-serif" font-size="14" lengthAdjust="spacing" textLength="72.5156" x="46" y="38.9951">Eric Evans</text><text fill="#000000" font-family="sans-serif" font-size="14" lengthAdjust="spacing" textLength="85.1279" x="46" y="55.292">(Zakladatel)</text><text fill="#000000" font-family="sans-serif" font-size="14" lengthAdjust="spacing" textLength="146.2207" x="46" y="71.5889">Siln&#283; pro-DDD-pro-AI</text></g><!--entity B--><g id="elem_B"><polygon fill="#F1F1F1" points="50,155,60,145,198.3701,145,198.3701,197.5938,188.3701,207.5938,50,207.5938,50,155" style="stroke:#181818;stroke-width:0.5;"/><line style="stroke:#181818;stroke-width:0.5;" x1="188.3701" x2="198.3701" y1="155" y2="145"/><line style="stroke:#181818;stroke-width:0.5;" x1="50" x2="188.3701" y1="155" y2="155"/><line style="stroke:#181818;stroke-width:0.5;" x1="188.3701" x2="188.3701" y1="155" y2="207.5938"/><text fill="#000000" font-family="sans-serif" font-size="14" lengthAdjust="spacing" textLength="108.3701" x="65" y="177.9951">Vaughn Vernon</text><text fill="#000000" font-family="sans-serif" font-size="14" lengthAdjust="spacing" textLength="107.1738" x="65" y="194.292">Pro-DDD-pro-AI</text></g><!--entity C--><g id="elem_C"><polygon fill="#F1F1F1" points="31,278,41,268,217.2207,268,217.2207,336.8906,207.2207,346.8906,31,346.8906,31,278" style="stroke:#181818;stroke-width:0.5;"/><line style="stroke:#181818;stroke-width:0.5;" x1="207.2207" x2="217.2207" y1="278" y2="268"/><line style="stroke:#181818;stroke-width:0.5;" x1="31" x2="207.2207" y1="278" y2="278"/><line style="stroke:#181818;stroke-width:0.5;" x1="207.2207" x2="207.2207" y1="278" y2="346.8906"/><text fill="#000000" font-family="sans-serif" font-size="14" lengthAdjust="spacing" textLength="69.5283" x="46" y="300.9951">Nick Tune</text><text fill="#000000" font-family="sans-serif" font-size="14" lengthAdjust="spacing" textLength="59.2949" x="46" y="317.292">(Praktik)</text><text fill="#000000" font-family="sans-serif" font-size="14" lengthAdjust="spacing" textLength="146.2207" x="46" y="333.5889">Siln&#283; pro-DDD-pro-AI</text></g><!--entity D--><g id="elem_D"><polygon fill="#F1F1F1" points="16,417,26,407,232.333,407,232.333,459.5938,222.333,469.5938,16,469.5938,16,417" style="stroke:#181818;stroke-width:0.5;"/><line style="stroke:#181818;stroke-width:0.5;" x1="222.333" x2="232.333" y1="417" y2="407"/><line style="stroke:#181818;stroke-width:0.5;" x1="16" x2="222.333" y1="417" y2="417"/><line style="stroke:#181818;stroke-width:0.5;" x1="222.333" x2="222.333" y1="417" y2="469.5938"/><text fill="#000000" font-family="sans-serif" font-size="14" lengthAdjust="spacing" textLength="70.6289" x="31" y="439.9951">Kent Beck</text><text fill="#000000" font-family="sans-serif" font-size="14" lengthAdjust="spacing" textLength="176.333" x="31" y="456.292">Pro strukturovan&#253; design</text></g><!--entity E--><g id="elem_E"><polygon fill="#F1F1F1" points="28,540,38,530,220.4619,530,220.4619,582.5938,210.4619,592.5938,28,592.5938,28,540" style="stroke:#181818;stroke-width:0.5;"/><line style="stroke:#181818;stroke-width:0.5;" x1="210.4619" x2="220.4619" y1="540" y2="530"/><line style="stroke:#181818;stroke-width:0.5;" x1="28" x2="210.4619" y1="540" y2="540"/><line style="stroke:#181818;stroke-width:0.5;" x1="210.4619" x2="210.4619" y1="540" y2="592.5938"/><text fill="#000000" font-family="sans-serif" font-size="14" lengthAdjust="spacing" textLength="95.4434" x="43" y="562.9951">Martin Fowler</text><text fill="#000000" font-family="sans-serif" font-size="14" lengthAdjust="spacing" textLength="152.4619" x="43" y="579.292">Nuancovan&#283; pro-DDD</text></g><!--entity F--><g id="elem_F"><polygon fill="#F1F1F1" points="37,663,47,653,211.0459,653,211.0459,705.5938,201.0459,715.5938,37,715.5938,37,663" style="stroke:#181818;stroke-width:0.5;"/><line style="stroke:#181818;stroke-width:0.5;" x1="201.0459" x2="211.0459" y1="663" y2="653"/><line style="stroke:#181818;stroke-width:0.5;" x1="37" x2="201.0459" y1="663" y2="663"/><line style="stroke:#181818;stroke-width:0.5;" x1="201.0459" x2="201.0459" y1="663" y2="715.5938"/><text fill="#000000" font-family="sans-serif" font-size="14" lengthAdjust="spacing" textLength="64.2646" x="52" y="685.9951">Microsoft</text><text fill="#000000" font-family="sans-serif" font-size="14" lengthAdjust="spacing" textLength="134.0459" x="52" y="702.292">Implicitn&#283; pro-DDD</text></g><!--entity G--><g id="elem_G"><polygon fill="#F1F1F1" points="35,786,45,776,213.4688,776,213.4688,828.5938,203.4688,838.5938,35,838.5938,35,786" style="stroke:#181818;stroke-width:0.5;"/><line style="stroke:#181818;stroke-width:0.5;" x1="203.4688" x2="213.4688" y1="786" y2="776"/><line style="stroke:#181818;stroke-width:0.5;" x1="35" x2="203.4688" y1="786" y2="786"/><line style="stroke:#181818;stroke-width:0.5;" x1="203.4688" x2="203.4688" y1="786" y2="838.5938"/><text fill="#000000" font-family="sans-serif" font-size="14" lengthAdjust="spacing" textLength="126.0342" x="50" y="808.9951">Alberto Brandolini</text><text fill="#000000" font-family="sans-serif" font-size="14" lengthAdjust="spacing" textLength="138.4688" x="50" y="825.292">Opatrn&#283; zapojuje AI</text></g><!--entity H--><g id="elem_H"><polygon fill="#F1F1F1" points="25,909,35,899,222.7461,899,222.7461,951.5938,212.7461,961.5938,25,961.5938,25,909" style="stroke:#181818;stroke-width:0.5;"/><line style="stroke:#181818;stroke-width:0.5;" x1="212.7461" x2="222.7461" y1="909" y2="899"/><line style="stroke:#181818;stroke-width:0.5;" x1="25" x2="212.7461" y1="909" y2="909"/><line style="stroke:#181818;stroke-width:0.5;" x1="212.7461" x2="212.7461" y1="909" y2="961.5938"/><text fill="#000000" font-family="sans-serif" font-size="14" lengthAdjust="spacing" textLength="97.1797" x="40" y="931.9951">Sam Newman</text><text fill="#000000" font-family="sans-serif" font-size="14" lengthAdjust="spacing" textLength="157.7461" x="40" y="948.292">Bez p&#345;&#237;m&#233;ho vyj&#225;d&#345;en&#237;</text></g><!--entity I--><g id="elem_I"><polygon fill="#F1F1F1" points="38,1032,48,1022,210.1455,1022,210.1455,1090.8906,200.1455,1100.8906,38,1100.8906,38,1032" style="stroke:#181818;stroke-width:0.5;"/><line style="stroke:#181818;stroke-width:0.5;" x1="200.1455" x2="210.1455" y1="1032" y2="1022"/><line style="stroke:#181818;stroke-width:0.5;" x1="38" x2="200.1455" y1="1032" y2="1032"/><line style="stroke:#181818;stroke-width:0.5;" x1="200.1455" x2="200.1455" y1="1032" y2="1100.8906"/><text fill="#000000" font-family="sans-serif" font-size="14" lengthAdjust="spacing" textLength="31.835" x="53" y="1054.9951">DHH</text><text fill="#000000" font-family="sans-serif" font-size="14" lengthAdjust="spacing" textLength="77.3828" x="53" y="1071.292">(Protivaha)</text><text fill="#000000" font-family="sans-serif" font-size="14" lengthAdjust="spacing" textLength="132.1455" x="53" y="1087.5889">Jednoduchost sta&#269;&#237;</text></g><!--link A to B--><g id="link_A_B"><path d="M124,85.2 C124,104.2 124,120.78 124,138.6 " fill="none" id="A-to-B" style="stroke:#181818;stroke-width:1;"/><polygon fill="#181818" points="124,144.6,128,135.6,124,139.6,120,135.6,124,144.6" style="stroke:#181818;stroke-width:1;"/></g><!--link B to C--><g id="link_B_C"><path d="M124,208.07 C124,225.95 124,242.7 124,261.82 " fill="none" id="B-to-C" style="stroke:#181818;stroke-width:1;"/><polygon fill="#181818" points="124,267.82,128,258.82,124,262.82,120,258.82,124,267.82" style="stroke:#181818;stroke-width:1;"/></g><!--link C to D--><g id="link_C_D"><path d="M124,347.2 C124,366.2 124,382.78 124,400.6 " fill="none" id="C-to-D" style="stroke:#181818;stroke-width:1;"/><polygon fill="#181818" points="124,406.6,128,397.6,124,401.6,120,397.6,124,406.6" style="stroke:#181818;stroke-width:1;"/></g><!--link D to E--><g id="link_D_E"><path d="M124,470.03 C124,488.38 124,505.64 124,523.98 " fill="none" id="D-to-E" style="stroke:#181818;stroke-width:1;"/><polygon fill="#181818" points="124,529.98,128,520.98,124,524.98,120,520.98,124,529.98" style="stroke:#181818;stroke-width:1;"/></g><!--link E to F--><g id="link_E_F"><path d="M124,593.03 C124,611.38 124,628.64 124,646.98 " fill="none" id="E-to-F" style="stroke:#181818;stroke-width:1;"/><polygon fill="#181818" points="124,652.98,128,643.98,124,647.98,120,643.98,124,652.98" style="stroke:#181818;stroke-width:1;"/></g><!--link F to G--><g id="link_F_G"><path d="M124,716.03 C124,734.38 124,751.64 124,769.98 " fill="none" id="F-to-G" style="stroke:#181818;stroke-width:1;"/><polygon fill="#181818" points="124,775.98,128,766.98,124,770.98,120,766.98,124,775.98" style="stroke:#181818;stroke-width:1;"/></g><!--link G to H--><g id="link_G_H"><path d="M124,839.03 C124,857.38 124,874.64 124,892.98 " fill="none" id="G-to-H" style="stroke:#181818;stroke-width:1;"/><polygon fill="#181818" points="124,898.98,128,889.98,124,893.98,120,889.98,124,898.98" style="stroke:#181818;stroke-width:1;"/></g><!--link H to I--><g id="link_H_I"><path d="M124,962.07 C124,979.95 124,996.7 124,1015.82 " fill="none" id="H-to-I" style="stroke:#181818;stroke-width:1;"/><polygon fill="#181818" points="124,1021.82,128,1012.82,124,1016.82,120,1012.82,124,1021.82" style="stroke:#181818;stroke-width:1;"/></g><!--SRC=[VP0nJiCm58Ptd-A92OPS0IcfaoOWIgMY3YZBmp6Dc-GvSfnMz0uSe69YPEWHcDBUYzGoGWA9wHlyV_wVVjA5X8lOA07n1gdBwV8HgneBjBA-occXQZg-GMjqm3aFpWop2y0EGaRENMA_AWcMqf2cdEP_av5FpfIeuA4dEPRC3LPMLVysJBntAyb294NbVeVEchwolT7ZlSCd5B9JAt82zy8T6gi84hsjfSbfrYE9S_gdniNZxxWIHdVwsUQKDMsjXBA_eucFXlMJD5P3P90ANIjIETstQCrPs66hr_rQWhz_wgK5DZ2JsmR7UIAvW_Qq7mxDy55gsBoiX_VYj9Sq79oJUeUdgLj9MxN14iUTRcGnFlMYr9qTDy3ZgrSona88WkjnvyXnmYQEd777cCME2KiSfspgcBBKCMDV]--></g></svg>