<svg xmlns="http://www.w3.org/2000/svg" xmlns:xlink="http://www.w3.org/1999/xlink" contentScriptType="application/ecmascript" contentStyleType="text/css" height="1114px" preserveAspectRatio="none" style="width:240px;height:1114px;" version="1.1" viewBox="0 0 240 1114" width="240px" zoomAndPan="magnify"><defs><filter height="300%" id="f96q4pallvbsq" width="300%" x="-1" y="-1"><feGaussianBlur result="blurOut" stdDeviation="2.0"/><feColorMatrix in="blurOut" result="blurOut2" type="matrix" values="0 0 0 0 0 0 0 0 0 0 0 0 0 0 0 0 0 0 .4 0"/><feOffset dx="4.0" dy="4.0" in="blurOut2" result="blurOut3"/><feBlend in="SourceGraphic" in2="blurOut3" mode="normal"/></filter></defs><g><!--MD5=[770389ab9df153645bc6ef28055eb2b5]
entity A--><polygon fill="#FEFECE" filter="url(#f96q4pallvbsq)" points="20.5,18,30.5,8,203.5,8,203.5,76.8906,193.5,86.8906,20.5,86.8906,20.5,18" style="stroke: #000000; stroke-width: 1.5;"/><line style="stroke: #000000; stroke-width: 1.5;" x1="193.5" x2="202.5" y1="18" y2="9"/><line style="stroke: #000000; stroke-width: 1.5;" x1="20.5" x2="193.5" y1="18" y2="18"/><line style="stroke: #000000; stroke-width: 1.5;" x1="193.5" x2="193.5" y1="18" y2="86.8906"/><text fill="#000000" font-family="sans-serif" font-size="14" lengthAdjust="spacingAndGlyphs" textLength="70" x="35.5" y="40.9951">Eric Evans</text><text fill="#000000" font-family="sans-serif" font-size="14" lengthAdjust="spacingAndGlyphs" textLength="81" x="35.5" y="57.292">(Zakladatel)</text><text fill="#000000" font-family="sans-serif" font-size="14" lengthAdjust="spacingAndGlyphs" textLength="143" x="35.5" y="73.5889">Silne pro-DDD-pro-AI</text><!--MD5=[b2d39259b6aeabc16b394deeb0238426]
entity B--><polygon fill="#FEFECE" filter="url(#f96q4pallvbsq)" points="38.5,157,48.5,147,185.5,147,185.5,199.5938,175.5,209.5938,38.5,209.5938,38.5,157" style="stroke: #000000; stroke-width: 1.5;"/><line style="stroke: #000000; stroke-width: 1.5;" x1="175.5" x2="184.5" y1="157" y2="148"/><line style="stroke: #000000; stroke-width: 1.5;" x1="38.5" x2="175.5" y1="157" y2="157"/><line style="stroke: #000000; stroke-width: 1.5;" x1="175.5" x2="175.5" y1="157" y2="209.5938"/><text fill="#000000" font-family="sans-serif" font-size="14" lengthAdjust="spacingAndGlyphs" textLength="107" x="53.5" y="179.9951">Vaughn Vernon</text><text fill="#000000" font-family="sans-serif" font-size="14" lengthAdjust="spacingAndGlyphs" textLength="106" x="53.5" y="196.292">Pro-DDD-pro-AI</text><!--MD5=[16fab723be418f7eaf2ea4bd895a8e51]
entity C--><polygon fill="#FEFECE" filter="url(#f96q4pallvbsq)" points="20.5,280,30.5,270,203.5,270,203.5,338.8906,193.5,348.8906,20.5,348.8906,20.5,280" style="stroke: #000000; stroke-width: 1.5;"/><line style="stroke: #000000; stroke-width: 1.5;" x1="193.5" x2="202.5" y1="280" y2="271"/><line style="stroke: #000000; stroke-width: 1.5;" x1="20.5" x2="193.5" y1="280" y2="280"/><line style="stroke: #000000; stroke-width: 1.5;" x1="193.5" x2="193.5" y1="280" y2="348.8906"/><text fill="#000000" font-family="sans-serif" font-size="14" lengthAdjust="spacingAndGlyphs" textLength="69" x="35.5" y="302.9951">Nick Tune</text><text fill="#000000" font-family="sans-serif" font-size="14" lengthAdjust="spacingAndGlyphs" textLength="56" x="35.5" y="319.292">(Praktik)</text><text fill="#000000" font-family="sans-serif" font-size="14" lengthAdjust="spacingAndGlyphs" textLength="143" x="35.5" y="335.5889">Silne pro-DDD-pro-AI</text><!--MD5=[118f42602524ad482f02b27ef22fc383]
entity D--><polygon fill="#FEFECE" filter="url(#f96q4pallvbsq)" points="6,419,16,409,218,409,218,461.5938,208,471.5938,6,471.5938,6,419" style="stroke: #000000; stroke-width: 1.5;"/><line style="stroke: #000000; stroke-width: 1.5;" x1="208" x2="217" y1="419" y2="410"/><line style="stroke: #000000; stroke-width: 1.5;" x1="6" x2="208" y1="419" y2="419"/><line style="stroke: #000000; stroke-width: 1.5;" x1="208" x2="208" y1="419" y2="471.5938"/><text fill="#000000" font-family="sans-serif" font-size="14" lengthAdjust="spacingAndGlyphs" textLength="71" x="21" y="441.9951">Kent Beck</text><text fill="#000000" font-family="sans-serif" font-size="14" lengthAdjust="spacingAndGlyphs" textLength="172" x="21" y="458.292">Pro strukturovany design</text><!--MD5=[68f82070d0aec4ff4b64d9b1102926da]
entity E--><polygon fill="#FEFECE" filter="url(#f96q4pallvbsq)" points="16.5,542,26.5,532,207.5,532,207.5,584.5938,197.5,594.5938,16.5,594.5938,16.5,542" style="stroke: #000000; stroke-width: 1.5;"/><line style="stroke: #000000; stroke-width: 1.5;" x1="197.5" x2="206.5" y1="542" y2="533"/><line style="stroke: #000000; stroke-width: 1.5;" x1="16.5" x2="197.5" y1="542" y2="542"/><line style="stroke: #000000; stroke-width: 1.5;" x1="197.5" x2="197.5" y1="542" y2="594.5938"/><text fill="#000000" font-family="sans-serif" font-size="14" lengthAdjust="spacingAndGlyphs" textLength="91" x="31.5" y="564.9951">Martin Fowler</text><text fill="#000000" font-family="sans-serif" font-size="14" lengthAdjust="spacingAndGlyphs" textLength="151" x="31.5" y="581.292">Nuancovane pro-DDD</text><!--MD5=[22029b2902cbfefb11350e8ee6e306b3]
entity F--><polygon fill="#FEFECE" filter="url(#f96q4pallvbsq)" points="27,665,37,655,197,655,197,707.5938,187,717.5938,27,717.5938,27,665" style="stroke: #000000; stroke-width: 1.5;"/><line style="stroke: #000000; stroke-width: 1.5;" x1="187" x2="196" y1="665" y2="656"/><line style="stroke: #000000; stroke-width: 1.5;" x1="27" x2="187" y1="665" y2="665"/><line style="stroke: #000000; stroke-width: 1.5;" x1="187" x2="187" y1="665" y2="717.5938"/><text fill="#000000" font-family="sans-serif" font-size="14" lengthAdjust="spacingAndGlyphs" textLength="63" x="42" y="687.9951">Microsoft</text><text fill="#000000" font-family="sans-serif" font-size="14" lengthAdjust="spacingAndGlyphs" textLength="130" x="42" y="704.292">Implicitne pro-DDD</text><!--MD5=[1f67e8801336723dc06e2b95a190f0a5]
entity G--><polygon fill="#FEFECE" filter="url(#f96q4pallvbsq)" points="25,788,35,778,199,778,199,830.5938,189,840.5938,25,840.5938,25,788" style="stroke: #000000; stroke-width: 1.5;"/><line style="stroke: #000000; stroke-width: 1.5;" x1="189" x2="198" y1="788" y2="779"/><line style="stroke: #000000; stroke-width: 1.5;" x1="25" x2="189" y1="788" y2="788"/><line style="stroke: #000000; stroke-width: 1.5;" x1="189" x2="189" y1="788" y2="840.5938"/><text fill="#000000" font-family="sans-serif" font-size="14" lengthAdjust="spacingAndGlyphs" textLength="121" x="40" y="810.9951">Alberto Brandolini</text><text fill="#000000" font-family="sans-serif" font-size="14" lengthAdjust="spacingAndGlyphs" textLength="134" x="40" y="827.292">Opatrne zapojuje AI</text><!--MD5=[30c15ae2333db8fd07d0271e38118188]
entity H--><polygon fill="#FEFECE" filter="url(#f96q4pallvbsq)" points="18,911,28,901,206,901,206,953.5938,196,963.5938,18,963.5938,18,911" style="stroke: #000000; stroke-width: 1.5;"/><line style="stroke: #000000; stroke-width: 1.5;" x1="196" x2="205" y1="911" y2="902"/><line style="stroke: #000000; stroke-width: 1.5;" x1="18" x2="196" y1="911" y2="911"/><line style="stroke: #000000; stroke-width: 1.5;" x1="196" x2="196" y1="911" y2="963.5938"/><text fill="#000000" font-family="sans-serif" font-size="14" lengthAdjust="spacingAndGlyphs" textLength="94" x="33" y="933.9951">Sam Newman</text><text fill="#000000" font-family="sans-serif" font-size="14" lengthAdjust="spacingAndGlyphs" textLength="148" x="33" y="950.292">Bez primcho vyjadren</text><!--MD5=[225a11a356cb2db3802a7b30c3a51941]
entity I--><polygon fill="#FEFECE" filter="url(#f96q4pallvbsq)" points="26,1034,36,1024,198,1024,198,1092.8906,188,1102.8906,26,1102.8906,26,1034" style="stroke: #000000; stroke-width: 1.5;"/><line style="stroke: #000000; stroke-width: 1.5;" x1="188" x2="197" y1="1034" y2="1025"/><line style="stroke: #000000; stroke-width: 1.5;" x1="26" x2="188" y1="1034" y2="1034"/><line style="stroke: #000000; stroke-width: 1.5;" x1="188" x2="188" y1="1034" y2="1102.8906"/><text fill="#000000" font-family="sans-serif" font-size="14" lengthAdjust="spacingAndGlyphs" textLength="31" x="41" y="1056.9951">DHH</text><text fill="#000000" font-family="sans-serif" font-size="14" lengthAdjust="spacingAndGlyphs" textLength="73" x="41" y="1073.292">(Protivaha)</text><text fill="#000000" font-family="sans-serif" font-size="14" lengthAdjust="spacingAndGlyphs" textLength="132" x="41" y="1089.5889">Jednoduchost staci</text><!--MD5=[5e2eec62a50b26b6b0db6c12e4ee289c]
link A to B--><path d="M112,87.2 C112,104.42 112,124.58 112,141.47 " fill="none" id="A-&gt;B" style="stroke: #A80036; stroke-width: 1.0;"/><polygon fill="#A80036" points="112,146.6,116,137.6,112,141.6,108,137.6,112,146.6" style="stroke: #A80036; stroke-width: 1.0;"/><!--MD5=[cd25d8247324207f828a4db9f58ed69d]
link B to C--><path d="M112,210.07 C112,226.42 112,246.82 112,264.81 " fill="none" id="B-&gt;C" style="stroke: #A80036; stroke-width: 1.0;"/><polygon fill="#A80036" points="112,269.82,116,260.82,112,264.82,108,260.82,112,269.82" style="stroke: #A80036; stroke-width: 1.0;"/><!--MD5=[95ca888c4bb7ed1df160562281720a5c]
link C to D--><path d="M112,349.2 C112,366.42 112,386.58 112,403.47 " fill="none" id="C-&gt;D" style="stroke: #A80036; stroke-width: 1.0;"/><polygon fill="#A80036" points="112,408.6,116,399.6,112,403.6,108,399.6,112,408.6" style="stroke: #A80036; stroke-width: 1.0;"/><!--MD5=[9ee2c6850258a89d754920901add40c0]
link D to E--><path d="M112,472.03 C112,488.66 112,509.32 112,526.7 " fill="none" id="D-&gt;E" style="stroke: #A80036; stroke-width: 1.0;"/><polygon fill="#A80036" points="112,531.98,116,522.98,112,526.98,108,522.98,112,531.98" style="stroke: #A80036; stroke-width: 1.0;"/><!--MD5=[1ab61fb352a3597145a9c37342f749bf]
link E to F--><path d="M112,595.03 C112,611.66 112,632.32 112,649.7 " fill="none" id="E-&gt;F" style="stroke: #A80036; stroke-width: 1.0;"/><polygon fill="#A80036" points="112,654.98,116,645.98,112,649.98,108,645.98,112,654.98" style="stroke: #A80036; stroke-width: 1.0;"/><!--MD5=[4f6d7b35ae0bf2a4ce9e8c5091641647]
link F to G--><path d="M112,718.03 C112,734.66 112,755.32 112,772.7 " fill="none" id="F-&gt;G" style="stroke: #A80036; stroke-width: 1.0;"/><polygon fill="#A80036" points="112,777.98,116,768.98,112,772.98,108,768.98,112,777.98" style="stroke: #A80036; stroke-width: 1.0;"/><!--MD5=[ce77ec9f82fbfc6e257d1b6e5dac829e]
link G to H--><path d="M112,841.03 C112,857.66 112,878.32 112,895.7 " fill="none" id="G-&gt;H" style="stroke: #A80036; stroke-width: 1.0;"/><polygon fill="#A80036" points="112,900.98,116,891.98,112,895.98,108,891.98,112,900.98" style="stroke: #A80036; stroke-width: 1.0;"/><!--MD5=[7d7dacdd86ed224e8851a13334be42fd]
link H to I--><path d="M112,964.07 C112,980.42 112,1000.82 112,1018.81 " fill="none" id="H-&gt;I" style="stroke: #A80036; stroke-width: 1.0;"/><polygon fill="#A80036" points="112,1023.82,116,1014.82,112,1018.82,108,1014.82,112,1023.82" style="stroke: #A80036; stroke-width: 1.0;"/>--></g></svg>