<?xml version="1.0" encoding="UTF-8" standalone="no"?><svg xmlns="http://www.w3.org/2000/svg" xmlns:xlink="http://www.w3.org/1999/xlink" contentScriptType="application/ecmascript" contentStyleType="text/css" height="775px" preserveAspectRatio="none" style="width:2654px;height:775px;background:#11141A;" version="1.1" viewBox="0 0 2654 775" width="2654.6875px" zoomAndPan="magnify"><defs/><g><text fill="#E6E8EC" font-family="DejaVu Sans" font-size="28.125" lengthAdjust="spacingAndGlyphs" textLength="707.8125" x="903.125" y="26.1063">Specification Pattern: kompozice booleovské logiky</text><!--MD5=[dd5188051f30b1f5e1c27fa5903dd33e]
class spec--><rect fill="#161A22" height="173.7305" id="spec" rx="4.6875" ry="4.6875" style="stroke: #3D424E; stroke-width: 2.34375;" width="484.375" x="1128.9063" y="584.3018"/><ellipse cx="1286.7188" cy="607.7393" fill="#1B202A" rx="15.625" ry="15.625" style="stroke: #F0A456; stroke-width: 1.5625;"/><path d="M1282.2998,602.3926 L1282.2998,599.6094 L1291.7969,599.6094 L1291.7969,602.3926 L1288.623,602.3926 L1288.623,612.7686 L1291.7969,612.7686 L1291.7969,615.5518 L1282.2998,615.5518 L1282.2998,612.7686 L1285.4736,612.7686 L1285.4736,602.3926 L1282.2998,602.3926 Z "/><text fill="#E6E8EC" font-family="DejaVu Sans" font-size="21.875" font-style="italic" lengthAdjust="spacingAndGlyphs" textLength="135.9375" x="1316.4063" y="615.3122">Specification</text><rect fill="#11141A" height="28.5889" style="stroke: #F0A456; stroke-width: 1.5625; stroke-dasharray: 2.0,2.0;" width="17.1875" x="1600.7813" y="579.6143"/><text fill="#F0A456" font-family="DejaVu Sans" font-size="21.875" font-style="italic" lengthAdjust="spacingAndGlyphs" textLength="14.0625" x="1602.3438" y="601.4816">T</text><line style="stroke: #3D424E; stroke-width: 2.34375;" x1="1130.4688" x2="1611.7188" y1="631.1768" y2="631.1768"/><line style="stroke: #3D424E; stroke-width: 2.34375;" x1="1130.4688" x2="1611.7188" y1="643.6768" y2="643.6768"/><ellipse cx="1146.0938" cy="660.8643" fill="#84BE84" rx="4.6875" ry="4.6875" style="stroke: #038048; stroke-width: 1.5625;"/><text fill="#A6ADBB" font-family="DejaVu Sans" font-size="21.875" lengthAdjust="spacingAndGlyphs" textLength="225" x="1158.5938" y="670.2316">isSatisfiedBy(T): bool</text><ellipse cx="1146.0938" cy="686.3281" fill="#84BE84" rx="4.6875" ry="4.6875" style="stroke: #038048; stroke-width: 1.5625;"/><text fill="#A6ADBB" font-family="DejaVu Sans" font-size="21.875" lengthAdjust="spacingAndGlyphs" textLength="445.3125" x="1158.5938" y="695.6955">and(Specification&lt;T&gt;): Specification&lt;T&gt;</text><ellipse cx="1146.0938" cy="711.792" fill="#84BE84" rx="4.6875" ry="4.6875" style="stroke: #038048; stroke-width: 1.5625;"/><text fill="#A6ADBB" font-family="DejaVu Sans" font-size="21.875" lengthAdjust="spacingAndGlyphs" textLength="426.5625" x="1158.5938" y="721.1594">or(Specification&lt;T&gt;): Specification&lt;T&gt;</text><ellipse cx="1146.0938" cy="737.2559" fill="#84BE84" rx="4.6875" ry="4.6875" style="stroke: #038048; stroke-width: 1.5625;"/><text fill="#A6ADBB" font-family="DejaVu Sans" font-size="21.875" lengthAdjust="spacingAndGlyphs" textLength="253.125" x="1158.5938" y="746.6232">not(): Specification&lt;T&gt;</text><!--MD5=[53d650e3f1aa0e9e26ec71cbed685067]
class composite--><rect fill="#161A22" height="173.7305" id="composite" rx="4.6875" ry="4.6875" style="stroke: #3D424E; stroke-width: 2.34375;" width="484.375" x="1296.0938" y="45.2393"/><ellipse cx="1396.0938" cy="68.6768" fill="#1B202A" rx="15.625" ry="15.625" style="stroke: #F0A456; stroke-width: 1.5625;"/><path d="M1395.6543,62.6465 L1394.165,69.165 L1397.1436,69.165 L1395.6543,62.6465 Z M1393.7256,59.7656 L1397.583,59.7656 L1401.8799,75.708 L1398.7305,75.708 L1397.7539,71.7773 L1393.5303,71.7773 L1392.5781,75.708 L1389.4043,75.708 L1393.7256,59.7656 Z "/><text fill="#E6E8EC" font-family="DejaVu Sans" font-size="21.875" font-style="italic" lengthAdjust="spacingAndGlyphs" textLength="251.5625" x="1425.7813" y="76.2497">CompositeSpecification</text><rect fill="#11141A" height="28.5889" style="stroke: #F0A456; stroke-width: 1.5625; stroke-dasharray: 2.0,2.0;" width="17.1875" x="1767.9688" y="40.5518"/><text fill="#F0A456" font-family="DejaVu Sans" font-size="21.875" font-style="italic" lengthAdjust="spacingAndGlyphs" textLength="14.0625" x="1769.5313" y="62.4191">T</text><line style="stroke: #3D424E; stroke-width: 2.34375;" x1="1297.6563" x2="1778.9063" y1="92.1143" y2="92.1143"/><line style="stroke: #3D424E; stroke-width: 2.34375;" x1="1297.6563" x2="1778.9063" y1="104.6143" y2="104.6143"/><ellipse cx="1313.2813" cy="121.8018" fill="#84BE84" rx="4.6875" ry="4.6875" style="stroke: #038048; stroke-width: 1.5625;"/><text fill="#A6ADBB" font-family="DejaVu Sans" font-size="21.875" lengthAdjust="spacingAndGlyphs" textLength="445.3125" x="1325.7813" y="131.1691">and(Specification&lt;T&gt;): Specification&lt;T&gt;</text><ellipse cx="1313.2813" cy="147.2656" fill="#84BE84" rx="4.6875" ry="4.6875" style="stroke: #038048; stroke-width: 1.5625;"/><text fill="#A6ADBB" font-family="DejaVu Sans" font-size="21.875" lengthAdjust="spacingAndGlyphs" textLength="426.5625" x="1325.7813" y="156.633">or(Specification&lt;T&gt;): Specification&lt;T&gt;</text><ellipse cx="1313.2813" cy="172.7295" fill="#84BE84" rx="4.6875" ry="4.6875" style="stroke: #038048; stroke-width: 1.5625;"/><text fill="#A6ADBB" font-family="DejaVu Sans" font-size="21.875" lengthAdjust="spacingAndGlyphs" textLength="253.125" x="1325.7813" y="182.0969">not(): Specification&lt;T&gt;</text><ellipse cx="1313.2813" cy="198.1934" fill="#84BE84" rx="4.6875" ry="4.6875" style="stroke: #038048; stroke-width: 1.5625;"/><text fill="#A6ADBB" font-family="DejaVu Sans" font-size="21.875" font-style="italic" lengthAdjust="spacingAndGlyphs" textLength="223.4375" x="1325.7813" y="207.5607">isSatisfiedBy(T): bool</text><!--MD5=[ed1352684fb0fcb30a17a307c6e2c99f]
class andSpec--><rect fill="#161A22" height="148.2666" id="andSpec" rx="4.6875" ry="4.6875" style="stroke: #3D424E; stroke-width: 2.34375;" width="289.0625" x="703.125" y="313.9893"/><ellipse cx="744.6875" cy="337.4268" fill="#1B202A" rx="15.625" ry="15.625" style="stroke: #F0A456; stroke-width: 1.5625;"/><path d="M748.4229,344.7754 Q747.666,345.166 746.8359,345.3613 Q746.0303,345.5566 745.127,345.5566 Q741.9043,345.5566 740.1953,343.4326 Q738.5107,341.3086 738.5107,337.2803 Q738.5107,333.252 740.1953,331.1279 Q741.9043,329.0039 745.127,329.0039 Q746.0303,329.0039 746.8604,329.1992 Q747.6904,329.3945 748.4229,329.7607 L748.4229,333.2764 Q747.6172,332.5195 746.8359,332.1777 Q746.0791,331.8359 745.2734,331.8359 Q743.54,331.8359 742.6611,333.2031 Q741.7822,334.5703 741.7822,337.2803 Q741.7822,339.9658 742.6611,341.3574 Q743.54,342.7246 745.2734,342.7246 Q746.0791,342.7246 746.8359,342.3828 Q747.6172,342.0166 748.4229,341.2842 L748.4229,344.7754 Z "/><text fill="#E6E8EC" font-family="DejaVu Sans" font-size="21.875" lengthAdjust="spacingAndGlyphs" textLength="178.125" x="769.375" y="344.9997">AndSpecification</text><rect fill="#11141A" height="28.5889" style="stroke: #F0A456; stroke-width: 1.5625; stroke-dasharray: 2.0,2.0;" width="17.1875" x="979.6875" y="309.3018"/><text fill="#F0A456" font-family="DejaVu Sans" font-size="21.875" font-style="italic" lengthAdjust="spacingAndGlyphs" textLength="14.0625" x="981.25" y="331.1691">T</text><line style="stroke: #3D424E; stroke-width: 2.34375;" x1="704.6875" x2="990.625" y1="360.8643" y2="360.8643"/><rect fill="none" height="9.375" style="stroke: #C82930; stroke-width: 1.5625;" width="9.375" x="715.625" y="373.3643"/><text fill="#A6ADBB" font-family="DejaVu Sans" font-size="21.875" lengthAdjust="spacingAndGlyphs" textLength="234.375" x="732.8125" y="387.4191">left: Specification&lt;T&gt;</text><rect fill="none" height="9.375" style="stroke: #C82930; stroke-width: 1.5625;" width="9.375" x="715.625" y="398.8281"/><text fill="#A6ADBB" font-family="DejaVu Sans" font-size="21.875" lengthAdjust="spacingAndGlyphs" textLength="250" x="732.8125" y="412.883">right: Specification&lt;T&gt;</text><line style="stroke: #3D424E; stroke-width: 2.34375;" x1="704.6875" x2="990.625" y1="424.292" y2="424.292"/><ellipse cx="720.3125" cy="441.4795" fill="#84BE84" rx="4.6875" ry="4.6875" style="stroke: #038048; stroke-width: 1.5625;"/><text fill="#A6ADBB" font-family="DejaVu Sans" font-size="21.875" lengthAdjust="spacingAndGlyphs" textLength="225" x="732.8125" y="450.8469">isSatisfiedBy(T): bool</text><!--MD5=[65f39859b8c18e8dc1f7a38ee228168d]
class orSpec--><rect fill="#161A22" height="148.2666" id="orSpec" rx="4.6875" ry="4.6875" style="stroke: #3D424E; stroke-width: 2.34375;" width="289.0625" x="1046.875" y="313.9893"/><ellipse cx="1096.1719" cy="337.4268" fill="#1B202A" rx="15.625" ry="15.625" style="stroke: #F0A456; stroke-width: 1.5625;"/><path d="M1099.9072,344.7754 Q1099.1504,345.166 1098.3203,345.3613 Q1097.5146,345.5566 1096.6113,345.5566 Q1093.3887,345.5566 1091.6797,343.4326 Q1089.9951,341.3086 1089.9951,337.2803 Q1089.9951,333.252 1091.6797,331.1279 Q1093.3887,329.0039 1096.6113,329.0039 Q1097.5146,329.0039 1098.3447,329.1992 Q1099.1748,329.3945 1099.9072,329.7607 L1099.9072,333.2764 Q1099.1016,332.5195 1098.3203,332.1777 Q1097.5635,331.8359 1096.7578,331.8359 Q1095.0244,331.8359 1094.1455,333.2031 Q1093.2666,334.5703 1093.2666,337.2803 Q1093.2666,339.9658 1094.1455,341.3574 Q1095.0244,342.7246 1096.7578,342.7246 Q1097.5635,342.7246 1098.3203,342.3828 Q1099.1016,342.0166 1099.9072,341.2842 L1099.9072,344.7754 Z "/><text fill="#E6E8EC" font-family="DejaVu Sans" font-size="21.875" lengthAdjust="spacingAndGlyphs" textLength="160.9375" x="1122.5781" y="344.9997">OrSpecification</text><rect fill="#11141A" height="28.5889" style="stroke: #F0A456; stroke-width: 1.5625; stroke-dasharray: 2.0,2.0;" width="17.1875" x="1323.4375" y="309.3018"/><text fill="#F0A456" font-family="DejaVu Sans" font-size="21.875" font-style="italic" lengthAdjust="spacingAndGlyphs" textLength="14.0625" x="1325" y="331.1691">T</text><line style="stroke: #3D424E; stroke-width: 2.34375;" x1="1048.4375" x2="1334.375" y1="360.8643" y2="360.8643"/><rect fill="none" height="9.375" style="stroke: #C82930; stroke-width: 1.5625;" width="9.375" x="1059.375" y="373.3643"/><text fill="#A6ADBB" font-family="DejaVu Sans" font-size="21.875" lengthAdjust="spacingAndGlyphs" textLength="234.375" x="1076.5625" y="387.4191">left: Specification&lt;T&gt;</text><rect fill="none" height="9.375" style="stroke: #C82930; stroke-width: 1.5625;" width="9.375" x="1059.375" y="398.8281"/><text fill="#A6ADBB" font-family="DejaVu Sans" font-size="21.875" lengthAdjust="spacingAndGlyphs" textLength="250" x="1076.5625" y="412.883">right: Specification&lt;T&gt;</text><line style="stroke: #3D424E; stroke-width: 2.34375;" x1="1048.4375" x2="1334.375" y1="424.292" y2="424.292"/><ellipse cx="1064.0625" cy="441.4795" fill="#84BE84" rx="4.6875" ry="4.6875" style="stroke: #038048; stroke-width: 1.5625;"/><text fill="#A6ADBB" font-family="DejaVu Sans" font-size="21.875" lengthAdjust="spacingAndGlyphs" textLength="225" x="1076.5625" y="450.8469">isSatisfiedBy(T): bool</text><!--MD5=[b8990e0302f993b2f3152a4610737ef7]
class notSpec--><rect fill="#161A22" height="122.8027" id="notSpec" rx="4.6875" ry="4.6875" style="stroke: #3D424E; stroke-width: 2.34375;" width="295.3125" x="1390.625" y="326.4893"/><ellipse cx="1437.1094" cy="349.9268" fill="#1B202A" rx="15.625" ry="15.625" style="stroke: #F0A456; stroke-width: 1.5625;"/><path d="M1440.8447,357.2754 Q1440.0879,357.666 1439.2578,357.8613 Q1438.4521,358.0566 1437.5488,358.0566 Q1434.3262,358.0566 1432.6172,355.9326 Q1430.9326,353.8086 1430.9326,349.7803 Q1430.9326,345.752 1432.6172,343.6279 Q1434.3262,341.5039 1437.5488,341.5039 Q1438.4521,341.5039 1439.2822,341.6992 Q1440.1123,341.8945 1440.8447,342.2607 L1440.8447,345.7764 Q1440.0391,345.0195 1439.2578,344.6777 Q1438.501,344.3359 1437.6953,344.3359 Q1435.9619,344.3359 1435.083,345.7031 Q1434.2041,347.0703 1434.2041,349.7803 Q1434.2041,352.4658 1435.083,353.8574 Q1435.9619,355.2246 1437.6953,355.2246 Q1438.501,355.2246 1439.2578,354.8828 Q1440.0391,354.5166 1440.8447,353.7842 L1440.8447,357.2754 Z "/><text fill="#E6E8EC" font-family="DejaVu Sans" font-size="21.875" lengthAdjust="spacingAndGlyphs" textLength="173.4375" x="1462.8906" y="357.4997">NotSpecification</text><rect fill="#11141A" height="28.5889" style="stroke: #F0A456; stroke-width: 1.5625; stroke-dasharray: 2.0,2.0;" width="17.1875" x="1673.4375" y="321.8018"/><text fill="#F0A456" font-family="DejaVu Sans" font-size="21.875" font-style="italic" lengthAdjust="spacingAndGlyphs" textLength="14.0625" x="1675" y="343.6691">T</text><line style="stroke: #3D424E; stroke-width: 2.34375;" x1="1392.1875" x2="1684.375" y1="373.3643" y2="373.3643"/><rect fill="none" height="9.375" style="stroke: #C82930; stroke-width: 1.5625;" width="9.375" x="1403.125" y="385.8643"/><text fill="#A6ADBB" font-family="DejaVu Sans" font-size="21.875" lengthAdjust="spacingAndGlyphs" textLength="256.25" x="1420.3125" y="399.9191">inner: Specification&lt;T&gt;</text><line style="stroke: #3D424E; stroke-width: 2.34375;" x1="1392.1875" x2="1684.375" y1="411.3281" y2="411.3281"/><ellipse cx="1407.8125" cy="428.5156" fill="#84BE84" rx="4.6875" ry="4.6875" style="stroke: #038048; stroke-width: 1.5625;"/><text fill="#A6ADBB" font-family="DejaVu Sans" font-size="21.875" lengthAdjust="spacingAndGlyphs" textLength="225" x="1420.3125" y="437.883">isSatisfiedBy(T): bool</text><!--MD5=[40fc29300aeae43085d58b66c5d9f4ca]
class ps--><rect fill="#161A22" height="122.8027" id="ps" rx="4.6875" ry="4.6875" style="stroke: #3D424E; stroke-width: 2.34375;" width="310.9375" x="9.375" y="326.4893"/><ellipse cx="36.875" cy="349.9268" fill="#1B202A" rx="15.625" ry="15.625" style="stroke: #F0A456; stroke-width: 1.5625;"/><path d="M40.6104,357.2754 Q39.8535,357.666 39.0234,357.8613 Q38.2178,358.0566 37.3145,358.0566 Q34.0918,358.0566 32.3828,355.9326 Q30.6982,353.8086 30.6982,349.7803 Q30.6982,345.752 32.3828,343.6279 Q34.0918,341.5039 37.3145,341.5039 Q38.2178,341.5039 39.0479,341.6992 Q39.8779,341.8945 40.6104,342.2607 L40.6104,345.7764 Q39.8047,345.0195 39.0234,344.6777 Q38.2666,344.3359 37.4609,344.3359 Q35.7275,344.3359 34.8486,345.7031 Q33.9697,347.0703 33.9697,349.7803 Q33.9697,352.4658 34.8486,353.8574 Q35.7275,355.2246 37.4609,355.2246 Q38.2666,355.2246 39.0234,354.8828 Q39.8047,354.5166 40.6104,353.7842 L40.6104,357.2754 Z "/><text fill="#E6E8EC" font-family="DejaVu Sans" font-size="21.875" lengthAdjust="spacingAndGlyphs" textLength="251.5625" x="58.4375" y="357.4997">EligibleForFreeShipping</text><line style="stroke: #3D424E; stroke-width: 2.34375;" x1="10.9375" x2="318.75" y1="373.3643" y2="373.3643"/><rect fill="none" height="9.375" style="stroke: #C82930; stroke-width: 1.5625;" width="9.375" x="21.875" y="385.8643"/><text fill="#A6ADBB" font-family="DejaVu Sans" font-size="21.875" lengthAdjust="spacingAndGlyphs" textLength="189.0625" x="39.0625" y="399.9191">threshold: Money</text><line style="stroke: #3D424E; stroke-width: 2.34375;" x1="10.9375" x2="318.75" y1="411.3281" y2="411.3281"/><ellipse cx="26.5625" cy="428.5156" fill="#84BE84" rx="4.6875" ry="4.6875" style="stroke: #038048; stroke-width: 1.5625;"/><text fill="#A6ADBB" font-family="DejaVu Sans" font-size="21.875" lengthAdjust="spacingAndGlyphs" textLength="271.875" x="39.0625" y="437.883">isSatisfiedBy(Order): bool</text><!--MD5=[cb67ee07b052e52754410feeeec73576]
class ineu--><rect fill="#161A22" height="122.8027" id="ineu" rx="4.6875" ry="4.6875" style="stroke: #3D424E; stroke-width: 2.34375;" width="310.9375" x="1740.625" y="326.4893"/><ellipse cx="1823.4375" cy="349.9268" fill="#1B202A" rx="15.625" ry="15.625" style="stroke: #F0A456; stroke-width: 1.5625;"/><path d="M1827.1729,357.2754 Q1826.416,357.666 1825.5859,357.8613 Q1824.7803,358.0566 1823.877,358.0566 Q1820.6543,358.0566 1818.9453,355.9326 Q1817.2607,353.8086 1817.2607,349.7803 Q1817.2607,345.752 1818.9453,343.6279 Q1820.6543,341.5039 1823.877,341.5039 Q1824.7803,341.5039 1825.6104,341.6992 Q1826.4404,341.8945 1827.1729,342.2607 L1827.1729,345.7764 Q1826.3672,345.0195 1825.5859,344.6777 Q1824.8291,344.3359 1824.0234,344.3359 Q1822.29,344.3359 1821.4111,345.7031 Q1820.5322,347.0703 1820.5322,349.7803 Q1820.5322,352.4658 1821.4111,353.8574 Q1822.29,355.2246 1824.0234,355.2246 Q1824.8291,355.2246 1825.5859,354.8828 Q1826.3672,354.5166 1827.1729,353.7842 L1827.1729,357.2754 Z "/><text fill="#E6E8EC" font-family="DejaVu Sans" font-size="21.875" lengthAdjust="spacingAndGlyphs" textLength="132.8125" x="1853.125" y="357.4997">InEUCountry</text><line style="stroke: #3D424E; stroke-width: 2.34375;" x1="1742.1875" x2="2050" y1="373.3643" y2="373.3643"/><rect fill="none" height="9.375" style="stroke: #C82930; stroke-width: 1.5625;" width="9.375" x="1753.125" y="385.8643"/><text fill="#A6ADBB" font-family="DejaVu Sans" font-size="21.875" lengthAdjust="spacingAndGlyphs" textLength="179.6875" x="1770.3125" y="399.9191">country: Country</text><line style="stroke: #3D424E; stroke-width: 2.34375;" x1="1742.1875" x2="2050" y1="411.3281" y2="411.3281"/><ellipse cx="1757.8125" cy="428.5156" fill="#84BE84" rx="4.6875" ry="4.6875" style="stroke: #038048; stroke-width: 1.5625;"/><text fill="#A6ADBB" font-family="DejaVu Sans" font-size="21.875" lengthAdjust="spacingAndGlyphs" textLength="271.875" x="1770.3125" y="437.883">isSatisfiedBy(Order): bool</text><!--MD5=[5853c88ac709a3e99d8d6f22855a867f]
class nib--><rect fill="#161A22" height="122.8027" id="nib" rx="4.6875" ry="4.6875" style="stroke: #3D424E; stroke-width: 2.34375;" width="310.9375" x="2106.25" y="326.4893"/><ellipse cx="2183.5938" cy="349.9268" fill="#1B202A" rx="15.625" ry="15.625" style="stroke: #F0A456; stroke-width: 1.5625;"/><path d="M2187.3291,357.2754 Q2186.5723,357.666 2185.7422,357.8613 Q2184.9365,358.0566 2184.0332,358.0566 Q2180.8105,358.0566 2179.1016,355.9326 Q2177.417,353.8086 2177.417,349.7803 Q2177.417,345.752 2179.1016,343.6279 Q2180.8105,341.5039 2184.0332,341.5039 Q2184.9365,341.5039 2185.7666,341.6992 Q2186.5967,341.8945 2187.3291,342.2607 L2187.3291,345.7764 Q2186.5234,345.0195 2185.7422,344.6777 Q2184.9854,344.3359 2184.1797,344.3359 Q2182.4463,344.3359 2181.5674,345.7031 Q2180.6885,347.0703 2180.6885,349.7803 Q2180.6885,352.4658 2181.5674,353.8574 Q2182.4463,355.2246 2184.1797,355.2246 Q2184.9854,355.2246 2185.7422,354.8828 Q2186.5234,354.5166 2187.3291,353.7842 L2187.3291,357.2754 Z "/><text fill="#E6E8EC" font-family="DejaVu Sans" font-size="21.875" lengthAdjust="spacingAndGlyphs" textLength="143.75" x="2213.2813" y="357.4997">NotInBlacklist</text><line style="stroke: #3D424E; stroke-width: 2.34375;" x1="2107.8125" x2="2415.625" y1="373.3643" y2="373.3643"/><rect fill="none" height="9.375" style="stroke: #C82930; stroke-width: 1.5625;" width="9.375" x="2118.75" y="385.8643"/><text fill="#A6ADBB" font-family="DejaVu Sans" font-size="21.875" lengthAdjust="spacingAndGlyphs" textLength="260.9375" x="2135.9375" y="399.9191">customerId: CustomerId</text><line style="stroke: #3D424E; stroke-width: 2.34375;" x1="2107.8125" x2="2415.625" y1="411.3281" y2="411.3281"/><ellipse cx="2123.4375" cy="428.5156" fill="#84BE84" rx="4.6875" ry="4.6875" style="stroke: #038048; stroke-width: 1.5625;"/><text fill="#A6ADBB" font-family="DejaVu Sans" font-size="21.875" lengthAdjust="spacingAndGlyphs" textLength="271.875" x="2135.9375" y="437.883">isSatisfiedBy(Order): bool</text><path d="M375,334.3018 L375,381.958 L320.6719,388.208 L375,394.458 L375,442.4072 A4.6875,4.6875 0 0 0 379.6875,447.0947 L643.75,447.0947 A4.6875,4.6875 0 0 0 648.4375,442.4072 L648.4375,345.2393 L632.8125,329.6143 L379.6875,329.6143 A4.6875,4.6875 0 0 0 375,334.3018 " fill="#1B202A" style="stroke: #3D424E; stroke-width: 1.5625;"/><path d="M632.8125,329.6143 L632.8125,342.8955 A2.3438,2.3438 0 0 0 635.1563,345.2393 L648.4375,345.2393 L632.8125,329.6143 " fill="#1B202A" style="stroke: #3D424E; stroke-width: 1.5625;"/><text fill="#A6ADBB" font-family="DejaVu Sans" font-size="21.875" lengthAdjust="spacingAndGlyphs" textLength="225" x="384.375" y="357.7316">Konkrétní doménové</text><text fill="#A6ADBB" font-family="DejaVu Sans" font-size="21.875" lengthAdjust="spacingAndGlyphs" textLength="210.9375" x="384.375" y="383.1955">specifikace vyjadřují</text><text fill="#A6ADBB" font-family="DejaVu Sans" font-size="21.875" lengthAdjust="spacingAndGlyphs" textLength="185.9375" x="384.375" y="408.6594">business pravidla</text><text fill="#A6ADBB" font-family="DejaVu Sans" font-size="21.875" lengthAdjust="spacingAndGlyphs" textLength="240.625" x="384.375" y="434.1232">jako prvotřídní objekty.</text><path d="M695.3125,604.6143 L695.3125,738.1836 A4.6875,4.6875 0 0 0 700,742.8711 L995.3125,742.8711 A4.6875,4.6875 0 0 0 1000,738.1836 L1000,615.5518 L984.375,599.9268 L853.9063,599.9268 L847.6563,462.5205 L841.4063,599.9268 L700,599.9268 A4.6875,4.6875 0 0 0 695.3125,604.6143 " fill="#1B202A" style="stroke: #3D424E; stroke-width: 1.5625;"/><path d="M984.375,599.9268 L984.375,613.208 A2.3438,2.3438 0 0 0 986.7188,615.5518 L1000,615.5518 L984.375,599.9268 " fill="#1B202A" style="stroke: #3D424E; stroke-width: 1.5625;"/><text fill="#A6ADBB" font-family="DejaVu Sans" font-size="21.875" lengthAdjust="spacingAndGlyphs" textLength="240.625" x="704.6875" y="628.0441">Kompozice and/or/not</text><text fill="#A6ADBB" font-family="DejaVu Sans" font-size="21.875" lengthAdjust="spacingAndGlyphs" textLength="251.5625" x="704.6875" y="653.508">→ libovolné booleovské</text><text fill="#A6ADBB" font-family="DejaVu Sans" font-size="21.875" lengthAdjust="spacingAndGlyphs" textLength="271.875" x="704.6875" y="678.9719">výrazy bez if-else stromů.</text><text fill="#A6ADBB" font-family="DejaVu Sans" font-size="21.875" lengthAdjust="spacingAndGlyphs" textLength="246.875" x="704.6875" y="704.4357">Otevřeno pro rozšíření,</text><text fill="#A6ADBB" font-family="DejaVu Sans" font-size="21.875" lengthAdjust="spacingAndGlyphs" textLength="246.875" x="704.6875" y="729.8996">zavřeno pro modifikaci.</text><path d="M938.2813,78.0518 L938.2813,186.1572 A4.6875,4.6875 0 0 0 942.9688,190.8447 L1236.7188,190.8447 A4.6875,4.6875 0 0 0 1241.4063,186.1572 L1241.4063,138.208 L1295.6563,131.958 L1241.4063,125.708 L1241.4063,88.9893 L1225.7813,73.3643 L942.9688,73.3643 A4.6875,4.6875 0 0 0 938.2813,78.0518 " fill="#1B202A" style="stroke: #3D424E; stroke-width: 1.5625;"/><path d="M1225.7813,73.3643 L1225.7813,86.6455 A2.3438,2.3438 0 0 0 1228.125,88.9893 L1241.4063,88.9893 L1225.7813,73.3643 " fill="#1B202A" style="stroke: #3D424E; stroke-width: 1.5625;"/><text fill="#A6ADBB" font-family="DejaVu Sans" font-size="21.875" lengthAdjust="spacingAndGlyphs" textLength="160.9375" x="947.6563" y="101.4816">Abstraktní třída</text><text fill="#A6ADBB" font-family="DejaVu Sans" font-size="21.875" lengthAdjust="spacingAndGlyphs" textLength="203.125" x="947.6563" y="126.9455">poskytuje implicitní</text><text fill="#A6ADBB" font-family="DejaVu Sans" font-size="21.875" lengthAdjust="spacingAndGlyphs" textLength="270.3125" x="947.6563" y="152.4094">kombinátory pro všechny</text><text fill="#A6ADBB" font-family="DejaVu Sans" font-size="21.875" lengthAdjust="spacingAndGlyphs" textLength="246.875" x="947.6563" y="177.8732">potomky (DRY princip).</text><!--MD5=[63f4d2f630c7a518bffe28fb41550445]
reverse link spec to composite--><path d="M1644.7187,655.2861 C1928.6406,634.1611 2344.9531,583.0518 2444.5313,462.4268 C2636.4688,229.9268 2109.6563,161.7705 1780.5,141.8018 " fill="none" id="spec&lt;-composite" style="stroke: #F0A456; stroke-width: 2.34375; stroke-dasharray: 7.0,7.0;"/><polygon fill="none" points="1645.3125,666.208,1613.3594,657.5361,1643.75,644.3799,1645.3125,666.208" style="stroke: #F0A456; stroke-width: 2.34375;"/><!--MD5=[847d8339a7a08cfa46746735fb7256e5]
reverse link composite to andSpec--><path d="M1265.9844,224.5205 C1186.1719,252.1924 1099.0156,283.3955 1019.5313,313.9893 C1010.6094,317.4268 1001.4688,321.0205 992.2656,324.7236 " fill="none" id="composite&lt;-andSpec" style="stroke: #F0A456; stroke-width: 2.34375;"/><polygon fill="none" points="1262.5,214.1455,1295.6094,214.2861,1269.625,234.833,1262.5,214.1455" style="stroke: #F0A456; stroke-width: 2.34375;"/><!--MD5=[a7544667604889803e0bc61c6b4c207b]
reverse link composite to orSpec--><path d="M1396.0625,237.3018 C1360.8125,263.0205 1323.7813,290.0518 1291.0625,313.9268 " fill="none" id="composite&lt;-orSpec" style="stroke: #F0A456; stroke-width: 2.34375;"/><polygon fill="none" points="1389.6406,228.4424,1421.3281,218.8643,1402.5313,246.1143,1389.6406,228.4424" style="stroke: #F0A456; stroke-width: 2.34375;"/><!--MD5=[a9bdbe7eec8594ba7d6f4c1b32d7dedf]
reverse link composite to notSpec--><path d="M1538.2813,250.5674 C1538.2813,276.7393 1538.2813,303.458 1538.2813,326.208 " fill="none" id="composite&lt;-notSpec" style="stroke: #F0A456; stroke-width: 2.34375;"/><polygon fill="none" points="1527.3438,250.4736,1538.2813,219.2236,1549.2188,250.4736,1527.3438,250.4736" style="stroke: #F0A456; stroke-width: 2.34375;"/><!--MD5=[342556ac64c22b721a5384df8afe2efb]
reverse link composite to ps--><path d="M1264.7813,218.7236 C859.3594,297.9736 737.2656,218.333 347.6563,313.9893 C333.7188,317.4111 319.4531,321.6611 305.3125,326.3799 " fill="none" id="composite&lt;-ps" style="stroke: #F0A456; stroke-width: 2.34375;"/><polygon fill="none" points="1262.9531,207.9268,1295.75,212.458,1267.2813,229.3643,1262.9531,207.9268" style="stroke: #F0A456; stroke-width: 2.34375;"/><!--MD5=[f8fa0ec7d4901e1825a8862b38f6f458]
reverse link composite to ineu--><path d="M1684.5625,237.0049 C1727.5625,267.4268 1773.1719,299.6768 1810.9688,326.4268 " fill="none" id="composite&lt;-ineu" style="stroke: #F0A456; stroke-width: 2.34375;"/><polygon fill="none" points="1678.1094,245.8486,1658.9219,218.8643,1690.75,227.9893,1678.1094,245.8486" style="stroke: #F0A456; stroke-width: 2.34375;"/><!--MD5=[61ac2fd6d58ad0a3c97387343e96e542]
reverse link composite to nib--><path d="M1810.875,221.208 C1896.9688,249.7861 1992.2344,282.333 2078.9063,313.9893 C2089.8125,317.9736 2101.0469,322.1768 2112.3281,326.4893 " fill="none" id="composite&lt;-nib" style="stroke: #F0A456; stroke-width: 2.34375;"/><polygon fill="none" points="1807.0625,231.4736,1780.8281,211.2705,1813.9219,210.6924,1807.0625,231.4736" style="stroke: #F0A456; stroke-width: 2.34375;"/><!--MD5=[0b8f90bab01d6ef2d2bf0aec178cf328]
reverse link andSpec to spec--><path d="M1002.1094,472.3018 C1068.0469,507.5361 1144.9688,548.6299 1211.4688,584.1611 " fill="none" id="andSpec&lt;-spec" style="stroke: #F0A456; stroke-width: 2.34375;"/><polygon fill="#11141A" points="983.8125,462.5205,989.1312,472.4535,1000.3458,471.3644,995.0271,461.4313,983.8125,462.5205" style="stroke: #F0A456; stroke-width: 2.34375;"/><text fill="#E6E8EC" font-family="DejaVu Sans" font-size="21.875" lengthAdjust="spacingAndGlyphs" textLength="89.0625" x="1111.7188" y="531.1691">left/right</text><!--MD5=[3bb14941431e5d9dbdd9c358371e806c]
reverse link orSpec to spec--><path d="M1249.4219,480.0674 C1270.875,513.4736 1295.125,551.208 1316.2969,584.1611 " fill="none" id="orSpec&lt;-spec" style="stroke: #F0A456; stroke-width: 2.34375;"/><polygon fill="#11141A" points="1238.1406,462.5205,1237.9484,473.7862,1248.2736,478.2966,1248.4658,467.0309,1238.1406,462.5205" style="stroke: #F0A456; stroke-width: 2.34375;"/><text fill="#E6E8EC" font-family="DejaVu Sans" font-size="21.875" lengthAdjust="spacingAndGlyphs" textLength="89.0625" x="1283.5938" y="531.1691">left/right</text><!--MD5=[ab80611742922e81696ec7047657bd24]
reverse link notSpec to spec--><path d="M1491.4688,468.0986 C1469.9063,504.1611 1444.2656,547.0518 1422.2031,583.958 " fill="none" id="notSpec&lt;-spec" style="stroke: #F0A456; stroke-width: 2.34375;"/><polygon fill="#11141A" points="1502,450.458,1491.8246,455.2968,1492.3775,466.5505,1502.5529,461.7118,1502,450.458" style="stroke: #F0A456; stroke-width: 2.34375;"/><text fill="#E6E8EC" font-family="DejaVu Sans" font-size="21.875" lengthAdjust="spacingAndGlyphs" textLength="54.6875" x="1466.4063" y="531.1691">inner</text><!--MD5=[71fcc9ef358993167df4203c624e3276]
@startuml
skinparam dpi 150
skinparam backgroundColor #11141A
skinparam shadowing false
skinparam roundCorner 6

skinparam defaultFontName "DejaVu Sans"
skinparam defaultFontSize 14
skinparam defaultFontColor #E6E8EC
skinparam defaultTextAlignment center


skinparam ArrowColor #F0A456
skinparam ArrowFontColor #E6E8EC
skinparam ArrowThickness 1.5

skinparam node {
  BackgroundColor #161A22
  BorderColor #3D424E
  FontColor #E6E8EC
}

skinparam component {
  BackgroundColor #161A22
  BorderColor #3D424E
  FontColor #E6E8EC
}

skinparam rectangle {
  BackgroundColor #161A22
  BorderColor #3D424E
  FontColor #E6E8EC
}

skinparam package {
  BackgroundColor #11141A
  BorderColor #F0A456
  FontColor #F0A456
}

skinparam folder {
  BackgroundColor #161A22
  BorderColor #3D424E
  FontColor #E6E8EC
}

skinparam frame {
  BackgroundColor #161A22
  BorderColor #3D424E
  FontColor #E6E8EC
}

skinparam database {
  BackgroundColor #1B202A
  BorderColor #3D424E
  FontColor #E6E8EC
}

skinparam queue {
  BackgroundColor #1B202A
  BorderColor #3D424E
  FontColor #E6E8EC
}

skinparam cloud {
  BackgroundColor #1B202A
  BorderColor #3D424E
  FontColor #E6E8EC
}

skinparam actor {
  BackgroundColor #161A22
  BorderColor #F0A456
  FontColor #E6E8EC
}

skinparam usecase {
  BackgroundColor #161A22
  BorderColor #3D424E
  FontColor #E6E8EC
}

skinparam class {
  BackgroundColor #161A22
  BorderColor #3D424E
  HeaderBackgroundColor #1B202A
  ArrowColor #F0A456
  FontColor #E6E8EC
  AttributeFontColor #A6ADBB
  StereotypeFontColor #F0A456
}

skinparam object {
  BackgroundColor #161A22
  BorderColor #3D424E
  FontColor #E6E8EC
}

skinparam sequence {
  ParticipantBackgroundColor #161A22
  ParticipantBorderColor #3D424E
  ParticipantFontColor #E6E8EC
  ActorBackgroundColor #161A22
  ActorBorderColor #F0A456
  ActorFontColor #E6E8EC
  LifeLineBorderColor #3D424E
  LifeLineBackgroundColor #1B202A
  ArrowColor #F0A456
  ArrowFontColor #E6E8EC
  GroupBackgroundColor #1B202A
  GroupBorderColor #3D424E
  GroupFontColor #A6ADBB
  GroupHeaderFontColor #F0A456
  BoxBackgroundColor #11141A
  BoxBorderColor #F0A456
  BoxFontColor #F0A456
  DividerBackgroundColor #1B202A
  DividerBorderColor #3D424E
  DividerFontColor #A6ADBB
  ReferenceBackgroundColor #161A22
  ReferenceBorderColor #3D424E
  ReferenceFontColor #E6E8EC
  ReferenceHeaderBackgroundColor #1B202A
  StereotypeFontColor #F0A456
}

skinparam state {
  BackgroundColor #161A22
  BorderColor #3D424E
  FontColor #E6E8EC
  StartColor #F0A456
  EndColor #F0A456
  ArrowColor #F0A456
  AttributeFontColor #A6ADBB
}

skinparam activity {
  BackgroundColor #161A22
  BorderColor #3D424E
  FontColor #E6E8EC
  ArrowColor #F0A456
  StartColor #F0A456
  EndColor #F0A456
  BarColor #F0A456
  DiamondBackgroundColor #1B202A
  DiamondBorderColor #3D424E
  DiamondFontColor #E6E8EC
}

skinparam note {
  BackgroundColor #1B202A
  BorderColor #3D424E
  FontColor #A6ADBB
}

skinparam title {
  FontColor #E6E8EC
  FontSize 18
}

skinparam legend {
  BackgroundColor #161A22
  BorderColor #3D424E
  FontColor #A6ADBB
}

skinparam caption {
  FontColor #A6ADBB
}

skinparam stereotype {
  CBackgroundColor #1B202A
  CBorderColor #F0A456
  ABackgroundColor #1B202A
  ABorderColor #F0A456
  IBackgroundColor #1B202A
  IBorderColor #F0A456
  EBackgroundColor #1B202A
  EBorderColor #F0A456
}

title Specification Pattern: kompozice booleovské logiky

interface "Specification<T>" as spec {
  +isSatisfiedBy(T): bool
  +and(Specification<T>): Specification<T>
  +or(Specification<T>): Specification<T>
  +not(): Specification<T>
}

abstract class "CompositeSpecification<T>" as composite {
  +and(Specification<T>): Specification<T>
  +or(Specification<T>): Specification<T>
  +not(): Specification<T>
  {abstract} +isSatisfiedBy(T): bool
}

class "AndSpecification<T>" as andSpec {
  -left: Specification<T>
  -right: Specification<T>
  +isSatisfiedBy(T): bool
}

class "OrSpecification<T>" as orSpec {
  -left: Specification<T>
  -right: Specification<T>
  +isSatisfiedBy(T): bool
}

class "NotSpecification<T>" as notSpec {
  -inner: Specification<T>
  +isSatisfiedBy(T): bool
}

class "EligibleForFreeShipping" as ps {
  -threshold: Money
  +isSatisfiedBy(Order): bool
}

class "InEUCountry" as ineu {
  -country: Country
  +isSatisfiedBy(Order): bool
}

class "NotInBlacklist" as nib {
  -customerId: CustomerId
  +isSatisfiedBy(Order): bool
}

spec <|.. composite
composite <|- - andSpec
composite <|- - orSpec
composite <|- - notSpec
composite <|- - ps
composite <|- - ineu
composite <|- - nib

andSpec o- - spec : left/right
orSpec o- - spec : left/right
notSpec o- - spec : inner

note right of ps
  Konkrétní doménové
  specifikace vyjadřují
  business pravidla
  jako prvotřídní objekty.
end note

note bottom of andSpec
  Kompozice and/or/not
  → libovolné booleovské
  výrazy bez if-else stromů.
  Otevřeno pro rozšíření,
  zavřeno pro modifikaci.
end note

note left of composite
  Abstraktní třída
  poskytuje implicitní
  kombinátory pro všechny
  potomky (DRY princip).
end note

@enduml

PlantUML version 1.2020.02(Sun Mar 01 11:22:07 CET 2020)
(GPL source distribution)
Java Runtime: OpenJDK Runtime Environment
JVM: OpenJDK 64-Bit Server VM
Java Version: 21.0.10+7-Debian-1deb13u1
Operating System: Linux
Default Encoding: UTF-8
Language: cs
Country: CZ
--></g></svg>