<?xml version="1.0" encoding="UTF-8" standalone="no"?><svg xmlns="http://www.w3.org/2000/svg" xmlns:xlink="http://www.w3.org/1999/xlink" contentScriptType="application/ecmascript" contentStyleType="text/css" height="1870.3125px" preserveAspectRatio="none" style="width:1271px;height:1870px;background:#11141A;" version="1.1" viewBox="0 0 1271 1870" width="1271.875px" zoomAndPan="magnify"><defs/><g><text fill="#E6E8EC" font-family="Inter, ui-sans-serif, system-ui, -apple-system, sans-serif" font-size="28.125" lengthAdjust="spacingAndGlyphs" textLength="581.25" x="343.75" y="26.1063">Context Map: Systém pro správu projektů</text><!--MD5=[374c1f483ac7fba13224b80dc1a505e8]
cluster SK--><path d="M539.0625,82.7393 L715.625,82.7393 A7.0313,7.0313 0 0 1 720.3125,87.4268 L731.25,117.5781 L759.375,117.5781 A4.6875,4.6875 0 0 1 764.0625,122.2656 L764.0625,315.5518 A4.6875,4.6875 0 0 1 759.375,320.2393 L539.0625,320.2393 A4.6875,4.6875 0 0 1 534.375,315.5518 L534.375,87.4268 A4.6875,4.6875 0 0 1 539.0625,82.7393 " fill="#11141A" style="stroke: #F0A456; stroke-width: 2.34375;"/><line style="stroke: #F0A456; stroke-width: 2.34375;" x1="534.375" x2="731.25" y1="117.5781" y2="117.5781"/><text fill="#F0A456" font-family="Inter, ui-sans-serif, system-ui, -apple-system, sans-serif" font-size="21.875" font-weight="bold" lengthAdjust="spacingAndGlyphs" textLength="176.5625" x="540.625" y="106.1691">Shared Kernel</text><text fill="#E6E8EC" font-family="Inter, ui-sans-serif, system-ui, -apple-system, sans-serif" font-size="21.875" font-style="italic" lengthAdjust="spacingAndGlyphs" textLength="89.0625" x="610.9375" y="141.008">«frame»</text><!--MD5=[e9c28ed10ded8dc7b626dce64c971bfd]
cluster UM--><path d="M57.8125,396.8018 L273.4375,396.8018 A7.0313,7.0313 0 0 1 278.125,401.4893 L289.0625,431.6406 L476.5625,431.6406 A4.6875,4.6875 0 0 1 481.25,436.3281 L481.25,553.0518 A4.6875,4.6875 0 0 1 476.5625,557.7393 L57.8125,557.7393 A4.6875,4.6875 0 0 1 53.125,553.0518 L53.125,401.4893 A4.6875,4.6875 0 0 1 57.8125,396.8018 " fill="#11141A" style="stroke: #F0A456; stroke-width: 2.34375;"/><line style="stroke: #F0A456; stroke-width: 2.34375;" x1="53.125" x2="289.0625" y1="431.6406" y2="431.6406"/><text fill="#F0A456" font-family="Inter, ui-sans-serif, system-ui, -apple-system, sans-serif" font-size="21.875" font-weight="bold" lengthAdjust="spacingAndGlyphs" textLength="215.625" x="59.375" y="420.2316">UserManagement</text><!--MD5=[a4e6d9a85616613a6c2ea346eff9fc0e]
cluster PM--><path d="M189.0625,660.8643 L434.375,660.8643 A7.0313,7.0313 0 0 1 439.0625,665.5518 L450,695.7031 L642.1875,695.7031 A4.6875,4.6875 0 0 1 646.875,700.3906 L646.875,817.1143 A4.6875,4.6875 0 0 1 642.1875,821.8018 L189.0625,821.8018 A4.6875,4.6875 0 0 1 184.375,817.1143 L184.375,665.5518 A4.6875,4.6875 0 0 1 189.0625,660.8643 " fill="#11141A" style="stroke: #F0A456; stroke-width: 2.34375;"/><line style="stroke: #F0A456; stroke-width: 2.34375;" x1="184.375" x2="450" y1="695.7031" y2="695.7031"/><text fill="#F0A456" font-family="Inter, ui-sans-serif, system-ui, -apple-system, sans-serif" font-size="21.875" font-weight="bold" lengthAdjust="spacingAndGlyphs" textLength="245.3125" x="190.625" y="684.2941">ProjectManagement</text><!--MD5=[3b25e35f2e3ba053efeea014dc4b30a7]
cluster TM--><path d="M373.4375,949.9268 L589.0625,949.9268 A7.0313,7.0313 0 0 1 593.75,954.6143 L604.6875,984.7656 L1196.875,984.7656 A4.6875,4.6875 0 0 1 1201.5625,989.4531 L1201.5625,1106.1768 A4.6875,4.6875 0 0 1 1196.875,1110.8643 L373.4375,1110.8643 A4.6875,4.6875 0 0 1 368.75,1106.1768 L368.75,954.6143 A4.6875,4.6875 0 0 1 373.4375,949.9268 " fill="#11141A" style="stroke: #F0A456; stroke-width: 2.34375;"/><line style="stroke: #F0A456; stroke-width: 2.34375;" x1="368.75" x2="604.6875" y1="984.7656" y2="984.7656"/><text fill="#F0A456" font-family="Inter, ui-sans-serif, system-ui, -apple-system, sans-serif" font-size="21.875" font-weight="bold" lengthAdjust="spacingAndGlyphs" textLength="215.625" x="375" y="973.3566">TaskManagement</text><!--MD5=[d2c1ce4f639649eef62d1dc2a39d48e6]
cluster CM--><path d="M259.375,1213.9893 L534.375,1213.9893 A7.0313,7.0313 0 0 1 539.0625,1218.6768 L550,1248.8281 L550,1248.8281 A4.6875,4.6875 0 0 1 554.6875,1253.5156 L554.6875,1370.2393 A4.6875,4.6875 0 0 1 550,1374.9268 L259.375,1374.9268 A4.6875,4.6875 0 0 1 254.6875,1370.2393 L254.6875,1218.6768 A4.6875,4.6875 0 0 1 259.375,1213.9893 " fill="#11141A" style="stroke: #F0A456; stroke-width: 2.34375;"/><line style="stroke: #F0A456; stroke-width: 2.34375;" x1="254.6875" x2="550" y1="1248.8281" y2="1248.8281"/><text fill="#F0A456" font-family="Inter, ui-sans-serif, system-ui, -apple-system, sans-serif" font-size="21.875" font-weight="bold" lengthAdjust="spacingAndGlyphs" textLength="275" x="260.9375" y="1237.4191">CommentManagement</text><!--MD5=[93403806442a7d9d9ce8b6901d1d0269]
cluster AT--><path d="M225,1478.0518 L421.875,1478.0518 A7.0313,7.0313 0 0 1 426.5625,1482.7393 L437.5,1512.8906 L437.5,1512.8906 A4.6875,4.6875 0 0 1 442.1875,1517.5781 L442.1875,1634.3018 A4.6875,4.6875 0 0 1 437.5,1638.9893 L225,1638.9893 A4.6875,4.6875 0 0 1 220.3125,1634.3018 L220.3125,1482.7393 A4.6875,4.6875 0 0 1 225,1478.0518 " fill="#11141A" style="stroke: #F0A456; stroke-width: 2.34375;"/><line style="stroke: #F0A456; stroke-width: 2.34375;" x1="220.3125" x2="437.5" y1="1512.8906" y2="1512.8906"/><text fill="#F0A456" font-family="Inter, ui-sans-serif, system-ui, -apple-system, sans-serif" font-size="21.875" font-weight="bold" lengthAdjust="spacingAndGlyphs" textLength="196.875" x="226.5625" y="1501.4816">ActivityTracking</text><!--MD5=[ff646fc64078a551774b84711c519946]
entity IDS--><rect fill="#161A22" height="107.6416" rx="4.6875" ry="4.6875" style="stroke: #3D424E; stroke-width: 2.34375;" width="125" x="601.5625" y="174.9268"/><text fill="#E6E8EC" font-family="Inter, ui-sans-serif, system-ui, -apple-system, sans-serif" font-size="21.875" lengthAdjust="spacingAndGlyphs" textLength="68.75" x="629.6875" y="210.8566">UserId</text><text fill="#E6E8EC" font-family="Inter, ui-sans-serif, system-ui, -apple-system, sans-serif" font-size="21.875" lengthAdjust="spacingAndGlyphs" textLength="93.75" x="617.1875" y="236.3205">ProjectId</text><text fill="#E6E8EC" font-family="Inter, ui-sans-serif, system-ui, -apple-system, sans-serif" font-size="21.875" lengthAdjust="spacingAndGlyphs" textLength="70.3125" x="628.9063" y="261.7844">TaskId</text><!--MD5=[fee662a292a0353a69bd162820bae93b]
entity User--><rect fill="#161A22" height="56.7139" rx="4.6875" ry="4.6875" style="stroke: #3D424E; stroke-width: 2.34375;" width="81.25" x="362.5" y="463.9893"/><rect fill="#161A22" height="7.8125" style="stroke: #3D424E; stroke-width: 2.34375;" width="15.625" x="354.6875" y="471.8018"/><rect fill="#161A22" height="7.8125" style="stroke: #3D424E; stroke-width: 2.34375;" width="15.625" x="354.6875" y="505.0781"/><text fill="#E6E8EC" font-family="Inter, ui-sans-serif, system-ui, -apple-system, sans-serif" font-size="21.875" lengthAdjust="spacingAndGlyphs" textLength="50" x="378.125" y="499.9191">User</text><!--MD5=[2761986561326581c43d55402af5f14e]
entity Authentication--><rect fill="#161A22" height="56.7139" rx="4.6875" ry="4.6875" style="stroke: #3D424E; stroke-width: 2.34375;" width="187.5" x="120.3125" y="463.9893"/><rect fill="#161A22" height="7.8125" style="stroke: #3D424E; stroke-width: 2.34375;" width="15.625" x="112.5" y="471.8018"/><rect fill="#161A22" height="7.8125" style="stroke: #3D424E; stroke-width: 2.34375;" width="15.625" x="112.5" y="505.0781"/><text fill="#E6E8EC" font-family="Inter, ui-sans-serif, system-ui, -apple-system, sans-serif" font-size="21.875" lengthAdjust="spacingAndGlyphs" textLength="156.25" x="135.9375" y="499.9191">Authentication</text><!--MD5=[34cc0eb5aecfe0c894d9c7cc8648c52a]
entity Project--><rect fill="#161A22" height="56.7139" rx="4.6875" ry="4.6875" style="stroke: #3D424E; stroke-width: 2.34375;" width="106.25" x="503.125" y="728.0518"/><rect fill="#161A22" height="7.8125" style="stroke: #3D424E; stroke-width: 2.34375;" width="15.625" x="495.3125" y="735.8643"/><rect fill="#161A22" height="7.8125" style="stroke: #3D424E; stroke-width: 2.34375;" width="15.625" x="495.3125" y="769.1406"/><text fill="#E6E8EC" font-family="Inter, ui-sans-serif, system-ui, -apple-system, sans-serif" font-size="21.875" lengthAdjust="spacingAndGlyphs" textLength="75" x="518.75" y="763.9816">Project</text><!--MD5=[187463c83efc7f5c3fd6074eb5bb539d]
entity ProjectMember--><rect fill="#161A22" height="56.7139" rx="4.6875" ry="4.6875" style="stroke: #3D424E; stroke-width: 2.34375;" width="195.3125" x="252.3438" y="728.0518"/><rect fill="#161A22" height="7.8125" style="stroke: #3D424E; stroke-width: 2.34375;" width="15.625" x="244.5313" y="735.8643"/><rect fill="#161A22" height="7.8125" style="stroke: #3D424E; stroke-width: 2.34375;" width="15.625" x="244.5313" y="769.1406"/><text fill="#E6E8EC" font-family="Inter, ui-sans-serif, system-ui, -apple-system, sans-serif" font-size="21.875" lengthAdjust="spacingAndGlyphs" textLength="164.0625" x="267.9688" y="763.9816">ProjectMember</text><!--MD5=[02dfb7668ae77f32608fe7ca41c26f80]
entity Task--><rect fill="#161A22" height="56.7139" rx="4.6875" ry="4.6875" style="stroke: #3D424E; stroke-width: 2.34375;" width="82.8125" x="1080.4688" y="1017.1143"/><rect fill="#161A22" height="7.8125" style="stroke: #3D424E; stroke-width: 2.34375;" width="15.625" x="1072.6563" y="1024.9268"/><rect fill="#161A22" height="7.8125" style="stroke: #3D424E; stroke-width: 2.34375;" width="15.625" x="1072.6563" y="1058.2031"/><text fill="#E6E8EC" font-family="Inter, ui-sans-serif, system-ui, -apple-system, sans-serif" font-size="21.875" lengthAdjust="spacingAndGlyphs" textLength="51.5625" x="1096.0938" y="1053.0441">Task</text><!--MD5=[59a366d50a4d1e8c34263f79be219fa7]
entity TaskAssignmentService--><rect fill="#161A22" height="56.7139" rx="4.6875" ry="4.6875" style="stroke: #3D424E; stroke-width: 2.34375;" width="289.0625" x="736.7188" y="1017.1143"/><rect fill="#161A22" height="7.8125" style="stroke: #3D424E; stroke-width: 2.34375;" width="15.625" x="728.9063" y="1024.9268"/><rect fill="#161A22" height="7.8125" style="stroke: #3D424E; stroke-width: 2.34375;" width="15.625" x="728.9063" y="1058.2031"/><text fill="#E6E8EC" font-family="Inter, ui-sans-serif, system-ui, -apple-system, sans-serif" font-size="21.875" lengthAdjust="spacingAndGlyphs" textLength="257.8125" x="752.3438" y="1053.0441">TaskAssignmentService</text><!--MD5=[7b283ce894c5928581d5380ce71c9d62]
entity PC--><rect fill="#161A22" height="56.7139" rx="4.6875" ry="4.6875" style="stroke: #3D424E; stroke-width: 2.34375;" width="246.875" x="435.9375" y="1017.1143"/><rect fill="#161A22" height="7.8125" style="stroke: #3D424E; stroke-width: 2.34375;" width="15.625" x="428.125" y="1024.9268"/><rect fill="#161A22" height="7.8125" style="stroke: #3D424E; stroke-width: 2.34375;" width="15.625" x="428.125" y="1058.2031"/><text fill="#E6E8EC" font-family="Inter, ui-sans-serif, system-ui, -apple-system, sans-serif" font-size="21.875" lengthAdjust="spacingAndGlyphs" textLength="215.625" x="451.5625" y="1053.0441">ProjectChecker port</text><!--MD5=[e42bc29aa597275add56e6b7785ba286]
entity Comment--><rect fill="#161A22" height="56.7139" rx="4.6875" ry="4.6875" style="stroke: #3D424E; stroke-width: 2.34375;" width="137.5" x="368.75" y="1281.1768"/><rect fill="#161A22" height="7.8125" style="stroke: #3D424E; stroke-width: 2.34375;" width="15.625" x="360.9375" y="1288.9893"/><rect fill="#161A22" height="7.8125" style="stroke: #3D424E; stroke-width: 2.34375;" width="15.625" x="360.9375" y="1322.2656"/><text fill="#E6E8EC" font-family="Inter, ui-sans-serif, system-ui, -apple-system, sans-serif" font-size="21.875" lengthAdjust="spacingAndGlyphs" textLength="106.25" x="384.375" y="1317.1066">Comment</text><!--MD5=[5b3a193a3a54d87cb7ba13f72d1f29c8]
entity Activity--><rect fill="#161A22" height="56.7139" rx="4.6875" ry="4.6875" style="stroke: #3D424E; stroke-width: 2.34375;" width="104.6875" x="296.0938" y="1545.2393"/><rect fill="#161A22" height="7.8125" style="stroke: #3D424E; stroke-width: 2.34375;" width="15.625" x="288.2813" y="1553.0518"/><rect fill="#161A22" height="7.8125" style="stroke: #3D424E; stroke-width: 2.34375;" width="15.625" x="288.2813" y="1586.3281"/><text fill="#E6E8EC" font-family="Inter, ui-sans-serif, system-ui, -apple-system, sans-serif" font-size="21.875" lengthAdjust="spacingAndGlyphs" textLength="73.4375" x="311.7188" y="1581.1691">Activity</text><!--MD5=[6ed1859c4f668885ba6c943421b1c320]
link UM to PM--><path d="M85.2141,557.9064 C85.2706,558.0602 85.3272,558.214 85.3839,558.3678 C85.4973,558.6755 85.611,558.9831 85.7251,559.2908 C85.9534,559.906 86.1831,560.5211 86.4142,561.1359 C87.3388,563.5951 88.2864,566.0489 89.2554,568.4831 C91.1934,573.3516 93.2168,578.1416 95.3125,582.7393 C113.1406,621.8486 137.5273,663.3955 157.9355,695.8428 C168.1396,712.0664 177.3491,726.0151 184.2468,736.2468 " fill="none" id="UM-PM" style="stroke: #F0A456; stroke-width: 3.125;"/><text fill="#E6E8EC" font-family="Inter, ui-sans-serif, system-ui, -apple-system, sans-serif" font-size="21.875" lengthAdjust="spacingAndGlyphs" textLength="123.4375" x="117.1875" y="617.1066">Partnership</text><!--MD5=[b3a2392a4620742cb05e46822688dce9]
link PM to TM--><path d="M215.536,821.8758 C216.0034,823.0983 216.4791,824.32 216.9631,825.5391 C217.9311,827.9773 218.9323,830.4051 219.9664,832.8078 C222.0347,837.613 224.2344,842.3174 226.5625,846.8018 C251.7969,895.4111 289.6641,943.8643 321.6152,980.5381 C337.5908,998.875 352.0874,1014.2671 362.7864,1025.2615 C364.1237,1026.6358 365.4018,1027.9414 366.616,1029.1754 C367.223,1029.7924 367.8142,1030.3915 368.3887,1030.9724 " fill="none" id="PM-&gt;TM" style="stroke: #F0A456; stroke-width: 3.125;"/><polygon fill="#F0A456" points="368.3887,1030.9724,362.9429,1016.5794,362.8947,1025.4181,354.056,1025.3699,368.3887,1030.9724" style="stroke: #F0A456; stroke-width: 3.125;"/><text fill="#E6E8EC" font-family="Inter, ui-sans-serif, system-ui, -apple-system, sans-serif" font-size="21.875" lengthAdjust="spacingAndGlyphs" textLength="214.0625" x="267.1875" y="893.6691">Customer / Supplier</text><!--MD5=[23d6e82b54354c2d36018fadccdb55dc]
link TM to CM--><path d="M368.4724,1092.1979 C368.2555,1092.9682 368.0367,1093.7456 367.816,1094.5297 C367.3745,1096.098 366.9254,1097.6934 366.4692,1099.3142 C365.5567,1102.5557 364.6157,1105.8986 363.6503,1109.3284 C361.7195,1116.1879 359.6908,1123.395 357.5971,1130.8336 C353.4095,1145.7109 348.9614,1161.5146 344.5137,1177.3174 C342.2898,1185.2188 340.066,1193.1199 337.8749,1200.9048 C336.7794,1204.7973 335.692,1208.6607 334.6169,1212.4807 C334.4825,1212.9581 334.3483,1213.435 334.2144,1213.911 " fill="none" id="TM-&gt;CM" style="stroke: #F0A456; stroke-width: 3.125;"/><polygon fill="#F0A456" points="334.2144,1213.911,344.0404,1202.0677,336.3309,1206.3907,332.0079,1198.6812,334.2144,1213.911" style="stroke: #F0A456; stroke-width: 3.125;"/><text fill="#E6E8EC" font-family="Inter, ui-sans-serif, system-ui, -apple-system, sans-serif" font-size="21.875" lengthAdjust="spacingAndGlyphs" textLength="214.0625" x="351.5625" y="1170.2316">Customer / Supplier</text><!--MD5=[8938194733074168db88da4d72c9cee4]
link PM to PC--><path d="M207.7028,821.8585 C207.7678,822.0031 207.8332,822.1475 207.899,822.2917 C208.0306,822.5802 208.1637,822.8679 208.2983,823.1548 C212.6074,832.3359 218.5039,840.7041 226.5625,846.8018 C274.2344,882.8799 447.4062,823.5361 495.3125,859.3018 C542.1563,894.2705 554.9531,965.833 558.3281,1008.7861 " fill="none" id="PM-&gt;PC" style="stroke: #F0A456; stroke-width: 3.125; stroke-dasharray: 7.0,7.0;"/><polygon fill="#F0A456" points="558.875,1016.9736,564.1867,1002.5306,558.3613,1009.178,551.7138,1003.3526,558.875,1016.9736" style="stroke: #F0A456; stroke-width: 3.125;"/><text fill="#E6E8EC" font-family="Inter, ui-sans-serif, system-ui, -apple-system, sans-serif" font-size="21.875" lengthAdjust="spacingAndGlyphs" textLength="40.625" x="572.6563" y="881.1691">ACL</text><text fill="#E6E8EC" font-family="Inter, ui-sans-serif, system-ui, -apple-system, sans-serif" font-size="21.875" lengthAdjust="spacingAndGlyphs" textLength="114.0625" x="535.9375" y="906.633">(přes port)</text><!--MD5=[d8c9bc6368f7d8df0edb3dea69a49c4e]
link UM to AT--><path d="M52.9912,530.1629 C52.901,530.4422 52.8105,530.7229 52.7197,531.0048 C52.538,531.5687 52.3552,532.138 52.1712,532.7124 C50.6994,537.3082 49.1544,542.2396 47.5616,547.4678 C44.3762,557.9242 41,569.5679 37.6367,582.0889 C24.1836,632.1729 10.9375,696.2939 10.9375,754.6143 C10.9375,754.6143 10.9375,754.6143 10.9375,1310.8643 C10.9375,1386.458 65.8203,1450.8525 121.5605,1496.7588 C149.4307,1519.7119 177.5151,1538.043 199.0608,1550.8408 C204.4472,1554.0403 209.4249,1556.8939 213.8885,1559.3875 C216.1203,1560.6343 218.2235,1561.7911 220.185,1562.856 " fill="none" id="UM-&gt;AT" style="stroke: #A6ADBB; stroke-width: 2.34375; stroke-dasharray: 7.0,7.0;"/><polygon fill="#A6ADBB" points="220.185,1562.856,210.8087,1550.6535,213.3192,1559.1283,204.8443,1561.6387,220.185,1562.856" style="stroke: #A6ADBB; stroke-width: 2.34375;"/><text fill="#E6E8EC" font-family="Inter, ui-sans-serif, system-ui, -apple-system, sans-serif" font-size="21.875" lengthAdjust="spacingAndGlyphs" textLength="92.1875" x="12.5" y="1053.0441">OHS / PL</text><!--MD5=[b92127172a6bd2501e94b0bda9b6d32a]
link PM to AT--><path d="M200.1025,822.5163 C200.1472,823.4127 200.1924,824.3171 200.2379,825.2292 C200.42,828.8777 200.6084,832.6505 200.8026,836.5419 C201.5796,852.1073 202.4512,869.5687 203.3984,888.5466 C207.1875,964.4585 212.1875,1064.6367 217.1875,1164.8115 C222.1875,1264.9863 227.1875,1365.1577 230.9766,1441.0559 C231.4502,1450.5432 231.9049,1459.6512 232.3383,1468.3325 C232.4467,1470.5029 232.5537,1472.6465 232.6594,1474.7628 C232.7122,1475.8209 232.7647,1476.8722 232.8168,1477.9165 " fill="none" id="PM-&gt;AT" style="stroke: #A6ADBB; stroke-width: 2.34375; stroke-dasharray: 7.0,7.0;"/><polygon fill="#A6ADBB" points="232.8168,1477.9165,238.3578,1463.5599,232.4273,1470.1137,225.8734,1464.1832,232.8168,1477.9165" style="stroke: #A6ADBB; stroke-width: 2.34375;"/><text fill="#E6E8EC" font-family="Inter, ui-sans-serif, system-ui, -apple-system, sans-serif" font-size="21.875" lengthAdjust="spacingAndGlyphs" textLength="92.1875" x="218.75" y="1170.2316">OHS / PL</text><!--MD5=[86ef315945b9b55aeaa23abb5dc90211]
link TM to AT--><path d="M392.4228,1111.1632 C392.5538,1111.4523 392.6864,1111.7407 392.8206,1112.0283 C397.1123,1121.2324 402.9648,1129.6572 410.9375,1135.8643 C440.6094,1158.958 554.0938,1120.8174 579.6875,1148.3643 C631.0156,1203.6455 881.2969,1028.5518 531.25,1399.9268 C485.25,1448.7236 451.7813,1427.8799 385.9375,1440.5518 C360.5625,1445.4424 290,1436.3174 270.3125,1453.0518 C265.2598,1457.3467 260.9497,1462.3428 257.2765,1467.8073 C255.4399,1470.5395 253.7626,1473.3888 252.2312,1476.3262 C252.0397,1476.6933 251.8506,1477.0619 251.6637,1477.4317 C251.5703,1477.6167 251.4774,1477.8019 251.3851,1477.9875 " fill="none" id="TM-&gt;AT" style="stroke: #A6ADBB; stroke-width: 2.34375; stroke-dasharray: 7.0,7.0;"/><polygon fill="#A6ADBB" points="251.3851,1477.9875,263.2442,1468.1805,254.8647,1470.9927,252.0525,1462.6131,251.3851,1477.9875" style="stroke: #A6ADBB; stroke-width: 2.34375;"/><text fill="#E6E8EC" font-family="Inter, ui-sans-serif, system-ui, -apple-system, sans-serif" font-size="21.875" lengthAdjust="spacingAndGlyphs" textLength="92.1875" x="706.25" y="1317.1066">OHS / PL</text><!--MD5=[588dabf80f6f1cdc795a818677b34fe8]
link CM to AT--><path d="M290.2696,1375.9792 C290.0357,1376.8473 289.8004,1377.7206 289.5637,1378.5989 C289.0903,1380.3554 288.6116,1382.1318 288.128,1383.9263 C287.1608,1387.5154 286.174,1391.1768 285.1717,1394.8961 C281.1624,1409.7734 276.9033,1425.5771 272.6445,1441.3799 C270.5151,1449.2813 268.3858,1457.1824 266.2878,1464.9673 C265.2388,1468.8598 264.1976,1472.7232 263.1681,1476.5432 C263.0394,1477.0206 262.9109,1477.4975 262.7826,1477.9735 " fill="none" id="CM-&gt;AT" style="stroke: #A6ADBB; stroke-width: 2.34375; stroke-dasharray: 7.0,7.0;"/><polygon fill="#A6ADBB" points="262.7826,1477.9735,272.4766,1466.0218,264.8155,1470.4302,260.4072,1462.7692,262.7826,1477.9735" style="stroke: #A6ADBB; stroke-width: 2.34375;"/><text fill="#E6E8EC" font-family="Inter, ui-sans-serif, system-ui, -apple-system, sans-serif" font-size="21.875" lengthAdjust="spacingAndGlyphs" textLength="92.1875" x="279.6875" y="1434.2941">OHS / PL</text><!--MD5=[0f783d2e6683d33209403c6a429f2362]
link SK to UM--><path d="M533.7476,230.1899 C532.6922,230.1872 531.5777,230.1868 530.406,230.1895 C521.0325,230.2111 507.9943,230.4271 492.1672,231.1658 C460.5132,232.6431 417.7041,236.2109 370.748,244.4951 C276.8359,261.0635 166.3359,296.4971 95.3125,371.8018 C90.793,376.5947 86.9326,381.9683 83.6381,387.7115 C81.9908,390.5831 80.485,393.5471 79.109,396.5771 " fill="none" id="SK-UM" style="stroke: #A6ADBB; stroke-width: 2.34375; stroke-dasharray: 7.0,7.0;"/><!--MD5=[ddbca48608aeb969e26b5678708ad044]
link SK to PM--><path d="M552.0949,320.3222 C552.0915,320.8305 552.0875,321.3401 552.083,321.8512 C552.0649,323.8953 552.0378,325.9615 552.0008,328.0483 C551.927,332.222 551.8142,336.4785 551.657,340.8071 C551.3426,349.4644 550.8508,358.4102 550.1387,367.5596 C544.4414,440.7549 524.6406,526.9814 468.75,582.7393 C449.25,602.1924 246.3281,616.6611 226.5625,635.8643 C221.8379,640.4541 217.8223,645.6736 214.4132,651.3029 C212.7086,654.1176 211.1557,657.0347 209.7416,660.0268 C209.6533,660.2138 209.5654,660.4011 209.4781,660.5887 " fill="none" id="SK-PM" style="stroke: #A6ADBB; stroke-width: 2.34375; stroke-dasharray: 7.0,7.0;"/><!--MD5=[34e7e14831762ae13bca8aef38a28719]
link SK to TM--><path d="M564.6067,320.5625 C564.6807,320.7544 564.755,320.9461 564.8295,321.1378 C565.1278,321.9043 565.4311,322.6688 565.7393,323.4308 C566.3557,324.9549 566.992,326.4693 567.649,327.9714 C570.2769,333.98 573.2344,339.792 576.5625,345.2393 C580.9219,352.3799 586.6094,350.3955 590.625,357.7393 C709.875,575.958 835.5156,732.3018 664.0625,912.4268 C644.6406,932.8174 432.7031,907.0518 410.9375,924.9268 C405.8457,929.1084 401.5518,934.0186 397.9371,939.4195 C396.1298,942.1199 394.4923,944.9431 393.0098,947.8592 C392.8245,948.2237 392.6416,948.5897 392.4611,948.957 C392.3708,949.1407 392.2812,949.3247 392.1921,949.5091 " fill="none" id="SK-TM" style="stroke: #A6ADBB; stroke-width: 2.34375; stroke-dasharray: 7.0,7.0;"/><rect fill="#161A22" height="149.1943" rx="7.8125" ry="7.8125" style="stroke: #3D424E; stroke-width: 1.5625;" width="1242.1875" x="12.5" y="1704.6143"/><text fill="#A6ADBB" font-family="Inter, ui-sans-serif, system-ui, -apple-system, sans-serif" font-size="21.875" font-weight="bold" lengthAdjust="spacingAndGlyphs" textLength="70.3125" x="29.6875" y="1735.8566">Vztah</text><text fill="#A6ADBB" font-family="Inter, ui-sans-serif, system-ui, -apple-system, sans-serif" font-size="21.875" font-weight="bold" lengthAdjust="spacingAndGlyphs" textLength="96.875" x="256.25" y="1735.8566">Význam</text><text fill="#A6ADBB" font-family="Inter, ui-sans-serif, system-ui, -apple-system, sans-serif" font-size="21.875" lengthAdjust="spacingAndGlyphs" textLength="123.4375" x="28.125" y="1761.3205">Partnership</text><text fill="#A6ADBB" font-family="Inter, ui-sans-serif, system-ui, -apple-system, sans-serif" font-size="21.875" lengthAdjust="spacingAndGlyphs" textLength="525" x="254.6875" y="1761.3205">Oba kontexty mají vliv na společný model členství</text><text fill="#A6ADBB" font-family="Inter, ui-sans-serif, system-ui, -apple-system, sans-serif" font-size="21.875" lengthAdjust="spacingAndGlyphs" textLength="214.0625" x="28.125" y="1786.7844">Customer / Supplier</text><text fill="#A6ADBB" font-family="Inter, ui-sans-serif, system-ui, -apple-system, sans-serif" font-size="21.875" lengthAdjust="spacingAndGlyphs" textLength="600" x="254.6875" y="1786.7844">Upstream určuje kontrakt, downstream se přizpůsobuje</text><text fill="#A6ADBB" font-family="Inter, ui-sans-serif, system-ui, -apple-system, sans-serif" font-size="21.875" lengthAdjust="spacingAndGlyphs" textLength="92.1875" x="28.125" y="1812.2482">OHS / PL</text><text fill="#A6ADBB" font-family="Inter, ui-sans-serif, system-ui, -apple-system, sans-serif" font-size="21.875" lengthAdjust="spacingAndGlyphs" textLength="984.375" x="254.6875" y="1812.2482">Open Host Service + Published Language (publikuje události pro libovolného downstreama)</text><text fill="#A6ADBB" font-family="Inter, ui-sans-serif, system-ui, -apple-system, sans-serif" font-size="21.875" lengthAdjust="spacingAndGlyphs" textLength="40.625" x="28.125" y="1837.7121">ACL</text><text fill="#A6ADBB" font-family="Inter, ui-sans-serif, system-ui, -apple-system, sans-serif" font-size="21.875" lengthAdjust="spacingAndGlyphs" textLength="737.5" x="254.6875" y="1837.7121">Anti-Corruption Layer (port chrání lokální model před cizími koncepty)</text><line style="stroke: #A6ADBB; stroke-width: 1.5625;" x1="21.875" x2="1245.3125" y1="1715.5518" y2="1715.5518"/><line style="stroke: #A6ADBB; stroke-width: 1.5625;" x1="21.875" x2="1245.3125" y1="1741.0156" y2="1741.0156"/><line style="stroke: #A6ADBB; stroke-width: 1.5625;" x1="21.875" x2="1245.3125" y1="1766.4795" y2="1766.4795"/><line style="stroke: #A6ADBB; stroke-width: 1.5625;" x1="21.875" x2="1245.3125" y1="1791.9434" y2="1791.9434"/><line style="stroke: #A6ADBB; stroke-width: 1.5625;" x1="21.875" x2="1245.3125" y1="1817.4072" y2="1817.4072"/><line style="stroke: #A6ADBB; stroke-width: 1.5625;" x1="21.875" x2="1245.3125" y1="1842.8711" y2="1842.8711"/><line style="stroke: #A6ADBB; stroke-width: 1.5625;" x1="21.875" x2="21.875" y1="1715.5518" y2="1842.8711"/><line style="stroke: #A6ADBB; stroke-width: 1.5625;" x1="248.4375" x2="248.4375" y1="1715.5518" y2="1842.8711"/><line style="stroke: #A6ADBB; stroke-width: 1.5625;" x1="1245.3125" x2="1245.3125" y1="1715.5518" y2="1842.8711"/><!--MD5=[8a15e539d7d2b9fc3ff8b2689a93879c]
@startuml context_map
skinparam dpi 150
skinparam backgroundColor #11141A
skinparam shadowing false
skinparam roundCorner 6

skinparam defaultFontName "DejaVu Sans"
skinparam defaultFontSize 14
skinparam defaultFontColor #E6E8EC
skinparam defaultTextAlignment center


skinparam ArrowColor #F0A456
skinparam ArrowFontColor #E6E8EC
skinparam ArrowThickness 1.5

skinparam node {
  BackgroundColor #161A22
  BorderColor #3D424E
  FontColor #E6E8EC
}

skinparam component {
  BackgroundColor #161A22
  BorderColor #3D424E
  FontColor #E6E8EC
}

skinparam rectangle {
  BackgroundColor #161A22
  BorderColor #3D424E
  FontColor #E6E8EC
}

skinparam package {
  BackgroundColor #11141A
  BorderColor #F0A456
  FontColor #F0A456
}

skinparam folder {
  BackgroundColor #161A22
  BorderColor #3D424E
  FontColor #E6E8EC
}

skinparam frame {
  BackgroundColor #161A22
  BorderColor #3D424E
  FontColor #E6E8EC
}

skinparam database {
  BackgroundColor #1B202A
  BorderColor #3D424E
  FontColor #E6E8EC
}

skinparam queue {
  BackgroundColor #1B202A
  BorderColor #3D424E
  FontColor #E6E8EC
}

skinparam cloud {
  BackgroundColor #1B202A
  BorderColor #3D424E
  FontColor #E6E8EC
}

skinparam actor {
  BackgroundColor #161A22
  BorderColor #F0A456
  FontColor #E6E8EC
}

skinparam usecase {
  BackgroundColor #161A22
  BorderColor #3D424E
  FontColor #E6E8EC
}

skinparam class {
  BackgroundColor #161A22
  BorderColor #3D424E
  HeaderBackgroundColor #1B202A
  ArrowColor #F0A456
  FontColor #E6E8EC
  AttributeFontColor #A6ADBB
  StereotypeFontColor #F0A456
}

skinparam object {
  BackgroundColor #161A22
  BorderColor #3D424E
  FontColor #E6E8EC
}

skinparam sequence {
  ParticipantBackgroundColor #161A22
  ParticipantBorderColor #3D424E
  ParticipantFontColor #E6E8EC
  ActorBackgroundColor #161A22
  ActorBorderColor #F0A456
  ActorFontColor #E6E8EC
  LifeLineBorderColor #3D424E
  LifeLineBackgroundColor #1B202A
  ArrowColor #F0A456
  ArrowFontColor #E6E8EC
  GroupBackgroundColor #1B202A
  GroupBorderColor #3D424E
  GroupFontColor #A6ADBB
  GroupHeaderFontColor #F0A456
  BoxBackgroundColor #11141A
  BoxBorderColor #F0A456
  BoxFontColor #F0A456
  DividerBackgroundColor #1B202A
  DividerBorderColor #3D424E
  DividerFontColor #A6ADBB
  ReferenceBackgroundColor #161A22
  ReferenceBorderColor #3D424E
  ReferenceFontColor #E6E8EC
  ReferenceHeaderBackgroundColor #1B202A
  StereotypeFontColor #F0A456
}

skinparam state {
  BackgroundColor #161A22
  BorderColor #3D424E
  FontColor #E6E8EC
  StartColor #F0A456
  EndColor #F0A456
  ArrowColor #F0A456
  AttributeFontColor #A6ADBB
}

skinparam activity {
  BackgroundColor #161A22
  BorderColor #3D424E
  FontColor #E6E8EC
  ArrowColor #F0A456
  StartColor #F0A456
  EndColor #F0A456
  BarColor #F0A456
  DiamondBackgroundColor #1B202A
  DiamondBorderColor #3D424E
  DiamondFontColor #E6E8EC
}

skinparam note {
  BackgroundColor #1B202A
  BorderColor #3D424E
  FontColor #A6ADBB
}

skinparam title {
  FontColor #E6E8EC
  FontSize 18
}

skinparam legend {
  BackgroundColor #161A22
  BorderColor #3D424E
  FontColor #A6ADBB
}

skinparam caption {
  FontColor #A6ADBB
}

skinparam stereotype {
  CBackgroundColor #1B202A
  CBorderColor #F0A456
  ABackgroundColor #1B202A
  ABorderColor #F0A456
  IBackgroundColor #1B202A
  IBorderColor #F0A456
  EBackgroundColor #1B202A
  EBorderColor #F0A456
}

title Context Map: Systém pro správu projektů

package "Shared Kernel" as SK <<frame>> {
  rectangle "UserId\nProjectId\nTaskId" as IDS
}

package "UserManagement" as UM {
  [User]
  [Authentication]
}

package "ProjectManagement" as PM {
  [Project]
  [ProjectMember]
}

package "TaskManagement" as TM {
  [Task]
  [TaskAssignmentService]
  [ProjectChecker port] as PC
}

package "CommentManagement" as CM {
  [Comment]
}

package "ActivityTracking" as AT {
  [Activity]
}

UM -[thickness=2]- PM : "Partnership"
PM -[thickness=2]-> TM : "Customer / Supplier"
TM -[thickness=2]-> CM : "Customer / Supplier"

PM .[thickness=2,#F0A456].> PC : "ACL\n(přes port)"

UM .[#A6ADBB].> AT : "OHS / PL"
PM .[#A6ADBB].> AT : "OHS / PL"
TM .[#A6ADBB].> AT : "OHS / PL"
CM .[#A6ADBB].> AT : "OHS / PL"

SK -[#A6ADBB,dashed]- UM
SK -[#A6ADBB,dashed]- PM
SK -[#A6ADBB,dashed]- TM

legend right
  |= Vztah |= Význam |
  | Partnership | Oba kontexty mají vliv na společný model členství |
  | Customer / Supplier | Upstream určuje kontrakt, downstream se přizpůsobuje |
  | OHS / PL | Open Host Service + Published Language (publikuje události pro libovolného downstreama) |
  | ACL | Anti-Corruption Layer (port chrání lokální model před cizími koncepty) |
endlegend
@enduml

PlantUML version 1.2020.02(Sun Mar 01 11:22:07 CET 2020)
(GPL source distribution)
Java Runtime: OpenJDK Runtime Environment
JVM: OpenJDK 64-Bit Server VM
Java Version: 21.0.10+7-Debian-1deb13u1
Operating System: Linux
Default Encoding: UTF-8
Language: cs
Country: CZ
--></g></svg>