<?xml version="1.0" encoding="UTF-8" standalone="no"?><svg xmlns="http://www.w3.org/2000/svg" xmlns:xlink="http://www.w3.org/1999/xlink" contentScriptType="application/ecmascript" contentStyleType="text/css" height="914.0625px" preserveAspectRatio="none" style="width:1837px;height:914px;background:#FAFAFA;" version="1.1" viewBox="0 0 1837 914" width="1837.5px" zoomAndPan="magnify"><defs/><g><!--MD5=[01274792baeebd3c441234f33714d53c]
cluster E-shop--><polygon fill="#FAFAFA" points="34.375,37.5,137.5,37.5,148.4375,75.9766,1803.125,75.9766,1803.125,895.3125,34.375,895.3125,34.375,37.5" style="stroke: #005A9C; stroke-width: 2.34375;"/><line style="stroke: #005A9C; stroke-width: 2.34375;" x1="34.375" x2="148.4375" y1="75.9766" y2="75.9766"/><text fill="#000000" font-family="Nunito" font-size="25" font-weight="bold" lengthAdjust="spacingAndGlyphs" textLength="93.75" x="40.625" y="63.8306">E-shop</text><!--MD5=[5fbd86468cfbb2e78d0fb41bea2bd18d]
cluster Katalog zboží--><polygon fill="#FAFAFA" points="1357.8125,107.8125,1546.875,107.8125,1557.8125,146.2891,1765.625,146.2891,1765.625,698.4375,1357.8125,698.4375,1357.8125,107.8125" style="stroke: #005A9C; stroke-width: 2.34375;"/><line style="stroke: #005A9C; stroke-width: 2.34375;" x1="1357.8125" x2="1557.8125" y1="146.2891" y2="146.2891"/><text fill="#000000" font-family="Nunito" font-size="25" font-weight="bold" lengthAdjust="spacingAndGlyphs" textLength="179.6875" x="1364.0625" y="134.1431">Katalog zboží</text><!--MD5=[5e308cd5ecd788e3156f90c665007896]
cluster Objednávky--><polygon fill="#FAFAFA" points="546.875,329.6875,717.1875,329.6875,728.125,368.1641,1320.3125,368.1641,1320.3125,698.4375,546.875,698.4375,546.875,329.6875" style="stroke: #005A9C; stroke-width: 2.34375;"/><line style="stroke: #005A9C; stroke-width: 2.34375;" x1="546.875" x2="728.125" y1="368.1641" y2="368.1641"/><text fill="#000000" font-family="Nunito" font-size="25" font-weight="bold" lengthAdjust="spacingAndGlyphs" textLength="160.9375" x="553.125" y="356.0181">Objednávky</text><!--MD5=[c59dae85cf46f77792501348f4aff715]
cluster Zákazníci--><polygon fill="#FAFAFA" points="192.1875,107.8125,328.125,107.8125,339.0625,146.2891,509.375,146.2891,509.375,473.4375,192.1875,473.4375,192.1875,107.8125" style="stroke: #005A9C; stroke-width: 2.34375;"/><line style="stroke: #005A9C; stroke-width: 2.34375;" x1="192.1875" x2="339.0625" y1="146.2891" y2="146.2891"/><text fill="#000000" font-family="Nunito" font-size="25" font-weight="bold" lengthAdjust="spacingAndGlyphs" textLength="126.5625" x="198.4375" y="134.1431">Zákazníci</text><!--MD5=[4816ce9ca90fa336371462d7c0081a83]
cluster Fakturace--><polygon fill="#FAFAFA" points="71.875,554.6875,220.3125,554.6875,231.25,593.1641,509.375,593.1641,509.375,857.8125,71.875,857.8125,71.875,554.6875" style="stroke: #005A9C; stroke-width: 2.34375;"/><line style="stroke: #005A9C; stroke-width: 2.34375;" x1="71.875" x2="231.25" y1="593.1641" y2="593.1641"/><text fill="#000000" font-family="Nunito" font-size="25" font-weight="bold" lengthAdjust="spacingAndGlyphs" textLength="139.0625" x="78.125" y="581.0181">Fakturace</text><!--MD5=[b194b51e461be5a1d725dea85756763b]
entity KZ--><rect fill="#FFFFFF" height="60.3516" style="stroke: #005A9C; stroke-width: 3.125;" width="120.3125" x="1386.7188" y="165.625"/><rect fill="#FFFFFF" height="7.8125" style="stroke: #005A9C; stroke-width: 3.125;" width="15.625" x="1378.9063" y="173.4375"/><rect fill="#FFFFFF" height="7.8125" style="stroke: #005A9C; stroke-width: 3.125;" width="15.625" x="1378.9063" y="210.3516"/><text fill="#000000" font-family="Nunito" font-size="25" lengthAdjust="spacingAndGlyphs" textLength="89.0625" x="1402.3438" y="204.4556">Katalog</text><!--MD5=[626ad08abde0879284d52f51a0eb42aa]
entity P--><rect fill="#FFFFFF" height="60.3516" style="stroke: #005A9C; stroke-width: 3.125;" width="128.125" x="1382.8125" y="387.5"/><rect fill="#FFFFFF" height="7.8125" style="stroke: #005A9C; stroke-width: 3.125;" width="15.625" x="1375" y="395.3125"/><rect fill="#FFFFFF" height="7.8125" style="stroke: #005A9C; stroke-width: 3.125;" width="15.625" x="1375" y="432.2266"/><text fill="#000000" font-family="Nunito" font-size="25" lengthAdjust="spacingAndGlyphs" textLength="96.875" x="1398.4375" y="426.3306">Produkt</text><!--MD5=[5e3a54572c94ef26dc7725dc7faffc83]
entity K--><rect fill="#FFFFFF" height="60.3516" style="stroke: #005A9C; stroke-width: 3.125;" width="145.3125" x="1382.0313" y="612.5"/><rect fill="#FFFFFF" height="7.8125" style="stroke: #005A9C; stroke-width: 3.125;" width="15.625" x="1374.2188" y="620.3125"/><rect fill="#FFFFFF" height="7.8125" style="stroke: #005A9C; stroke-width: 3.125;" width="15.625" x="1374.2188" y="657.2266"/><text fill="#000000" font-family="Nunito" font-size="25" lengthAdjust="spacingAndGlyphs" textLength="114.0625" x="1397.6563" y="651.3306">Kategorie</text><!--MD5=[9c35c66068622dad62ecac52c54c307b]
entity V--><rect fill="#FFFFFF" height="60.3516" style="stroke: #005A9C; stroke-width: 3.125;" width="175" x="1565.625" y="387.5"/><rect fill="#FFFFFF" height="7.8125" style="stroke: #005A9C; stroke-width: 3.125;" width="15.625" x="1557.8125" y="395.3125"/><rect fill="#FFFFFF" height="7.8125" style="stroke: #005A9C; stroke-width: 3.125;" width="15.625" x="1557.8125" y="432.2266"/><text fill="#000000" font-family="Nunito" font-size="25" lengthAdjust="spacingAndGlyphs" textLength="143.75" x="1581.25" y="426.3306">Vyhledávání</text><!--MD5=[36e7cd95dd69b8fc9c44ee72248e17a6]
entity O--><rect fill="#FFFFFF" height="60.3516" style="stroke: #005A9C; stroke-width: 3.125;" width="173.4375" x="577.3438" y="387.5"/><rect fill="#FFFFFF" height="7.8125" style="stroke: #005A9C; stroke-width: 3.125;" width="15.625" x="569.5313" y="395.3125"/><rect fill="#FFFFFF" height="7.8125" style="stroke: #005A9C; stroke-width: 3.125;" width="15.625" x="569.5313" y="432.2266"/><text fill="#000000" font-family="Nunito" font-size="25" lengthAdjust="spacingAndGlyphs" textLength="142.1875" x="592.9688" y="426.3306">Objednávka</text><!--MD5=[69d8d45188bfd87ac85d18be3b70c704]
entity OP--><rect fill="#FFFFFF" height="60.3516" style="stroke: #005A9C; stroke-width: 3.125;" width="270.3125" x="1024.2188" y="612.5"/><rect fill="#FFFFFF" height="7.8125" style="stroke: #005A9C; stroke-width: 3.125;" width="15.625" x="1016.4063" y="620.3125"/><rect fill="#FFFFFF" height="7.8125" style="stroke: #005A9C; stroke-width: 3.125;" width="15.625" x="1016.4063" y="657.2266"/><text fill="#000000" font-family="Nunito" font-size="25" lengthAdjust="spacingAndGlyphs" textLength="239.0625" x="1039.8438" y="651.3306">Položka objednávky</text><!--MD5=[118f42602524ad482f02b27ef22fc383]
entity D--><rect fill="#FFFFFF" height="60.3516" style="stroke: #005A9C; stroke-width: 3.125;" width="134.375" x="571.875" y="612.5"/><rect fill="#FFFFFF" height="7.8125" style="stroke: #005A9C; stroke-width: 3.125;" width="15.625" x="564.0625" y="620.3125"/><rect fill="#FFFFFF" height="7.8125" style="stroke: #005A9C; stroke-width: 3.125;" width="15.625" x="564.0625" y="657.2266"/><text fill="#000000" font-family="Nunito" font-size="25" lengthAdjust="spacingAndGlyphs" textLength="103.125" x="587.5" y="651.3306">Doprava</text><!--MD5=[82938215ffa17339289e6d1ab32e6364]
entity Z--><rect fill="#FFFFFF" height="60.3516" style="stroke: #005A9C; stroke-width: 3.125;" width="207.8125" x="761.7188" y="612.5"/><rect fill="#FFFFFF" height="7.8125" style="stroke: #005A9C; stroke-width: 3.125;" width="15.625" x="753.9063" y="620.3125"/><rect fill="#FFFFFF" height="7.8125" style="stroke: #005A9C; stroke-width: 3.125;" width="15.625" x="753.9063" y="657.2266"/><text fill="#000000" font-family="Nunito" font-size="25" lengthAdjust="spacingAndGlyphs" textLength="176.5625" x="777.3438" y="651.3306">Způsob platby</text><!--MD5=[36ef3a8f09874c0be5beaacf173b5239]
entity ZA--><rect fill="#FFFFFF" height="60.3516" style="stroke: #005A9C; stroke-width: 3.125;" width="140.625" x="343.75" y="165.625"/><rect fill="#FFFFFF" height="7.8125" style="stroke: #005A9C; stroke-width: 3.125;" width="15.625" x="335.9375" y="173.4375"/><rect fill="#FFFFFF" height="7.8125" style="stroke: #005A9C; stroke-width: 3.125;" width="15.625" x="335.9375" y="210.3516"/><text fill="#000000" font-family="Nunito" font-size="25" lengthAdjust="spacingAndGlyphs" textLength="109.375" x="359.375" y="204.4556">Zákazník</text><!--MD5=[770389ab9df153645bc6ef28055eb2b5]
entity A--><rect fill="#FFFFFF" height="60.3516" style="stroke: #005A9C; stroke-width: 3.125;" width="117.1875" x="216.4063" y="387.5"/><rect fill="#FFFFFF" height="7.8125" style="stroke: #005A9C; stroke-width: 3.125;" width="15.625" x="208.5938" y="395.3125"/><rect fill="#FFFFFF" height="7.8125" style="stroke: #005A9C; stroke-width: 3.125;" width="15.625" x="208.5938" y="432.2266"/><text fill="#000000" font-family="Nunito" font-size="25" lengthAdjust="spacingAndGlyphs" textLength="85.9375" x="232.0313" y="426.3306">Adresa</text><!--MD5=[6a4401a12de1030cb5e222f8b7d2d3ed]
entity KO--><rect fill="#FFFFFF" height="60.3516" style="stroke: #005A9C; stroke-width: 3.125;" width="95.3125" x="388.2813" y="387.5"/><rect fill="#FFFFFF" height="7.8125" style="stroke: #005A9C; stroke-width: 3.125;" width="15.625" x="380.4688" y="395.3125"/><rect fill="#FFFFFF" height="7.8125" style="stroke: #005A9C; stroke-width: 3.125;" width="15.625" x="380.4688" y="432.2266"/><text fill="#000000" font-family="Nunito" font-size="25" lengthAdjust="spacingAndGlyphs" textLength="64.0625" x="403.9063" y="426.3306">Košík</text><!--MD5=[22029b2902cbfefb11350e8ee6e306b3]
entity F--><rect fill="#FFFFFF" height="60.3516" style="stroke: #005A9C; stroke-width: 3.125;" width="123.4375" x="357.0313" y="612.5"/><rect fill="#FFFFFF" height="7.8125" style="stroke: #005A9C; stroke-width: 3.125;" width="15.625" x="349.2188" y="620.3125"/><rect fill="#FFFFFF" height="7.8125" style="stroke: #005A9C; stroke-width: 3.125;" width="15.625" x="349.2188" y="657.2266"/><text fill="#000000" font-family="Nunito" font-size="25" lengthAdjust="spacingAndGlyphs" textLength="92.1875" x="372.6563" y="651.3306">Faktura</text><!--MD5=[877d572b3faf713582ff96d0839c9d50]
entity FA--><rect fill="#FFFFFF" height="60.3516" style="stroke: #005A9C; stroke-width: 3.125;" width="248.4375" x="96.0938" y="771.875"/><rect fill="#FFFFFF" height="7.8125" style="stroke: #005A9C; stroke-width: 3.125;" width="15.625" x="88.2813" y="779.6875"/><rect fill="#FFFFFF" height="7.8125" style="stroke: #005A9C; stroke-width: 3.125;" width="15.625" x="88.2813" y="816.6016"/><text fill="#000000" font-family="Nunito" font-size="25" lengthAdjust="spacingAndGlyphs" textLength="217.1875" x="111.7188" y="810.7056">Fakturační adresa</text><!--MD5=[39a5f41ac71bde263965384495b375a1]
entity DPH--><rect fill="#FFFFFF" height="60.3516" style="stroke: #005A9C; stroke-width: 3.125;" width="84.375" x="400" y="771.875"/><rect fill="#FFFFFF" height="7.8125" style="stroke: #005A9C; stroke-width: 3.125;" width="15.625" x="392.1875" y="779.6875"/><rect fill="#FFFFFF" height="7.8125" style="stroke: #005A9C; stroke-width: 3.125;" width="15.625" x="392.1875" y="816.6016"/><text fill="#000000" font-family="Nunito" font-size="25" lengthAdjust="spacingAndGlyphs" textLength="53.125" x="415.625" y="810.7056">DPH</text><!--MD5=[de3f128a954ce63c8277ac618aa08dda]
link KZ to O--><path d="M1386.3125,206.0156 C1307.8594,217.5781 1167.2344,240.7656 1050,273.4375 C939.6406,304.1875 816.1406,352.5 739.2344,384.3125 " fill="none" id="KZ-&gt;O" style="stroke: #005A9C; stroke-width: 3.125;"/><polygon fill="#005A9C" points="731.9531,387.3437,747.3377,387.7043,739.1647,384.3389,742.53,376.1659,731.9531,387.3437" style="stroke: #005A9C; stroke-width: 3.125;"/><text fill="#000000" font-family="Nunito" font-size="25" lengthAdjust="spacingAndGlyphs" textLength="381.25" x="1051.5625" y="298.2056">Upstream / Downstream (OHS)</text><!--MD5=[b866983dcf2942beed82cfcb670c9522]
link ZA to O--><path d="M470.0469,226.6719 C492.5469,239.5625 518.0781,255.8125 539.0625,273.4375 C580.2188,308 619.6406,356.5156 642.8438,387.2031 " fill="none" id="ZA-O" style="stroke: #005A9C; stroke-width: 3.125;"/><text fill="#000000" font-family="Nunito" font-size="25" lengthAdjust="spacingAndGlyphs" textLength="140.625" x="570.3125" y="298.2056">Partnership</text><!--MD5=[b866983dcf2942beed82cfcb670c9522]
link ZA to O--><path d="M446.0938,226.9844 C469.875,248.625 503.1719,278.7188 532.8125,304.6875 C562.6875,330.8594 596.875,359.9375 622.8594,381.8594 " fill="none" id="ZA-&gt;O" style="stroke: #808080; stroke-width: 3.125; stroke-dasharray: 7.0,7.0;"/><polygon fill="#808080" points="629.2969,387.2656,622.5757,373.4221,623.3245,382.2292,614.5174,382.978,629.2969,387.2656" style="stroke: #808080; stroke-width: 3.125;"/><!--MD5=[68473bf1472f16a06ce027dd6e4e211d]
link O to F--><path d="M607.4531,448.5625 C578.7813,462.0313 542.9844,477.0156 509.375,485.9375 C485.7344,492.2188 416.2813,480.1875 400,498.4375 C374.3906,527.1406 386.2813,572.9063 399.8906,604.9063 " fill="none" id="O-&gt;F" style="stroke: #005A9C; stroke-width: 3.125;"/><polygon fill="#005A9C" points="403.1719,612.3125,403.1808,596.9237,400.0031,605.1715,391.7552,601.9938,403.1719,612.3125" style="stroke: #005A9C; stroke-width: 3.125;"/><text fill="#000000" font-family="Nunito" font-size="25" lengthAdjust="spacingAndGlyphs" textLength="240.625" x="401.5625" y="523.2056">Customer / Supplier</text><!--MD5=[68473bf1472f16a06ce027dd6e4e211d]
link O to F--><path d="M664.25,448.7344 C663.7656,477.4844 661.0781,518.6875 650,529.6875 C633.625,545.9531 568.2344,533.4219 546.875,542.1875 C511.125,556.875 476.8594,584.3594 452.7656,606.6875 " fill="none" id="O-&gt;F-1" style="stroke: #808080; stroke-width: 3.125; stroke-dasharray: 7.0,7.0;"/><polygon fill="#808080" points="446.8594,612.25,461.3938,607.1936,452.5596,606.9075,452.8457,598.0733,446.8594,612.25" style="stroke: #808080; stroke-width: 3.125;"/><!--MD5=[01df2a1d023f4d646790993594aa3144]
link KZ to P--><path d="M1446.875,226.7031 C1446.875,265.9219 1446.875,335.875 1446.875,378.9844 " fill="none" id="KZ-&gt;P" style="stroke: #005A9C; stroke-width: 3.125;"/><polygon fill="#005A9C" points="1446.875,387.2344,1453.125,373.1719,1446.875,379.4219,1440.625,373.1719,1446.875,387.2344" style="stroke: #005A9C; stroke-width: 3.125;"/><!--MD5=[6455cc92569474d37d1a0ce850327d55]
link P to K--><path d="M1447.8906,448.5313 C1449.3125,488.5625 1451.8438,560.75 1453.3906,604.5625 " fill="none" id="P-&gt;K" style="stroke: #005A9C; stroke-width: 3.125;"/><polygon fill="#005A9C" points="1453.6719,612.3906,1459.3956,598.1058,1453.3819,604.5835,1446.9042,598.5698,1453.6719,612.3906" style="stroke: #005A9C; stroke-width: 3.125;"/><!--MD5=[14c4d5d9f6795d20bcc008473717de9e]
link KZ to V--><path d="M1474.2656,226.7031 C1511.8594,266.5781 1579.3906,338.2031 1619.8594,381.125 " fill="none" id="KZ-&gt;V" style="stroke: #005A9C; stroke-width: 3.125;"/><polygon fill="#005A9C" points="1625.625,387.2344,1620.5098,372.7205,1620.2594,381.5558,1611.4242,381.3054,1625.625,387.2344" style="stroke: #005A9C; stroke-width: 3.125;"/><!--MD5=[c2e3eaef6980d5cc4251956157bb6a09]
link O to OP--><path d="M751.4688,446.5469 C819.7344,468.875 916.2188,503.1719 996.875,542.1875 C1036.3281,561.2656 1078.4844,587.2031 1109.9844,607.7656 " fill="none" id="O-&gt;OP" style="stroke: #005A9C; stroke-width: 3.125;"/><polygon fill="#005A9C" points="1116.5313,612.0625,1108.2256,599.1075,1110.007,607.7649,1101.3495,609.5463,1116.5313,612.0625" style="stroke: #005A9C; stroke-width: 3.125;"/><!--MD5=[110e2b18f6feeaf5d1518e512f833703]
link O to D--><path d="M664.5469,448.6094 C664.5938,470.875 663.9844,502.3125 660.9375,529.6875 C658.1406,554.875 652.6563,582.875 647.875,604.5313 " fill="none" id="O-&gt;D" style="stroke: #005A9C; stroke-width: 3.125;"/><polygon fill="#005A9C" points="646.1563,612.2031,655.3424,599.8568,647.8722,604.5814,643.1477,597.1112,646.1563,612.2031" style="stroke: #005A9C; stroke-width: 3.125;"/><!--MD5=[71188557432cdf3f66bbb080f845f20c]
link O to Z--><path d="M690.4063,448.5313 C727.2344,489.0625 794,562.5625 833.625,606.1875 " fill="none" id="O-&gt;Z" style="stroke: #005A9C; stroke-width: 3.125;"/><polygon fill="#005A9C" points="839.2656,612.3906,834.414,597.7866,834.0037,606.6159,825.1744,606.2056,839.2656,612.3906" style="stroke: #005A9C; stroke-width: 3.125;"/><!--MD5=[8daddd1fc3bdb8342aa1f36042139867]
link ZA to A--><path d="M395.5938,226.7031 C370.3438,266.4219 325.0781,337.625 297.7656,380.5938 " fill="none" id="ZA-&gt;A" style="stroke: #005A9C; stroke-width: 3.125;"/><polygon fill="#005A9C" points="293.5469,387.2344,306.3621,378.7146,297.7354,380.6396,295.8105,372.0129,293.5469,387.2344" style="stroke: #005A9C; stroke-width: 3.125;"/><!--MD5=[ab291697d8ff686a631d74cc5741962a]
link ZA to KO--><path d="M416.9688,226.7031 C420.8906,265.9219 427.8906,335.875 432.2031,378.9844 " fill="none" id="ZA-&gt;KO" style="stroke: #005A9C; stroke-width: 3.125;"/><polygon fill="#005A9C" points="433.0156,387.2344,437.8312,372.6184,432.236,379.4609,425.3936,373.8657,433.0156,387.2344" style="stroke: #005A9C; stroke-width: 3.125;"/><!--MD5=[e201e4602381f452f3c6a44a7200caae]
link F to FA--><path d="M381.8906,673.5469 C348.5469,699.8125 299.4063,738.5 264.0781,766.3281 " fill="none" id="F-&gt;FA" style="stroke: #005A9C; stroke-width: 3.125;"/><polygon fill="#005A9C" points="257.6406,771.3906,272.5517,767.5859,263.7737,766.5511,264.8085,757.7731,257.6406,771.3906" style="stroke: #005A9C; stroke-width: 3.125;"/><!--MD5=[667622964ea0fa83cf8ef0e95fb6e983]
link F to DPH--><path d="M423.1563,673.9219 C426.9531,699.2344 432.4531,735.9219 436.5781,763.3281 " fill="none" id="F-&gt;DPH" style="stroke: #005A9C; stroke-width: 3.125;"/><polygon fill="#005A9C" points="437.7969,771.5313,441.8875,756.696,436.6358,763.8055,429.5263,758.5538,437.7969,771.5313" style="stroke: #005A9C; stroke-width: 3.125;"/><!--MD5=[1feb750d87c93a80f331f9655d6952f0]
link P to OP--><path d="M1409.2969,448.5313 C1356.3438,489.4063 1259.9844,563.7656 1203.6406,607.25 " fill="none" id="P-&gt;OP" style="stroke: #808080; stroke-width: 3.125; stroke-dasharray: 7.0,7.0;"/><polygon fill="#808080" points="1196.9688,612.3906,1211.9181,608.7392,1203.1512,607.6143,1204.276,598.8474,1196.9688,612.3906" style="stroke: #808080; stroke-width: 3.125;"/><!--MD5=[d89d2173419e4ba296a239707c87677a]
link A to FA--><path d="M270.7969,448.8125 C260.9844,517.2813 236.5156,687.7656 225.6562,763.5 " fill="none" id="A-&gt;FA" style="stroke: #808080; stroke-width: 3.125; stroke-dasharray: 7.0,7.0;"/><polygon fill="#808080" points="224.5312,771.4063,232.6913,758.3591,225.6267,763.6709,220.3148,756.6063,224.5312,771.4063" style="stroke: #808080; stroke-width: 3.125;"/><!--MD5=[be04cb97f39a695718da08935a263d49]
@startuml
skinparam dpi 150
skinparam backgroundColor #FAFAFA
skinparam shadowing false

skinparam defaultFontName "Nunito"
skinparam defaultFontSize 16
skinparam defaultTextAlignment center

skinparam node {
  BackgroundColor #FFFFFF
  BorderColor #005A9C
  BorderThickness 2
}

skinparam component {
  BackgroundColor #FFFFFF
  BorderColor #005A9C
  BorderThickness 2
}

skinparam rectangle {
  BackgroundColor #FFFFFF
  BorderColor #005A9C
  BorderThickness 2
}

skinparam arrowColor #005A9C
skinparam arrowThickness 2

skinparam activity {
  BackgroundColor #FFFFFF
  BorderColor #005A9C
}

skinparam sequence {
  ParticipantBorderColor #005A9C
  LifeLineBorderColor #005A9C
  LifeLineBackgroundColor #E6F0FA
  ParticipantBackgroundColor #FFFFFF
}

skinparam package {
  BackgroundColor #FAFAFA
  BorderColor #005A9C
}

skinparam note {
  BackgroundColor #E6F0FA
  BorderColor #005A9C
}

skinparam title {
  BackgroundColor #FFFFFF
  BorderColor #005A9C
}

skinparam sequenceArrowThickness 2
skinparam sequenceArrowColor #005A9C


package "E-shop" {
  package "Katalog zboží" {
    [Katalog] as KZ
    [Produkt] as P
    [Kategorie] as K
    [Vyhledávání] as V
  }
  
  package "Objednávky" {
    [Objednávka] as O
    [Položka objednávky] as OP
    [Doprava] as D
    [Způsob platby] as Z
  }
  
  package "Zákazníci" {
    [Zákazník] as ZA
    [Adresa] as A
    [Košík] as KO
  }
  
  package "Fakturace" {
    [Faktura] as F
    [Fakturační adresa] as FA
    [DPH] as DPH
  }
}

KZ -[thickness=2]-> O : "Upstream / Downstream (OHS)"
ZA -[thickness=2]- O : "Partnership"
O -[thickness=2]-> F : "Customer / Supplier"

KZ - -> P
P - -> K
KZ - -> V

O - -> OP
O - -> D
O - -> Z

ZA - -> A
ZA - -> KO

F - -> FA
F - -> DPH

P .[#gray].> OP
ZA .[#gray].> O
O .[#gray].> F
A .[#gray].> FA
@enduml

PlantUML version 1.2020.02(Sun Mar 01 11:22:07 CET 2020)
(GPL source distribution)
Java Runtime: OpenJDK Runtime Environment
JVM: OpenJDK 64-Bit Server VM
Java Version: 21.0.10+7-Debian-1deb13u1
Operating System: Linux
Default Encoding: UTF-8
Language: cs
Country: CZ
--></g></svg>