<?xml version="1.0" encoding="UTF-8" standalone="no"?><svg xmlns="http://www.w3.org/2000/svg" xmlns:xlink="http://www.w3.org/1999/xlink" contentScriptType="application/ecmascript" contentStyleType="text/css" height="1217.1875px" preserveAspectRatio="none" style="width:1210px;height:1217px;background:#11141A;" version="1.1" viewBox="0 0 1210 1217" width="1210.9375px" zoomAndPan="magnify"><defs/><g><text fill="#E6E8EC" font-family="Inter, ui-sans-serif, system-ui, -apple-system, sans-serif" font-size="28.125" lengthAdjust="spacingAndGlyphs" textLength="531.25" x="355.4688" y="26.1063">Hranice agregátu: Order vs. Customer</text><!--MD5=[4030a4b42a3c64338bd08be5816c8f6d]
cluster OrderAgg--><polygon fill="#11141A" points="46.875,110.8643,275,110.8643,285.9375,145.7031,710.9375,145.7031,710.9375,1199.9268,46.875,1199.9268,46.875,110.8643" style="stroke: #F0A456; stroke-width: 2.34375;"/><line style="stroke: #F0A456; stroke-width: 2.34375;" x1="46.875" x2="285.9375" y1="145.7031" y2="145.7031"/><text fill="#F0A456" font-family="Inter, ui-sans-serif, system-ui, -apple-system, sans-serif" font-size="21.875" font-weight="bold" lengthAdjust="spacingAndGlyphs" textLength="218.75" x="53.125" y="134.2941">Aggregate: Order</text><!--MD5=[3c9cc24e6b7031b8f9a55a634897ebe7]
cluster CustomerAgg--><polygon fill="#11141A" points="825,635.8643,1101.5625,635.8643,1112.5,670.7031,1176.5625,670.7031,1176.5625,907.7393,825,907.7393,825,635.8643" style="stroke: #F0A456; stroke-width: 2.34375;"/><line style="stroke: #F0A456; stroke-width: 2.34375;" x1="825" x2="1112.5" y1="670.7031" y2="670.7031"/><text fill="#F0A456" font-family="Inter, ui-sans-serif, system-ui, -apple-system, sans-serif" font-size="21.875" font-weight="bold" lengthAdjust="spacingAndGlyphs" textLength="267.1875" x="831.25" y="659.2941">Aggregate: Customer</text><!--MD5=[64182db0626e50dc9b6adb860ee06c04]
class OrderRoot--><rect fill="#161A22" height="295.2637" id="OrderRoot" rx="4.6875" ry="4.6875" style="stroke: #3D424E; stroke-width: 2.34375;" width="292.1875" x="382.0313" y="178.0518"/><ellipse cx="462.5" cy="211.3281" fill="#1B202A" rx="15.625" ry="15.625" style="stroke: #F0A456; stroke-width: 1.5625;"/><path d="M466.2354,218.6768 Q465.4785,219.0674 464.6484,219.2627 Q463.8428,219.458 462.9395,219.458 Q459.7168,219.458 458.0078,217.334 Q456.3232,215.21 456.3232,211.1816 Q456.3232,207.1533 458.0078,205.0293 Q459.7168,202.9053 462.9395,202.9053 Q463.8428,202.9053 464.6729,203.1006 Q465.5029,203.2959 466.2354,203.6621 L466.2354,207.1777 Q465.4297,206.4209 464.6484,206.0791 Q463.8916,205.7373 463.0859,205.7373 Q461.3525,205.7373 460.4736,207.1045 Q459.5947,208.4717 459.5947,211.1816 Q459.5947,213.8672 460.4736,215.2588 Q461.3525,216.626 463.0859,216.626 Q463.8916,216.626 464.6484,216.2842 Q465.4297,215.918 466.2354,215.1855 L466.2354,218.6768 Z "/><text fill="#E6E8EC" font-family="Inter, ui-sans-serif, system-ui, -apple-system, sans-serif" font-size="21.875" lengthAdjust="spacingAndGlyphs" textLength="118.75" x="492.1875" y="206.1691">&lt;&lt;root&gt;&gt;</text><text fill="#E6E8EC" font-family="Inter, ui-sans-serif, system-ui, -apple-system, sans-serif" font-size="21.875" lengthAdjust="spacingAndGlyphs" textLength="60.9375" x="521.0938" y="231.633">Order</text><line style="stroke: #3D424E; stroke-width: 2.34375;" x1="383.5938" x2="672.6563" y1="244.6045" y2="244.6045"/><ellipse cx="399.2188" cy="261.792" fill="none" rx="4.6875" ry="4.6875" style="stroke: #038048; stroke-width: 1.5625;"/><text fill="#A6ADBB" font-family="Inter, ui-sans-serif, system-ui, -apple-system, sans-serif" font-size="21.875" lengthAdjust="spacingAndGlyphs" textLength="104.6875" x="411.7188" y="271.1594">OrderId id</text><ellipse cx="399.2188" cy="287.2559" fill="none" rx="4.6875" ry="4.6875" style="stroke: #038048; stroke-width: 1.5625;"/><text fill="#A6ADBB" font-family="Inter, ui-sans-serif, system-ui, -apple-system, sans-serif" font-size="21.875" lengthAdjust="spacingAndGlyphs" textLength="253.125" x="411.7188" y="296.6232">CustomerId customerId</text><ellipse cx="399.2188" cy="312.7197" fill="none" rx="4.6875" ry="4.6875" style="stroke: #038048; stroke-width: 1.5625;"/><text fill="#A6ADBB" font-family="Inter, ui-sans-serif, system-ui, -apple-system, sans-serif" font-size="21.875" lengthAdjust="spacingAndGlyphs" textLength="203.125" x="411.7188" y="322.0871">OrderStatus status</text><ellipse cx="399.2188" cy="338.1836" fill="none" rx="4.6875" ry="4.6875" style="stroke: #038048; stroke-width: 1.5625;"/><text fill="#A6ADBB" font-family="Inter, ui-sans-serif, system-ui, -apple-system, sans-serif" font-size="21.875" lengthAdjust="spacingAndGlyphs" textLength="110.9375" x="411.7188" y="347.551">int version</text><line style="stroke: #3D424E; stroke-width: 1.5625;" x1="383.5938" x2="672.6563" y1="358.96" y2="358.96"/><ellipse cx="459.375" cy="376.1475" fill="#84BE84" rx="4.6875" ry="4.6875" style="stroke: #038048; stroke-width: 1.5625;"/><text fill="#A6ADBB" font-family="Inter, ui-sans-serif, system-ui, -apple-system, sans-serif" font-size="21.875" lengthAdjust="spacingAndGlyphs" textLength="132.8125" x="471.875" y="385.5148">place(items)</text><ellipse cx="459.375" cy="401.6113" fill="#84BE84" rx="4.6875" ry="4.6875" style="stroke: #038048; stroke-width: 1.5625;"/><text fill="#A6ADBB" font-family="Inter, ui-sans-serif, system-ui, -apple-system, sans-serif" font-size="21.875" lengthAdjust="spacingAndGlyphs" textLength="53.125" x="471.875" y="410.9787">pay()</text><ellipse cx="459.375" cy="427.0752" fill="#84BE84" rx="4.6875" ry="4.6875" style="stroke: #038048; stroke-width: 1.5625;"/><text fill="#A6ADBB" font-family="Inter, ui-sans-serif, system-ui, -apple-system, sans-serif" font-size="21.875" lengthAdjust="spacingAndGlyphs" textLength="60.9375" x="471.875" y="436.4426">ship()</text><ellipse cx="459.375" cy="452.5391" fill="#84BE84" rx="4.6875" ry="4.6875" style="stroke: #038048; stroke-width: 1.5625;"/><text fill="#A6ADBB" font-family="Inter, ui-sans-serif, system-ui, -apple-system, sans-serif" font-size="21.875" lengthAdjust="spacingAndGlyphs" textLength="85.9375" x="471.875" y="461.9064">cancel()</text><!--MD5=[003718b22fee2486eeba0fa029a176b7]
class OrderItem--><rect fill="#161A22" height="193.4082" id="OrderItem" rx="4.6875" ry="4.6875" style="stroke: #3D424E; stroke-width: 2.34375;" width="251.5625" x="97.6563" y="689.7705"/><ellipse cx="151.1719" cy="723.0469" fill="#1B202A" rx="15.625" ry="15.625" style="stroke: #F0A456; stroke-width: 1.5625;"/><path d="M154.9072,730.3955 Q154.1504,730.7861 153.3203,730.9814 Q152.5146,731.1768 151.6113,731.1768 Q148.3887,731.1768 146.6797,729.0527 Q144.9951,726.9287 144.9951,722.9004 Q144.9951,718.8721 146.6797,716.748 Q148.3887,714.624 151.6113,714.624 Q152.5146,714.624 153.3447,714.8193 Q154.1748,715.0146 154.9072,715.3809 L154.9072,718.8965 Q154.1016,718.1396 153.3203,717.7979 Q152.5635,717.4561 151.7578,717.4561 Q150.0244,717.4561 149.1455,718.8232 Q148.2666,720.1904 148.2666,722.9004 Q148.2666,725.5859 149.1455,726.9775 Q150.0244,728.3447 151.7578,728.3447 Q152.5635,728.3447 153.3203,728.0029 Q154.1016,727.6367 154.9072,726.9043 L154.9072,730.3955 Z "/><text fill="#E6E8EC" font-family="Inter, ui-sans-serif, system-ui, -apple-system, sans-serif" font-size="21.875" lengthAdjust="spacingAndGlyphs" textLength="134.375" x="178.5156" y="717.8879">&lt;&lt;entity&gt;&gt;</text><text fill="#E6E8EC" font-family="Inter, ui-sans-serif, system-ui, -apple-system, sans-serif" font-size="21.875" lengthAdjust="spacingAndGlyphs" textLength="107.8125" x="191.7969" y="743.3517">OrderItem</text><line style="stroke: #3D424E; stroke-width: 2.34375;" x1="99.2188" x2="347.6563" y1="756.3232" y2="756.3232"/><ellipse cx="114.8438" cy="773.5107" fill="none" rx="4.6875" ry="4.6875" style="stroke: #038048; stroke-width: 1.5625;"/><text fill="#A6ADBB" font-family="Inter, ui-sans-serif, system-ui, -apple-system, sans-serif" font-size="21.875" lengthAdjust="spacingAndGlyphs" textLength="151.5625" x="127.3438" y="782.8781">OrderItemId id</text><ellipse cx="114.8438" cy="798.9746" fill="none" rx="4.6875" ry="4.6875" style="stroke: #038048; stroke-width: 1.5625;"/><text fill="#A6ADBB" font-family="Inter, ui-sans-serif, system-ui, -apple-system, sans-serif" font-size="21.875" lengthAdjust="spacingAndGlyphs" textLength="212.5" x="127.3438" y="808.342">ProductId productId</text><ellipse cx="114.8438" cy="824.4385" fill="none" rx="4.6875" ry="4.6875" style="stroke: #038048; stroke-width: 1.5625;"/><text fill="#A6ADBB" font-family="Inter, ui-sans-serif, system-ui, -apple-system, sans-serif" font-size="21.875" lengthAdjust="spacingAndGlyphs" textLength="118.75" x="127.3438" y="833.8058">int quantity</text><ellipse cx="114.8438" cy="849.9023" fill="none" rx="4.6875" ry="4.6875" style="stroke: #038048; stroke-width: 1.5625;"/><text fill="#A6ADBB" font-family="Inter, ui-sans-serif, system-ui, -apple-system, sans-serif" font-size="21.875" lengthAdjust="spacingAndGlyphs" textLength="171.875" x="127.3438" y="859.2697">Money unitPrice</text><line style="stroke: #3D424E; stroke-width: 2.34375;" x1="99.2188" x2="347.6563" y1="870.6787" y2="870.6787"/><!--MD5=[08dbe06e87f91eb667838fe2f259c34a]
class Money--><rect fill="#161A22" height="142.4805" id="Money" rx="4.6875" ry="4.6875" style="stroke: #3D424E; stroke-width: 2.34375;" width="251.5625" x="97.6563" y="1020.2393"/><ellipse cx="119.5313" cy="1053.5156" fill="#1B202A" rx="15.625" ry="15.625" style="stroke: #F0A456; stroke-width: 1.5625;"/><path d="M123.2666,1060.8643 Q122.5098,1061.2549 121.6797,1061.4502 Q120.874,1061.6455 119.9707,1061.6455 Q116.748,1061.6455 115.0391,1059.5215 Q113.3545,1057.3975 113.3545,1053.3691 Q113.3545,1049.3408 115.0391,1047.2168 Q116.748,1045.0928 119.9707,1045.0928 Q120.874,1045.0928 121.7041,1045.2881 Q122.5342,1045.4834 123.2666,1045.8496 L123.2666,1049.3652 Q122.4609,1048.6084 121.6797,1048.2666 Q120.9229,1047.9248 120.1172,1047.9248 Q118.3838,1047.9248 117.5049,1049.292 Q116.626,1050.6592 116.626,1053.3691 Q116.626,1056.0547 117.5049,1057.4463 Q118.3838,1058.8135 120.1172,1058.8135 Q120.9229,1058.8135 121.6797,1058.4717 Q122.4609,1058.1055 123.2666,1057.373 L123.2666,1060.8643 Z "/><text fill="#E6E8EC" font-family="Inter, ui-sans-serif, system-ui, -apple-system, sans-serif" font-size="21.875" lengthAdjust="spacingAndGlyphs" textLength="204.6875" x="139.8438" y="1048.3566">&lt;&lt;value object&gt;&gt;</text><text fill="#E6E8EC" font-family="Inter, ui-sans-serif, system-ui, -apple-system, sans-serif" font-size="21.875" lengthAdjust="spacingAndGlyphs" textLength="71.875" x="206.25" y="1073.8205">Money</text><line style="stroke: #3D424E; stroke-width: 2.34375;" x1="99.2188" x2="347.6563" y1="1086.792" y2="1086.792"/><ellipse cx="114.8438" cy="1103.9795" fill="none" rx="4.6875" ry="4.6875" style="stroke: #038048; stroke-width: 1.5625;"/><text fill="#A6ADBB" font-family="Inter, ui-sans-serif, system-ui, -apple-system, sans-serif" font-size="21.875" lengthAdjust="spacingAndGlyphs" textLength="115.625" x="127.3438" y="1113.3469">int amount</text><ellipse cx="114.8438" cy="1129.4434" fill="none" rx="4.6875" ry="4.6875" style="stroke: #038048; stroke-width: 1.5625;"/><text fill="#A6ADBB" font-family="Inter, ui-sans-serif, system-ui, -apple-system, sans-serif" font-size="21.875" lengthAdjust="spacingAndGlyphs" textLength="196.875" x="127.3438" y="1138.8107">Currency currency</text><line style="stroke: #3D424E; stroke-width: 2.34375;" x1="99.2188" x2="347.6563" y1="1150.2197" y2="1150.2197"/><!--MD5=[b2242bc46093bbf21213bfc9fe1a0f1d]
class ShippingAddress--><rect fill="#161A22" height="193.4082" id="ShippingAddress" rx="4.6875" ry="4.6875" style="stroke: #3D424E; stroke-width: 2.34375;" width="268.75" x="404.6875" y="689.7705"/><ellipse cx="434.2969" cy="723.0469" fill="#1B202A" rx="15.625" ry="15.625" style="stroke: #F0A456; stroke-width: 1.5625;"/><path d="M438.0322,730.3955 Q437.2754,730.7861 436.4453,730.9814 Q435.6396,731.1768 434.7363,731.1768 Q431.5137,731.1768 429.8047,729.0527 Q428.1201,726.9287 428.1201,722.9004 Q428.1201,718.8721 429.8047,716.748 Q431.5137,714.624 434.7363,714.624 Q435.6396,714.624 436.4697,714.8193 Q437.2998,715.0146 438.0322,715.3809 L438.0322,718.8965 Q437.2266,718.1396 436.4453,717.7979 Q435.6885,717.4561 434.8828,717.4561 Q433.1494,717.4561 432.2705,718.8232 Q431.3916,720.1904 431.3916,722.9004 Q431.3916,725.5859 432.2705,726.9775 Q433.1494,728.3447 434.8828,728.3447 Q435.6885,728.3447 436.4453,728.0029 Q437.2266,727.6367 438.0322,726.9043 L438.0322,730.3955 Z "/><text fill="#E6E8EC" font-family="Inter, ui-sans-serif, system-ui, -apple-system, sans-serif" font-size="21.875" lengthAdjust="spacingAndGlyphs" textLength="204.6875" x="456.3281" y="717.8879">&lt;&lt;value object&gt;&gt;</text><text fill="#E6E8EC" font-family="Inter, ui-sans-serif, system-ui, -apple-system, sans-serif" font-size="21.875" lengthAdjust="spacingAndGlyphs" textLength="182.8125" x="467.2656" y="743.3517">ShippingAddress</text><line style="stroke: #3D424E; stroke-width: 2.34375;" x1="406.25" x2="671.875" y1="756.3232" y2="756.3232"/><ellipse cx="421.875" cy="773.5107" fill="none" rx="4.6875" ry="4.6875" style="stroke: #038048; stroke-width: 1.5625;"/><text fill="#A6ADBB" font-family="Inter, ui-sans-serif, system-ui, -apple-system, sans-serif" font-size="21.875" lengthAdjust="spacingAndGlyphs" textLength="131.25" x="434.375" y="782.8781">string street</text><ellipse cx="421.875" cy="798.9746" fill="none" rx="4.6875" ry="4.6875" style="stroke: #038048; stroke-width: 1.5625;"/><text fill="#A6ADBB" font-family="Inter, ui-sans-serif, system-ui, -apple-system, sans-serif" font-size="21.875" lengthAdjust="spacingAndGlyphs" textLength="103.125" x="434.375" y="808.342">string city</text><ellipse cx="421.875" cy="824.4385" fill="none" rx="4.6875" ry="4.6875" style="stroke: #038048; stroke-width: 1.5625;"/><text fill="#A6ADBB" font-family="Inter, ui-sans-serif, system-ui, -apple-system, sans-serif" font-size="21.875" lengthAdjust="spacingAndGlyphs" textLength="98.4375" x="434.375" y="833.8058">string zip</text><ellipse cx="421.875" cy="849.9023" fill="none" rx="4.6875" ry="4.6875" style="stroke: #038048; stroke-width: 1.5625;"/><text fill="#A6ADBB" font-family="Inter, ui-sans-serif, system-ui, -apple-system, sans-serif" font-size="21.875" lengthAdjust="spacingAndGlyphs" textLength="229.6875" x="434.375" y="859.2697">CountryCode country</text><line style="stroke: #3D424E; stroke-width: 2.34375;" x1="406.25" x2="671.875" y1="870.6787" y2="870.6787"/><!--MD5=[5025f6b68cec697c7299660e357546a9]
class CustomerRoot--><rect fill="#161A22" height="167.9443" id="CustomerRoot" rx="4.6875" ry="4.6875" style="stroke: #3D424E; stroke-width: 2.34375;" width="246.875" x="892.1875" y="703.0518"/><ellipse cx="950.625" cy="736.3281" fill="#1B202A" rx="15.625" ry="15.625" style="stroke: #F0A456; stroke-width: 1.5625;"/><path d="M954.3604,743.6768 Q953.6035,744.0674 952.7734,744.2627 Q951.9678,744.458 951.0645,744.458 Q947.8418,744.458 946.1328,742.334 Q944.4482,740.21 944.4482,736.1816 Q944.4482,732.1533 946.1328,730.0293 Q947.8418,727.9053 951.0645,727.9053 Q951.9678,727.9053 952.7979,728.1006 Q953.6279,728.2959 954.3604,728.6621 L954.3604,732.1777 Q953.5547,731.4209 952.7734,731.0791 Q952.0166,730.7373 951.2109,730.7373 Q949.4775,730.7373 948.5986,732.1045 Q947.7197,733.4717 947.7197,736.1816 Q947.7197,738.8672 948.5986,740.2588 Q949.4775,741.626 951.2109,741.626 Q952.0166,741.626 952.7734,741.2842 Q953.5547,740.918 954.3604,740.1855 L954.3604,743.6768 Z "/><text fill="#E6E8EC" font-family="Inter, ui-sans-serif, system-ui, -apple-system, sans-serif" font-size="21.875" lengthAdjust="spacingAndGlyphs" textLength="118.75" x="979.0625" y="731.1691">&lt;&lt;root&gt;&gt;</text><text fill="#E6E8EC" font-family="Inter, ui-sans-serif, system-ui, -apple-system, sans-serif" font-size="21.875" lengthAdjust="spacingAndGlyphs" textLength="106.25" x="985.3125" y="756.633">Customer</text><line style="stroke: #3D424E; stroke-width: 2.34375;" x1="893.75" x2="1137.5" y1="769.6045" y2="769.6045"/><ellipse cx="909.375" cy="786.792" fill="none" rx="4.6875" ry="4.6875" style="stroke: #038048; stroke-width: 1.5625;"/><text fill="#A6ADBB" font-family="Inter, ui-sans-serif, system-ui, -apple-system, sans-serif" font-size="21.875" lengthAdjust="spacingAndGlyphs" textLength="150" x="921.875" y="796.1594">CustomerId id</text><ellipse cx="909.375" cy="812.2559" fill="none" rx="4.6875" ry="4.6875" style="stroke: #038048; stroke-width: 1.5625;"/><text fill="#A6ADBB" font-family="Inter, ui-sans-serif, system-ui, -apple-system, sans-serif" font-size="21.875" lengthAdjust="spacingAndGlyphs" textLength="207.8125" x="921.875" y="821.6232">EmailAddress email</text><ellipse cx="909.375" cy="837.7197" fill="none" rx="4.6875" ry="4.6875" style="stroke: #038048; stroke-width: 1.5625;"/><text fill="#A6ADBB" font-family="Inter, ui-sans-serif, system-ui, -apple-system, sans-serif" font-size="21.875" lengthAdjust="spacingAndGlyphs" textLength="110.9375" x="921.875" y="847.0871">int version</text><line style="stroke: #3D424E; stroke-width: 2.34375;" x1="893.75" x2="1137.5" y1="858.4961" y2="858.4961"/><path d="M748.4375,271.8018 L748.4375,379.9072 A4.6875,4.6875 0 0 0 753.125,384.5947 L1081.25,384.5947 A4.6875,4.6875 0 0 0 1085.9375,379.9072 L1085.9375,282.7393 L1070.3125,267.1143 L753.125,267.1143 A4.6875,4.6875 0 0 0 748.4375,271.8018 " fill="#1B202A" style="stroke: #3D424E; stroke-width: 1.5625;"/><path d="M1070.3125,267.1143 L1070.3125,280.3955 A2.3438,2.3438 0 0 0 1072.6563,282.7393 L1085.9375,282.7393 L1070.3125,267.1143 " fill="#1B202A" style="stroke: #3D424E; stroke-width: 1.5625;"/><text fill="#A6ADBB" font-family="Inter, ui-sans-serif, system-ui, -apple-system, sans-serif" font-size="21.875" lengthAdjust="spacingAndGlyphs" textLength="228.125" x="757.8125" y="295.2316">Transakční hranice =</text><text fill="#A6ADBB" font-family="Inter, ui-sans-serif, system-ui, -apple-system, sans-serif" font-size="21.875" lengthAdjust="spacingAndGlyphs" textLength="189.0625" x="757.8125" y="320.6955">hranice agregátu.</text><text fill="#A6ADBB" font-family="Inter, ui-sans-serif, system-ui, -apple-system, sans-serif" font-size="21.875" lengthAdjust="spacingAndGlyphs" textLength="165.625" x="757.8125" y="346.1594">Doctrine flush()</text><text fill="#A6ADBB" font-family="Inter, ui-sans-serif, system-ui, -apple-system, sans-serif" font-size="21.875" lengthAdjust="spacingAndGlyphs" textLength="304.6875" x="757.8125" y="371.6232">ukládá pouze tento agregát.</text><path d="M748.4375,1037.4268 L748.4375,1145.5322 A4.6875,4.6875 0 0 0 753.125,1150.2197 L1025,1150.2197 A4.6875,4.6875 0 0 0 1029.6875,1145.5322 L1029.6875,1048.3643 L1014.0625,1032.7393 L753.125,1032.7393 A4.6875,4.6875 0 0 0 748.4375,1037.4268 " fill="#1B202A" style="stroke: #3D424E; stroke-width: 1.5625;"/><path d="M1014.0625,1032.7393 L1014.0625,1046.0205 A2.3438,2.3438 0 0 0 1016.4063,1048.3643 L1029.6875,1048.3643 L1014.0625,1032.7393 " fill="#1B202A" style="stroke: #3D424E; stroke-width: 1.5625;"/><text fill="#A6ADBB" font-family="Inter, ui-sans-serif, system-ui, -apple-system, sans-serif" font-size="21.875" lengthAdjust="spacingAndGlyphs" textLength="206.25" x="757.8125" y="1060.8566">Změna v Customer</text><text fill="#A6ADBB" font-family="Inter, ui-sans-serif, system-ui, -apple-system, sans-serif" font-size="21.875" lengthAdjust="spacingAndGlyphs" textLength="239.0625" x="757.8125" y="1086.3205">je oddělená transakce</text><text fill="#A6ADBB" font-family="Inter, ui-sans-serif, system-ui, -apple-system, sans-serif" font-size="21.875" lengthAdjust="spacingAndGlyphs" textLength="235.9375" x="757.8125" y="1111.7844">(eventual consistency</text><text fill="#A6ADBB" font-family="Inter, ui-sans-serif, system-ui, -apple-system, sans-serif" font-size="21.875" lengthAdjust="spacingAndGlyphs" textLength="248.4375" x="757.8125" y="1137.2482">přes doménový event).</text><!--MD5=[8eb7a606f79510a7a9b66eef4a267d63]
reverse link OrderRoot to OrderItem--><path d="M392.8281,490.5361 C385.5781,500.458 378.5313,510.4111 371.875,520.2393 C335.2031,574.333 299.2344,638.1611 271.875,689.6143 " fill="none" id="OrderRoot&lt;-OrderItem" style="stroke: #F0A456; stroke-width: 2.34375;"/><polygon fill="#F0A456" points="405.2188,473.8643,394.6112,477.6632,394.0381,488.916,404.6456,485.117,405.2188,473.8643" style="stroke: #F0A456; stroke-width: 2.34375;"/><text fill="#E6E8EC" font-family="Inter, ui-sans-serif, system-ui, -apple-system, sans-serif" font-size="21.875" lengthAdjust="spacingAndGlyphs" textLength="146.875" x="373.4375" y="567.1066">obsahuje 1..n</text><!--MD5=[0d3343c9c20ae95b102dfebf19c7ba9c]
reverse link OrderRoot to ShippingAddress--><path d="M532.1094,493.9736 C533.6719,559.708 535.4219,632.833 536.7813,689.3643 " fill="none" id="OrderRoot&lt;-ShippingAddress" style="stroke: #F0A456; stroke-width: 2.34375;"/><polygon fill="#F0A456" points="531.6094,473.3799,525.588,482.9034,532.063,492.1244,538.0844,482.6009,531.6094,473.3799" style="stroke: #F0A456; stroke-width: 2.34375;"/><text fill="#E6E8EC" font-family="Inter, ui-sans-serif, system-ui, -apple-system, sans-serif" font-size="21.875" lengthAdjust="spacingAndGlyphs" textLength="32.8125" x="537.5" y="567.1066">má</text><!--MD5=[03f00c413caba54d9f4ff245a5783d0f]
reverse link OrderItem to Money--><path d="M223.4375,904.2549 C223.4375,943.2393 223.4375,985.5049 223.4375,1019.833 " fill="none" id="OrderItem&lt;-Money" style="stroke: #F0A456; stroke-width: 2.34375;"/><polygon fill="#F0A456" points="223.4375,883.6299,217.1875,893.0049,223.4375,902.3799,229.6875,893.0049,223.4375,883.6299" style="stroke: #F0A456; stroke-width: 2.34375;"/><text fill="#E6E8EC" font-family="Inter, ui-sans-serif, system-ui, -apple-system, sans-serif" font-size="21.875" lengthAdjust="spacingAndGlyphs" textLength="32.8125" x="225" y="967.1066">má</text><!--MD5=[6e431829cb20fa0326f618824d514c6b]
link OrderRoot to CustomerRoot--><path d="M674.4688,440.3643 C764.7813,510.6611 866.9375,591.2705 885.9375,610.8643 C911.0781,636.7861 935.5625,667.6768 956.3437,696.2236 " fill="none" id="OrderRoot-&gt;CustomerRoot" style="stroke: #F0A456; stroke-width: 2.34375; stroke-dasharray: 7.0,7.0;"/><polygon fill="#F0A456" points="961,702.6455,957.8372,687.5852,956.4275,696.3109,947.7018,694.9012,961,702.6455" style="stroke: #F0A456; stroke-width: 2.34375;"/><text fill="#E6E8EC" font-family="Inter, ui-sans-serif, system-ui, -apple-system, sans-serif" font-size="21.875" lengthAdjust="spacingAndGlyphs" textLength="140.625" x="936.7188" y="542.1066">odkaz pouze</text><text fill="#E6E8EC" font-family="Inter, ui-sans-serif, system-ui, -apple-system, sans-serif" font-size="21.875" lengthAdjust="spacingAndGlyphs" textLength="179.6875" x="917.1875" y="567.5705">přes CustomerId</text><text fill="#E6E8EC" font-family="Inter, ui-sans-serif, system-ui, -apple-system, sans-serif" font-size="21.875" lengthAdjust="spacingAndGlyphs" textLength="267.1875" x="873.4375" y="593.0344">(NE objektová reference)</text><!--MD5=[a150b3def040f0d4569ab6f4a98120f6]
link OrderAgg to GMN13--><path d="M46.7817,275.5123 C46.1807,272.5524 45.5849,269.5011 45.0014,266.3697 C43.8345,260.1067 42.7169,253.5231 41.7047,246.7082 C39.6804,233.0785 38.0781,218.5239 37.3477,203.7607 C34.4258,144.708 45.4531,82.3174 99.2188,62.4268 C158.8125,40.3799 611.5,40.3799 671.0938,62.4268 C769.6719,98.8955 844.8594,200.8799 884.8906,266.6924 " fill="none" id="OrderAgg-GMN13" style="stroke: #F0A456; stroke-width: 2.34375; stroke-dasharray: 7.0,7.0;"/><!--MD5=[fa8ee72ec6cb4bdf2e367839311b38e5]
link CustomerAgg to GMN16--><path d="M858.0394,908.3347 C858.1092,908.7425 858.179,909.1507 858.2488,909.5592 C858.8076,912.8268 859.3698,916.1137 859.9341,919.4132 C862.1912,932.6115 864.4833,946.0133 866.7395,959.2048 C871.252,985.5879 875.6211,1011.1299 879.2813,1032.5205 " fill="none" id="CustomerAgg-GMN16" style="stroke: #F0A456; stroke-width: 2.34375; stroke-dasharray: 7.0,7.0;"/><!--MD5=[d0a9cadadcfd03417dcf243aafbae29b]
@startuml aggregate_boundary
skinparam dpi 150
skinparam backgroundColor #11141A
skinparam shadowing false
skinparam roundCorner 6

skinparam defaultFontName "DejaVu Sans"
skinparam defaultFontSize 14
skinparam defaultFontColor #E6E8EC
skinparam defaultTextAlignment center


skinparam ArrowColor #F0A456
skinparam ArrowFontColor #E6E8EC
skinparam ArrowThickness 1.5

skinparam node {
  BackgroundColor #161A22
  BorderColor #3D424E
  FontColor #E6E8EC
}

skinparam component {
  BackgroundColor #161A22
  BorderColor #3D424E
  FontColor #E6E8EC
}

skinparam rectangle {
  BackgroundColor #161A22
  BorderColor #3D424E
  FontColor #E6E8EC
}

skinparam package {
  BackgroundColor #11141A
  BorderColor #F0A456
  FontColor #F0A456
}

skinparam folder {
  BackgroundColor #161A22
  BorderColor #3D424E
  FontColor #E6E8EC
}

skinparam frame {
  BackgroundColor #161A22
  BorderColor #3D424E
  FontColor #E6E8EC
}

skinparam database {
  BackgroundColor #1B202A
  BorderColor #3D424E
  FontColor #E6E8EC
}

skinparam queue {
  BackgroundColor #1B202A
  BorderColor #3D424E
  FontColor #E6E8EC
}

skinparam cloud {
  BackgroundColor #1B202A
  BorderColor #3D424E
  FontColor #E6E8EC
}

skinparam actor {
  BackgroundColor #161A22
  BorderColor #F0A456
  FontColor #E6E8EC
}

skinparam usecase {
  BackgroundColor #161A22
  BorderColor #3D424E
  FontColor #E6E8EC
}

skinparam class {
  BackgroundColor #161A22
  BorderColor #3D424E
  HeaderBackgroundColor #1B202A
  ArrowColor #F0A456
  FontColor #E6E8EC
  AttributeFontColor #A6ADBB
  StereotypeFontColor #F0A456
}

skinparam object {
  BackgroundColor #161A22
  BorderColor #3D424E
  FontColor #E6E8EC
}

skinparam sequence {
  ParticipantBackgroundColor #161A22
  ParticipantBorderColor #3D424E
  ParticipantFontColor #E6E8EC
  ActorBackgroundColor #161A22
  ActorBorderColor #F0A456
  ActorFontColor #E6E8EC
  LifeLineBorderColor #3D424E
  LifeLineBackgroundColor #1B202A
  ArrowColor #F0A456
  ArrowFontColor #E6E8EC
  GroupBackgroundColor #1B202A
  GroupBorderColor #3D424E
  GroupFontColor #A6ADBB
  GroupHeaderFontColor #F0A456
  BoxBackgroundColor #11141A
  BoxBorderColor #F0A456
  BoxFontColor #F0A456
  DividerBackgroundColor #1B202A
  DividerBorderColor #3D424E
  DividerFontColor #A6ADBB
  ReferenceBackgroundColor #161A22
  ReferenceBorderColor #3D424E
  ReferenceFontColor #E6E8EC
  ReferenceHeaderBackgroundColor #1B202A
  StereotypeFontColor #F0A456
}

skinparam state {
  BackgroundColor #161A22
  BorderColor #3D424E
  FontColor #E6E8EC
  StartColor #F0A456
  EndColor #F0A456
  ArrowColor #F0A456
  AttributeFontColor #A6ADBB
}

skinparam activity {
  BackgroundColor #161A22
  BorderColor #3D424E
  FontColor #E6E8EC
  ArrowColor #F0A456
  StartColor #F0A456
  EndColor #F0A456
  BarColor #F0A456
  DiamondBackgroundColor #1B202A
  DiamondBorderColor #3D424E
  DiamondFontColor #E6E8EC
}

skinparam note {
  BackgroundColor #1B202A
  BorderColor #3D424E
  FontColor #A6ADBB
}

skinparam title {
  FontColor #E6E8EC
  FontSize 18
}

skinparam legend {
  BackgroundColor #161A22
  BorderColor #3D424E
  FontColor #A6ADBB
}

skinparam caption {
  FontColor #A6ADBB
}

skinparam stereotype {
  CBackgroundColor #1B202A
  CBorderColor #F0A456
  ABackgroundColor #1B202A
  ABorderColor #F0A456
  IBackgroundColor #1B202A
  IBorderColor #F0A456
  EBackgroundColor #1B202A
  EBorderColor #F0A456
}

title Hranice agregátu: Order vs. Customer

package "Aggregate: Order" as OrderAgg {
  class "<<root>>\nOrder" as OrderRoot {
    +OrderId id
    +CustomerId customerId
    +OrderStatus status
    +int version
    - -
    +place(items)
    +pay()
    +ship()
    +cancel()
  }

  class "<<entity>>\nOrderItem" as OrderItem {
    +OrderItemId id
    +ProductId productId
    +int quantity
    +Money unitPrice
  }

  class "<<value object>>\nMoney" as Money {
    +int amount
    +Currency currency
  }

  class "<<value object>>\nShippingAddress" as ShippingAddress {
    +string street
    +string city
    +string zip
    +CountryCode country
  }

  OrderRoot *- - OrderItem : obsahuje 1..n
  OrderRoot *- - ShippingAddress : má
  OrderItem *- - Money : má
}

package "Aggregate: Customer" as CustomerAgg {
  class "<<root>>\nCustomer" as CustomerRoot {
    +CustomerId id
    +EmailAddress email
    +int version
  }
}

OrderRoot ..> CustomerRoot : odkaz pouze\npřes CustomerId\n(NE objektová reference)

note right of OrderAgg
  Transakční hranice =
  hranice agregátu.
  Doctrine flush()
  ukládá pouze tento agregát.
end note

note bottom of CustomerAgg
  Změna v Customer
  je oddělená transakce
  (eventual consistency
  přes doménový event).
end note

@enduml

PlantUML version 1.2020.02(Sun Mar 01 11:22:07 CET 2020)
(GPL source distribution)
Java Runtime: OpenJDK Runtime Environment
JVM: OpenJDK 64-Bit Server VM
Java Version: 21.0.10+7-Debian-1deb13u1
Operating System: Linux
Default Encoding: UTF-8
Language: cs
Country: CZ
--></g></svg>