<?xml version="1.0" encoding="UTF-8" standalone="no"?><svg xmlns="http://www.w3.org/2000/svg" xmlns:xlink="http://www.w3.org/1999/xlink" contentScriptType="application/ecmascript" contentStyleType="text/css" height="1321.875px" preserveAspectRatio="none" style="width:1248px;height:1321px;background:#11141A;" version="1.1" viewBox="0 0 1248 1321" width="1248.4375px" zoomAndPan="magnify"><defs/><g><text fill="#E6E8EC" font-family="Inter, ui-sans-serif, system-ui, -apple-system, sans-serif" font-size="28.125" lengthAdjust="spacingAndGlyphs" textLength="692.1875" x="283.5938" y="26.1063">Životní cyklus agregátu Order - stavové přechody</text><ellipse cx="738.2813" cy="60.8643" fill="#F0A456" rx="15.625" ry="15.625" style="stroke: none; stroke-width: 1.5625;"/><rect fill="#161A22" height="78.125" rx="19.5313" ry="19.5313" style="stroke: #3D424E; stroke-width: 2.34375;" width="82.8125" x="696.875" y="198.3643"/><line style="stroke: #3D424E; stroke-width: 2.34375;" x1="696.875" x2="779.6875" y1="239.4531" y2="239.4531"/><text fill="#E6E8EC" font-family="Inter, ui-sans-serif, system-ui, -apple-system, sans-serif" font-size="21.875" lengthAdjust="spacingAndGlyphs" textLength="51.5625" x="712.5" y="226.4816">Draft</text><rect fill="#161A22" height="78.125" rx="19.5313" ry="19.5313" style="stroke: #3D424E; stroke-width: 2.34375;" width="78.125" x="432.0313" y="398.3643"/><line style="stroke: #3D424E; stroke-width: 2.34375;" x1="432.0313" x2="510.1563" y1="439.4531" y2="439.4531"/><text fill="#E6E8EC" font-family="Inter, ui-sans-serif, system-ui, -apple-system, sans-serif" font-size="21.875" lengthAdjust="spacingAndGlyphs" textLength="45.3125" x="448.4375" y="426.4816">Paid</text><rect fill="#161A22" height="78.125" rx="19.5313" ry="19.5313" style="stroke: #3D424E; stroke-width: 2.34375;" width="137.5" x="938.2813" y="398.3643"/><line style="stroke: #3D424E; stroke-width: 2.34375;" x1="938.2813" x2="1075.7813" y1="439.4531" y2="439.4531"/><text fill="#E6E8EC" font-family="Inter, ui-sans-serif, system-ui, -apple-system, sans-serif" font-size="21.875" lengthAdjust="spacingAndGlyphs" textLength="106.25" x="953.9063" y="426.4816">Cancelled</text><rect fill="#161A22" height="78.125" rx="19.5313" ry="19.5313" style="stroke: #3D424E; stroke-width: 2.34375;" width="120.3125" x="231.25" y="605.3955"/><line style="stroke: #3D424E; stroke-width: 2.34375;" x1="231.25" x2="351.5625" y1="646.4844" y2="646.4844"/><text fill="#E6E8EC" font-family="Inter, ui-sans-serif, system-ui, -apple-system, sans-serif" font-size="21.875" lengthAdjust="spacingAndGlyphs" textLength="89.0625" x="246.875" y="633.5129">Shipped</text><rect fill="#161A22" height="78.125" rx="19.5313" ry="19.5313" style="stroke: #3D424E; stroke-width: 2.34375;" width="137.5" x="442.9688" y="1101.4893"/><line style="stroke: #3D424E; stroke-width: 2.34375;" x1="442.9688" x2="580.4688" y1="1142.5781" y2="1142.5781"/><text fill="#E6E8EC" font-family="Inter, ui-sans-serif, system-ui, -apple-system, sans-serif" font-size="21.875" lengthAdjust="spacingAndGlyphs" textLength="106.25" x="458.5938" y="1129.6066">Refunded</text><rect fill="#161A22" height="78.125" rx="19.5313" ry="19.5313" style="stroke: #3D424E; stroke-width: 2.34375;" width="132.8125" x="9.375" y="976.4893"/><line style="stroke: #3D424E; stroke-width: 2.34375;" x1="9.375" x2="142.1875" y1="1017.5781" y2="1017.5781"/><text fill="#E6E8EC" font-family="Inter, ui-sans-serif, system-ui, -apple-system, sans-serif" font-size="21.875" lengthAdjust="spacingAndGlyphs" textLength="101.5625" x="25" y="1004.6066">Delivered</text><rect fill="#161A22" height="78.125" rx="19.5313" ry="19.5313" style="stroke: #3D424E; stroke-width: 2.34375;" width="132.8125" x="145.3125" y="831.958"/><line style="stroke: #3D424E; stroke-width: 2.34375;" x1="145.3125" x2="278.125" y1="873.0469" y2="873.0469"/><text fill="#E6E8EC" font-family="Inter, ui-sans-serif, system-ui, -apple-system, sans-serif" font-size="21.875" lengthAdjust="spacingAndGlyphs" textLength="101.5625" x="160.9375" y="860.0754">Returned</text><ellipse cx="511.7188" cy="1290.5518" fill="none" rx="15.625" ry="15.625" style="stroke: #F0A456; stroke-width: 1.5625;"/><ellipse cx="512.5" cy="1291.333" fill="#F0A456" rx="9.375" ry="9.375" style="stroke: none; stroke-width: 1.5625;"/><path d="M835.1563,208.5205 L835.1563,231.1768 L780.0938,237.4268 L835.1563,243.6768 L835.1563,265.6982 A4.6875,4.6875 0 0 0 839.8438,270.3857 L1052.3438,270.3857 A4.6875,4.6875 0 0 0 1057.0313,265.6982 L1057.0313,219.458 L1041.4063,203.833 L839.8438,203.833 A4.6875,4.6875 0 0 0 835.1563,208.5205 " fill="#1B202A" style="stroke: #3D424E; stroke-width: 1.5625;"/><path d="M1041.4063,203.833 L1041.4063,217.1143 A2.3438,2.3438 0 0 0 1043.75,219.458 L1057.0313,219.458 L1041.4063,203.833 " fill="#1B202A" style="stroke: #3D424E; stroke-width: 1.5625;"/><text fill="#A6ADBB" font-family="Inter, ui-sans-serif, system-ui, -apple-system, sans-serif" font-size="21.875" lengthAdjust="spacingAndGlyphs" textLength="189.0625" x="844.5313" y="231.9504">Invariant: alespoň</text><text fill="#A6ADBB" font-family="Inter, ui-sans-serif, system-ui, -apple-system, sans-serif" font-size="21.875" lengthAdjust="spacingAndGlyphs" textLength="156.25" x="844.5313" y="257.4142">jedna položka.</text><path d="M564.8438,406.958 L564.8438,431.1768 L510.6406,437.4268 L564.8438,443.6768 L564.8438,467.7734 A4.6875,4.6875 0 0 0 569.5313,472.4609 L878.9063,472.4609 A4.6875,4.6875 0 0 0 883.5938,467.7734 L883.5938,417.8955 L867.9688,402.2705 L569.5313,402.2705 A4.6875,4.6875 0 0 0 564.8438,406.958 " fill="#1B202A" style="stroke: #3D424E; stroke-width: 1.5625;"/><path d="M867.9688,402.2705 L867.9688,415.5518 A2.3438,2.3438 0 0 0 870.3125,417.8955 L883.5938,417.8955 L867.9688,402.2705 " fill="#1B202A" style="stroke: #3D424E; stroke-width: 1.5625;"/><text fill="#A6ADBB" font-family="Inter, ui-sans-serif, system-ui, -apple-system, sans-serif" font-size="21.875" lengthAdjust="spacingAndGlyphs" textLength="285.9375" x="574.2188" y="430.3879">Invariant: payment.amount</text><text fill="#A6ADBB" font-family="Inter, ui-sans-serif, system-ui, -apple-system, sans-serif" font-size="25" font-weight="bold" lengthAdjust="spacingAndGlyphs" textLength="165.625" x="574.2188" y="458.7524">sum(items).</text><path d="M942.9688,603.0518 L942.9688,685.6934 A4.6875,4.6875 0 0 0 947.6563,690.3809 L1225.7813,690.3809 A4.6875,4.6875 0 0 0 1230.4688,685.6934 L1230.4688,613.9893 L1214.8438,598.3643 L1075.4688,598.3643 L1021.8281,476.8643 L1062.9688,598.3643 L947.6563,598.3643 A4.6875,4.6875 0 0 0 942.9688,603.0518 " fill="#1B202A" style="stroke: #3D424E; stroke-width: 1.5625;"/><path d="M1214.8438,598.3643 L1214.8438,611.6455 A2.3438,2.3438 0 0 0 1217.1875,613.9893 L1230.4688,613.9893 L1214.8438,598.3643 " fill="#1B202A" style="stroke: #3D424E; stroke-width: 1.5625;"/><text fill="#A6ADBB" font-family="Inter, ui-sans-serif, system-ui, -apple-system, sans-serif" font-size="21.875" lengthAdjust="spacingAndGlyphs" textLength="195.3125" x="952.3438" y="626.4816">Cancel jen z Draft.</text><text fill="#A6ADBB" font-family="Inter, ui-sans-serif, system-ui, -apple-system, sans-serif" font-size="21.875" lengthAdjust="spacingAndGlyphs" textLength="254.6875" x="952.3438" y="651.9455">Po Paid je nutný refund,</text><text fill="#A6ADBB" font-family="Inter, ui-sans-serif, system-ui, -apple-system, sans-serif" font-size="21.875" lengthAdjust="spacingAndGlyphs" textLength="110.9375" x="952.3438" y="677.4094">ne cancel.</text><path d="M333.5938,817.1143 L333.5938,925.2197 A4.6875,4.6875 0 0 0 338.2813,929.9072 L572.6563,929.9072 A4.6875,4.6875 0 0 0 577.3438,925.2197 L577.3438,828.0518 L561.7188,812.4268 L338.2813,812.4268 A4.6875,4.6875 0 0 0 333.5938,817.1143 " fill="#1B202A" style="stroke: #3D424E; stroke-width: 1.5625;"/><path d="M561.7188,812.4268 L561.7188,825.708 A2.3438,2.3438 0 0 0 564.0625,828.0518 L577.3438,828.0518 L561.7188,812.4268 " fill="#1B202A" style="stroke: #3D424E; stroke-width: 1.5625;"/><text fill="#A6ADBB" font-family="Inter, ui-sans-serif, system-ui, -apple-system, sans-serif" font-size="21.875" lengthAdjust="spacingAndGlyphs" textLength="176.5625" x="342.9688" y="840.5441">Po Shipped není</text><text fill="#A6ADBB" font-family="Inter, ui-sans-serif, system-ui, -apple-system, sans-serif" font-size="21.875" lengthAdjust="spacingAndGlyphs" textLength="206.25" x="342.9688" y="866.008">cesta zpět do Paid.</text><text fill="#A6ADBB" font-family="Inter, ui-sans-serif, system-ui, -apple-system, sans-serif" font-size="21.875" lengthAdjust="spacingAndGlyphs" textLength="210.9375" x="342.9688" y="891.4719">Vrácení = oddělený</text><text fill="#A6ADBB" font-family="Inter, ui-sans-serif, system-ui, -apple-system, sans-serif" font-size="21.875" lengthAdjust="spacingAndGlyphs" textLength="157.8125" x="342.9688" y="916.9357">stav Returned.</text><!--MD5=[c437118b2706405049936a1b53a98f1f]
link *start to Draft--><path d="M738.2813,76.6143 C738.2813,101.0986 738.2813,152.2236 738.2813,189.9893 " fill="none" id="*start-&gt;Draft" style="stroke: #F0A456; stroke-width: 2.34375;"/><polygon fill="#F0A456" points="738.2813,197.8174,744.5313,183.7549,738.2813,190.0049,732.0313,183.7549,738.2813,197.8174" style="stroke: #F0A456; stroke-width: 2.34375;"/><text fill="#E6E8EC" font-family="Inter, ui-sans-serif, system-ui, -apple-system, sans-serif" font-size="21.875" lengthAdjust="spacingAndGlyphs" textLength="132.8125" x="739.8438" y="145.2316">place(items)</text><!--MD5=[1d78930ad8f4863bc64decf28f3093d4]
link Draft to Paid--><path d="M696.5313,269.7549 C647.7969,305.6611 567.4375,364.8799 516.9844,402.0518 " fill="none" id="Draft-&gt;Paid" style="stroke: #F0A456; stroke-width: 2.34375;"/><polygon fill="#F0A456" points="510.375,406.9268,525.4096,403.6438,516.6729,402.3038,518.0129,393.5672,510.375,406.9268" style="stroke: #F0A456; stroke-width: 2.34375;"/><text fill="#E6E8EC" font-family="Inter, ui-sans-serif, system-ui, -apple-system, sans-serif" font-size="21.875" lengthAdjust="spacingAndGlyphs" textLength="146.875" x="622.6563" y="345.2316">pay(payment)</text><!--MD5=[c077e1beaa147cbfb0f8312c69d728a0]
link Draft to Cancelled--><path d="M780.2813,269.7549 C825.625,302.9736 898.1875,356.1299 948.9844,393.3486 " fill="none" id="Draft-&gt;Cancelled" style="stroke: #F0A456; stroke-width: 2.34375;"/><polygon fill="#F0A456" points="955.6875,398.2549,948.0271,384.9082,949.3818,393.6426,940.6474,394.9973,955.6875,398.2549" style="stroke: #F0A456; stroke-width: 2.34375;"/><text fill="#E6E8EC" font-family="Inter, ui-sans-serif, system-ui, -apple-system, sans-serif" font-size="21.875" lengthAdjust="spacingAndGlyphs" textLength="160.9375" x="891.4063" y="345.2316">cancel(reason)</text><!--MD5=[cd81cd5356cb19dfcda871501d4bd77b]
link Paid to Shipped--><path d="M437.7188,476.8643 C407.2031,511.4893 362.0938,562.6924 330.0313,599.0674 " fill="none" id="Paid-&gt;Shipped" style="stroke: #F0A456; stroke-width: 2.34375;"/><polygon fill="#F0A456" points="324.6094,605.2236,338.5991,598.8124,329.7776,599.3649,329.2251,590.5433,324.6094,605.2236" style="stroke: #F0A456; stroke-width: 2.34375;"/><text fill="#E6E8EC" font-family="Inter, ui-sans-serif, system-ui, -apple-system, sans-serif" font-size="21.875" lengthAdjust="spacingAndGlyphs" textLength="181.25" x="394.5313" y="545.2316">ship(shipmentId)</text><!--MD5=[7b7dfc408a8b85af38926187f79d24da]
link Paid to Refunded--><path d="M510.625,461.8486 C541.5313,480.6143 580.7344,506.7236 589.8438,523.3643 C646.5781,627.0049 661.5,947.458 611.7188,1054.6143 C604.4844,1070.1924 592.7969,1083.9268 579.9063,1095.5518 " fill="none" id="Paid-&gt;Refunded" style="stroke: #F0A456; stroke-width: 2.34375;"/><polygon fill="#F0A456" points="573.5156,1101.0986,588.2423,1096.6329,579.4268,1095.9905,580.0692,1087.175,573.5156,1101.0986" style="stroke: #F0A456; stroke-width: 2.34375;"/><text fill="#E6E8EC" font-family="Inter, ui-sans-serif, system-ui, -apple-system, sans-serif" font-size="21.875" lengthAdjust="spacingAndGlyphs" textLength="160.9375" x="641.4063" y="759.2941">refund(reason)</text><!--MD5=[889969fb7136d0bf17dc44bd708d529f]
link Shipped to Delivered--><path d="M230.9688,648.6455 C170.1563,654.8955 79.25,674.8955 35.1563,737.4268 C-13.5469,806.5049 22.8281,909.6143 51.0625,968.4736 " fill="none" id="Shipped-&gt;Delivered" style="stroke: #F0A456; stroke-width: 2.34375;"/><polygon fill="#F0A456" points="54.7969,976.1143,54.2354,960.7357,51.3655,969.0956,43.0056,966.2258,54.7969,976.1143" style="stroke: #F0A456; stroke-width: 2.34375;"/><text fill="#E6E8EC" font-family="Inter, ui-sans-serif, system-ui, -apple-system, sans-serif" font-size="21.875" lengthAdjust="spacingAndGlyphs" textLength="179.6875" x="36.7188" y="759.2941">confirmDelivery()</text><!--MD5=[1e3e0cb2396571df4ae058b68930df33]
link Shipped to Returned--><path d="M265.7188,683.7705 C255.8594,699.7236 245.3125,718.8955 238.2813,737.4268 C227.7656,765.1611 221.1406,797.833 217.1406,823.7393 " fill="none" id="Shipped-&gt;Returned" style="stroke: #F0A456; stroke-width: 2.34375;"/><polygon fill="#F0A456" points="215.9844,831.5518,224.2128,818.5475,217.1204,823.8223,211.8457,816.7299,215.9844,831.5518" style="stroke: #F0A456; stroke-width: 2.34375;"/><text fill="#E6E8EC" font-family="Inter, ui-sans-serif, system-ui, -apple-system, sans-serif" font-size="21.875" lengthAdjust="spacingAndGlyphs" textLength="173.4375" x="239.8438" y="759.2941">returnRequest()</text><!--MD5=[02e64cadb59b5e4d2f80ed9d0f37ee88]
link Returned to Refunded--><path d="M254.0625,910.1924 C309.0781,959.0361 404.9063,1044.1455 462.9219,1095.6455 " fill="none" id="Returned-&gt;Refunded" style="stroke: #F0A456; stroke-width: 2.34375;"/><polygon fill="#F0A456" points="469.1094,1101.1455,462.7246,1087.1437,463.2604,1095.9663,454.4378,1096.502,469.1094,1101.1455" style="stroke: #F0A456; stroke-width: 2.34375;"/><text fill="#E6E8EC" font-family="Inter, ui-sans-serif, system-ui, -apple-system, sans-serif" font-size="21.875" lengthAdjust="spacingAndGlyphs" textLength="181.25" x="416.4063" y="1023.3566">approveRefund()</text><!--MD5=[59a46c68dd0ba3d5e6f11abff924b63b]
link Delivered to *end--><path d="M135.9375,1054.6299 C235.5938,1116.7861 430.1094,1238.0986 492.1875,1276.8018 " fill="none" id="Delivered-&gt;*end" style="stroke: #F0A456; stroke-width: 2.34375;"/><polygon fill="#F0A456" points="499.0781,1281.1143,490.4772,1268.3533,492.4569,1276.9676,483.8426,1278.9473,499.0781,1281.1143" style="stroke: #F0A456; stroke-width: 2.34375;"/><!--MD5=[858287a5933bdf9eff6768a852310904]
link Cancelled to *end--><path d="M957.7188,476.5049 C915.0469,513.6143 860.1563,574.6143 860.1563,642.8955 C860.1563,642.8955 860.1563,642.8955 860.1563,1142.1143 C860.1563,1283.3643 614.0313,1290.9268 535.5,1289.7549 " fill="none" id="Cancelled-&gt;*end" style="stroke: #F0A456; stroke-width: 2.34375;"/><polygon fill="#F0A456" points="527.5938,1289.5986,541.5285,1296.1286,535.4047,1289.7549,541.7784,1283.6311,527.5938,1289.5986" style="stroke: #F0A456; stroke-width: 2.34375;"/><!--MD5=[76d271f7c42b007f9c8db17c1f6879bf]
link Refunded to *end--><path d="M511.7188,1179.9424 C511.7188,1207.4893 511.7188,1243.8799 511.7188,1266.8643 " fill="none" id="Refunded-&gt;*end" style="stroke: #F0A456; stroke-width: 2.34375;"/><polygon fill="#F0A456" points="511.7188,1274.6768,517.9688,1260.6143,511.7188,1266.8643,505.4688,1260.6143,511.7188,1274.6768" style="stroke: #F0A456; stroke-width: 2.34375;"/><!--MD5=[a681c88fe9c7185f3dc8656439d6f3c8]
link Shipped to GMN31--><path d="M351.6719,676.1768 C376.5156,691.3955 403.5313,712.0674 421.0938,737.4268 C436.2031,759.2393 444.6719,787.2393 449.4063,811.833 " fill="none" id="Shipped-GMN31" style="stroke: #F0A456; stroke-width: 2.34375; stroke-dasharray: 7.0,7.0;"/><!--MD5=[a02de7d423cd8896d7de39a3ce50fd08]
@startuml order_states
skinparam dpi 150
skinparam backgroundColor #11141A
skinparam shadowing false
skinparam roundCorner 6

skinparam defaultFontName "DejaVu Sans"
skinparam defaultFontSize 14
skinparam defaultFontColor #E6E8EC
skinparam defaultTextAlignment center


skinparam ArrowColor #F0A456
skinparam ArrowFontColor #E6E8EC
skinparam ArrowThickness 1.5

skinparam node {
  BackgroundColor #161A22
  BorderColor #3D424E
  FontColor #E6E8EC
}

skinparam component {
  BackgroundColor #161A22
  BorderColor #3D424E
  FontColor #E6E8EC
}

skinparam rectangle {
  BackgroundColor #161A22
  BorderColor #3D424E
  FontColor #E6E8EC
}

skinparam package {
  BackgroundColor #11141A
  BorderColor #F0A456
  FontColor #F0A456
}

skinparam folder {
  BackgroundColor #161A22
  BorderColor #3D424E
  FontColor #E6E8EC
}

skinparam frame {
  BackgroundColor #161A22
  BorderColor #3D424E
  FontColor #E6E8EC
}

skinparam database {
  BackgroundColor #1B202A
  BorderColor #3D424E
  FontColor #E6E8EC
}

skinparam queue {
  BackgroundColor #1B202A
  BorderColor #3D424E
  FontColor #E6E8EC
}

skinparam cloud {
  BackgroundColor #1B202A
  BorderColor #3D424E
  FontColor #E6E8EC
}

skinparam actor {
  BackgroundColor #161A22
  BorderColor #F0A456
  FontColor #E6E8EC
}

skinparam usecase {
  BackgroundColor #161A22
  BorderColor #3D424E
  FontColor #E6E8EC
}

skinparam class {
  BackgroundColor #161A22
  BorderColor #3D424E
  HeaderBackgroundColor #1B202A
  ArrowColor #F0A456
  FontColor #E6E8EC
  AttributeFontColor #A6ADBB
  StereotypeFontColor #F0A456
}

skinparam object {
  BackgroundColor #161A22
  BorderColor #3D424E
  FontColor #E6E8EC
}

skinparam sequence {
  ParticipantBackgroundColor #161A22
  ParticipantBorderColor #3D424E
  ParticipantFontColor #E6E8EC
  ActorBackgroundColor #161A22
  ActorBorderColor #F0A456
  ActorFontColor #E6E8EC
  LifeLineBorderColor #3D424E
  LifeLineBackgroundColor #1B202A
  ArrowColor #F0A456
  ArrowFontColor #E6E8EC
  GroupBackgroundColor #1B202A
  GroupBorderColor #3D424E
  GroupFontColor #A6ADBB
  GroupHeaderFontColor #F0A456
  BoxBackgroundColor #11141A
  BoxBorderColor #F0A456
  BoxFontColor #F0A456
  DividerBackgroundColor #1B202A
  DividerBorderColor #3D424E
  DividerFontColor #A6ADBB
  ReferenceBackgroundColor #161A22
  ReferenceBorderColor #3D424E
  ReferenceFontColor #E6E8EC
  ReferenceHeaderBackgroundColor #1B202A
  StereotypeFontColor #F0A456
}

skinparam state {
  BackgroundColor #161A22
  BorderColor #3D424E
  FontColor #E6E8EC
  StartColor #F0A456
  EndColor #F0A456
  ArrowColor #F0A456
  AttributeFontColor #A6ADBB
}

skinparam activity {
  BackgroundColor #161A22
  BorderColor #3D424E
  FontColor #E6E8EC
  ArrowColor #F0A456
  StartColor #F0A456
  EndColor #F0A456
  BarColor #F0A456
  DiamondBackgroundColor #1B202A
  DiamondBorderColor #3D424E
  DiamondFontColor #E6E8EC
}

skinparam note {
  BackgroundColor #1B202A
  BorderColor #3D424E
  FontColor #A6ADBB
}

skinparam title {
  FontColor #E6E8EC
  FontSize 18
}

skinparam legend {
  BackgroundColor #161A22
  BorderColor #3D424E
  FontColor #A6ADBB
}

skinparam caption {
  FontColor #A6ADBB
}

skinparam stereotype {
  CBackgroundColor #1B202A
  CBorderColor #F0A456
  ABackgroundColor #1B202A
  ABorderColor #F0A456
  IBackgroundColor #1B202A
  IBorderColor #F0A456
  EBackgroundColor #1B202A
  EBorderColor #F0A456
}

title Životní cyklus agregátu Order - stavové přechody

[*] - -> Draft : place(items)
Draft - -> Paid : pay(payment)
Draft - -> Cancelled : cancel(reason)

Paid - -> Shipped : ship(shipmentId)
Paid - -> Refunded : refund(reason)

Shipped - -> Delivered : confirmDelivery()
Shipped - -> Returned : returnRequest()

Returned - -> Refunded : approveRefund()

Delivered - -> [*]
Cancelled - -> [*]
Refunded - -> [*]

note right of Draft
  Invariant: alespoň
  jedna položka.
end note

note right of Paid
  Invariant: payment.amount
  == sum(items).
end note

note bottom of Cancelled
  Cancel jen z Draft.
  Po Paid je nutný refund,
  ne cancel.
end note

note bottom of Shipped
  Po Shipped není
  cesta zpět do Paid.
  Vrácení = oddělený
  stav Returned.
end note

@enduml

PlantUML version 1.2020.02(Sun Mar 01 11:22:07 CET 2020)
(GPL source distribution)
Java Runtime: OpenJDK Runtime Environment
JVM: OpenJDK 64-Bit Server VM
Java Version: 21.0.10+7-Debian-1deb13u1
Operating System: Linux
Default Encoding: UTF-8
Language: cs
Country: CZ
--></g></svg>