<?xml version="1.0" encoding="UTF-8" standalone="no"?><svg xmlns="http://www.w3.org/2000/svg" xmlns:xlink="http://www.w3.org/1999/xlink" contentScriptType="application/ecmascript" contentStyleType="text/css" height="1331.25px" preserveAspectRatio="none" style="width:1364px;height:1331px;background:#fcfbf9;" version="1.1" viewBox="0 0 1364 1331" width="1364.0625px" zoomAndPan="magnify"><defs/><g><text fill="#1c1f26" font-family="Inter, ui-sans-serif, system-ui, -apple-system, sans-serif" font-size="28.125" lengthAdjust="spacingAndGlyphs" textLength="850" x="250" y="41.7313">Tok transakce: jeden agregát na transakci + sága přes events</text><line style="stroke: #b6bac2; stroke-width: 1.5625; stroke-dasharray: 5.0,5.0;" x1="46.875" x2="46.875" y1="183.2031" y2="1196.0693"/><line style="stroke: #b6bac2; stroke-width: 1.5625; stroke-dasharray: 5.0,5.0;" x1="334.375" x2="334.375" y1="183.2031" y2="1196.0693"/><line style="stroke: #b6bac2; stroke-width: 1.5625; stroke-dasharray: 5.0,5.0;" x1="806.25" x2="806.25" y1="183.2031" y2="1196.0693"/><line style="stroke: #b6bac2; stroke-width: 1.5625; stroke-dasharray: 5.0,5.0;" x1="976.5625" x2="976.5625" y1="183.2031" y2="1196.0693"/><line style="stroke: #b6bac2; stroke-width: 1.5625; stroke-dasharray: 5.0,5.0;" x1="1225" x2="1225" y1="183.2031" y2="1196.0693"/><text fill="#1c1f26" font-family="Inter, ui-sans-serif, system-ui, -apple-system, sans-serif" font-size="21.875" lengthAdjust="spacingAndGlyphs" textLength="59.375" x="12.5" y="178.0441">Klient</text><ellipse cx="46.875" cy="74.9268" fill="#f0eee8" rx="12.5" ry="12.5" style="stroke: #a2621c; stroke-width: 3.125;"/><path d="M46.875,87.4268 L46.875,129.6143 M26.5625,99.9268 L67.1875,99.9268 M46.875,129.6143 L26.5625,153.0518 M46.875,129.6143 L67.1875,153.0518 " fill="none" style="stroke: #a2621c; stroke-width: 3.125;"/><text fill="#1c1f26" font-family="Inter, ui-sans-serif, system-ui, -apple-system, sans-serif" font-size="21.875" lengthAdjust="spacingAndGlyphs" textLength="59.375" x="12.5" y="1214.8117">Klient</text><ellipse cx="46.875" cy="1235.5957" fill="#f0eee8" rx="12.5" ry="12.5" style="stroke: #a2621c; stroke-width: 3.125;"/><path d="M46.875,1248.0957 L46.875,1290.2832 M26.5625,1260.5957 L67.1875,1260.5957 M46.875,1290.2832 L26.5625,1313.7207 M46.875,1290.2832 L67.1875,1313.7207 " fill="none" style="stroke: #a2621c; stroke-width: 3.125;"/><rect fill="#f0eee8" height="72.8027" rx="4.6875" ry="4.6875" style="stroke: #b6bac2; stroke-width: 2.34375;" width="237.5" x="215.625" y="108.8379"/><text fill="#1c1f26" font-family="Inter, ui-sans-serif, system-ui, -apple-system, sans-serif" font-size="21.875" lengthAdjust="spacingAndGlyphs" textLength="117.1875" x="275.7813" y="140.0803">Application</text><text fill="#1c1f26" font-family="Inter, ui-sans-serif, system-ui, -apple-system, sans-serif" font-size="21.875" lengthAdjust="spacingAndGlyphs" textLength="215.625" x="226.5625" y="165.5441">(Command Handler)</text><rect fill="#f0eee8" height="72.8027" rx="4.6875" ry="4.6875" style="stroke: #b6bac2; stroke-width: 2.34375;" width="237.5" x="215.625" y="1194.5068"/><text fill="#1c1f26" font-family="Inter, ui-sans-serif, system-ui, -apple-system, sans-serif" font-size="21.875" lengthAdjust="spacingAndGlyphs" textLength="117.1875" x="275.7813" y="1225.7492">Application</text><text fill="#1c1f26" font-family="Inter, ui-sans-serif, system-ui, -apple-system, sans-serif" font-size="21.875" lengthAdjust="spacingAndGlyphs" textLength="215.625" x="226.5625" y="1251.2131">(Command Handler)</text><text fill="#1c1f26" font-family="Inter, ui-sans-serif, system-ui, -apple-system, sans-serif" font-size="21.875" lengthAdjust="spacingAndGlyphs" textLength="32.8125" x="785.1563" y="178.0441">DB</text><path d="M778.125,101.4893 C778.125,85.8643 806.25,85.8643 806.25,85.8643 C806.25,85.8643 834.375,85.8643 834.375,101.4893 L834.375,142.1143 C834.375,157.7393 806.25,157.7393 806.25,157.7393 C806.25,157.7393 778.125,157.7393 778.125,142.1143 L778.125,101.4893 " fill="#e6e3dc" style="stroke: #b6bac2; stroke-width: 2.34375;"/><path d="M778.125,101.4893 C778.125,117.1143 806.25,117.1143 806.25,117.1143 C806.25,117.1143 834.375,117.1143 834.375,101.4893 " fill="none" style="stroke: #b6bac2; stroke-width: 2.34375;"/><text fill="#1c1f26" font-family="Inter, ui-sans-serif, system-ui, -apple-system, sans-serif" font-size="21.875" lengthAdjust="spacingAndGlyphs" textLength="32.8125" x="785.1563" y="1214.8117">DB</text><path d="M778.125,1235.5957 C778.125,1219.9707 806.25,1219.9707 806.25,1219.9707 C806.25,1219.9707 834.375,1219.9707 834.375,1235.5957 L834.375,1276.2207 C834.375,1291.8457 806.25,1291.8457 806.25,1291.8457 C806.25,1291.8457 778.125,1291.8457 778.125,1276.2207 L778.125,1235.5957 " fill="#e6e3dc" style="stroke: #b6bac2; stroke-width: 2.34375;"/><path d="M778.125,1235.5957 C778.125,1251.2207 806.25,1251.2207 806.25,1251.2207 C806.25,1251.2207 834.375,1251.2207 834.375,1235.5957 " fill="none" style="stroke: #b6bac2; stroke-width: 2.34375;"/><path d="M895.3125,116.6504 L1057.8125,116.6504 C1065.625,116.6504 1065.625,149.9268 1065.625,149.9268 C1065.625,149.9268 1065.625,183.2031 1057.8125,183.2031 L895.3125,183.2031 C887.5,183.2031 887.5,149.9268 887.5,149.9268 C887.5,149.9268 887.5,116.6504 895.3125,116.6504 " fill="#e6e3dc" style="stroke: #A80036; stroke-width: 3.125;"/><path d="M1057.8125,116.6504 C1050,116.6504 1050,149.9268 1050,149.9268 C1050,183.2031 1057.8125,183.2031 1057.8125,183.2031 " fill="none" style="stroke: #A80036; stroke-width: 3.125;"/><text fill="#1c1f26" font-family="Inter, ui-sans-serif, system-ui, -apple-system, sans-serif" font-size="21.875" lengthAdjust="spacingAndGlyphs" textLength="78.125" x="929.6875" y="144.7678">Outbox</text><text fill="#1c1f26" font-family="Inter, ui-sans-serif, system-ui, -apple-system, sans-serif" font-size="21.875" lengthAdjust="spacingAndGlyphs" textLength="146.875" x="895.3125" y="170.2316">+ Messenger</text><path d="M895.3125,1194.5068 L1057.8125,1194.5068 C1065.625,1194.5068 1065.625,1227.7832 1065.625,1227.7832 C1065.625,1227.7832 1065.625,1261.0596 1057.8125,1261.0596 L895.3125,1261.0596 C887.5,1261.0596 887.5,1227.7832 887.5,1227.7832 C887.5,1227.7832 887.5,1194.5068 895.3125,1194.5068 " fill="#e6e3dc" style="stroke: #A80036; stroke-width: 3.125;"/><path d="M1057.8125,1194.5068 C1050,1194.5068 1050,1227.7832 1050,1227.7832 C1050,1261.0596 1057.8125,1261.0596 1057.8125,1261.0596 " fill="none" style="stroke: #A80036; stroke-width: 3.125;"/><text fill="#1c1f26" font-family="Inter, ui-sans-serif, system-ui, -apple-system, sans-serif" font-size="21.875" lengthAdjust="spacingAndGlyphs" textLength="78.125" x="929.6875" y="1222.6242">Outbox</text><text fill="#1c1f26" font-family="Inter, ui-sans-serif, system-ui, -apple-system, sans-serif" font-size="21.875" lengthAdjust="spacingAndGlyphs" textLength="146.875" x="895.3125" y="1248.0881">+ Messenger</text><rect fill="#f0eee8" height="72.8027" rx="4.6875" ry="4.6875" style="stroke: #b6bac2; stroke-width: 2.34375;" width="225" x="1112.5" y="108.8379"/><text fill="#1c1f26" font-family="Inter, ui-sans-serif, system-ui, -apple-system, sans-serif" font-size="21.875" lengthAdjust="spacingAndGlyphs" textLength="53.125" x="1198.4375" y="140.0803">Sága</text><text fill="#1c1f26" font-family="Inter, ui-sans-serif, system-ui, -apple-system, sans-serif" font-size="21.875" lengthAdjust="spacingAndGlyphs" textLength="203.125" x="1123.4375" y="165.5441">(Process Manager)</text><rect fill="#f0eee8" height="72.8027" rx="4.6875" ry="4.6875" style="stroke: #b6bac2; stroke-width: 2.34375;" width="225" x="1112.5" y="1194.5068"/><text fill="#1c1f26" font-family="Inter, ui-sans-serif, system-ui, -apple-system, sans-serif" font-size="21.875" lengthAdjust="spacingAndGlyphs" textLength="53.125" x="1198.4375" y="1225.7492">Sága</text><text fill="#1c1f26" font-family="Inter, ui-sans-serif, system-ui, -apple-system, sans-serif" font-size="21.875" lengthAdjust="spacingAndGlyphs" textLength="203.125" x="1123.4375" y="1251.2131">(Process Manager)</text><rect fill="#e6e3dc" height="4.6875" style="stroke: #e6e3dc; stroke-width: 1.5625;" width="1340.625" x="4.6875" y="231.8726"/><line style="stroke: #b6bac2; stroke-width: 1.5625;" x1="4.6875" x2="1345.3125" y1="231.8726" y2="231.8726"/><line style="stroke: #b6bac2; stroke-width: 1.5625;" x1="4.6875" x2="1345.3125" y1="236.5601" y2="236.5601"/><rect fill="#e6e3dc" height="37.9639" style="stroke: #b6bac2; stroke-width: 3.125;" width="445.3125" x="452.3438" y="214.4531"/><text fill="#4a5160" font-family="Inter, ui-sans-serif, system-ui, -apple-system, sans-serif" font-size="21.875" font-weight="bold" lengthAdjust="spacingAndGlyphs" textLength="415.625" x="461.7188" y="241.008">Transakce 1: změna v agregátu A</text><polygon fill="#a2621c" points="315.625,296.6309,331.25,302.8809,315.625,309.1309,321.875,302.8809" style="stroke: #a2621c; stroke-width: 1.5625;"/><line style="stroke: #a2621c; stroke-width: 2.34375;" x1="46.875" x2="325" y1="302.8809" y2="302.8809"/><text fill="#1c1f26" font-family="Inter, ui-sans-serif, system-ui, -apple-system, sans-serif" font-size="21.875" lengthAdjust="spacingAndGlyphs" textLength="193.75" x="57.8125" y="294.5969">PlaceOrder(items)</text><polygon fill="#a2621c" points="787.5,343.9697,803.125,350.2197,787.5,356.4697,793.75,350.2197" style="stroke: #a2621c; stroke-width: 1.5625;"/><line style="stroke: #a2621c; stroke-width: 2.34375;" x1="334.375" x2="796.875" y1="350.2197" y2="350.2197"/><text fill="#1c1f26" font-family="Inter, ui-sans-serif, system-ui, -apple-system, sans-serif" font-size="21.875" lengthAdjust="spacingAndGlyphs" textLength="60.9375" x="345.3125" y="341.9357">begin</text><polygon fill="#a2621c" points="787.5,416.7725,803.125,423.0225,787.5,429.2725,793.75,423.0225" style="stroke: #a2621c; stroke-width: 1.5625;"/><line style="stroke: #a2621c; stroke-width: 2.34375;" x1="334.375" x2="796.875" y1="423.0225" y2="423.0225"/><text fill="#1c1f26" font-family="Inter, ui-sans-serif, system-ui, -apple-system, sans-serif" font-size="21.875" lengthAdjust="spacingAndGlyphs" textLength="434.375" x="345.3125" y="389.2746">SELECT order WHERE id=? FOR UPDATE</text><text fill="#1c1f26" font-family="Inter, ui-sans-serif, system-ui, -apple-system, sans-serif" font-size="21.875" lengthAdjust="spacingAndGlyphs" textLength="168.75" x="345.3125" y="414.7385">(optimistic lock)</text><polygon fill="#a2621c" points="787.5,464.1113,803.125,470.3613,787.5,476.6113,793.75,470.3613" style="stroke: #a2621c; stroke-width: 1.5625;"/><line style="stroke: #a2621c; stroke-width: 2.34375;" x1="334.375" x2="796.875" y1="470.3613" y2="470.3613"/><text fill="#1c1f26" font-family="Inter, ui-sans-serif, system-ui, -apple-system, sans-serif" font-size="21.875" lengthAdjust="spacingAndGlyphs" textLength="214.0625" x="345.3125" y="462.0773">INSERT order, items</text><polygon fill="#a2621c" points="787.5,511.4502,803.125,517.7002,787.5,523.9502,793.75,517.7002" style="stroke: #a2621c; stroke-width: 1.5625;"/><line style="stroke: #a2621c; stroke-width: 2.34375;" x1="334.375" x2="796.875" y1="517.7002" y2="517.7002"/><text fill="#1c1f26" font-family="Inter, ui-sans-serif, system-ui, -apple-system, sans-serif" font-size="21.875" lengthAdjust="spacingAndGlyphs" textLength="307.8125" x="345.3125" y="509.4162">INSERT outbox(OrderPlaced)</text><polygon fill="#a2621c" points="787.5,558.7891,803.125,565.0391,787.5,571.2891,793.75,565.0391" style="stroke: #a2621c; stroke-width: 1.5625;"/><line style="stroke: #a2621c; stroke-width: 2.34375;" x1="334.375" x2="796.875" y1="565.0391" y2="565.0391"/><text fill="#1c1f26" font-family="Inter, ui-sans-serif, system-ui, -apple-system, sans-serif" font-size="21.875" lengthAdjust="spacingAndGlyphs" textLength="79.6875" x="345.3125" y="556.7551">commit</text><polygon fill="#a2621c" points="64.0625,606.1279,48.4375,612.3779,64.0625,618.6279,57.8125,612.3779" style="stroke: #a2621c; stroke-width: 1.5625;"/><line style="stroke: #a2621c; stroke-width: 2.34375; stroke-dasharray: 2.0,2.0;" x1="54.6875" x2="332.8125" y1="612.3779" y2="612.3779"/><text fill="#1c1f26" font-family="Inter, ui-sans-serif, system-ui, -apple-system, sans-serif" font-size="21.875" lengthAdjust="spacingAndGlyphs" textLength="250" x="73.4375" y="604.0939">202 Accepted (orderId)</text><rect fill="#e6e3dc" height="4.6875" style="stroke: #e6e3dc; stroke-width: 1.5625;" width="1340.625" x="4.6875" y="657.9224"/><line style="stroke: #b6bac2; stroke-width: 1.5625;" x1="4.6875" x2="1345.3125" y1="657.9224" y2="657.9224"/><line style="stroke: #b6bac2; stroke-width: 1.5625;" x1="4.6875" x2="1345.3125" y1="662.6099" y2="662.6099"/><rect fill="#e6e3dc" height="37.9639" style="stroke: #b6bac2; stroke-width: 3.125;" width="381.25" x="484.375" y="640.5029"/><text fill="#4a5160" font-family="Inter, ui-sans-serif, system-ui, -apple-system, sans-serif" font-size="21.875" font-weight="bold" lengthAdjust="spacingAndGlyphs" textLength="351.5625" x="493.75" y="667.0578">Asynchronně: relay outboxu</text><polygon fill="#a2621c" points="957.8125,722.6807,973.4375,728.9307,957.8125,735.1807,964.0625,728.9307" style="stroke: #a2621c; stroke-width: 1.5625;"/><line style="stroke: #a2621c; stroke-width: 2.34375;" x1="806.25" x2="967.1875" y1="728.9307" y2="728.9307"/><text fill="#1c1f26" font-family="Inter, ui-sans-serif, system-ui, -apple-system, sans-serif" font-size="21.875" lengthAdjust="spacingAndGlyphs" textLength="132.8125" x="817.1875" y="720.6467">OrderPlaced</text><rect fill="#e6e3dc" height="4.6875" style="stroke: #e6e3dc; stroke-width: 1.5625;" width="1340.625" x="4.6875" y="774.4751"/><line style="stroke: #b6bac2; stroke-width: 1.5625;" x1="4.6875" x2="1345.3125" y1="774.4751" y2="774.4751"/><line style="stroke: #b6bac2; stroke-width: 1.5625;" x1="4.6875" x2="1345.3125" y1="779.1626" y2="779.1626"/><rect fill="#e6e3dc" height="37.9639" style="stroke: #b6bac2; stroke-width: 3.125;" width="587.5" x="381.25" y="757.0557"/><text fill="#4a5160" font-family="Inter, ui-sans-serif, system-ui, -apple-system, sans-serif" font-size="21.875" font-weight="bold" lengthAdjust="spacingAndGlyphs" textLength="557.8125" x="390.625" y="783.6105">Transakce 2: reakce v agregátu B (oddělená)</text><polygon fill="#a2621c" points="1206.25,839.2334,1221.875,845.4834,1206.25,851.7334,1212.5,845.4834" style="stroke: #a2621c; stroke-width: 1.5625;"/><line style="stroke: #a2621c; stroke-width: 2.34375;" x1="976.5625" x2="1215.625" y1="845.4834" y2="845.4834"/><text fill="#1c1f26" font-family="Inter, ui-sans-serif, system-ui, -apple-system, sans-serif" font-size="21.875" lengthAdjust="spacingAndGlyphs" textLength="132.8125" x="987.5" y="837.1994">OrderPlaced</text><polygon fill="#a2621c" points="823.4375,886.5723,807.8125,892.8223,823.4375,899.0723,817.1875,892.8223" style="stroke: #a2621c; stroke-width: 1.5625;"/><line style="stroke: #a2621c; stroke-width: 2.34375;" x1="814.0625" x2="1223.4375" y1="892.8223" y2="892.8223"/><text fill="#1c1f26" font-family="Inter, ui-sans-serif, system-ui, -apple-system, sans-serif" font-size="21.875" lengthAdjust="spacingAndGlyphs" textLength="60.9375" x="832.8125" y="884.5383">begin</text><polygon fill="#a2621c" points="823.4375,959.375,807.8125,965.625,823.4375,971.875,817.1875,965.625" style="stroke: #a2621c; stroke-width: 1.5625;"/><line style="stroke: #a2621c; stroke-width: 2.34375;" x1="814.0625" x2="1223.4375" y1="965.625" y2="965.625"/><text fill="#1c1f26" font-family="Inter, ui-sans-serif, system-ui, -apple-system, sans-serif" font-size="21.875" lengthAdjust="spacingAndGlyphs" textLength="381.25" x="832.8125" y="931.8771">UPDATE inventory SET reserved=...</text><text fill="#1c1f26" font-family="Inter, ui-sans-serif, system-ui, -apple-system, sans-serif" font-size="21.875" lengthAdjust="spacingAndGlyphs" textLength="300" x="832.8125" y="957.341">(jiný agregát, jiná transakce)</text><polygon fill="#a2621c" points="823.4375,1006.7139,807.8125,1012.9639,823.4375,1019.2139,817.1875,1012.9639" style="stroke: #a2621c; stroke-width: 1.5625;"/><line style="stroke: #a2621c; stroke-width: 2.34375;" x1="814.0625" x2="1223.4375" y1="1012.9639" y2="1012.9639"/><text fill="#1c1f26" font-family="Inter, ui-sans-serif, system-ui, -apple-system, sans-serif" font-size="21.875" lengthAdjust="spacingAndGlyphs" textLength="376.5625" x="832.8125" y="1004.6799">INSERT outbox(InventoryReserved)</text><polygon fill="#a2621c" points="823.4375,1054.0527,807.8125,1060.3027,823.4375,1066.5527,817.1875,1060.3027" style="stroke: #a2621c; stroke-width: 1.5625;"/><line style="stroke: #a2621c; stroke-width: 2.34375;" x1="814.0625" x2="1223.4375" y1="1060.3027" y2="1060.3027"/><text fill="#1c1f26" font-family="Inter, ui-sans-serif, system-ui, -apple-system, sans-serif" font-size="21.875" lengthAdjust="spacingAndGlyphs" textLength="79.6875" x="832.8125" y="1052.0187">commit</text><path d="M221.875,1085.3027 L221.875,1166.5527 A4.6875,4.6875 0 0 0 226.5625,1171.2402 L1331.25,1171.2402 A4.6875,4.6875 0 0 0 1335.9375,1166.5527 L1335.9375,1096.2402 L1320.3125,1080.6152 L226.5625,1080.6152 A4.6875,4.6875 0 0 0 221.875,1085.3027 " fill="#e6e3dc" style="stroke: #b6bac2; stroke-width: 1.5625;"/><path d="M1320.3125,1080.6152 L1320.3125,1093.8965 A2.3438,2.3438 0 0 0 1322.6563,1096.2402 L1335.9375,1096.2402 L1320.3125,1080.6152 " fill="#e6e3dc" style="stroke: #b6bac2; stroke-width: 1.5625;"/><text fill="#4a5160" font-family="Inter, ui-sans-serif, system-ui, -apple-system, sans-serif" font-size="21.875" lengthAdjust="spacingAndGlyphs" textLength="323.4375" x="617.1875" y="1108.7326">Žádná transakce nepřesahuje</text><text fill="#4a5160" font-family="Inter, ui-sans-serif, system-ui, -apple-system, sans-serif" font-size="21.875" lengthAdjust="spacingAndGlyphs" textLength="282.8125" x="637.5" y="1134.1965">hranici agregátu. Ságy řeší</text><text fill="#4a5160" font-family="Inter, ui-sans-serif, system-ui, -apple-system, sans-serif" font-size="21.875" lengthAdjust="spacingAndGlyphs" textLength="287.5" x="635.1563" y="1159.6603">konzistenci mezi agregáty.</text><!--MD5=[e6661033d4104ba4627005d355fa9b85]
@startuml transaction_flow
skinparam dpi 150
skinparam backgroundColor #fcfbf9
skinparam shadowing false
skinparam roundCorner 6

skinparam defaultFontName "DejaVu Sans"
skinparam defaultFontSize 14
skinparam defaultFontColor #1c1f26
skinparam defaultTextAlignment center


skinparam ArrowColor #a2621c
skinparam ArrowFontColor #1c1f26
skinparam ArrowThickness 1.5

skinparam node {
  BackgroundColor #f0eee8
  BorderColor #b6bac2
  FontColor #1c1f26
}

skinparam component {
  BackgroundColor #f0eee8
  BorderColor #b6bac2
  FontColor #1c1f26
}

skinparam rectangle {
  BackgroundColor #f0eee8
  BorderColor #b6bac2
  FontColor #1c1f26
}

skinparam package {
  BackgroundColor #fcfbf9
  BorderColor #a2621c
  FontColor #a2621c
}

skinparam folder {
  BackgroundColor #f0eee8
  BorderColor #b6bac2
  FontColor #1c1f26
}

skinparam frame {
  BackgroundColor #f0eee8
  BorderColor #b6bac2
  FontColor #1c1f26
}

skinparam database {
  BackgroundColor #e6e3dc
  BorderColor #b6bac2
  FontColor #1c1f26
}

skinparam queue {
  BackgroundColor #e6e3dc
  BorderColor #b6bac2
  FontColor #1c1f26
}

skinparam cloud {
  BackgroundColor #e6e3dc
  BorderColor #b6bac2
  FontColor #1c1f26
}

skinparam actor {
  BackgroundColor #f0eee8
  BorderColor #a2621c
  FontColor #1c1f26
}

skinparam usecase {
  BackgroundColor #f0eee8
  BorderColor #b6bac2
  FontColor #1c1f26
}

skinparam class {
  BackgroundColor #f0eee8
  BorderColor #b6bac2
  HeaderBackgroundColor #e6e3dc
  ArrowColor #a2621c
  FontColor #1c1f26
  AttributeFontColor #4a5160
  StereotypeFontColor #a2621c
}

skinparam object {
  BackgroundColor #f0eee8
  BorderColor #b6bac2
  FontColor #1c1f26
}

skinparam sequence {
  ParticipantBackgroundColor #f0eee8
  ParticipantBorderColor #b6bac2
  ParticipantFontColor #1c1f26
  ActorBackgroundColor #f0eee8
  ActorBorderColor #a2621c
  ActorFontColor #1c1f26
  LifeLineBorderColor #b6bac2
  LifeLineBackgroundColor #e6e3dc
  ArrowColor #a2621c
  ArrowFontColor #1c1f26
  GroupBackgroundColor #e6e3dc
  GroupBorderColor #b6bac2
  GroupFontColor #4a5160
  GroupHeaderFontColor #a2621c
  BoxBackgroundColor #fcfbf9
  BoxBorderColor #a2621c
  BoxFontColor #a2621c
  DividerBackgroundColor #e6e3dc
  DividerBorderColor #b6bac2
  DividerFontColor #4a5160
  ReferenceBackgroundColor #f0eee8
  ReferenceBorderColor #b6bac2
  ReferenceFontColor #1c1f26
  ReferenceHeaderBackgroundColor #e6e3dc
  StereotypeFontColor #a2621c
}

skinparam state {
  BackgroundColor #f0eee8
  BorderColor #b6bac2
  FontColor #1c1f26
  StartColor #a2621c
  EndColor #a2621c
  ArrowColor #a2621c
  AttributeFontColor #4a5160
}

skinparam activity {
  BackgroundColor #f0eee8
  BorderColor #b6bac2
  FontColor #1c1f26
  ArrowColor #a2621c
  StartColor #a2621c
  EndColor #a2621c
  BarColor #a2621c
  DiamondBackgroundColor #e6e3dc
  DiamondBorderColor #b6bac2
  DiamondFontColor #1c1f26
}

skinparam note {
  BackgroundColor #e6e3dc
  BorderColor #b6bac2
  FontColor #4a5160
}

skinparam title {
  FontColor #1c1f26
  FontSize 18
}

skinparam legend {
  BackgroundColor #f0eee8
  BorderColor #b6bac2
  FontColor #4a5160
}

skinparam caption {
  FontColor #4a5160
}

skinparam stereotype {
  CBackgroundColor #e6e3dc
  CBorderColor #a2621c
  ABackgroundColor #e6e3dc
  ABorderColor #a2621c
  IBackgroundColor #e6e3dc
  IBorderColor #a2621c
  EBackgroundColor #e6e3dc
  EBorderColor #a2621c
}

title Tok transakce: jeden agregát na transakci + sága přes events

actor "Klient" as user
participant "Application\n(Command Handler)" as app
database "DB" as db
queue "Outbox\n+ Messenger" as bus
participant "Sága\n(Process Manager)" as saga

== Transakce 1: změna v agregátu A ==
user -> app : PlaceOrder(items)
app -> db : begin
app -> db : SELECT order WHERE id=? FOR UPDATE\n(optimistic lock)
app -> db : INSERT order, items
app -> db : INSERT outbox(OrderPlaced)
app -> db : commit
app - -> user : 202 Accepted (orderId)

== Asynchronně: relay outboxu ==
db -> bus : OrderPlaced

== Transakce 2: reakce v agregátu B (oddělená) ==
bus -> saga : OrderPlaced
saga -> db : begin
saga -> db : UPDATE inventory SET reserved=...\n(jiný agregát, jiná transakce)
saga -> db : INSERT outbox(InventoryReserved)
saga -> db : commit

note over app, saga
  Žádná transakce nepřesahuje
  hranici agregátu. Ságy řeší
  konzistenci mezi agregáty.
end note

@enduml

PlantUML version 1.2020.02(Sun Mar 01 11:22:07 CET 2020)
(GPL source distribution)
Java Runtime: OpenJDK Runtime Environment
JVM: OpenJDK 64-Bit Server VM
Java Version: 21.0.10+7-Debian-1deb13u1
Operating System: Linux
Default Encoding: UTF-8
Language: cs
Country: CZ
--></g></svg>