<?xml version="1.0" encoding="UTF-8" standalone="no"?><svg xmlns="http://www.w3.org/2000/svg" xmlns:xlink="http://www.w3.org/1999/xlink" contentScriptType="application/ecmascript" contentStyleType="text/css" height="876.5625px" preserveAspectRatio="none" style="width:1698px;height:876px;background:#11141A;" version="1.1" viewBox="0 0 1698 876" width="1698.4375px" zoomAndPan="magnify"><defs/><g><!--MD5=[01274792baeebd3c441234f33714d53c]
cluster E-shop--><path d="M39.0625,37.5 L123.4375,37.5 A7.0313,7.0313 0 0 1 128.125,42.1875 L139.0625,72.3389 L1675,72.3389 A4.6875,4.6875 0 0 1 1679.6875,77.0264 L1679.6875,853.125 A4.6875,4.6875 0 0 1 1675,857.8125 L39.0625,857.8125 A4.6875,4.6875 0 0 1 34.375,853.125 L34.375,42.1875 A4.6875,4.6875 0 0 1 39.0625,37.5 " fill="#11141A" style="stroke: #F0A456; stroke-width: 2.34375;"/><line style="stroke: #F0A456; stroke-width: 2.34375;" x1="34.375" x2="139.0625" y1="72.3389" y2="72.3389"/><text fill="#F0A456" font-family="Inter, ui-sans-serif, system-ui, -apple-system, sans-serif" font-size="21.875" font-weight="bold" lengthAdjust="spacingAndGlyphs" textLength="84.375" x="40.625" y="60.9299">E-shop</text><!--MD5=[5fbd86468cfbb2e78d0fb41bea2bd18d]
cluster Katalog zboží--><path d="M1267.1875,104.6875 L1432.8125,104.6875 A7.0313,7.0313 0 0 1 1437.5,109.375 L1448.4375,139.5264 L1637.5,139.5264 A4.6875,4.6875 0 0 1 1642.1875,144.2139 L1642.1875,660.9375 A4.6875,4.6875 0 0 1 1637.5,665.625 L1267.1875,665.625 A4.6875,4.6875 0 0 1 1262.5,660.9375 L1262.5,109.375 A4.6875,4.6875 0 0 1 1267.1875,104.6875 " fill="#11141A" style="stroke: #F0A456; stroke-width: 2.34375;"/><line style="stroke: #F0A456; stroke-width: 2.34375;" x1="1262.5" x2="1448.4375" y1="139.5264" y2="139.5264"/><text fill="#F0A456" font-family="Inter, ui-sans-serif, system-ui, -apple-system, sans-serif" font-size="21.875" font-weight="bold" lengthAdjust="spacingAndGlyphs" textLength="165.625" x="1268.75" y="128.1174">Katalog zboží</text><!--MD5=[5e308cd5ecd788e3156f90c665007896]
cluster Objednávky--><path d="M518.75,315.625 L662.5,315.625 A7.0313,7.0313 0 0 1 667.1875,320.3125 L678.125,350.4639 L1220.3125,350.4639 A4.6875,4.6875 0 0 1 1225,355.1514 L1225,660.9375 A4.6875,4.6875 0 0 1 1220.3125,665.625 L518.75,665.625 A4.6875,4.6875 0 0 1 514.0625,660.9375 L514.0625,320.3125 A4.6875,4.6875 0 0 1 518.75,315.625 " fill="#11141A" style="stroke: #F0A456; stroke-width: 2.34375;"/><line style="stroke: #F0A456; stroke-width: 2.34375;" x1="514.0625" x2="678.125" y1="350.4639" y2="350.4639"/><text fill="#F0A456" font-family="Inter, ui-sans-serif, system-ui, -apple-system, sans-serif" font-size="21.875" font-weight="bold" lengthAdjust="spacingAndGlyphs" textLength="143.75" x="520.3125" y="339.0549">Objednávky</text><!--MD5=[c59dae85cf46f77792501348f4aff715]
cluster Zákazníci--><path d="M179.6875,104.6875 L295.3125,104.6875 A7.0313,7.0313 0 0 1 300,109.375 L310.9375,139.5264 L471.875,139.5264 A4.6875,4.6875 0 0 1 476.5625,144.2139 L476.5625,446.875 A4.6875,4.6875 0 0 1 471.875,451.5625 L179.6875,451.5625 A4.6875,4.6875 0 0 1 175,446.875 L175,109.375 A4.6875,4.6875 0 0 1 179.6875,104.6875 " fill="#11141A" style="stroke: #F0A456; stroke-width: 2.34375;"/><line style="stroke: #F0A456; stroke-width: 2.34375;" x1="175" x2="310.9375" y1="139.5264" y2="139.5264"/><text fill="#F0A456" font-family="Inter, ui-sans-serif, system-ui, -apple-system, sans-serif" font-size="21.875" font-weight="bold" lengthAdjust="spacingAndGlyphs" textLength="115.625" x="181.25" y="128.1174">Zákazníci</text><!--MD5=[4816ce9ca90fa336371462d7c0081a83]
cluster Fakturace--><path d="M76.5625,529.6875 L198.4375,529.6875 A7.0313,7.0313 0 0 1 203.125,534.375 L214.0625,564.5264 L471.875,564.5264 A4.6875,4.6875 0 0 1 476.5625,569.2139 L476.5625,815.625 A4.6875,4.6875 0 0 1 471.875,820.3125 L76.5625,820.3125 A4.6875,4.6875 0 0 1 71.875,815.625 L71.875,534.375 A4.6875,4.6875 0 0 1 76.5625,529.6875 " fill="#11141A" style="stroke: #F0A456; stroke-width: 2.34375;"/><line style="stroke: #F0A456; stroke-width: 2.34375;" x1="71.875" x2="214.0625" y1="564.5264" y2="564.5264"/><text fill="#F0A456" font-family="Inter, ui-sans-serif, system-ui, -apple-system, sans-serif" font-size="21.875" font-weight="bold" lengthAdjust="spacingAndGlyphs" textLength="121.875" x="78.125" y="553.1174">Fakturace</text><!--MD5=[b194b51e461be5a1d725dea85756763b]
entity KZ--><rect fill="#161A22" height="56.7139" rx="4.6875" ry="4.6875" style="stroke: #3D424E; stroke-width: 2.34375;" width="110.9375" x="1289.8438" y="159.375"/><rect fill="#161A22" height="7.8125" style="stroke: #3D424E; stroke-width: 2.34375;" width="15.625" x="1282.0313" y="167.1875"/><rect fill="#161A22" height="7.8125" style="stroke: #3D424E; stroke-width: 2.34375;" width="15.625" x="1282.0313" y="200.4639"/><text fill="#E6E8EC" font-family="Inter, ui-sans-serif, system-ui, -apple-system, sans-serif" font-size="21.875" lengthAdjust="spacingAndGlyphs" textLength="79.6875" x="1305.4688" y="195.3049">Katalog</text><!--MD5=[626ad08abde0879284d52f51a0eb42aa]
entity P--><rect fill="#161A22" height="56.7139" rx="4.6875" ry="4.6875" style="stroke: #3D424E; stroke-width: 2.34375;" width="115.625" x="1287.5" y="370.3125"/><rect fill="#161A22" height="7.8125" style="stroke: #3D424E; stroke-width: 2.34375;" width="15.625" x="1279.6875" y="378.125"/><rect fill="#161A22" height="7.8125" style="stroke: #3D424E; stroke-width: 2.34375;" width="15.625" x="1279.6875" y="411.4014"/><text fill="#E6E8EC" font-family="Inter, ui-sans-serif, system-ui, -apple-system, sans-serif" font-size="21.875" lengthAdjust="spacingAndGlyphs" textLength="84.375" x="1303.125" y="406.2424">Produkt</text><!--MD5=[5e3a54572c94ef26dc7725dc7faffc83]
entity K--><rect fill="#161A22" height="56.7139" rx="4.6875" ry="4.6875" style="stroke: #3D424E; stroke-width: 2.34375;" width="134.375" x="1287.5" y="584.375"/><rect fill="#161A22" height="7.8125" style="stroke: #3D424E; stroke-width: 2.34375;" width="15.625" x="1279.6875" y="592.1875"/><rect fill="#161A22" height="7.8125" style="stroke: #3D424E; stroke-width: 2.34375;" width="15.625" x="1279.6875" y="625.4639"/><text fill="#E6E8EC" font-family="Inter, ui-sans-serif, system-ui, -apple-system, sans-serif" font-size="21.875" lengthAdjust="spacingAndGlyphs" textLength="103.125" x="1303.125" y="620.3049">Kategorie</text><!--MD5=[9c35c66068622dad62ecac52c54c307b]
entity V--><rect fill="#161A22" height="56.7139" rx="4.6875" ry="4.6875" style="stroke: #3D424E; stroke-width: 2.34375;" width="157.8125" x="1458.5938" y="370.3125"/><rect fill="#161A22" height="7.8125" style="stroke: #3D424E; stroke-width: 2.34375;" width="15.625" x="1450.7813" y="378.125"/><rect fill="#161A22" height="7.8125" style="stroke: #3D424E; stroke-width: 2.34375;" width="15.625" x="1450.7813" y="411.4014"/><text fill="#E6E8EC" font-family="Inter, ui-sans-serif, system-ui, -apple-system, sans-serif" font-size="21.875" lengthAdjust="spacingAndGlyphs" textLength="126.5625" x="1474.2188" y="406.2424">Vyhledávání</text><!--MD5=[36e7cd95dd69b8fc9c44ee72248e17a6]
entity O--><rect fill="#161A22" height="56.7139" rx="4.6875" ry="4.6875" style="stroke: #3D424E; stroke-width: 2.34375;" width="157.8125" x="542.9688" y="370.3125"/><rect fill="#161A22" height="7.8125" style="stroke: #3D424E; stroke-width: 2.34375;" width="15.625" x="535.1563" y="378.125"/><rect fill="#161A22" height="7.8125" style="stroke: #3D424E; stroke-width: 2.34375;" width="15.625" x="535.1563" y="411.4014"/><text fill="#E6E8EC" font-family="Inter, ui-sans-serif, system-ui, -apple-system, sans-serif" font-size="21.875" lengthAdjust="spacingAndGlyphs" textLength="126.5625" x="558.5938" y="406.2424">Objednávka</text><!--MD5=[69d8d45188bfd87ac85d18be3b70c704]
entity OP--><rect fill="#161A22" height="56.7139" rx="4.6875" ry="4.6875" style="stroke: #3D424E; stroke-width: 2.34375;" width="243.75" x="956.25" y="584.375"/><rect fill="#161A22" height="7.8125" style="stroke: #3D424E; stroke-width: 2.34375;" width="15.625" x="948.4375" y="592.1875"/><rect fill="#161A22" height="7.8125" style="stroke: #3D424E; stroke-width: 2.34375;" width="15.625" x="948.4375" y="625.4639"/><text fill="#E6E8EC" font-family="Inter, ui-sans-serif, system-ui, -apple-system, sans-serif" font-size="21.875" lengthAdjust="spacingAndGlyphs" textLength="212.5" x="971.875" y="620.3049">Položka objednávky</text><!--MD5=[118f42602524ad482f02b27ef22fc383]
entity D--><rect fill="#161A22" height="56.7139" rx="4.6875" ry="4.6875" style="stroke: #3D424E; stroke-width: 2.34375;" width="120.3125" x="539.8438" y="584.375"/><rect fill="#161A22" height="7.8125" style="stroke: #3D424E; stroke-width: 2.34375;" width="15.625" x="532.0313" y="592.1875"/><rect fill="#161A22" height="7.8125" style="stroke: #3D424E; stroke-width: 2.34375;" width="15.625" x="532.0313" y="625.4639"/><text fill="#E6E8EC" font-family="Inter, ui-sans-serif, system-ui, -apple-system, sans-serif" font-size="21.875" lengthAdjust="spacingAndGlyphs" textLength="89.0625" x="555.4688" y="620.3049">Doprava</text><!--MD5=[82938215ffa17339289e6d1ab32e6364]
entity Z--><rect fill="#161A22" height="56.7139" rx="4.6875" ry="4.6875" style="stroke: #3D424E; stroke-width: 2.34375;" width="185.9375" x="714.8438" y="584.375"/><rect fill="#161A22" height="7.8125" style="stroke: #3D424E; stroke-width: 2.34375;" width="15.625" x="707.0313" y="592.1875"/><rect fill="#161A22" height="7.8125" style="stroke: #3D424E; stroke-width: 2.34375;" width="15.625" x="707.0313" y="625.4639"/><text fill="#E6E8EC" font-family="Inter, ui-sans-serif, system-ui, -apple-system, sans-serif" font-size="21.875" lengthAdjust="spacingAndGlyphs" textLength="154.6875" x="730.4688" y="620.3049">Způsob platby</text><!--MD5=[36ef3a8f09874c0be5beaacf173b5239]
entity ZA--><rect fill="#161A22" height="56.7139" rx="4.6875" ry="4.6875" style="stroke: #3D424E; stroke-width: 2.34375;" width="128.125" x="323.4375" y="159.375"/><rect fill="#161A22" height="7.8125" style="stroke: #3D424E; stroke-width: 2.34375;" width="15.625" x="315.625" y="167.1875"/><rect fill="#161A22" height="7.8125" style="stroke: #3D424E; stroke-width: 2.34375;" width="15.625" x="315.625" y="200.4639"/><text fill="#E6E8EC" font-family="Inter, ui-sans-serif, system-ui, -apple-system, sans-serif" font-size="21.875" lengthAdjust="spacingAndGlyphs" textLength="96.875" x="339.0625" y="195.3049">Zákazník</text><!--MD5=[770389ab9df153645bc6ef28055eb2b5]
entity A--><rect fill="#161A22" height="56.7139" rx="4.6875" ry="4.6875" style="stroke: #3D424E; stroke-width: 2.34375;" width="106.25" x="200" y="370.3125"/><rect fill="#161A22" height="7.8125" style="stroke: #3D424E; stroke-width: 2.34375;" width="15.625" x="192.1875" y="378.125"/><rect fill="#161A22" height="7.8125" style="stroke: #3D424E; stroke-width: 2.34375;" width="15.625" x="192.1875" y="411.4014"/><text fill="#E6E8EC" font-family="Inter, ui-sans-serif, system-ui, -apple-system, sans-serif" font-size="21.875" lengthAdjust="spacingAndGlyphs" textLength="75" x="215.625" y="406.2424">Adresa</text><!--MD5=[6a4401a12de1030cb5e222f8b7d2d3ed]
entity KO--><rect fill="#161A22" height="56.7139" rx="4.6875" ry="4.6875" style="stroke: #3D424E; stroke-width: 2.34375;" width="89.0625" x="361.7188" y="370.3125"/><rect fill="#161A22" height="7.8125" style="stroke: #3D424E; stroke-width: 2.34375;" width="15.625" x="353.9063" y="378.125"/><rect fill="#161A22" height="7.8125" style="stroke: #3D424E; stroke-width: 2.34375;" width="15.625" x="353.9063" y="411.4014"/><text fill="#E6E8EC" font-family="Inter, ui-sans-serif, system-ui, -apple-system, sans-serif" font-size="21.875" lengthAdjust="spacingAndGlyphs" textLength="57.8125" x="377.3438" y="406.2424">Košík</text><!--MD5=[22029b2902cbfefb11350e8ee6e306b3]
entity F--><rect fill="#161A22" height="56.7139" rx="4.6875" ry="4.6875" style="stroke: #3D424E; stroke-width: 2.34375;" width="110.9375" x="333.5938" y="584.375"/><rect fill="#161A22" height="7.8125" style="stroke: #3D424E; stroke-width: 2.34375;" width="15.625" x="325.7813" y="592.1875"/><rect fill="#161A22" height="7.8125" style="stroke: #3D424E; stroke-width: 2.34375;" width="15.625" x="325.7813" y="625.4639"/><text fill="#E6E8EC" font-family="Inter, ui-sans-serif, system-ui, -apple-system, sans-serif" font-size="21.875" lengthAdjust="spacingAndGlyphs" textLength="79.6875" x="349.2188" y="620.3049">Faktura</text><!--MD5=[877d572b3faf713582ff96d0839c9d50]
entity FA--><rect fill="#161A22" height="56.7139" rx="4.6875" ry="4.6875" style="stroke: #3D424E; stroke-width: 2.34375;" width="221.875" x="96.875" y="739.0625"/><rect fill="#161A22" height="7.8125" style="stroke: #3D424E; stroke-width: 2.34375;" width="15.625" x="89.0625" y="746.875"/><rect fill="#161A22" height="7.8125" style="stroke: #3D424E; stroke-width: 2.34375;" width="15.625" x="89.0625" y="780.1514"/><text fill="#E6E8EC" font-family="Inter, ui-sans-serif, system-ui, -apple-system, sans-serif" font-size="21.875" lengthAdjust="spacingAndGlyphs" textLength="190.625" x="112.5" y="774.9924">Fakturační adresa</text><!--MD5=[39a5f41ac71bde263965384495b375a1]
entity DPH--><rect fill="#161A22" height="56.7139" rx="4.6875" ry="4.6875" style="stroke: #3D424E; stroke-width: 2.34375;" width="78.125" x="373.4375" y="739.0625"/><rect fill="#161A22" height="7.8125" style="stroke: #3D424E; stroke-width: 2.34375;" width="15.625" x="365.625" y="746.875"/><rect fill="#161A22" height="7.8125" style="stroke: #3D424E; stroke-width: 2.34375;" width="15.625" x="365.625" y="780.1514"/><text fill="#E6E8EC" font-family="Inter, ui-sans-serif, system-ui, -apple-system, sans-serif" font-size="21.875" lengthAdjust="spacingAndGlyphs" textLength="46.875" x="389.0625" y="774.9924">DPH</text><!--MD5=[de3f128a954ce63c8277ac618aa08dda]
link KZ to O--><path d="M1289.4844,198.5 C1220.4688,210.7031 1099.7188,233.8438 998.4375,262.5 C891.5625,292.7344 771.1875,337.6719 695.9375,367.1094 " fill="none" id="KZ-&gt;O" style="stroke: #F0A456; stroke-width: 3.125;"/><polygon fill="#F0A456" points="688.3438,370.0938,703.7176,370.7719,695.6158,367.2385,699.1492,359.1366,688.3438,370.0938" style="stroke: #F0A456; stroke-width: 3.125;"/><text fill="#E6E8EC" font-family="Inter, ui-sans-serif, system-ui, -apple-system, sans-serif" font-size="21.875" lengthAdjust="spacingAndGlyphs" textLength="331.25" x="1000" y="284.3674">Upstream / Downstream (OHS)</text><!--MD5=[b866983dcf2942beed82cfcb670c9522]
link ZA to O--><path d="M438.3594,215.8906 C460.2969,228.6094 485.6094,244.8594 506.25,262.5 C544.625,295.2813 581.2813,341.2188 602.6719,369.9844 " fill="none" id="ZA-O" style="stroke: #F0A456; stroke-width: 3.125;"/><text fill="#E6E8EC" font-family="Inter, ui-sans-serif, system-ui, -apple-system, sans-serif" font-size="21.875" lengthAdjust="spacingAndGlyphs" textLength="123.4375" x="535.9375" y="284.3674">Partnership</text><!--MD5=[b866983dcf2942beed82cfcb670c9522]
link ZA to O--><path d="M416.9844,215.9375 C439.6094,236.4844 471.6563,265.4844 500,290.625 C528.2656,315.7031 560.5,343.7813 584.7188,364.7656 " fill="none" id="ZA-&gt;O" style="stroke: #A6ADBB; stroke-width: 2.34375; stroke-dasharray: 7.0,7.0;"/><polygon fill="#A6ADBB" points="590.6875,369.9531,584.16,356.0173,584.7859,364.8339,575.9692,365.4599,590.6875,369.9531" style="stroke: #A6ADBB; stroke-width: 2.34375;"/><!--MD5=[68473bf1472f16a06ce027dd6e4e211d]
link O to F--><path d="M570.7344,426.8281 C543.4688,440.0313 508.9531,455 476.5625,464.0625 C455.9844,469.8125 395.3438,460.5 381.25,476.5625 C357.7188,503.375 365.0313,545.9844 374.7656,576.0313 " fill="none" id="O-&gt;F" style="stroke: #F0A456; stroke-width: 3.125;"/><polygon fill="#F0A456" points="377.5469,584.1406,378.8769,568.8094,375.0028,576.754,367.0582,572.8799,377.5469,584.1406" style="stroke: #F0A456; stroke-width: 3.125;"/><text fill="#E6E8EC" font-family="Inter, ui-sans-serif, system-ui, -apple-system, sans-serif" font-size="21.875" lengthAdjust="spacingAndGlyphs" textLength="214.0625" x="382.8125" y="498.4299">Customer / Supplier</text><!--MD5=[68473bf1472f16a06ce027dd6e4e211d]
link O to F--><path d="M621,426.7656 C619.5156,454.1406 615.5,494.1406 604.6875,504.6875 C575.5781,533.0625 551.6719,501.7188 514.0625,517.1875 C479.6719,531.3438 446.25,557.2188 422.6406,578.2188 " fill="none" id="O-&gt;F-1" style="stroke: #A6ADBB; stroke-width: 2.34375; stroke-dasharray: 7.0,7.0;"/><polygon fill="#A6ADBB" points="416.25,583.9844,430.8836,579.2226,422.057,578.7581,422.5215,569.9315,416.25,583.9844" style="stroke: #A6ADBB; stroke-width: 2.34375;"/><!--MD5=[01df2a1d023f4d646790993594aa3144]
link KZ to P--><path d="M1345.3125,215.8125 C1345.3125,253.2188 1345.3125,321.1875 1345.3125,362.375 " fill="none" id="KZ-&gt;P" style="stroke: #F0A456; stroke-width: 2.34375;"/><polygon fill="#F0A456" points="1345.3125,370.2344,1351.5625,356.1719,1345.3125,362.4219,1339.0625,356.1719,1345.3125,370.2344" style="stroke: #F0A456; stroke-width: 2.34375;"/><!--MD5=[6455cc92569474d37d1a0ce850327d55]
link P to K--><path d="M1346.5,426.7188 C1348.1875,464.5469 1351.2656,533.7813 1353.125,575.7656 " fill="none" id="P-&gt;K" style="stroke: #F0A456; stroke-width: 2.34375;"/><polygon fill="#F0A456" points="1353.4844,583.7656,1359.0838,569.4316,1353.1266,575.9613,1346.5969,570.0041,1353.4844,583.7656" style="stroke: #F0A456; stroke-width: 2.34375;"/><!--MD5=[14c4d5d9f6795d20bcc008473717de9e]
link KZ to V--><path d="M1370.0469,215.8125 C1405.2188,253.8437 1469.6094,323.4688 1507.4688,364.4063 " fill="none" id="KZ-&gt;V" style="stroke: #F0A456; stroke-width: 2.34375;"/><polygon fill="#F0A456" points="1512.8594,370.2344,1507.8901,355.67,1507.5511,364.5023,1498.7187,364.1633,1512.8594,370.2344" style="stroke: #F0A456; stroke-width: 2.34375;"/><!--MD5=[c2e3eaef6980d5cc4251956157bb6a09]
link O to OP--><path d="M701.0625,425.5781 C763.9688,447 853.4688,480.0156 928.125,517.1875 C964.625,535.3594 1003.5937,559.8906 1032.6719,579.3125 " fill="none" id="O-&gt;OP" style="stroke: #F0A456; stroke-width: 2.34375;"/><polygon fill="#F0A456" points="1039.8438,584.125,1031.6925,571.0723,1033.371,579.7503,1024.693,581.4287,1039.8438,584.125" style="stroke: #F0A456; stroke-width: 2.34375;"/><!--MD5=[110e2b18f6feeaf5d1518e512f833703]
link O to D--><path d="M620.9219,426.7344 C620,447.9063 618.3594,478.25 615.625,504.6875 C613.1563,528.5938 609.2188,555.3594 605.9063,576.0469 " fill="none" id="O-&gt;D" style="stroke: #F0A456; stroke-width: 2.34375;"/><polygon fill="#F0A456" points="604.625,583.9375,613.0415,571.0542,605.8732,576.2254,600.7021,569.0571,604.625,583.9375" style="stroke: #F0A456; stroke-width: 2.34375;"/><!--MD5=[71188557432cdf3f66bbb080f845f20c]
link O to Z--><path d="M645.4219,426.7188 C679.3281,465.1719 741.8438,536.0938 778.6406,577.8281 " fill="none" id="O-&gt;Z" style="stroke: #F0A456; stroke-width: 2.34375;"/><polygon fill="#F0A456" points="783.875,583.7656,779.263,569.0841,778.7083,577.9056,769.8869,577.3509,783.875,583.7656" style="stroke: #F0A456; stroke-width: 2.34375;"/><!--MD5=[8daddd1fc3bdb8342aa1f36042139867]
link ZA to A--><path d="M370.2031,215.8125 C345.8125,253.5313 301.3281,322.3281 274.7656,363.3906 " fill="none" id="ZA-&gt;A" style="stroke: #F0A456; stroke-width: 2.34375;"/><polygon fill="#F0A456" points="270.3438,370.2344,283.2258,361.816,274.5842,363.6728,272.7273,355.0313,270.3438,370.2344" style="stroke: #F0A456; stroke-width: 2.34375;"/><!--MD5=[ab291697d8ff686a631d74cc5741962a]
link ZA to KO--><path d="M389.9063,215.8125 C393.2813,253.2188 399.4219,321.1875 403.1406,362.375 " fill="none" id="ZA-&gt;KO" style="stroke: #F0A456; stroke-width: 2.34375;"/><polygon fill="#F0A456" points="403.8438,370.2344,408.7836,355.6599,403.1304,362.4545,396.3358,356.8013,403.8438,370.2344" style="stroke: #F0A456; stroke-width: 2.34375;"/><!--MD5=[e201e4602381f452f3c6a44a7200caae]
link F to FA--><path d="M357.0781,640.8125 C326.2031,666.625 279.4375,705.7344 246.4844,733.2813 " fill="none" id="F-&gt;FA" style="stroke: #F0A456; stroke-width: 2.34375;"/><polygon fill="#F0A456" points="240.0938,738.6406,254.8825,734.3853,246.0771,733.6173,246.8452,724.8119,240.0938,738.6406" style="stroke: #F0A456; stroke-width: 2.34375;"/><!--MD5=[667622964ea0fa83cf8ef0e95fb6e983]
link F to DPH--><path d="M393.25,641.1563 C397.125,666.1563 402.875,703.4219 407.0937,730.6563 " fill="none" id="F-&gt;DPH" style="stroke: #F0A456; stroke-width: 2.34375;"/><polygon fill="#F0A456" points="408.3438,738.7656,412.3924,723.9189,407.1608,731.0432,400.0366,725.8116,408.3438,738.7656" style="stroke: #F0A456; stroke-width: 2.34375;"/><!--MD5=[1feb750d87c93a80f331f9655d6952f0]
link P to OP--><path d="M1311.4688,426.7188 C1262.2188,465.5938 1170.9375,537.6563 1118.3281,579.2031 " fill="none" id="P-&gt;OP" style="stroke: #A6ADBB; stroke-width: 2.34375; stroke-dasharray: 7.0,7.0;"/><polygon fill="#A6ADBB" points="1112.1094,584.1094,1127.0137,580.2782,1118.2338,579.259,1119.2531,570.4791,1112.1094,584.1094" style="stroke: #A6ADBB; stroke-width: 2.34375;"/><!--MD5=[d89d2173419e4ba296a239707c87677a]
link A to FA--><path d="M249.7969,426.8906 C241.7187,491.9844 221.1406,658.0938 212.1406,730.7344 " fill="none" id="A-&gt;FA" style="stroke: #A6ADBB; stroke-width: 2.34375; stroke-dasharray: 7.0,7.0;"/><polygon fill="#A6ADBB" points="211.1562,738.7031,219.0836,725.5132,212.1143,730.9496,206.6779,723.9803,211.1562,738.7031" style="stroke: #A6ADBB; stroke-width: 2.34375;"/><!--MD5=[681c722a8b05b10950bf946b38f472ea]
@startuml diagram
skinparam dpi 150
skinparam backgroundColor #11141A
skinparam shadowing false
skinparam roundCorner 6

skinparam defaultFontName "DejaVu Sans"
skinparam defaultFontSize 14
skinparam defaultFontColor #E6E8EC
skinparam defaultTextAlignment center


skinparam ArrowColor #F0A456
skinparam ArrowFontColor #E6E8EC
skinparam ArrowThickness 1.5

skinparam node {
  BackgroundColor #161A22
  BorderColor #3D424E
  FontColor #E6E8EC
}

skinparam component {
  BackgroundColor #161A22
  BorderColor #3D424E
  FontColor #E6E8EC
}

skinparam rectangle {
  BackgroundColor #161A22
  BorderColor #3D424E
  FontColor #E6E8EC
}

skinparam package {
  BackgroundColor #11141A
  BorderColor #F0A456
  FontColor #F0A456
}

skinparam folder {
  BackgroundColor #161A22
  BorderColor #3D424E
  FontColor #E6E8EC
}

skinparam frame {
  BackgroundColor #161A22
  BorderColor #3D424E
  FontColor #E6E8EC
}

skinparam database {
  BackgroundColor #1B202A
  BorderColor #3D424E
  FontColor #E6E8EC
}

skinparam queue {
  BackgroundColor #1B202A
  BorderColor #3D424E
  FontColor #E6E8EC
}

skinparam cloud {
  BackgroundColor #1B202A
  BorderColor #3D424E
  FontColor #E6E8EC
}

skinparam actor {
  BackgroundColor #161A22
  BorderColor #F0A456
  FontColor #E6E8EC
}

skinparam usecase {
  BackgroundColor #161A22
  BorderColor #3D424E
  FontColor #E6E8EC
}

skinparam class {
  BackgroundColor #161A22
  BorderColor #3D424E
  HeaderBackgroundColor #1B202A
  ArrowColor #F0A456
  FontColor #E6E8EC
  AttributeFontColor #A6ADBB
  StereotypeFontColor #F0A456
}

skinparam object {
  BackgroundColor #161A22
  BorderColor #3D424E
  FontColor #E6E8EC
}

skinparam sequence {
  ParticipantBackgroundColor #161A22
  ParticipantBorderColor #3D424E
  ParticipantFontColor #E6E8EC
  ActorBackgroundColor #161A22
  ActorBorderColor #F0A456
  ActorFontColor #E6E8EC
  LifeLineBorderColor #3D424E
  LifeLineBackgroundColor #1B202A
  ArrowColor #F0A456
  ArrowFontColor #E6E8EC
  GroupBackgroundColor #1B202A
  GroupBorderColor #3D424E
  GroupFontColor #A6ADBB
  GroupHeaderFontColor #F0A456
  BoxBackgroundColor #11141A
  BoxBorderColor #F0A456
  BoxFontColor #F0A456
  DividerBackgroundColor #1B202A
  DividerBorderColor #3D424E
  DividerFontColor #A6ADBB
  ReferenceBackgroundColor #161A22
  ReferenceBorderColor #3D424E
  ReferenceFontColor #E6E8EC
  ReferenceHeaderBackgroundColor #1B202A
  StereotypeFontColor #F0A456
}

skinparam state {
  BackgroundColor #161A22
  BorderColor #3D424E
  FontColor #E6E8EC
  StartColor #F0A456
  EndColor #F0A456
  ArrowColor #F0A456
  AttributeFontColor #A6ADBB
}

skinparam activity {
  BackgroundColor #161A22
  BorderColor #3D424E
  FontColor #E6E8EC
  ArrowColor #F0A456
  StartColor #F0A456
  EndColor #F0A456
  BarColor #F0A456
  DiamondBackgroundColor #1B202A
  DiamondBorderColor #3D424E
  DiamondFontColor #E6E8EC
}

skinparam note {
  BackgroundColor #1B202A
  BorderColor #3D424E
  FontColor #A6ADBB
}

skinparam title {
  FontColor #E6E8EC
  FontSize 18
}

skinparam legend {
  BackgroundColor #161A22
  BorderColor #3D424E
  FontColor #A6ADBB
}

skinparam caption {
  FontColor #A6ADBB
}

skinparam stereotype {
  CBackgroundColor #1B202A
  CBorderColor #F0A456
  ABackgroundColor #1B202A
  ABorderColor #F0A456
  IBackgroundColor #1B202A
  IBorderColor #F0A456
  EBackgroundColor #1B202A
  EBorderColor #F0A456
}

package "E-shop" {
  package "Katalog zboží" {
    [Katalog] as KZ
    [Produkt] as P
    [Kategorie] as K
    [Vyhledávání] as V
  }

  package "Objednávky" {
    [Objednávka] as O
    [Položka objednávky] as OP
    [Doprava] as D
    [Způsob platby] as Z
  }

  package "Zákazníci" {
    [Zákazník] as ZA
    [Adresa] as A
    [Košík] as KO
  }

  package "Fakturace" {
    [Faktura] as F
    [Fakturační adresa] as FA
    [DPH] as DPH
  }
}

KZ -[thickness=2]-> O : "Upstream / Downstream (OHS)"
ZA -[thickness=2]- O : "Partnership"
O -[thickness=2]-> F : "Customer / Supplier"

KZ - -> P
P - -> K
KZ - -> V

O - -> OP
O - -> D
O - -> Z

ZA - -> A
ZA - -> KO

F - -> FA
F - -> DPH

P .[#A6ADBB].> OP
ZA .[#A6ADBB].> O
O .[#A6ADBB].> F
A .[#A6ADBB].> FA
@enduml

PlantUML version 1.2020.02(Sun Mar 01 11:22:07 CET 2020)
(GPL source distribution)
Java Runtime: OpenJDK Runtime Environment
JVM: OpenJDK 64-Bit Server VM
Java Version: 21.0.10+7-Debian-1deb13u1
Operating System: Linux
Default Encoding: UTF-8
Language: cs
Country: CZ
--></g></svg>