<?xml version="1.0" encoding="UTF-8" standalone="no"?><svg xmlns="http://www.w3.org/2000/svg" xmlns:xlink="http://www.w3.org/1999/xlink" contentScriptType="application/ecmascript" contentStyleType="text/css" height="1845.3125px" preserveAspectRatio="none" style="width:1207px;height:1845px;background:#11141A;" version="1.1" viewBox="0 0 1207 1845" width="1207.8125px" zoomAndPan="magnify"><defs/><g><text fill="#E6E8EC" font-family="Inter, ui-sans-serif, system-ui, -apple-system, sans-serif" font-size="28.125" lengthAdjust="spacingAndGlyphs" textLength="798.4375" x="197.6563" y="41.7313">Distributed relay: 4 workery paralelně přes SKIP LOCKED</text><rect fill="#11141A" height="606.0303" rx="4.6875" ry="4.6875" style="stroke: #3D424E; stroke-width: 3.125;" width="1096.875" x="76.5625" y="966.5527"/><rect fill="#11141A" height="145.1416" style="stroke: none; stroke-width: 1.5625;" width="1096.875" x="76.5625" y="1137.1582"/><rect fill="#11141A" height="145.1416" style="stroke: none; stroke-width: 1.5625;" width="1096.875" x="76.5625" y="1282.2998"/><rect fill="#11141A" height="145.1416" style="stroke: none; stroke-width: 1.5625;" width="1096.875" x="76.5625" y="1427.4414"/><line style="stroke: #3D424E; stroke-width: 1.5625; stroke-dasharray: 5.0,5.0;" x1="151.5625" x2="151.5625" y1="156.6406" y2="1732.251"/><line style="stroke: #3D424E; stroke-width: 1.5625; stroke-dasharray: 5.0,5.0;" x1="285.9375" x2="285.9375" y1="156.6406" y2="1732.251"/><line style="stroke: #3D424E; stroke-width: 1.5625; stroke-dasharray: 5.0,5.0;" x1="421.875" x2="421.875" y1="156.6406" y2="1732.251"/><line style="stroke: #3D424E; stroke-width: 1.5625; stroke-dasharray: 5.0,5.0;" x1="559.375" x2="559.375" y1="156.6406" y2="1732.251"/><line style="stroke: #3D424E; stroke-width: 1.5625; stroke-dasharray: 5.0,5.0;" x1="934.375" x2="934.375" y1="156.6406" y2="1732.251"/><line style="stroke: #3D424E; stroke-width: 1.5625; stroke-dasharray: 5.0,5.0;" x1="1089.0625" x2="1089.0625" y1="156.6406" y2="1732.251"/><rect fill="#161A22" height="47.3389" rx="4.6875" ry="4.6875" style="stroke: #3D424E; stroke-width: 2.34375;" width="118.75" x="92.1875" y="107.7393"/><text fill="#E6E8EC" font-family="Inter, ui-sans-serif, system-ui, -apple-system, sans-serif" font-size="21.875" lengthAdjust="spacingAndGlyphs" textLength="96.875" x="103.125" y="138.9816">Worker A</text><rect fill="#161A22" height="47.3389" rx="4.6875" ry="4.6875" style="stroke: #3D424E; stroke-width: 2.34375;" width="118.75" x="92.1875" y="1730.6885"/><text fill="#E6E8EC" font-family="Inter, ui-sans-serif, system-ui, -apple-system, sans-serif" font-size="21.875" lengthAdjust="spacingAndGlyphs" textLength="96.875" x="103.125" y="1761.9308">Worker A</text><rect fill="#161A22" height="47.3389" rx="4.6875" ry="4.6875" style="stroke: #3D424E; stroke-width: 2.34375;" width="120.3125" x="226.5625" y="107.7393"/><text fill="#E6E8EC" font-family="Inter, ui-sans-serif, system-ui, -apple-system, sans-serif" font-size="21.875" lengthAdjust="spacingAndGlyphs" textLength="98.4375" x="237.5" y="138.9816">Worker B</text><rect fill="#161A22" height="47.3389" rx="4.6875" ry="4.6875" style="stroke: #3D424E; stroke-width: 2.34375;" width="120.3125" x="226.5625" y="1730.6885"/><text fill="#E6E8EC" font-family="Inter, ui-sans-serif, system-ui, -apple-system, sans-serif" font-size="21.875" lengthAdjust="spacingAndGlyphs" textLength="98.4375" x="237.5" y="1761.9308">Worker B</text><rect fill="#161A22" height="47.3389" rx="4.6875" ry="4.6875" style="stroke: #3D424E; stroke-width: 2.34375;" width="120.3125" x="362.5" y="107.7393"/><text fill="#E6E8EC" font-family="Inter, ui-sans-serif, system-ui, -apple-system, sans-serif" font-size="21.875" lengthAdjust="spacingAndGlyphs" textLength="98.4375" x="373.4375" y="138.9816">Worker C</text><rect fill="#161A22" height="47.3389" rx="4.6875" ry="4.6875" style="stroke: #3D424E; stroke-width: 2.34375;" width="120.3125" x="362.5" y="1730.6885"/><text fill="#E6E8EC" font-family="Inter, ui-sans-serif, system-ui, -apple-system, sans-serif" font-size="21.875" lengthAdjust="spacingAndGlyphs" textLength="98.4375" x="373.4375" y="1761.9308">Worker C</text><rect fill="#161A22" height="47.3389" rx="4.6875" ry="4.6875" style="stroke: #3D424E; stroke-width: 2.34375;" width="121.875" x="498.4375" y="107.7393"/><text fill="#E6E8EC" font-family="Inter, ui-sans-serif, system-ui, -apple-system, sans-serif" font-size="21.875" lengthAdjust="spacingAndGlyphs" textLength="100" x="509.375" y="138.9816">Worker D</text><rect fill="#161A22" height="47.3389" rx="4.6875" ry="4.6875" style="stroke: #3D424E; stroke-width: 2.34375;" width="121.875" x="498.4375" y="1730.6885"/><text fill="#E6E8EC" font-family="Inter, ui-sans-serif, system-ui, -apple-system, sans-serif" font-size="21.875" lengthAdjust="spacingAndGlyphs" textLength="100" x="509.375" y="1761.9308">Worker D</text><text fill="#E6E8EC" font-family="Inter, ui-sans-serif, system-ui, -apple-system, sans-serif" font-size="21.875" lengthAdjust="spacingAndGlyphs" textLength="134.375" x="862.5" y="151.4816">outbox table</text><path d="M906.25,74.9268 C906.25,59.3018 934.375,59.3018 934.375,59.3018 C934.375,59.3018 962.5,59.3018 962.5,74.9268 L962.5,115.5518 C962.5,131.1768 934.375,131.1768 934.375,131.1768 C934.375,131.1768 906.25,131.1768 906.25,115.5518 L906.25,74.9268 " fill="#1B202A" style="stroke: #3D424E; stroke-width: 2.34375;"/><path d="M906.25,74.9268 C906.25,90.5518 934.375,90.5518 934.375,90.5518 C934.375,90.5518 962.5,90.5518 962.5,74.9268 " fill="none" style="stroke: #3D424E; stroke-width: 2.34375;"/><text fill="#E6E8EC" font-family="Inter, ui-sans-serif, system-ui, -apple-system, sans-serif" font-size="21.875" lengthAdjust="spacingAndGlyphs" textLength="134.375" x="862.5" y="1750.9933">outbox table</text><path d="M906.25,1771.7773 C906.25,1756.1523 934.375,1756.1523 934.375,1756.1523 C934.375,1756.1523 962.5,1756.1523 962.5,1771.7773 L962.5,1812.4023 C962.5,1828.0273 934.375,1828.0273 934.375,1828.0273 C934.375,1828.0273 906.25,1828.0273 906.25,1812.4023 L906.25,1771.7773 " fill="#1B202A" style="stroke: #3D424E; stroke-width: 2.34375;"/><path d="M906.25,1771.7773 C906.25,1787.4023 934.375,1787.4023 934.375,1787.4023 C934.375,1787.4023 962.5,1787.4023 962.5,1771.7773 " fill="none" style="stroke: #3D424E; stroke-width: 2.34375;"/><path d="M1029.6875,115.5518 L1150,115.5518 C1157.8125,115.5518 1157.8125,136.0962 1157.8125,136.0962 C1157.8125,136.0962 1157.8125,156.6406 1150,156.6406 L1029.6875,156.6406 C1021.875,156.6406 1021.875,136.0962 1021.875,136.0962 C1021.875,136.0962 1021.875,115.5518 1029.6875,115.5518 " fill="#1B202A" style="stroke: #A80036; stroke-width: 3.125;"/><path d="M1150,115.5518 C1142.1875,115.5518 1142.1875,136.0962 1142.1875,136.0962 C1142.1875,156.6406 1150,156.6406 1150,156.6406 " fill="none" style="stroke: #A80036; stroke-width: 3.125;"/><text fill="#E6E8EC" font-family="Inter, ui-sans-serif, system-ui, -apple-system, sans-serif" font-size="21.875" lengthAdjust="spacingAndGlyphs" textLength="104.6875" x="1029.6875" y="143.6691">RabbitMQ</text><path d="M1029.6875,1730.6885 L1150,1730.6885 C1157.8125,1730.6885 1157.8125,1751.2329 1157.8125,1751.2329 C1157.8125,1751.2329 1157.8125,1771.7773 1150,1771.7773 L1029.6875,1771.7773 C1021.875,1771.7773 1021.875,1751.2329 1021.875,1751.2329 C1021.875,1751.2329 1021.875,1730.6885 1029.6875,1730.6885 " fill="#1B202A" style="stroke: #A80036; stroke-width: 3.125;"/><path d="M1150,1730.6885 C1142.1875,1730.6885 1142.1875,1751.2329 1142.1875,1751.2329 C1142.1875,1771.7773 1150,1771.7773 1150,1771.7773 " fill="none" style="stroke: #A80036; stroke-width: 3.125;"/><text fill="#E6E8EC" font-family="Inter, ui-sans-serif, system-ui, -apple-system, sans-serif" font-size="21.875" lengthAdjust="spacingAndGlyphs" textLength="104.6875" x="1029.6875" y="1758.8058">RabbitMQ</text><path d="M687.5,184.7656 L687.5,241.0156 A4.6875,4.6875 0 0 0 692.1875,245.7031 L1175,245.7031 A4.6875,4.6875 0 0 0 1179.6875,241.0156 L1179.6875,195.7031 L1164.0625,180.0781 L692.1875,180.0781 A4.6875,4.6875 0 0 0 687.5,184.7656 " fill="#1B202A" style="stroke: #3D424E; stroke-width: 1.5625;"/><path d="M1164.0625,180.0781 L1164.0625,193.3594 A2.3438,2.3438 0 0 0 1166.4063,195.7031 L1179.6875,195.7031 L1164.0625,180.0781 " fill="#1B202A" style="stroke: #3D424E; stroke-width: 1.5625;"/><text fill="#A6ADBB" font-family="Inter, ui-sans-serif, system-ui, -apple-system, sans-serif" font-size="21.875" lengthAdjust="spacingAndGlyphs" textLength="329.6875" x="768.75" y="208.1955">100 pending řádků k publikaci.</text><text fill="#A6ADBB" font-family="Inter, ui-sans-serif, system-ui, -apple-system, sans-serif" font-size="21.875" lengthAdjust="spacingAndGlyphs" textLength="445.3125" x="710.9375" y="233.6594">Každý worker si zarezervuje vlastní batch.</text><rect fill="#1B202A" height="4.6875" style="stroke: #1B202A; stroke-width: 1.5625;" width="1184.375" x="4.6875" y="287.4878"/><line style="stroke: #3D424E; stroke-width: 1.5625;" x1="4.6875" x2="1189.0625" y1="287.4878" y2="287.4878"/><line style="stroke: #3D424E; stroke-width: 1.5625;" x1="4.6875" x2="1189.0625" y1="292.1753" y2="292.1753"/><rect fill="#1B202A" height="37.9639" style="stroke: #3D424E; stroke-width: 3.125;" width="610.9375" x="291.4063" y="270.0684"/><text fill="#A6ADBB" font-family="Inter, ui-sans-serif, system-ui, -apple-system, sans-serif" font-size="21.875" font-weight="bold" lengthAdjust="spacingAndGlyphs" textLength="581.25" x="300.7813" y="296.6232">Souběžné SELECT … FOR UPDATE SKIP LOCKED</text><polygon fill="#F0A456" points="915.625,377.71,931.25,383.96,915.625,390.21,921.875,383.96" style="stroke: #F0A456; stroke-width: 1.5625;"/><line style="stroke: #F0A456; stroke-width: 2.34375;" x1="151.5625" x2="925" y1="383.96" y2="383.96"/><text fill="#E6E8EC" font-family="Inter, ui-sans-serif, system-ui, -apple-system, sans-serif" font-size="21.875" lengthAdjust="spacingAndGlyphs" textLength="204.6875" x="162.5" y="350.2121">SELECT … LIMIT 25</text><text fill="#E6E8EC" font-family="Inter, ui-sans-serif, system-ui, -apple-system, sans-serif" font-size="21.875" lengthAdjust="spacingAndGlyphs" textLength="289.0625" x="162.5" y="375.676">FOR UPDATE SKIP LOCKED</text><polygon fill="#F0A456" points="168.75,425.0488,153.125,431.2988,168.75,437.5488,162.5,431.2988" style="stroke: #F0A456; stroke-width: 1.5625;"/><line style="stroke: #F0A456; stroke-width: 2.34375; stroke-dasharray: 2.0,2.0;" x1="159.375" x2="932.8125" y1="431.2988" y2="431.2988"/><text fill="#E6E8EC" font-family="Inter, ui-sans-serif, system-ui, -apple-system, sans-serif" font-size="21.875" lengthAdjust="spacingAndGlyphs" textLength="306.25" x="178.125" y="423.0148">řádky 1-25 (zamknuté pro A)</text><polygon fill="#F0A456" points="915.625,497.8516,931.25,504.1016,915.625,510.3516,921.875,504.1016" style="stroke: #F0A456; stroke-width: 1.5625;"/><line style="stroke: #F0A456; stroke-width: 2.34375;" x1="286.7188" x2="925" y1="504.1016" y2="504.1016"/><text fill="#E6E8EC" font-family="Inter, ui-sans-serif, system-ui, -apple-system, sans-serif" font-size="21.875" lengthAdjust="spacingAndGlyphs" textLength="204.6875" x="297.6563" y="470.3537">SELECT … LIMIT 25</text><text fill="#E6E8EC" font-family="Inter, ui-sans-serif, system-ui, -apple-system, sans-serif" font-size="21.875" lengthAdjust="spacingAndGlyphs" textLength="289.0625" x="297.6563" y="495.8176">FOR UPDATE SKIP LOCKED</text><polygon fill="#F0A456" points="303.9063,545.1904,288.2813,551.4404,303.9063,557.6904,297.6563,551.4404" style="stroke: #F0A456; stroke-width: 1.5625;"/><line style="stroke: #F0A456; stroke-width: 2.34375; stroke-dasharray: 2.0,2.0;" x1="294.5313" x2="932.8125" y1="551.4404" y2="551.4404"/><text fill="#E6E8EC" font-family="Inter, ui-sans-serif, system-ui, -apple-system, sans-serif" font-size="21.875" lengthAdjust="spacingAndGlyphs" textLength="321.875" x="313.2813" y="543.1564">řádky 26-50 (zamknuté pro B)</text><polygon fill="#F0A456" points="915.625,617.9932,931.25,624.2432,915.625,630.4932,921.875,624.2432" style="stroke: #F0A456; stroke-width: 1.5625;"/><line style="stroke: #F0A456; stroke-width: 2.34375;" x1="422.6563" x2="925" y1="624.2432" y2="624.2432"/><text fill="#E6E8EC" font-family="Inter, ui-sans-serif, system-ui, -apple-system, sans-serif" font-size="21.875" lengthAdjust="spacingAndGlyphs" textLength="204.6875" x="433.5938" y="590.4953">SELECT … LIMIT 25</text><text fill="#E6E8EC" font-family="Inter, ui-sans-serif, system-ui, -apple-system, sans-serif" font-size="21.875" lengthAdjust="spacingAndGlyphs" textLength="289.0625" x="433.5938" y="615.9592">FOR UPDATE SKIP LOCKED</text><polygon fill="#F0A456" points="439.8438,665.332,424.2188,671.582,439.8438,677.832,433.5938,671.582" style="stroke: #F0A456; stroke-width: 1.5625;"/><line style="stroke: #F0A456; stroke-width: 2.34375; stroke-dasharray: 2.0,2.0;" x1="430.4688" x2="932.8125" y1="671.582" y2="671.582"/><text fill="#E6E8EC" font-family="Inter, ui-sans-serif, system-ui, -apple-system, sans-serif" font-size="21.875" lengthAdjust="spacingAndGlyphs" textLength="321.875" x="449.2188" y="663.298">řádky 51-75 (zamknuté pro C)</text><polygon fill="#F0A456" points="915.625,738.1348,931.25,744.3848,915.625,750.6348,921.875,744.3848" style="stroke: #F0A456; stroke-width: 1.5625;"/><line style="stroke: #F0A456; stroke-width: 2.34375;" x1="559.375" x2="925" y1="744.3848" y2="744.3848"/><text fill="#E6E8EC" font-family="Inter, ui-sans-serif, system-ui, -apple-system, sans-serif" font-size="21.875" lengthAdjust="spacingAndGlyphs" textLength="204.6875" x="570.3125" y="710.6369">SELECT … LIMIT 25</text><text fill="#E6E8EC" font-family="Inter, ui-sans-serif, system-ui, -apple-system, sans-serif" font-size="21.875" lengthAdjust="spacingAndGlyphs" textLength="289.0625" x="570.3125" y="736.1008">FOR UPDATE SKIP LOCKED</text><polygon fill="#F0A456" points="576.5625,785.4736,560.9375,791.7236,576.5625,797.9736,570.3125,791.7236" style="stroke: #F0A456; stroke-width: 1.5625;"/><line style="stroke: #F0A456; stroke-width: 2.34375; stroke-dasharray: 2.0,2.0;" x1="567.1875" x2="932.8125" y1="791.7236" y2="791.7236"/><text fill="#E6E8EC" font-family="Inter, ui-sans-serif, system-ui, -apple-system, sans-serif" font-size="21.875" lengthAdjust="spacingAndGlyphs" textLength="337.5" x="585.9375" y="783.4396">řádky 76-100 (zamknuté pro D)</text><path d="M95.3125,816.7236 L95.3125,872.9736 A4.6875,4.6875 0 0 0 100,877.6611 L610.9375,877.6611 A4.6875,4.6875 0 0 0 615.625,872.9736 L615.625,827.6611 L600,812.0361 L100,812.0361 A4.6875,4.6875 0 0 0 95.3125,816.7236 " fill="#1B202A" style="stroke: #3D424E; stroke-width: 1.5625;"/><path d="M600,812.0361 L600,825.3174 A2.3438,2.3438 0 0 0 602.3438,827.6611 L615.625,827.6611 L600,812.0361 " fill="#1B202A" style="stroke: #3D424E; stroke-width: 1.5625;"/><text fill="#A6ADBB" font-family="Inter, ui-sans-serif, system-ui, -apple-system, sans-serif" font-size="21.875" lengthAdjust="spacingAndGlyphs" textLength="339.0625" x="185.9375" y="840.1535">Žádný worker nečeká na druhý.</text><text fill="#A6ADBB" font-family="Inter, ui-sans-serif, system-ui, -apple-system, sans-serif" font-size="21.875" lengthAdjust="spacingAndGlyphs" textLength="257.8125" x="226.5625" y="865.6174">4 batche běží paralelně.</text><rect fill="#1B202A" height="4.6875" style="stroke: #1B202A; stroke-width: 1.5625;" width="1184.375" x="4.6875" y="919.4458"/><line style="stroke: #3D424E; stroke-width: 1.5625;" x1="4.6875" x2="1189.0625" y1="919.4458" y2="919.4458"/><line style="stroke: #3D424E; stroke-width: 1.5625;" x1="4.6875" x2="1189.0625" y1="924.1333" y2="924.1333"/><rect fill="#1B202A" height="37.9639" style="stroke: #3D424E; stroke-width: 3.125;" width="334.375" x="429.6875" y="902.0264"/><text fill="#A6ADBB" font-family="Inter, ui-sans-serif, system-ui, -apple-system, sans-serif" font-size="21.875" font-weight="bold" lengthAdjust="spacingAndGlyphs" textLength="304.6875" x="439.0625" y="928.5812">Publish + UPDATE status</text><path d="M81.25,966.5527 L187.5,966.5527 L187.5,979.0527 L171.875,994.6777 L76.5625,994.6777 L76.5625,971.2402 " fill="#1B202A" style="stroke: #3D424E; stroke-width: 1.5625;"/><rect fill="none" height="606.0303" rx="4.6875" ry="4.6875" style="stroke: #3D424E; stroke-width: 3.125;" width="1096.875" x="76.5625" y="966.5527"/><text fill="#F0A456" font-family="Inter, ui-sans-serif, system-ui, -apple-system, sans-serif" font-size="21.875" font-weight="bold" lengthAdjust="spacingAndGlyphs" textLength="40.625" x="100" y="988.4201">par</text><polygon fill="#F0A456" points="1071.0938,1023.7305,1086.7188,1029.9805,1071.0938,1036.2305,1077.3438,1029.9805" style="stroke: #F0A456; stroke-width: 1.5625;"/><line style="stroke: #F0A456; stroke-width: 2.34375;" x1="151.5625" x2="1080.4688" y1="1029.9805" y2="1029.9805"/><text fill="#E6E8EC" font-family="Inter, ui-sans-serif, system-ui, -apple-system, sans-serif" font-size="21.875" lengthAdjust="spacingAndGlyphs" textLength="192.1875" x="162.5" y="1021.6965">publish 25 events</text><polygon fill="#F0A456" points="915.625,1071.0693,931.25,1077.3193,915.625,1083.5693,921.875,1077.3193" style="stroke: #F0A456; stroke-width: 1.5625;"/><line style="stroke: #F0A456; stroke-width: 2.34375;" x1="151.5625" x2="925" y1="1077.3193" y2="1077.3193"/><text fill="#E6E8EC" font-family="Inter, ui-sans-serif, system-ui, -apple-system, sans-serif" font-size="21.875" lengthAdjust="spacingAndGlyphs" textLength="315.625" x="162.5" y="1069.0353">UPDATE … SET status='sent'</text><polygon fill="#F0A456" points="168.75,1118.4082,153.125,1124.6582,168.75,1130.9082,162.5,1124.6582" style="stroke: #F0A456; stroke-width: 1.5625;"/><line style="stroke: #F0A456; stroke-width: 2.34375; stroke-dasharray: 2.0,2.0;" x1="159.375" x2="932.8125" y1="1124.6582" y2="1124.6582"/><text fill="#E6E8EC" font-family="Inter, ui-sans-serif, system-ui, -apple-system, sans-serif" font-size="21.875" lengthAdjust="spacingAndGlyphs" textLength="89.0625" x="178.125" y="1116.3742">COMMIT</text><line style="stroke: #3D424E; stroke-width: 1.5625; stroke-dasharray: 2.0,2.0;" x1="76.5625" x2="1173.4375" y1="1138.7207" y2="1138.7207"/><polygon fill="#F0A456" points="1071.0938,1168.8721,1086.7188,1175.1221,1071.0938,1181.3721,1077.3438,1175.1221" style="stroke: #F0A456; stroke-width: 1.5625;"/><line style="stroke: #F0A456; stroke-width: 2.34375;" x1="286.7188" x2="1080.4688" y1="1175.1221" y2="1175.1221"/><text fill="#E6E8EC" font-family="Inter, ui-sans-serif, system-ui, -apple-system, sans-serif" font-size="21.875" lengthAdjust="spacingAndGlyphs" textLength="192.1875" x="297.6563" y="1166.8381">publish 25 events</text><polygon fill="#F0A456" points="915.625,1216.2109,931.25,1222.4609,915.625,1228.7109,921.875,1222.4609" style="stroke: #F0A456; stroke-width: 1.5625;"/><line style="stroke: #F0A456; stroke-width: 2.34375;" x1="286.7188" x2="925" y1="1222.4609" y2="1222.4609"/><text fill="#E6E8EC" font-family="Inter, ui-sans-serif, system-ui, -apple-system, sans-serif" font-size="21.875" lengthAdjust="spacingAndGlyphs" textLength="315.625" x="297.6563" y="1214.1769">UPDATE … SET status='sent'</text><polygon fill="#F0A456" points="303.9063,1263.5498,288.2813,1269.7998,303.9063,1276.0498,297.6563,1269.7998" style="stroke: #F0A456; stroke-width: 1.5625;"/><line style="stroke: #F0A456; stroke-width: 2.34375; stroke-dasharray: 2.0,2.0;" x1="294.5313" x2="932.8125" y1="1269.7998" y2="1269.7998"/><text fill="#E6E8EC" font-family="Inter, ui-sans-serif, system-ui, -apple-system, sans-serif" font-size="21.875" lengthAdjust="spacingAndGlyphs" textLength="89.0625" x="313.2813" y="1261.5158">COMMIT</text><line style="stroke: #3D424E; stroke-width: 1.5625; stroke-dasharray: 2.0,2.0;" x1="76.5625" x2="1173.4375" y1="1283.8623" y2="1283.8623"/><polygon fill="#F0A456" points="1071.0938,1314.0137,1086.7188,1320.2637,1071.0938,1326.5137,1077.3438,1320.2637" style="stroke: #F0A456; stroke-width: 1.5625;"/><line style="stroke: #F0A456; stroke-width: 2.34375;" x1="422.6563" x2="1080.4688" y1="1320.2637" y2="1320.2637"/><text fill="#E6E8EC" font-family="Inter, ui-sans-serif, system-ui, -apple-system, sans-serif" font-size="21.875" lengthAdjust="spacingAndGlyphs" textLength="192.1875" x="433.5938" y="1311.9797">publish 25 events</text><polygon fill="#F0A456" points="915.625,1361.3525,931.25,1367.6025,915.625,1373.8525,921.875,1367.6025" style="stroke: #F0A456; stroke-width: 1.5625;"/><line style="stroke: #F0A456; stroke-width: 2.34375;" x1="422.6563" x2="925" y1="1367.6025" y2="1367.6025"/><text fill="#E6E8EC" font-family="Inter, ui-sans-serif, system-ui, -apple-system, sans-serif" font-size="21.875" lengthAdjust="spacingAndGlyphs" textLength="315.625" x="433.5938" y="1359.3185">UPDATE … SET status='sent'</text><polygon fill="#F0A456" points="439.8438,1408.6914,424.2188,1414.9414,439.8438,1421.1914,433.5938,1414.9414" style="stroke: #F0A456; stroke-width: 1.5625;"/><line style="stroke: #F0A456; stroke-width: 2.34375; stroke-dasharray: 2.0,2.0;" x1="430.4688" x2="932.8125" y1="1414.9414" y2="1414.9414"/><text fill="#E6E8EC" font-family="Inter, ui-sans-serif, system-ui, -apple-system, sans-serif" font-size="21.875" lengthAdjust="spacingAndGlyphs" textLength="89.0625" x="449.2188" y="1406.6574">COMMIT</text><line style="stroke: #3D424E; stroke-width: 1.5625; stroke-dasharray: 2.0,2.0;" x1="76.5625" x2="1173.4375" y1="1429.0039" y2="1429.0039"/><polygon fill="#F0A456" points="1071.0938,1459.1553,1086.7188,1465.4053,1071.0938,1471.6553,1077.3438,1465.4053" style="stroke: #F0A456; stroke-width: 1.5625;"/><line style="stroke: #F0A456; stroke-width: 2.34375;" x1="559.375" x2="1080.4688" y1="1465.4053" y2="1465.4053"/><text fill="#E6E8EC" font-family="Inter, ui-sans-serif, system-ui, -apple-system, sans-serif" font-size="21.875" lengthAdjust="spacingAndGlyphs" textLength="192.1875" x="570.3125" y="1457.1213">publish 25 events</text><polygon fill="#F0A456" points="915.625,1506.4941,931.25,1512.7441,915.625,1518.9941,921.875,1512.7441" style="stroke: #F0A456; stroke-width: 1.5625;"/><line style="stroke: #F0A456; stroke-width: 2.34375;" x1="559.375" x2="925" y1="1512.7441" y2="1512.7441"/><text fill="#E6E8EC" font-family="Inter, ui-sans-serif, system-ui, -apple-system, sans-serif" font-size="21.875" lengthAdjust="spacingAndGlyphs" textLength="315.625" x="570.3125" y="1504.4601">UPDATE … SET status='sent'</text><polygon fill="#F0A456" points="576.5625,1553.833,560.9375,1560.083,576.5625,1566.333,570.3125,1560.083" style="stroke: #F0A456; stroke-width: 1.5625;"/><line style="stroke: #F0A456; stroke-width: 2.34375; stroke-dasharray: 2.0,2.0;" x1="567.1875" x2="932.8125" y1="1560.083" y2="1560.083"/><text fill="#E6E8EC" font-family="Inter, ui-sans-serif, system-ui, -apple-system, sans-serif" font-size="21.875" lengthAdjust="spacingAndGlyphs" textLength="89.0625" x="585.9375" y="1551.799">COMMIT</text><path d="M12.5,1596.0205 L12.5,1703.833 A4.6875,4.6875 0 0 0 17.1875,1708.5205 L695.3125,1708.5205 A4.6875,4.6875 0 0 0 700,1703.833 L700,1606.958 L684.375,1591.333 L17.1875,1591.333 A4.6875,4.6875 0 0 0 12.5,1596.0205 " fill="#1B202A" style="stroke: #3D424E; stroke-width: 1.5625;"/><path d="M684.375,1591.333 L684.375,1604.6143 A2.3438,2.3438 0 0 0 686.7188,1606.958 L700,1606.958 L684.375,1591.333 " fill="#1B202A" style="stroke: #3D424E; stroke-width: 1.5625;"/><text fill="#A6ADBB" font-family="Inter, ui-sans-serif, system-ui, -apple-system, sans-serif" font-size="21.875" lengthAdjust="spacingAndGlyphs" textLength="470.3125" x="121.0938" y="1619.4504">Throughput: 4× single worker propustnost.</text><text fill="#A6ADBB" font-family="Inter, ui-sans-serif, system-ui, -apple-system, sans-serif" font-size="21.875" lengthAdjust="spacingAndGlyphs" textLength="551.5625" x="80.4688" y="1644.9142">Cena: out-of-order delivery (každý batch nezávisle).</text><text fill="#A6ADBB" font-family="Inter, ui-sans-serif, system-ui, -apple-system, sans-serif" font-size="21.875" lengthAdjust="spacingAndGlyphs" textLength="554.6875" x="78.9063" y="1670.3781">Pokud subscriber pořadí potřebuje, partition outbox</text><text fill="#A6ADBB" font-family="Inter, ui-sans-serif, system-ui, -apple-system, sans-serif" font-size="21.875" lengthAdjust="spacingAndGlyphs" textLength="640.625" x="35.9375" y="1695.842">na aggregate_id a každý worker zpracovává vlastní partition.</text><!--MD5=[3242fd43e89f6495d6261b44041d677b]
@startuml distributed_relay
skinparam dpi 150
skinparam backgroundColor #11141A
skinparam shadowing false
skinparam roundCorner 6

skinparam defaultFontName "DejaVu Sans"
skinparam defaultFontSize 14
skinparam defaultFontColor #E6E8EC
skinparam defaultTextAlignment center


skinparam ArrowColor #F0A456
skinparam ArrowFontColor #E6E8EC
skinparam ArrowThickness 1.5

skinparam node {
  BackgroundColor #161A22
  BorderColor #3D424E
  FontColor #E6E8EC
}

skinparam component {
  BackgroundColor #161A22
  BorderColor #3D424E
  FontColor #E6E8EC
}

skinparam rectangle {
  BackgroundColor #161A22
  BorderColor #3D424E
  FontColor #E6E8EC
}

skinparam package {
  BackgroundColor #11141A
  BorderColor #F0A456
  FontColor #F0A456
}

skinparam folder {
  BackgroundColor #161A22
  BorderColor #3D424E
  FontColor #E6E8EC
}

skinparam frame {
  BackgroundColor #161A22
  BorderColor #3D424E
  FontColor #E6E8EC
}

skinparam database {
  BackgroundColor #1B202A
  BorderColor #3D424E
  FontColor #E6E8EC
}

skinparam queue {
  BackgroundColor #1B202A
  BorderColor #3D424E
  FontColor #E6E8EC
}

skinparam cloud {
  BackgroundColor #1B202A
  BorderColor #3D424E
  FontColor #E6E8EC
}

skinparam actor {
  BackgroundColor #161A22
  BorderColor #F0A456
  FontColor #E6E8EC
}

skinparam usecase {
  BackgroundColor #161A22
  BorderColor #3D424E
  FontColor #E6E8EC
}

skinparam class {
  BackgroundColor #161A22
  BorderColor #3D424E
  HeaderBackgroundColor #1B202A
  ArrowColor #F0A456
  FontColor #E6E8EC
  AttributeFontColor #A6ADBB
  StereotypeFontColor #F0A456
}

skinparam object {
  BackgroundColor #161A22
  BorderColor #3D424E
  FontColor #E6E8EC
}

skinparam sequence {
  ParticipantBackgroundColor #161A22
  ParticipantBorderColor #3D424E
  ParticipantFontColor #E6E8EC
  ActorBackgroundColor #161A22
  ActorBorderColor #F0A456
  ActorFontColor #E6E8EC
  LifeLineBorderColor #3D424E
  LifeLineBackgroundColor #1B202A
  ArrowColor #F0A456
  ArrowFontColor #E6E8EC
  GroupBackgroundColor #1B202A
  GroupBorderColor #3D424E
  GroupFontColor #A6ADBB
  GroupHeaderFontColor #F0A456
  BoxBackgroundColor #11141A
  BoxBorderColor #F0A456
  BoxFontColor #F0A456
  DividerBackgroundColor #1B202A
  DividerBorderColor #3D424E
  DividerFontColor #A6ADBB
  ReferenceBackgroundColor #161A22
  ReferenceBorderColor #3D424E
  ReferenceFontColor #E6E8EC
  ReferenceHeaderBackgroundColor #1B202A
  StereotypeFontColor #F0A456
}

skinparam state {
  BackgroundColor #161A22
  BorderColor #3D424E
  FontColor #E6E8EC
  StartColor #F0A456
  EndColor #F0A456
  ArrowColor #F0A456
  AttributeFontColor #A6ADBB
}

skinparam activity {
  BackgroundColor #161A22
  BorderColor #3D424E
  FontColor #E6E8EC
  ArrowColor #F0A456
  StartColor #F0A456
  EndColor #F0A456
  BarColor #F0A456
  DiamondBackgroundColor #1B202A
  DiamondBorderColor #3D424E
  DiamondFontColor #E6E8EC
}

skinparam note {
  BackgroundColor #1B202A
  BorderColor #3D424E
  FontColor #A6ADBB
}

skinparam title {
  FontColor #E6E8EC
  FontSize 18
}

skinparam legend {
  BackgroundColor #161A22
  BorderColor #3D424E
  FontColor #A6ADBB
}

skinparam caption {
  FontColor #A6ADBB
}

skinparam stereotype {
  CBackgroundColor #1B202A
  CBorderColor #F0A456
  ABackgroundColor #1B202A
  ABorderColor #F0A456
  IBackgroundColor #1B202A
  IBorderColor #F0A456
  EBackgroundColor #1B202A
  EBorderColor #F0A456
}

title Distributed relay: 4 workery paralelně přes SKIP LOCKED

participant "Worker A" as a
participant "Worker B" as b
participant "Worker C" as c
participant "Worker D" as d
database "outbox table" as db
queue "RabbitMQ" as mq

note over db
  100 pending řádků k publikaci.
  Každý worker si zarezervuje vlastní batch.
end note

== Souběžné SELECT … FOR UPDATE SKIP LOCKED ==

a -> db : SELECT … LIMIT 25\nFOR UPDATE SKIP LOCKED
db - -> a : řádky 1-25 (zamknuté pro A)

b -> db : SELECT … LIMIT 25\nFOR UPDATE SKIP LOCKED
db - -> b : řádky 26-50 (zamknuté pro B)

c -> db : SELECT … LIMIT 25\nFOR UPDATE SKIP LOCKED
db - -> c : řádky 51-75 (zamknuté pro C)

d -> db : SELECT … LIMIT 25\nFOR UPDATE SKIP LOCKED
db - -> d : řádky 76-100 (zamknuté pro D)

note over a, d
  Žádný worker nečeká na druhý.
  4 batche běží paralelně.
end note

== Publish + UPDATE status ==

par
    a -> mq : publish 25 events
    a -> db : UPDATE … SET status='sent'
    db - -> a : COMMIT
also
    b -> mq : publish 25 events
    b -> db : UPDATE … SET status='sent'
    db - -> b : COMMIT
also
    c -> mq : publish 25 events
    c -> db : UPDATE … SET status='sent'
    db - -> c : COMMIT
also
    d -> mq : publish 25 events
    d -> db : UPDATE … SET status='sent'
    db - -> d : COMMIT
end

note over a, d
  Throughput: 4× single worker propustnost.
  Cena: out-of-order delivery (každý batch nezávisle).
  Pokud subscriber pořadí potřebuje, partition outbox
  na aggregate_id a každý worker zpracovává vlastní partition.
end note

@enduml

PlantUML version 1.2020.02(Sun Mar 01 11:22:07 CET 2020)
(GPL source distribution)
Java Runtime: OpenJDK Runtime Environment
JVM: OpenJDK 64-Bit Server VM
Java Version: 21.0.10+7-Debian-1deb13u1
Operating System: Linux
Default Encoding: UTF-8
Language: cs
Country: CZ
--></g></svg>