<?xml version="1.0" encoding="UTF-8" standalone="no"?><svg xmlns="http://www.w3.org/2000/svg" xmlns:xlink="http://www.w3.org/1999/xlink" contentScriptType="application/ecmascript" contentStyleType="text/css" height="937.5px" preserveAspectRatio="none" style="width:3650px;height:937px;background:#11141A;" version="1.1" viewBox="0 0 3650 937" width="3650px" zoomAndPan="magnify"><defs/><g><text fill="#E6E8EC" font-family="DejaVu Sans" font-size="28.125" lengthAdjust="spacingAndGlyphs" textLength="639.0625" x="1528.9063" y="26.1063">Čtyři architektonické styly aplikované na DDD</text><!--MD5=[ad712c52999c2a755673edf084745bec]
cluster P_LAYERED--><path d="M51.5625,159.3018 L306.25,159.3018 A7.0313,7.0313 0 0 1 310.9375,163.9893 L321.875,194.1406 L653.125,194.1406 A4.6875,4.6875 0 0 1 657.8125,198.8281 L657.8125,915.5518 A4.6875,4.6875 0 0 1 653.125,920.2393 L51.5625,920.2393 A4.6875,4.6875 0 0 1 46.875,915.5518 L46.875,163.9893 A4.6875,4.6875 0 0 1 51.5625,159.3018 " fill="#11141A" style="stroke: #F0A456; stroke-width: 2.34375;"/><line style="stroke: #F0A456; stroke-width: 2.34375;" x1="46.875" x2="321.875" y1="194.1406" y2="194.1406"/><text fill="#F0A456" font-family="DejaVu Sans" font-size="21.875" font-weight="bold" lengthAdjust="spacingAndGlyphs" textLength="254.6875" x="53.125" y="182.7316">1. Layered (klasická)</text><!--MD5=[6534739d9849fb85aa1143d10ade5938]
cluster P_HEX--><path d="M725,159.3018 L1100,159.3018 A7.0313,7.0313 0 0 1 1104.6875,163.9893 L1115.625,194.1406 L2071.875,194.1406 A4.6875,4.6875 0 0 1 2076.5625,198.8281 L2076.5625,528.0518 A4.6875,4.6875 0 0 1 2071.875,532.7393 L725,532.7393 A4.6875,4.6875 0 0 1 720.3125,528.0518 L720.3125,163.9893 A4.6875,4.6875 0 0 1 725,159.3018 " fill="#11141A" style="stroke: #F0A456; stroke-width: 2.34375;"/><line style="stroke: #F0A456; stroke-width: 2.34375;" x1="720.3125" x2="1115.625" y1="194.1406" y2="194.1406"/><text fill="#F0A456" font-family="DejaVu Sans" font-size="21.875" font-weight="bold" lengthAdjust="spacingAndGlyphs" textLength="375" x="726.5625" y="182.7316">2. Hexagonal (Cockburn 2005)</text><!--MD5=[010933db1dc120d4c4a4cbe1b151dcaf]
cluster P_ONION--><path d="M2143.75,172.583 L2443.75,172.583 A7.0313,7.0313 0 0 1 2448.4375,177.2705 L2459.375,207.4219 L2720.3125,207.4219 A4.6875,4.6875 0 0 1 2725,212.1094 L2725,903.0518 A4.6875,4.6875 0 0 1 2720.3125,907.7393 L2143.75,907.7393 A4.6875,4.6875 0 0 1 2139.0625,903.0518 L2139.0625,177.2705 A4.6875,4.6875 0 0 1 2143.75,172.583 " fill="#11141A" style="stroke: #F0A456; stroke-width: 2.34375;"/><line style="stroke: #F0A456; stroke-width: 2.34375;" x1="2139.0625" x2="2459.375" y1="207.4219" y2="207.4219"/><text fill="#F0A456" font-family="DejaVu Sans" font-size="21.875" font-weight="bold" lengthAdjust="spacingAndGlyphs" textLength="300" x="2145.3125" y="196.0129">3. Onion (Palermo 2008)</text><!--MD5=[73f526a6e93b6622420a5cc1c7c310c9]
cluster P_CLEAN--><path d="M2792.1875,159.3018 L3065.625,159.3018 A7.0313,7.0313 0 0 1 3070.3125,163.9893 L3081.25,194.1406 L3626.5625,194.1406 A4.6875,4.6875 0 0 1 3631.25,198.8281 L3631.25,528.0518 A4.6875,4.6875 0 0 1 3626.5625,532.7393 L2792.1875,532.7393 A4.6875,4.6875 0 0 1 2787.5,528.0518 L2787.5,163.9893 A4.6875,4.6875 0 0 1 2792.1875,159.3018 " fill="#11141A" style="stroke: #F0A456; stroke-width: 2.34375;"/><line style="stroke: #F0A456; stroke-width: 2.34375;" x1="2787.5" x2="3081.25" y1="194.1406" y2="194.1406"/><text fill="#F0A456" font-family="DejaVu Sans" font-size="21.875" font-weight="bold" lengthAdjust="spacingAndGlyphs" textLength="273.4375" x="2793.75" y="182.7316">4. Clean (Martin 2012)</text><!--MD5=[c2cb950f7d819a15a33de5652798a7a1]
entity l_pres--><rect fill="#161A22" height="82.1777" rx="4.6875" ry="4.6875" style="stroke: #3D424E; stroke-width: 2.34375;" width="168.75" x="117.1875" y="226.4893"/><text fill="#E6E8EC" font-family="DejaVu Sans" font-size="21.875" lengthAdjust="spacingAndGlyphs" textLength="137.5" x="132.8125" y="262.4191">Presentation</text><text fill="#E6E8EC" font-family="DejaVu Sans" font-size="21.875" lengthAdjust="spacingAndGlyphs" textLength="120.3125" x="141.4063" y="287.883">(Controller)</text><!--MD5=[6c125d8fbfb085db217b8249898851f5]
entity l_app--><rect fill="#161A22" height="82.1777" rx="4.6875" ry="4.6875" style="stroke: #3D424E; stroke-width: 2.34375;" width="148.4375" x="127.3438" y="407.7393"/><text fill="#E6E8EC" font-family="DejaVu Sans" font-size="21.875" lengthAdjust="spacingAndGlyphs" textLength="117.1875" x="142.9688" y="443.6691">Application</text><text fill="#E6E8EC" font-family="DejaVu Sans" font-size="21.875" lengthAdjust="spacingAndGlyphs" textLength="93.75" x="154.6875" y="469.133">(Service)</text><!--MD5=[80ff0e9d4bbbfa77d3984eed9eab9e5f]
entity l_dom--><rect fill="#F0A456" height="82.1777" rx="4.6875" ry="4.6875" style="stroke: #3D424E; stroke-width: 2.34375;" width="114.0625" x="144.5313" y="588.9893"/><text fill="#E6E8EC" font-family="DejaVu Sans" font-size="21.875" lengthAdjust="spacingAndGlyphs" textLength="82.8125" x="160.1563" y="624.9191">Domain</text><text fill="#E6E8EC" font-family="DejaVu Sans" font-size="21.875" lengthAdjust="spacingAndGlyphs" textLength="75" x="164.0625" y="650.383">(Entity)</text><!--MD5=[324148c93b383d578b0d21ca4254d584]
entity l_inf--><rect fill="#161A22" height="82.1777" rx="4.6875" ry="4.6875" style="stroke: #3D424E; stroke-width: 2.34375;" width="209.375" x="96.875" y="782.7393"/><text fill="#E6E8EC" font-family="DejaVu Sans" font-size="21.875" lengthAdjust="spacingAndGlyphs" textLength="143.75" x="129.6875" y="818.6691">Infrastructure</text><text fill="#E6E8EC" font-family="DejaVu Sans" font-size="21.875" lengthAdjust="spacingAndGlyphs" textLength="178.125" x="112.5" y="844.133">(Doctrine, HTTP)</text><path d="M361.7188,770.2393 L361.7188,817.8955 L306.5781,824.1455 L361.7188,830.3955 L361.7188,878.3447 A4.6875,4.6875 0 0 0 366.4063,883.0322 L614.8438,883.0322 A4.6875,4.6875 0 0 0 619.5313,878.3447 L619.5313,781.1768 L603.9063,765.5518 L366.4063,765.5518 A4.6875,4.6875 0 0 0 361.7188,770.2393 " fill="#1B202A" style="stroke: #3D424E; stroke-width: 1.5625;"/><path d="M603.9063,765.5518 L603.9063,778.833 A2.3438,2.3438 0 0 0 606.25,781.1768 L619.5313,781.1768 L603.9063,765.5518 " fill="#1B202A" style="stroke: #3D424E; stroke-width: 1.5625;"/><text fill="#A6ADBB" font-family="DejaVu Sans" font-size="21.875" lengthAdjust="spacingAndGlyphs" textLength="170.3125" x="371.0938" y="793.6691">Doménové třídy</text><text fill="#A6ADBB" font-family="DejaVu Sans" font-size="21.875" lengthAdjust="spacingAndGlyphs" textLength="195.3125" x="371.0938" y="819.133">závisí na Doctrine.</text><text fill="#A6ADBB" font-family="DejaVu Sans" font-size="21.875" lengthAdjust="spacingAndGlyphs" textLength="90.625" x="371.0938" y="844.5969">Vrstva je</text><text fill="#A6ADBB" font-family="DejaVu Sans" font-size="21.875" font-style="italic" lengthAdjust="spacingAndGlyphs" textLength="42.1875" x="467.9688" y="844.5969">pod</text><text fill="#A6ADBB" font-family="DejaVu Sans" font-size="21.875" lengthAdjust="spacingAndGlyphs" textLength="50" x="516.4063" y="844.5969">nimi,</text><text fill="#A6ADBB" font-family="DejaVu Sans" font-size="21.875" lengthAdjust="spacingAndGlyphs" textLength="104.6875" x="371.0938" y="870.0607">ale stále ji</text><text fill="#A6ADBB" font-family="DejaVu Sans" font-size="21.875" font-weight="bold" lengthAdjust="spacingAndGlyphs" textLength="107.8125" x="482.0313" y="870.0607">používají</text><text fill="#A6ADBB" font-family="DejaVu Sans" font-size="21.875" lengthAdjust="spacingAndGlyphs" textLength="6.25" x="589.8438" y="870.0607">.</text><!--MD5=[1926b3f9f0237c77f1a2a13558b60da3]
entity h_http--><rect fill="#161A22" height="82.1777" rx="4.6875" ry="4.6875" style="stroke: #3D424E; stroke-width: 2.34375;" width="248.4375" x="788.2813" y="226.4893"/><text fill="#E6E8EC" font-family="DejaVu Sans" font-size="21.875" lengthAdjust="spacingAndGlyphs" textLength="148.4375" x="838.2813" y="262.4191">HTTP Adapter</text><text fill="#E6E8EC" font-family="DejaVu Sans" font-size="21.875" lengthAdjust="spacingAndGlyphs" textLength="217.1875" x="803.9063" y="287.883">(Symfony Controller)</text><!--MD5=[f5d0c670fcd2344f00fb4dbff5faa16f]
entity h_in--><rect fill="#161A22" height="82.1777" rx="4.6875" ry="4.6875" style="stroke: #3D424E; stroke-width: 2.34375;" width="170.3125" x="1091.4063" y="226.4893"/><text fill="#E6E8EC" font-family="DejaVu Sans" font-size="21.875" lengthAdjust="spacingAndGlyphs" textLength="139.0625" x="1107.0313" y="262.4191">Inbound Port</text><text fill="#E6E8EC" font-family="DejaVu Sans" font-size="21.875" lengthAdjust="spacingAndGlyphs" textLength="121.875" x="1115.625" y="287.883">«interface»</text><!--MD5=[05dfdb83f6bf389e21575008b84a115e]
entity h_core--><rect fill="#F0A456" height="82.1777" rx="4.6875" ry="4.6875" style="stroke: #3D424E; stroke-width: 2.34375;" width="203.125" x="1317.1875" y="226.4893"/><text fill="#E6E8EC" font-family="DejaVu Sans" font-size="21.875" lengthAdjust="spacingAndGlyphs" textLength="140.625" x="1348.4375" y="262.4191">Domain Core</text><text fill="#E6E8EC" font-family="DejaVu Sans" font-size="21.875" lengthAdjust="spacingAndGlyphs" textLength="171.875" x="1332.8125" y="287.883">(Aggregate, VO)</text><!--MD5=[03bfb80f24b4491fa0f8c7b7c675634d]
entity h_out--><rect fill="#161A22" height="82.1777" rx="4.6875" ry="4.6875" style="stroke: #3D424E; stroke-width: 2.34375;" width="190.625" x="1575" y="226.4893"/><text fill="#E6E8EC" font-family="DejaVu Sans" font-size="21.875" lengthAdjust="spacingAndGlyphs" textLength="159.375" x="1590.625" y="262.4191">Outbound Port</text><text fill="#E6E8EC" font-family="DejaVu Sans" font-size="21.875" lengthAdjust="spacingAndGlyphs" textLength="121.875" x="1609.375" y="287.883">«interface»</text><!--MD5=[6b32fe325a2adf1e57269f406ed020bc]
entity h_doc--><rect fill="#161A22" height="82.1777" rx="4.6875" ry="4.6875" style="stroke: #3D424E; stroke-width: 2.34375;" width="218.75" x="1820.3125" y="226.4893"/><text fill="#E6E8EC" font-family="DejaVu Sans" font-size="21.875" lengthAdjust="spacingAndGlyphs" textLength="182.8125" x="1838.2813" y="262.4191">Doctrine Adapter</text><text fill="#E6E8EC" font-family="DejaVu Sans" font-size="21.875" lengthAdjust="spacingAndGlyphs" textLength="187.5" x="1835.9375" y="287.883">(Repository impl.)</text><path d="M1276.5625,407.7393 L1276.5625,490.3809 A4.6875,4.6875 0 0 0 1281.25,495.0684 L1556.25,495.0684 A4.6875,4.6875 0 0 0 1560.9375,490.3809 L1560.9375,418.6768 L1545.3125,403.0518 L1425,403.0518 L1418.75,309.4268 L1412.5,403.0518 L1281.25,403.0518 A4.6875,4.6875 0 0 0 1276.5625,407.7393 " fill="#1B202A" style="stroke: #3D424E; stroke-width: 1.5625;"/><path d="M1545.3125,403.0518 L1545.3125,416.333 A2.3438,2.3438 0 0 0 1547.6563,418.6768 L1560.9375,418.6768 L1545.3125,403.0518 " fill="#1B202A" style="stroke: #3D424E; stroke-width: 1.5625;"/><text fill="#A6ADBB" font-family="DejaVu Sans" font-size="21.875" lengthAdjust="spacingAndGlyphs" textLength="156.25" x="1285.9375" y="431.1691">Doména závisí</text><text fill="#A6ADBB" font-family="DejaVu Sans" font-size="21.875" font-weight="bold" lengthAdjust="spacingAndGlyphs" textLength="37.5" x="1448.4375" y="431.1691">jen</text><text fill="#A6ADBB" font-family="DejaVu Sans" font-size="21.875" lengthAdjust="spacingAndGlyphs" textLength="251.5625" x="1285.9375" y="456.633">na portech (interfaces).</text><text fill="#A6ADBB" font-family="DejaVu Sans" font-size="21.875" lengthAdjust="spacingAndGlyphs" textLength="146.875" x="1285.9375" y="482.0969">Adaptéry jsou</text><text fill="#A6ADBB" font-family="DejaVu Sans" font-size="21.875" font-style="italic" lengthAdjust="spacingAndGlyphs" textLength="73.4375" x="1439.0625" y="482.0969">plug-in</text><text fill="#A6ADBB" font-family="DejaVu Sans" font-size="21.875" lengthAdjust="spacingAndGlyphs" textLength="6.25" x="1512.5" y="482.0969">.</text><!--MD5=[8e27bfc5c58830a854cfe85909258a94]
entity o_ui--><rect fill="#161A22" height="56.7139" rx="4.6875" ry="4.6875" style="stroke: #3D424E; stroke-width: 2.34375;" width="215.625" x="2206.25" y="239.7705"/><text fill="#E6E8EC" font-family="DejaVu Sans" font-size="21.875" lengthAdjust="spacingAndGlyphs" textLength="184.375" x="2221.875" y="275.7004">UI / Infrastructure</text><!--MD5=[029f67ff3b429a44957d36e29bf1d625]
entity o_as--><rect fill="#161A22" height="56.7139" rx="4.6875" ry="4.6875" style="stroke: #3D424E; stroke-width: 2.34375;" width="245.3125" x="2189.8438" y="421.0205"/><text fill="#E6E8EC" font-family="DejaVu Sans" font-size="21.875" lengthAdjust="spacingAndGlyphs" textLength="214.0625" x="2205.4688" y="456.9504">Application Services</text><!--MD5=[1c845906246a8f419039868335b11442]
entity o_ds--><rect fill="#161A22" height="56.7139" rx="4.6875" ry="4.6875" style="stroke: #3D424E; stroke-width: 2.34375;" width="210.9375" x="2197.6563" y="602.2705"/><text fill="#E6E8EC" font-family="DejaVu Sans" font-size="21.875" lengthAdjust="spacingAndGlyphs" textLength="179.6875" x="2213.2813" y="638.2004">Domain Services</text><!--MD5=[22d3db1612b06bfe38e5d43986d572a5]
entity o_dom--><rect fill="#F0A456" height="82.1777" rx="4.6875" ry="4.6875" style="stroke: #3D424E; stroke-width: 2.34375;" width="185.9375" x="2189.8438" y="782.7393"/><text fill="#E6E8EC" font-family="DejaVu Sans" font-size="21.875" lengthAdjust="spacingAndGlyphs" textLength="154.6875" x="2205.4688" y="818.6691">Domain Model</text><text fill="#E6E8EC" font-family="DejaVu Sans" font-size="21.875" lengthAdjust="spacingAndGlyphs" textLength="118.75" x="2223.4375" y="844.133">(Entity, VO)</text><path d="M2431.25,782.7393 L2431.25,817.8955 L2376.2656,824.1455 L2431.25,830.3955 L2431.25,865.3809 A4.6875,4.6875 0 0 0 2435.9375,870.0684 L2682.8125,870.0684 A4.6875,4.6875 0 0 0 2687.5,865.3809 L2687.5,793.6768 L2671.875,778.0518 L2435.9375,778.0518 A4.6875,4.6875 0 0 0 2431.25,782.7393 " fill="#1B202A" style="stroke: #3D424E; stroke-width: 1.5625;"/><path d="M2671.875,778.0518 L2671.875,791.333 A2.3438,2.3438 0 0 0 2674.2188,793.6768 L2687.5,793.6768 L2671.875,778.0518 " fill="#1B202A" style="stroke: #3D424E; stroke-width: 1.5625;"/><text fill="#A6ADBB" font-family="DejaVu Sans" font-size="21.875" lengthAdjust="spacingAndGlyphs" textLength="184.375" x="2440.625" y="806.1691">Závislosti směřují</text><text fill="#A6ADBB" font-family="DejaVu Sans" font-size="21.875" lengthAdjust="spacingAndGlyphs" textLength="48.4375" x="2440.625" y="831.633">vždy</text><text fill="#A6ADBB" font-family="DejaVu Sans" font-size="21.875" font-weight="bold" lengthAdjust="spacingAndGlyphs" textLength="87.5" x="2495.3125" y="831.633">dovnitř</text><text fill="#A6ADBB" font-family="DejaVu Sans" font-size="21.875" lengthAdjust="spacingAndGlyphs" textLength="6.25" x="2582.8125" y="831.633">.</text><text fill="#A6ADBB" font-family="DejaVu Sans" font-size="21.875" lengthAdjust="spacingAndGlyphs" textLength="223.4375" x="2440.625" y="857.0969">Doména nezná infra.</text><!--MD5=[3e97aad33f1dba013c038a696272b7fa]
entity c_fd--><rect fill="#161A22" height="82.1777" rx="4.6875" ry="4.6875" style="stroke: #3D424E; stroke-width: 2.34375;" width="187.5" x="2854.6875" y="226.4893"/><text fill="#E6E8EC" font-family="DejaVu Sans" font-size="21.875" lengthAdjust="spacingAndGlyphs" textLength="156.25" x="2870.3125" y="262.4191">Frameworks &amp;</text><text fill="#E6E8EC" font-family="DejaVu Sans" font-size="21.875" lengthAdjust="spacingAndGlyphs" textLength="75" x="2910.9375" y="287.883">Drivers</text><!--MD5=[258993540ca771a15a4832711eee3804]
entity c_ia--><rect fill="#161A22" height="82.1777" rx="4.6875" ry="4.6875" style="stroke: #3D424E; stroke-width: 2.34375;" width="128.125" x="3096.875" y="226.4893"/><text fill="#E6E8EC" font-family="DejaVu Sans" font-size="21.875" lengthAdjust="spacingAndGlyphs" textLength="93.75" x="3114.0625" y="262.4191">Interface</text><text fill="#E6E8EC" font-family="DejaVu Sans" font-size="21.875" lengthAdjust="spacingAndGlyphs" textLength="96.875" x="3112.5" y="287.883">Adapters</text><!--MD5=[8591b4586c4fd8b492dcd561bce96f4d]
entity c_uc--><rect fill="#161A22" height="56.7139" rx="4.6875" ry="4.6875" style="stroke: #3D424E; stroke-width: 2.34375;" width="146.875" x="3279.6875" y="239.7705"/><text fill="#E6E8EC" font-family="DejaVu Sans" font-size="21.875" lengthAdjust="spacingAndGlyphs" textLength="115.625" x="3295.3125" y="275.7004">Use Cases</text><!--MD5=[5d8f783edaee82c975f7a90904d0305e]
entity c_ent--><rect fill="#F0A456" height="56.7139" rx="4.6875" ry="4.6875" style="stroke: #3D424E; stroke-width: 2.34375;" width="110.9375" x="3482.0313" y="239.7705"/><text fill="#E6E8EC" font-family="DejaVu Sans" font-size="21.875" lengthAdjust="spacingAndGlyphs" textLength="79.6875" x="3497.6563" y="275.7004">Entities</text><path d="M3325.7813,407.7393 L3325.7813,490.3809 A4.6875,4.6875 0 0 0 3330.4688,495.0684 L3588.2813,495.0684 A4.6875,4.6875 0 0 0 3592.9688,490.3809 L3592.9688,418.6768 L3577.3438,403.0518 L3485.2188,403.0518 L3525.6406,296.5049 L3472.7188,403.0518 L3330.4688,403.0518 A4.6875,4.6875 0 0 0 3325.7813,407.7393 " fill="#1B202A" style="stroke: #3D424E; stroke-width: 1.5625;"/><path d="M3577.3438,403.0518 L3577.3438,416.333 A2.3438,2.3438 0 0 0 3579.6875,418.6768 L3592.9688,418.6768 L3577.3438,403.0518 " fill="#1B202A" style="stroke: #3D424E; stroke-width: 1.5625;"/><text fill="#A6ADBB" font-family="DejaVu Sans" font-size="21.875" lengthAdjust="spacingAndGlyphs" textLength="234.375" x="3335.1563" y="431.1691">4 koncentrické vrstvy.</text><text fill="#A6ADBB" font-family="DejaVu Sans" font-size="21.875" font-weight="bold" lengthAdjust="spacingAndGlyphs" textLength="225" x="3335.1563" y="456.633">Dependency Rule:</text><text fill="#A6ADBB" font-family="DejaVu Sans" font-size="21.875" lengthAdjust="spacingAndGlyphs" textLength="234.375" x="3335.1563" y="482.0969">jednosměrná, dovnitř.</text><!--MD5=[7af5bd194ba164fae54e6a3f3b19a36c]
link l_pres to l_app--><path d="M201.5625,309.4268 C201.5625,335.833 201.5625,370.5986 201.5625,398.6455 " fill="none" id="l_pres-&gt;l_app" style="stroke: #F0A456; stroke-width: 2.34375;"/><polygon fill="#F0A456" points="201.5625,407.1299,207.8125,393.0674,201.5625,399.3174,195.3125,393.0674,201.5625,407.1299" style="stroke: #F0A456; stroke-width: 2.34375;"/><!--MD5=[65ade0d07de1b17dc67c63ad73fb488f]
link l_app to l_dom--><path d="M201.5625,490.6768 C201.5625,517.083 201.5625,551.8486 201.5625,579.8955 " fill="none" id="l_app-&gt;l_dom" style="stroke: #F0A456; stroke-width: 2.34375;"/><polygon fill="#F0A456" points="201.5625,588.3799,207.8125,574.3174,201.5625,580.5674,195.3125,574.3174,201.5625,588.3799" style="stroke: #F0A456; stroke-width: 2.34375;"/><!--MD5=[4ba25dfec8c3ba76c0bb924c6ae83b93]
link l_dom to l_inf--><path d="M201.5625,671.9268 C201.5625,701.9111 201.5625,743.0986 201.5625,774.8174 " fill="none" id="l_dom-&gt;l_inf" style="stroke: #F0A456; stroke-width: 2.34375;"/><polygon fill="#F0A456" points="201.5625,782.6768,207.8125,768.6143,201.5625,774.8643,195.3125,768.6143,201.5625,782.6768" style="stroke: #F0A456; stroke-width: 2.34375;"/><!--MD5=[9d20d9bcb555442dac43de0499e6736f]
link h_http to h_in--><path d="M1036.7969,267.8955 C1052.2969,267.8955 1067.7969,267.8955 1083.2813,267.8955 " fill="none" id="h_http-&gt;h_in" style="stroke: #F0A456; stroke-width: 2.34375;"/><polygon fill="#F0A456" points="1091.3906,267.8955,1077.3281,261.6455,1083.5781,267.8955,1077.3281,274.1455,1091.3906,267.8955" style="stroke: #F0A456; stroke-width: 2.34375;"/><!--MD5=[93af646e8d9994eae0dd0fa7a9377a59]
link h_in to h_core--><path d="M1262.1719,267.8955 C1277.625,267.8955 1293.0781,267.8955 1308.5313,267.8955 " fill="none" id="h_in-&gt;h_core" style="stroke: #F0A456; stroke-width: 2.34375;"/><polygon fill="#F0A456" points="1316.6094,267.8955,1302.5469,261.6455,1308.7969,267.8955,1302.5469,274.1455,1316.6094,267.8955" style="stroke: #F0A456; stroke-width: 2.34375;"/><!--MD5=[178ad47e7ddc245e4b7d21000c84dd66]
link h_core to h_out--><path d="M1520.4531,267.8955 C1535.9063,267.8955 1551.3594,267.8955 1566.8125,267.8955 " fill="none" id="h_core-&gt;h_out" style="stroke: #F0A456; stroke-width: 2.34375;"/><polygon fill="#F0A456" points="1574.8906,267.8955,1560.8281,261.6455,1567.0781,267.8955,1560.8281,274.1455,1574.8906,267.8955" style="stroke: #F0A456; stroke-width: 2.34375;"/><!--MD5=[2d14676846f3f1686a97893e16624108]
link h_out to h_doc--><path d="M1766.0625,267.8955 C1781.2969,267.8955 1796.5469,267.8955 1811.7813,267.8955 " fill="none" id="h_out-&gt;h_doc" style="stroke: #F0A456; stroke-width: 2.34375;"/><polygon fill="#F0A456" points="1819.75,267.8955,1805.6875,261.6455,1811.9375,267.8955,1805.6875,274.1455,1819.75,267.8955" style="stroke: #F0A456; stroke-width: 2.34375;"/><!--MD5=[e171407273ecca8b3c4912150e22883d]
link o_ui to o_as--><path d="M2313.8281,296.5049 C2313.5469,327.6924 2313.1094,378.9893 2312.7969,413.0205 " fill="none" id="o_ui-&gt;o_as" style="stroke: #F0A456; stroke-width: 2.34375;"/><polygon fill="#F0A456" points="2312.7344,420.8643,2319.1047,406.8558,2312.8013,413.052,2306.6051,406.7487,2312.7344,420.8643" style="stroke: #F0A456; stroke-width: 2.34375;"/><!--MD5=[3809abc0fd7515ff08ad02d4424463af]
link o_as to o_ds--><path d="M2311.0781,477.7549 C2309.4375,508.9424 2306.7344,560.2393 2304.9375,594.2705 " fill="none" id="o_as-&gt;o_ds" style="stroke: #F0A456; stroke-width: 2.34375;"/><polygon fill="#F0A456" points="2304.5313,602.1143,2311.5365,588.4123,2304.9559,594.3133,2299.0549,587.7328,2304.5313,602.1143" style="stroke: #F0A456; stroke-width: 2.34375;"/><!--MD5=[56c433670ee1cb16c4aa168c3793c51f]
link o_ds to o_dom--><path d="M2300.25,658.8643 C2297.0625,688.8174 2291.8438,737.8486 2287.9375,774.4424 " fill="none" id="o_ds-&gt;o_dom" style="stroke: #F0A456; stroke-width: 2.34375;"/><polygon fill="#F0A456" points="2287.0781,782.5205,2294.7799,769.1976,2287.9041,774.7518,2282.3499,767.876,2287.0781,782.5205" style="stroke: #F0A456; stroke-width: 2.34375;"/><!--MD5=[24349877cf351ad4c324cd6bd94da7bd]
link c_fd to c_ia--><path d="M3042.2344,267.8955 C3057.6406,267.8955 3073.0313,267.8955 3088.4375,267.8955 " fill="none" id="c_fd-&gt;c_ia" style="stroke: #F0A456; stroke-width: 2.34375;"/><polygon fill="#F0A456" points="3096.4844,267.8955,3082.4219,261.6455,3088.6719,267.8955,3082.4219,274.1455,3096.4844,267.8955" style="stroke: #F0A456; stroke-width: 2.34375;"/><!--MD5=[3b526351b37abcadf931463dbfabe7f5]
link c_ia to c_uc--><path d="M3225.5,267.8955 C3240.7813,267.8955 3256.0625,267.8955 3271.3438,267.8955 " fill="none" id="c_ia-&gt;c_uc" style="stroke: #F0A456; stroke-width: 2.34375;"/><polygon fill="#F0A456" points="3279.3438,267.8955,3265.2813,261.6455,3271.5313,267.8955,3265.2813,274.1455,3279.3438,267.8955" style="stroke: #F0A456; stroke-width: 2.34375;"/><!--MD5=[bf8b949f66171a5b2144b15e3b591192]
link c_uc to c_ent--><path d="M3426.5938,267.8955 C3442.2031,267.8955 3457.8281,267.8955 3473.4375,267.8955 " fill="none" id="c_uc-&gt;c_ent" style="stroke: #F0A456; stroke-width: 2.34375;"/><polygon fill="#F0A456" points="3481.6094,267.8955,3467.5469,261.6455,3473.7969,267.8955,3467.5469,274.1455,3481.6094,267.8955" style="stroke: #F0A456; stroke-width: 2.34375;"/><!--MD5=[7051d95cf4cdac6ecc365e502e536a56]
link P_LAYERED to P_HEX--><!--MD5=[809e41154a6f0cf360d6b1e31d053555]
link P_HEX to P_ONION--><!--MD5=[dd92706a09861d9bc5eb27b8d6199d52]
link P_ONION to P_CLEAN--><!--MD5=[acd5e3d99577c55bf90678602eecaea0]
@startuml hexagonal_vs_onion
skinparam dpi 150
skinparam backgroundColor #11141A
skinparam shadowing false
skinparam roundCorner 6

skinparam defaultFontName "DejaVu Sans"
skinparam defaultFontSize 14
skinparam defaultFontColor #E6E8EC
skinparam defaultTextAlignment center


skinparam ArrowColor #F0A456
skinparam ArrowFontColor #E6E8EC
skinparam ArrowThickness 1.5

skinparam node {
  BackgroundColor #161A22
  BorderColor #3D424E
  FontColor #E6E8EC
}

skinparam component {
  BackgroundColor #161A22
  BorderColor #3D424E
  FontColor #E6E8EC
}

skinparam rectangle {
  BackgroundColor #161A22
  BorderColor #3D424E
  FontColor #E6E8EC
}

skinparam package {
  BackgroundColor #11141A
  BorderColor #F0A456
  FontColor #F0A456
}

skinparam folder {
  BackgroundColor #161A22
  BorderColor #3D424E
  FontColor #E6E8EC
}

skinparam frame {
  BackgroundColor #161A22
  BorderColor #3D424E
  FontColor #E6E8EC
}

skinparam database {
  BackgroundColor #1B202A
  BorderColor #3D424E
  FontColor #E6E8EC
}

skinparam queue {
  BackgroundColor #1B202A
  BorderColor #3D424E
  FontColor #E6E8EC
}

skinparam cloud {
  BackgroundColor #1B202A
  BorderColor #3D424E
  FontColor #E6E8EC
}

skinparam actor {
  BackgroundColor #161A22
  BorderColor #F0A456
  FontColor #E6E8EC
}

skinparam usecase {
  BackgroundColor #161A22
  BorderColor #3D424E
  FontColor #E6E8EC
}

skinparam class {
  BackgroundColor #161A22
  BorderColor #3D424E
  HeaderBackgroundColor #1B202A
  ArrowColor #F0A456
  FontColor #E6E8EC
  AttributeFontColor #A6ADBB
  StereotypeFontColor #F0A456
}

skinparam object {
  BackgroundColor #161A22
  BorderColor #3D424E
  FontColor #E6E8EC
}

skinparam sequence {
  ParticipantBackgroundColor #161A22
  ParticipantBorderColor #3D424E
  ParticipantFontColor #E6E8EC
  ActorBackgroundColor #161A22
  ActorBorderColor #F0A456
  ActorFontColor #E6E8EC
  LifeLineBorderColor #3D424E
  LifeLineBackgroundColor #1B202A
  ArrowColor #F0A456
  ArrowFontColor #E6E8EC
  GroupBackgroundColor #1B202A
  GroupBorderColor #3D424E
  GroupFontColor #A6ADBB
  GroupHeaderFontColor #F0A456
  BoxBackgroundColor #11141A
  BoxBorderColor #F0A456
  BoxFontColor #F0A456
  DividerBackgroundColor #1B202A
  DividerBorderColor #3D424E
  DividerFontColor #A6ADBB
  ReferenceBackgroundColor #161A22
  ReferenceBorderColor #3D424E
  ReferenceFontColor #E6E8EC
  ReferenceHeaderBackgroundColor #1B202A
  StereotypeFontColor #F0A456
}

skinparam state {
  BackgroundColor #161A22
  BorderColor #3D424E
  FontColor #E6E8EC
  StartColor #F0A456
  EndColor #F0A456
  ArrowColor #F0A456
  AttributeFontColor #A6ADBB
}

skinparam activity {
  BackgroundColor #161A22
  BorderColor #3D424E
  FontColor #E6E8EC
  ArrowColor #F0A456
  StartColor #F0A456
  EndColor #F0A456
  BarColor #F0A456
  DiamondBackgroundColor #1B202A
  DiamondBorderColor #3D424E
  DiamondFontColor #E6E8EC
}

skinparam note {
  BackgroundColor #1B202A
  BorderColor #3D424E
  FontColor #A6ADBB
}

skinparam title {
  FontColor #E6E8EC
  FontSize 18
}

skinparam legend {
  BackgroundColor #161A22
  BorderColor #3D424E
  FontColor #A6ADBB
}

skinparam caption {
  FontColor #A6ADBB
}

skinparam stereotype {
  CBackgroundColor #1B202A
  CBorderColor #F0A456
  ABackgroundColor #1B202A
  ABorderColor #F0A456
  IBackgroundColor #1B202A
  IBorderColor #F0A456
  EBackgroundColor #1B202A
  EBorderColor #F0A456
}

title Čtyři architektonické styly aplikované na DDD

package "1. Layered (klasická)" as P_LAYERED {
    rectangle "Presentation\n(Controller)" as l_pres
    rectangle "Application\n(Service)" as l_app
    rectangle "Domain\n(Entity)" as l_dom #F0A456
    rectangle "Infrastructure\n(Doctrine, HTTP)" as l_inf

    l_pres -down-> l_app
    l_app  -down-> l_dom
    l_dom  -down-> l_inf

    note right of l_inf
      Doménové třídy
      závisí na Doctrine.
      Vrstva je <i>pod</i> nimi,
      ale stále ji <b>používají</b>.
    end note
}

package "2. Hexagonal (Cockburn 2005)" as P_HEX {
    rectangle "HTTP Adapter\n(Symfony Controller)" as h_http
    rectangle "Inbound Port\n<<interface>>" as h_in
    rectangle "Domain Core\n(Aggregate, VO)" as h_core #F0A456
    rectangle "Outbound Port\n<<interface>>" as h_out
    rectangle "Doctrine Adapter\n(Repository impl.)" as h_doc

    h_http -right-> h_in
    h_in   -right-> h_core
    h_core -right-> h_out
    h_out  -right-> h_doc

    note bottom of h_core
      Doména závisí <b>jen</b>
      na portech (interfaces).
      Adaptéry jsou <i>plug-in</i>.
    end note
}

package "3. Onion (Palermo 2008)" as P_ONION {
    rectangle "UI / Infrastructure" as o_ui
    rectangle "Application Services" as o_as
    rectangle "Domain Services" as o_ds
    rectangle "Domain Model\n(Entity, VO)" as o_dom #F0A456

    o_ui -down-> o_as
    o_as -down-> o_ds
    o_ds -down-> o_dom

    note right of o_dom
      Závislosti směřují
      vždy <b>dovnitř</b>.
      Doména nezná infra.
    end note
}

package "4. Clean (Martin 2012)" as P_CLEAN {
    rectangle "Frameworks &\nDrivers" as c_fd
    rectangle "Interface\nAdapters" as c_ia
    rectangle "Use Cases" as c_uc
    rectangle "Entities" as c_ent #F0A456

    c_fd -right-> c_ia
    c_ia -right-> c_uc
    c_uc -right-> c_ent

    note bottom of c_ent
      4 koncentrické vrstvy.
      <b>Dependency Rule:</b>
      jednosměrná, dovnitř.
    end note
}

P_LAYERED -[hidden]right- P_HEX
P_HEX     -[hidden]right- P_ONION
P_ONION   -[hidden]right- P_CLEAN

@enduml

PlantUML version 1.2020.02(Sun Mar 01 10:22:07 UTC 2020)
(GPL source distribution)
Java Runtime: OpenJDK Runtime Environment
JVM: OpenJDK 64-Bit Server VM
Java Version: 21.0.11+10-1-deb13u2-Debian
Operating System: Linux
Default Encoding: UTF-8
Language: en
Country: US
--></g></svg>