<?xml version="1.0" encoding="UTF-8" standalone="no"?><svg xmlns="http://www.w3.org/2000/svg" xmlns:xlink="http://www.w3.org/1999/xlink" contentScriptType="application/ecmascript" contentStyleType="text/css" height="1900px" preserveAspectRatio="none" style="width:2425px;height:1900px;background:#11141A;" version="1.1" viewBox="0 0 2425 1900" width="2425px" zoomAndPan="magnify"><defs/><g><text fill="#E6E8EC" font-family="DejaVu Sans" font-size="28.125" lengthAdjust="spacingAndGlyphs" textLength="587.5" x="911.7188" y="41.7313">Eventual Consistency - datový tok v CQRS</text><rect fill="#1B202A" height="460.8887" style="stroke: #3D424E; stroke-width: 1.5625;" width="15.625" x="457.0313" y="302.8809"/><rect fill="#1B202A" height="331.3721" style="stroke: #3D424E; stroke-width: 1.5625;" width="15.625" x="457.0313" y="1268.4082"/><rect fill="#1B202A" height="366.2109" style="stroke: #3D424E; stroke-width: 1.5625;" width="15.625" x="728.9063" y="350.2197"/><rect fill="#1B202A" height="271.5332" style="stroke: #3D424E; stroke-width: 1.5625;" width="15.625" x="1000.7813" y="397.5586"/><rect fill="#1B202A" height="47.3389" style="stroke: #3D424E; stroke-width: 1.5625;" width="15.625" x="1252.3438" y="444.8975"/><rect fill="#1B202A" height="94.6777" style="stroke: #3D424E; stroke-width: 1.5625;" width="15.625" x="1569.5313" y="949.5361"/><rect fill="#1B202A" height="47.3389" style="stroke: #3D424E; stroke-width: 1.5625;" width="15.625" x="1892.9688" y="996.875"/><rect fill="#1B202A" height="47.3389" style="stroke: #3D424E; stroke-width: 1.5625;" width="15.625" x="1892.9688" y="1410.4248"/><rect fill="#1B202A" height="236.6943" style="stroke: #3D424E; stroke-width: 1.5625;" width="15.625" x="2075.7813" y="1315.7471"/><rect fill="#1B202A" height="142.0166" style="stroke: #3D424E; stroke-width: 1.5625;" width="15.625" x="2338.2813" y="1363.0859"/><line style="stroke: #3D424E; stroke-width: 1.5625;" x1="198.4375" x2="198.4375" y1="183.2031" y2="845.4834"/><line style="stroke: #3D424E; stroke-width: 1.5625; stroke-dasharray: 1.0,4.0;" x1="198.4375" x2="198.4375" y1="845.4834" y2="914.6973"/><line style="stroke: #3D424E; stroke-width: 1.5625;" x1="198.4375" x2="198.4375" y1="914.6973" y2="1761.0107"/><line style="stroke: #3D424E; stroke-width: 1.5625;" x1="464.0625" x2="464.0625" y1="183.2031" y2="845.4834"/><line style="stroke: #3D424E; stroke-width: 1.5625; stroke-dasharray: 1.0,4.0;" x1="464.0625" x2="464.0625" y1="845.4834" y2="914.6973"/><line style="stroke: #3D424E; stroke-width: 1.5625;" x1="464.0625" x2="464.0625" y1="914.6973" y2="1761.0107"/><line style="stroke: #3D424E; stroke-width: 1.5625;" x1="736.7188" x2="736.7188" y1="183.2031" y2="845.4834"/><line style="stroke: #3D424E; stroke-width: 1.5625; stroke-dasharray: 1.0,4.0;" x1="736.7188" x2="736.7188" y1="845.4834" y2="914.6973"/><line style="stroke: #3D424E; stroke-width: 1.5625;" x1="736.7188" x2="736.7188" y1="914.6973" y2="1761.0107"/><line style="stroke: #3D424E; stroke-width: 1.5625;" x1="1007.8125" x2="1007.8125" y1="183.2031" y2="845.4834"/><line style="stroke: #3D424E; stroke-width: 1.5625; stroke-dasharray: 1.0,4.0;" x1="1007.8125" x2="1007.8125" y1="845.4834" y2="914.6973"/><line style="stroke: #3D424E; stroke-width: 1.5625;" x1="1007.8125" x2="1007.8125" y1="914.6973" y2="1761.0107"/><line style="stroke: #3D424E; stroke-width: 1.5625;" x1="1260.1563" x2="1260.1563" y1="183.2031" y2="845.4834"/><line style="stroke: #3D424E; stroke-width: 1.5625; stroke-dasharray: 1.0,4.0;" x1="1260.1563" x2="1260.1563" y1="845.4834" y2="914.6973"/><line style="stroke: #3D424E; stroke-width: 1.5625;" x1="1260.1563" x2="1260.1563" y1="914.6973" y2="1761.0107"/><line style="stroke: #3D424E; stroke-width: 1.5625;" x1="1407.0313" x2="1407.0313" y1="183.2031" y2="845.4834"/><line style="stroke: #3D424E; stroke-width: 1.5625; stroke-dasharray: 1.0,4.0;" x1="1407.0313" x2="1407.0313" y1="845.4834" y2="914.6973"/><line style="stroke: #3D424E; stroke-width: 1.5625;" x1="1407.0313" x2="1407.0313" y1="914.6973" y2="1761.0107"/><line style="stroke: #3D424E; stroke-width: 1.5625;" x1="1577.3438" x2="1577.3438" y1="183.2031" y2="845.4834"/><line style="stroke: #3D424E; stroke-width: 1.5625; stroke-dasharray: 1.0,4.0;" x1="1577.3438" x2="1577.3438" y1="845.4834" y2="914.6973"/><line style="stroke: #3D424E; stroke-width: 1.5625;" x1="1577.3438" x2="1577.3438" y1="914.6973" y2="1761.0107"/><line style="stroke: #3D424E; stroke-width: 1.5625;" x1="1900.7813" x2="1900.7813" y1="183.2031" y2="845.4834"/><line style="stroke: #3D424E; stroke-width: 1.5625; stroke-dasharray: 1.0,4.0;" x1="1900.7813" x2="1900.7813" y1="845.4834" y2="914.6973"/><line style="stroke: #3D424E; stroke-width: 1.5625;" x1="1900.7813" x2="1900.7813" y1="914.6973" y2="1761.0107"/><line style="stroke: #3D424E; stroke-width: 1.5625;" x1="2083.5938" x2="2083.5938" y1="183.2031" y2="845.4834"/><line style="stroke: #3D424E; stroke-width: 1.5625; stroke-dasharray: 1.0,4.0;" x1="2083.5938" x2="2083.5938" y1="845.4834" y2="914.6973"/><line style="stroke: #3D424E; stroke-width: 1.5625;" x1="2083.5938" x2="2083.5938" y1="914.6973" y2="1761.0107"/><line style="stroke: #3D424E; stroke-width: 1.5625;" x1="2345.3125" x2="2345.3125" y1="183.2031" y2="845.4834"/><line style="stroke: #3D424E; stroke-width: 1.5625; stroke-dasharray: 1.0,4.0;" x1="2345.3125" x2="2345.3125" y1="845.4834" y2="914.6973"/><line style="stroke: #3D424E; stroke-width: 1.5625;" x1="2345.3125" x2="2345.3125" y1="914.6973" y2="1761.0107"/><text fill="#E6E8EC" font-family="DejaVu Sans" font-size="21.875" lengthAdjust="spacingAndGlyphs" textLength="82.8125" x="153.125" y="178.0441">Uživatel</text><ellipse cx="199.2188" cy="74.9268" fill="#161A22" rx="12.5" ry="12.5" style="stroke: #F0A456; stroke-width: 3.125;"/><path d="M199.2188,87.4268 L199.2188,129.6143 M178.9063,99.9268 L219.5313,99.9268 M199.2188,129.6143 L178.9063,153.0518 M199.2188,129.6143 L219.5313,153.0518 " fill="none" style="stroke: #F0A456; stroke-width: 3.125;"/><text fill="#E6E8EC" font-family="DejaVu Sans" font-size="21.875" lengthAdjust="spacingAndGlyphs" textLength="82.8125" x="153.125" y="1779.7531">Uživatel</text><ellipse cx="199.2188" cy="1800.5371" fill="#161A22" rx="12.5" ry="12.5" style="stroke: #F0A456; stroke-width: 3.125;"/><path d="M199.2188,1813.0371 L199.2188,1855.2246 M178.9063,1825.5371 L219.5313,1825.5371 M199.2188,1855.2246 L178.9063,1878.6621 M199.2188,1855.2246 L219.5313,1878.6621 " fill="none" style="stroke: #F0A456; stroke-width: 3.125;"/><rect fill="#161A22" height="47.3389" rx="4.6875" ry="4.6875" style="stroke: #3D424E; stroke-width: 2.34375;" width="126.5625" x="401.5625" y="134.3018"/><text fill="#E6E8EC" font-family="DejaVu Sans" font-size="21.875" lengthAdjust="spacingAndGlyphs" textLength="104.6875" x="412.5" y="165.5441">Controller</text><rect fill="#161A22" height="47.3389" rx="4.6875" ry="4.6875" style="stroke: #3D424E; stroke-width: 2.34375;" width="126.5625" x="401.5625" y="1759.4482"/><text fill="#E6E8EC" font-family="DejaVu Sans" font-size="21.875" lengthAdjust="spacingAndGlyphs" textLength="104.6875" x="412.5" y="1790.6906">Controller</text><rect fill="#161A22" height="47.3389" rx="4.6875" ry="4.6875" style="stroke: #3D424E; stroke-width: 2.34375;" width="181.25" x="646.0938" y="134.3018"/><text fill="#E6E8EC" font-family="DejaVu Sans" font-size="21.875" lengthAdjust="spacingAndGlyphs" textLength="159.375" x="657.0313" y="165.5441">Command Bus</text><rect fill="#161A22" height="47.3389" rx="4.6875" ry="4.6875" style="stroke: #3D424E; stroke-width: 2.34375;" width="181.25" x="646.0938" y="1759.4482"/><text fill="#E6E8EC" font-family="DejaVu Sans" font-size="21.875" lengthAdjust="spacingAndGlyphs" textLength="159.375" x="657.0313" y="1790.6906">Command Bus</text><rect fill="#161A22" height="72.8027" rx="4.6875" ry="4.6875" style="stroke: #3D424E; stroke-width: 2.34375;" width="132.8125" x="942.1875" y="108.8379"/><text fill="#E6E8EC" font-family="DejaVu Sans" font-size="21.875" lengthAdjust="spacingAndGlyphs" textLength="110.9375" x="953.125" y="140.0803">Command</text><text fill="#E6E8EC" font-family="DejaVu Sans" font-size="21.875" lengthAdjust="spacingAndGlyphs" textLength="82.8125" x="967.1875" y="165.5441">Handler</text><rect fill="#161A22" height="72.8027" rx="4.6875" ry="4.6875" style="stroke: #3D424E; stroke-width: 2.34375;" width="132.8125" x="942.1875" y="1759.4482"/><text fill="#E6E8EC" font-family="DejaVu Sans" font-size="21.875" lengthAdjust="spacingAndGlyphs" textLength="110.9375" x="953.125" y="1790.6906">Command</text><text fill="#E6E8EC" font-family="DejaVu Sans" font-size="21.875" lengthAdjust="spacingAndGlyphs" textLength="82.8125" x="967.1875" y="1816.1545">Handler</text><text fill="#E6E8EC" font-family="DejaVu Sans" font-size="21.875" lengthAdjust="spacingAndGlyphs" textLength="93.75" x="1208.5938" y="178.0441">Write DB</text><path d="M1232.0313,101.4893 C1232.0313,85.8643 1260.1563,85.8643 1260.1563,85.8643 C1260.1563,85.8643 1288.2813,85.8643 1288.2813,101.4893 L1288.2813,142.1143 C1288.2813,157.7393 1260.1563,157.7393 1260.1563,157.7393 C1260.1563,157.7393 1232.0313,157.7393 1232.0313,142.1143 L1232.0313,101.4893 " fill="#1B202A" style="stroke: #3D424E; stroke-width: 2.34375;"/><path d="M1232.0313,101.4893 C1232.0313,117.1143 1260.1563,117.1143 1260.1563,117.1143 C1260.1563,117.1143 1288.2813,117.1143 1288.2813,101.4893 " fill="none" style="stroke: #3D424E; stroke-width: 2.34375;"/><text fill="#E6E8EC" font-family="DejaVu Sans" font-size="21.875" lengthAdjust="spacingAndGlyphs" textLength="93.75" x="1208.5938" y="1779.7531">Write DB</text><path d="M1232.0313,1800.5371 C1232.0313,1784.9121 1260.1563,1784.9121 1260.1563,1784.9121 C1260.1563,1784.9121 1288.2813,1784.9121 1288.2813,1800.5371 L1288.2813,1841.1621 C1288.2813,1856.7871 1260.1563,1856.7871 1260.1563,1856.7871 C1260.1563,1856.7871 1232.0313,1856.7871 1232.0313,1841.1621 L1232.0313,1800.5371 " fill="#1B202A" style="stroke: #3D424E; stroke-width: 2.34375;"/><path d="M1232.0313,1800.5371 C1232.0313,1816.1621 1260.1563,1816.1621 1260.1563,1816.1621 C1260.1563,1816.1621 1288.2813,1816.1621 1288.2813,1800.5371 " fill="none" style="stroke: #3D424E; stroke-width: 2.34375;"/><rect fill="#161A22" height="72.8027" rx="4.6875" ry="4.6875" style="stroke: #3D424E; stroke-width: 2.34375;" width="159.375" x="1327.3438" y="108.8379"/><text fill="#E6E8EC" font-family="DejaVu Sans" font-size="21.875" lengthAdjust="spacingAndGlyphs" textLength="109.375" x="1352.3438" y="140.0803">Event Bus</text><text fill="#E6E8EC" font-family="DejaVu Sans" font-size="21.875" lengthAdjust="spacingAndGlyphs" textLength="137.5" x="1338.2813" y="165.5441">(Messenger)</text><rect fill="#161A22" height="72.8027" rx="4.6875" ry="4.6875" style="stroke: #3D424E; stroke-width: 2.34375;" width="159.375" x="1327.3438" y="1759.4482"/><text fill="#E6E8EC" font-family="DejaVu Sans" font-size="21.875" lengthAdjust="spacingAndGlyphs" textLength="109.375" x="1352.3438" y="1790.6906">Event Bus</text><text fill="#E6E8EC" font-family="DejaVu Sans" font-size="21.875" lengthAdjust="spacingAndGlyphs" textLength="137.5" x="1338.2813" y="1816.1545">(Messenger)</text><rect fill="#161A22" height="47.3389" rx="4.6875" ry="4.6875" style="stroke: #3D424E; stroke-width: 2.34375;" width="118.75" x="1517.9688" y="134.3018"/><text fill="#E6E8EC" font-family="DejaVu Sans" font-size="21.875" lengthAdjust="spacingAndGlyphs" textLength="96.875" x="1528.9063" y="165.5441">Projektor</text><rect fill="#161A22" height="47.3389" rx="4.6875" ry="4.6875" style="stroke: #3D424E; stroke-width: 2.34375;" width="118.75" x="1517.9688" y="1759.4482"/><text fill="#E6E8EC" font-family="DejaVu Sans" font-size="21.875" lengthAdjust="spacingAndGlyphs" textLength="96.875" x="1528.9063" y="1790.6906">Projektor</text><text fill="#E6E8EC" font-family="DejaVu Sans" font-size="21.875" lengthAdjust="spacingAndGlyphs" textLength="95.3125" x="1848.4375" y="152.5803">Read DB</text><text fill="#E6E8EC" font-family="DejaVu Sans" font-size="21.875" lengthAdjust="spacingAndGlyphs" textLength="190.625" x="1800.7813" y="178.0441">(denorm. tabulka)</text><path d="M1872.6563,76.0254 C1872.6563,60.4004 1900.7813,60.4004 1900.7813,60.4004 C1900.7813,60.4004 1928.9063,60.4004 1928.9063,76.0254 L1928.9063,116.6504 C1928.9063,132.2754 1900.7813,132.2754 1900.7813,132.2754 C1900.7813,132.2754 1872.6563,132.2754 1872.6563,116.6504 L1872.6563,76.0254 " fill="#1B202A" style="stroke: #3D424E; stroke-width: 2.34375;"/><path d="M1872.6563,76.0254 C1872.6563,91.6504 1900.7813,91.6504 1900.7813,91.6504 C1900.7813,91.6504 1928.9063,91.6504 1928.9063,76.0254 " fill="none" style="stroke: #3D424E; stroke-width: 2.34375;"/><text fill="#E6E8EC" font-family="DejaVu Sans" font-size="21.875" lengthAdjust="spacingAndGlyphs" textLength="95.3125" x="1848.4375" y="1779.7531">Read DB</text><text fill="#E6E8EC" font-family="DejaVu Sans" font-size="21.875" lengthAdjust="spacingAndGlyphs" textLength="190.625" x="1800.7813" y="1805.217">(denorm. tabulka)</text><path d="M1872.6563,1826.001 C1872.6563,1810.376 1900.7813,1810.376 1900.7813,1810.376 C1900.7813,1810.376 1928.9063,1810.376 1928.9063,1826.001 L1928.9063,1866.626 C1928.9063,1882.251 1900.7813,1882.251 1900.7813,1882.251 C1900.7813,1882.251 1872.6563,1882.251 1872.6563,1866.626 L1872.6563,1826.001 " fill="#1B202A" style="stroke: #3D424E; stroke-width: 2.34375;"/><path d="M1872.6563,1826.001 C1872.6563,1841.626 1900.7813,1841.626 1900.7813,1841.626 C1900.7813,1841.626 1928.9063,1841.626 1928.9063,1826.001 " fill="none" style="stroke: #3D424E; stroke-width: 2.34375;"/><rect fill="#161A22" height="47.3389" rx="4.6875" ry="4.6875" style="stroke: #3D424E; stroke-width: 2.34375;" width="134.375" x="2016.4063" y="134.3018"/><text fill="#E6E8EC" font-family="DejaVu Sans" font-size="21.875" lengthAdjust="spacingAndGlyphs" textLength="112.5" x="2027.3438" y="165.5441">Query Bus</text><rect fill="#161A22" height="47.3389" rx="4.6875" ry="4.6875" style="stroke: #3D424E; stroke-width: 2.34375;" width="134.375" x="2016.4063" y="1759.4482"/><text fill="#E6E8EC" font-family="DejaVu Sans" font-size="21.875" lengthAdjust="spacingAndGlyphs" textLength="112.5" x="2027.3438" y="1790.6906">Query Bus</text><rect fill="#161A22" height="72.8027" rx="4.6875" ry="4.6875" style="stroke: #3D424E; stroke-width: 2.34375;" width="104.6875" x="2293.75" y="108.8379"/><text fill="#E6E8EC" font-family="DejaVu Sans" font-size="21.875" lengthAdjust="spacingAndGlyphs" textLength="64.0625" x="2314.0625" y="140.0803">Query</text><text fill="#E6E8EC" font-family="DejaVu Sans" font-size="21.875" lengthAdjust="spacingAndGlyphs" textLength="82.8125" x="2304.6875" y="165.5441">Handler</text><rect fill="#161A22" height="72.8027" rx="4.6875" ry="4.6875" style="stroke: #3D424E; stroke-width: 2.34375;" width="104.6875" x="2293.75" y="1759.4482"/><text fill="#E6E8EC" font-family="DejaVu Sans" font-size="21.875" lengthAdjust="spacingAndGlyphs" textLength="64.0625" x="2314.0625" y="1790.6906">Query</text><text fill="#E6E8EC" font-family="DejaVu Sans" font-size="21.875" lengthAdjust="spacingAndGlyphs" textLength="82.8125" x="2304.6875" y="1816.1545">Handler</text><rect fill="#1B202A" height="460.8887" style="stroke: #3D424E; stroke-width: 1.5625;" width="15.625" x="457.0313" y="302.8809"/><rect fill="#1B202A" height="331.3721" style="stroke: #3D424E; stroke-width: 1.5625;" width="15.625" x="457.0313" y="1268.4082"/><rect fill="#1B202A" height="366.2109" style="stroke: #3D424E; stroke-width: 1.5625;" width="15.625" x="728.9063" y="350.2197"/><rect fill="#1B202A" height="271.5332" style="stroke: #3D424E; stroke-width: 1.5625;" width="15.625" x="1000.7813" y="397.5586"/><rect fill="#1B202A" height="47.3389" style="stroke: #3D424E; stroke-width: 1.5625;" width="15.625" x="1252.3438" y="444.8975"/><rect fill="#1B202A" height="94.6777" style="stroke: #3D424E; stroke-width: 1.5625;" width="15.625" x="1569.5313" y="949.5361"/><rect fill="#1B202A" height="47.3389" style="stroke: #3D424E; stroke-width: 1.5625;" width="15.625" x="1892.9688" y="996.875"/><rect fill="#1B202A" height="47.3389" style="stroke: #3D424E; stroke-width: 1.5625;" width="15.625" x="1892.9688" y="1410.4248"/><rect fill="#1B202A" height="236.6943" style="stroke: #3D424E; stroke-width: 1.5625;" width="15.625" x="2075.7813" y="1315.7471"/><rect fill="#1B202A" height="142.0166" style="stroke: #3D424E; stroke-width: 1.5625;" width="15.625" x="2338.2813" y="1363.0859"/><rect fill="#1B202A" height="4.6875" style="stroke: #1B202A; stroke-width: 1.5625;" width="2401.5625" x="4.6875" y="231.8726"/><line style="stroke: #3D424E; stroke-width: 1.5625;" x1="4.6875" x2="2406.25" y1="231.8726" y2="231.8726"/><line style="stroke: #3D424E; stroke-width: 1.5625;" x1="4.6875" x2="2406.25" y1="236.5601" y2="236.5601"/><rect fill="#1B202A" height="37.9639" style="stroke: #3D424E; stroke-width: 3.125;" width="276.5625" x="1067.1875" y="214.4531"/><text fill="#A6ADBB" font-family="DejaVu Sans" font-size="21.875" font-weight="bold" lengthAdjust="spacingAndGlyphs" textLength="246.875" x="1076.5625" y="241.008">1. Zápis (Command)</text><polygon fill="#F0A456" points="438.2813,296.6309,453.9063,302.8809,438.2813,309.1309,444.5313,302.8809" style="stroke: #F0A456; stroke-width: 1.5625;"/><line style="stroke: #F0A456; stroke-width: 2.34375;" x1="199.2188" x2="447.6563" y1="302.8809" y2="302.8809"/><text fill="#E6E8EC" font-family="DejaVu Sans" font-size="21.875" lengthAdjust="spacingAndGlyphs" textLength="143.75" x="210.1563" y="294.5969">POST /orders</text><polygon fill="#F0A456" points="710.1563,343.9697,725.7813,350.2197,710.1563,356.4697,716.4063,350.2197" style="stroke: #F0A456; stroke-width: 1.5625;"/><line style="stroke: #F0A456; stroke-width: 2.34375;" x1="472.6563" x2="719.5313" y1="350.2197" y2="350.2197"/><text fill="#E6E8EC" font-family="DejaVu Sans" font-size="21.875" lengthAdjust="spacingAndGlyphs" textLength="226.5625" x="483.5938" y="341.9357">dispatch(PlaceOrder)</text><polygon fill="#F0A456" points="982.0313,391.3086,997.6563,397.5586,982.0313,403.8086,988.2813,397.5586" style="stroke: #F0A456; stroke-width: 1.5625;"/><line style="stroke: #F0A456; stroke-width: 2.34375;" x1="744.5313" x2="991.4063" y1="397.5586" y2="397.5586"/><text fill="#E6E8EC" font-family="DejaVu Sans" font-size="21.875" lengthAdjust="spacingAndGlyphs" textLength="226.5625" x="755.4688" y="389.2746">__invoke(PlaceOrder)</text><polygon fill="#F0A456" points="1233.5938,438.6475,1249.2188,444.8975,1233.5938,451.1475,1239.8438,444.8975" style="stroke: #F0A456; stroke-width: 1.5625;"/><line style="stroke: #F0A456; stroke-width: 2.34375;" x1="1016.4063" x2="1242.9688" y1="444.8975" y2="444.8975"/><text fill="#E6E8EC" font-family="DejaVu Sans" font-size="21.875" lengthAdjust="spacingAndGlyphs" textLength="206.25" x="1027.3438" y="436.6135">INSERT (transakce)</text><polygon fill="#F0A456" points="1033.5938,485.9863,1017.9688,492.2363,1033.5938,498.4863,1027.3438,492.2363" style="stroke: #F0A456; stroke-width: 1.5625;"/><line style="stroke: #F0A456; stroke-width: 2.34375; stroke-dasharray: 2.0,2.0;" x1="1024.2188" x2="1258.5938" y1="492.2363" y2="492.2363"/><text fill="#E6E8EC" font-family="DejaVu Sans" font-size="21.875" lengthAdjust="spacingAndGlyphs" textLength="31.25" x="1042.9688" y="483.9523">OK</text><polygon fill="#F0A456" points="1388.2813,533.3252,1403.9063,539.5752,1388.2813,545.8252,1394.5313,539.5752" style="stroke: #F0A456; stroke-width: 1.5625;"/><line style="stroke: #F0A456; stroke-width: 2.34375;" x1="1016.4063" x2="1397.6563" y1="539.5752" y2="539.5752"/><text fill="#E6E8EC" font-family="DejaVu Sans" font-size="21.875" lengthAdjust="spacingAndGlyphs" textLength="240.625" x="1027.3438" y="531.2912">dispatch(OrderPlaced)</text><path d="M1414.0625,564.5752 L1414.0625,620.8252 A4.6875,4.6875 0 0 0 1418.75,625.5127 L1642.1875,625.5127 A4.6875,4.6875 0 0 0 1646.875,620.8252 L1646.875,575.5127 L1631.25,559.8877 L1418.75,559.8877 A4.6875,4.6875 0 0 0 1414.0625,564.5752 " fill="#1B202A" style="stroke: #3D424E; stroke-width: 1.5625;"/><path d="M1631.25,559.8877 L1631.25,573.1689 A2.3438,2.3438 0 0 0 1633.5938,575.5127 L1646.875,575.5127 L1631.25,559.8877 " fill="#1B202A" style="stroke: #3D424E; stroke-width: 1.5625;"/><text fill="#A6ADBB" font-family="DejaVu Sans" font-size="21.875" lengthAdjust="spacingAndGlyphs" textLength="185.9375" x="1437.5" y="588.0051">Událost zařazena</text><text fill="#A6ADBB" font-family="DejaVu Sans" font-size="21.875" lengthAdjust="spacingAndGlyphs" textLength="164.0625" x="1448.4375" y="613.4689">do async fronty</text><polygon fill="#F0A456" points="761.7188,662.8418,746.0938,669.0918,761.7188,675.3418,755.4688,669.0918" style="stroke: #F0A456; stroke-width: 1.5625;"/><line style="stroke: #F0A456; stroke-width: 2.34375; stroke-dasharray: 2.0,2.0;" x1="752.3438" x2="1007.0313" y1="669.0918" y2="669.0918"/><text fill="#E6E8EC" font-family="DejaVu Sans" font-size="21.875" lengthAdjust="spacingAndGlyphs" textLength="43.75" x="771.0938" y="660.8078">void</text><polygon fill="#F0A456" points="489.8438,710.1807,474.2188,716.4307,489.8438,722.6807,483.5938,716.4307" style="stroke: #F0A456; stroke-width: 1.5625;"/><line style="stroke: #F0A456; stroke-width: 2.34375; stroke-dasharray: 2.0,2.0;" x1="480.4688" x2="735.1563" y1="716.4307" y2="716.4307"/><text fill="#E6E8EC" font-family="DejaVu Sans" font-size="21.875" lengthAdjust="spacingAndGlyphs" textLength="100" x="499.2188" y="708.1467">Envelope</text><polygon fill="#F0A456" points="216.4063,757.5195,200.7813,763.7695,216.4063,770.0195,210.1563,763.7695" style="stroke: #F0A456; stroke-width: 1.5625;"/><line style="stroke: #F0A456; stroke-width: 2.34375; stroke-dasharray: 2.0,2.0;" x1="207.0313" x2="463.2813" y1="763.7695" y2="763.7695"/><text fill="#E6E8EC" font-family="DejaVu Sans" font-size="21.875" lengthAdjust="spacingAndGlyphs" textLength="220.3125" x="225.7813" y="755.4855">302 Redirect + flash</text><rect fill="#1B202A" height="4.6875" style="stroke: #1B202A; stroke-width: 1.5625;" width="2401.5625" x="4.6875" y="809.314"/><line style="stroke: #3D424E; stroke-width: 1.5625;" x1="4.6875" x2="2406.25" y1="809.314" y2="809.314"/><line style="stroke: #3D424E; stroke-width: 1.5625;" x1="4.6875" x2="2406.25" y1="814.0015" y2="814.0015"/><rect fill="#1B202A" height="37.9639" style="stroke: #3D424E; stroke-width: 3.125;" width="354.6875" x="1028.125" y="791.8945"/><text fill="#A6ADBB" font-family="DejaVu Sans" font-size="21.875" font-weight="bold" lengthAdjust="spacingAndGlyphs" textLength="325" x="1037.5" y="818.4494">2. Asynchronní propagace</text><text fill="#E6E8EC" font-family="DejaVu Sans" font-size="21.875" lengthAdjust="spacingAndGlyphs" textLength="0" x="1137.5" y="887.6633"/><text fill="#E6E8EC" font-family="DejaVu Sans" font-size="21.875" font-weight="bold" lengthAdjust="spacingAndGlyphs" textLength="182.8125" x="1137.5" y="887.6633">Časový odstup</text><text fill="#E6E8EC" font-family="DejaVu Sans" font-size="21.875" lengthAdjust="spacingAndGlyphs" textLength="81.25" x="1326.5625" y="887.6633">(ms - s)</text><polygon fill="#F0A456" points="1550.7813,943.2861,1566.4063,949.5361,1550.7813,955.7861,1557.0313,949.5361" style="stroke: #F0A456; stroke-width: 1.5625;"/><line style="stroke: #F0A456; stroke-width: 2.34375;" x1="1407.0313" x2="1560.1563" y1="949.5361" y2="949.5361"/><text fill="#E6E8EC" font-family="DejaVu Sans" font-size="21.875" lengthAdjust="spacingAndGlyphs" textLength="132.8125" x="1417.9688" y="941.2521">OrderPlaced</text><polygon fill="#F0A456" points="1874.2188,990.625,1889.8438,996.875,1874.2188,1003.125,1880.4688,996.875" style="stroke: #F0A456; stroke-width: 1.5625;"/><line style="stroke: #F0A456; stroke-width: 2.34375;" x1="1585.1563" x2="1883.5938" y1="996.875" y2="996.875"/><text fill="#E6E8EC" font-family="DejaVu Sans" font-size="21.875" lengthAdjust="spacingAndGlyphs" textLength="278.125" x="1596.0938" y="988.591">UPSERT order_dashboard</text><polygon fill="#F0A456" points="1594.5313,1037.9639,1578.9063,1044.2139,1594.5313,1050.4639,1588.2813,1044.2139" style="stroke: #F0A456; stroke-width: 1.5625;"/><line style="stroke: #F0A456; stroke-width: 2.34375; stroke-dasharray: 2.0,2.0;" x1="1585.1563" x2="1899.2188" y1="1044.2139" y2="1044.2139"/><text fill="#E6E8EC" font-family="DejaVu Sans" font-size="21.875" lengthAdjust="spacingAndGlyphs" textLength="31.25" x="1603.9063" y="1035.9299">OK</text><path d="M1320.3125,1069.2139 L1320.3125,1150.4639 A4.6875,4.6875 0 0 0 1325,1155.1514 L1981.25,1155.1514 A4.6875,4.6875 0 0 0 1985.9375,1150.4639 L1985.9375,1080.1514 L1970.3125,1064.5264 L1325,1064.5264 A4.6875,4.6875 0 0 0 1320.3125,1069.2139 " fill="#1B202A" style="stroke: #3D424E; stroke-width: 1.5625;"/><path d="M1970.3125,1064.5264 L1970.3125,1077.8076 A2.3438,2.3438 0 0 0 1972.6563,1080.1514 L1985.9375,1080.1514 L1970.3125,1064.5264 " fill="#1B202A" style="stroke: #3D424E; stroke-width: 1.5625;"/><text fill="#A6ADBB" font-family="DejaVu Sans" font-size="21.875" lengthAdjust="spacingAndGlyphs" textLength="296.875" x="1504.6875" y="1092.6437">Eventual consistency okno:</text><text fill="#A6ADBB" font-family="DejaVu Sans" font-size="21.875" lengthAdjust="spacingAndGlyphs" textLength="282.8125" x="1511.7188" y="1118.1076">mezi zápisem do Write DB</text><text fill="#A6ADBB" font-family="DejaVu Sans" font-size="21.875" lengthAdjust="spacingAndGlyphs" textLength="231.25" x="1537.5" y="1143.5715">a aktualizací Read DB</text><rect fill="#1B202A" height="4.6875" style="stroke: #1B202A; stroke-width: 1.5625;" width="2401.5625" x="4.6875" y="1197.3999"/><line style="stroke: #3D424E; stroke-width: 1.5625;" x1="4.6875" x2="2406.25" y1="1197.3999" y2="1197.3999"/><line style="stroke: #3D424E; stroke-width: 1.5625;" x1="4.6875" x2="2406.25" y1="1202.0874" y2="1202.0874"/><rect fill="#1B202A" height="37.9639" style="stroke: #3D424E; stroke-width: 3.125;" width="226.5625" x="1092.1875" y="1179.9805"/><text fill="#A6ADBB" font-family="DejaVu Sans" font-size="21.875" font-weight="bold" lengthAdjust="spacingAndGlyphs" textLength="196.875" x="1101.5625" y="1206.5353">3. Čtení (Query)</text><polygon fill="#F0A456" points="438.2813,1262.1582,453.9063,1268.4082,438.2813,1274.6582,444.5313,1268.4082" style="stroke: #F0A456; stroke-width: 1.5625;"/><line style="stroke: #F0A456; stroke-width: 2.34375;" x1="199.2188" x2="447.6563" y1="1268.4082" y2="1268.4082"/><text fill="#E6E8EC" font-family="DejaVu Sans" font-size="21.875" lengthAdjust="spacingAndGlyphs" textLength="129.6875" x="210.1563" y="1260.1242">GET /orders</text><polygon fill="#F0A456" points="2057.0313,1309.4971,2072.6563,1315.7471,2057.0313,1321.9971,2063.2813,1315.7471" style="stroke: #F0A456; stroke-width: 1.5625;"/><line style="stroke: #F0A456; stroke-width: 2.34375;" x1="472.6563" x2="2066.4063" y1="1315.7471" y2="1315.7471"/><text fill="#E6E8EC" font-family="DejaVu Sans" font-size="21.875" lengthAdjust="spacingAndGlyphs" textLength="217.1875" x="483.5938" y="1307.4631">dispatch(ListOrders)</text><polygon fill="#F0A456" points="2319.5313,1356.8359,2335.1563,1363.0859,2319.5313,1369.3359,2325.7813,1363.0859" style="stroke: #F0A456; stroke-width: 1.5625;"/><line style="stroke: #F0A456; stroke-width: 2.34375;" x1="2091.4063" x2="2328.9063" y1="1363.0859" y2="1363.0859"/><text fill="#E6E8EC" font-family="DejaVu Sans" font-size="21.875" lengthAdjust="spacingAndGlyphs" textLength="217.1875" x="2102.3438" y="1354.8019">__invoke(ListOrders)</text><polygon fill="#F0A456" points="1925.7813,1404.1748,1910.1563,1410.4248,1925.7813,1416.6748,1919.5313,1410.4248" style="stroke: #F0A456; stroke-width: 1.5625;"/><line style="stroke: #F0A456; stroke-width: 2.34375;" x1="1916.4063" x2="2336.7188" y1="1410.4248" y2="1410.4248"/><text fill="#E6E8EC" font-family="DejaVu Sans" font-size="21.875" lengthAdjust="spacingAndGlyphs" textLength="281.25" x="1935.1563" y="1402.1408">SELECT z denorm. tabulky</text><polygon fill="#F0A456" points="2319.5313,1451.5137,2335.1563,1457.7637,2319.5313,1464.0137,2325.7813,1457.7637" style="stroke: #F0A456; stroke-width: 1.5625;"/><line style="stroke: #F0A456; stroke-width: 2.34375; stroke-dasharray: 2.0,2.0;" x1="1900.7813" x2="2328.9063" y1="1457.7637" y2="1457.7637"/><text fill="#E6E8EC" font-family="DejaVu Sans" font-size="21.875" lengthAdjust="spacingAndGlyphs" textLength="90.625" x="1911.7188" y="1449.4797">výsledky</text><polygon fill="#F0A456" points="2108.5938,1498.8525,2092.9688,1505.1025,2108.5938,1511.3525,2102.3438,1505.1025" style="stroke: #F0A456; stroke-width: 1.5625;"/><line style="stroke: #F0A456; stroke-width: 2.34375; stroke-dasharray: 2.0,2.0;" x1="2099.2188" x2="2344.5313" y1="1505.1025" y2="1505.1025"/><text fill="#E6E8EC" font-family="DejaVu Sans" font-size="21.875" lengthAdjust="spacingAndGlyphs" textLength="131.25" x="2117.9688" y="1496.8185">ViewModel[]</text><polygon fill="#F0A456" points="489.8438,1546.1914,474.2188,1552.4414,489.8438,1558.6914,483.5938,1552.4414" style="stroke: #F0A456; stroke-width: 1.5625;"/><line style="stroke: #F0A456; stroke-width: 2.34375; stroke-dasharray: 2.0,2.0;" x1="480.4688" x2="2082.0313" y1="1552.4414" y2="1552.4414"/><text fill="#E6E8EC" font-family="DejaVu Sans" font-size="21.875" lengthAdjust="spacingAndGlyphs" textLength="100" x="499.2188" y="1544.1574">Envelope</text><polygon fill="#F0A456" points="216.4063,1593.5303,200.7813,1599.7803,216.4063,1606.0303,210.1563,1599.7803" style="stroke: #F0A456; stroke-width: 1.5625;"/><line style="stroke: #F0A456; stroke-width: 2.34375; stroke-dasharray: 2.0,2.0;" x1="207.0313" x2="463.2813" y1="1599.7803" y2="1599.7803"/><text fill="#E6E8EC" font-family="DejaVu Sans" font-size="21.875" lengthAdjust="spacingAndGlyphs" textLength="168.75" x="225.7813" y="1591.4963">HTML response</text><path d="M12.5,1624.7803 L12.5,1732.5928 A4.6875,4.6875 0 0 0 17.1875,1737.2803 L382.8125,1737.2803 A4.6875,4.6875 0 0 0 387.5,1732.5928 L387.5,1635.7178 L371.875,1620.0928 L17.1875,1620.0928 A4.6875,4.6875 0 0 0 12.5,1624.7803 " fill="#1B202A" style="stroke: #3D424E; stroke-width: 1.5625;"/><path d="M371.875,1620.0928 L371.875,1633.374 A2.3438,2.3438 0 0 0 374.2188,1635.7178 L387.5,1635.7178 L371.875,1620.0928 " fill="#1B202A" style="stroke: #3D424E; stroke-width: 1.5625;"/><text fill="#A6ADBB" font-family="DejaVu Sans" font-size="21.875" lengthAdjust="spacingAndGlyphs" textLength="240.625" x="47.6563" y="1648.2101">Pokud čtení proběhne</text><text fill="#A6ADBB" font-family="DejaVu Sans" font-size="21.875" font-weight="bold" lengthAdjust="spacingAndGlyphs" textLength="57.8125" x="294.5313" y="1648.2101">před</text><text fill="#A6ADBB" font-family="DejaVu Sans" font-size="21.875" lengthAdjust="spacingAndGlyphs" textLength="328.125" x="35.9375" y="1673.674">dokončením projekce, uživatel</text><text fill="#A6ADBB" font-family="DejaVu Sans" font-size="21.875" lengthAdjust="spacingAndGlyphs" textLength="215.625" x="92.1875" y="1699.1379">vidí starší stav - to je</text><text fill="#A6ADBB" font-family="DejaVu Sans" font-size="21.875" lengthAdjust="spacingAndGlyphs" textLength="234.375" x="82.8125" y="1724.6017">eventual consistency.</text><!--MD5=[dc1944f6dc7cc0c8eb91ca441f00b8be]
@startuml eventual_consistency
skinparam dpi 150
skinparam backgroundColor #11141A
skinparam shadowing false
skinparam roundCorner 6

skinparam defaultFontName "DejaVu Sans"
skinparam defaultFontSize 14
skinparam defaultFontColor #E6E8EC
skinparam defaultTextAlignment center


skinparam ArrowColor #F0A456
skinparam ArrowFontColor #E6E8EC
skinparam ArrowThickness 1.5

skinparam node {
  BackgroundColor #161A22
  BorderColor #3D424E
  FontColor #E6E8EC
}

skinparam component {
  BackgroundColor #161A22
  BorderColor #3D424E
  FontColor #E6E8EC
}

skinparam rectangle {
  BackgroundColor #161A22
  BorderColor #3D424E
  FontColor #E6E8EC
}

skinparam package {
  BackgroundColor #11141A
  BorderColor #F0A456
  FontColor #F0A456
}

skinparam folder {
  BackgroundColor #161A22
  BorderColor #3D424E
  FontColor #E6E8EC
}

skinparam frame {
  BackgroundColor #161A22
  BorderColor #3D424E
  FontColor #E6E8EC
}

skinparam database {
  BackgroundColor #1B202A
  BorderColor #3D424E
  FontColor #E6E8EC
}

skinparam queue {
  BackgroundColor #1B202A
  BorderColor #3D424E
  FontColor #E6E8EC
}

skinparam cloud {
  BackgroundColor #1B202A
  BorderColor #3D424E
  FontColor #E6E8EC
}

skinparam actor {
  BackgroundColor #161A22
  BorderColor #F0A456
  FontColor #E6E8EC
}

skinparam usecase {
  BackgroundColor #161A22
  BorderColor #3D424E
  FontColor #E6E8EC
}

skinparam class {
  BackgroundColor #161A22
  BorderColor #3D424E
  HeaderBackgroundColor #1B202A
  ArrowColor #F0A456
  FontColor #E6E8EC
  AttributeFontColor #A6ADBB
  StereotypeFontColor #F0A456
}

skinparam object {
  BackgroundColor #161A22
  BorderColor #3D424E
  FontColor #E6E8EC
}

skinparam sequence {
  ParticipantBackgroundColor #161A22
  ParticipantBorderColor #3D424E
  ParticipantFontColor #E6E8EC
  ActorBackgroundColor #161A22
  ActorBorderColor #F0A456
  ActorFontColor #E6E8EC
  LifeLineBorderColor #3D424E
  LifeLineBackgroundColor #1B202A
  ArrowColor #F0A456
  ArrowFontColor #E6E8EC
  GroupBackgroundColor #1B202A
  GroupBorderColor #3D424E
  GroupFontColor #A6ADBB
  GroupHeaderFontColor #F0A456
  BoxBackgroundColor #11141A
  BoxBorderColor #F0A456
  BoxFontColor #F0A456
  DividerBackgroundColor #1B202A
  DividerBorderColor #3D424E
  DividerFontColor #A6ADBB
  ReferenceBackgroundColor #161A22
  ReferenceBorderColor #3D424E
  ReferenceFontColor #E6E8EC
  ReferenceHeaderBackgroundColor #1B202A
  StereotypeFontColor #F0A456
}

skinparam state {
  BackgroundColor #161A22
  BorderColor #3D424E
  FontColor #E6E8EC
  StartColor #F0A456
  EndColor #F0A456
  ArrowColor #F0A456
  AttributeFontColor #A6ADBB
}

skinparam activity {
  BackgroundColor #161A22
  BorderColor #3D424E
  FontColor #E6E8EC
  ArrowColor #F0A456
  StartColor #F0A456
  EndColor #F0A456
  BarColor #F0A456
  DiamondBackgroundColor #1B202A
  DiamondBorderColor #3D424E
  DiamondFontColor #E6E8EC
}

skinparam note {
  BackgroundColor #1B202A
  BorderColor #3D424E
  FontColor #A6ADBB
}

skinparam title {
  FontColor #E6E8EC
  FontSize 18
}

skinparam legend {
  BackgroundColor #161A22
  BorderColor #3D424E
  FontColor #A6ADBB
}

skinparam caption {
  FontColor #A6ADBB
}

skinparam stereotype {
  CBackgroundColor #1B202A
  CBorderColor #F0A456
  ABackgroundColor #1B202A
  ABorderColor #F0A456
  IBackgroundColor #1B202A
  IBorderColor #F0A456
  EBackgroundColor #1B202A
  EBorderColor #F0A456
}

title Eventual Consistency - datový tok v CQRS

actor "Uživatel" as U
participant "Controller" as C
participant "Command Bus" as CB
participant "Command\nHandler" as CH
database "Write DB" as WDB
participant "Event Bus\n(Messenger)" as EB
participant "Projektor" as P
database "Read DB\n(denorm. tabulka)" as RDB
participant "Query Bus" as QB
participant "Query\nHandler" as QH

== 1. Zápis (Command) ==

U -> C : POST /orders
activate C
C -> CB : dispatch(PlaceOrder)
activate CB
CB -> CH : __invoke(PlaceOrder)
activate CH
CH -> WDB : INSERT (transakce)
activate WDB
WDB - -> CH : OK
deactivate WDB
CH -> EB : dispatch(OrderPlaced)
note right of EB
  Událost zařazena
  do async fronty
end note
CH - -> CB : void
deactivate CH
CB - -> C : Envelope
deactivate CB
C - -> U : 302 Redirect + flash
deactivate C

== 2. Asynchronní propagace ==

... **Časový odstup** (ms - s) ...

EB -> P : OrderPlaced
activate P
P -> RDB : UPSERT order_dashboard
activate RDB
RDB - -> P : OK
deactivate RDB
deactivate P
note over EB, RDB
  Eventual consistency okno:
  mezi zápisem do Write DB
  a aktualizací Read DB
end note

== 3. Čtení (Query) ==

U -> C : GET /orders
activate C
C -> QB : dispatch(ListOrders)
activate QB
QB -> QH : __invoke(ListOrders)
activate QH
QH -> RDB : SELECT z denorm. tabulky
activate RDB
RDB - -> QH : výsledky
deactivate RDB
QH - -> QB : ViewModel[]
deactivate QH
QB - -> C : Envelope
deactivate QB
C - -> U : HTML response
deactivate C

note over U
  Pokud čtení proběhne **před**
  dokončením projekce, uživatel
  vidí starší stav - to je
  eventual consistency.
end note

@enduml

PlantUML version 1.2020.02(Sun Mar 01 11:22:07 CET 2020)
(GPL source distribution)
Java Runtime: OpenJDK Runtime Environment
JVM: OpenJDK 64-Bit Server VM
Java Version: 21.0.10+7-Debian-1deb13u1
Operating System: Linux
Default Encoding: UTF-8
Language: cs
Country: CZ
--></g></svg>