<?xml version="1.0" encoding="UTF-8" standalone="no"?><svg xmlns="http://www.w3.org/2000/svg" xmlns:xlink="http://www.w3.org/1999/xlink" contentScriptType="application/ecmascript" contentStyleType="text/css" height="1757.8125px" preserveAspectRatio="none" style="width:2235px;height:1757px;background:#11141A;" version="1.1" viewBox="0 0 2235 1757" width="2235.9375px" zoomAndPan="magnify"><defs/><g><text fill="#E6E8EC" font-family="DejaVu Sans" font-size="28.125" lengthAdjust="spacingAndGlyphs" textLength="737.5" x="742.1875" y="41.7313">Staleness window: kdy uživatel vidí starý read model</text><line style="stroke: #3D424E; stroke-width: 1.5625; stroke-dasharray: 5.0,5.0;" x1="353.125" x2="353.125" y1="183.2031" y2="1622.583"/><line style="stroke: #3D424E; stroke-width: 1.5625; stroke-dasharray: 5.0,5.0;" x1="625.7813" x2="625.7813" y1="183.2031" y2="1622.583"/><line style="stroke: #3D424E; stroke-width: 1.5625; stroke-dasharray: 5.0,5.0;" x1="835.9375" x2="835.9375" y1="183.2031" y2="1622.583"/><line style="stroke: #3D424E; stroke-width: 1.5625; stroke-dasharray: 5.0,5.0;" x1="1105.4688" x2="1105.4688" y1="183.2031" y2="1622.583"/><line style="stroke: #3D424E; stroke-width: 1.5625; stroke-dasharray: 5.0,5.0;" x1="1457.8125" x2="1457.8125" y1="183.2031" y2="1622.583"/><line style="stroke: #3D424E; stroke-width: 1.5625; stroke-dasharray: 5.0,5.0;" x1="1595.3125" x2="1595.3125" y1="183.2031" y2="1622.583"/><line style="stroke: #3D424E; stroke-width: 1.5625; stroke-dasharray: 5.0,5.0;" x1="1832.8125" x2="1832.8125" y1="183.2031" y2="1622.583"/><line style="stroke: #3D424E; stroke-width: 1.5625; stroke-dasharray: 5.0,5.0;" x1="2140.625" x2="2140.625" y1="183.2031" y2="1622.583"/><text fill="#E6E8EC" font-family="DejaVu Sans" font-size="21.875" lengthAdjust="spacingAndGlyphs" textLength="50" x="323.4375" y="178.0441">User</text><ellipse cx="353.125" cy="74.9268" fill="#161A22" rx="12.5" ry="12.5" style="stroke: #F0A456; stroke-width: 3.125;"/><path d="M353.125,87.4268 L353.125,129.6143 M332.8125,99.9268 L373.4375,99.9268 M353.125,129.6143 L332.8125,153.0518 M353.125,129.6143 L373.4375,153.0518 " fill="none" style="stroke: #F0A456; stroke-width: 3.125;"/><text fill="#E6E8EC" font-family="DejaVu Sans" font-size="21.875" lengthAdjust="spacingAndGlyphs" textLength="50" x="323.4375" y="1641.3254">User</text><ellipse cx="353.125" cy="1662.1094" fill="#161A22" rx="12.5" ry="12.5" style="stroke: #F0A456; stroke-width: 3.125;"/><path d="M353.125,1674.6094 L353.125,1716.7969 M332.8125,1687.1094 L373.4375,1687.1094 M353.125,1716.7969 L332.8125,1740.2344 M353.125,1716.7969 L373.4375,1740.2344 " fill="none" style="stroke: #F0A456; stroke-width: 3.125;"/><rect fill="#161A22" height="47.3389" rx="4.6875" ry="4.6875" style="stroke: #3D424E; stroke-width: 2.34375;" width="126.5625" x="563.2813" y="134.3018"/><text fill="#E6E8EC" font-family="DejaVu Sans" font-size="21.875" lengthAdjust="spacingAndGlyphs" textLength="104.6875" x="574.2188" y="165.5441">Controller</text><rect fill="#161A22" height="47.3389" rx="4.6875" ry="4.6875" style="stroke: #3D424E; stroke-width: 2.34375;" width="126.5625" x="563.2813" y="1621.0205"/><text fill="#E6E8EC" font-family="DejaVu Sans" font-size="21.875" lengthAdjust="spacingAndGlyphs" textLength="104.6875" x="574.2188" y="1652.2629">Controller</text><rect fill="#161A22" height="47.3389" rx="4.6875" ry="4.6875" style="stroke: #3D424E; stroke-width: 2.34375;" width="181.25" x="745.3125" y="134.3018"/><text fill="#E6E8EC" font-family="DejaVu Sans" font-size="21.875" lengthAdjust="spacingAndGlyphs" textLength="159.375" x="756.25" y="165.5441">Command Bus</text><rect fill="#161A22" height="47.3389" rx="4.6875" ry="4.6875" style="stroke: #3D424E; stroke-width: 2.34375;" width="181.25" x="745.3125" y="1621.0205"/><text fill="#E6E8EC" font-family="DejaVu Sans" font-size="21.875" lengthAdjust="spacingAndGlyphs" textLength="159.375" x="756.25" y="1652.2629">Command Bus</text><rect fill="#161A22" height="47.3389" rx="4.6875" ry="4.6875" style="stroke: #3D424E; stroke-width: 2.34375;" width="201.5625" x="1005.4688" y="134.3018"/><text fill="#E6E8EC" font-family="DejaVu Sans" font-size="21.875" lengthAdjust="spacingAndGlyphs" textLength="179.6875" x="1016.4063" y="165.5441">Order Aggregate</text><rect fill="#161A22" height="47.3389" rx="4.6875" ry="4.6875" style="stroke: #3D424E; stroke-width: 2.34375;" width="201.5625" x="1005.4688" y="1621.0205"/><text fill="#E6E8EC" font-family="DejaVu Sans" font-size="21.875" lengthAdjust="spacingAndGlyphs" textLength="179.6875" x="1016.4063" y="1652.2629">Order Aggregate</text><text fill="#E6E8EC" font-family="DejaVu Sans" font-size="21.875" lengthAdjust="spacingAndGlyphs" textLength="93.75" x="1406.25" y="178.0441">Write DB</text><path d="M1429.6875,101.4893 C1429.6875,85.8643 1457.8125,85.8643 1457.8125,85.8643 C1457.8125,85.8643 1485.9375,85.8643 1485.9375,101.4893 L1485.9375,142.1143 C1485.9375,157.7393 1457.8125,157.7393 1457.8125,157.7393 C1457.8125,157.7393 1429.6875,157.7393 1429.6875,142.1143 L1429.6875,101.4893 " fill="#1B202A" style="stroke: #3D424E; stroke-width: 2.34375;"/><path d="M1429.6875,101.4893 C1429.6875,117.1143 1457.8125,117.1143 1457.8125,117.1143 C1457.8125,117.1143 1485.9375,117.1143 1485.9375,101.4893 " fill="none" style="stroke: #3D424E; stroke-width: 2.34375;"/><text fill="#E6E8EC" font-family="DejaVu Sans" font-size="21.875" lengthAdjust="spacingAndGlyphs" textLength="93.75" x="1406.25" y="1641.3254">Write DB</text><path d="M1429.6875,1662.1094 C1429.6875,1646.4844 1457.8125,1646.4844 1457.8125,1646.4844 C1457.8125,1646.4844 1485.9375,1646.4844 1485.9375,1662.1094 L1485.9375,1702.7344 C1485.9375,1718.3594 1457.8125,1718.3594 1457.8125,1718.3594 C1457.8125,1718.3594 1429.6875,1718.3594 1429.6875,1702.7344 L1429.6875,1662.1094 " fill="#1B202A" style="stroke: #3D424E; stroke-width: 2.34375;"/><path d="M1429.6875,1662.1094 C1429.6875,1677.7344 1457.8125,1677.7344 1457.8125,1677.7344 C1457.8125,1677.7344 1485.9375,1677.7344 1485.9375,1662.1094 " fill="none" style="stroke: #3D424E; stroke-width: 2.34375;"/><path d="M1532.8125,142.1143 L1657.8125,142.1143 C1665.625,142.1143 1665.625,162.6587 1665.625,162.6587 C1665.625,162.6587 1665.625,183.2031 1657.8125,183.2031 L1532.8125,183.2031 C1525,183.2031 1525,162.6587 1525,162.6587 C1525,162.6587 1525,142.1143 1532.8125,142.1143 " fill="#1B202A" style="stroke: #A80036; stroke-width: 3.125;"/><path d="M1657.8125,142.1143 C1650,142.1143 1650,162.6587 1650,162.6587 C1650,183.2031 1657.8125,183.2031 1657.8125,183.2031 " fill="none" style="stroke: #A80036; stroke-width: 3.125;"/><text fill="#E6E8EC" font-family="DejaVu Sans" font-size="21.875" lengthAdjust="spacingAndGlyphs" textLength="109.375" x="1532.8125" y="170.2316">Event Bus</text><path d="M1532.8125,1621.0205 L1657.8125,1621.0205 C1665.625,1621.0205 1665.625,1641.5649 1665.625,1641.5649 C1665.625,1641.5649 1665.625,1662.1094 1657.8125,1662.1094 L1532.8125,1662.1094 C1525,1662.1094 1525,1641.5649 1525,1641.5649 C1525,1641.5649 1525,1621.0205 1532.8125,1621.0205 " fill="#1B202A" style="stroke: #A80036; stroke-width: 3.125;"/><path d="M1657.8125,1621.0205 C1650,1621.0205 1650,1641.5649 1650,1641.5649 C1650,1662.1094 1657.8125,1662.1094 1657.8125,1662.1094 " fill="none" style="stroke: #A80036; stroke-width: 3.125;"/><text fill="#E6E8EC" font-family="DejaVu Sans" font-size="21.875" lengthAdjust="spacingAndGlyphs" textLength="109.375" x="1532.8125" y="1649.1379">Event Bus</text><rect fill="#161A22" height="47.3389" rx="4.6875" ry="4.6875" style="stroke: #3D424E; stroke-width: 2.34375;" width="118.75" x="1773.4375" y="134.3018"/><text fill="#E6E8EC" font-family="DejaVu Sans" font-size="21.875" lengthAdjust="spacingAndGlyphs" textLength="96.875" x="1784.375" y="165.5441">Projector</text><rect fill="#161A22" height="47.3389" rx="4.6875" ry="4.6875" style="stroke: #3D424E; stroke-width: 2.34375;" width="118.75" x="1773.4375" y="1621.0205"/><text fill="#E6E8EC" font-family="DejaVu Sans" font-size="21.875" lengthAdjust="spacingAndGlyphs" textLength="96.875" x="1784.375" y="1652.2629">Projector</text><text fill="#E6E8EC" font-family="DejaVu Sans" font-size="21.875" lengthAdjust="spacingAndGlyphs" textLength="128.125" x="2071.875" y="178.0441">Read Model</text><path d="M2112.5,101.4893 C2112.5,85.8643 2140.625,85.8643 2140.625,85.8643 C2140.625,85.8643 2168.75,85.8643 2168.75,101.4893 L2168.75,142.1143 C2168.75,157.7393 2140.625,157.7393 2140.625,157.7393 C2140.625,157.7393 2112.5,157.7393 2112.5,142.1143 L2112.5,101.4893 " fill="#1B202A" style="stroke: #3D424E; stroke-width: 2.34375;"/><path d="M2112.5,101.4893 C2112.5,117.1143 2140.625,117.1143 2140.625,117.1143 C2140.625,117.1143 2168.75,117.1143 2168.75,101.4893 " fill="none" style="stroke: #3D424E; stroke-width: 2.34375;"/><text fill="#E6E8EC" font-family="DejaVu Sans" font-size="21.875" lengthAdjust="spacingAndGlyphs" textLength="128.125" x="2071.875" y="1641.3254">Read Model</text><path d="M2112.5,1662.1094 C2112.5,1646.4844 2140.625,1646.4844 2140.625,1646.4844 C2140.625,1646.4844 2168.75,1646.4844 2168.75,1662.1094 L2168.75,1702.7344 C2168.75,1718.3594 2140.625,1718.3594 2140.625,1718.3594 C2140.625,1718.3594 2112.5,1718.3594 2112.5,1702.7344 L2112.5,1662.1094 " fill="#1B202A" style="stroke: #3D424E; stroke-width: 2.34375;"/><path d="M2112.5,1662.1094 C2112.5,1677.7344 2140.625,1677.7344 2140.625,1677.7344 C2140.625,1677.7344 2168.75,1677.7344 2168.75,1662.1094 " fill="none" style="stroke: #3D424E; stroke-width: 2.34375;"/><rect fill="#1B202A" height="4.6875" style="stroke: #1B202A; stroke-width: 1.5625;" width="2212.5" x="4.6875" y="231.8726"/><line style="stroke: #3D424E; stroke-width: 1.5625;" x1="4.6875" x2="2217.1875" y1="231.8726" y2="231.8726"/><line style="stroke: #3D424E; stroke-width: 1.5625;" x1="4.6875" x2="2217.1875" y1="236.5601" y2="236.5601"/><rect fill="#1B202A" height="37.9639" style="stroke: #3D424E; stroke-width: 3.125;" width="353.125" x="934.375" y="214.4531"/><text fill="#A6ADBB" font-family="DejaVu Sans" font-size="21.875" font-weight="bold" lengthAdjust="spacingAndGlyphs" textLength="323.4375" x="943.75" y="241.008">T0: User odešle command</text><polygon fill="#F0A456" points="607.8125,322.0947,623.4375,328.3447,607.8125,334.5947,614.0625,328.3447" style="stroke: #F0A456; stroke-width: 1.5625;"/><line style="stroke: #F0A456; stroke-width: 2.34375;" x1="353.125" x2="617.1875" y1="328.3447" y2="328.3447"/><text fill="#E6E8EC" font-family="DejaVu Sans" font-size="21.875" lengthAdjust="spacingAndGlyphs" textLength="143.75" x="364.0625" y="294.5969">POST /orders</text><text fill="#E6E8EC" font-family="DejaVu Sans" font-size="21.875" lengthAdjust="spacingAndGlyphs" textLength="187.5" x="364.0625" y="320.0607">{items, address}</text><polygon fill="#F0A456" points="817.1875,369.4336,832.8125,375.6836,817.1875,381.9336,823.4375,375.6836" style="stroke: #F0A456; stroke-width: 1.5625;"/><line style="stroke: #F0A456; stroke-width: 2.34375;" x1="626.5625" x2="826.5625" y1="375.6836" y2="375.6836"/><text fill="#E6E8EC" font-family="DejaVu Sans" font-size="21.875" lengthAdjust="spacingAndGlyphs" textLength="171.875" x="637.5" y="367.3996">PlaceOrder cmd</text><polygon fill="#F0A456" points="1087.5,416.7725,1103.125,423.0225,1087.5,429.2725,1093.75,423.0225" style="stroke: #F0A456; stroke-width: 1.5625;"/><line style="stroke: #F0A456; stroke-width: 2.34375;" x1="835.9375" x2="1096.875" y1="423.0225" y2="423.0225"/><text fill="#E6E8EC" font-family="DejaVu Sans" font-size="21.875" lengthAdjust="spacingAndGlyphs" textLength="232.8125" x="846.875" y="414.7385">place(items, address)</text><polygon fill="#F0A456" points="1439.0625,464.1113,1454.6875,470.3613,1439.0625,476.6113,1445.3125,470.3613" style="stroke: #F0A456; stroke-width: 1.5625;"/><line style="stroke: #F0A456; stroke-width: 2.34375;" x1="1106.25" x2="1448.4375" y1="470.3613" y2="470.3613"/><text fill="#E6E8EC" font-family="DejaVu Sans" font-size="21.875" lengthAdjust="spacingAndGlyphs" textLength="314.0625" x="1117.1875" y="462.0773">INSERT order, INSERT outbox</text><polygon fill="#F0A456" points="1576.5625,511.4502,1592.1875,517.7002,1576.5625,523.9502,1582.8125,517.7002" style="stroke: #F0A456; stroke-width: 1.5625;"/><line style="stroke: #F0A456; stroke-width: 2.34375;" x1="1106.25" x2="1585.9375" y1="517.7002" y2="517.7002"/><text fill="#E6E8EC" font-family="DejaVu Sans" font-size="21.875" lengthAdjust="spacingAndGlyphs" textLength="200" x="1117.1875" y="509.4162">OrderPlaced event</text><polygon fill="#F0A456" points="370.3125,584.2529,354.6875,590.5029,370.3125,596.7529,364.0625,590.5029" style="stroke: #F0A456; stroke-width: 1.5625;"/><line style="stroke: #F0A456; stroke-width: 2.34375; stroke-dasharray: 2.0,2.0;" x1="360.9375" x2="625" y1="590.5029" y2="590.5029"/><text fill="#E6E8EC" font-family="DejaVu Sans" font-size="21.875" lengthAdjust="spacingAndGlyphs" textLength="134.375" x="379.6875" y="556.7551">201 Created</text><text fill="#E6E8EC" font-family="DejaVu Sans" font-size="21.875" lengthAdjust="spacingAndGlyphs" textLength="159.375" x="379.6875" y="582.2189">{ orderId: 42 }</text><path d="M360.9375,615.5029 L360.9375,646.7529 A4.6875,4.6875 0 0 0 365.625,651.4404 L712.5,651.4404 A4.6875,4.6875 0 0 0 717.1875,646.7529 L717.1875,626.4404 L701.5625,610.8154 L365.625,610.8154 A4.6875,4.6875 0 0 0 360.9375,615.5029 " fill="#1B202A" style="stroke: #3D424E; stroke-width: 1.5625;"/><path d="M701.5625,610.8154 L701.5625,624.0967 A2.3438,2.3438 0 0 0 703.9063,626.4404 L717.1875,626.4404 L701.5625,610.8154 " fill="#1B202A" style="stroke: #3D424E; stroke-width: 1.5625;"/><text fill="#A6ADBB" font-family="DejaVu Sans" font-size="21.875" lengthAdjust="spacingAndGlyphs" textLength="309.375" x="384.375" y="638.9328">T+0 ms: command potvrzen</text><rect fill="#1B202A" height="4.6875" style="stroke: #1B202A; stroke-width: 1.5625;" width="2212.5" x="4.6875" y="692.7612"/><line style="stroke: #3D424E; stroke-width: 1.5625;" x1="4.6875" x2="2217.1875" y1="692.7612" y2="692.7612"/><line style="stroke: #3D424E; stroke-width: 1.5625;" x1="4.6875" x2="2217.1875" y1="697.4487" y2="697.4487"/><rect fill="#1B202A" height="37.9639" style="stroke: #3D424E; stroke-width: 3.125;" width="439.0625" x="891.4063" y="675.3418"/><text fill="#A6ADBB" font-family="DejaVu Sans" font-size="21.875" font-weight="bold" lengthAdjust="spacingAndGlyphs" textLength="409.375" x="900.7813" y="701.8967">T0-T100ms: STALENESS WINDOW</text><path d="M307.8125,741.4307 L307.8125,822.6807 A4.6875,4.6875 0 0 0 312.5,827.3682 L2181.25,827.3682 A4.6875,4.6875 0 0 0 2185.9375,822.6807 L2185.9375,752.3682 L2170.3125,736.7432 L312.5,736.7432 A4.6875,4.6875 0 0 0 307.8125,741.4307 " fill="#1B202A" style="stroke: #3D424E; stroke-width: 1.5625;"/><path d="M2170.3125,736.7432 L2170.3125,750.0244 A2.3438,2.3438 0 0 0 2172.6563,752.3682 L2185.9375,752.3682 L2170.3125,736.7432 " fill="#1B202A" style="stroke: #3D424E; stroke-width: 1.5625;"/><text fill="#A6ADBB" font-family="DejaVu Sans" font-size="21.875" lengthAdjust="spacingAndGlyphs" textLength="262.5" x="1115.625" y="764.8605">Zde je read model starý:</text><text fill="#A6ADBB" font-family="DejaVu Sans" font-size="21.875" lengthAdjust="spacingAndGlyphs" textLength="464.0625" x="1014.8438" y="790.3244">GET /orders/42 vrátí 404, protože projector</text><text fill="#A6ADBB" font-family="DejaVu Sans" font-size="21.875" lengthAdjust="spacingAndGlyphs" textLength="276.5625" x="1108.5938" y="815.7883">ještě eventu nezpracoval.</text><polygon fill="#F0A456" points="607.8125,865.1611,623.4375,871.4111,607.8125,877.6611,614.0625,871.4111" style="stroke: #F0A456; stroke-width: 1.5625;"/><line style="stroke: #F0A456; stroke-width: 2.34375;" x1="353.125" x2="617.1875" y1="871.4111" y2="871.4111"/><text fill="#E6E8EC" font-family="DejaVu Sans" font-size="21.875" lengthAdjust="spacingAndGlyphs" textLength="165.625" x="364.0625" y="863.1271">GET /orders/42</text><polygon fill="#F0A456" points="2121.875,912.5,2137.5,918.75,2121.875,925,2128.125,918.75" style="stroke: #F0A456; stroke-width: 1.5625;"/><line style="stroke: #F0A456; stroke-width: 2.34375;" x1="626.5625" x2="2131.25" y1="918.75" y2="918.75"/><text fill="#E6E8EC" font-family="DejaVu Sans" font-size="21.875" lengthAdjust="spacingAndGlyphs" textLength="257.8125" x="637.5" y="910.466">SELECT * WHERE id=42</text><polygon fill="#F0A456" points="643.75,959.8389,628.125,966.0889,643.75,972.3389,637.5,966.0889" style="stroke: #F0A456; stroke-width: 1.5625;"/><line style="stroke: #F0A456; stroke-width: 2.34375; stroke-dasharray: 2.0,2.0;" x1="634.375" x2="2139.0625" y1="966.0889" y2="966.0889"/><text fill="#E6E8EC" font-family="DejaVu Sans" font-size="21.875" lengthAdjust="spacingAndGlyphs" textLength="79.6875" x="653.125" y="957.8049">NULL ⚠️</text><polygon fill="#F0A456" points="370.3125,1007.1777,354.6875,1013.4277,370.3125,1019.6777,364.0625,1013.4277" style="stroke: #F0A456; stroke-width: 1.5625;"/><line style="stroke: #F0A456; stroke-width: 2.34375; stroke-dasharray: 2.0,2.0;" x1="360.9375" x2="625" y1="1013.4277" y2="1013.4277"/><text fill="#E6E8EC" font-family="DejaVu Sans" font-size="21.875" lengthAdjust="spacingAndGlyphs" textLength="190.625" x="379.6875" y="1005.1437">404 Not Found &#128533;</text><rect fill="#1B202A" height="4.6875" style="stroke: #1B202A; stroke-width: 1.5625;" width="2212.5" x="4.6875" y="1058.9722"/><line style="stroke: #3D424E; stroke-width: 1.5625;" x1="4.6875" x2="2217.1875" y1="1058.9722" y2="1058.9722"/><line style="stroke: #3D424E; stroke-width: 1.5625;" x1="4.6875" x2="2217.1875" y1="1063.6597" y2="1063.6597"/><rect fill="#1B202A" height="37.9639" style="stroke: #3D424E; stroke-width: 3.125;" width="428.125" x="896.875" y="1041.5527"/><text fill="#A6ADBB" font-family="DejaVu Sans" font-size="21.875" font-weight="bold" lengthAdjust="spacingAndGlyphs" textLength="398.4375" x="906.25" y="1068.1076">T+100ms: projector dohnal stav</text><polygon fill="#F0A456" points="1814.0625,1123.7305,1829.6875,1129.9805,1814.0625,1136.2305,1820.3125,1129.9805" style="stroke: #F0A456; stroke-width: 1.5625;"/><line style="stroke: #F0A456; stroke-width: 2.34375;" x1="1595.3125" x2="1823.4375" y1="1129.9805" y2="1129.9805"/><text fill="#E6E8EC" font-family="DejaVu Sans" font-size="21.875" lengthAdjust="spacingAndGlyphs" textLength="200" x="1606.25" y="1121.6965">OrderPlaced event</text><polygon fill="#F0A456" points="2121.875,1196.5332,2137.5,1202.7832,2121.875,1209.0332,2128.125,1202.7832" style="stroke: #F0A456; stroke-width: 1.5625;"/><line style="stroke: #F0A456; stroke-width: 2.34375;" x1="1832.8125" x2="2131.25" y1="1202.7832" y2="1202.7832"/><text fill="#E6E8EC" font-family="DejaVu Sans" font-size="21.875" lengthAdjust="spacingAndGlyphs" textLength="270.3125" x="1843.75" y="1169.0353">INSERT INTO orders_view</text><text fill="#E6E8EC" font-family="DejaVu Sans" font-size="21.875" lengthAdjust="spacingAndGlyphs" textLength="112.5" x="1843.75" y="1194.4992">(id=42, ...)</text><rect fill="#1B202A" height="4.6875" style="stroke: #1B202A; stroke-width: 1.5625;" width="2212.5" x="4.6875" y="1248.3276"/><line style="stroke: #3D424E; stroke-width: 1.5625;" x1="4.6875" x2="2217.1875" y1="1248.3276" y2="1248.3276"/><line style="stroke: #3D424E; stroke-width: 1.5625;" x1="4.6875" x2="2217.1875" y1="1253.0151" y2="1253.0151"/><rect fill="#1B202A" height="37.9639" style="stroke: #3D424E; stroke-width: 3.125;" width="462.5" x="879.6875" y="1230.9082"/><text fill="#A6ADBB" font-family="DejaVu Sans" font-size="21.875" font-weight="bold" lengthAdjust="spacingAndGlyphs" textLength="432.8125" x="889.0625" y="1257.4631">T+150ms: read model konzistentní</text><polygon fill="#F0A456" points="607.8125,1313.0859,623.4375,1319.3359,607.8125,1325.5859,614.0625,1319.3359" style="stroke: #F0A456; stroke-width: 1.5625;"/><line style="stroke: #F0A456; stroke-width: 2.34375;" x1="353.125" x2="617.1875" y1="1319.3359" y2="1319.3359"/><text fill="#E6E8EC" font-family="DejaVu Sans" font-size="21.875" lengthAdjust="spacingAndGlyphs" textLength="235.9375" x="364.0625" y="1311.0519">GET /orders/42 (retry)</text><polygon fill="#F0A456" points="2121.875,1360.4248,2137.5,1366.6748,2121.875,1372.9248,2128.125,1366.6748" style="stroke: #F0A456; stroke-width: 1.5625;"/><line style="stroke: #F0A456; stroke-width: 2.34375;" x1="626.5625" x2="2131.25" y1="1366.6748" y2="1366.6748"/><text fill="#E6E8EC" font-family="DejaVu Sans" font-size="21.875" lengthAdjust="spacingAndGlyphs" textLength="257.8125" x="637.5" y="1358.3908">SELECT * WHERE id=42</text><polygon fill="#F0A456" points="643.75,1407.7637,628.125,1414.0137,643.75,1420.2637,637.5,1414.0137" style="stroke: #F0A456; stroke-width: 1.5625;"/><line style="stroke: #F0A456; stroke-width: 2.34375; stroke-dasharray: 2.0,2.0;" x1="634.375" x2="2139.0625" y1="1414.0137" y2="1414.0137"/><text fill="#E6E8EC" font-family="DejaVu Sans" font-size="21.875" lengthAdjust="spacingAndGlyphs" textLength="46.875" x="653.125" y="1405.7297">data</text><polygon fill="#F0A456" points="370.3125,1455.1025,354.6875,1461.3525,370.3125,1467.6025,364.0625,1461.3525" style="stroke: #F0A456; stroke-width: 1.5625;"/><line style="stroke: #F0A456; stroke-width: 2.34375; stroke-dasharray: 2.0,2.0;" x1="360.9375" x2="625" y1="1461.3525" y2="1461.3525"/><text fill="#E6E8EC" font-family="DejaVu Sans" font-size="21.875" lengthAdjust="spacingAndGlyphs" textLength="104.6875" x="379.6875" y="1453.0685">200 OK ✓</text><path d="M12.5,1486.3525 L12.5,1594.165 A4.6875,4.6875 0 0 0 17.1875,1598.8525 L689.0625,1598.8525 A4.6875,4.6875 0 0 0 693.75,1594.165 L693.75,1497.29 L678.125,1481.665 L17.1875,1481.665 A4.6875,4.6875 0 0 0 12.5,1486.3525 " fill="#1B202A" style="stroke: #3D424E; stroke-width: 1.5625;"/><path d="M678.125,1481.665 L678.125,1494.9463 A2.3438,2.3438 0 0 0 680.4688,1497.29 L693.75,1497.29 L678.125,1481.665 " fill="#1B202A" style="stroke: #3D424E; stroke-width: 1.5625;"/><text fill="#A6ADBB" font-family="DejaVu Sans" font-size="21.875" lengthAdjust="spacingAndGlyphs" textLength="317.1875" x="194.5313" y="1509.7824">UI vzory pro řešení staleness:</text><text fill="#A6ADBB" font-family="DejaVu Sans" font-size="21.875" lengthAdjust="spacingAndGlyphs" textLength="573.4375" x="66.4063" y="1535.2463">1. Optimistic update (UI ukáže ihned, mark "pending")</text><text fill="#A6ADBB" font-family="DejaVu Sans" font-size="21.875" lengthAdjust="spacingAndGlyphs" textLength="543.75" x="81.25" y="1560.7101">2. Wait-and-poll (klient čeká 100-500 ms, pak GET)</text><text fill="#A6ADBB" font-family="DejaVu Sans" font-size="21.875" lengthAdjust="spacingAndGlyphs" textLength="634.375" x="35.9375" y="1586.174">3. Read your writes (sync GET z primary, ne z read modelu)</text><!--MD5=[091ad6f1185ea24e3da2eb541ba5bf27]
@startuml staleness_window
skinparam dpi 150
skinparam backgroundColor #11141A
skinparam shadowing false
skinparam roundCorner 6

skinparam defaultFontName "DejaVu Sans"
skinparam defaultFontSize 14
skinparam defaultFontColor #E6E8EC
skinparam defaultTextAlignment center


skinparam ArrowColor #F0A456
skinparam ArrowFontColor #E6E8EC
skinparam ArrowThickness 1.5

skinparam node {
  BackgroundColor #161A22
  BorderColor #3D424E
  FontColor #E6E8EC
}

skinparam component {
  BackgroundColor #161A22
  BorderColor #3D424E
  FontColor #E6E8EC
}

skinparam rectangle {
  BackgroundColor #161A22
  BorderColor #3D424E
  FontColor #E6E8EC
}

skinparam package {
  BackgroundColor #11141A
  BorderColor #F0A456
  FontColor #F0A456
}

skinparam folder {
  BackgroundColor #161A22
  BorderColor #3D424E
  FontColor #E6E8EC
}

skinparam frame {
  BackgroundColor #161A22
  BorderColor #3D424E
  FontColor #E6E8EC
}

skinparam database {
  BackgroundColor #1B202A
  BorderColor #3D424E
  FontColor #E6E8EC
}

skinparam queue {
  BackgroundColor #1B202A
  BorderColor #3D424E
  FontColor #E6E8EC
}

skinparam cloud {
  BackgroundColor #1B202A
  BorderColor #3D424E
  FontColor #E6E8EC
}

skinparam actor {
  BackgroundColor #161A22
  BorderColor #F0A456
  FontColor #E6E8EC
}

skinparam usecase {
  BackgroundColor #161A22
  BorderColor #3D424E
  FontColor #E6E8EC
}

skinparam class {
  BackgroundColor #161A22
  BorderColor #3D424E
  HeaderBackgroundColor #1B202A
  ArrowColor #F0A456
  FontColor #E6E8EC
  AttributeFontColor #A6ADBB
  StereotypeFontColor #F0A456
}

skinparam object {
  BackgroundColor #161A22
  BorderColor #3D424E
  FontColor #E6E8EC
}

skinparam sequence {
  ParticipantBackgroundColor #161A22
  ParticipantBorderColor #3D424E
  ParticipantFontColor #E6E8EC
  ActorBackgroundColor #161A22
  ActorBorderColor #F0A456
  ActorFontColor #E6E8EC
  LifeLineBorderColor #3D424E
  LifeLineBackgroundColor #1B202A
  ArrowColor #F0A456
  ArrowFontColor #E6E8EC
  GroupBackgroundColor #1B202A
  GroupBorderColor #3D424E
  GroupFontColor #A6ADBB
  GroupHeaderFontColor #F0A456
  BoxBackgroundColor #11141A
  BoxBorderColor #F0A456
  BoxFontColor #F0A456
  DividerBackgroundColor #1B202A
  DividerBorderColor #3D424E
  DividerFontColor #A6ADBB
  ReferenceBackgroundColor #161A22
  ReferenceBorderColor #3D424E
  ReferenceFontColor #E6E8EC
  ReferenceHeaderBackgroundColor #1B202A
  StereotypeFontColor #F0A456
}

skinparam state {
  BackgroundColor #161A22
  BorderColor #3D424E
  FontColor #E6E8EC
  StartColor #F0A456
  EndColor #F0A456
  ArrowColor #F0A456
  AttributeFontColor #A6ADBB
}

skinparam activity {
  BackgroundColor #161A22
  BorderColor #3D424E
  FontColor #E6E8EC
  ArrowColor #F0A456
  StartColor #F0A456
  EndColor #F0A456
  BarColor #F0A456
  DiamondBackgroundColor #1B202A
  DiamondBorderColor #3D424E
  DiamondFontColor #E6E8EC
}

skinparam note {
  BackgroundColor #1B202A
  BorderColor #3D424E
  FontColor #A6ADBB
}

skinparam title {
  FontColor #E6E8EC
  FontSize 18
}

skinparam legend {
  BackgroundColor #161A22
  BorderColor #3D424E
  FontColor #A6ADBB
}

skinparam caption {
  FontColor #A6ADBB
}

skinparam stereotype {
  CBackgroundColor #1B202A
  CBorderColor #F0A456
  ABackgroundColor #1B202A
  ABorderColor #F0A456
  IBackgroundColor #1B202A
  IBorderColor #F0A456
  EBackgroundColor #1B202A
  EBorderColor #F0A456
}

title Staleness window: kdy uživatel vidí starý read model

actor User as u
participant "Controller" as ctrl
participant "Command Bus" as cb
participant "Order Aggregate" as agg
database "Write DB" as wdb
queue "Event Bus" as eb
participant "Projector" as p
database "Read Model" as rm

== T0: User odešle command ==

u -> ctrl : POST /orders\n{items, address}
ctrl -> cb : PlaceOrder cmd
cb -> agg : place(items, address)
agg -> wdb : INSERT order, INSERT outbox
agg -> eb : OrderPlaced event
ctrl - -> u : 201 Created\n{ orderId: 42 }
note right of u : T+0 ms: command potvrzen

== T0-T100ms: STALENESS WINDOW ==

note over u, rm
  Zde je read model starý:
  GET /orders/42 vrátí 404, protože projector
  ještě eventu nezpracoval.
end note

u -> ctrl : GET /orders/42
ctrl -> rm : SELECT * WHERE id=42
rm - -> ctrl : NULL ⚠️
ctrl - -> u : 404 Not Found 😕

== T+100ms: projector dohnal stav ==

eb -> p : OrderPlaced event
p -> rm : INSERT INTO orders_view\n(id=42, ...)

== T+150ms: read model konzistentní ==

u -> ctrl : GET /orders/42 (retry)
ctrl -> rm : SELECT * WHERE id=42
rm - -> ctrl : data
ctrl - -> u : 200 OK ✓

note over u
  UI vzory pro řešení staleness:
  1. Optimistic update (UI ukáže ihned, mark "pending")
  2. Wait-and-poll (klient čeká 100-500 ms, pak GET)
  3. Read your writes (sync GET z primary, ne z read modelu)
end note

@enduml

PlantUML version 1.2020.02(Sun Mar 01 11:22:07 CET 2020)
(GPL source distribution)
Java Runtime: OpenJDK Runtime Environment
JVM: OpenJDK 64-Bit Server VM
Java Version: 21.0.10+7-Debian-1deb13u1
Operating System: Linux
Default Encoding: UTF-8
Language: cs
Country: CZ
--></g></svg>