<?xml version="1.0" encoding="UTF-8" standalone="no"?><svg xmlns="http://www.w3.org/2000/svg" xmlns:xlink="http://www.w3.org/1999/xlink" contentScriptType="application/ecmascript" contentStyleType="text/css" height="1014.0625px" preserveAspectRatio="none" style="width:1168px;height:1014px;background:#11141A;" version="1.1" viewBox="0 0 1168 1014" width="1168.75px" zoomAndPan="magnify"><defs/><g><!--MD5=[be996cdb8e6bf2fc7cb89c555f2cd144]
class Entity--><rect fill="#161A22" height="148.2666" id="Entity" rx="4.6875" ry="4.6875" style="stroke: #3D424E; stroke-width: 2.34375;" width="237.5" x="207.8125" y="835.9375"/><ellipse cx="290.625" cy="859.375" fill="#1B202A" rx="15.625" ry="15.625" style="stroke: #F0A456; stroke-width: 1.5625;"/><path d="M294.3604,866.7236 Q293.6035,867.1143 292.7734,867.3096 Q291.9678,867.5049 291.0645,867.5049 Q287.8418,867.5049 286.1328,865.3809 Q284.4482,863.2568 284.4482,859.2285 Q284.4482,855.2002 286.1328,853.0762 Q287.8418,850.9521 291.0645,850.9521 Q291.9678,850.9521 292.7979,851.1475 Q293.6279,851.3428 294.3604,851.709 L294.3604,855.2246 Q293.5547,854.4678 292.7734,854.126 Q292.0166,853.7842 291.2109,853.7842 Q289.4775,853.7842 288.5986,855.1514 Q287.7197,856.5186 287.7197,859.2285 Q287.7197,861.9141 288.5986,863.3057 Q289.4775,864.6729 291.2109,864.6729 Q292.0166,864.6729 292.7734,864.3311 Q293.5547,863.9648 294.3604,863.2324 L294.3604,866.7236 Z "/><text fill="#E6E8EC" font-family="Inter, ui-sans-serif, system-ui, -apple-system, sans-serif" font-size="21.875" lengthAdjust="spacingAndGlyphs" textLength="59.375" x="320.3125" y="866.9479">Entity</text><line style="stroke: #3D424E; stroke-width: 2.34375;" x1="209.375" x2="443.75" y1="882.8125" y2="882.8125"/><ellipse cx="225" cy="900" fill="none" rx="4.6875" ry="4.6875" style="stroke: #038048; stroke-width: 1.5625;"/><text fill="#A6ADBB" font-family="Inter, ui-sans-serif, system-ui, -apple-system, sans-serif" font-size="21.875" lengthAdjust="spacingAndGlyphs" textLength="78.125" x="237.5" y="909.3674">identity</text><ellipse cx="225" cy="925.4639" fill="none" rx="4.6875" ry="4.6875" style="stroke: #038048; stroke-width: 1.5625;"/><text fill="#A6ADBB" font-family="Inter, ui-sans-serif, system-ui, -apple-system, sans-serif" font-size="21.875" lengthAdjust="spacingAndGlyphs" textLength="143.75" x="237.5" y="934.8312">mutableState</text><line style="stroke: #3D424E; stroke-width: 2.34375;" x1="209.375" x2="443.75" y1="946.2402" y2="946.2402"/><ellipse cx="225" cy="963.4277" fill="#84BE84" rx="4.6875" ry="4.6875" style="stroke: #038048; stroke-width: 1.5625;"/><text fill="#A6ADBB" font-family="Inter, ui-sans-serif, system-ui, -apple-system, sans-serif" font-size="21.875" lengthAdjust="spacingAndGlyphs" textLength="198.4375" x="237.5" y="972.7951">equals(other) bool</text><!--MD5=[4827804e05157d3fd1630e9a95b5d355]
class ValueObject--><rect fill="#161A22" height="148.2666" id="ValueObject" rx="4.6875" ry="4.6875" style="stroke: #3D424E; stroke-width: 2.34375;" width="237.5" x="839.0625" y="835.9375"/><ellipse cx="888.3594" cy="859.375" fill="#1B202A" rx="15.625" ry="15.625" style="stroke: #F0A456; stroke-width: 1.5625;"/><path d="M892.0947,866.7236 Q891.3379,867.1143 890.5078,867.3096 Q889.7021,867.5049 888.7988,867.5049 Q885.5762,867.5049 883.8672,865.3809 Q882.1826,863.2568 882.1826,859.2285 Q882.1826,855.2002 883.8672,853.0762 Q885.5762,850.9521 888.7988,850.9521 Q889.7021,850.9521 890.5322,851.1475 Q891.3623,851.3428 892.0947,851.709 L892.0947,855.2246 Q891.2891,854.4678 890.5078,854.126 Q889.751,853.7842 888.9453,853.7842 Q887.2119,853.7842 886.333,855.1514 Q885.4541,856.5186 885.4541,859.2285 Q885.4541,861.9141 886.333,863.3057 Q887.2119,864.6729 888.9453,864.6729 Q889.751,864.6729 890.5078,864.3311 Q891.2891,863.9648 892.0947,863.2324 L892.0947,866.7236 Z "/><text fill="#E6E8EC" font-family="Inter, ui-sans-serif, system-ui, -apple-system, sans-serif" font-size="21.875" lengthAdjust="spacingAndGlyphs" textLength="129.6875" x="914.7656" y="866.9479">ValueObject</text><line style="stroke: #3D424E; stroke-width: 2.34375;" x1="840.625" x2="1075" y1="882.8125" y2="882.8125"/><ellipse cx="856.25" cy="900" fill="none" rx="4.6875" ry="4.6875" style="stroke: #038048; stroke-width: 1.5625;"/><text fill="#A6ADBB" font-family="Inter, ui-sans-serif, system-ui, -apple-system, sans-serif" font-size="21.875" lengthAdjust="spacingAndGlyphs" textLength="168.75" x="868.75" y="909.3674">immutableState</text><ellipse cx="856.25" cy="925.4639" fill="none" rx="4.6875" ry="4.6875" style="stroke: #038048; stroke-width: 1.5625;"/><text fill="#A6ADBB" font-family="Inter, ui-sans-serif, system-ui, -apple-system, sans-serif" font-size="21.875" lengthAdjust="spacingAndGlyphs" textLength="106.25" x="868.75" y="934.8312">noIdentity</text><line style="stroke: #3D424E; stroke-width: 2.34375;" x1="840.625" x2="1075" y1="946.2402" y2="946.2402"/><ellipse cx="856.25" cy="963.4277" fill="#84BE84" rx="4.6875" ry="4.6875" style="stroke: #038048; stroke-width: 1.5625;"/><text fill="#A6ADBB" font-family="Inter, ui-sans-serif, system-ui, -apple-system, sans-serif" font-size="21.875" lengthAdjust="spacingAndGlyphs" textLength="198.4375" x="868.75" y="972.7951">equals(other) bool</text><!--MD5=[46d0916f28b0640e2d87ad18b383baa6]
class AggregateRoot--><rect fill="#161A22" height="148.2666" id="AggregateRoot" rx="4.6875" ry="4.6875" style="stroke: #3D424E; stroke-width: 2.34375;" width="342.1875" x="313.2813" y="553.125"/><ellipse cx="396.0938" cy="576.5625" fill="#1B202A" rx="15.625" ry="15.625" style="stroke: #F0A456; stroke-width: 1.5625;"/><path d="M399.8291,583.9111 Q399.0723,584.3018 398.2422,584.4971 Q397.4365,584.6924 396.5332,584.6924 Q393.3105,584.6924 391.6016,582.5684 Q389.917,580.4443 389.917,576.416 Q389.917,572.3877 391.6016,570.2637 Q393.3105,568.1396 396.5332,568.1396 Q397.4365,568.1396 398.2666,568.335 Q399.0967,568.5303 399.8291,568.8965 L399.8291,572.4121 Q399.0234,571.6553 398.2422,571.3135 Q397.4854,570.9717 396.6797,570.9717 Q394.9463,570.9717 394.0674,572.3389 Q393.1885,573.7061 393.1885,576.416 Q393.1885,579.1016 394.0674,580.4932 Q394.9463,581.8604 396.6797,581.8604 Q397.4854,581.8604 398.2422,581.5186 Q399.0234,581.1523 399.8291,580.4199 L399.8291,583.9111 Z "/><text fill="#E6E8EC" font-family="Inter, ui-sans-serif, system-ui, -apple-system, sans-serif" font-size="21.875" lengthAdjust="spacingAndGlyphs" textLength="164.0625" x="425.7813" y="584.1354">AggregateRoot</text><line style="stroke: #3D424E; stroke-width: 2.34375;" x1="314.8438" x2="653.9063" y1="600" y2="600"/><ellipse cx="330.4688" cy="617.1875" fill="none" rx="4.6875" ry="4.6875" style="stroke: #038048; stroke-width: 1.5625;"/><text fill="#A6ADBB" font-family="Inter, ui-sans-serif, system-ui, -apple-system, sans-serif" font-size="21.875" lengthAdjust="spacingAndGlyphs" textLength="59.375" x="342.9688" y="626.5549">Entity</text><ellipse cx="330.4688" cy="642.6514" fill="none" rx="4.6875" ry="4.6875" style="stroke: #038048; stroke-width: 1.5625;"/><text fill="#A6ADBB" font-family="Inter, ui-sans-serif, system-ui, -apple-system, sans-serif" font-size="21.875" lengthAdjust="spacingAndGlyphs" textLength="303.125" x="342.9688" y="652.0187">rootOfConsistencyBoundary</text><ellipse cx="330.4688" cy="668.1152" fill="none" rx="4.6875" ry="4.6875" style="stroke: #038048; stroke-width: 1.5625;"/><text fill="#A6ADBB" font-family="Inter, ui-sans-serif, system-ui, -apple-system, sans-serif" font-size="21.875" lengthAdjust="spacingAndGlyphs" textLength="270.3125" x="342.9688" y="677.4826">transactionalConsistency</text><line style="stroke: #3D424E; stroke-width: 2.34375;" x1="314.8438" x2="653.9063" y1="688.8916" y2="688.8916"/><!--MD5=[c05f8d4c5007184b0fb1ea93cdb8d9fe]
class Repository--><rect fill="#161A22" height="148.2666" id="Repository" rx="4.6875" ry="4.6875" style="stroke: #3D424E; stroke-width: 2.34375;" width="246.875" x="9.375" y="282.8125"/><ellipse cx="69.2188" cy="306.25" fill="#1B202A" rx="15.625" ry="15.625" style="stroke: #F0A456; stroke-width: 1.5625;"/><path d="M64.7998,300.9033 L64.7998,298.1201 L74.2969,298.1201 L74.2969,300.9033 L71.123,300.9033 L71.123,311.2793 L74.2969,311.2793 L74.2969,314.0625 L64.7998,314.0625 L64.7998,311.2793 L67.9736,311.2793 L67.9736,300.9033 L64.7998,300.9033 Z "/><text fill="#E6E8EC" font-family="Inter, ui-sans-serif, system-ui, -apple-system, sans-serif" font-size="21.875" font-style="italic" lengthAdjust="spacingAndGlyphs" textLength="115.625" x="97.9688" y="313.8229">Repository</text><line style="stroke: #3D424E; stroke-width: 2.34375;" x1="10.9375" x2="254.6875" y1="329.6875" y2="329.6875"/><line style="stroke: #3D424E; stroke-width: 2.34375;" x1="10.9375" x2="254.6875" y1="342.1875" y2="342.1875"/><ellipse cx="26.5625" cy="359.375" fill="#84BE84" rx="4.6875" ry="4.6875" style="stroke: #038048; stroke-width: 1.5625;"/><text fill="#A6ADBB" font-family="Inter, ui-sans-serif, system-ui, -apple-system, sans-serif" font-size="21.875" lengthAdjust="spacingAndGlyphs" textLength="73.4375" x="39.0625" y="368.7424">find(id)</text><ellipse cx="26.5625" cy="384.8389" fill="#84BE84" rx="4.6875" ry="4.6875" style="stroke: #038048; stroke-width: 1.5625;"/><text fill="#A6ADBB" font-family="Inter, ui-sans-serif, system-ui, -apple-system, sans-serif" font-size="21.875" lengthAdjust="spacingAndGlyphs" textLength="176.5625" x="39.0625" y="394.2062">save(aggregate)</text><ellipse cx="26.5625" cy="410.3027" fill="#84BE84" rx="4.6875" ry="4.6875" style="stroke: #038048; stroke-width: 1.5625;"/><text fill="#A6ADBB" font-family="Inter, ui-sans-serif, system-ui, -apple-system, sans-serif" font-size="21.875" lengthAdjust="spacingAndGlyphs" textLength="207.8125" x="39.0625" y="419.6701">remove(aggregate)</text><!--MD5=[2e594e2eb916e869f6825b947cef792c]
class DomainService--><rect fill="#161A22" height="148.2666" id="DomainService" rx="4.6875" ry="4.6875" style="stroke: #3D424E; stroke-width: 2.34375;" width="345.3125" x="807.0313" y="553.125"/><ellipse cx="892.9688" cy="576.5625" fill="#1B202A" rx="15.625" ry="15.625" style="stroke: #F0A456; stroke-width: 1.5625;"/><path d="M896.7041,583.9111 Q895.9473,584.3018 895.1172,584.4971 Q894.3115,584.6924 893.4082,584.6924 Q890.1855,584.6924 888.4766,582.5684 Q886.792,580.4443 886.792,576.416 Q886.792,572.3877 888.4766,570.2637 Q890.1855,568.1396 893.4082,568.1396 Q894.3115,568.1396 895.1416,568.335 Q895.9717,568.5303 896.7041,568.8965 L896.7041,572.4121 Q895.8984,571.6553 895.1172,571.3135 Q894.3604,570.9717 893.5547,570.9717 Q891.8213,570.9717 890.9424,572.3389 Q890.0635,573.7061 890.0635,576.416 Q890.0635,579.1016 890.9424,580.4932 Q891.8213,581.8604 893.5547,581.8604 Q894.3604,581.8604 895.1172,581.5186 Q895.8984,581.1523 896.7041,580.4199 L896.7041,583.9111 Z "/><text fill="#E6E8EC" font-family="Inter, ui-sans-serif, system-ui, -apple-system, sans-serif" font-size="21.875" lengthAdjust="spacingAndGlyphs" textLength="160.9375" x="922.6563" y="584.1354">DomainService</text><line style="stroke: #3D424E; stroke-width: 2.34375;" x1="808.5938" x2="1150.7813" y1="600" y2="600"/><ellipse cx="824.2188" cy="617.1875" fill="none" rx="4.6875" ry="4.6875" style="stroke: #038048; stroke-width: 1.5625;"/><text fill="#A6ADBB" font-family="Inter, ui-sans-serif, system-ui, -apple-system, sans-serif" font-size="21.875" lengthAdjust="spacingAndGlyphs" textLength="98.4375" x="836.7188" y="626.5549">stateless</text><line style="stroke: #3D424E; stroke-width: 2.34375;" x1="808.5938" x2="1150.7813" y1="637.9639" y2="637.9639"/><ellipse cx="824.2188" cy="655.1514" fill="#84BE84" rx="4.6875" ry="4.6875" style="stroke: #038048; stroke-width: 1.5625;"/><text fill="#A6ADBB" font-family="Inter, ui-sans-serif, system-ui, -apple-system, sans-serif" font-size="21.875" lengthAdjust="spacingAndGlyphs" textLength="170.3125" x="836.7188" y="664.5187">businessLogic()</text><ellipse cx="824.2188" cy="680.6152" fill="#84BE84" rx="4.6875" ry="4.6875" style="stroke: #038048; stroke-width: 1.5625;"/><text fill="#A6ADBB" font-family="Inter, ui-sans-serif, system-ui, -apple-system, sans-serif" font-size="21.875" lengthAdjust="spacingAndGlyphs" textLength="306.25" x="836.7188" y="689.9826">operatesOnMultipleEntities()</text><!--MD5=[dcda66dabdb739ec36f1175150e3c9d5]
class Factory--><rect fill="#161A22" height="122.8027" id="Factory" rx="4.6875" ry="4.6875" style="stroke: #3D424E; stroke-width: 2.34375;" width="346.875" x="310.9375" y="295.3125"/><ellipse cx="439.0625" cy="318.75" fill="#1B202A" rx="15.625" ry="15.625" style="stroke: #F0A456; stroke-width: 1.5625;"/><path d="M442.7979,326.0986 Q442.041,326.4893 441.2109,326.6846 Q440.4053,326.8799 439.502,326.8799 Q436.2793,326.8799 434.5703,324.7559 Q432.8857,322.6318 432.8857,318.6035 Q432.8857,314.5752 434.5703,312.4512 Q436.2793,310.3271 439.502,310.3271 Q440.4053,310.3271 441.2354,310.5225 Q442.0654,310.7178 442.7979,311.084 L442.7979,314.5996 Q441.9922,313.8428 441.2109,313.501 Q440.4541,313.1592 439.6484,313.1592 Q437.915,313.1592 437.0361,314.5264 Q436.1572,315.8936 436.1572,318.6035 Q436.1572,321.2891 437.0361,322.6807 Q437.915,324.0479 439.6484,324.0479 Q440.4541,324.0479 441.2109,323.7061 Q441.9922,323.3398 442.7979,322.6074 L442.7979,326.0986 Z "/><text fill="#E6E8EC" font-family="Inter, ui-sans-serif, system-ui, -apple-system, sans-serif" font-size="21.875" lengthAdjust="spacingAndGlyphs" textLength="78.125" x="468.75" y="326.3229">Factory</text><line style="stroke: #3D424E; stroke-width: 2.34375;" x1="312.5" x2="656.25" y1="342.1875" y2="342.1875"/><line style="stroke: #3D424E; stroke-width: 2.34375;" x1="312.5" x2="656.25" y1="354.6875" y2="354.6875"/><ellipse cx="328.125" cy="371.875" fill="#84BE84" rx="4.6875" ry="4.6875" style="stroke: #038048; stroke-width: 1.5625;"/><text fill="#A6ADBB" font-family="Inter, ui-sans-serif, system-ui, -apple-system, sans-serif" font-size="21.875" lengthAdjust="spacingAndGlyphs" textLength="260.9375" x="340.625" y="381.2424">createComplexObjects()</text><ellipse cx="328.125" cy="397.3389" fill="#84BE84" rx="4.6875" ry="4.6875" style="stroke: #038048; stroke-width: 1.5625;"/><text fill="#A6ADBB" font-family="Inter, ui-sans-serif, system-ui, -apple-system, sans-serif" font-size="21.875" lengthAdjust="spacingAndGlyphs" textLength="307.8125" x="340.625" y="406.7062">encapsulatesCreationLogic()</text><!--MD5=[f05baac85afee086abd0a6acb4246613]
class DomainEvent--><rect fill="#161A22" height="173.7305" id="DomainEvent" rx="4.6875" ry="4.6875" style="stroke: #3D424E; stroke-width: 2.34375;" width="190.625" x="500" y="823.4375"/><ellipse cx="521.875" cy="846.875" fill="#1B202A" rx="15.625" ry="15.625" style="stroke: #F0A456; stroke-width: 1.5625;"/><path d="M525.6104,854.2236 Q524.8535,854.6143 524.0234,854.8096 Q523.2178,855.0049 522.3145,855.0049 Q519.0918,855.0049 517.3828,852.8809 Q515.6982,850.7568 515.6982,846.7285 Q515.6982,842.7002 517.3828,840.5762 Q519.0918,838.4521 522.3145,838.4521 Q523.2178,838.4521 524.0479,838.6475 Q524.8779,838.8428 525.6104,839.209 L525.6104,842.7246 Q524.8047,841.9678 524.0234,841.626 Q523.2666,841.2842 522.4609,841.2842 Q520.7275,841.2842 519.8486,842.6514 Q518.9697,844.0186 518.9697,846.7285 Q518.9697,849.4141 519.8486,850.8057 Q520.7275,852.1729 522.4609,852.1729 Q523.2666,852.1729 524.0234,851.8311 Q524.8047,851.4648 525.6104,850.7324 L525.6104,854.2236 Z "/><text fill="#E6E8EC" font-family="Inter, ui-sans-serif, system-ui, -apple-system, sans-serif" font-size="21.875" lengthAdjust="spacingAndGlyphs" textLength="143.75" x="542.1875" y="854.4479">DomainEvent</text><line style="stroke: #3D424E; stroke-width: 2.34375;" x1="501.5625" x2="689.0625" y1="870.3125" y2="870.3125"/><ellipse cx="517.1875" cy="887.5" fill="none" rx="4.6875" ry="4.6875" style="stroke: #038048; stroke-width: 1.5625;"/><text fill="#A6ADBB" font-family="Inter, ui-sans-serif, system-ui, -apple-system, sans-serif" font-size="21.875" lengthAdjust="spacingAndGlyphs" textLength="60.9375" x="529.6875" y="896.8674">name</text><ellipse cx="517.1875" cy="912.9639" fill="none" rx="4.6875" ry="4.6875" style="stroke: #038048; stroke-width: 1.5625;"/><text fill="#A6ADBB" font-family="Inter, ui-sans-serif, system-ui, -apple-system, sans-serif" font-size="21.875" lengthAdjust="spacingAndGlyphs" textLength="114.0625" x="529.6875" y="922.3312">timestamp</text><ellipse cx="517.1875" cy="938.4277" fill="none" rx="4.6875" ry="4.6875" style="stroke: #038048; stroke-width: 1.5625;"/><text fill="#A6ADBB" font-family="Inter, ui-sans-serif, system-ui, -apple-system, sans-serif" font-size="21.875" lengthAdjust="spacingAndGlyphs" textLength="46.875" x="529.6875" y="947.7951">data</text><ellipse cx="517.1875" cy="963.8916" fill="none" rx="4.6875" ry="4.6875" style="stroke: #038048; stroke-width: 1.5625;"/><text fill="#A6ADBB" font-family="Inter, ui-sans-serif, system-ui, -apple-system, sans-serif" font-size="21.875" lengthAdjust="spacingAndGlyphs" textLength="117.1875" x="529.6875" y="973.259">notification</text><line style="stroke: #3D424E; stroke-width: 2.34375;" x1="501.5625" x2="689.0625" y1="984.668" y2="984.668"/><!--MD5=[4305153bc2f886c006b83d01ec22ac39]
class BoundedContext--><rect fill="#161A22" height="148.2666" id="BoundedContext" rx="4.6875" ry="4.6875" style="stroke: #3D424E; stroke-width: 2.34375;" width="259.375" x="637.5" y="12.5"/><ellipse cx="672.0313" cy="35.9375" fill="#1B202A" rx="15.625" ry="15.625" style="stroke: #F0A456; stroke-width: 1.5625;"/><path d="M675.7666,43.2861 Q675.0098,43.6768 674.1797,43.8721 Q673.374,44.0674 672.4707,44.0674 Q669.248,44.0674 667.5391,41.9434 Q665.8545,39.8193 665.8545,35.791 Q665.8545,31.7627 667.5391,29.6387 Q669.248,27.5146 672.4707,27.5146 Q673.374,27.5146 674.2041,27.71 Q675.0342,27.9053 675.7666,28.2715 L675.7666,31.7871 Q674.9609,31.0303 674.1797,30.6885 Q673.4229,30.3467 672.6172,30.3467 Q670.8838,30.3467 670.0049,31.7139 Q669.126,33.0811 669.126,35.791 Q669.126,38.4766 670.0049,39.8682 Q670.8838,41.2354 672.6172,41.2354 Q673.4229,41.2354 674.1797,40.8936 Q674.9609,40.5273 675.7666,39.7949 L675.7666,43.2861 Z "/><text fill="#E6E8EC" font-family="Inter, ui-sans-serif, system-ui, -apple-system, sans-serif" font-size="21.875" lengthAdjust="spacingAndGlyphs" textLength="184.375" x="695.1563" y="43.5104">BoundedContext</text><line style="stroke: #3D424E; stroke-width: 2.34375;" x1="639.0625" x2="895.3125" y1="59.375" y2="59.375"/><ellipse cx="654.6875" cy="76.5625" fill="none" rx="4.6875" ry="4.6875" style="stroke: #038048; stroke-width: 1.5625;"/><text fill="#A6ADBB" font-family="Inter, ui-sans-serif, system-ui, -apple-system, sans-serif" font-size="21.875" lengthAdjust="spacingAndGlyphs" textLength="220.3125" x="667.1875" y="85.9299">autonomousDomain</text><ellipse cx="654.6875" cy="102.0264" fill="none" rx="4.6875" ry="4.6875" style="stroke: #038048; stroke-width: 1.5625;"/><text fill="#A6ADBB" font-family="Inter, ui-sans-serif, system-ui, -apple-system, sans-serif" font-size="21.875" lengthAdjust="spacingAndGlyphs" textLength="196.875" x="667.1875" y="111.3937">explicitBoundaries</text><ellipse cx="654.6875" cy="127.4902" fill="none" rx="4.6875" ry="4.6875" style="stroke: #038048; stroke-width: 1.5625;"/><text fill="#A6ADBB" font-family="Inter, ui-sans-serif, system-ui, -apple-system, sans-serif" font-size="21.875" lengthAdjust="spacingAndGlyphs" textLength="220.3125" x="667.1875" y="136.8576">ubiquitousLanguage</text><line style="stroke: #3D424E; stroke-width: 2.34375;" x1="639.0625" x2="895.3125" y1="148.2666" y2="148.2666"/><!--MD5=[df62cef171a2f9b6d3f5299544081860]
link AggregateRoot to Entity--><path d="M358.0156,701.7344 C343.4844,715.375 330.7344,730.9375 321.875,748.4375 C313.3125,765.375 309.6406,784.6563 308.875,803.8281 " fill="none" id="AggregateRoot-&gt;Entity" style="stroke: #F0A456; stroke-width: 2.34375;"/><polygon fill="none" points="319.8125,803.9688,309.9531,835.5781,297.9531,804.7188,319.8125,803.9688" style="stroke: #F0A456; stroke-width: 2.34375;"/><text fill="#E6E8EC" font-family="Inter, ui-sans-serif, system-ui, -apple-system, sans-serif" font-size="21.875" lengthAdjust="spacingAndGlyphs" textLength="18.75" x="323.4375" y="770.3049">je</text><!--MD5=[c5f3ad01b085d448fc17413c24c4d278]
reverse link AggregateRoot to Entity--><path d="M433.1875,719.625 C411.9844,757.2188 387.7031,800.2344 367.6875,835.7188 " fill="none" id="AggregateRoot&lt;-Entity" style="stroke: #F0A456; stroke-width: 2.34375;"/><polygon fill="#11141A" points="443.3281,701.6563,433.2772,706.7487,434.1122,717.9851,444.1631,712.8926,443.3281,701.6563" style="stroke: #F0A456; stroke-width: 2.34375;"/><text fill="#E6E8EC" font-family="Inter, ui-sans-serif, system-ui, -apple-system, sans-serif" font-size="21.875" lengthAdjust="spacingAndGlyphs" textLength="100" x="415.625" y="770.3049">obsahuje</text><!--MD5=[669d2ccae4b9c12a4409a6a7187911a9]
reverse link AggregateRoot to ValueObject--><path d="M625.4375,712.2344 C693.4375,752.4219 774.1094,800.0781 838.9531,838.375 " fill="none" id="AggregateRoot&lt;-ValueObject" style="stroke: #F0A456; stroke-width: 2.34375;"/><polygon fill="#11141A" points="607.5313,701.6563,612.4198,711.8079,623.6707,711.1998,618.7822,701.0482,607.5313,701.6563" style="stroke: #F0A456; stroke-width: 2.34375;"/><text fill="#E6E8EC" font-family="Inter, ui-sans-serif, system-ui, -apple-system, sans-serif" font-size="21.875" lengthAdjust="spacingAndGlyphs" textLength="100" x="721.875" y="770.3049">obsahuje</text><!--MD5=[f631d918521e6cf426d582f6528afb1d]
link Repository to AggregateRoot--><path d="M228.4219,431.25 C275.8906,467.3438 333.3125,510.9688 381.7188,547.7656 " fill="none" id="Repository-&gt;AggregateRoot" style="stroke: #F0A456; stroke-width: 2.34375; stroke-dasharray: 7.0,7.0;"/><polygon fill="#F0A456" points="388.1875,552.6719,380.7413,539.2045,381.9563,547.9594,373.2014,549.1744,388.1875,552.6719" style="stroke: #F0A456; stroke-width: 2.34375;"/><text fill="#E6E8EC" font-family="Inter, ui-sans-serif, system-ui, -apple-system, sans-serif" font-size="21.875" lengthAdjust="spacingAndGlyphs" textLength="98.4375" x="320.3125" y="499.9924">pracuje s</text><!--MD5=[24a6d5d57f074849ae723aa427de7e27]
link Factory to AggregateRoot--><path d="M484.375,419.2188 C484.375,456.4688 484.375,504.6094 484.375,545.0625 " fill="none" id="Factory-&gt;AggregateRoot" style="stroke: #F0A456; stroke-width: 2.34375; stroke-dasharray: 7.0,7.0;"/><polygon fill="#F0A456" points="484.375,553.0469,490.625,538.9844,484.375,545.2344,478.125,538.9844,484.375,553.0469" style="stroke: #F0A456; stroke-width: 2.34375;"/><text fill="#E6E8EC" font-family="Inter, ui-sans-serif, system-ui, -apple-system, sans-serif" font-size="21.875" lengthAdjust="spacingAndGlyphs" textLength="65.625" x="485.9375" y="499.9924">vytváří</text><!--MD5=[ae4d078d490f089e0ae19b7d0100986f]
link DomainService to Entity--><path d="M926.4219,701.7969 C902.0469,729.7656 870.8125,759.125 835.9375,776.5625 C690.6406,849.2188 627.2813,771.25 473.4375,823.4375 C465.6406,826.0781 457.7969,829.1719 450,832.5625 " fill="none" id="DomainService-&gt;Entity" style="stroke: #F0A456; stroke-width: 2.34375; stroke-dasharray: 7.0,7.0;"/><polygon fill="#F0A456" points="442.8594,835.7656,458.2482,835.7344,449.9921,832.5782,453.1483,824.3221,442.8594,835.7656" style="stroke: #F0A456; stroke-width: 2.34375;"/><text fill="#E6E8EC" font-family="Inter, ui-sans-serif, system-ui, -apple-system, sans-serif" font-size="21.875" lengthAdjust="spacingAndGlyphs" textLength="82.8125" x="878.125" y="770.3049">používá</text><!--MD5=[88e4668aee0170d0a2b63573a3d32efc]
link DomainService to ValueObject--><path d="M988.5625,702.1406 C990.0781,717.4219 991.4063,733.4375 992.1875,748.4375 C992.8437,760.9219 993.7813,764.1563 992.1875,776.5625 C990.0156,793.4688 986.3594,811.3125 982.2031,828.2187 " fill="none" id="DomainService-&gt;ValueObject" style="stroke: #F0A456; stroke-width: 2.34375; stroke-dasharray: 7.0,7.0;"/><polygon fill="#F0A456" points="980.2656,835.9219,989.7481,823.8017,982.1657,828.344,977.6234,820.7616,980.2656,835.9219" style="stroke: #F0A456; stroke-width: 2.34375;"/><text fill="#E6E8EC" font-family="Inter, ui-sans-serif, system-ui, -apple-system, sans-serif" font-size="21.875" lengthAdjust="spacingAndGlyphs" textLength="82.8125" x="993.75" y="770.3049">používá</text><!--MD5=[f8190755ef156f60cd508d6c5449ede3]
link AggregateRoot to DomainEvent--><path d="M513.2344,701.6563 C527.0781,736.5625 543.8125,778.7656 558.5625,815.9375 " fill="none" id="AggregateRoot-&gt;DomainEvent" style="stroke: #F0A456; stroke-width: 2.34375; stroke-dasharray: 7.0,7.0;"/><polygon fill="#F0A456" points="561.4844,823.2969,562.1055,807.9206,558.6022,816.0355,550.4873,812.5321,561.4844,823.2969" style="stroke: #F0A456; stroke-width: 2.34375;"/><text fill="#E6E8EC" font-family="Inter, ui-sans-serif, system-ui, -apple-system, sans-serif" font-size="21.875" lengthAdjust="spacingAndGlyphs" textLength="96.875" x="540.625" y="770.3049">publikuje</text><!--MD5=[336313230c6b5b954c57c6436388ec13]
reverse link BoundedContext to AggregateRoot--><path d="M759.4219,182.0625 C750.1406,254.125 729.9063,354.0625 685.9375,431.25 C659.5781,477.5156 618.8906,519.7969 580.9531,553.0313 " fill="none" id="BoundedContext&lt;-AggregateRoot" style="stroke: #F0A456; stroke-width: 2.34375;"/><polygon fill="#11141A" points="761.8594,161.5937,754.5414,170.1611,759.6351,180.2114,766.9531,171.644,761.8594,161.5937" style="stroke: #F0A456; stroke-width: 2.34375;"/><text fill="#E6E8EC" font-family="Inter, ui-sans-serif, system-ui, -apple-system, sans-serif" font-size="21.875" lengthAdjust="spacingAndGlyphs" textLength="100" x="740.625" y="364.8361">obsahuje</text><!--MD5=[a9dc0fb0537b4c7c111cb8b991bf235c]
reverse link BoundedContext to Repository--><path d="M617.7813,145.625 C521.875,183.1406 395.0156,234.0625 284.375,282.8125 C275.2969,286.8125 265.9531,291.0313 256.5781,295.3438 " fill="none" id="BoundedContext&lt;-Repository" style="stroke: #F0A456; stroke-width: 2.34375;"/><polygon fill="#11141A" points="637.1406,138.0781,626.1348,135.6648,619.6741,144.8959,630.6799,147.3092,637.1406,138.0781" style="stroke: #F0A456; stroke-width: 2.34375;"/><text fill="#E6E8EC" font-family="Inter, ui-sans-serif, system-ui, -apple-system, sans-serif" font-size="21.875" lengthAdjust="spacingAndGlyphs" textLength="100" x="456.25" y="229.6799">obsahuje</text><!--MD5=[cf0c85c29a10d97a937cb579d4bd6f91]
reverse link BoundedContext to DomainService--><path d="M827.6719,178.8438 C847.1719,210.75 867.6406,247.5 882.8125,282.8125 C921.4063,372.6406 949.2656,482.2188 964.9375,552.9688 " fill="none" id="BoundedContext&lt;-DomainService" style="stroke: #F0A456; stroke-width: 2.34375;"/><polygon fill="#11141A" points="816.6719,161.1562,816.3144,172.4179,826.5722,177.0793,826.9298,165.8177,816.6719,161.1562" style="stroke: #F0A456; stroke-width: 2.34375;"/><text fill="#E6E8EC" font-family="Inter, ui-sans-serif, system-ui, -apple-system, sans-serif" font-size="21.875" lengthAdjust="spacingAndGlyphs" textLength="100" x="932.8125" y="364.8361">obsahuje</text><!--MD5=[563216f5e284dace5ef370d7f542e969]
@startuml diagram
skinparam dpi 150
skinparam backgroundColor #11141A
skinparam shadowing false
skinparam roundCorner 6

skinparam defaultFontName "DejaVu Sans"
skinparam defaultFontSize 14
skinparam defaultFontColor #E6E8EC
skinparam defaultTextAlignment center


skinparam ArrowColor #F0A456
skinparam ArrowFontColor #E6E8EC
skinparam ArrowThickness 1.5

skinparam node {
  BackgroundColor #161A22
  BorderColor #3D424E
  FontColor #E6E8EC
}

skinparam component {
  BackgroundColor #161A22
  BorderColor #3D424E
  FontColor #E6E8EC
}

skinparam rectangle {
  BackgroundColor #161A22
  BorderColor #3D424E
  FontColor #E6E8EC
}

skinparam package {
  BackgroundColor #11141A
  BorderColor #F0A456
  FontColor #F0A456
}

skinparam folder {
  BackgroundColor #161A22
  BorderColor #3D424E
  FontColor #E6E8EC
}

skinparam frame {
  BackgroundColor #161A22
  BorderColor #3D424E
  FontColor #E6E8EC
}

skinparam database {
  BackgroundColor #1B202A
  BorderColor #3D424E
  FontColor #E6E8EC
}

skinparam queue {
  BackgroundColor #1B202A
  BorderColor #3D424E
  FontColor #E6E8EC
}

skinparam cloud {
  BackgroundColor #1B202A
  BorderColor #3D424E
  FontColor #E6E8EC
}

skinparam actor {
  BackgroundColor #161A22
  BorderColor #F0A456
  FontColor #E6E8EC
}

skinparam usecase {
  BackgroundColor #161A22
  BorderColor #3D424E
  FontColor #E6E8EC
}

skinparam class {
  BackgroundColor #161A22
  BorderColor #3D424E
  HeaderBackgroundColor #1B202A
  ArrowColor #F0A456
  FontColor #E6E8EC
  AttributeFontColor #A6ADBB
  StereotypeFontColor #F0A456
}

skinparam object {
  BackgroundColor #161A22
  BorderColor #3D424E
  FontColor #E6E8EC
}

skinparam sequence {
  ParticipantBackgroundColor #161A22
  ParticipantBorderColor #3D424E
  ParticipantFontColor #E6E8EC
  ActorBackgroundColor #161A22
  ActorBorderColor #F0A456
  ActorFontColor #E6E8EC
  LifeLineBorderColor #3D424E
  LifeLineBackgroundColor #1B202A
  ArrowColor #F0A456
  ArrowFontColor #E6E8EC
  GroupBackgroundColor #1B202A
  GroupBorderColor #3D424E
  GroupFontColor #A6ADBB
  GroupHeaderFontColor #F0A456
  BoxBackgroundColor #11141A
  BoxBorderColor #F0A456
  BoxFontColor #F0A456
  DividerBackgroundColor #1B202A
  DividerBorderColor #3D424E
  DividerFontColor #A6ADBB
  ReferenceBackgroundColor #161A22
  ReferenceBorderColor #3D424E
  ReferenceFontColor #E6E8EC
  ReferenceHeaderBackgroundColor #1B202A
  StereotypeFontColor #F0A456
}

skinparam state {
  BackgroundColor #161A22
  BorderColor #3D424E
  FontColor #E6E8EC
  StartColor #F0A456
  EndColor #F0A456
  ArrowColor #F0A456
  AttributeFontColor #A6ADBB
}

skinparam activity {
  BackgroundColor #161A22
  BorderColor #3D424E
  FontColor #E6E8EC
  ArrowColor #F0A456
  StartColor #F0A456
  EndColor #F0A456
  BarColor #F0A456
  DiamondBackgroundColor #1B202A
  DiamondBorderColor #3D424E
  DiamondFontColor #E6E8EC
}

skinparam note {
  BackgroundColor #1B202A
  BorderColor #3D424E
  FontColor #A6ADBB
}

skinparam title {
  FontColor #E6E8EC
  FontSize 18
}

skinparam legend {
  BackgroundColor #161A22
  BorderColor #3D424E
  FontColor #A6ADBB
}

skinparam caption {
  FontColor #A6ADBB
}

skinparam stereotype {
  CBackgroundColor #1B202A
  CBorderColor #F0A456
  ABackgroundColor #1B202A
  ABorderColor #F0A456
  IBackgroundColor #1B202A
  IBorderColor #F0A456
  EBackgroundColor #1B202A
  EBorderColor #F0A456
}

class Entity {
  +identity
  +mutableState
  +equals(other) bool
}

class ValueObject {
  +immutableState
  +noIdentity
  +equals(other) bool
}

class AggregateRoot {
  +Entity
  +rootOfConsistencyBoundary
  +transactionalConsistency
}

interface Repository {
  +find(id)
  +save(aggregate)
  +remove(aggregate)
}

class DomainService {
  +businessLogic()
  +stateless
  +operatesOnMultipleEntities()
}

class Factory {
  +createComplexObjects()
  +encapsulatesCreationLogic()
}

class DomainEvent {
  +name
  +timestamp
  +data
  +notification
}

class BoundedContext {
  +autonomousDomain
  +explicitBoundaries
  +ubiquitousLanguage
}

AggregateRoot - -|> Entity: je
AggregateRoot o- - Entity: obsahuje
AggregateRoot o- - ValueObject: obsahuje
Repository ..> AggregateRoot: pracuje s
Factory ..> AggregateRoot: vytváří
DomainService ..> Entity: používá
DomainService ..> ValueObject: používá
AggregateRoot ..> DomainEvent: publikuje
BoundedContext o- - AggregateRoot: obsahuje
BoundedContext o- - Repository: obsahuje
BoundedContext o- - DomainService: obsahuje

@enduml

PlantUML version 1.2020.02(Sun Mar 01 11:22:07 CET 2020)
(GPL source distribution)
Java Runtime: OpenJDK Runtime Environment
JVM: OpenJDK 64-Bit Server VM
Java Version: 21.0.10+7-Debian-1deb13u1
Operating System: Linux
Default Encoding: UTF-8
Language: cs
Country: CZ
--></g></svg>