<?xml version="1.0" encoding="UTF-8" standalone="no"?><svg xmlns="http://www.w3.org/2000/svg" xmlns:xlink="http://www.w3.org/1999/xlink" contentScriptType="application/ecmascript" contentStyleType="text/css" height="1082.8125px" preserveAspectRatio="none" style="width:1260px;height:1082px;background:#FAFAFA;" version="1.1" viewBox="0 0 1260 1082" width="1260.9375px" zoomAndPan="magnify"><defs/><g><!--MD5=[be996cdb8e6bf2fc7cb89c555f2cd144]
class Entity--><rect fill="#FEFECE" height="162.3047" id="Entity" style="stroke: #A80036; stroke-width: 2.34375;" width="262.5" x="237.5" y="889.8438"/><ellipse cx="327.7344" cy="914.8438" fill="#ADD1B2" rx="17.1875" ry="17.1875" style="stroke: #A80036; stroke-width: 1.5625;"/><path d="M331.5674,923.6816 Q330.7129,924.1211 329.7607,924.3408 Q328.833,924.585 327.7832,924.585 Q324.0967,924.585 322.1436,922.1436 Q320.2148,919.7021 320.2148,915.1123 Q320.2148,910.5225 322.1436,908.1055 Q324.0967,905.6641 327.7832,905.6641 Q328.833,905.6641 329.7852,905.8838 Q330.7373,906.1035 331.5674,906.543 L331.5674,910.5469 Q330.6396,909.6924 329.7607,909.3018 Q328.8818,908.8867 327.9541,908.8867 Q325.9766,908.8867 324.9756,910.4736 Q323.9746,912.0361 323.9746,915.1123 Q323.9746,918.1885 324.9756,919.7754 Q325.9766,921.3379 327.9541,921.3379 Q328.8818,921.3379 329.7607,920.9473 Q330.6396,920.5322 331.5674,919.6777 L331.5674,923.6816 Z "/><text fill="#000000" font-family="Nunito" font-size="25" lengthAdjust="spacingAndGlyphs" textLength="68.75" x="359.7656" y="923.4985">Entity</text><line style="stroke: #A80036; stroke-width: 2.34375;" x1="239.0625" x2="498.4375" y1="939.8438" y2="939.8438"/><ellipse cx="254.6875" cy="957.0313" fill="none" rx="4.6875" ry="4.6875" style="stroke: #038048; stroke-width: 1.5625;"/><text fill="#000000" font-family="Nunito" font-size="25" lengthAdjust="spacingAndGlyphs" textLength="87.5" x="268.75" y="969.2993">identity</text><ellipse cx="254.6875" cy="986.1328" fill="none" rx="4.6875" ry="4.6875" style="stroke: #038048; stroke-width: 1.5625;"/><text fill="#000000" font-family="Nunito" font-size="25" lengthAdjust="spacingAndGlyphs" textLength="159.375" x="268.75" y="998.4009">mutableState</text><line style="stroke: #A80036; stroke-width: 2.34375;" x1="239.0625" x2="498.4375" y1="1010.5469" y2="1010.5469"/><ellipse cx="254.6875" cy="1027.7344" fill="#84BE84" rx="4.6875" ry="4.6875" style="stroke: #038048; stroke-width: 1.5625;"/><text fill="#000000" font-family="Nunito" font-size="25" lengthAdjust="spacingAndGlyphs" textLength="221.875" x="268.75" y="1040.0024">equals(other) bool</text><!--MD5=[4827804e05157d3fd1630e9a95b5d355]
class ValueObject--><rect fill="#FEFECE" height="162.3047" id="ValueObject" style="stroke: #A80036; stroke-width: 2.34375;" width="262.5" x="910.9375" y="889.8438"/><ellipse cx="965.3125" cy="914.8438" fill="#ADD1B2" rx="17.1875" ry="17.1875" style="stroke: #A80036; stroke-width: 1.5625;"/><path d="M969.1455,923.6816 Q968.291,924.1211 967.3389,924.3408 Q966.4111,924.585 965.3613,924.585 Q961.6748,924.585 959.7217,922.1436 Q957.793,919.7021 957.793,915.1123 Q957.793,910.5225 959.7217,908.1055 Q961.6748,905.6641 965.3613,905.6641 Q966.4111,905.6641 967.3633,905.8838 Q968.3154,906.1035 969.1455,906.543 L969.1455,910.5469 Q968.2178,909.6924 967.3389,909.3018 Q966.46,908.8867 965.5322,908.8867 Q963.5547,908.8867 962.5537,910.4736 Q961.5527,912.0361 961.5527,915.1123 Q961.5527,918.1885 962.5537,919.7754 Q963.5547,921.3379 965.5322,921.3379 Q966.46,921.3379 967.3389,920.9473 Q968.2178,920.5322 969.1455,919.6777 L969.1455,923.6816 Z "/><text fill="#000000" font-family="Nunito" font-size="25" lengthAdjust="spacingAndGlyphs" textLength="143.75" x="994.0625" y="923.4985">ValueObject</text><line style="stroke: #A80036; stroke-width: 2.34375;" x1="912.5" x2="1171.875" y1="939.8438" y2="939.8438"/><ellipse cx="928.125" cy="957.0313" fill="none" rx="4.6875" ry="4.6875" style="stroke: #038048; stroke-width: 1.5625;"/><text fill="#000000" font-family="Nunito" font-size="25" lengthAdjust="spacingAndGlyphs" textLength="187.5" x="942.1875" y="969.2993">immutableState</text><ellipse cx="928.125" cy="986.1328" fill="none" rx="4.6875" ry="4.6875" style="stroke: #038048; stroke-width: 1.5625;"/><text fill="#000000" font-family="Nunito" font-size="25" lengthAdjust="spacingAndGlyphs" textLength="121.875" x="942.1875" y="998.4009">noIdentity</text><line style="stroke: #A80036; stroke-width: 2.34375;" x1="912.5" x2="1171.875" y1="1010.5469" y2="1010.5469"/><ellipse cx="928.125" cy="1027.7344" fill="#84BE84" rx="4.6875" ry="4.6875" style="stroke: #038048; stroke-width: 1.5625;"/><text fill="#000000" font-family="Nunito" font-size="25" lengthAdjust="spacingAndGlyphs" textLength="221.875" x="942.1875" y="1040.0024">equals(other) bool</text><!--MD5=[46d0916f28b0640e2d87ad18b383baa6]
class AggregateRoot--><rect fill="#FEFECE" height="162.3047" id="AggregateRoot" style="stroke: #A80036; stroke-width: 2.34375;" width="389.0625" x="336.7188" y="587.5"/><ellipse cx="432.4219" cy="612.5" fill="#ADD1B2" rx="17.1875" ry="17.1875" style="stroke: #A80036; stroke-width: 1.5625;"/><path d="M436.2549,621.3379 Q435.4004,621.7773 434.4482,621.9971 Q433.5205,622.2412 432.4707,622.2412 Q428.7842,622.2412 426.8311,619.7998 Q424.9023,617.3584 424.9023,612.7686 Q424.9023,608.1787 426.8311,605.7617 Q428.7842,603.3203 432.4707,603.3203 Q433.5205,603.3203 434.4727,603.54 Q435.4248,603.7598 436.2549,604.1992 L436.2549,608.2031 Q435.3271,607.3486 434.4482,606.958 Q433.5693,606.543 432.6416,606.543 Q430.6641,606.543 429.6631,608.1299 Q428.6621,609.6924 428.6621,612.7686 Q428.6621,615.8447 429.6631,617.4316 Q430.6641,618.9941 432.6416,618.9941 Q433.5693,618.9941 434.4482,618.6035 Q435.3271,618.1885 436.2549,617.334 L436.2549,621.3379 Z "/><text fill="#000000" font-family="Nunito" font-size="25" lengthAdjust="spacingAndGlyphs" textLength="184.375" x="464.4531" y="621.1548">AggregateRoot</text><line style="stroke: #A80036; stroke-width: 2.34375;" x1="338.2813" x2="724.2188" y1="637.5" y2="637.5"/><ellipse cx="353.9063" cy="654.6875" fill="none" rx="4.6875" ry="4.6875" style="stroke: #038048; stroke-width: 1.5625;"/><text fill="#000000" font-family="Nunito" font-size="25" lengthAdjust="spacingAndGlyphs" textLength="68.75" x="367.9688" y="666.9556">Entity</text><ellipse cx="353.9063" cy="683.7891" fill="none" rx="4.6875" ry="4.6875" style="stroke: #038048; stroke-width: 1.5625;"/><text fill="#000000" font-family="Nunito" font-size="25" lengthAdjust="spacingAndGlyphs" textLength="348.4375" x="367.9688" y="696.0571">rootOfConsistencyBoundary</text><ellipse cx="353.9063" cy="712.8906" fill="none" rx="4.6875" ry="4.6875" style="stroke: #038048; stroke-width: 1.5625;"/><text fill="#000000" font-family="Nunito" font-size="25" lengthAdjust="spacingAndGlyphs" textLength="304.6875" x="367.9688" y="725.1587">transactionalConsistency</text><line style="stroke: #A80036; stroke-width: 2.34375;" x1="338.2813" x2="724.2188" y1="737.3047" y2="737.3047"/><!--MD5=[c05f8d4c5007184b0fb1ea93cdb8d9fe]
class Repository--><rect fill="#FEFECE" height="162.3047" id="Repository" style="stroke: #A80036; stroke-width: 2.34375;" width="275" x="9.375" y="300"/><ellipse cx="75.7031" cy="325" fill="#B4A7E5" rx="17.1875" ry="17.1875" style="stroke: #A80036; stroke-width: 1.5625;"/><path d="M69.9902,319.3115 L69.9902,316.1377 L80.8545,316.1377 L80.8545,319.3115 L77.2168,319.3115 L77.2168,331.2012 L80.8545,331.2012 L80.8545,334.375 L69.9902,334.375 L69.9902,331.2012 L73.6279,331.2012 L73.6279,319.3115 L69.9902,319.3115 Z "/><text fill="#000000" font-family="Nunito" font-size="25" font-style="italic" lengthAdjust="spacingAndGlyphs" textLength="129.6875" x="107.1094" y="333.6548">Repository</text><line style="stroke: #A80036; stroke-width: 2.34375;" x1="10.9375" x2="282.8125" y1="350" y2="350"/><line style="stroke: #A80036; stroke-width: 2.34375;" x1="10.9375" x2="282.8125" y1="362.5" y2="362.5"/><ellipse cx="26.5625" cy="379.6875" fill="#84BE84" rx="4.6875" ry="4.6875" style="stroke: #038048; stroke-width: 1.5625;"/><text fill="#000000" font-family="Nunito" font-size="25" lengthAdjust="spacingAndGlyphs" textLength="84.375" x="40.625" y="391.9556">find(id)</text><ellipse cx="26.5625" cy="408.7891" fill="#84BE84" rx="4.6875" ry="4.6875" style="stroke: #038048; stroke-width: 1.5625;"/><text fill="#000000" font-family="Nunito" font-size="25" lengthAdjust="spacingAndGlyphs" textLength="198.4375" x="40.625" y="421.0571">save(aggregate)</text><ellipse cx="26.5625" cy="437.8906" fill="#84BE84" rx="4.6875" ry="4.6875" style="stroke: #038048; stroke-width: 1.5625;"/><text fill="#000000" font-family="Nunito" font-size="25" lengthAdjust="spacingAndGlyphs" textLength="234.375" x="40.625" y="450.1587">remove(aggregate)</text><!--MD5=[2e594e2eb916e869f6825b947cef792c]
class DomainService--><rect fill="#FEFECE" height="162.3047" id="DomainService" style="stroke: #A80036; stroke-width: 2.34375;" width="379.6875" x="864.8438" y="587.5"/><ellipse cx="958.2031" cy="612.5" fill="#ADD1B2" rx="17.1875" ry="17.1875" style="stroke: #A80036; stroke-width: 1.5625;"/><path d="M962.0361,621.3379 Q961.1816,621.7773 960.2295,621.9971 Q959.3018,622.2412 958.252,622.2412 Q954.5654,622.2412 952.6123,619.7998 Q950.6836,617.3584 950.6836,612.7686 Q950.6836,608.1787 952.6123,605.7617 Q954.5654,603.3203 958.252,603.3203 Q959.3018,603.3203 960.2539,603.54 Q961.2061,603.7598 962.0361,604.1992 L962.0361,608.2031 Q961.1084,607.3486 960.2295,606.958 Q959.3506,606.543 958.4229,606.543 Q956.4453,606.543 955.4443,608.1299 Q954.4434,609.6924 954.4434,612.7686 Q954.4434,615.8447 955.4443,617.4316 Q956.4453,618.9941 958.4229,618.9941 Q959.3506,618.9941 960.2295,618.6035 Q961.1084,618.1885 962.0361,617.334 L962.0361,621.3379 Z "/><text fill="#000000" font-family="Nunito" font-size="25" lengthAdjust="spacingAndGlyphs" textLength="179.6875" x="990.2344" y="621.1548">DomainService</text><line style="stroke: #A80036; stroke-width: 2.34375;" x1="866.4063" x2="1242.9688" y1="637.5" y2="637.5"/><ellipse cx="882.0313" cy="654.6875" fill="none" rx="4.6875" ry="4.6875" style="stroke: #038048; stroke-width: 1.5625;"/><text fill="#000000" font-family="Nunito" font-size="25" lengthAdjust="spacingAndGlyphs" textLength="107.8125" x="896.0938" y="666.9556">stateless</text><line style="stroke: #A80036; stroke-width: 2.34375;" x1="866.4063" x2="1242.9688" y1="679.1016" y2="679.1016"/><ellipse cx="882.0313" cy="696.2891" fill="#84BE84" rx="4.6875" ry="4.6875" style="stroke: #038048; stroke-width: 1.5625;"/><text fill="#000000" font-family="Nunito" font-size="25" lengthAdjust="spacingAndGlyphs" textLength="190.625" x="896.0938" y="708.5571">businessLogic()</text><ellipse cx="882.0313" cy="725.3906" fill="#84BE84" rx="4.6875" ry="4.6875" style="stroke: #038048; stroke-width: 1.5625;"/><text fill="#000000" font-family="Nunito" font-size="25" lengthAdjust="spacingAndGlyphs" textLength="339.0625" x="896.0938" y="737.6587">operatesOnMultipleEntities()</text><!--MD5=[dcda66dabdb739ec36f1175150e3c9d5]
class Factory--><rect fill="#FEFECE" height="133.2031" id="Factory" style="stroke: #A80036; stroke-width: 2.34375;" width="384.375" x="339.0625" y="314.8438"/><ellipse cx="478.5156" cy="339.8438" fill="#ADD1B2" rx="17.1875" ry="17.1875" style="stroke: #A80036; stroke-width: 1.5625;"/><path d="M482.3486,348.6816 Q481.4941,349.1211 480.542,349.3408 Q479.6143,349.585 478.5645,349.585 Q474.8779,349.585 472.9248,347.1436 Q470.9961,344.7021 470.9961,340.1123 Q470.9961,335.5225 472.9248,333.1055 Q474.8779,330.6641 478.5645,330.6641 Q479.6143,330.6641 480.5664,330.8838 Q481.5186,331.1035 482.3486,331.543 L482.3486,335.5469 Q481.4209,334.6924 480.542,334.3018 Q479.6631,333.8867 478.7354,333.8867 Q476.7578,333.8867 475.7568,335.4736 Q474.7559,337.0361 474.7559,340.1123 Q474.7559,343.1885 475.7568,344.7754 Q476.7578,346.3379 478.7354,346.3379 Q479.6631,346.3379 480.542,345.9473 Q481.4209,345.5322 482.3486,344.6777 L482.3486,348.6816 Z "/><text fill="#000000" font-family="Nunito" font-size="25" lengthAdjust="spacingAndGlyphs" textLength="92.1875" x="510.5469" y="348.4985">Factory</text><line style="stroke: #A80036; stroke-width: 2.34375;" x1="340.625" x2="721.875" y1="364.8438" y2="364.8438"/><line style="stroke: #A80036; stroke-width: 2.34375;" x1="340.625" x2="721.875" y1="377.3438" y2="377.3438"/><ellipse cx="356.25" cy="394.5313" fill="#84BE84" rx="4.6875" ry="4.6875" style="stroke: #038048; stroke-width: 1.5625;"/><text fill="#000000" font-family="Nunito" font-size="25" lengthAdjust="spacingAndGlyphs" textLength="293.75" x="370.3125" y="406.7993">createComplexObjects()</text><ellipse cx="356.25" cy="423.6328" fill="#84BE84" rx="4.6875" ry="4.6875" style="stroke: #038048; stroke-width: 1.5625;"/><text fill="#000000" font-family="Nunito" font-size="25" lengthAdjust="spacingAndGlyphs" textLength="343.75" x="370.3125" y="435.9009">encapsulatesCreationLogic()</text><!--MD5=[f05baac85afee086abd0a6acb4246613]
class DomainEvent--><rect fill="#FEFECE" height="191.4063" id="DomainEvent" style="stroke: #A80036; stroke-width: 2.34375;" width="210.9375" x="555.4688" y="875"/><ellipse cx="578.9063" cy="900" fill="#ADD1B2" rx="17.1875" ry="17.1875" style="stroke: #A80036; stroke-width: 1.5625;"/><path d="M582.7393,908.8379 Q581.8848,909.2773 580.9326,909.4971 Q580.0049,909.7412 578.9551,909.7412 Q575.2686,909.7412 573.3154,907.2998 Q571.3867,904.8584 571.3867,900.2686 Q571.3867,895.6787 573.3154,893.2617 Q575.2686,890.8203 578.9551,890.8203 Q580.0049,890.8203 580.957,891.04 Q581.9092,891.2598 582.7393,891.6992 L582.7393,895.7031 Q581.8115,894.8486 580.9326,894.458 Q580.0537,894.043 579.126,894.043 Q577.1484,894.043 576.1475,895.6299 Q575.1465,897.1924 575.1465,900.2686 Q575.1465,903.3447 576.1475,904.9316 Q577.1484,906.4941 579.126,906.4941 Q580.0537,906.4941 580.9326,906.1035 Q581.8115,905.6885 582.7393,904.834 L582.7393,908.8379 Z "/><text fill="#000000" font-family="Nunito" font-size="25" lengthAdjust="spacingAndGlyphs" textLength="160.9375" x="600.7813" y="908.6548">DomainEvent</text><line style="stroke: #A80036; stroke-width: 2.34375;" x1="557.0313" x2="764.8438" y1="925" y2="925"/><ellipse cx="572.6563" cy="942.1875" fill="none" rx="4.6875" ry="4.6875" style="stroke: #038048; stroke-width: 1.5625;"/><text fill="#000000" font-family="Nunito" font-size="25" lengthAdjust="spacingAndGlyphs" textLength="67.1875" x="586.7188" y="954.4556">name</text><ellipse cx="572.6563" cy="971.2891" fill="none" rx="4.6875" ry="4.6875" style="stroke: #038048; stroke-width: 1.5625;"/><text fill="#000000" font-family="Nunito" font-size="25" lengthAdjust="spacingAndGlyphs" textLength="128.125" x="586.7188" y="983.5571">timestamp</text><ellipse cx="572.6563" cy="1000.3906" fill="none" rx="4.6875" ry="4.6875" style="stroke: #038048; stroke-width: 1.5625;"/><text fill="#000000" font-family="Nunito" font-size="25" lengthAdjust="spacingAndGlyphs" textLength="53.125" x="586.7188" y="1012.6587">data</text><ellipse cx="572.6563" cy="1029.4922" fill="none" rx="4.6875" ry="4.6875" style="stroke: #038048; stroke-width: 1.5625;"/><text fill="#000000" font-family="Nunito" font-size="25" lengthAdjust="spacingAndGlyphs" textLength="132.8125" x="586.7188" y="1041.7603">notification</text><line style="stroke: #A80036; stroke-width: 2.34375;" x1="557.0313" x2="764.8438" y1="1053.9063" y2="1053.9063"/><!--MD5=[4305153bc2f886c006b83d01ec22ac39]
class BoundedContext--><rect fill="#FEFECE" height="162.3047" id="BoundedContext" style="stroke: #A80036; stroke-width: 2.34375;" width="287.5" x="689.0625" y="12.5"/><ellipse cx="726.5625" cy="37.5" fill="#ADD1B2" rx="17.1875" ry="17.1875" style="stroke: #A80036; stroke-width: 1.5625;"/><path d="M730.3955,46.3379 Q729.541,46.7773 728.5889,46.9971 Q727.6611,47.2412 726.6113,47.2412 Q722.9248,47.2412 720.9717,44.7998 Q719.043,42.3584 719.043,37.7686 Q719.043,33.1787 720.9717,30.7617 Q722.9248,28.3203 726.6113,28.3203 Q727.6611,28.3203 728.6133,28.54 Q729.5654,28.7598 730.3955,29.1992 L730.3955,33.2031 Q729.4678,32.3486 728.5889,31.958 Q727.71,31.543 726.7822,31.543 Q724.8047,31.543 723.8037,33.1299 Q722.8027,34.6924 722.8027,37.7686 Q722.8027,40.8447 723.8037,42.4316 Q724.8047,43.9941 726.7822,43.9941 Q727.71,43.9941 728.5889,43.6035 Q729.4678,43.1885 730.3955,42.334 L730.3955,46.3379 Z "/><text fill="#000000" font-family="Nunito" font-size="25" lengthAdjust="spacingAndGlyphs" textLength="206.25" x="751.5625" y="46.1548">BoundedContext</text><line style="stroke: #A80036; stroke-width: 2.34375;" x1="690.625" x2="975" y1="62.5" y2="62.5"/><ellipse cx="706.25" cy="79.6875" fill="none" rx="4.6875" ry="4.6875" style="stroke: #038048; stroke-width: 1.5625;"/><text fill="#000000" font-family="Nunito" font-size="25" lengthAdjust="spacingAndGlyphs" textLength="246.875" x="720.3125" y="91.9556">autonomousDomain</text><ellipse cx="706.25" cy="108.7891" fill="none" rx="4.6875" ry="4.6875" style="stroke: #038048; stroke-width: 1.5625;"/><text fill="#000000" font-family="Nunito" font-size="25" lengthAdjust="spacingAndGlyphs" textLength="220.3125" x="720.3125" y="121.0571">explicitBoundaries</text><ellipse cx="706.25" cy="137.8906" fill="none" rx="4.6875" ry="4.6875" style="stroke: #038048; stroke-width: 1.5625;"/><text fill="#000000" font-family="Nunito" font-size="25" lengthAdjust="spacingAndGlyphs" textLength="245.3125" x="720.3125" y="150.1587">ubiquitousLanguage</text><line style="stroke: #A80036; stroke-width: 2.34375;" x1="690.625" x2="975" y1="162.3047" y2="162.3047"/><!--MD5=[df62cef171a2f9b6d3f5299544081860]
link AggregateRoot to Entity--><path d="M398.7969,750.25 C384.8594,764.0469 372.6563,779.5938 364.0625,796.875 C354.75,815.5938 350.8594,836.9219 350.125,858.0625 " fill="none" id="AggregateRoot-&gt;Entity" style="stroke: #005A9C; stroke-width: 3.125;"/><polygon fill="none" points="361.0781,858.0313,351.1563,889.6094,339.2031,858.7344,361.0781,858.0313" style="stroke: #005A9C; stroke-width: 3.125;"/><text fill="#000000" font-family="Nunito" font-size="25" lengthAdjust="spacingAndGlyphs" textLength="18.75" x="365.625" y="821.6431">je</text><!--MD5=[c5f3ad01b085d448fc17413c24c4d278]
reverse link AggregateRoot to Entity--><path d="M478.0313,768.2969 C456.7188,807.5469 432.4687,852.1875 412.25,889.4375 " fill="none" id="AggregateRoot&lt;-Entity" style="stroke: #005A9C; stroke-width: 3.125;"/><polygon fill="#FAFAFA" points="487.9219,750.1094,477.9578,755.3696,478.9809,766.5903,488.9451,761.3302,487.9219,750.1094" style="stroke: #005A9C; stroke-width: 3.125;"/><text fill="#000000" font-family="Nunito" font-size="25" lengthAdjust="spacingAndGlyphs" textLength="109.375" x="460.9375" y="821.6431">obsahuje</text><!--MD5=[669d2ccae4b9c12a4409a6a7187911a9]
reverse link AggregateRoot to ValueObject--><path d="M680.9063,761.125 C717.7031,783.2188 757.0625,806.6563 793.75,828.125 C831.4531,850.1719 872.5781,873.7813 910.3438,895.2656 " fill="none" id="AggregateRoot&lt;-ValueObject" style="stroke: #005A9C; stroke-width: 3.125;"/><polygon fill="#FAFAFA" points="663.0781,750.4063,667.8919,760.5935,679.147,760.0682,674.3332,749.8809,663.0781,750.4063" style="stroke: #005A9C; stroke-width: 3.125;"/><text fill="#000000" font-family="Nunito" font-size="25" lengthAdjust="spacingAndGlyphs" textLength="109.375" x="795.3125" y="821.6431">obsahuje</text><!--MD5=[f631d918521e6cf426d582f6528afb1d]
link Repository to AggregateRoot--><path d="M254.9688,462.7813 C305.3281,500.0469 365.2969,544.4063 416.4688,582.2656 " fill="none" id="Repository-&gt;AggregateRoot" style="stroke: #005A9C; stroke-width: 3.125; stroke-dasharray: 7.0,7.0;"/><polygon fill="#005A9C" points="423.2969,587.3281,415.7432,573.9207,417.0282,582.6656,408.2833,583.9506,423.2969,587.3281" style="stroke: #005A9C; stroke-width: 3.125;"/><text fill="#000000" font-family="Nunito" font-size="25" lengthAdjust="spacingAndGlyphs" textLength="110.9375" x="353.125" y="534.1431">pracuje s</text><!--MD5=[24a6d5d57f074849ae723aa427de7e27]
link Factory to AggregateRoot--><path d="M531.25,448.0469 C531.25,486.9531 531.25,536.8594 531.25,579.2031 " fill="none" id="Factory-&gt;AggregateRoot" style="stroke: #005A9C; stroke-width: 3.125; stroke-dasharray: 7.0,7.0;"/><polygon fill="#005A9C" points="531.25,587.0156,537.5,572.9531,531.25,579.2031,525,572.9531,531.25,587.0156" style="stroke: #005A9C; stroke-width: 3.125;"/><text fill="#000000" font-family="Nunito" font-size="25" lengthAdjust="spacingAndGlyphs" textLength="81.25" x="532.8125" y="534.1431">vytváří</text><!--MD5=[ae4d078d490f089e0ae19b7d0100986f]
link DomainService to Entity--><path d="M1001.5,750.375 C977.8125,779.6563 947.3437,810.0156 912.5,828.125 C759.7969,907.5 691.0313,819.5 528.125,875 C518.6563,878.2187 509.1406,882.0625 499.7344,886.3125 " fill="none" id="DomainService-&gt;Entity" style="stroke: #005A9C; stroke-width: 3.125; stroke-dasharray: 7.0,7.0;"/><polygon fill="#005A9C" points="492.5625,889.6406,507.9494,889.3947,499.65,886.354,502.6907,878.0546,492.5625,889.6406" style="stroke: #005A9C; stroke-width: 3.125;"/><text fill="#000000" font-family="Nunito" font-size="25" lengthAdjust="spacingAndGlyphs" textLength="93.75" x="956.25" y="821.6431">používá</text><!--MD5=[88e4668aee0170d0a2b63573a3d32efc]
link DomainService to ValueObject--><path d="M1067.2344,750.4844 C1069.1719,765.8438 1070.8594,781.8281 1071.875,796.875 C1073.75,824.5156 1070.5313,854.3438 1065.6094,881.2969 " fill="none" id="DomainService-&gt;ValueObject" style="stroke: #005A9C; stroke-width: 3.125; stroke-dasharray: 7.0,7.0;"/><polygon fill="#005A9C" points="1064.0156,889.5625,1072.8034,876.9295,1065.4877,881.8899,1060.5273,874.5742,1064.0156,889.5625" style="stroke: #005A9C; stroke-width: 3.125;"/><text fill="#000000" font-family="Nunito" font-size="25" lengthAdjust="spacingAndGlyphs" textLength="93.75" x="1073.4375" y="821.6431">používá</text><!--MD5=[f8190755ef156f60cd508d6c5449ede3]
link AggregateRoot to DomainEvent--><path d="M565.8281,750.1094 C581.375,785.9688 599.9219,828.75 616.4844,866.9531 " fill="none" id="AggregateRoot-&gt;DomainEvent" style="stroke: #005A9C; stroke-width: 3.125; stroke-dasharray: 7.0,7.0;"/><polygon fill="#005A9C" points="619.7656,874.5313,619.913,859.1431,616.6612,867.362,608.4423,864.1102,619.7656,874.5313" style="stroke: #005A9C; stroke-width: 3.125;"/><text fill="#000000" font-family="Nunito" font-size="25" lengthAdjust="spacingAndGlyphs" textLength="104.6875" x="596.875" y="821.6431">publikuje</text><!--MD5=[336313230c6b5b954c57c6436388ec13]
reverse link BoundedContext to AggregateRoot--><path d="M826.7969,195.9063 C818.4688,273.1719 798.6563,380.2344 751.5625,462.5 C724.3281,510.0781 682.375,553.0625 642.3438,587.2188 " fill="none" id="BoundedContext&lt;-AggregateRoot" style="stroke: #005A9C; stroke-width: 3.125;"/><polygon fill="#FAFAFA" points="828.8125,175.4531,821.675,184.1714,826.9774,194.1131,834.115,185.3948,828.8125,175.4531" style="stroke: #005A9C; stroke-width: 3.125;"/><text fill="#000000" font-family="Nunito" font-size="25" lengthAdjust="spacingAndGlyphs" textLength="109.375" x="810.9375" y="390.3931">obsahuje</text><!--MD5=[a9dc0fb0537b4c7c111cb8b991bf235c]
reverse link BoundedContext to Repository--><path d="M669.1094,155.75 C565.5938,194.8906 429.4375,248.0781 310.9375,300 C302.375,303.75 293.625,307.6875 284.8125,311.7344 " fill="none" id="BoundedContext&lt;-Repository" style="stroke: #005A9C; stroke-width: 3.125;"/><polygon fill="#FAFAFA" points="688.7031,148.3594,677.7256,145.8203,671.1597,154.9768,682.1372,157.5159,688.7031,148.3594" style="stroke: #005A9C; stroke-width: 3.125;"/><text fill="#000000" font-family="Nunito" font-size="25" lengthAdjust="spacingAndGlyphs" textLength="109.375" x="496.875" y="246.6431">obsahuje</text><!--MD5=[cf0c85c29a10d97a937cb579d4bd6f91]
reverse link BoundedContext to DomainService--><path d="M900.0313,192.375 C920.7344,225.4219 942.1719,263.3125 957.8125,300 C998.2813,394.9063 1025.4844,511 1040.5,586.9063 " fill="none" id="BoundedContext&lt;-DomainService" style="stroke: #005A9C; stroke-width: 3.125;"/><polygon fill="#FAFAFA" points="888.9688,175.0469,888.749,186.3121,899.0631,190.8477,899.2829,179.5825,888.9688,175.0469" style="stroke: #005A9C; stroke-width: 3.125;"/><text fill="#000000" font-family="Nunito" font-size="25" lengthAdjust="spacingAndGlyphs" textLength="109.375" x="1010.9375" y="390.3931">obsahuje</text><!--MD5=[ea295d09ca83e09379e662740e225b73]
@startuml
skinparam dpi 150
skinparam backgroundColor #FAFAFA
skinparam shadowing false

skinparam defaultFontName "Nunito"
skinparam defaultFontSize 16
skinparam defaultTextAlignment center

skinparam node {
  BackgroundColor #FFFFFF
  BorderColor #005A9C
  BorderThickness 2
}

skinparam component {
  BackgroundColor #FFFFFF
  BorderColor #005A9C
  BorderThickness 2
}

skinparam rectangle {
  BackgroundColor #FFFFFF
  BorderColor #005A9C
  BorderThickness 2
}

skinparam arrowColor #005A9C
skinparam arrowThickness 2

skinparam activity {
  BackgroundColor #FFFFFF
  BorderColor #005A9C
}

skinparam sequence {
  ParticipantBorderColor #005A9C
  LifeLineBorderColor #005A9C
  LifeLineBackgroundColor #E6F0FA
  ParticipantBackgroundColor #FFFFFF
}

skinparam package {
  BackgroundColor #FAFAFA
  BorderColor #005A9C
}

skinparam note {
  BackgroundColor #E6F0FA
  BorderColor #005A9C
}

skinparam title {
  BackgroundColor #FFFFFF
  BorderColor #005A9C
}

skinparam sequenceArrowThickness 2
skinparam sequenceArrowColor #005A9C


class Entity {
  +identity
  +mutableState
  +equals(other) bool
}

class ValueObject {
  +immutableState
  +noIdentity
  +equals(other) bool
}

class AggregateRoot {
  +Entity
  +rootOfConsistencyBoundary
  +transactionalConsistency
}

interface Repository {
  +find(id)
  +save(aggregate)
  +remove(aggregate)
}

class DomainService {
  +businessLogic()
  +stateless
  +operatesOnMultipleEntities()
}

class Factory {
  +createComplexObjects()
  +encapsulatesCreationLogic()
}

class DomainEvent {
  +name
  +timestamp
  +data
  +notification
}

class BoundedContext {
  +autonomousDomain
  +explicitBoundaries
  +ubiquitousLanguage
}

AggregateRoot - -|> Entity: je
AggregateRoot o- - Entity: obsahuje
AggregateRoot o- - ValueObject: obsahuje
Repository ..> AggregateRoot: pracuje s
Factory ..> AggregateRoot: vytváří
DomainService ..> Entity: používá
DomainService ..> ValueObject: používá
AggregateRoot ..> DomainEvent: publikuje
BoundedContext o- - AggregateRoot: obsahuje
BoundedContext o- - Repository: obsahuje
BoundedContext o- - DomainService: obsahuje

@enduml

PlantUML version 1.2020.02(Sun Mar 01 11:22:07 CET 2020)
(GPL source distribution)
Java Runtime: OpenJDK Runtime Environment
JVM: OpenJDK 64-Bit Server VM
Java Version: 21.0.10+7-Debian-1deb13u1
Operating System: Linux
Default Encoding: UTF-8
Language: cs
Country: CZ
--></g></svg>